<!-- Generated by IcoMoon.io -->
<svg version="1.1" xmlns="http://www.w3.org/2000/svg" width="16" height="16" viewBox="0 0 16 16">
<title>abbrobotstudio</title>
<path fill="#ff9e0f" d="M16 8.307c0 3.535-2.865 6.4-6.4 6.4s-6.4-2.865-6.4-6.4v0h0.713c0 3.141 2.546 5.687 5.687 5.687s5.687-2.546 5.687-5.687c0-3.141-2.546-5.687-5.687-5.687v0-0.713c3.535 0 6.4 2.865 6.4 6.4v0zM9.6 6.173c-1.178 0-2.133 0.955-2.133 2.133s0.955 2.133 2.133 2.133c1.178 0 2.133-0.955 2.133-2.133v0c0-1.178-0.955-2.133-2.133-2.133v0zM8.267 6.173l-0.4-4.447-1.64 1.28-0.973-0.96c-0.543-0.471-1.256-0.758-2.036-0.758-0.637 0-1.229 0.191-1.722 0.519l0.011-0.007-1.347 0.867c-0.096 0.066-0.158 0.175-0.158 0.298 0 0.073 0.022 0.14 0.059 0.197l-0.001-0.001c0.066 0.096 0.174 0.158 0.298 0.158 0.073 0 0.14-0.022 0.197-0.059l-0.001 0.001 1.333-0.873c0.375-0.249 0.835-0.397 1.33-0.397 0.582 0 1.117 0.205 1.535 0.547l-0.004-0.003 0.913 0.92-1.527 1.213z"></path>
</svg>
