<!-- Generated by IcoMoon.io -->
<svg version="1.1" xmlns="http://www.w3.org/2000/svg" width="16" height="16" viewBox="0 0 16 16">
<title>about-dot-me</title>
<path fill="#00a98f" d="M13.024 6.1c-0.915 0-1.422 0.676-1.529 1.411h3.072c-0.083-0.7-0.578-1.41-1.543-1.41zM11.517 8.512c0.157 0.771 0.795 1.313 1.688 1.313 0.483 0 1.18-0.18 1.589-0.609l0.783 0.9c-0.709 0.74-1.769 0.951-2.493 0.951-1.76 0-3.131-1.271-3.131-3.071 0-1.69 1.263-3.080 3.047-3.080 1.723 0 3 1.32 3 3.069v0.511h-4.482zM7.193 11.065v-3.793c0-0.651-0.29-1.024-0.892-1.024-0.543 0-0.903 0.39-1.145 0.671v4.16h-1.567v-3.8c0-0.651-0.277-1.021-0.879-1.021-0.542 0-0.917 0.391-1.145 0.671v4.16h-1.566v-6.083h1.567v0.767c0.267-0.309 0.868-0.84 1.807-0.84 0.831 0 1.397 0.35 1.651 1.060 0.349-0.508 1-1.060 1.94-1.060 1.133 0 1.793 0.673 1.793 1.975v4.16h-1.569z"></path>
</svg>
