<!-- Generated by IcoMoon.io -->
<svg version="1.1" xmlns="http://www.w3.org/2000/svg" width="16" height="16" viewBox="0 0 16 16">
<title>abstract</title>
<path d="M8 0c6.401 0 8 1.599 8 8s-1.599 8-8 8-8-1.599-8-8 1.599-8 8-8zM6.687 12.376c1.683 0.002 3.069-1.38 3.073-3.063 0-1.681-1.383-3.063-3.063-3.063s-3.063 1.383-3.063 3.063c0 1.677 1.377 3.059 3.054 3.063zM12.25 12.25v-8.5h-8.5v1.498h6.999v7.002zM6.687 7.751c0.862 0 1.561 0.7 1.561 1.562s-0.699 1.562-1.562 1.562c-0 0-0 0-0.001 0h0c-0.862-0-1.561-0.7-1.561-1.562s0.699-1.562 1.562-1.562c0 0 0 0 0.001 0h-0z"></path>
</svg>
