<!-- Generated by IcoMoon.io -->
<svg version="1.1" xmlns="http://www.w3.org/2000/svg" width="16" height="16" viewBox="0 0 16 16">
<title>academia</title>
<path d="M14.689 14.12l-5.509-13.814h-3.934l0.699 1.749-4.721 12.065c-0.175 0.612-0.699 0.7-1.224 0.787v0.787h4.547v-0.787c-1.224-0.087-1.924-0.263-1.399-1.574 0.087-0.087 0.437-1.049 0.874-2.273h5.595l0.787 2.011c0.087 0.35 0.175 0.612 0.175 0.874 0 0.699-0.612 0.962-1.749 0.962v0.787h7.171v-0.787c-0.612-0.087-1.137-0.262-1.311-0.787zM4.547 9.574c0.874-2.186 1.836-4.721 2.186-5.683l2.273 5.683z"></path>
</svg>
