<!-- Generated by IcoMoon.io -->
<svg version="1.1" xmlns="http://www.w3.org/2000/svg" width="16" height="16" viewBox="0 0 16 16">
<title>accusoft</title>
<path fill="#ff7e4a" d="M12.052 10.897c-0.139-0.174-5.806-7.42-6.003-7.664-0.186-0.244-0.139-0.313-0.105-0.349 0.070-0.081 0.174-0.070 0.581-0.070 0.244 0 2.659-0.011 2.915-0.011 0.523 0 0.604 0.047 0.662 0.058 0.058 0.023 0.197 0.139 0.302 0.255 0.058 0.070 5.133 6.143 5.179 6.201 0.058 0.070 0.139 0.186 0.209 0.29 0.058 0.105 0.070 0.244-0.023 0.302-0.058 0.035-2.868 1.196-2.949 1.219-0.081 0.035-0.232 0.093-0.349 0.070-0.058 0.001-0.232-0.081-0.418-0.301zM14.92 10.757l0.209 0.035c0 0 0.673 0.128 0.743 0.151 0.069 0.012 0.127 0.070 0.127 0.093 0 0.058-0.035 0.081-0.093 0.116-0.047 0.035-3.089 1.904-3.147 1.939s-0.128 0.070-0.29 0.093c-0.302 0.058-0.871-0.105-1.057-0.139-0.174-0.035-7.641-1.695-7.699-1.719-0.070-0.023-0.116-0.023-0.116-0.093-0.011-0.105 0.151-0.139 0.279-0.186s3.635-1.312 3.762-1.37c0.128-0.058 0.279-0.070 0.36-0.070s0.569 0.070 0.789 0.105 0.847 0.128 0.847 0.128l1.428 1.846c0.244 0.29 0.407 0.407 0.615 0.418 0.105 0.011 0.221-0.023 0.302-0.058 0.059-0.023 2.938-1.289 2.938-1.289zM6.769 6.229c0 0 1.231 1.579 1.243 1.591 0.011 0.023 0.023 0.047 0.047 0.058v0.023c-0.047 0.035-2.241 2.067-2.253 2.079l-2.311 0.847c0 0-0.070 0.023-0.105 0.047s-0.081 0.070-0.070 0.174c0 0.035 0.011 0.569 0.023 0.697-0.011 0.011 0 0-0.011 0.011 0 0-2.845 0.906-2.868 0.906-0.139 0.047-0.407 0.139-0.441 0.116-0.058-0.047 0.011-0.116 0.047-0.163s5.864-5.783 6.085-6.015c0.313-0.337 0.615-0.371 0.615-0.371z"></path>
</svg>
