<!-- Generated by IcoMoon.io -->
<svg version="1.1" xmlns="http://www.w3.org/2000/svg" width="16" height="16" viewBox="0 0 16 16">
<title>acm</title>
<path fill="#0085ca" d="M4.957 8.167c-0.053 0.017-0.1 0.048-0.135 0.090-0.032 0.048-0.049 0.105-0.047 0.163 0 0.1 0.025 0.168 0.080 0.205 0.051 0.037 0.129 0.055 0.235 0.055 0.058 0 0.116-0.013 0.176-0.040 0.060-0.025 0.116-0.063 0.163-0.11v-0.44c-0.112 0.010-0.202 0.020-0.27 0.030-0.070 0.007-0.138 0.023-0.203 0.047zM8 0l-8 8 8 8 8-8zM8 12.905c-2.708-0.001-4.903-2.196-4.905-4.905 0.001-2.708 2.197-4.904 4.905-4.905 2.709 0.001 4.903 2.197 4.905 4.905-0.001 2.709-2.196 4.903-4.905 4.905zM8 3.585v0.001c-2.436 0-4.413 1.977-4.413 4.413s1.977 4.413 4.413 4.413 4.413-1.977 4.413-4.413c0-2.437-1.976-4.413-4.413-4.415zM6.092 9.082h-0.663v-0.224l-0.121 0.103c-0.095 0.072-0.203 0.125-0.318 0.155-0.055 0.013-0.135 0.023-0.235 0.023-0.175 0.005-0.343-0.065-0.465-0.19-0.125-0.127-0.185-0.284-0.185-0.477 0-0.159 0.031-0.285 0.093-0.383 0.067-0.1 0.16-0.18 0.27-0.232 0.137-0.060 0.282-0.101 0.431-0.12 0.167-0.022 0.344-0.040 0.535-0.052v-0.011c0-0.117-0.044-0.198-0.131-0.242-0.087-0.047-0.215-0.068-0.387-0.068-0.078 0-0.169 0.013-0.273 0.042-0.105 0.029-0.205 0.067-0.305 0.109h-0.058v-0.513c0.065-0.020 0.171-0.041 0.32-0.067 0.145-0.027 0.292-0.040 0.442-0.040 0.367 0 0.633 0.061 0.8 0.184s0.25 0.308 0.25 0.558zM8.239 8.971c-0.047 0.019-0.089 0.037-0.133 0.057-0.049 0.020-0.1 0.039-0.153 0.053-0.063 0.016-0.124 0.029-0.18 0.040-0.056 0.009-0.131 0.015-0.224 0.015-0.175 0-0.337-0.022-0.482-0.067-0.14-0.041-0.271-0.11-0.38-0.205s-0.195-0.213-0.249-0.347c-0.060-0.14-0.090-0.305-0.090-0.492-0.005-0.18 0.028-0.357 0.097-0.52 0.060-0.136 0.149-0.256 0.261-0.353 0.11-0.089 0.237-0.155 0.373-0.193 0.147-0.044 0.298-0.064 0.45-0.064 0.247 0 0.488 0.058 0.707 0.17v0.569h-0.085c-0.032-0.029-0.064-0.057-0.098-0.083-0.040-0.032-0.081-0.060-0.125-0.084-0.111-0.063-0.238-0.096-0.367-0.093-0.169 0-0.3 0.057-0.393 0.175-0.092 0.118-0.14 0.276-0.14 0.476 0 0.213 0.050 0.373 0.15 0.477 0.1 0.105 0.231 0.157 0.395 0.157 0.073 0 0.148-0.009 0.22-0.028 0.102-0.029 0.197-0.080 0.277-0.15 0.032-0.027 0.059-0.055 0.082-0.073h0.087zM11.127 9.086v-1.065c0-0.105 0-0.193-0.005-0.265-0.001-0.060-0.013-0.12-0.035-0.175-0.015-0.044-0.047-0.080-0.087-0.1-0.102-0.043-0.217-0.042-0.319 0.001-0.057 0.027-0.112 0.058-0.163 0.093v1.509h-0.662v-1.063c0-0.104-0.002-0.191-0.007-0.264-0.002-0.060-0.013-0.12-0.033-0.176-0.018-0.044-0.051-0.080-0.091-0.1-0.040-0.022-0.097-0.032-0.167-0.032-0.055 0-0.11 0.013-0.16 0.037-0.052 0.027-0.101 0.057-0.152 0.091v1.508h-0.663v-2.125h0.662v0.237c0.096-0.083 0.197-0.155 0.307-0.215 0.099-0.053 0.209-0.080 0.323-0.080 0.121-0.003 0.24 0.030 0.343 0.093 0.102 0.067 0.18 0.163 0.227 0.276 0.127-0.118 0.247-0.209 0.36-0.273s0.227-0.097 0.343-0.097c0.091-0.001 0.18 0.015 0.264 0.050 0.077 0.029 0.147 0.077 0.2 0.14 0.060 0.071 0.107 0.153 0.133 0.243 0.030 0.095 0.044 0.219 0.044 0.369v1.384z"></path>
</svg>
