<!-- Generated by IcoMoon.io -->
<svg version="1.1" xmlns="http://www.w3.org/2000/svg" width="16" height="16" viewBox="0 0 16 16">
<title>adguard</title>
<path fill="#66b574" d="M8 0c-2.321 0-5.049 0.552-7.379 1.752l-0.363 0.186v0.411c0 2.474 0.047 9.075 7.401 13.446l0.342 0.205 0.342-0.205c7.353-4.371 7.4-10.972 7.4-13.447v-0.405l-0.359-0.188c-2.302-1.205-5.063-1.755-7.383-1.755zM8 1.341c1.985 0 4.389 0.509 6.384 1.465-0.005 2.592-0.279 7.695-6.384 11.553-6.105-3.858-6.379-8.961-6.384-11.553 2.024-0.959 4.399-1.465 6.384-1.465zM11.357 5.051c-0.173 0.005-0.323 0.115-0.407 0.199l-3.587 3.72-1.341-1.609c-0.637-0.737-1.508-0.167-1.709-0.033l3.118 3.62 4.257-5.765c-0.084-0.082-0.199-0.132-0.325-0.132-0.002 0-0.004 0-0.006 0h0z"></path>
</svg>
