<!-- Generated by IcoMoon.io -->
<svg version="1.1" xmlns="http://www.w3.org/2000/svg" width="16" height="16" viewBox="0 0 16 16">
<title>adobedreamweaver</title>
<path fill="#35fa00" d="M0 0.2v15.6h16v-15.6zM0.667 0.867h14.667v14.267h-14.667zM2.083 3.873c0-0.056 0.011-0.078 0.077-0.089 0.253-0.011 0.98-0.033 1.731-0.033 2.233 0 3.344 1.441 3.344 3.553 0 2.937-1.927 3.827-3.41 3.827-0.561 0-1.376-0.011-1.673-0.021-0.043 0-0.065-0.033-0.065-0.088zM3.283 10.053c0.187 0.012 0.352 0.023 0.561 0.023 1.232 0 2.145-0.869 2.156-2.739 0.013-1.827-0.933-2.53-2.109-2.53-0.231 0-0.418 0.013-0.605 0.025zM11.742 11.1c-0.077 0-0.099-0.030-0.11-0.095-0.33-1.837-0.605-3.135-0.727-4.037h-0.011c-0.143 0.817-0.407 2.171-0.847 4.052-0.022 0.067-0.044 0.085-0.099 0.085h-1.078c-0.077 0-0.099-0.011-0.12-0.077l-1.178-5.254c-0.011-0.045 0.012-0.089 0.078-0.089h1.078c0.044 0 0.077 0.015 0.088 0.060 0.418 2.364 0.593 3.589 0.66 4.073h0.044c0.077-0.572 0.308-1.764 0.803-4.052 0.022-0.067 0.022-0.083 0.088-0.083h1.133c0.055 0 0.065 0.027 0.077 0.082 0.385 2.167 0.638 3.533 0.704 4.084h0.033c0.107-0.704 0.253-1.653 0.723-4.096 0.011-0.044 0.022-0.071 0.077-0.071h1.013c0.044 0 0.077 0.022 0.055 0.077l-1.309 5.263c-0.010 0.055-0.020 0.077-0.097 0.077z"></path>
</svg>
