<!-- Generated by IcoMoon.io -->
<svg version="1.1" xmlns="http://www.w3.org/2000/svg" width="16" height="16" viewBox="0 0 16 16">
<title>adobephotoshop</title>
<path fill="#00c8ff" d="M0 0.2v15.6h16v-15.6zM0.667 0.867h14.667v14.267h-14.667zM3.867 3.853c0-0.045 0.093-0.077 0.149-0.077 0.429-0.022 1.059-0.033 1.719-0.033 1.848 0 2.567 1.013 2.567 2.311 0 1.693-1.228 2.42-2.735 2.42-0.253 0-0.34-0.011-0.517-0.011v2.561c0 0.055-0.022 0.077-0.077 0.077h-1.029c-0.055 0-0.077-0.020-0.077-0.075zM5.050 7.395c0.153 0.011 0.275 0.011 0.54 0.011 0.78 0 1.513-0.275 1.513-1.331 0-0.847-0.524-1.276-1.415-1.276-0.264 0-0.517 0.011-0.638 0.022zM10.788 6.603c-0.528 0-0.704 0.264-0.704 0.484 0 0.242 0.12 0.407 0.825 0.77 1.045 0.507 1.375 0.99 1.375 1.705 0 1.067-0.813 1.64-1.913 1.64-0.584 0-1.080-0.122-1.367-0.287-0.043-0.022-0.053-0.055-0.053-0.11v-0.978c0-0.067 0.032-0.089 0.076-0.056 0.416 0.275 0.901 0.396 1.341 0.396 0.528 0 0.748-0.22 0.748-0.517 0-0.242-0.153-0.451-0.825-0.803-0.947-0.453-1.343-0.913-1.343-1.685 0-0.858 0.671-1.573 1.837-1.573 0.573 0 0.976 0.088 1.196 0.187 0.055 0.033 0.067 0.088 0.067 0.132v0.913c0 0.055-0.033 0.089-0.1 0.067-0.296-0.176-0.733-0.287-1.159-0.284z"></path>
</svg>
