<!-- Generated by IcoMoon.io -->
<svg version="1.1" xmlns="http://www.w3.org/2000/svg" width="16" height="16" viewBox="0 0 16 16">
<title>adobeillustrator</title>
<path fill="#ff7c00" d="M0 0.2v15.6h16v-15.6zM0.667 0.867h14.667v14.267h-14.667zM5.55 9.033l-0.528 1.999c-0.011 0.055-0.033 0.068-0.099 0.068h-0.979c-0.067 0-0.077-0.022-0.067-0.099l1.893-6.63c0.033-0.12 0.055-0.225 0.065-0.555 0-0.044 0.022-0.067 0.055-0.067h1.397c0.044 0 0.067 0.012 0.077 0.067l2.123 7.196c0.011 0.055 0 0.088-0.055 0.088h-1.1c-0.055 0-0.088-0.013-0.099-0.057l-0.55-2.010zM7.409 7.95c-0.187-0.737-0.627-2.352-0.792-3.133h-0.011c-0.143 0.78-0.495 2.1-0.77 3.133zM10.409 4.245c0-0.429 0.297-0.682 0.682-0.682 0.407 0 0.682 0.275 0.682 0.682 0 0.44-0.287 0.682-0.693 0.682-0.4 0-0.673-0.242-0.671-0.682zM10.483 5.761c0-0.053 0.022-0.073 0.077-0.073h1.047c0.059 0 0.080 0.022 0.080 0.077v5.263c0 0.055-0.011 0.077-0.077 0.077h-1.033c-0.067 0-0.089-0.033-0.089-0.087z"></path>
</svg>
