<!-- Generated by IcoMoon.io -->
<svg version="1.1" xmlns="http://www.w3.org/2000/svg" width="16" height="16" viewBox="0 0 16 16">
<title>adobeaudition</title>
<path fill="#00e4bb" d="M0 0.2v15.6h16v-15.6zM0.667 0.867h14.667v14.267h-14.667zM4.439 9.2l-0.515 1.909c-0.011 0.054-0.033 0.091-0.097 0.091h-0.955c-0.065 0-0.075-0.021-0.065-0.097l1.846-6.427c0.041-0.154 0.065-0.331 0.065-0.513 0-0.011-0-0.022-0-0.033l0 0.002c0-0.043 0.021-0.065 0.053-0.065h1.363c0.043 0 0.065 0.011 0.075 0.065l2.071 6.983c0.011 0.054 0 0.086-0.054 0.086h-1.073c-0.048-0-0.087-0.034-0.096-0.079l-0-0.001-0.537-1.92zM6.253 8.133c-0.183-0.719-0.612-2.286-0.773-3.048h-0.011c-0.139 0.762-0.483 2.039-0.751 3.048zM12.933 10.15c0 0.075 0.011 0.3 0.032 0.665 0 0.043-0.004 0.064-0.047 0.075-0.591 0.26-1.278 0.419-2 0.44l-0.008 0c-0.977 0-1.911-0.375-1.911-1.878v-3.433c0-0.054 0.021-0.086 0.075-0.086h1.049c0.054 0 0.075 0.032 0.075 0.086v3.293c0 0.633 0.277 0.977 0.942 0.977 0.004 0 0.009 0 0.014 0 0.232 0 0.453-0.043 0.656-0.122l-0.012 0.004v-4.152c0-0.054 0.021-0.086 0.075-0.086h0.983c0.065 0 0.075 0.032 0.075 0.086z"></path>
</svg>
