<!-- Generated by IcoMoon.io -->
<svg version="1.1" xmlns="http://www.w3.org/2000/svg" width="16" height="16" viewBox="0 0 16 16">
<title>adobecreativecloud</title>
<path fill="#d41818" d="M16 7.733v0.535c-0.005 0.029-0.011 0.058-0.015 0.087-0.027 0.233-0.045 0.467-0.083 0.699-0.133 0.789-0.407 1.495-0.798 2.12l0.014-0.024c-0.587 0.963-1.412 1.727-2.396 2.225l-0.034 0.015c-0.544 0.28-1.178 0.479-1.848 0.559l-0.027 0.003c-0.145 0.017-0.29 0.033-0.435 0.049h-5.621c-0.029-0.005-0.057-0.013-0.085-0.016-0.598-0.037-1.154-0.181-1.662-0.411l0.030 0.012c-1.131-0.503-1.975-1.32-2.527-2.443-0.231-0.459-0.396-0.993-0.464-1.557l-0.002-0.023-0.047-0.401v-0.52c0.005-0.029 0.013-0.057 0.015-0.087 0.030-0.529 0.14-1.023 0.319-1.483l-0.011 0.033c0.477-1.253 1.311-2.184 2.492-2.786 0.568-0.293 1.234-0.479 1.941-0.513l0.011-0c0.075-0.004 0.162-0.006 0.251-0.006 0.265 0 0.526 0.019 0.78 0.057l-0.029-0.003c0.003 0 0.007 0.001 0.011 0.001 0.032 0 0.061-0.012 0.084-0.032l-0 0c0.463-0.483 1.005-0.887 1.605-1.191l0.034-0.016c0.547-0.281 1.183-0.481 1.856-0.563l0.027-0.003c0.156-0.018 0.311-0.033 0.467-0.049h0.48c0.031 0.005 0.063 0.011 0.093 0.014 0.238 0.029 0.477 0.047 0.712 0.087 0.773 0.136 1.462 0.412 2.071 0.804l-0.022-0.013c0.956 0.603 1.712 1.443 2.197 2.44l0.015 0.035c0.277 0.555 0.472 1.2 0.551 1.881l0.003 0.027c0.017 0.153 0.032 0.305 0.048 0.458zM7.053 4.266c0.010 0.013 0.013 0.019 0.017 0.021 0.329 0.165 0.643 0.359 0.94 0.578 0.019 0.013 0.065 0.008 0.088-0.007 0.815-0.525 1.698-0.706 2.647-0.535 0.93 0.167 1.687 0.64 2.265 1.395 0.655 0.853 0.905 1.82 0.724 2.893-0.121 0.72-0.405 1.367-0.887 1.907-0.88 0.987-1.982 1.395-3.279 1.222-0.798-0.107-1.487-0.457-2.057-1.043-0.732-0.752-1.469-1.499-2.203-2.249-0.098-0.1-0.207-0.18-0.347-0.198-0.022-0.003-0.048-0.005-0.074-0.005-0.222 0-0.414 0.132-0.501 0.322l-0.001 0.003c-0.095 0.2-0.083 0.427 0.123 0.632 0.818 0.817 1.629 1.641 2.447 2.46 0.14 0.14 0.29 0.27 0.449 0.388 0.597 0.441 1.271 0.685 2 0.783 0.572 0.077 1.14 0.060 1.703-0.068 1.075-0.246 1.965-0.803 2.667-1.665 0.553-0.671 0.929-1.506 1.048-2.423l0.003-0.024c0.028-0.197 0.044-0.423 0.044-0.654 0-0.325-0.032-0.643-0.093-0.95l0.005 0.031c-0.163-0.847-0.515-1.605-1.080-2.251-1.079-1.231-2.435-1.78-4.049-1.658-0.653 0.055-1.252 0.244-1.783 0.538l0.023-0.012c-0.318 0.17-0.592 0.358-0.843 0.572l0.006-0.005zM6.659 12.86c-0.028-0.026-0.050-0.046-0.071-0.067l0.005 0.004c-0.334-0.321-0.671-0.64-1.001-0.966-0.050-0.056-0.122-0.092-0.202-0.092-0.004 0-0.008 0-0.012 0l0.001-0c-0.335 0.008-0.67 0.009-1-0.067-1.641-0.377-2.593-2.191-1.989-3.787 0.477-1.259 1.797-2.025 3.099-1.789 0.583 0.106 1.096 0.357 1.516 0.798 0.513 0.539 1.041 1.061 1.56 1.594 0.117 0.121 0.253 0.177 0.417 0.153 0.211-0.031 0.379-0.133 0.455-0.344 0.075-0.207 0.039-0.403-0.115-0.563-0.544-0.56-1.075-1.135-1.641-1.671-1.098-1.041-2.392-1.351-3.824-0.908-1.925 0.595-3.053 2.617-2.613 4.613 0.401 1.818 1.965 3.093 3.794 3.095h1.533c0.025 0 0.051-0.003 0.089-0.005z"></path>
</svg>
