<!-- Generated by IcoMoon.io -->
<svg version="1.1" xmlns="http://www.w3.org/2000/svg" width="16" height="16" viewBox="0 0 16 16">
<title>adobelightroomclassic</title>
<path fill="#add5ec" d="M0 0.2v15.6h16v-15.6zM0.667 0.867h14.667v14.267h-14.667zM4.432 11.083c-0.077 0-0.099-0.033-0.099-0.099v-7.163c0-0.055 0.022-0.088 0.077-0.088h1.056c0.056 0 0.067 0.025 0.067 0.080v6.173h2.75c0.055 0 0.071 0.022 0.060 0.077l-0.165 0.947c-0.011 0.055-0.044 0.077-0.099 0.077zM9.367 6.766c0-0.080 0-0.277-0.033-0.651 0-0.055 0.012-0.067 0.056-0.088 0.407-0.164 1.372-0.461 2.45-0.461 0.053 0 0.075 0.011 0.075 0.067v0.968c0 0.056-0.022 0.067-0.077 0.067-0.419-0.022-1.043 0.033-1.273 0.132v4.207c0 0.055-0.022 0.077-0.077 0.077h-1.047c-0.053 0-0.076-0.022-0.076-0.077z"></path>
</svg>
