<!-- Generated by IcoMoon.io -->
<svg version="1.1" xmlns="http://www.w3.org/2000/svg" width="16" height="16" viewBox="0 0 16 16">
<title>adobexd</title>
<path fill="#ff2bc2" d="M13.167 0.2h-10.333c-1.567 0-2.833 1.267-2.833 2.833v9.933c0 1.567 1.267 2.833 2.833 2.833h10.333c1.567 0 2.833-1.267 2.833-2.833v-9.933c0-1.567-1.267-2.833-2.833-2.833zM15.327 12.707c0 0.003 0 0.007 0 0.011 0 1.333-1.080 2.414-2.413 2.415h-9.827c-1.333 0-2.42-1.087-2.42-2.42v-9.427c0-1.333 1.087-2.42 2.42-2.42h9.82c1.337 0 2.42 1.083 2.42 2.42v0zM6.327 7.5l1.867 3.587c0.033 0.053 0.013 0.107-0.040 0.107h-1.16c-0.073 0-0.107-0.020-0.14-0.087-0.427-0.88-0.86-1.76-1.307-2.707h-0.013c-0.4 0.893-0.84 1.833-1.267 2.713-0.033 0.053-0.067 0.073-0.12 0.073h-1.1c-0.067 0-0.073-0.053-0.040-0.093l1.827-3.48-1.767-3.52c-0.040-0.053 0-0.093 0.040-0.093h1.147c0.067 0 0.093 0.013 0.12 0.073 0.42 0.88 0.847 1.787 1.247 2.673h0.013c0.387-0.88 0.813-1.793 1.227-2.667 0.033-0.053 0.053-0.087 0.12-0.087h1.073c0.053 0 0.073 0.040 0.040 0.093zM8.52 8.587c0-1.553 1.033-2.767 2.673-2.767 0.14 0 0.213 0 0.347 0.013v-1.767c0-0.040 0.033-0.067 0.067-0.067h1.053c0.053 0 0.067 0.020 0.067 0.053v6.12c0 0.18 0 0.407 0.033 0.653 0 0.040-0.013 0.053-0.053 0.073-0.56 0.267-1.147 0.387-1.707 0.387-1.447 0.007-2.48-0.887-2.48-2.7zM11.54 6.88c-0.093-0.040-0.227-0.067-0.387-0.067-0.84 0-1.427 0.647-1.427 1.72 0 1.227 0.6 1.72 1.353 1.72 0.16 0 0.333-0.020 0.46-0.073z"></path>
</svg>
