<!-- Generated by IcoMoon.io -->
<svg version="1.1" xmlns="http://www.w3.org/2000/svg" width="16" height="16" viewBox="0 0 16 16">
<title>adobeaftereffects</title>
<path fill="#d291ff" d="M0 0.2v15.6h16v-15.6zM0.667 0.867h14.667v14.267h-14.667zM4.523 9.033l-0.528 1.991c-0.011 0.055-0.033 0.075-0.099 0.075h-0.979c-0.067 0-0.077-0.023-0.067-0.1l1.893-6.622c0.033-0.12 0.055-0.217 0.065-0.547 0-0.044 0.022-0.067 0.055-0.067h1.397c0.044 0 0.067 0.012 0.077 0.067l2.122 7.18c0.011 0.055 0 0.087-0.055 0.087h-1.1c-0.055 0-0.087-0.020-0.098-0.064l-0.55-2.001zM6.393 7.951c-0.187-0.737-0.64-2.353-0.804-3.133h-0.011c-0.143 0.78-0.504 2.099-0.78 3.133zM9.967 8.633c0.011 0.902 0.44 1.507 1.452 1.507 0.396 0 0.735-0.052 1.087-0.207 0.045-0.021 0.078-0.010 0.078 0.045v0.836c0 0.067-0.022 0.1-0.067 0.133-0.351 0.176-0.789 0.253-1.34 0.253-1.76 0-2.42-1.298-2.42-2.75 0-1.573 0.815-2.86 2.245-2.86 1.452 0 1.958 1.222 1.958 2.211 0 0.32-0.023 0.584-0.057 0.705-0.011 0.055-0.033 0.073-0.088 0.085-0.132 0.022-0.528 0.044-1.111 0.044zM11.32 7.717c0.341 0 0.462 0 0.495-0.011 0-0.045 0.011-0.083 0.011-0.116 0-0.363-0.177-1.029-0.871-1.029-0.638 0-0.913 0.561-0.979 1.155z"></path>
</svg>
