<!-- Generated by IcoMoon.io -->
<svg version="1.1" xmlns="http://www.w3.org/2000/svg" width="16" height="16" viewBox="0 0 16 16">
<title>adobetypekit</title>
<path fill="#87ec00" d="M0 0v16h16v-16zM0.667 0.684h14.667v14.632h-14.667zM4.777 5.322h-1.847c-0.055 0-0.077-0.022-0.066-0.088l0.132-0.923c0.011-0.055 0.033-0.077 0.088-0.077h4.617c0.066 0 0.088 0.022 0.099 0.088l0.088 0.913c0.011 0.066-0.022 0.088-0.077 0.088h-1.836v6.157c0 0.055-0.022 0.088-0.088 0.088h-1.023c-0.065 0-0.087-0.022-0.087-0.088zM9.812 8.499l1.682-2.276c0.044-0.055 0.055-0.077 0.11-0.077h1.121c0.066 0 0.088 0.044 0.044 0.099-0.264 0.341-1.473 1.836-1.869 2.32-0.005 0.010-0.008 0.021-0.008 0.033s0.003 0.023 0.008 0.033l-0-0 2.133 2.847c0.022 0.044 0.011 0.088-0.055 0.088h-1.297c-0.066 0-0.088-0.022-0.11-0.066-0.389-0.51-0.967-1.308-1.534-2.115l-0.224-0.337v2.441c0 0.055-0.011 0.077-0.077 0.077h-1.033c-0.077 0-0.088-0.022-0.088-0.088v-7.179c0-0.033 0.011-0.066 0.077-0.066h1.045c0.044 0 0.077 0.022 0.077 0.077z"></path>
</svg>
