<!-- Generated by IcoMoon.io -->
<svg version="1.1" xmlns="http://www.w3.org/2000/svg" width="16" height="16" viewBox="0 0 16 16">
<title>adobepremiere</title>
<path fill="#ea77ff" d="M0 0.2v15.6h16v-15.6zM0.667 0.867h14.667v14.267h-14.667zM4.198 3.852c0-0.044 0.011-0.077 0.067-0.077 0.429-0.022 1.055-0.033 1.715-0.033 1.848 0 2.651 1.013 2.651 2.311 0 1.693-1.226 2.42-2.733 2.42-0.253 0-0.341-0.011-0.517-0.011v2.562c0 0.055-0.022 0.077-0.077 0.077h-1.029c-0.055 0-0.077-0.022-0.077-0.077zM5.381 7.394c0.154 0.011 0.275 0.011 0.539 0.011 0.781 0 1.511-0.275 1.511-1.331 0-0.847-0.521-1.276-1.413-1.276-0.264 0-0.517 0.011-0.638 0.022zM9.648 6.789c0-0.077 0-0.275-0.033-0.649 0-0.055 0.007-0.067 0.051-0.088 0.723-0.286 1.56-0.455 2.435-0.462l0.003-0c0.055 0 0.077 0.011 0.077 0.066v0.968c0 0.055-0.017 0.066-0.073 0.066-0.071-0.005-0.154-0.007-0.238-0.007-0.364 0-0.716 0.051-1.049 0.146l0.027-0.007v4.201c0 0.055-0.023 0.077-0.077 0.077h-1.047c-0.055 0-0.077-0.022-0.077-0.077z"></path>
</svg>
