<!-- Generated by IcoMoon.io -->
<svg version="1.1" xmlns="http://www.w3.org/2000/svg" width="16" height="16" viewBox="0 0 16 16">
<title>adobeindesign</title>
<path fill="#fd3f93" d="M0 0.2v15.6h16v-15.6zM0.667 0.867h14.667v14.267h-14.667zM5.85 11.012c0 0.067-0.011 0.088-0.088 0.088h-1.024c-0.067 0-0.088-0.033-0.088-0.088v-7.157c0-0.067 0.033-0.088 0.088-0.088h1.035c0.055 0 0.077 0.022 0.077 0.077zM7.030 8.431c0-1.595 1.052-2.838 2.735-2.838 0.143 0 0.22 0 0.352 0.010v-1.769c0-0.044 0.033-0.067 0.067-0.067h1.083c0.056 0 0.067 0.023 0.067 0.056v6.237c0 0.187 0 0.417 0.033 0.669 0 0.044-0.013 0.055-0.058 0.077-0.572 0.275-1.177 0.397-1.749 0.397-1.475 0-2.531-0.913-2.529-2.772zM10.117 6.681c-0.099-0.044-0.231-0.067-0.396-0.067-0.857 0-1.458 0.66-1.458 1.76 0 1.255 0.612 1.76 1.382 1.76 0.165 0 0.341-0.021 0.473-0.077z"></path>
</svg>
