<!-- Generated by IcoMoon.io -->
<svg version="1.1" xmlns="http://www.w3.org/2000/svg" width="16" height="16" viewBox="0 0 16 16">
<title>adobelightroomcc</title>
<path fill="#3df0f0" d="M13.167 0.2h-10.333c-1.567 0-2.833 1.267-2.833 2.833v9.933c0 1.567 1.267 2.833 2.833 2.833h10.333c1.567 0 2.833-1.267 2.833-2.833v-9.933c0-1.567-1.267-2.833-2.833-2.833zM15.327 12.707c0 0.003 0 0.007 0 0.011 0 1.333-1.080 2.414-2.413 2.415h-9.827c-1.333 0-2.42-1.087-2.42-2.427v-9.413c0-1.34 1.087-2.427 2.42-2.427h9.82c1.337 0 2.42 1.083 2.42 2.42v0zM4.433 11.087c-0.080 0-0.1-0.033-0.1-0.1v-7.167c0-0.053 0.020-0.087 0.080-0.087h1.053c0.053 0 0.067 0.020 0.067 0.080v6.173h2.747c0.053 0 0.073 0.020 0.060 0.080l-0.167 0.947c-0.013 0.053-0.047 0.080-0.1 0.080h-3.64zM9.433 6.767c0-0.080 0-0.273-0.033-0.647 0-0.053 0.013-0.067 0.053-0.087 0.407-0.167 1.373-0.46 2.453-0.46 0.053 0 0.080 0.013 0.080 0.067v0.96c0 0.053-0.020 0.067-0.080 0.067-0.42-0.020-1.040 0.033-1.273 0.133v4.207c0 0.053-0.020 0.080-0.080 0.080h-1.047c-0.053 0-0.080-0.020-0.080-0.080v-4.24z"></path>
</svg>
