<!-- Generated by IcoMoon.io -->
<svg version="1.1" xmlns="http://www.w3.org/2000/svg" width="16" height="16" viewBox="0 0 16 16">
<title>airbnb</title>
<path fill="#ff5a5f" d="M7.999 12.178c-0.901-1.131-1.431-2.121-1.608-2.97-0.175-0.684-0.106-1.231 0.194-1.643 0.318-0.473 0.791-0.703 1.413-0.703s1.095 0.23 1.413 0.708c0.297 0.407 0.372 0.955 0.191 1.643-0.194 0.865-0.723 1.856-1.603 2.965zM14.397 12.938c-0.123 0.83-0.689 1.519-1.467 1.855-1.501 0.653-2.987-0.389-4.259-1.802 2.103-2.633 2.492-4.683 1.589-6.009-0.53-0.76-1.289-1.13-2.262-1.13-1.962 0-3.041 1.66-2.617 3.587 0.247 1.043 0.901 2.228 1.943 3.553-0.653 0.723-1.273 1.237-1.82 1.555-0.424 0.229-0.83 0.371-1.219 0.405-1.785 0.266-3.184-1.465-2.549-3.251 0.088-0.23 0.263-0.653 0.563-1.307l0.017-0.035c0.975-2.117 2.16-4.524 3.521-7.193l0.035-0.088 0.387-0.743c0.3-0.548 0.423-0.793 0.901-1.095 0.23-0.139 0.513-0.209 0.83-0.209 0.636 0 1.131 0.371 1.343 0.671 0.105 0.159 0.23 0.371 0.388 0.635l0.372 0.725 0.053 0.106c1.36 2.668 2.546 5.070 3.517 7.193l0.017 0.017 0.355 0.813 0.212 0.509c0.162 0.408 0.196 0.814 0.146 1.241zM15.209 11.345c-0.124-0.389-0.336-0.847-0.6-1.395v-0.020c-1.258-2.67-2.427-5.070-3.536-7.227l-0.074-0.108c-0.791-1.621-1.357-2.595-3.001-2.595-1.625 0-2.316 1.129-3.022 2.598l-0.054 0.107c-1.112 2.156-2.28 4.559-3.534 7.228v0.035l-0.372 0.813c-0.14 0.336-0.211 0.512-0.23 0.565-0.9 2.475 0.955 4.648 3.2 4.648 0.018 0 0.088 0 0.176-0.018h0.248c1.167-0.142 2.369-0.883 3.588-2.211 1.219 1.325 2.422 2.069 3.587 2.211h0.248c0.088 0.018 0.159 0.018 0.176 0.018 2.245 0.002 4.1-2.173 3.2-4.648z"></path>
</svg>
