<!-- Generated by IcoMoon.io -->
<svg version="1.1" xmlns="http://www.w3.org/2000/svg" width="16" height="16" viewBox="0 0 16 16">
<title>airplayaudio</title>
<path d="M7.939 0.122c-1.918 0.015-3.838 0.716-5.363 2.115-3.254 2.983-3.444 8.054-0.461 11.309 0.136 0.163 0.298 0.298 0.461 0.461 0.081 0.054 0.191 0.055 0.272-0.026l0.353-0.408c0.081-0.081 0.081-0.217 0-0.298-2.848-2.631-3.038-7.105-0.38-9.953s7.105-3.037 9.953-0.379c2.848 2.658 3.037 7.104 0.379 9.952-0.136 0.136-0.243 0.272-0.379 0.38-0.081 0.081-0.081 0.217 0 0.298l0.353 0.408c0.081 0.081 0.217 0.080 0.298 0.026 3.254-3.010 3.444-8.054 0.461-11.309-1.599-1.729-3.773-2.593-5.947-2.576zM8.197 2.467c-1.464-0.047-2.949 0.461-4.102 1.533-2.305 2.143-2.441 5.749-0.298 8.055 0.081 0.081 0.162 0.189 0.271 0.271 0.081 0.081 0.217 0.081 0.298 0l0.353-0.406c0.081-0.081 0.081-0.217 0-0.298-0.949-0.895-1.518-2.17-1.518-3.499 0-2.631 2.141-4.773 4.772-4.773s4.773 2.169 4.773 4.8c0 1.302-0.543 2.578-1.492 3.473-0.081 0.081-0.081 0.217 0 0.298l0.353 0.406c0.081 0.081 0.217 0.109 0.298 0.027 2.305-2.17 2.415-5.777 0.272-8.082-1.071-1.153-2.516-1.756-3.98-1.803zM8.020 4.678c-0.881-0.014-1.769 0.311-2.461 0.975-1.383 1.329-1.41 3.498-0.081 4.881l0.081 0.082c0.081 0.081 0.217 0.081 0.298 0l0.353-0.407c0.081-0.081 0.081-0.217 0-0.298-0.461-0.461-0.732-1.111-0.732-1.789 0-0.002-0-0.004-0-0.007 0-1.374 1.114-2.488 2.488-2.488 0.002 0 0.005 0 0.007 0h-0c0.002 0 0.004-0 0.007-0 1.374 0 2.488 1.114 2.488 2.488 0 0.002 0 0.005-0 0.007v-0c0 0.678-0.271 1.301-0.759 1.789-0.081 0.081-0.081 0.217 0 0.298l0.353 0.408c0.081 0.081 0.217 0.081 0.298 0 1.356-1.329 1.411-3.498 0.082-4.882-0.664-0.692-1.54-1.044-2.422-1.057zM8.023 9.841c-0.092-0.003-0.187 0.030-0.268 0.098l-0.026 0.027-4.773 5.37c-0.108 0.136-0.108 0.325 0.027 0.461 0.054 0.054 0.135 0.082 0.189 0.082h9.574c0.163 0 0.326-0.136 0.326-0.325 0-0.081-0.026-0.163-0.081-0.217l-4.72-5.37c-0.068-0.081-0.156-0.122-0.247-0.125z"></path>
</svg>
