<!-- Generated by IcoMoon.io -->
<svg version="1.1" xmlns="http://www.w3.org/2000/svg" width="16" height="16" viewBox="0 0 16 16">
<title>airplayvideo</title>
<path d="M2.275 0.88c-0.785 0-1.056 0.081-1.354 0.244-0.29 0.156-0.521 0.387-0.673 0.667l-0.004 0.009c-0.162 0.299-0.243 0.569-0.243 1.381v6.091c0 0.785 0.081 1.057 0.243 1.354s0.38 0.515 0.677 0.677c0.271 0.163 0.542 0.243 1.354 0.243h1.813l0.759-0.893h-2.843c-0.217 0.027-0.46-0.001-0.677-0.109-0.135-0.053-0.244-0.189-0.325-0.324-0.081-0.217-0.135-0.433-0.108-0.677v-6.605c-0.027-0.217 0-0.46 0.108-0.677 0.054-0.135 0.19-0.243 0.325-0.325 0.217-0.081 0.433-0.136 0.677-0.109h11.911c0.217-0.027 0.46 0.001 0.677 0.109 0.135 0.055 0.243 0.189 0.324 0.325 0.081 0.216 0.135 0.433 0.108 0.677v6.633c0.027 0.216 0 0.46-0.108 0.677-0.054 0.135-0.189 0.243-0.324 0.324-0.217 0.081-0.433 0.135-0.677 0.109h-2.843l0.758 0.894 1.869-0.027c0.812 0 1.082-0.081 1.38-0.244 0.29-0.156 0.521-0.387 0.673-0.669l0.004-0.009c0.162-0.271 0.243-0.542 0.243-1.353v-6.093c0-0.812-0.081-1.082-0.243-1.38-0.156-0.29-0.388-0.521-0.669-0.672l-0.009-0.004c-0.298-0.163-0.568-0.244-1.38-0.244zM7.909 9.012c-0.1 0.004-0.188 0.052-0.246 0.124l-0 0.001-4.737 5.441c-0.051 0.055-0.082 0.129-0.082 0.21 0 0.003 0 0.005 0 0.008v-0c-0 0.003-0 0.008-0 0.012 0 0.173 0.14 0.313 0.313 0.313 0.004 0 0.009-0 0.013-0l-0.001 0h9.529c0.081 0 0.163-0.027 0.217-0.081 0.135-0.109 0.136-0.326 0.027-0.461l-4.765-5.468c-0.069-0.061-0.161-0.098-0.261-0.098-0.002 0-0.005 0-0.007 0h0z"></path>
</svg>
