<!-- Generated by IcoMoon.io -->
<svg version="1.1" xmlns="http://www.w3.org/2000/svg" width="16" height="16" viewBox="0 0 16 16">
<title>algolia</title>
<path fill="#5468ff" d="M2.107 0c-0.001 0-0.002 0-0.003 0-1.161 0-2.102 0.94-2.104 2.101v11.793c0.001 1.163 0.944 2.105 2.107 2.105h11.787c1.165 0 2.107-0.947 2.107-2.107v-11.787c0-1.165-0.947-2.107-2.107-2.107zM7.353 2.329h1.619c0 0 0 0 0.001 0 0.383 0 0.693 0.31 0.693 0.693 0 0 0 0 0 0.001v-0 0.548c0 0.001 0 0.002 0 0.003 0 0.052-0.042 0.093-0.093 0.093-0.008 0-0.016-0.001-0.023-0.003l0.001 0c-0.408-0.117-0.877-0.184-1.362-0.184h-0c-0.002 0-0.004 0-0.007 0-0.5 0-0.982 0.072-1.438 0.207l0.036-0.009c-0.063 0.014-0.121-0.030-0.121-0.093v-0.562c0-0 0-0 0-0.001 0-0.382 0.311-0.693 0.695-0.693h0zM4.453 3.809c0.002-0 0.005-0 0.008-0 0.192 0 0.367 0.078 0.492 0.204l0.276 0.277c0.039 0.043 0.034 0.111-0.015 0.14-0.233 0.168-0.437 0.343-0.627 0.534l-0 0c-0.187 0.188-0.361 0.391-0.518 0.606l-0.011 0.015c-0.039 0.043-0.102 0.053-0.146 0.011l-0.272-0.273c-0.126-0.126-0.204-0.299-0.204-0.491s0.078-0.365 0.204-0.491l0.331-0.329c0.123-0.124 0.293-0.201 0.481-0.204h0.001zM8.185 4.043c0.003 0 0.006-0 0.009-0 2.494 0 4.516 2.022 4.516 4.516 0 0.001 0 0.002 0 0.003v-0c-0 2.498-2.025 4.522-4.523 4.522-0.001 0-0.001 0-0.002 0h0c-2.499 0-4.526-2.019-4.526-4.518 0.001-2.498 2.026-4.523 4.524-4.523 0.001 0 0.001 0 0.002 0h-0zM8.185 5.381c0 0 0 0 0 0-1.759 0-3.186 1.425-3.189 3.184v0c0.003 1.759 1.429 3.183 3.189 3.183v0c0.001 0 0.003 0 0.005 0 1.758 0 3.184-1.425 3.185-3.183v-0c-0.002-1.759-1.429-3.184-3.188-3.184-0 0-0.001 0-0.001 0h0zM8.281 5.94c0.937 0.035 1.744 0.555 2.181 1.313l0.007 0.013c0.024 0.049 0.010 0.107-0.038 0.131l-2.111 1.092c-0.062 0.035-0.137-0.015-0.137-0.083v-2.371h0.001c0-0.053 0.048-0.093 0.097-0.093z"></path>
</svg>
