<!-- Generated by IcoMoon.io -->
<svg version="1.1" xmlns="http://www.w3.org/2000/svg" width="16" height="16" viewBox="0 0 16 16">
<title>alliedmodders</title>
<path fill="#1578d3" d="M0.401 0.718c-0.223 0.005-0.401 0.187-0.401 0.41 0 0 0 0 0 0v0 13.743c0 0.226 0.184 0.41 0.41 0.41v0h5.539c0.226 0 0.41-0.184 0.41-0.41v0-1.163l0.431 1.293c0.056 0.164 0.209 0.28 0.389 0.28 0 0 0 0 0.001 0h4.513c0.181-0 0.335-0.118 0.389-0.282l0.001-0.003 0.023-0.071c0.028 0.202 0.199 0.355 0.406 0.355 0 0 0 0 0 0h3.077c0.226 0 0.41-0.184 0.41-0.41v-9.435c0-0 0-0 0-0 0-0.187-0.125-0.344-0.295-0.394l-0.003-0.001-2.871-0.822c-0.034-0.010-0.073-0.016-0.113-0.016-0.174 0-0.323 0.108-0.382 0.261l-0.001 0.003-1.258 3.271v-3.699c0-0 0-0.001 0-0.001 0-0.186-0.123-0.342-0.292-0.393l-0.003-0.001-2.257-0.653c-0.034-0.010-0.074-0.016-0.115-0.016-0.226 0-0.41 0.183-0.41 0.41v4.1l-1.873-4.987c-0.046-0.122-0.146-0.215-0.269-0.251l-0.003-0.001-5.333-1.513c-0.033-0.010-0.072-0.015-0.111-0.015-0.003 0-0.006 0-0.010 0l0-0zM0.82 1.671l4.612 1.308 2.594 6.909c0.060 0.157 0.209 0.266 0.384 0.266 0.226 0 0.41-0.184 0.41-0.41 0-0 0-0 0-0v0-5.813l1.437 0.416v5.601c-0 0.001-0 0.002-0 0.003 0 0.226 0.184 0.41 0.41 0.41 0.174 0 0.323-0.109 0.382-0.262l0.001-0.003 1.916-4.983 2.213 0.632v8.716h-2.256v-0.82h0.82c0 0 0 0 0 0 0.226 0 0.41-0.184 0.41-0.41 0-0 0-0 0-0.001v0-4.717c0-0 0-0 0-0 0-0.226-0.184-0.41-0.41-0.41-0.181 0-0.335 0.118-0.389 0.281l-0.001 0.003-1.96 6.075h-3.918l-2.983-8.951c-0.056-0.165-0.209-0.281-0.389-0.281-0.226 0-0.41 0.184-0.41 0.41 0 0.001 0 0.001 0 0.002v-0 7.384c0 0.001 0 0.001 0 0.002 0 0.226 0.184 0.41 0.41 0.41 0 0 0 0 0 0h1.437v1.025h-4.72zM4.513 8.169l1.483 4.449c-0.014-0.002-0.030-0.004-0.046-0.004l-0.001-0h-1.436zM13.333 11.121v1.699h-0.548z"></path>
</svg>
