<!-- Generated by IcoMoon.io -->
<svg version="1.1" xmlns="http://www.w3.org/2000/svg" width="16" height="16" viewBox="0 0 16 16">
<title>amazonalexa</title>
<path fill="#00caff" d="M8 0c-4.42 0-8 3.58-8 8 0 4.060 3.020 7.407 6.933 7.933v-1.6c0-0.005 0-0.010 0-0.016 0-0.464-0.298-0.858-0.713-1.002l-0.007-0.002c-2.237-0.771-3.815-2.857-3.815-5.313 0-0.047 0.001-0.094 0.002-0.141l-0 0.007c0.063-3.033 2.537-5.467 5.579-5.467 0.029 0 0.057 0 0.085 0.001l-0.004-0c3.069 0.032 5.544 2.527 5.544 5.6 0 0.073-0.001 0.145-0.004 0.217l0-0.010-0.007 0.047c-0.006 0.104-0.013 0.191-0.022 0.278l0.002-0.025c0 0.047-0.007 0.093-0.013 0.133 0 0.053-0.007 0.107-0.013 0.153l-0.013 0.067c-0.687 4.52-6.567 7.053-6.6 7.073 0.347 0.047 0.707 0.067 1.067 0.067 4.42 0 8-3.58 8-8s-3.58-8-8-8z"></path>
</svg>
