<!-- Generated by IcoMoon.io -->
<svg version="1.1" xmlns="http://www.w3.org/2000/svg" width="16" height="16" viewBox="0 0 16 16">
<title>amazonaws</title>
<path d="M4.509 6.691c0 0.197 0.021 0.357 0.059 0.473 0.043 0.117 0.096 0.245 0.171 0.384 0.027 0.042 0.037 0.085 0.037 0.122 0 0.053-0.032 0.107-0.101 0.16l-0.335 0.223c-0.039 0.028-0.086 0.046-0.138 0.048l-0.001 0c-0.053 0-0.107-0.027-0.159-0.075-0.069-0.074-0.132-0.156-0.187-0.243l-0.004-0.007c-0.049-0.081-0.104-0.184-0.155-0.289l-0.011-0.025c-0.415 0.489-0.937 0.734-1.565 0.734-0.447 0-0.803-0.127-1.064-0.383s-0.393-0.596-0.393-1.022c0-0.452 0.159-0.82 0.484-1.096s0.755-0.415 1.303-0.415c0.181 0 0.367 0.016 0.564 0.043s0.4 0.069 0.612 0.117v-0.389c0-0.405-0.085-0.687-0.25-0.851-0.17-0.165-0.457-0.245-0.867-0.245-0.187 0-0.379 0.021-0.575 0.069s-0.389 0.107-0.575 0.181c-0.050 0.023-0.112 0.047-0.176 0.066l-0.011 0.003c-0.025 0.008-0.054 0.014-0.084 0.015l-0.001 0c-0.075 0-0.112-0.053-0.112-0.165v-0.261c0-0.085 0.011-0.149 0.037-0.187 0.040-0.048 0.090-0.085 0.147-0.11l0.003-0.001c0.186-0.096 0.409-0.176 0.67-0.24 0.24-0.064 0.516-0.101 0.8-0.101 0.011 0 0.021 0 0.032 0l-0.002-0c0.633 0 1.096 0.144 1.394 0.431 0.293 0.287 0.441 0.723 0.441 1.309zM2.349 7.5c0.175 0 0.356-0.032 0.548-0.096s0.362-0.181 0.505-0.34c0.085-0.101 0.149-0.213 0.181-0.341s0.053-0.282 0.053-0.463v-0.223c-0.132-0.034-0.298-0.066-0.468-0.088l-0.022-0.002c-0.15-0.020-0.323-0.032-0.5-0.032h-0c-0.357 0-0.617 0.069-0.793 0.213s-0.26 0.345-0.26 0.611c0 0.25 0.063 0.437 0.197 0.564 0.127 0.133 0.313 0.197 0.559 0.197zM6.622 8.075c-0.096 0-0.16-0.016-0.203-0.053-0.043-0.032-0.080-0.107-0.112-0.207l-1.25-4.114c-0.023-0.062-0.040-0.134-0.048-0.209l-0-0.004c0-0.085 0.043-0.133 0.127-0.133h0.522c0.101 0 0.17 0.017 0.207 0.053 0.043 0.032 0.075 0.107 0.107 0.208l0.895 3.523 0.83-3.523c0.027-0.107 0.059-0.176 0.101-0.208 0.054-0.034 0.121-0.054 0.191-0.054 0.008 0 0.015 0 0.023 0.001l-0.001-0h0.425c0.101 0 0.171 0.017 0.213 0.053 0.042 0.032 0.080 0.107 0.101 0.208l0.841 3.565 0.921-3.565c0.032-0.107 0.069-0.176 0.107-0.208 0.053-0.034 0.117-0.054 0.186-0.054 0.008 0 0.015 0 0.023 0.001l-0.001-0h0.495c0.085 0 0.133 0.043 0.133 0.133 0 0.027-0.006 0.053-0.011 0.085-0.009 0.051-0.022 0.096-0.039 0.139l0.002-0.005-1.282 4.113c-0.032 0.107-0.069 0.175-0.112 0.207-0.052 0.034-0.115 0.054-0.184 0.054-0.006 0-0.013-0-0.019-0.001l0.001 0h-0.458c-0.101 0-0.17-0.016-0.213-0.053-0.042-0.037-0.079-0.107-0.1-0.213l-0.825-3.432-0.82 3.427c-0.027 0.107-0.058 0.176-0.1 0.213-0.043 0.037-0.118 0.053-0.213 0.053zM13.459 8.218c-0.277 0-0.553-0.032-0.819-0.095s-0.473-0.133-0.612-0.213c-0.085-0.047-0.143-0.101-0.165-0.149-0.020-0.044-0.032-0.095-0.032-0.149v-0.271c0-0.111 0.043-0.165 0.122-0.165 0.032 0 0.064 0.005 0.096 0.016s0.080 0.032 0.133 0.053c0.181 0.080 0.377 0.143 0.585 0.186 0.213 0.043 0.42 0.064 0.633 0.064 0.335 0 0.596-0.059 0.777-0.176 0.167-0.102 0.277-0.284 0.277-0.491 0-0.005-0-0.010-0-0.015l0 0.001c0-0.004 0-0.010 0-0.015 0-0.139-0.055-0.265-0.144-0.358l0 0c-0.096-0.101-0.277-0.191-0.538-0.277l-0.771-0.24c-0.389-0.122-0.676-0.303-0.851-0.542-0.165-0.211-0.265-0.48-0.267-0.772v-0c0-0.223 0.049-0.42 0.144-0.591s0.223-0.319 0.383-0.436c0.16-0.123 0.34-0.213 0.553-0.277s0.437-0.091 0.671-0.091c0.117 0 0.239 0.005 0.357 0.021 0.122 0.016 0.233 0.037 0.345 0.059 0.107 0.027 0.208 0.053 0.303 0.085s0.171 0.064 0.224 0.096c0.064 0.033 0.118 0.078 0.159 0.132l0.001 0.001c0.030 0.045 0.048 0.099 0.048 0.159 0 0.006-0 0.012-0.001 0.018l0-0.001v0.25c0 0.112-0.043 0.171-0.123 0.171-0.075-0.009-0.144-0.032-0.205-0.065l0.003 0.001c-0.29-0.131-0.628-0.208-0.984-0.208-0.013 0-0.026 0-0.040 0l0.002-0c-0.303 0-0.543 0.047-0.708 0.149s-0.25 0.255-0.25 0.473c0 0.149 0.053 0.277 0.16 0.378s0.303 0.203 0.585 0.293l0.756 0.239c0.383 0.123 0.66 0.293 0.825 0.511s0.245 0.468 0.245 0.745c0 0.229-0.048 0.437-0.138 0.617-0.096 0.181-0.224 0.341-0.389 0.469-0.165 0.133-0.362 0.229-0.591 0.298-0.24 0.074-0.489 0.111-0.761 0.111zM14.465 10.805c-1.751 1.293-4.295 1.979-6.481 1.979-3.065 0-5.827-1.133-7.913-3.017-0.165-0.149-0.016-0.351 0.181-0.234 2.256 1.309 5.039 2.102 7.918 2.102 1.943 0 4.076-0.405 6.040-1.235 0.293-0.133 0.543 0.191 0.255 0.405zM15.195 9.974c-0.224-0.287-1.48-0.138-2.049-0.069-0.17 0.021-0.197-0.128-0.042-0.24 1-0.702 2.645-0.5 2.836-0.266 0.191 0.24-0.053 1.884-0.99 2.671-0.143 0.123-0.282 0.059-0.218-0.101 0.213-0.527 0.687-1.713 0.463-1.996z"></path>
</svg>
