<!-- Generated by IcoMoon.io -->
<svg version="1.1" xmlns="http://www.w3.org/2000/svg" width="16" height="16" viewBox="0 0 16 16">
<title>amazon</title>
<path fill="#f90" d="M0.030 12.013c0.048-0.077 0.125-0.083 0.232-0.015 2.424 1.407 5.063 2.111 7.913 2.111 1.901 0 3.779-0.355 5.631-1.063l0.21-0.093c0.092-0.040 0.156-0.067 0.195-0.087 0.151-0.059 0.26-0.031 0.35 0.087 0.080 0.116 0.060 0.224-0.080 0.32-0.171 0.127-0.4 0.273-0.671 0.436-0.829 0.495-1.76 0.877-2.79 1.151-1.020 0.271-2.030 0.407-3.011 0.407-1.51 0-2.94-0.264-4.29-0.791-1.347-0.529-2.547-1.273-3.62-2.233-0.067-0.049-0.1-0.1-0.1-0.147 0-0.031 0.013-0.060 0.029-0.081zM4.407 7.868c0-0.67 0.165-1.242 0.495-1.718 0.33-0.473 0.78-0.833 1.36-1.077 0.531-0.223 1.171-0.383 1.941-0.48 0.26-0.031 0.689-0.069 1.28-0.116v-0.247c0-0.62-0.070-1.039-0.2-1.25-0.201-0.287-0.52-0.433-0.96-0.433h-0.121c-0.32 0.031-0.597 0.131-0.831 0.307-0.233 0.18-0.383 0.42-0.45 0.731-0.040 0.2-0.137 0.31-0.29 0.34l-1.68-0.21c-0.165-0.040-0.248-0.12-0.248-0.26 0-0.031 0.005-0.060 0.015-0.1 0.165-0.86 0.57-1.5 1.213-1.92 0.651-0.411 1.4-0.65 2.26-0.7h0.36c1.1 0 1.971 0.289 2.592 0.86 0.090 0.1 0.18 0.2 0.27 0.32 0.080 0.11 0.149 0.209 0.189 0.3 0.050 0.089 0.1 0.22 0.13 0.38 0.040 0.169 0.070 0.28 0.090 0.34 0.020 0.069 0.041 0.2 0.051 0.41 0.007 0.209 0.013 0.329 0.013 0.369v3.52c0 0.251 0.040 0.48 0.11 0.691 0.070 0.209 0.14 0.36 0.21 0.449l0.34 0.449c0.060 0.091 0.091 0.171 0.091 0.24 0 0.080-0.040 0.151-0.12 0.209-0.8 0.7-1.24 1.080-1.309 1.14-0.11 0.090-0.25 0.1-0.42 0.030-0.13-0.111-0.25-0.221-0.351-0.331l-0.207-0.231c-0.040-0.049-0.111-0.14-0.211-0.28l-0.2-0.29c-0.54 0.591-1.069 0.96-1.6 1.11-0.329 0.1-0.729 0.151-1.22 0.151-0.74 0-1.36-0.229-1.84-0.689s-0.72-1.11-0.72-1.96zM6.909 7.576c0 0.377 0.093 0.68 0.283 0.909 0.19 0.227 0.45 0.341 0.77 0.341 0.030 0 0.071-0.005 0.13-0.013 0.060-0.011 0.089-0.015 0.111-0.015 0.409-0.107 0.72-0.369 0.949-0.785 0.11-0.187 0.19-0.387 0.24-0.607 0.060-0.213 0.080-0.393 0.090-0.533 0.010-0.13 0.010-0.36 0.010-0.67v-0.36c-0.56 0-0.989 0.040-1.28 0.12-0.85 0.24-1.28 0.78-1.28 1.62zM13.017 12.261c0.020-0.040 0.050-0.073 0.088-0.113 0.241-0.162 0.476-0.273 0.7-0.333 0.367-0.089 0.727-0.148 1.075-0.16 0.093-0.008 0.187 0 0.273 0.020 0.433 0.040 0.7 0.112 0.781 0.22 0.042 0.060 0.060 0.152 0.060 0.26v0.1c0 0.34-0.093 0.74-0.277 1.2-0.185 0.46-0.443 0.832-0.771 1.12-0.049 0.040-0.093 0.060-0.131 0.060-0.020 0-0.040 0-0.060-0.008-0.060-0.029-0.071-0.080-0.043-0.16 0.36-0.84 0.537-1.429 0.537-1.76 0-0.1-0.020-0.18-0.058-0.229-0.097-0.111-0.367-0.171-0.816-0.171-0.162 0-0.355 0.011-0.58 0.031-0.242 0.030-0.467 0.060-0.667 0.090-0.060 0-0.099-0.009-0.12-0.029-0.020-0.020-0.024-0.031-0.013-0.051 0-0.011 0.004-0.020 0.013-0.042z"></path>
</svg>
