<!-- Generated by IcoMoon.io -->
<svg version="1.1" xmlns="http://www.w3.org/2000/svg" width="16" height="16" viewBox="0 0 16 16">
<title>amd</title>
<path fill="#ed1c24" d="M12.216 6.091l1.039 1.040h1.704v1.705l1.041 1.040v-3.785zM1.333 6.347l-1.333 3.307h0.873l0.247-0.655h1.481l0.272 0.655h0.892l-1.476-3.307zM4.139 6.347v3.303h0.825v-2.061l0.892 1.041h0.125l0.892-1.037v2.061h0.825v-3.307h-0.719l-1.061 1.23-1.061-1.23zM8.328 6.347v3.307h1.371c1.319 0 1.92-0.697 1.92-1.648 0-0.907-0.625-1.659-1.831-1.659zM9.153 6.953h0.528c0.78 0 1.087 0.474 1.087 1.047 0 0.485-0.248 1.048-1.077 1.048h-0.537zM1.829 7.135l0.527 1.288h-1.018zM13.254 7.34l-1.069 1.069v1.5h1.497l1.069-1.071h-1.497z"></path>
</svg>
