<!-- Generated by IcoMoon.io -->
<svg version="1.1" xmlns="http://www.w3.org/2000/svg" width="16" height="16" viewBox="0 0 16 16">
<title>americanexpress</title>
<path fill="#2e77bc" d="M10.677 9.585c0-0.213-0.090-0.331-0.229-0.415-0.14-0.080-0.309-0.090-0.54-0.090h-1.029v1.88h0.45v-0.685h0.48c0.16 0 0.26 0.016 0.319 0.083 0.080 0.087 0.069 0.253 0.069 0.367v0.233h0.44v-0.37c-0.001-0.167-0.011-0.251-0.072-0.344-0.040-0.053-0.12-0.12-0.22-0.156l0.013-0.005c0.12-0.048 0.32-0.198 0.319-0.499zM10.097 9.857l-0.019-0.001c-0.060 0.035-0.13 0.039-0.22 0.039h-0.54v-0.42h0.549c0.080 0 0.16 0 0.22 0.033 0.065 0.032 0.104 0.098 0.1 0.17 0 0.080-0.030 0.143-0.091 0.179zM13.531 10.558h-0.865v0.4h0.869c0.451 0 0.7-0.185 0.7-0.589 0-0.187-0.044-0.299-0.125-0.388-0.102-0.089-0.261-0.129-0.487-0.138l-0.251-0.010c-0.069 0-0.12 0-0.17-0.020-0.060-0.020-0.1-0.070-0.1-0.14 0-0.060 0.011-0.111 0.060-0.14 0.055-0.031 0.118-0.044 0.181-0.040h0.82v-0.401h-0.9c-0.469 0-0.639 0.291-0.639 0.56 0 0.6 0.517 0.57 0.938 0.58 0.069 0 0.12 0.010 0.15 0.040 0.031 0.020 0.055 0.071 0.055 0.12 0 0.051-0.023 0.1-0.053 0.12-0.040 0.035-0.1 0.047-0.185 0.047zM0 0v6.731l0.54-1.251h1.167l0.15 0.309v-0.309h1.362l0.3 0.68 0.291-0.675h4.335c0.197 0 0.373 0.038 0.504 0.157v-0.153h1.191v0.153c0.205-0.113 0.457-0.153 0.747-0.153h1.737l0.16 0.311v-0.311h1.279l0.169 0.31v-0.311h1.239v2.632h-1.257l-0.24-0.4v0.39h-1.569l-0.171-0.42h-0.389l-0.18 0.409h-0.809c-0.32 0-0.56-0.069-0.72-0.16v0.16h-1.927v-0.589c0-0.080-0.020-0.080-0.070-0.090h-0.070v0.691h-3.725v-0.32l-0.14 0.32h-0.778l-0.135-0.32v0.31h-1.502l-0.171-0.416h-0.386l-0.171 0.416h-0.763v7.899h15.857v-4.739c-0.18 0.090-0.409 0.12-0.649 0.12h-1.149v-0.17c-0.14 0.11-0.38 0.17-0.609 0.17h-3.644v-0.6c0-0.080-0.012-0.080-0.080-0.080h-0.050v0.681h-1.2v-0.711c-0.199 0.091-0.429 0.1-0.619 0.091h-0.143v0.61h-1.453l-0.36-0.411-0.38 0.4h-2.361v-2.62h2.407l0.345 0.401 0.369-0.4h1.608c0.187 0 0.493 0.020 0.628 0.15v-0.16h1.451c0.135 0 0.429 0.030 0.602 0.15v-0.16h2.177v0.16c0.109-0.109 0.339-0.16 0.535-0.16h1.26v0.16c0.129-0.1 0.309-0.16 0.56-0.16h0.784v-8.723zM14.104 9.97c0.003 0.003 0.004 0.008 0.007 0.011 0.007 0.007 0.016 0.007 0.021 0.013zM15.885 8.721h0.043v0.37h-0.043zM15.91 10.020v-0.003c-0.020-0.017-0.031-0.032-0.050-0.047-0.1-0.102-0.26-0.143-0.509-0.15l-0.24-0.008c-0.080 0-0.129-0.005-0.18-0.020-0.060-0.020-0.1-0.070-0.1-0.14 0-0.060 0.020-0.107 0.060-0.136 0.051-0.030 0.1-0.033 0.18-0.033h0.815v-0.392h-0.855c-0.46 0-0.64 0.291-0.64 0.56 0 0.6 0.52 0.57 0.94 0.58 0.069 0 0.12 0.010 0.149 0.040 0.031 0.020 0.051 0.071 0.051 0.12 0 0.047-0.023 0.092-0.060 0.12-0.030 0.037-0.091 0.047-0.18 0.047h-0.859v0.403h0.858c0.28 0 0.489-0.079 0.6-0.24h0.020c0.060-0.089 0.090-0.2 0.090-0.349 0-0.16-0.030-0.26-0.090-0.352zM12.398 9.472v-0.389h-1.49v1.889h1.49v-0.39h-1.047v-0.38h1.022v-0.389h-1.021v-0.34zM9.007 5.858h0.457v1.875h-0.456zM8.751 6.362l-0.005 0.004c0-0.209-0.087-0.333-0.227-0.416-0.145-0.083-0.313-0.090-0.54-0.090h-1.026v1.88h0.449v-0.689h0.48c0.16 0 0.26 0.020 0.325 0.080 0.081 0.091 0.071 0.252 0.071 0.365v0.236h0.451v-0.369c0-0.167-0.011-0.25-0.073-0.344-0.060-0.071-0.135-0.127-0.22-0.158 0.115-0.047 0.315-0.2 0.314-0.499zM8.181 6.626h-0.010c-0.060 0.036-0.13 0.037-0.22 0.037h-0.551v-0.415h0.55c0.080 0 0.16 0.003 0.22 0.033 0.060 0.027 0.1 0.085 0.1 0.167s-0.031 0.147-0.089 0.178zM10.613 6.249h0.421v-0.4h-0.429c-0.309 0-0.536 0.070-0.68 0.22-0.191 0.2-0.241 0.46-0.241 0.74 0 0.341 0.082 0.555 0.24 0.716 0.155 0.159 0.43 0.207 0.647 0.207h0.52l0.17-0.418h0.927l0.175 0.418h0.907v-1.407l0.848 1.407h0.633l0.001 0.001v-1.875h-0.456v1.309l-0.787-1.307h-0.68v1.741l-0.755-1.771h-0.669l-0.629 1.48h-0.2c-0.118 0-0.241-0.020-0.312-0.089-0.083-0.1-0.124-0.24-0.124-0.441 0-0.19 0.053-0.34 0.129-0.42 0.089-0.090 0.181-0.11 0.345-0.11zM11.725 6.177l0.309 0.745v0.001h-0.62zM1.587 7.313l0.169 0.419h0.911v-1.47l0.648 1.47h0.389l0.649-1.468 0.010 1.468h0.46v-1.873h-0.744l-0.538 1.269-0.584-1.27h-0.728v1.775l-0.759-1.775h-0.665l-0.799 1.873h0.48l0.173-0.417zM1.128 6.177l0.307 0.745-0.002 0.001h-0.61zM7.904 9.080h-1.428l-0.567 0.615-0.55-0.615h-1.795v1.88h1.769l0.57-0.621 0.549 0.62h0.868v-0.627h0.559c0.4 0 0.78-0.109 0.78-0.63l-0.004-0.002c0-0.52-0.399-0.62-0.751-0.621zM5.113 10.569l-0.009-0.001h-1.091v-0.371h0.98v-0.383h-0.98v-0.34h1.12l0.489 0.547zM6.875 10.789l-0.687-0.765 0.687-0.739zM7.91 9.95h-0.59v-0.478h0.59c0.16 0 0.28 0.065 0.28 0.229 0 0.162-0.1 0.248-0.28 0.249zM6.645 6.249v-0.391h-1.491v1.875h1.491v-0.387h-1.045v-0.376h1.018v-0.384h-1.018v-0.338z"></path>
</svg>
