<!-- Generated by IcoMoon.io -->
<svg version="1.1" xmlns="http://www.w3.org/2000/svg" width="16" height="16" viewBox="0 0 16 16">
<title>anaconda</title>
<path fill="#42b029" d="M2.913 12.227c-0.6-0.060-1.2-0.173-1.787-0.333l-0.053-0.013 0.013-0.053c0.173-0.567 0.393-1.12 0.653-1.647l0.027-0.053 0.047 0.027c0.393 0.22 0.813 0.42 1.233 0.593l0.040 0.013-0.007 0.040c-0.067 0.447-0.1 0.907-0.113 1.367v0.060zM4.207 4.153v-0.013c-0.347 0.007-0.693 0.027-1.033 0.067 0.040 0.353 0.107 0.7 0.18 1.040 0.24-0.4 0.527-0.767 0.853-1.093zM2.973 12.633v-0.047l-0.047-0.007c-0.507-0.047-1.020-0.133-1.527-0.253l-0.133-0.033 0.073 0.12c0.46 0.693 1.020 1.307 1.667 1.827l0.107 0.087-0.020-0.133c-0.073-0.533-0.113-1.060-0.12-1.56zM5.447 0.467c-0.62 0.213-1.207 0.5-1.747 0.853 0.407 0.073 0.813 0.167 1.207 0.287 0.16-0.393 0.34-0.767 0.54-1.14zM8.027 0.040c-0.307 0-0.607 0.020-0.907 0.053 0.42 0.293 0.827 0.613 1.207 0.967l0.32 0.293-0.313 0.3c-0.26 0.247-0.507 0.513-0.747 0.8l-0.013 0.013c0 0-0.047 0.053-0.12 0.14 0.187-0.020 0.38-0.033 0.573-0.033 2.993 0 5.427 2.427 5.427 5.427 0 2.993-2.427 5.427-5.427 5.427-1.040 0-2.013-0.293-2.833-0.8-0.407 0.047-0.813 0.067-1.227 0.067-0.193 0-0.38-0.007-0.573-0.013 0.013 0.62 0.073 1.253 0.173 1.92 1.273 0.86 2.807 1.367 4.46 1.367 4.4 0 7.96-3.567 7.96-7.96 0-4.4-3.56-7.967-7.96-7.967zM6.973 1.92c0.16-0.187 0.32-0.367 0.487-0.547-0.373-0.32-0.767-0.607-1.18-0.867-0.253 0.427-0.473 0.873-0.66 1.327 0.36 0.133 0.707 0.287 1.053 0.453 0.153-0.207 0.267-0.327 0.3-0.367zM1.567 6.467l0.033 0.047 0.047-0.033c0.367-0.267 0.753-0.513 1.153-0.733l0.040-0.013-0.013-0.047c-0.12-0.447-0.213-0.913-0.273-1.387l-0.007-0.053-0.053 0.013c-0.587 0.107-1.173 0.267-1.733 0.467l-0.053 0.020 0.020 0.053c0.233 0.573 0.513 1.133 0.84 1.667zM1.473 7.233l-0.047 0.033c-0.427 0.347-0.833 0.733-1.207 1.147l-0.040 0.040 0.040 0.033c0.413 0.36 0.86 0.693 1.327 0.987l0.047 0.033 0.027-0.047c0.207-0.373 0.447-0.74 0.7-1.093l0.027-0.033-0.027-0.033c-0.293-0.327-0.567-0.667-0.82-1.027zM4.6 12.253l0.14-0.007-0.107-0.087c-0.427-0.347-0.793-0.753-1.093-1.22v-0.013l-0.087-0.040-0.013 0.073c-0.053 0.4-0.087 0.813-0.093 1.24v0.053h0.053c0.187 0.013 0.38 0.013 0.567 0.013 0.207 0.007 0.42 0 0.633-0.013zM4.333 3.46c0.087-0.393 0.193-0.78 0.32-1.16-0.5-0.14-1.013-0.247-1.527-0.32-0.047 0.52-0.053 1.040-0.020 1.553 0.407-0.047 0.82-0.067 1.227-0.073zM5.1 3.433c0.347-0.22 0.72-0.407 1.113-0.547-0.28-0.127-0.56-0.247-0.853-0.353-0.1 0.293-0.187 0.6-0.26 0.9zM1.4 9.9l-0.040-0.027c-0.413-0.26-0.807-0.547-1.18-0.853l-0.107-0.087 0.020 0.14c0.1 0.767 0.313 1.507 0.627 2.213l0.053 0.127 0.047-0.127c0.153-0.453 0.347-0.9 0.56-1.327zM2.42 2.347c-0.473 0.473-0.893 1-1.233 1.58 0.413-0.12 0.827-0.22 1.247-0.293-0.027-0.427-0.033-0.853-0.013-1.287zM2.66 7.933l0.007-0.14c0.020-0.487 0.1-0.96 0.247-1.42l0.040-0.133-0.12 0.067c-0.313 0.18-0.62 0.38-0.913 0.593l-0.047 0.033 0.033 0.047c0.207 0.293 0.427 0.58 0.66 0.853zM2.713 8.747l-0.020-0.133-0.080 0.12c-0.22 0.313-0.427 0.633-0.613 0.967l-0.027 0.047 0.047 0.027c0.333 0.187 0.687 0.36 1.040 0.513l0.127 0.053-0.060-0.127c-0.207-0.467-0.347-0.96-0.413-1.467zM1.16 6.847l0.040-0.033-0.027-0.040c-0.247-0.4-0.473-0.82-0.673-1.247l-0.060-0.12-0.040 0.133c-0.233 0.72-0.36 1.473-0.38 2.233l-0.007 0.14 0.1-0.1c0.327-0.347 0.68-0.68 1.047-0.967z"></path>
</svg>
