<!-- Generated by IcoMoon.io -->
<svg version="1.1" xmlns="http://www.w3.org/2000/svg" width="16" height="16" viewBox="0 0 16 16">
<title>analogue</title>
<path d="M3.645 8.536c-0.064-0.004-0.139-0.007-0.215-0.007-1.894 0-3.43 1.536-3.43 3.43 0 1.819 1.416 3.307 3.205 3.423l0.010 0.001c0.064 0.004 0.139 0.007 0.215 0.007 1.894 0 3.43-1.536 3.43-3.43 0-1.819-1.416-3.307-3.205-3.423l-0.010-0.001zM15.539 10.244l-4.573-7.921c-0.604-1.032-1.708-1.714-2.971-1.714-1.895 0-3.431 1.536-3.431 3.431 0 0.632 0.171 1.224 0.469 1.733l-0.009-0.016 4.573 7.919c0.604 1.033 1.709 1.716 2.972 1.716 0.631 0 1.223-0.171 1.731-0.468l-0.016 0.009c1.032-0.604 1.714-1.708 1.714-2.97 0-0.632-0.171-1.225-0.469-1.733l0.009 0.016z"></path>
</svg>
