<!-- Generated by IcoMoon.io -->
<svg version="1.1" xmlns="http://www.w3.org/2000/svg" width="16" height="16" viewBox="0 0 16 16">
<title>anchor</title>
<path fill="#8940fa" d="M8.223 8.404c-0.114 0.455-0.391 0.841-0.759 1.043l-0.285 0.156 0.52 0.88 0.273-0.151c0.403-0.23 0.728-0.556 0.95-0.948l0.006-0.012c0.231-0.403 0.37-0.885 0.377-1.398l0-0.002v-0.011c-0.007-0.515-0.146-0.997-0.384-1.414l0.008 0.014c-0.228-0.404-0.553-0.73-0.944-0.954l-0.012-0.006-0.273-0.15-0.52 0.88 0.285 0.156c0.381 0.208 0.663 0.613 0.77 1.088h-3.405c-0.16-0.297-0.469-0.495-0.824-0.495-0.001 0-0.002 0-0.003 0h0c-0.513 0-0.931 0.411-0.931 0.918s0.417 0.918 0.931 0.918c0.001 0 0.001 0 0.002 0 0.362 0 0.675-0.206 0.83-0.507l0.002-0.005zM8 16c-3.739 0-6.769-3.582-6.769-8s3.031-8 6.769-8 6.769 3.582 6.769 8-3.031 8-6.769 8zM11.727 8.557c-0.193 1.883-1.245 3.471-2.707 4.251l0.553 0.912c1.897-1.017 3.22-3.178 3.264-5.692-0.044-2.514-1.367-4.675-3.264-5.693l-0.553 0.913c1.463 0.78 2.514 2.367 2.707 4.25l0.015 0.529zM8.626 12.115l0.129-0.071c0.663-0.365 1.227-0.932 1.631-1.64 0.401-0.7 0.642-1.537 0.653-2.429l0-0.003v-0.005c-0.012-0.895-0.253-1.731-0.666-2.456l0.013 0.025c-0.403-0.709-0.967-1.276-1.631-1.64l-0.129-0.072-0.527 0.891 0.135 0.073c0.488 0.277 0.886 0.661 1.173 1.121l0.008 0.014c0.311 0.496 0.509 1.080 0.571 1.69l0.010 0.357-0.010 0.357c-0.063 0.633-0.267 1.208-0.58 1.707l0.010-0.016c-0.295 0.474-0.693 0.857-1.165 1.126l-0.016 0.008-0.135 0.074z"></path>
</svg>
