<!-- Generated by IcoMoon.io -->
<svg version="1.1" xmlns="http://www.w3.org/2000/svg" width="16" height="16" viewBox="0 0 16 16">
<title>android</title>
<path fill="#3ddc84" d="M16 12.667h-16c0.172-1.525 0.698-2.901 1.494-4.079l-0.020 0.032c0.631-0.964 1.448-1.754 2.407-2.335l0.307-0.172-1.347-2.273c-0.031-0.050-0.049-0.111-0.049-0.177 0-0.122 0.064-0.229 0.161-0.289l0.001-0.001c0.049-0.030 0.108-0.047 0.171-0.047 0.123 0 0.23 0.067 0.288 0.166l0.001 0.002 1.387 2.333c0.924-0.38 1.997-0.601 3.122-0.601 0.037 0 0.074 0 0.11 0.001l-0.006-0c0.030-0 0.064-0.001 0.099-0.001 1.106 0 2.16 0.221 3.121 0.62l-0.054-0.020 1.38-2.333c0.059-0.1 0.166-0.165 0.288-0.165 0.066 0 0.128 0.019 0.18 0.053l-0.001-0.001c0.096 0.061 0.158 0.167 0.158 0.287 0 0.067-0.019 0.129-0.052 0.181l0.001-0.001-1.347 2.28 0.333 0.187c0.986 0.62 1.797 1.429 2.402 2.382l0.018 0.031c0.732 1.123 1.244 2.456 1.441 3.89l0.006 0.050zM11 9.68c0 0.368 0.298 0.667 0.667 0.667v0c0.368 0 0.667-0.298 0.667-0.667v0c0-0.368-0.298-0.667-0.667-0.667v0c-0.368 0-0.667 0.298-0.667 0.667v0zM3.667 9.68c0 0.368 0.298 0.667 0.667 0.667v0c0.368 0 0.667-0.298 0.667-0.667v0c0-0.368-0.298-0.667-0.667-0.667v0c-0.368 0-0.667 0.298-0.667 0.667v0z"></path>
</svg>
