<!-- Generated by IcoMoon.io -->
<svg version="1.1" xmlns="http://www.w3.org/2000/svg" width="16" height="16" viewBox="0 0 16 16">
<title>angellist</title>
<path d="M10.977 6.636c0.49-1.333 0.873-2.433 1.149-3.303 0.273-0.867 0.412-1.4 0.412-1.6 0-0.21-0.047-0.376-0.14-0.492-0.090-0.116-0.216-0.176-0.378-0.176-0.207 0-0.42 0.17-0.627 0.51-0.213 0.34-0.447 0.889-0.707 1.645l-1.1 3.173 1.38 0.241zM9.515 9.593c-0.316-0.020-0.615-0.053-0.896-0.1-0.28-0.053-0.553-0.127-0.811-0.22 0.118 0.233 0.223 0.467 0.315 0.7s0.167 0.46 0.227 0.693c0.173-0.22 0.36-0.42 0.553-0.6 0.195-0.18 0.4-0.34 0.612-0.473zM8.273 6.259l-1.187-3.427c-0.309-0.873-0.547-1.44-0.717-1.713-0.167-0.267-0.35-0.4-0.548-0.4-0.153 0-0.278 0.053-0.373 0.173s-0.143 0.273-0.143 0.467c0 0.333 0.127 0.92 0.38 1.76 0.253 0.833 0.64 1.927 1.153 3.287 0.040-0.080 0.107-0.14 0.187-0.173s0.187-0.053 0.327-0.053c0.040 0 0.127 0.007 0.26 0.007 0.127 0.013 0.347 0.027 0.647 0.060zM7.195 11.566c0.125 0 0.24-0.060 0.34-0.173 0.1-0.12 0.156-0.24 0.156-0.367 0-0.14-0.1-0.467-0.301-0.973-0.2-0.507-0.453-1.007-0.753-1.5-0.22-0.367-0.437-0.647-0.647-0.833-0.216-0.187-0.417-0.28-0.607-0.28-0.153 0-0.323 0.093-0.511 0.293-0.187 0.193-0.28 0.373-0.28 0.54 0 0.173 0.093 0.44 0.275 0.787 0.183 0.353 0.43 0.727 0.736 1.12 0.323 0.433 0.627 0.767 0.913 1.007 0.285 0.24 0.513 0.36 0.68 0.36h-0.001zM3.898 11.299c0.104 0.127 0.247 0.307 0.431 0.547 0.482 0.667 0.93 1 1.34 1 0.14 0 0.265-0.047 0.375-0.133 0.109-0.093 0.165-0.18 0.165-0.28 0-0.113-0.073-0.293-0.22-0.553-0.148-0.26-0.349-0.547-0.605-0.867-0.293-0.373-0.537-0.647-0.732-0.82-0.192-0.173-0.35-0.26-0.465-0.26-0.253 0-0.493 0.14-0.707 0.413-0.213 0.267-0.32 0.6-0.32 0.973 0 0.3 0.080 0.633 0.233 1.007 0.153 0.367 0.367 0.74 0.653 1.113 0.433 0.58 0.973 1.020 1.613 1.333 0.64 0.307 1.353 0.46 2.127 0.46 1.427 0 2.627-0.533 3.587-1.6 0.967-1.067 1.447-2.4 1.447-4.007 0-0.493-0.033-0.887-0.107-1.173s-0.193-0.5-0.36-0.633c-0.3-0.253-0.887-0.473-1.753-0.673s-1.773-0.3-2.72-0.3c-0.26 0-0.453 0.047-0.56 0.133s-0.16 0.24-0.16 0.449c0 0.5 0.28 0.86 0.84 1.084 0.56 0.227 1.46 0.34 2.707 0.34h0.451c0.1 0 0.187 0.040 0.247 0.116 0.060 0.073 0.1 0.187 0.12 0.347-0.127 0.113-0.38 0.247-0.769 0.4-0.393 0.147-0.687 0.3-0.893 0.443-0.44 0.323-0.793 0.707-1.060 1.149-0.267 0.44-0.4 0.86-0.4 1.255 0 0.24 0.057 0.533 0.172 0.873 0.113 0.34 0.173 0.549 0.173 0.633v0.073l-0.020 0.1c-0.32-0.020-0.573-0.209-0.76-0.567-0.191-0.353-0.28-0.827-0.28-1.42v-0.1c-0.060 0.050-0.117 0.090-0.173 0.11-0.057 0.023-0.119 0.033-0.18 0.033-0.067 0-0.132-0.004-0.193-0.013-0.060-0.011-0.12-0.027-0.193-0.050 0.020 0.080 0.038 0.16 0.051 0.235 0.007 0.080 0.013 0.14 0.013 0.18 0 0.271-0.107 0.507-0.32 0.7-0.213 0.191-0.467 0.287-0.76 0.287-0.46 0-0.931-0.227-1.407-0.673-0.477-0.449-0.713-0.893-0.713-1.323 0-0.080 0.010-0.153 0.027-0.215s0.050-0.113 0.093-0.16zM11.769 6.813c0.657 0.12 1.123 0.4 1.393 0.833 0.273 0.427 0.407 1.107 0.407 2.040 0 1.847-0.552 3.353-1.661 4.527-1.111 1.173-2.531 1.767-4.258 1.767-0.682 0-1.344-0.127-1.984-0.373-0.647-0.247-1.193-0.593-1.66-1.027-0.527-0.487-0.927-0.993-1.187-1.533-0.267-0.54-0.4-1.093-0.4-1.653 0-0.633 0.133-1.12 0.4-1.46 0.267-0.347 0.7-0.58 1.287-0.707-0.113-0.26-0.193-0.473-0.24-0.653-0.053-0.18-0.080-0.313-0.080-0.407 0-0.333 0.173-0.673 0.52-1.013 0.347-0.347 0.673-0.52 0.98-0.52 0.127 0 0.267 0.020 0.413 0.073 0.147 0.047 0.313 0.127 0.5 0.233-0.54-1.567-0.953-2.8-1.207-3.667-0.26-0.873-0.387-1.467-0.387-1.8 0-0.453 0.113-0.82 0.347-1.087 0.24-0.267 0.56-0.4 0.96-0.4 0.687 0 1.56 1.54 2.62 4.615 0.187 0.527 0.32 0.933 0.42 1.22l0.34-0.969c1.060-3.033 1.967-4.553 2.733-4.553 0.373 0 0.673 0.127 0.893 0.38 0.22 0.255 0.333 0.591 0.333 1.015 0 0.32-0.127 0.907-0.373 1.767-0.245 0.853-0.613 1.973-1.113 3.36z"></path>
</svg>
