<!-- Generated by IcoMoon.io -->
<svg version="1.1" xmlns="http://www.w3.org/2000/svg" width="16" height="16" viewBox="0 0 16 16">
<title>angularuniversal</title>
<path fill="#00acc1" d="M10.4 7.52v0.96c0 0.177-0.143 0.32-0.32 0.32v0h-4.16c-0.177 0-0.32-0.143-0.32-0.32v0-0.96c0-0.177 0.143-0.32 0.32-0.32v0h4.16c0.177 0 0.32 0.143 0.32 0.32v0zM8 10.4c-0.442 0-0.8 0.358-0.8 0.8s0.358 0.8 0.8 0.8v0c0.442 0 0.8-0.358 0.8-0.8s-0.358-0.8-0.8-0.8v0zM10.080 4.8h-4.16c-0.177 0-0.32 0.143-0.32 0.32v0 0.96c0 0.177 0.143 0.32 0.32 0.32h4.16c0.177 0 0.32-0.143 0.32-0.32v0-0.96c0-0.177-0.143-0.32-0.32-0.32v0zM15.44 2.664l-1.144 9.824-6.312 3.512-6.304-3.512-1.12-9.824 7.424-2.664zM11.2 4.16c0-0.53-0.43-0.96-0.96-0.96v0h-4.48c-0.53 0-0.96 0.43-0.96 0.96v0 7.68c0 0.53 0.43 0.96 0.96 0.96h4.48c0.53 0 0.96-0.43 0.96-0.96v0z"></path>
</svg>
