<!-- Generated by IcoMoon.io -->
<svg version="1.1" xmlns="http://www.w3.org/2000/svg" width="16" height="16" viewBox="0 0 16 16">
<title>ansible</title>
<path fill="#e00" d="M7.078 7.649l3.124 2.463-2.068-5.108zM8 0c-4.419 0-8 3.581-8 8s3.581 8 8 8 8-3.581 8-8-3.581-8-8-8zM11.865 11.537c-0.007 0.314-0.269 0.561-0.583 0.553-0.157 0-0.277-0.060-0.443-0.195l-4.127-3.333-1.386 3.469h-1.199l3.498-8.403c0.083-0.209 0.285-0.347 0.509-0.337 0.217-0.009 0.42 0.126 0.495 0.337l3.183 7.663c0.030 0.074 0.053 0.156 0.053 0.232-0.001 0.006-0.001 0.006-0.001 0.015z"></path>
</svg>
