<!-- Generated by IcoMoon.io -->
<svg version="1.1" xmlns="http://www.w3.org/2000/svg" width="16" height="16" viewBox="0 0 16 16">
<title>apacherocketmq</title>
<path fill="#d77310" d="M8 16c-1.26-1.17-1.209-2.495-1.209-2.495h2.417c0 0 0.051 1.325-1.209 2.495zM8 1.325c-1.063 1.404-3.129 4.595-3.129 8.194 0 1.041 0.195 1.913 0.393 2.529h5.472c0.197-0.615 0.393-1.487 0.393-2.529 0-3.599-2.065-6.79-3.129-8.194zM11.967 9.519c0 2.371-0.909 3.935-0.909 3.935l-0.972-0.569h-4.172l-0.972 0.569c0 0-0.909-1.565-0.909-3.935 0-5.222 3.965-9.518 3.967-9.519 0.001 0.001 3.967 4.297 3.967 9.519zM12.515 11.076c0 0.909-0.403 1.897-0.681 2.313h1.926l-0.213-1.31zM2.453 12.080l-0.213 1.31h1.926c-0.279-0.417-0.681-1.405-0.681-2.313zM7.245 8.299c-0.103 0-0.186 0.083-0.186 0.186s0.083 0.186 0.186 0.186 0.186-0.083 0.186-0.186-0.083-0.186-0.186-0.186zM7.841 8.299c-0.103 0-0.186 0.083-0.186 0.186s0.083 0.186 0.186 0.186 0.186-0.083 0.186-0.186-0.083-0.186-0.186-0.186zM8.438 8.299c-0.103 0-0.186 0.083-0.186 0.186s0.083 0.186 0.186 0.186 0.186-0.083 0.186-0.186-0.083-0.186-0.186-0.186zM10.477 10.653c0 0.533-0.431 0.964-0.964 0.964s-0.964-0.431-0.964-0.964c0-0.175 0.047-0.338 0.128-0.479l-0.241-0.329c-0.182 0.080-0.383 0.125-0.595 0.125-0.367 0-0.703-0.134-0.962-0.355l-0.269 0.233c0.009 0.039 0.013 0.079 0.013 0.121 0 0.319-0.258 0.577-0.577 0.577s-0.577-0.258-0.577-0.577 0.258-0.577 0.577-0.577c0.069 0 0.135 0.014 0.196 0.037l0.286-0.249c-0.111-0.208-0.174-0.445-0.174-0.697 0-0.337 0.114-0.647 0.303-0.897l-0.301-0.327c-0.022 0.003-0.043 0.007-0.065 0.007-0.271 0-0.49-0.219-0.49-0.49s0.219-0.49 0.49-0.49 0.49 0.219 0.49 0.49c0 0.037-0.005 0.073-0.013 0.107l0.303 0.33c0.225-0.136 0.487-0.216 0.769-0.216 0.265 0 0.514 0.071 0.729 0.192l0.257-0.257c-0.027-0.077-0.042-0.161-0.042-0.247 0-0.421 0.341-0.763 0.763-0.763s0.763 0.341 0.763 0.763-0.341 0.763-0.763 0.763c-0.087 0-0.17-0.015-0.247-0.042l-0.235 0.235c0.165 0.239 0.262 0.529 0.262 0.841 0 0.367-0.134 0.703-0.354 0.961l0.219 0.299c0.101-0.035 0.208-0.056 0.321-0.056 0.531 0.001 0.963 0.433 0.963 0.965zM7.841 9.654c0.646 0 1.169-0.523 1.169-1.169s-0.523-1.169-1.169-1.169-1.169 0.523-1.169 1.169c0 0.645 0.523 1.169 1.169 1.169z"></path>
</svg>
