<!-- Generated by IcoMoon.io -->
<svg version="1.1" xmlns="http://www.w3.org/2000/svg" width="16" height="16" viewBox="0 0 16 16">
<title>apachespark</title>
<path fill="#e25a1c" d="M7.208 0c-0.283 0.009-0.563 0.143-0.797 0.403-0.124 0.14-0.233 0.298-0.322 0.468l-0.006 0.013c-0.237 0.445-0.283 0.943-0.371 1.429 0.181-1.354 0.012-0.43-0.153 0.495l-0.331 2.229c-0.018 0.107-0.064 0.151-0.163 0.182-1.178 0.371-2.358 0.74-3.531 1.123-0.258 0.083-0.515 0.193-0.743 0.337-0.695 0.443-0.797 1.169-0.277 1.807 0.231 0.281 0.527 0.477 0.856 0.624 0.733 0.327 1.468 0.651 2.2 0.98 0.013 0.007 0.024 0.009 0.035 0.013h-0.003l0.871 0.357c0 0.015 0.001 0.030 0 0.049-0.133 1.353-0.26 2.709-0.387 4.063-0.027 0.279-0.008 0.554 0.089 0.82 0.211 0.58 0.71 0.765 1.254 0.467 0.248-0.136 0.444-0.331 0.625-0.545 0.915-1.082 1.831-2.163 2.742-3.248 0.074-0.089 0.137-0.1 0.242-0.065 0.233 0.078 0.465 0.154 0.697 0.231h0.001c0.013 0.008 0.030 0.013 0.049 0.020l0.095 0.028c0.832 0.277 1.787 0.517 2.619 0.793 0.267 0.088 0.415 0.109 0.697 0.065 0.207-0.032 0.395-0.041 0.552-0.157 0.401-0.22 0.663-0.638 0.659-1.121-0.003-0.285-0.103-0.542-0.233-0.791-0.547-1.037-1.091-2.075-1.641-3.111-0.052-0.099-0.051-0.162 0.025-0.25 0.921-1.077 1.837-2.157 2.755-3.237 0.181-0.213 0.342-0.439 0.435-0.705 0.205-0.585-0.060-1.047-0.667-1.161-0.093-0.017-0.201-0.026-0.311-0.026-0.183 0-0.359 0.026-0.526 0.076l0.013-0.003c-1.316 0.347-2.631 0.694-3.945 1.047-0.117 0.031-0.173 0.010-0.237-0.096-1.121-1.94-1.655-2.814-2.195-3.685l0.581 1.006c-0.129-0.214-0.273-0.4-0.435-0.567l0.001 0.001c-0.247-0.247-0.535-0.366-0.819-0.358zM7.323 2.469c0.053 0.036 0.095 0.083 0.125 0.139l0.001 0.002c0.58 0.964 1.161 1.927 1.739 2.892 0.047 0.079 0.090 0.107 0.185 0.081 1.017-0.273 2.035-0.542 3.053-0.811 0.245-0.065 0.49-0.129 0.735-0.193-0.010 0.052-0.033 0.097-0.067 0.133l0-0c-0.839 0.987-1.677 1.975-2.519 2.959-0.073 0.087-0.080 0.147-0.027 0.247 0.625 1.202 1.179 2.206 1.665 3.173l-2.464-0.679c-0.359-0.12-0.718-0.239-1.077-0.359-0.109-0.037-0.167-0.020-0.24 0.067-0.832 0.992-1.669 1.98-2.506 2.969-0.031 0.040-0.071 0.070-0.118 0.087l-0.002 0.001c0.023-0.252 0.045-0.505 0.069-0.757 0.099-1.048 0.198-2.096 0.301-3.144-0.020-0.212 0.078-0.27-0.215-0.363-0.995-0.395-2.231-0.881-3.211-1.27 0.044-0.041 0.098-0.071 0.157-0.089l0.003-0.001c1.198-0.38 2.397-0.76 3.596-1.137 0.085-0.027 0.133-0.061 0.141-0.155 0.009-0.099 0.033-0.196 0.051-0.294 0.161-0.909 0.322-1.817 0.484-2.725 0.045-0.257 0.093-0.514 0.14-0.771z"></path>
</svg>
