<!-- Generated by IcoMoon.io -->
<svg version="1.1" xmlns="http://www.w3.org/2000/svg" width="16" height="16" viewBox="0 0 16 16">
<title>apachecordova</title>
<path fill="#e8e8e8" d="M12.363 0.363h-8.727l-3.637 5.819 1.455 9.455h2.591l-0.182-2.182h1.273l0.182 2.182h5.363l0.182-2.182h1.273l-0.182 2.182h2.591l1.455-9.455zM12.363 12h-8.727l-0.727-5.818 1.455-2.909h2.337l-0.156 1.091h2.909l-0.156-1.091h2.337l1.455 2.909zM10.363 7.363c0.201 0 0.363 0.605 0.363 1.353s-0.163 1.353-0.363 1.353-0.363-0.605-0.363-1.353c0-0.747 0.163-1.353 0.363-1.353zM5.773 7.477c0.201 0 0.363 0.605 0.363 1.353s-0.163 1.353-0.363 1.353-0.363-0.605-0.363-1.353 0.163-1.353 0.363-1.353z"></path>
</svg>
