<!-- Generated by IcoMoon.io -->
<svg version="1.1" xmlns="http://www.w3.org/2000/svg" width="16" height="16" viewBox="0 0 16 16">
<title>apachenetbeanside</title>
<path fill="#1b6ac6" d="M7.992 0c-0.001 0.001-0.002 0.001-0.003 0.002l0-0c-0.006 0.001-0.011 0.002-0.016 0.004l0-0c-0.001 0.001-0.002 0.001-0.003 0.002l0-0c-0.001 0.001-0.002 0.001-0.003 0.001l0-0-0.009 0.005-6.865 3.959c-0.002 0.001-0.004 0.002-0.006 0.003l0-0-0.003 0.001c-0 0-0.001 0.001-0.001 0.001l-0 0c-0.001 0.001-0.002 0.001-0.003 0.002l0-0c-0 0-0.001 0.001-0.001 0.001l-0 0c-0.001 0.001-0.002 0.001-0.003 0.002l0-0c-0.001 0.001-0.002 0.002-0.003 0.003l-0 0c-0.001 0.001-0.001 0.002-0.002 0.002l-0 0c-0.001 0.001-0.002 0.001-0.003 0.002l0-0c-0 0.001-0.001 0.001-0.001 0.002l-0 0c-0.001 0.001-0.002 0.002-0.003 0.003l-0 0c-0 0.001-0.001 0.001-0.001 0.002l-0 0c-0 0.001-0.001 0.001-0.001 0.002l-0 0c-0.001 0.001-0.002 0.002-0.003 0.003l-0 0c-0 0.001-0.001 0.001-0.001 0.002l-0 0c-0 0.001-0.001 0.001-0.001 0.002l-0 0c-0 0-0 0.001-0 0.001s0 0.001 0 0.001v-0c-0 0.001-0.001 0.002-0.001 0.004l-0 0c-0 0.001-0.001 0.001-0.001 0.002l-0 0c-0 0-0 0.001-0 0.001s0 0.001 0 0.001v-0c-0 0.001-0.001 0.002-0.001 0.004l-0 0c-0 0-0 0.001-0 0.001s0 0.001 0 0.001v-0c-0 0-0 0.001-0 0.001s0 0.001 0 0.001v-0c-0 0.001-0 0.001-0 0.002s0 0.001 0 0.002v-0c-0 0.001-0 0.003-0 0.005s0 0.003 0 0.005l-0-0v7.917c-0 0.001-0 0.002-0 0.003s0 0.002 0 0.004v-0 0.003c-0 0.001-0 0.001-0 0.002s0 0.001 0 0.002v-0c-0 0-0 0.001-0 0.001s0 0.001 0 0.001v-0c-0 0-0 0.001-0 0.001s0 0.001 0 0.001v-0c0.001 0.001 0.001 0.002 0.002 0.003l-0-0c-0 0.001-0 0.001-0 0.002s0 0.001 0 0.002v-0c0.001 0.001 0.001 0.002 0.002 0.003l-0-0c0.001 0.002 0.001 0.003 0.001 0.004l-0-0c0.001 0.002 0.002 0.004 0.003 0.006l-0-0c0.001 0.001 0.001 0.002 0.002 0.003l-0-0c0.001 0.001 0.001 0.002 0.002 0.003l-0-0c0.001 0.001 0.001 0.002 0.002 0.003l-0-0c0.001 0.001 0.002 0.002 0.003 0.003l0 0c0.001 0.001 0.001 0.002 0.002 0.003l-0-0c0.001 0.001 0.002 0.002 0.003 0.003l0 0c0 0 0.001 0.001 0.001 0.001l0 0c0.001 0.001 0.001 0.002 0.002 0.003l-0-0c0.001 0 0.001 0.001 0.002 0.001l0 0c0.001 0.001 0.002 0.002 0.003 0.003l0 0c0.001 0 0.001 0.001 0.002 0.001l0 0c0.001 0 0.001 0.001 0.002 0.001l0 0c0.002 0.001 0.005 0.003 0.008 0.004l0 0 6.869 3.961c0 0 0.001 0.001 0.001 0.001l0 0 0.003 0.001c0.003 0.002 0.006 0.004 0.009 0.005l0 0c0 0 0.001 0 0.001 0s0.001 0 0.001-0h-0c0.001 0 0.001 0.001 0.002 0.001l0 0c0.001 0 0.001 0.001 0.002 0.001l0 0c0.001 0 0.001 0 0.002 0s0.001-0 0.002-0h-0c0 0 0.001 0 0.001 0s0.001 0 0.001-0h-0c0.001 0 0.002 0.001 0.004 0.001l0 0c0 0 0.001 0 0.001 0s0.001 0 0.001-0h-0c0.004-0 0.008-0.001 0.012-0.001l-0 0c0.003-0 0.005-0.001 0.007-0.001l-0 0c0.004-0.001 0.007-0.003 0.010-0.004l-0 0c0.002-0.001 0.004-0.002 0.006-0.003l-0 0 0.004-0.003c0.002-0.001 0.003-0.002 0.004-0.003l-0 0 6.86-3.956c0.004-0.002 0.008-0.003 0.011-0.005l-0 0 0.003-0.001c0.002-0.001 0.003-0.001 0.004-0.001l-0 0c0-0 0.001-0.001 0.001-0.001l0-0c0.001-0.001 0.002-0.002 0.003-0.003l0-0c0.001-0.001 0.002-0.001 0.003-0.002l-0 0c0.001-0.001 0.002-0.002 0.003-0.003l0-0c0.001-0.001 0.002-0.002 0.003-0.003l0-0c0-0 0.001-0.001 0.001-0.001l0-0c0.001-0.001 0.002-0.002 0.003-0.003l0-0c0-0.001 0.001-0.001 0.001-0.002l0-0c0-0.001 0.001-0.001 0.001-0.002l0-0c0.001-0.001 0.002-0.002 0.003-0.003l0-0c0-0.001 0.001-0.001 0.001-0.002l0-0c0-0.001 0.001-0.002 0.001-0.004l0-0c0-0 0-0.001 0-0.001s0-0.001-0-0.001v0c0-0.001 0.001-0.001 0.001-0.002l0-0c0-0.001 0.001-0.001 0.001-0.002l0-0c0-0.001 0-0.001 0-0.002s-0-0.001-0-0.002v0c0-0.001 0.001-0.001 0.001-0.002l0-0c0-0 0-0.001 0-0.001s0-0.001-0-0.001v0c0-0.001 0-0.001 0-0.002s-0-0.001-0-0.002v0c0-0 0-0.001 0-0.001s0-0.001-0-0.001v0-0.004c0-0.001 0-0.002 0-0.003s-0-0.002-0-0.003v0-7.919c0-0.001 0-0.003 0-0.004s-0-0.003-0-0.004l0 0c0-0.001 0-0.001 0-0.002s-0-0.001-0-0.002v0c0-0 0-0.001 0-0.001s0-0.001-0-0.001v0c0-0.001 0-0.001 0-0.002s-0-0.001-0-0.002v0c-0.001-0.001-0.001-0.002-0.002-0.003l0 0c0-0 0-0.001 0-0.001s0-0.001-0-0.001v0c-0.001-0.001-0.001-0.002-0.002-0.003l0 0c0-0 0-0 0-0.001s0-0 0-0.001v0c-0.001-0.001-0.001-0.002-0.002-0.003l0 0c-0.001-0.002-0.002-0.004-0.003-0.006l0 0c-0-0-0.001-0.001-0.001-0.001l-0-0c-0-0.002-0.001-0.004-0.001-0.006l0 0c-0-0-0.001-0.001-0.001-0.001l-0-0c-0.001-0.001-0.002-0.002-0.003-0.003l-0-0c-0.001-0.001-0.001-0.002-0.002-0.003l0 0c-0.001-0.001-0.002-0.002-0.003-0.003l-0-0c-0.001-0.001-0.001-0.002-0.002-0.003l0 0c-0.001-0-0.001-0.001-0.002-0.001l-0-0c-0.001-0.001-0.002-0.002-0.003-0.003l-0-0c-0.001-0-0.001-0.001-0.002-0.001l-0-0c-0-0-0.001-0.001-0.002-0.001l-0-0c-0.003-0.002-0.007-0.005-0.010-0.006l-0-0-6.865-3.959c-0.001-0.001-0.002-0.002-0.004-0.003l-0-0-0.002-0.001c-0.001-0.001-0.003-0.002-0.005-0.003l-0-0c-0.001-0-0.001-0.001-0.002-0.001l-0-0c-0.002-0.001-0.004-0.002-0.006-0.003l-0-0c-0-0-0.001-0-0.001-0s-0.001 0-0.001 0h0c-0.001-0-0.001-0.001-0.002-0.001l-0-0c-0.001-0-0.002-0.001-0.003-0.001l-0-0c-0-0-0.001-0-0.001-0s-0.001 0-0.001 0h0c-0.001-0-0.001-0-0.002-0s-0.001 0-0.002 0h0c-0-0-0.001-0-0.001-0s-0.001 0-0.001 0h0c-0-0-0.001-0-0.001-0s-0.001 0-0.001 0h0c-0.001-0-0.002-0-0.003-0s-0.002 0-0.003 0h0zM7.937 0.171v2.925l-4.154 2.412-2.541-1.477zM8.062 0.171l6.695 3.86-2.541 1.477-4.153-2.412zM8 3.203l4.093 2.377-4.093 2.346-4.092-2.346zM1.18 4.139l2.542 1.477v4.764l-2.542 1.478zM14.82 4.139v7.719l-2.543-1.477v-4.765zM3.846 5.687l4.091 2.346v4.723l-4.091-2.375zM12.154 5.687v4.693l-4.092 2.375v-4.722zM3.783 10.487l4.153 2.413v2.925l-6.696-3.86zM12.217 10.487l2.542 1.479-6.697 3.86v-2.925l2.078-1.207z"></path>
</svg>
