<!-- Generated by IcoMoon.io -->
<svg version="1.1" xmlns="http://www.w3.org/2000/svg" width="16" height="16" viewBox="0 0 16 16">
<title>apachekafka</title>
<path d="M10.841 8.862c-0.623 0-1.181 0.276-1.564 0.711l-0.98-0.694c0.104-0.287 0.164-0.594 0.164-0.916 0-0.317-0.057-0.619-0.158-0.901l0.978-0.687c0.383 0.433 0.939 0.707 1.561 0.707 1.15 0 2.086-0.935 2.086-2.086s-0.936-2.086-2.086-2.086-2.086 0.935-2.086 2.086c0 0.206 0.031 0.405 0.087 0.593l-0.979 0.687c-0.409-0.506-0.997-0.861-1.668-0.969v-1.179c0.945-0.199 1.657-1.038 1.657-2.041 0-1.151-0.936-2.086-2.086-2.086s-2.085 0.935-2.085 2.086c0 0.989 0.693 1.819 1.619 2.031v1.195c-1.263 0.222-2.227 1.325-2.227 2.651 0 1.333 0.973 2.439 2.247 2.654v1.261c-0.935 0.205-1.638 1.040-1.638 2.036-0.001 1.151 0.935 2.086 2.085 2.086s2.086-0.935 2.086-2.086c0-0.997-0.703-1.831-1.638-2.036v-1.261c0.644-0.109 1.227-0.447 1.64-0.954l0.987 0.699c-0.055 0.186-0.085 0.383-0.085 0.587 0 1.15 0.936 2.086 2.086 2.086s2.086-0.935 2.086-2.086-0.937-2.086-2.087-2.086zM10.841 3.985c0.558 0 1.011 0.454 1.011 1.011s-0.453 1.011-1.011 1.011c-0.557 0-1.011-0.454-1.011-1.011s0.454-1.011 1.011-1.011zM4.755 2.086c0-0.557 0.453-1.011 1.011-1.011s1.011 0.454 1.011 1.011-0.453 1.011-1.011 1.011-1.011-0.454-1.011-1.011zM6.778 13.914c0 0.557-0.453 1.011-1.011 1.011s-1.011-0.454-1.011-1.011 0.453-1.011 1.011-1.011 1.011 0.454 1.011 1.011zM5.767 9.373c-0.778 0-1.411-0.633-1.411-1.411s0.633-1.411 1.411-1.411 1.411 0.633 1.411 1.411-0.633 1.411-1.411 1.411zM10.841 11.959c-0.558 0-1.011-0.454-1.011-1.011s0.453-1.011 1.011-1.011 1.011 0.454 1.011 1.011-0.453 1.011-1.011 1.011z"></path>
</svg>
