<!-- Generated by IcoMoon.io -->
<svg version="1.1" xmlns="http://www.w3.org/2000/svg" width="16" height="16" viewBox="0 0 16 16">
<title>apacheflink</title>
<path fill="#e6526f" d="M5.535 15.984c-0.387-0.029-0.893-0.125-1.319-0.248-0.752-0.229-1.405-0.573-1.976-1.018l0.014 0.010c-0.245-0.19-0.769-0.713-0.982-0.982-0.793-0.999-1.197-2.087-1.237-3.332-0.002-0.054-0.003-0.117-0.003-0.181 0-0.554 0.081-1.088 0.232-1.593l-0.010 0.039c0.045-0.153 0.047-0.17 0.038-0.353-0.002-0.038-0.003-0.082-0.003-0.126 0-0.219 0.025-0.432 0.073-0.637l-0.004 0.019c0.041-0.163 0.153-0.407 0.227-0.495l0.045-0.053-0.007 0.289c-0.008 0.415-0.007 0.415 0.125 0.183 0.313-0.554 0.695-1.027 1.142-1.43l0.005-0.004c0.129-0.117 0.246-0.225 0.259-0.239s0.060-0.119 0.106-0.233c0.138-0.343 0.261-0.531 0.395-0.599 0.117-0.060 0.223-0.029 0.247 0.069 0.002 0.016 0.003 0.035 0.003 0.054 0 0.032-0.003 0.063-0.008 0.094l0-0.003c-0.006 0.028-0.009 0.060-0.009 0.092 0 0.005 0 0.010 0 0.015l-0-0.001c0.003 0 0.105-0.053 0.226-0.117 0.433-0.231 0.743-0.364 1.396-0.595 0.215-0.077 0.419-0.15 0.451-0.164 0.184-0.077 0.283-0.337 0.265-0.693-0.003-0.122-0.027-0.237-0.070-0.343l0.002 0.006c-0.031-0.091-0.058-0.161-0.088-0.229l0.007 0.018c-0.033-0.065-0.029-0.077 0.025-0.061 0.155 0.045 0.341 0.195 0.458 0.37 0.068 0.103 0.182 0.348 0.183 0.395 0 0.037 0.024 0.020 0.075-0.056 0.205-0.303 0.206-0.647 0.003-0.992-0.074-0.127-0.286-0.335-0.43-0.425-0.185-0.113-0.296-0.147-0.493-0.145-0.153 0.001-0.167-0.001-0.211-0.038-0.055-0.047-0.087-0.146-0.073-0.229 0.017-0.095 0.177-0.4 0.287-0.547 0.13-0.173 0.424-0.456 0.611-0.589 0.608-0.432 1.371-0.693 2.257-0.773 0.213-0.020 0.221-0.021 0.265-0.069 0.041-0.044 0.055-0.049 0.147-0.049 0.089 0 0.113 0.008 0.213 0.065 0.105 0.061 0.115 0.064 0.159 0.044 0.033-0.015 0.088-0.018 0.187-0.011 0.113 0.007 0.147 0.005 0.176-0.016 0.051-0.036 0.114-0.031 0.207 0.016 0.045 0.022 0.176 0.062 0.292 0.087 0.546 0.121 0.985 0.291 1.402 0.543 0.074 0.045 0.137 0.081 0.141 0.081 0.006 0-0.002-0.059-0.021-0.164l-0.009-0.045 0.101 0.060c0.133 0.080 0.253 0.205 0.319 0.331 0.046 0.089 0.057 0.1 0.081 0.085 0.019-0.011 0.043-0.013 0.073-0.002 0.036 0.013 0.062 0.050 0.133 0.195 0.049 0.099 0.095 0.185 0.1 0.191 0.007 0.007 0.056-0.039 0.111-0.099 0.117-0.128 0.225-0.2 0.367-0.249 0.133-0.045 0.213-0.035 0.273 0.032s0.060 0.153-0.003 0.285c-0.12 0.253-0.173 0.485-0.153 0.663l0.011 0.091 0.072-0.051c0.067-0.047 0.081-0.051 0.203-0.051 0.128 0 0.267 0.039 0.267 0.075 0 0.008-0.034 0.055-0.075 0.106-0.123 0.151-0.153 0.235-0.151 0.417 0.002 0.167 0.009 0.205 0.118 0.579 0.039 0.137 0.085 0.315 0.101 0.397 0.007 0.055 0.021 0.105 0.041 0.152l-0.001-0.004c0.027 0 0.209-0.151 0.319-0.263 0.066-0.067 0.125-0.121 0.13-0.121 0.022 0 0.061 0.127 0.078 0.251 0.020 0.147 0.005 0.288-0.049 0.461-0.032 0.104-0.033 0.113-0.008 0.165 0.041 0.085 0.047 0.177 0.019 0.296-0.047 0.201-0.133 0.34-0.355 0.572l-0.115 0.12-0.019 0.16c-0.011 0.089-0.033 0.221-0.051 0.295-0.013 0.042-0.021 0.091-0.023 0.141l-0 0.001c0.005 0.005 0.019-0.001 0.033-0.013 0.035-0.029 0.144-0.013 0.252 0.039 0.222 0.105 0.648 0.494 0.815 0.744l0.090 0.134 0.143 0.036c0.589 0.149 1.048 0.577 1.301 1.215 0.080 0.2 0.136 0.455 0.176 0.791 0.013 0.103 0.040 0.193 0.12 0.393 0.057 0.142 0.112 0.298 0.122 0.346 0.028 0.129 0.012 0.295-0.040 0.417-0.025 0.057-0.058 0.153-0.075 0.213-0.061 0.215-0.159 0.355-0.325 0.462-0.053 0.034-0.136 0.073-0.185 0.087-0.091 0.025-0.399 0.167-0.4 0.185-0.001 0.005 0.021 0.015 0.049 0.020 0.147 0.029 0.339 0.168 0.388 0.28 0.010 0.023 0.049 0.082 0.086 0.131 0.142 0.187 0.177 0.358 0.125 0.629l-0.027 0.142 0.041 0.051c0.147 0.181 0.273 0.415 0.319 0.595 0.065 0.253 0.064 0.498-0.003 0.869l-0.029 0.157 0.053 0.077c0.103 0.149 0.123 0.291 0.071 0.491-0.129 0.501-0.511 0.873-1.042 1.015l-0.104 0.027v0.139c0 0.107-0.008 0.156-0.033 0.211-0.045 0.094-0.119 0.168-0.211 0.212l-0.003 0.001c-0.149 0.066-0.372-0.005-0.481-0.153-0.055-0.073-0.059-0.075-0.139-0.075-0.054-0.001-0.106-0.010-0.155-0.026l0.004 0.001c-0.165-0.058-0.241-0.171-0.245-0.365l-0.003-0.112-0.104-0.063c-0.144-0.085-0.268-0.186-0.374-0.303l-0.001-0.001-0.1-0.11 0.052 0.103c0.224 0.445-0.030 0.927-0.564 1.069-0.109 0.030-0.193 0.035-0.661 0.047-0.723 0.017-6.013 0.015-6.243-0.003zM14.539 15.717c0.067-0.059 0.095-0.208 0.053-0.289-0.039-0.077-0.093-0.1-0.256-0.113-0.185-0.013-0.236-0.040-0.236-0.119 0-0.102 0.017-0.107 0.427-0.112 0.398-0.005 0.518-0.025 0.692-0.113 0.153-0.077 0.348-0.319 0.366-0.455l0.009-0.063-0.11 0.031c-0.417 0.117-0.978 0.138-1.389 0.053-0.443-0.093-0.853-0.347-0.998-0.617l-0.036-0.067-0.020 0.047c-0.013 0.056-0.021 0.12-0.021 0.186 0 0.013 0 0.026 0.001 0.039l-0-0.002c-0.001 0.165 0.002 0.183 0.049 0.28 0.097 0.203 0.307 0.401 0.561 0.529 0.133 0.067 0.137 0.070 0.128 0.119l-0.028 0.161c-0.025 0.141-0.011 0.217 0.054 0.291 0.063 0.072 0.156 0.117 0.258 0.117 0.004 0 0.008-0 0.012-0l-0.001 0c0.063 0 0.101 0.009 0.128 0.030 0.137 0.107 0.281 0.135 0.357 0.069zM11.203 15.594c0.309-0.045 0.409-0.046 0.575-0.009 0.34 0.075 0.691 0.015 0.845-0.145 0.101-0.105 0.132-0.273 0.069-0.377-0.077-0.127-0.28-0.213-0.504-0.213-0.156 0-0.237 0.023-0.509 0.139-0.065 0.030-0.148 0.063-0.234 0.091l-0.018 0.005c-0.116 0.023-0.177-0.041-0.177-0.186 0-0.155 0.043-0.205 0.373-0.44 0.285-0.2 0.454-0.431 0.496-0.673 0.019-0.113-0.002-0.268-0.041-0.305-0.056-0.028-0.121-0.052-0.189-0.070l-0.007-0.002c-0.553-0.163-0.808-0.374-1.049-0.872-0.086-0.17-0.166-0.371-0.227-0.58l-0.007-0.026c-0.035-0.119-0.069-0.215-0.108-0.309l0.007 0.019c-0.18-0.397-0.618-0.755-1.122-0.918-0.213-0.069-0.349-0.093-0.689-0.123-0.166-0.013-0.295-0.027-0.424-0.043l0.048 0.005-0.080-0.012 0.112-0.057c0.137-0.069 0.237-0.102 0.384-0.123 0.209-0.031 0.352-0.037 0.505-0.020 0.615 0.069 1.078 0.385 1.405 0.959 0.121 0.213 0.209 0.431 0.293 0.735 0.098 0.351 0.187 0.528 0.356 0.707 0.273 0.29 0.639 0.42 1.179 0.42 0.119 0 0.267-0.008 0.328-0.017 0.252-0.035 0.513-0.125 0.707-0.242 0.212-0.127 0.409-0.361 0.473-0.56 0.019-0.060 0.043-0.11 0.052-0.11s0.069 0.012 0.133 0.027c0.109 0.026 0.125 0.026 0.257 0 0.212-0.040 0.269-0.036 0.323 0.021 0.081 0.087 0.183 0.103 0.3 0.047 0.047-0.025 0.087-0.059 0.118-0.099l0.001-0.001c0.039-0.053 0.047-0.079 0.043-0.138-0.005-0.071-0.007-0.073-0.129-0.153-0.047-0.028-0.087-0.057-0.125-0.089l0.001 0.001c0-0.005 0.030-0.029 0.067-0.053 0.051-0.033 0.083-0.043 0.128-0.039 0.069 0.006 0.069-0.003 0.003-0.131-0.057-0.117-0.15-0.209-0.265-0.263l-0.003-0.001c-0.225-0.109-0.479-0.109-0.763 0-0.171 0.067-0.197 0.067-0.313 0.016-0.154-0.068-0.311-0.092-0.523-0.080-0.261 0.016-0.434-0.011-0.5-0.079l-0.049-0.049 0.21-0.019c0.327-0.030 0.421-0.059 0.711-0.218 0.179-0.099 0.285-0.125 0.553-0.141 0.387-0.022 0.57-0.088 0.673-0.242 0.037-0.055 0.055-0.071 0.072-0.060 0.031 0.008 0.067 0.013 0.104 0.013 0.203 0 0.373-0.143 0.414-0.334l0.001-0.003c0.011-0.056 0.008-0.059-0.159-0.207-0.062-0.051-0.117-0.103-0.169-0.16l-0.001-0.001c0-0.007 0.026-0.033 0.057-0.061 0.095-0.083 0.163-0.069 0.356 0.072 0.033 0.025 0.036 0.025 0.036-0.003 0-0.063-0.039-0.167-0.152-0.407-0.133-0.28-0.143-0.313-0.169-0.536-0.080-0.687-0.45-1.261-1.028-1.597-0.039-0.025-0.085-0.050-0.133-0.073l-0.008-0.004c-0.006 0-0.033 0.047-0.062 0.105-0.032 0.064-0.070 0.119-0.113 0.169l0.001-0.001c-0.050 0.052-0.071 0.063-0.121 0.063-0.071 0-0.12-0.037-0.12-0.089 0-0.020 0.021-0.082 0.048-0.138 0.080-0.173 0.103-0.293 0.080-0.43-0.053-0.319-0.353-0.677-0.728-0.873-0.147-0.076-0.163-0.073-0.173 0.021-0.010 0.108 0.013 0.327 0.051 0.473 0.017 0.068 0.078 0.231 0.135 0.361 0.145 0.333 0.189 0.48 0.19 0.627 0 0.007 0.001 0.014 0.001 0.022 0 0.057-0.010 0.111-0.028 0.162l0.001-0.003c-0.044 0.088-0.108 0.159-0.186 0.212l-0.002 0.001c-0.055 0.029-0.117 0.030-0.105 0.003 0.085-0.193 0.113-0.287 0.119-0.406 0.009-0.167-0.013-0.243-0.156-0.536s-0.183-0.453-0.174-0.695l0.007-0.169-0.039 0.077c-0.063 0.113-0.118 0.202-0.176 0.289l0.010-0.016c-0.203 0.315-0.269 0.484-0.269 0.696 0 0.196 0.076 0.469 0.185 0.667 0.021 0.039 0.036 0.073 0.032 0.078-0.037-0.021-0.069-0.047-0.096-0.077l-0-0c-0.089-0.084-0.217-0.301-0.217-0.369 0-0.045-0.029-0.037-0.16 0.047-0.243 0.157-0.419 0.315-0.65 0.59-0.337 0.401-0.797 0.7-1.36 0.885-0.132 0.043-0.563 0.159-0.958 0.257-1.080 0.268-1.459 0.401-1.958 0.689-0.989 0.569-1.507 1.333-1.609 2.377-0.036 0.373 0.015 0.939 0.123 1.345 0.017 0.061-0.087-0.075-0.151-0.2-0.116-0.222-0.19-0.496-0.227-0.84-0.033-0.307 0.003-0.92 0.075-1.248l0.010-0.047-0.238 0.010c-0.591 0.025-1.079 0.192-1.478 0.507-0.062 0.048-0.118 0.097-0.17 0.15l-0 0-0.040 0.048 0.010-0.047c0.019-0.085 0.113-0.269 0.19-0.37 0.16-0.211 0.482-0.413 0.818-0.514 0.088-0.027 0.358-0.093 0.6-0.147s0.452-0.101 0.467-0.105c0.013-0.004 0.060-0.072 0.103-0.151s0.12-0.202 0.171-0.273c0.051-0.073 0.091-0.134 0.087-0.137-0.099 0.008-0.189 0.020-0.277 0.036l0.016-0.002c-0.14 0.022-0.449 0.065-0.687 0.097-0.479 0.063-0.749 0.113-1 0.185-0.773 0.223-1.22 0.655-1.453 1.407l-0.060 0.195 0.031 0.091c0.050 0.149 0.22 0.48 0.333 0.648 0.442 0.66 1.136 1.195 1.987 1.533 0.193 0.076 0.216 0.090 0.316 0.189 0.059 0.058 0.105 0.108 0.103 0.111-0.012 0.013-0.503-0.116-0.715-0.187-0.541-0.181-1.009-0.441-1.418-0.771l0.009 0.007c-0.086-0.067-0.183-0.13-0.285-0.184l-0.011-0.005c-0.36-0.186-0.669-0.416-0.934-0.688l-0.001-0.001c-0.125-0.13-0.233-0.277-0.319-0.437l-0.005-0.011-0.069-0.128 0.098 0.090c0.213 0.196 0.522 0.397 0.675 0.439 0.035 0.009 0.033 0.003-0.029-0.107-0.084-0.147-0.166-0.319-0.234-0.499l-0.009-0.026c-0.046-0.126-0.109-0.235-0.189-0.33l0.001 0.002c-0.498-0.647-0.862-1.297-1.116-1.993l-0.078-0.215-0.013 0.071c-0.011 0.104-0.017 0.225-0.017 0.348 0 0.004 0 0.008 0 0.012v-0.001l-0.003 0.288 0.093 0.257c0.097 0.264 0.443 1.199 0.473 1.277 0.009 0.024 0.013 0.044 0.010 0.044s-0.061-0.069-0.127-0.153c-0.153-0.192-0.323-0.447-0.353-0.529l-0.025-0.063 0.009 0.056c0.049 0.299 0.182 0.747 0.311 1.049 0.391 0.917 1.033 1.722 1.815 2.271 0.761 0.535 1.795 0.911 2.709 0.985 0.088 0.007 1.389 0.014 2.89 0.015 2.345 0.001 2.753-0.001 2.898-0.022zM12.326 11.149c-0.191-0.040-0.36-0.103-0.516-0.189l0.010 0.005c-0.307-0.18-0.525-0.495-0.547-0.789-0.007-0.103-0.007-0.104 0.015-0.049 0.139 0.353 0.407 0.637 0.775 0.822 0.169 0.085 0.263 0.12 0.46 0.171l0.176 0.045-0.144-0.001c-0.079-0.001-0.183-0.007-0.229-0.015zM14.080 9.549c-0.161-0.039-0.34-0.182-0.389-0.313-0.013-0.042-0.020-0.090-0.020-0.14 0-0.064 0.012-0.126 0.035-0.183l-0.001 0.003 0.025-0.047 0.011 0.064c0.029 0.16 0.143 0.297 0.305 0.369 0.048 0.021 0.171 0.053 0.273 0.071 0.153 0.027 0.251 0.055 0.31 0.091 0.005 0.003 0.009-0.069 0.011-0.159 0.003-0.158 0.003-0.163-0.023-0.124-0.055 0.081-0.133 0.144-0.181 0.144-0.063 0-0.342-0.101-0.419-0.152-0.095-0.063-0.125-0.124-0.125-0.255 0-0.093-0.006-0.117-0.036-0.149l-0.036-0.039 0.076-0.069c0.127-0.115 0.203-0.144 0.38-0.144 0.171 0 0.245 0.027 0.365 0.129 0.171 0.147 0.228 0.505 0.129 0.803l-0.037 0.109-0.296 0.003c-0.026 0.001-0.056 0.001-0.086 0.001-0.095 0-0.19-0.005-0.283-0.014l0.012 0.001zM14.273 8.983c0.057-0.029 0.090-0.091 0.088-0.165-0.001-0.046-0.015-0.070-0.059-0.111-0.093-0.086-0.219-0.061-0.273 0.053-0.072 0.152 0.093 0.303 0.245 0.223zM12.917 14.708c-0.073-0.115-0.132-0.248-0.169-0.39l-0.002-0.010c-0.053-0.237-0.005-0.618 0.101-0.802l0.040-0.071-0.133 0.010c-0.060 0.005-0.133 0.009-0.207 0.011l-0.003 0h-0.077v0.118c0 0.236-0.109 0.524-0.281 0.739l-0.089 0.112 0.163 0.011c0.089 0.006 0.211 0.025 0.27 0.043 0.12 0.037 0.269 0.128 0.353 0.215 0.067 0.070 0.079 0.075 0.035 0.013zM15.111 14.148c0.121-0.049 0.217-0.136 0.277-0.247l0.001-0.003c0.057-0.117 0.119-0.425 0.131-0.651 0.007-0.143 0.003-0.213-0.018-0.312-0.027-0.125-0.123-0.346-0.182-0.421l-0.030-0.038-0.079 0.056c-0.173 0.124-0.311 0.143-0.487 0.067-0.085-0.037-0.133-0.047-0.265-0.052l-0.162-0.007-0.053 0.093c-0.154 0.273-0.386 0.485-0.666 0.611l-0.009 0.004-0.123 0.056-0.011 0.085c-0.045 0.35 0.189 0.591 0.701 0.723 0.268 0.069 0.357 0.079 0.637 0.074 0.212-0.003 0.261-0.009 0.339-0.039zM2.237 11.668c0.147-0.711 0.685-1.186 1.6-1.413 0.229-0.057 0.605-0.131 1.289-0.255 0.897-0.162 1.174-0.248 1.505-0.469l0.2-0.133-0.844-0.005c-1.035-0.006-1.17 0.007-1.573 0.14-0.255 0.085-0.506 0.197-1.199 0.539-0.329 0.163-0.602 0.293-0.605 0.289-0.006-0.007 0.249-0.23 0.38-0.332 0.428-0.337 1.129-0.727 1.577-0.877 0.765-0.256 1.353-0.305 2.594-0.217l0.593 0.042 0.231-0.057c0.227-0.057 0.459-0.101 0.896-0.171 0.092-0.013 0.168-0.027 0.242-0.044l-0.019 0.004c0.003-0.003-0.007-0.011-0.024-0.017-0.093-0.032-0.173-0.073-0.246-0.123l0.003 0.002c-0.038-0.023-0.070-0.047-0.101-0.074l0.001 0.001c0-0.003 0.207-0.004 0.46-0.001 0.46 0.005 0.461 0.005 0.623-0.039 1.001-0.271 1.823-1.008 2.261-2.030 0.091-0.213 0.251-0.669 0.239-0.681-0.005-0.005-0.058 0.022-0.119 0.059-0.153 0.095-0.48 0.256-0.67 0.332-0.432 0.178-0.933 0.297-1.457 0.331l-0.014 0.001-0.143 0.011-0.113 0.107c-0.4 0.377-1.002 0.735-1.552 0.924-0.307 0.105-0.497 0.149-1.484 0.336-0.489 0.093-1.043 0.201-1.233 0.241-1.379 0.29-2.261 0.653-2.737 1.126-0.162 0.16-0.249 0.285-0.344 0.487-0.048 0.103-0.1 0.183-0.175 0.267-0.128 0.149-0.225 0.328-0.279 0.525l-0.002 0.009c-0.062 0.248-0.034 0.611 0.072 0.921 0.037 0.111 0.135 0.338 0.145 0.338 0.010-0.026 0.018-0.057 0.024-0.089l0-0.003zM1.691 11.089l-0.017-0.244-0.173-0.26c-0.073-0.106-0.176-0.266-0.276-0.428l-0.036-0.063c-0.127-0.213-0.42-0.777-0.502-0.968l-0.034-0.080 0.009 0.064c0.017 0.121 0.1 0.449 0.158 0.629 0.129 0.4 0.342 0.841 0.573 1.189 0.105 0.157 0.302 0.419 0.309 0.411 0-0.002 0-0.005 0-0.007 0-0.085-0.004-0.17-0.012-0.253l0.001 0.011zM1.684 10.156c-0.051-0.264-0.027-0.621 0.057-0.833 0.035-0.090 0.109-0.237 0.117-0.237 0.003 0 0.029 0.063 0.057 0.14 0.051 0.141 0.12 0.277 0.141 0.276 0.007 0 0.039-0.047 0.073-0.105s0.107-0.165 0.163-0.24l0.103-0.135-0.063-0.040c-0.204-0.129-0.39-0.424-0.47-0.745-0.078-0.317-0.102-0.8-0.059-1.196 0.012-0.108 0.019-0.2 0.015-0.204-0.011-0.011-0.233 0.266-0.372 0.461-0.218 0.306-0.412 0.654-0.564 1.024l-0.013 0.035-0.071 0.176 0.069 0.196c0.22 0.598 0.503 1.116 0.849 1.584l-0.012-0.017c-0.003-0.052-0.011-0.099-0.022-0.146l0.001 0.006zM2.663 8.906c-0.047-0.193-0.067-0.448-0.067-0.901 0-0.435 0.003-0.5 0.037-0.689 0.045-0.245 0.127-0.529 0.203-0.692 0.055-0.119 0.215-0.395 0.225-0.385 0.003 0.003-0.015 0.158-0.040 0.345-0.072 0.537-0.087 0.735-0.075 1.045 0.013 0.355 0.076 0.8 0.115 0.8 0.015 0 0.020-0.075 0.019-0.332-0.001-0.025-0.001-0.055-0.001-0.085 0-0.388 0.059-0.763 0.168-1.115l-0.007 0.027c0.133-0.465 0.415-1.079 0.673-1.464 0.019-0.026 0.037-0.056 0.052-0.087l0.002-0.003c0-0.005-0.042-0.003-0.093 0.004-0.615 0.094-1.114 0.507-1.363 1.127l-0.062 0.153 0.007-0.109c0.021-0.313 0.083-0.752 0.127-0.897 0.005-0.016-0.010 0.007-0.033 0.049-0.185 0.341-0.36 1.317-0.359 2.003 0 0.502 0.089 0.865 0.271 1.105 0.085 0.113 0.224 0.181 0.204 0.1zM3.513 8.293c0.141-0.069 0.335-0.125 1.181-0.338 0.37-0.093 0.759-0.197 0.865-0.233 0.408-0.135 0.758-0.351 1.046-0.63l-0.001 0.001c0.308-0.296 0.411-0.453 0.509-0.775 0.045-0.149 0.045-0.149 0.073-0.112 0.123 0.163 0.121 0.555-0.003 0.8-0.017 0.033-0.025 0.062-0.018 0.062 0.033 0 0.21-0.131 0.284-0.21 0.194-0.207 0.284-0.397 0.44-0.927 0.027-0.101 0.055-0.183 0.086-0.262l-0.006 0.017c0.014-0.016 0.072 0.117 0.107 0.249 0.019 0.069 0.027 0.16 0.027 0.293-0.002 0.219-0.042 0.387-0.143 0.586l-0.057 0.113 0.085-0.046c0.207-0.111 0.583-0.572 0.744-0.911 0.088-0.165 0.14-0.36 0.14-0.568 0-0.008-0-0.016-0-0.025l0 0.001c0.001-0.283-0.058-0.469-0.229-0.717-0.224-0.323-0.729-0.7-1.17-0.874-0.068-0.027-0.112-0.061-0.189-0.147-0.055-0.061-0.093-0.111-0.084-0.111 0.020 0 0.315 0.080 0.513 0.139 0.47 0.14 0.839 0.347 1.123 0.628 0.329 0.325 0.485 0.667 0.483 1.057-0.002 0.345-0.123 0.659-0.391 1.013-0.052 0.068-0.093 0.127-0.093 0.131 0 0.013 0.256-0.101 0.416-0.185 0.202-0.107 0.528-0.327 0.653-0.439 0.174-0.158 0.407-0.547 0.507-0.848 0.097-0.294 0.113-0.624 0.042-0.897-0.062-0.241-0.22-0.518-0.417-0.733l-0.085-0.092h0.081c0.044 0 0.085-0.007 0.089-0.015 0.020-0.032-0.027-0.1-0.099-0.146-0.124-0.079-0.175-0.085-0.404-0.057-0.257 0.033-0.666 0.033-0.864 0.001-0.171-0.028-0.362-0.088-0.454-0.143l-0.063-0.037 0.582-0.008c0.443-0.007 0.614-0.015 0.717-0.035 0.149-0.029 0.253-0.069 0.288-0.111 0.020-0.024 0.015-0.034-0.040-0.092-0.179-0.185-0.511-0.413-0.847-0.583-0.533-0.277-1.164-0.439-1.833-0.439-0.009 0-0.017 0-0.026 0h0.001c-0.258 0-0.573 0.027-0.712 0.059l-0.040 0.009 0.048-0.051c0.063-0.067 0.272-0.169 0.427-0.208 0.273-0.069 0.653-0.093 1.022-0.067 0.516 0.039 0.887 0.133 1.385 0.355 0.105 0.047 0.205 0.085 0.222 0.083 0.040-0.003 0.089-0.049 0.114-0.108l0.021-0.048 0.050 0.107c0.027 0.060 0.050 0.115 0.050 0.125 0 0.039 0.029-0.005 0.048-0.073 0.007-0.031 0.019-0.058 0.035-0.081l-0.001 0.001c0.016-0.011 0.058 0.083 0.111 0.247l0.037 0.115 0.083-0.082c0.098-0.097 0.101-0.093 0.115 0.116l0.009 0.139 0.073-0.046c0.041-0.025 0.079-0.040 0.084-0.035 0.005 0.007 0.025 0.062 0.045 0.123 0.058 0.18 0.137 0.329 0.228 0.435 0.047 0.054 0.111 0.146 0.141 0.204s0.063 0.103 0.070 0.101c0.025-0.008 0.136-0.205 0.189-0.335 0.016-0.048 0.037-0.089 0.064-0.126l-0.001 0.002c0.022 0 0.035 0.178 0.027 0.378-0.002 0.030-0.004 0.064-0.004 0.099s0.001 0.069 0.004 0.104l-0-0.005c0.032-0.018 0.059-0.037 0.085-0.057l-0.001 0.001c0.026-0.021 0.055-0.040 0.086-0.055l0.003-0.001c0.034 0-0.041 0.5-0.097 0.645-0.021 0.053 0.023 0.027 0.127-0.077 0.058-0.057 0.105-0.095 0.105-0.084 0 0.041-0.094 0.391-0.128 0.477-0.038 0.089-0.072 0.16-0.11 0.229l0.006-0.013c-0.059 0.104-0.113 0.224-0.154 0.351l-0.004 0.014-0.011 0.045 0.078-0.053c0.085-0.059 0.127-0.077 0.595-0.261 0.414-0.163 0.647-0.275 0.741-0.359 0.1-0.089 0.155-0.198 0.155-0.307v-0.083l-0.046 0.063c-0.088 0.121-0.297 0.293-0.491 0.407l-0.064 0.037 0.050-0.055c0.212-0.233 0.357-0.557 0.358-0.801 0-0.088-0.023-0.216-0.051-0.285-0.021-0.050-0.021-0.049-0.14 0.242-0.137 0.336-0.267 0.605-0.354 0.735-0.129 0.191-0.322 0.363-0.439 0.392-0.040 0.010-0.043 0.008-0.028-0.020 0.027-0.051 0.065-0.214 0.081-0.357 0.009-0.075 0.020-0.446 0.025-0.825 0.009-0.675 0.020-0.854 0.062-1.034 0.021-0.089 0.021-0.091-0.048-0.272-0.044-0.117-0.081-0.205-0.122-0.292l0.010 0.024c-0.045-0.089-0.143-0.227-0.163-0.227-0.007 0-0.047 0.080-0.091 0.178l-0.080 0.178-0.008-0.15c-0.007-0.12-0.015-0.16-0.043-0.199-0.082-0.101-0.178-0.186-0.287-0.254l-0.005-0.003c-0.136-0.084-0.294-0.164-0.458-0.232l-0.022-0.008c-0.038-0.011-0.038-0.011-0.027 0.075 0.006 0.047 0.015 0.103 0.020 0.124 0.009 0.037 0.007 0.038-0.051 0.027-0.109-0.022-0.202-0.078-0.271-0.155l-0-0.001c-0.041-0.044-0.078-0.077-0.083-0.072 0.008 0.056 0.022 0.106 0.042 0.153l-0.002-0.004c0.025 0.078 0.044 0.145 0.040 0.149-0.011 0.011-0.121-0.032-0.169-0.067-0.048-0.048-0.089-0.102-0.123-0.161l-0.002-0.004c-0.043-0.073-0.092-0.135-0.147-0.191l0 0c-0.104-0.089-0.152-0.1-0.647-0.151-0.11-0.008-0.212-0.034-0.305-0.076l0.006 0.002c-0.024-0.010-0.023 0 0.011 0.076 0.021 0.048 0.044 0.113 0.049 0.144l0.011 0.056-0.069-0.013c-0.107-0.020-0.237-0.072-0.356-0.144-0.105-0.064-0.113-0.065-0.301-0.077-0.050-0.004-0.109-0.006-0.168-0.006-0.172 0-0.339 0.018-0.501 0.052l0.016-0.003-0.12 0.029 0.12 0.013c0.16 0.017 0.3 0.061 0.385 0.123 0.069 0.049 0.126 0.107 0.127 0.127 0 0.005-0.127 0.013-0.283 0.018-0.451 0.012-0.735 0.083-1.134 0.283-0.2 0.1-0.749 0.455-0.885 0.571-0.080 0.069-0.226 0.261-0.227 0.298 0 0.020 0.031 0.036 0.117 0.060 0.647 0.186 1.051 0.656 1.131 1.313 0.058 0.473 0.049 0.765-0.030 1.080-0.122 0.483-0.437 0.949-0.791 1.169-0.13 0.081-0.4 0.185-0.481 0.185h-0.045l0.083-0.091c0.193-0.211 0.333-0.48 0.428-0.822 0.053-0.19 0.058-0.391 0.013-0.541-0.032-0.109-0.042-0.11-0.073-0.011-0.047 0.137-0.105 0.255-0.174 0.364l0.004-0.007c-0.033 0.051-0.258 0.288-0.511 0.54-0.575 0.571-0.815 0.867-1.040 1.279-0.17 0.315-0.296 0.682-0.357 1.070l-0.003 0.020c-0.033 0.264-0.025 0.712 0.014 0.712 0.007 0 0.063-0.025 0.125-0.056zM11.131 5.893c0.414-0.139 0.735-0.289 1.007-0.469 0.196-0.129 0.454-0.383 0.6-0.589 0.143-0.203 0.35-0.642 0.318-0.675-0.018-0.017-0.3 0.089-0.395 0.149-0.102 0.065-0.163 0.115-0.465 0.374-0.297 0.255-0.357 0.299-0.509 0.371-0.159 0.077-0.253 0.084-0.355 0.027-0.025-0.012-0.047-0.027-0.065-0.045l-0-0c0-0.005 0.029-0.027 0.064-0.048 0.069-0.043 0.203-0.172 0.19-0.185-0.080 0.033-0.148 0.068-0.212 0.109l0.005-0.003c-0.541 0.309-0.825 0.567-0.872 0.795-0.013 0.065 0.003 0.067 0.175 0.011 0.419-0.137 0.915-0.397 1.539-0.809 0.181-0.119 0.271-0.168 0.352-0.191 0.034-0.012 0.074-0.021 0.115-0.024l0.001-0c0.020 0.020-0.18 0.25-0.342 0.395-0.405 0.361-0.773 0.605-1.199 0.793-0.107 0.047-0.186 0.085-0.177 0.085s0.11-0.031 0.224-0.070zM11.724 3.368c0.171-0.257 0.224-0.449 0.247-0.887 0.021-0.413 0.065-0.659 0.177-0.98 0.027-0.076 0.045-0.14 0.041-0.144-0.017-0.017-0.177 0.194-0.233 0.307-0.16 0.325-0.285 0.896-0.345 1.573-0.013 0.148-0.024 0.275-0.024 0.283 0 0.028 0.067-0.047 0.137-0.153z"></path>
</svg>
