<!-- Generated by IcoMoon.io -->
<svg version="1.1" xmlns="http://www.w3.org/2000/svg" width="16" height="16" viewBox="0 0 16 16">
<title>apache</title>
<path fill="#d22128" d="M10.551 0c-0.1 0-0.193 0.028-0.272 0.077l0.002-0.001c-0.251 0.148-0.668 0.567-1.165 1.175l-0.104 0.128c-0.132 0.164-0.269 0.341-0.409 0.529-0.423 0.558-0.867 1.204-1.28 1.871l-0.064 0.11-0.044 0.072c-0.338 0.538-0.717 1.21-1.068 1.899l-0.072 0.155c-0.231 0.448-0.478 1.010-0.695 1.587l-0.039 0.118c-0.061 0.167-0.116 0.329-0.167 0.484-0.041 0.133-0.081 0.265-0.119 0.397-0.089 0.311-0.165 0.623-0.228 0.932l0.001 0.001-0.009 0.041c-0.067 0.317-0.123 0.703-0.153 1.096l-0.002 0.032-0.003 0.039c-0.187-0.299-0.686-0.591-0.685-0.588 0.358 0.519 0.629 1.033 0.669 1.539-0.191 0.039-0.454-0.017-0.757-0.129 0.316 0.291 0.553 0.371 0.646 0.392-0.291 0.018-0.593 0.218-0.897 0.447 0.445-0.182 0.805-0.253 1.063-0.195-0.255 0.634-0.674 1.896-1.064 3.169l-0.164 0.623c0.116-0.034 0.206-0.121 0.242-0.233l0.001-0.003c0.073-0.246 0.558-1.857 1.318-3.976l0.065-0.182 0.019-0.051c0.080-0.222 0.163-0.449 0.249-0.68l0.059-0.158 0.001-0.003-0.403-0.795 0.403 0.795c0.079-0.211 0.16-0.425 0.243-0.642l0.035-0.091 0.035-0.091 0.027-0.069-0.027 0.070-0.035 0.091-0.035 0.091c-0.083 0.217-0.164 0.431-0.243 0.642l0.071 0.139 0.063-0.007 0.007-0.019c0.102-0.278 0.203-0.549 0.303-0.813l0.003-0.009c0.055-0.2-0.048 0.072-0.15 0.345l-0.156 0.477-0.007 0.019-0.045 0.122c-0.079 0.217-0.158 0.437-0.237 0.662l-0.003 0.010-0.034 0.095c-0.053 0.152-0.1 0.289-0.206 0.599 0.175 0.080 0.316 0.291 0.449 0.529-0.014-0.262-0.13-0.494-0.31-0.659l-0.001-0.001c0.864 0.039 1.609-0.179 1.994-0.811 0.035-0.057 0.066-0.115 0.094-0.179-0.175 0.222-0.392 0.316-0.8 0.293 0.601-0.269 0.903-0.527 1.169-0.955 0.056-0.088 0.118-0.198 0.176-0.31l0.012-0.025c-0.526 0.54-1.135 0.693-1.777 0.577h-0.001l-0.027-0.005c0.575-0.071 1.34-0.501 1.835-1.032 0.228-0.245 0.435-0.533 0.626-0.871 0.143-0.251 0.276-0.53 0.403-0.839 0.111-0.269 0.218-0.561 0.321-0.878-0.156 0.082-0.338 0.143-0.53 0.173l-0.010 0.001c-0.011 0.003-0.042 0.008-0.074 0.012l-0.018 0.002 0.001-0.001 0.002-0.001c0.030-0.005 0.059-0.009 0.089-0.014s0.060-0.011 0.089-0.017l-0.089 0.016-0.088 0.015c0.535-0.207 0.872-0.605 1.117-1.091-0.184 0.127-0.4 0.225-0.632 0.28l-0.013 0.003c-0.024 0.006-0.063 0.013-0.102 0.019l-0.012 0.002-0.029 0.004 0.001-0.001 0.006-0.001 0.021-0.003c0.047-0.007 0.082-0.014 0.117-0.022l-0.013 0.002 0.009-0.002-0.011 0.002-0.129 0.022c0.185-0.078 0.342-0.165 0.478-0.267 0.101-0.079 0.191-0.165 0.272-0.258l0.002-0.002c0.053-0.063 0.103-0.132 0.15-0.207l0.043-0.069 0.051-0.101c0.076-0.147 0.158-0.334 0.232-0.526l0.014-0.041 0.021-0.059c0.019-0.057 0.035-0.107 0.047-0.151 0.018-0.066 0.029-0.119 0.035-0.157-0.018 0.015-0.039 0.029-0.060 0.041l-0.002 0.001c-0.162 0.097-0.44 0.185-0.664 0.226l-0.066 0.007-0.001 0.001-1.511 0.166-0.008 0.016-0.051 0.105-0.157 0.325c0.053-0.111 0.105-0.219 0.157-0.325l0.051-0.105c0.003-0.006 0.006-0.011 0.008-0.017l-0.056 0.006-0.045-0.088c0.010-0.037-0.075 0.13-0.157 0.297l-0.095 0.211-0.136 0.283c-0.128 0.236-0.372 0.764-0.607 1.296l-0.121 0.308c-0.079 0.131-0.321 0.704-0.556 1.28l-0.164 0.456 0.057-0.144c0.378-0.971 0.601-1.496 0.831-2.017l-0.168 0.426c0.358-0.845 0.602-1.373 0.855-1.895l-0.127 0.29 0.136-0.283c0.079-0.163 0.158-0.323 0.239-0.483l0.013-0.025c0.127-0.252 0.256-0.5 0.386-0.744 0.139-0.26 0.28-0.514 0.422-0.761 0.2-0.352 0.348-0.595 0.501-0.836l-0.053 0.090 0.027-0.043c0.149-0.236 0.3-0.463 0.451-0.681 0.327-0.472 0.66-0.885 1.021-1.273l-0.006 0.007-0.039 0.041c-0.107 0.117-0.429 0.494-0.917 1.242 0.469-0.023 1.19-0.119 1.778-0.22 0.175-0.98-0.171-1.428-0.171-1.428s-0.296-0.479-0.691-0.484zM9.452 5.005c0.44-0.203 0.637-0.386 0.828-0.651 0.051-0.073 0.102-0.149 0.153-0.229 0.155-0.242 0.307-0.509 0.443-0.775 0.131-0.256 0.247-0.51 0.336-0.739 0.043-0.104 0.089-0.237 0.127-0.373l0.006-0.027c0.027-0.105 0.049-0.205 0.066-0.299-0.589 0.1-1.309 0.197-1.779 0.219-0.112 0.166-0.266 0.41-0.414 0.657l-0.050 0.091c-0.136 0.23-0.281 0.482-0.433 0.758-0.19 0.326-0.455 0.828-0.708 1.337l-0.088 0.195zM11.871 1.465v0.044h0.104v0.293h0.048v-0.293h0.105v-0.044zM12.179 1.465v0.337h0.044v-0.267l0.115 0.232h0.031l0.115-0.232v0.267h0.044v-0.337h-0.058l-0.116 0.235-0.117-0.235zM9.507 4.999l-0.068 0.011 0.001-0.001zM9.447 5.007l-0.003 0.001zM7.621 5.835l-0.071 0.151-0.089 0.191c-0.079 0.136-0.285 0.594-0.485 1.055l-0.129 0.335c-0.075 0.129-0.3 0.667-0.517 1.209l-0.149 0.422c-0.099 0.252-0.199 0.51-0.299 0.775l-0.003 0.009c0.603-1.636 1.136-2.892 1.717-4.121l-0.134 0.315 0.089-0.191z"></path>
</svg>
