<!-- Generated by IcoMoon.io -->
<svg version="1.1" xmlns="http://www.w3.org/2000/svg" width="16" height="16" viewBox="0 0 16 16">
<title>apacheopenoffice</title>
<path fill="#0e85cd" d="M8 0c-4.418 0-8 3.582-8 8v0c0.001 0.581 0.062 1.147 0.176 1.694l-0.009-0.054c0.66-0.188 1.419-0.299 2.202-0.307l0.004-0c0.007-0 0.014-0 0.022-0 1.236 0 2.409 0.27 3.463 0.755l-0.052-0.021 0.507-0.333c1.245-0.766 2.753-1.22 4.368-1.22 1.156 0 2.258 0.233 3.261 0.654l-0.056-0.021c0.043 0.020 0.073 0.063 0.073 0.113v0c0 0.001 0 0.002 0 0.003 0 0.034-0.016 0.064-0.040 0.083l-0 0c-0.013 0.005-0.028 0.008-0.043 0.008s-0.030-0.003-0.044-0.008l0.001 0h-0.167c-0.089-0.005-0.192-0.008-0.297-0.008s-0.208 0.003-0.311 0.008l0.014-0.001c-0.088-0.003-0.19-0.005-0.294-0.005-2.228 0-4.259 0.848-5.787 2.238l0.007-0.006c-0.279 0.271-0.535 0.563-0.766 0.874l-0.014 0.019-0.073 0.1c-0.012 0.005-0.026 0.008-0.040 0.008s-0.028-0.003-0.041-0.008l0.001 0c-0.012 0.005-0.026 0.007-0.040 0.007s-0.028-0.003-0.041-0.008l0.001 0c-1.387-1.186-3.202-1.908-5.185-1.908-0.123 0-0.244 0.003-0.366 0.008l0.017-0.001c1.131 3.134 4.080 5.333 7.542 5.333 4.418 0 8-3.582 8-8 0-4.417-3.579-7.998-7.996-8h-0zM14.26 4.787h-0.373c-0.208-0.032-0.447-0.051-0.691-0.051-1.36 0-2.585 0.575-3.446 1.495l-0.002 0.003c-0.040 0.040-0.080 0.047-0.12 0-0.808-0.855-1.931-1.404-3.183-1.46l-0.010-0c-0.134-0.013-0.289-0.020-0.446-0.020-0.314 0-0.621 0.029-0.918 0.085l0.031-0.005c-0.048 0-0.087-0.039-0.087-0.087v0c-0.004-0.010-0.006-0.021-0.006-0.033s0.002-0.023 0.006-0.034l-0 0.001c0.65-0.346 1.421-0.549 2.24-0.549 0.878 0 1.701 0.233 2.411 0.641l-0.024-0.012c0.698-0.408 1.537-0.648 2.432-0.648 0.764 0 1.486 0.175 2.13 0.488l-0.029-0.013 0.093 0.053c0.028 0.011 0.047 0.037 0.047 0.068 0 0.002-0 0.003-0 0.005l0-0c0.003 0.009 0.004 0.019 0.004 0.030s-0.002 0.021-0.005 0.031l0-0.001c-0.012 0.009-0.027 0.014-0.043 0.014-0.004 0-0.007-0-0.011-0.001l0 0z"></path>
</svg>
