<!-- Generated by IcoMoon.io -->
<svg version="1.1" xmlns="http://www.w3.org/2000/svg" width="16" height="16" viewBox="0 0 16 16">
<title>apacheairflow</title>
<path fill="#007a88" d="M8.022 7.142c-0.461 0-0.842 0.376-0.842 0.837s0.381 0.841 0.842 0.841c0.463 0 0.839-0.376 0.839-0.839s-0.376-0.839-0.839-0.839v0zM8.022 7.673c0.172 0 0.305 0.133 0.305 0.305s-0.133 0.305-0.305 0.305c-0.173 0-0.305-0.133-0.305-0.305s0.133-0.305 0.305-0.305zM0.433 0.001c-0.049 0-0.071 0.008-0.233 0.027-0.165 0.019-0.218 0.215-0.18 0.421 0.037 0.207 0.048 0.137 0.131 0.256s2.819 2.763 4.235 4.144l-2.51 2.574c-0.833 0.855-1.273 2.167-1.531 3.622s-0.325 3.063-0.345 4.522c0.002 0.213 0.161 0.387 0.367 0.413l0.002 0c0.012 0.001 0.025 0.002 0.039 0.002s0.028-0.001 0.041-0.002l-0.002 0c0.101-0.009 0.19-0.054 0.256-0.123l0-0h0.005l4.139-4.247c2.681 2.481 2.747 3.387 6.196 4.045 1.455 0.257 3.063 0.325 4.523 0.345 0.211-0 0.386-0.158 0.413-0.362l0-0.002 0.005-0.005c0-0.004 0-0.009 0-0.015 0-0.026-0.002-0.052-0.006-0.077l0 0.003c-0.011-0.097-0.054-0.182-0.118-0.247l0 0v-0.005l-4.252-4.139 2.421-2.485c0.031-0.029 0.059-0.059 0.089-0.089l0.005-0.005c0.833-0.854 1.279-2.163 1.536-3.617s0.319-3.063 0.339-4.522c-0.001-0.211-0.158-0.386-0.362-0.413l-0.002-0-0.005-0.007c-0.005-0-0.011-0-0.018-0-0.025 0-0.050 0.002-0.074 0.006l0.003-0c-0.097 0.011-0.182 0.054-0.246 0.119l-0 0h-0.005l-4.139 4.247-2.574-2.51c-0.854-0.833-2.167-1.278-3.622-1.535-1.503-0.166-3.011-0.317-4.523-0.339zM0.753 0.557c1.359 0.025 2.809 0.080 4.109 0.31 1.403 0.248 2.618 0.687 3.341 1.393h0.005l0.069 0.073c0.015 0.015 0.033 0.035 0.049 0.055 0.001 0.002 0.003 0.003 0.005 0.005l0.015 0.015c0 0.001-0.001 0.005 0 0.005 0.001 0.002 0.003 0.003 0.005 0.005 0.085 0.117 0.236 0.347 0.28 0.443 0.033 0.067 0.062 0.139 0.089 0.217 0.119 0.346 0.179 0.777 0.137 1.323v0.005c-0.009 0.121-0.025 0.247-0.044 0.379-0.009 0.063-0.022 0.133-0.035 0.207-0.035 0.191-0.068 0.335-0.104 0.478l0.011-0.050c-0.019 0.077-0.037 0.155-0.059 0.231v0.005c-0.087 0.312-0.2 0.651-0.34 1.013-0.035 0.092-0.069 0.181-0.107 0.276-0.031 0.074-0.066 0.15-0.099 0.227l-0.172 0.034c-0.583-1.103-1.221-1.867-1.792-2.303-0.288-0.22-0.558-0.36-0.817-0.418h-0.005c-0.258-0.056-0.533-0.018-0.713 0.167l0.025 0.050 0.213-0.159zM15.444 0.749c-0.025 1.36-0.080 2.812-0.31 4.113-0.248 1.403-0.687 2.619-1.393 3.342l-0.073 0.069c-0.020 0.017-0.041 0.039-0.064 0.059l-0.010 0.011h-0.005c-0.116 0.084-0.351 0.24-0.448 0.285-0.067 0.031-0.14 0.067-0.217 0.093h-0.005c-0.344 0.118-0.777 0.173-1.319 0.133-0.122-0.011-0.25-0.021-0.384-0.040l-0.201-0.035h-0.005c-0.191-0.035-0.336-0.068-0.478-0.104l0.050 0.011h-0.005c-0.078-0.020-0.156-0.043-0.231-0.064-0.42-0.116-0.757-0.23-1.087-0.36l0.073 0.025c-0.091-0.035-0.186-0.074-0.281-0.113-0.162-0.063-0.232-0.093-0.301-0.123l0.090 0.035c0.006-0.042-0.053 0.064 0 0 0-0.006 0-0.012 0-0.019 0-0.062-0.013-0.122-0.036-0.176l0.001 0.003c1.092-0.58 1.853-1.209 2.289-1.777 0.221-0.289 0.365-0.563 0.423-0.822 0.058-0.257 0.018-0.537-0.167-0.718l0.005 0.005 0.073 0.234zM9.267 3.298l1.708 1.664c0.025 0.025 0.052 0.073 0.020 0.221-0.015 0.063-0.097 0.176-0.138 0.261-0.055 0.111-0.077 0.2-0.183 0.335-0.364 0.467-1.077 1.044-2.091 1.585 0.031-0.071 0.060-0.142 0.089-0.211 0.040-0.098 0.077-0.196 0.113-0.291 0.145-0.379 0.267-0.735 0.359-1.068 0.053-0.179 0.11-0.417 0.155-0.66l0.008-0.049v-0.005c0.013-0.071 0.029-0.141 0.039-0.216 0.017-0.11 0.033-0.254 0.044-0.399l0.001-0.020c0.033-0.451-0.047-0.797-0.123-1.147zM5.183 5.007c1.061 0.48 1.756 1.616 2.185 2.411-0.072-0.031-0.145-0.059-0.216-0.089-0.098-0.040-0.196-0.077-0.291-0.113-0.268-0.111-0.621-0.234-0.982-0.339l-0.081-0.020h-0.004c-0.083-0.023-0.163-0.045-0.241-0.064-0.16-0.039-0.317-0.071-0.467-0.099-0.072-0.012-0.147-0.023-0.221-0.034v-0.007c-0.106-0.016-0.25-0.032-0.395-0.043l-0.024-0.002c-0.453-0.034-0.801 0.046-1.151 0.123l1.669-1.708c0.024-0.026 0.073-0.053 0.221-0.017zM4.405 7.142c0.12 0.008 0.245 0.025 0.379 0.045h0.005c0.064 0.010 0.129 0.023 0.202 0.035 0.137 0.025 0.279 0.057 0.428 0.093l0.118 0.029c0.038 0.010 0.075 0.018 0.113 0.029h0.005c0.313 0.087 0.649 0.199 1.014 0.34 0.091 0.035 0.187 0.069 0.28 0.108 0.080 0.033 0.16 0.069 0.242 0.103l0.009 0.177c-1.093 0.58-1.858 1.213-2.293 1.781-0.221 0.289-0.365 0.558-0.423 0.817v0.005c-0.058 0.258-0.018 0.533 0.167 0.713h-0.004l-0.125-0.223-3.96 4.047c0.027-1.358 0.076-2.805 0.305-4.104 0.248-1.403 0.687-2.619 1.393-3.341v-0.005c0.016-0.018 0.035-0.032 0.053-0.049l0.020-0.020c0.018-0.018 0.038-0.036 0.058-0.053l0.002-0.001h0.005c0.004-0.003 0.007-0.008 0.010-0.011 0.114-0.083 0.355-0.245 0.453-0.29 0.056-0.027 0.129-0.057 0.204-0.083l0.017-0.005c0.346-0.12 0.777-0.179 1.323-0.137zM7.84 7.275c-0.277 0.088-0.465 0.28-0.556 0.556l0.293-0.327zM8.204 7.295l0.12 0.215 0.097 0.063 0.27 0.209c-0.099-0.232-0.248-0.402-0.487-0.487zM8.012 7.64c0.208 0 0.369 0.161 0.369 0.369 0 0.001 0 0.003 0 0.005 0 0.201-0.163 0.365-0.365 0.365-0.002 0-0.003-0-0.005-0h0c-0.001 0-0.003 0-0.004 0-0.201 0-0.365-0.163-0.365-0.365 0-0.002 0-0.003 0-0.005v0c0-0.207 0.161-0.369 0.369-0.369zM7.313 8.215c0.093 0.242 0.254 0.407 0.497 0.497l-0.161-0.184-0.135-0.156zM8.687 8.241l-0.188 0.077-0.041 0.119-0.189 0.218c0.193-0.095 0.332-0.216 0.419-0.414zM8.637 8.581c0.071 0.030 0.142 0.064 0.212 0.093 0.098 0.040 0.195 0.077 0.29 0.113 0.377 0.145 0.732 0.263 1.063 0.353 0.085 0.026 0.169 0.045 0.246 0.065 0.16 0.039 0.317 0.076 0.467 0.103 0.071 0.013 0.147 0.023 0.221 0.034 0.144 0.020 0.284 0.039 0.419 0.049 0.453 0.035 0.801-0.045 1.151-0.123l-1.668 1.708c-0.025 0.025-0.077 0.049-0.217 0.020h-0.005c-0.144-0.033-0.354-0.136-0.595-0.325-0.467-0.365-1.045-1.079-1.585-2.092zM7.417 8.639l-0.089 0.211c-0.040 0.098-0.077 0.196-0.113 0.291-0.11 0.268-0.231 0.622-0.334 0.982l-0.020 0.080c-0.024 0.085-0.045 0.167-0.064 0.247-0.040 0.16-0.076 0.317-0.103 0.467-0.006 0.026-0.018 0.101-0.029 0.177l-0.005 0.045c-0.017 0.105-0.034 0.249-0.047 0.394l-0.002 0.025c-0.035 0.453 0.045 0.801 0.123 1.151l-1.688-1.649-0.010-0.015-0.010-0.005v-0.005c-0.027-0.027-0.052-0.067-0.020-0.211 0.001-0.003 0-0.001 0-0.005 0.033-0.144 0.137-0.355 0.325-0.595 0.364-0.467 1.075-1.045 2.087-1.583zM8.111 8.811c0.577 1.084 1.207 1.851 1.772 2.284 0.289 0.221 0.557 0.365 0.817 0.423h0.005c0.258 0.057 0.533 0.018 0.713-0.167l-0.023-0.047-0.203 0.18 4.060 3.961c-1.36-0.027-2.813-0.081-4.115-0.311-1.403-0.248-2.619-0.687-3.341-1.393h-0.005l-0.015-0.015-0.020-0.020c-0.005-0.005-0.009-0.013-0.015-0.020l-0.020-0.020c-0.015-0.018-0.035-0.038-0.053-0.059v-0.005c-0.002-0.003-0.008-0.007-0.010-0.010-0.097-0.13-0.193-0.278-0.28-0.432l-0.011-0.021c-0.027-0.057-0.057-0.13-0.084-0.205l-0.005-0.016c-0.12-0.346-0.179-0.777-0.137-1.324 0.009-0.12 0.025-0.245 0.044-0.379v-0.005c0.009-0.063 0.022-0.131 0.035-0.202 0.025-0.137 0.057-0.279 0.093-0.428v-0.005l0.029-0.113 0.030-0.113v-0.005c0.087-0.313 0.199-0.649 0.34-1.013 0.035-0.091 0.074-0.187 0.113-0.28 0.031-0.077 0.065-0.154 0.099-0.232z"></path>
</svg>
