<!-- Generated by IcoMoon.io -->
<svg version="1.1" xmlns="http://www.w3.org/2000/svg" width="16" height="16" viewBox="0 0 16 16">
<title>applemusic</title>
<path d="M15.998 4.083c0-0.492-0.043-0.98-0.16-1.46-0.211-0.873-0.708-1.54-1.453-2.029-0.383-0.249-0.803-0.404-1.251-0.485-0.345-0.062-0.692-0.090-1.043-0.1-0.027-0.002-0.055-0.007-0.083-0.009h-8.016c-0.101 0.007-0.202 0.011-0.303 0.017-0.498 0.029-0.993 0.082-1.462 0.267-0.891 0.353-1.533 0.968-1.91 1.853-0.128 0.299-0.195 0.617-0.242 0.939-0.037 0.261-0.059 0.523-0.067 0.787 0 0.021-0.005 0.041-0.007 0.062v8.149c0.007 0.093 0.011 0.189 0.018 0.283 0.033 0.543 0.103 1.083 0.331 1.582 0.433 0.947 1.159 1.569 2.156 1.868 0.28 0.085 0.571 0.125 0.862 0.152 0.37 0.035 0.74 0.040 1.111 0.040h7.353c0.35 0 0.699-0.023 1.047-0.067 0.549-0.071 1.065-0.233 1.531-0.54 0.56-0.369 0.981-0.858 1.253-1.472 0.124-0.28 0.195-0.58 0.247-0.883 0.075-0.45 0.092-0.905 0.091-1.36-0.001-2.533 0-5.063-0.004-7.595zM11.716 6.743v3.808c0 0.278-0.039 0.551-0.163 0.804-0.193 0.393-0.507 0.641-0.925 0.76-0.233 0.067-0.471 0.105-0.713 0.115-0.633 0.030-1.182-0.4-1.295-1.024-0.095-0.515 0.151-1.083 0.692-1.348 0.215-0.107 0.447-0.167 0.679-0.216 0.252-0.055 0.505-0.102 0.756-0.16 0.183-0.042 0.305-0.153 0.34-0.344 0.009-0.042 0.013-0.087 0.013-0.129 0-1.21 0-2.42-0.001-3.629 0-0.041-0.007-0.083-0.017-0.123-0.027-0.1-0.1-0.162-0.203-0.156-0.107 0.007-0.212 0.023-0.317 0.044-0.507 0.1-1.013 0.202-1.52 0.304l-2.467 0.499c-0.011 0.002-0.021 0.007-0.032 0.009-0.185 0.051-0.251 0.135-0.26 0.327-0.001 0.028 0 0.057 0 0.087-0.001 1.735 0 3.469-0.002 5.203 0 0.28-0.031 0.557-0.143 0.818-0.185 0.427-0.513 0.693-0.956 0.822-0.233 0.067-0.473 0.107-0.717 0.115-0.64 0.024-1.17-0.4-1.28-1.029-0.093-0.541 0.153-1.123 0.769-1.383 0.238-0.1 0.487-0.155 0.739-0.207 0.191-0.040 0.383-0.077 0.573-0.118 0.255-0.055 0.389-0.215 0.4-0.476v-0.1c0-1.973 0-3.948 0.001-5.921 0-0.082 0.009-0.167 0.028-0.247 0.047-0.19 0.182-0.299 0.364-0.345 0.17-0.044 0.343-0.075 0.516-0.11 0.489-0.1 0.977-0.197 1.467-0.296l1.513-0.307c0.447-0.089 0.893-0.18 1.34-0.269 0.147-0.029 0.295-0.059 0.443-0.071 0.207-0.017 0.349 0.113 0.369 0.321 0.005 0.049 0.008 0.099 0.008 0.149 0.001 1.273 0.001 2.548 0.001 3.823z"></path>
</svg>
