<!-- Generated by IcoMoon.io -->
<svg version="1.1" xmlns="http://www.w3.org/2000/svg" width="16" height="16" viewBox="0 0 16 16">
<title>applepodcasts</title>
<path fill="#93c" d="M3.56 0c-0.002 0-0.005-0-0.008-0-1.962 0-3.552 1.59-3.552 3.552 0 0.003 0 0.006 0 0.008v-0 8.88c0 0.002-0 0.005-0 0.008 0 1.962 1.59 3.552 3.552 3.552 0.003 0 0.006 0 0.008-0h8.88c0.002 0 0.005 0 0.008 0 1.962 0 3.552-1.59 3.552-3.552 0-0.003 0-0.006-0-0.008v0-8.88c0-0.002 0-0.005 0-0.008 0-1.962-1.59-3.552-3.552-3.552-0.003 0-0.006 0-0.008 0h0zM7.91 1.712c1.557 0 2.965 0.601 4.037 1.725 0.816 0.848 1.275 1.746 1.509 2.928 0.080 0.393 0.080 1.467 0.005 1.909-0.263 1.45-1.047 2.682-2.146 3.521l-0.014 0.010c-0.405 0.307-1.397 0.841-1.557 0.841-0.059 0-0.064-0.061-0.037-0.307 0.048-0.395 0.096-0.477 0.32-0.571 0.357-0.149 0.965-0.583 1.339-0.957 0.632-0.632 1.1-1.43 1.331-2.322l0.008-0.035c0.139-0.549 0.123-1.771-0.032-2.336-0.485-1.797-1.952-3.195-3.749-3.568-0.523-0.107-1.472-0.107-2 0-1.819 0.373-3.323 1.84-3.781 3.685-0.123 0.501-0.123 1.723 0 2.224 0.304 1.221 1.093 2.341 2.128 3.008 0.203 0.133 0.448 0.272 0.549 0.315 0.224 0.096 0.272 0.176 0.315 0.571 0.027 0.24 0.020 0.309-0.037 0.309-0.037 0-0.309-0.117-0.597-0.256l-0.027-0.020c-1.648-0.811-2.704-2.183-3.088-4.008-0.096-0.471-0.112-1.595-0.020-2.027 0.24-1.16 0.699-2.067 1.461-2.869 1.099-1.158 2.512-1.771 4.085-1.77zM7.999 3.585c0.273 0.003 0.535 0.027 0.737 0.071 1.856 0.413 3.173 2.272 2.917 4.116-0.101 0.743-0.357 1.353-0.811 1.92-0.224 0.287-0.768 0.767-0.864 0.767-0.015 0-0.032-0.181-0.032-0.402v-0.403l0.277-0.331c1.045-1.252 0.971-3.001-0.171-4.149-0.443-0.447-0.955-0.709-1.616-0.831-0.427-0.079-0.517-0.079-0.965-0.005-0.68 0.111-1.207 0.375-1.675 0.837-1.147 1.136-1.221 2.895-0.176 4.148l0.275 0.331v0.405c0 0.224-0.018 0.405-0.040 0.405-0.020 0-0.176-0.107-0.341-0.24l-0.023-0.007c-0.555-0.443-1.045-1.228-1.248-1.998-0.123-0.465-0.123-1.349 0.005-1.813 0.336-1.252 1.259-2.223 2.539-2.679 0.273-0.097 0.755-0.147 1.21-0.141zM7.913 5.579c0.207 0 0.413 0.040 0.563 0.119 0.325 0.169 0.592 0.497 0.693 0.839 0.309 1.052-0.805 1.973-1.813 1.503h-0.010c-0.475-0.221-0.731-0.637-0.736-1.18 0-0.489 0.272-0.914 0.741-1.163 0.149-0.078 0.356-0.117 0.562-0.117zM7.905 8.731c0.659-0.003 1.137 0.233 1.313 0.647 0.132 0.309 0.083 1.288-0.145 2.868-0.155 1.104-0.24 1.383-0.453 1.571-0.293 0.26-0.709 0.332-1.104 0.192h-0.002c-0.477-0.171-0.58-0.403-0.776-1.763-0.227-1.58-0.277-2.559-0.145-2.868 0.175-0.411 0.649-0.644 1.313-0.647z"></path>
</svg>
