<!-- Generated by IcoMoon.io -->
<svg version="1.1" xmlns="http://www.w3.org/2000/svg" width="16" height="16" viewBox="0 0 16 16">
<title>applepay</title>
<path d="M2.925 5.523c-0.188 0.225-0.488 0.401-0.788 0.376-0.037-0.303 0.109-0.625 0.281-0.825 0.188-0.231 0.516-0.394 0.781-0.407 0.031 0.316-0.091 0.625-0.275 0.856zM3.197 5.959c-0.434-0.025-0.807 0.25-1.012 0.25-0.21 0-0.525-0.237-0.869-0.231-0.447 0.007-0.862 0.262-1.090 0.67-0.469 0.815-0.122 2.022 0.331 2.685 0.222 0.329 0.488 0.689 0.838 0.676 0.331-0.013 0.462-0.218 0.862-0.218 0.403 0 0.519 0.218 0.869 0.212 0.362-0.007 0.59-0.329 0.812-0.657 0.253-0.373 0.357-0.736 0.363-0.755-0.007-0.007-0.7-0.275-0.707-1.083-0.006-0.677 0.547-0.999 0.572-1.017-0.312-0.468-0.8-0.519-0.969-0.531zM5.707 5.043v4.926h0.757v-1.684h1.047c0.956 0 1.628-0.664 1.628-1.624s-0.659-1.618-1.603-1.618zM6.463 5.687h0.872c0.656 0 1.031 0.353 1.031 0.976s-0.375 0.98-1.034 0.98h-0.869zM10.519 10.006c0.475 0 0.916-0.243 1.116-0.629h0.015v0.591h0.7v-2.452c0-0.711-0.563-1.169-1.428-1.169-0.803 0-1.397 0.465-1.419 1.103h0.681c0.056-0.303 0.334-0.502 0.715-0.502 0.463 0 0.722 0.218 0.722 0.619v0.271l-0.944 0.057c-0.878 0.053-1.353 0.417-1.353 1.049 0 0.638 0.491 1.061 1.194 1.061zM10.723 9.422c-0.403 0-0.66-0.196-0.66-0.496 0-0.31 0.247-0.49 0.719-0.519l0.84-0.053v0.278c0 0.461-0.387 0.79-0.899 0.79zM13.285 11.309c0.737 0 1.084-0.285 1.387-1.147l1.328-3.767h-0.769l-0.891 2.91h-0.015l-0.891-2.91h-0.791l1.281 3.587-0.069 0.218c-0.115 0.369-0.303 0.511-0.637 0.511-0.059 0-0.175-0.007-0.222-0.013v0.591c0.044 0.013 0.231 0.019 0.289 0.019z"></path>
</svg>
