<!-- Generated by IcoMoon.io -->
<svg version="1.1" xmlns="http://www.w3.org/2000/svg" width="16" height="16" viewBox="0 0 16 16">
<title>apple</title>
<path fill="#999" d="M4.719 15.7c-0.315-0.211-0.595-0.469-0.829-0.767-0.255-0.309-0.492-0.633-0.709-0.969-0.511-0.747-0.91-1.563-1.187-2.424-0.333-1.001-0.495-1.96-0.495-2.898 0-1.047 0.227-1.96 0.668-2.727 0.327-0.6 0.813-1.102 1.4-1.455 0.567-0.353 1.227-0.547 1.893-0.56 0.233 0 0.487 0.033 0.753 0.1 0.193 0.053 0.427 0.14 0.713 0.247 0.367 0.14 0.567 0.227 0.633 0.247 0.213 0.080 0.393 0.113 0.533 0.113 0.107 0 0.26-0.033 0.43-0.087 0.097-0.033 0.28-0.093 0.54-0.207 0.257-0.093 0.461-0.173 0.623-0.233 0.247-0.073 0.485-0.14 0.7-0.173 0.26-0.040 0.518-0.053 0.765-0.033 0.473 0.033 0.907 0.133 1.293 0.28 0.68 0.273 1.229 0.7 1.638 1.307-0.173 0.107-0.333 0.231-0.483 0.367-0.325 0.287-0.6 0.627-0.82 1.003-0.287 0.513-0.433 1.093-0.429 1.68 0.010 0.722 0.193 1.357 0.56 1.907 0.258 0.4 0.603 0.743 1.023 1.024 0.207 0.14 0.388 0.237 0.56 0.3-0.080 0.25-0.168 0.493-0.27 0.733-0.231 0.538-0.507 1.053-0.833 1.54-0.288 0.42-0.515 0.733-0.687 0.94-0.268 0.32-0.527 0.56-0.787 0.731-0.287 0.19-0.623 0.291-0.968 0.291-0.233 0.010-0.467-0.020-0.689-0.085-0.193-0.063-0.384-0.135-0.571-0.215-0.195-0.089-0.397-0.165-0.603-0.227-0.253-0.067-0.513-0.099-0.776-0.098-0.267 0-0.527 0.033-0.773 0.097-0.207 0.059-0.407 0.131-0.605 0.217-0.28 0.117-0.463 0.193-0.57 0.227-0.216 0.064-0.437 0.103-0.66 0.117-0.347 0-0.669-0.1-0.982-0.309zM9.288 3.393c-0.453 0.227-0.884 0.323-1.315 0.291-0.067-0.431 0-0.873 0.18-1.358 0.16-0.413 0.373-0.787 0.667-1.12 0.307-0.347 0.673-0.633 1.087-0.84 0.44-0.227 0.86-0.347 1.26-0.367 0.053 0.453 0 0.9-0.167 1.38-0.152 0.427-0.379 0.82-0.667 1.173-0.29 0.347-0.65 0.633-1.045 0.841z"></path>
</svg>
