<!-- Generated by IcoMoon.io -->
<svg version="1.1" xmlns="http://www.w3.org/2000/svg" width="16" height="16" viewBox="0 0 16 16">
<title>appveyor</title>
<path fill="#00b3e0" d="M8 0c4.4 0 8 3.6 8 8s-3.6 8-8 8-8-3.6-8-8 3.6-8 8-8zM9.96 9.56c0.88-1.12 0.76-2.72-0.36-3.56-1.080-0.84-2.68-0.64-3.6 0.48-0.88 1.12-0.76 2.72 0.36 3.56s2.72 0.64 3.6-0.48zM5.68 14.76c0.48 0.2 1.52 0.4 2.040 0.4l3.48-5.040c1.12-1.68 0.84-3.96-0.72-5.2-1.4-1.12-3.36-1.080-4.76 0l-4.84 3.72c0.12 1.28 0.48 1.92 0.48 1.96l2.76-3c-0.2 1.32 0.28 2.68 1.4 3.52 0.96 0.76 2.12 0.96 3.24 0.72z"></path>
</svg>
