<!-- Generated by IcoMoon.io -->
<svg version="1.1" xmlns="http://www.w3.org/2000/svg" width="16" height="16" viewBox="0 0 16 16">
<title>aral</title>
<path fill="#0063cb" d="M3.595 6.68l-0.32 1.306 0.66 0.001zM6.19 6.735v0.791c0.366-0.001 0.639 0.020 0.819-0.022s0.269-0.145 0.269-0.395c0-0.223-0.080-0.313-0.257-0.349s-0.448-0.019-0.832-0.026zM9.741 6.682l-0.32 1.307h0.66zM7.997 0l-7.997 7.999 8.003 8.001 7.997-7.997zM3.595 5.931c0.244 0 0.404 0.078 0.517 0.197 0.113 0.12 0.178 0.281 0.233 0.447l0.713 2.141c0 0 0.089 0.184 0.096 0.378s-0.069 0.399-0.4 0.444c-0.237-0.036-0.357-0.104-0.438-0.233s-0.123-0.321-0.203-0.607h-1.017c-0.098 0.312-0.13 0.505-0.197 0.627s-0.169 0.175-0.411 0.211c-0.339-0.036-0.424-0.246-0.424-0.447s0.086-0.392 0.086-0.392l0.677-2.101c0.053-0.164 0.117-0.33 0.232-0.455s0.28-0.21 0.535-0.21zM9.723 5.932c0.244 0 0.405 0.078 0.517 0.197 0.113 0.12 0.178 0.281 0.233 0.447l0.715 2.141c0 0 0.090 0.184 0.097 0.378s-0.069 0.399-0.4 0.444c-0.237-0.036-0.357-0.104-0.439-0.233s-0.124-0.321-0.205-0.607h-1.017c-0.098 0.312-0.129 0.505-0.195 0.627s-0.171 0.175-0.411 0.211c-0.339-0.036-0.423-0.245-0.423-0.445s0.085-0.393 0.085-0.393l0.677-2.101c0.050-0.155 0.113-0.323 0.229-0.449s0.283-0.215 0.538-0.215zM11.953 5.933c0.205 0 0.322 0.076 0.387 0.194s0.078 0.279 0.078 0.448v2.138c0.143 0.003 0.82 0 0.82 0 0.193 0 0.353 0.013 0.463 0.071s0.168 0.159 0.163 0.336c-0.007 0.241-0.12 0.345-0.271 0.388s-0.339 0.026-0.496 0.026h-1.177c-0.25 0-0.357-0.11-0.403-0.291s-0.027-0.43-0.027-0.708v-1.96c-0.009-0.169 0.013-0.331 0.084-0.449s0.192-0.193 0.379-0.193zM6.19 6.003h0.732c0.169 0 0.34-0.001 0.511 0.056 0.173 0.057 0.347 0.173 0.524 0.409 0.187 0.252 0.233 0.622 0.148 0.943s-0.304 0.593-0.648 0.646c0.125 0.232 0.536 0.855 0.536 0.855s0.044 0.073 0.052 0.177c0.008 0.103-0.020 0.238-0.167 0.359-0.259 0.098-0.422 0.071-0.52 0.020-0.099-0.052-0.133-0.128-0.133-0.128s-0.375-0.643-0.607-1.089h-0.429v0.892c0 0 0.007 0.103-0.043 0.203s-0.157 0.199-0.385 0.19c-0.218 0-0.325-0.103-0.378-0.206s-0.051-0.204-0.051-0.204v-2.553c0-0.223 0.004-0.366 0.113-0.453s0.324-0.118 0.743-0.118z"></path>
</svg>
