<!-- Generated by IcoMoon.io -->
<svg version="1.1" xmlns="http://www.w3.org/2000/svg" width="16" height="16" viewBox="0 0 16 16">
<title>archiveofourown</title>
<path fill="#900" d="M12.278 6.589c-0.458 0.744-1.215 1.148-1.993 1.237-2.818 0.323-4.031-2.766-2.313-4.485 1.54-1.54 4.721-0.6 4.67 1.933-0.007 0.407-0.111 0.905-0.364 1.316zM7.972 5.236c0.095 2.397 3.176 2.455 3.791 0.703 0.543-1.549-0.747-2.799-2.127-2.598-1.015 0.147-1.702 0.941-1.665 1.895zM15.415 4.002c0.189-0.087 0.465-0.275 0.558-0.164 0.141 0.167-0.306 0.317-0.499 0.443-0.612 0.4-1.154 0.818-1.651 1.366-0.639 0.706-1.296 1.584-1.7 2.545 0.412 0.021 2.014 0.105 2.4 0.987 0.309 0.708-0.258 1.437-0.88 1.751 0.442 0.276 1.207 0.63 1.163 1.265-0.105 1.562-2.464 1.494-3.452 0.463-0.163-0.193-0.239-0.321-0.167-0.385 0.101-0.089 0.217 0.124 0.451 0.317 0.15 0.125 0.251 0.167 0.381 0.236 0.867 0.455 2.226 0.269 2.319-0.528 0.043-0.369-0.443-0.637-0.811-0.803-0.332-0.149-1.009-0.257-0.996-0.635 0.013-0.369 0.349-0.3 0.687-0.433 0.367-0.145 0.669-0.601 0.669-0.744-0.003-0.603-1.375-0.592-2.147-0.613-0.183 0.404-0.314 0.817-0.461 1.439-0.093 0.389-0.101 1.265-0.499 1.353-0.491 0.109-0.676-0.318-0.97-0.661-0.396-0.46-0.957-1.091-1.295-1.482-2.022 0.668-3.595 1.394-5.504 2.475-0.874 0.495-1.375 1.060-1.697 0.903-0.264-0.129-0.226-0.422-0.098-0.591 0.262-0.347 0.618-0.817 0.931-1.259 0.4-0.566 0.703-1.111 0.915-1.63 0.461-1.125 0.82-3.147 0.983-3.906 0.059-0.275 0.206-0.232 0.215-0.099 0.018 0.279-0.158 1.365-0.193 1.589-0.291 1.854-0.515 2.94-1.339 4.233 1.464-0.905 3.203-2.013 5.061-2.637-1.891-2.173-3.891-4.231-6.671-5.527-0.426-0.242-1.117-0.294-1.117-0.457 0-0.181 0.521-0.040 0.695 0.005 1.589 0.397 3.211 1.427 4.401 2.296 1.43 1.045 3.143 2.645 3.786 3.387 0.438-0.151 1.524-0.305 2.464-0.331 0.501-1.053 1.7-2.679 3.192-3.628 0.275-0.175 0.561-0.396 0.877-0.541zM9.686 9.383c0.282 0.285 0.495 0.623 0.74 0.932 0.116-0.393 0.27-0.811 0.429-1.172-0.413 0.055-0.854 0.135-1.169 0.24z"></path>
</svg>
