<!-- Generated by IcoMoon.io -->
<svg version="1.1" xmlns="http://www.w3.org/2000/svg" width="16" height="16" viewBox="0 0 16 16">
<title>archlinux</title>
<path fill="#1793d1" d="M7.593 0.403c-0.676 1.658-1.084 2.742-1.837 4.351 0.462 0.49 1.029 1.059 1.949 1.703-0.99-0.407-1.664-0.816-2.169-1.24-0.963 2.010-2.473 4.875-5.537 10.379 2.408-1.39 4.275-2.247 6.014-2.574-0.075-0.321-0.117-0.669-0.114-1.031l0.002-0.077c0.038-1.543 0.841-2.729 1.791-2.648 0.95 0.080 1.689 1.397 1.652 2.939-0.007 0.29-0.040 0.57-0.097 0.829 1.721 0.336 3.568 1.191 5.943 2.563-0.468-0.862-0.886-1.639-1.286-2.38-0.629-0.487-1.285-1.122-2.622-1.809 0.92 0.239 1.578 0.514 2.091 0.823-4.060-7.556-4.388-8.561-5.78-11.827zM15.265 14.24v-0.416h-0.156v-0.056h0.374v0.056h-0.156v0.416h-0.062zM15.549 14.24v-0.472h0.094l0.111 0.334c0.010 0.031 0.018 0.055 0.023 0.071 0.005-0.017 0.013-0.043 0.026-0.076l0.113-0.329h0.085v0.472h-0.061v-0.395l-0.138 0.395h-0.056l-0.136-0.402v0.402h-0.061z"></path>
</svg>
