<!-- Generated by IcoMoon.io -->
<svg version="1.1" xmlns="http://www.w3.org/2000/svg" width="16" height="16" viewBox="0 0 16 16">
<title>arduino</title>
<path fill="#00979d" d="M15.88 8c-0.041-2.097-1.75-3.781-3.853-3.781-0.024 0-0.047 0-0.071 0.001l0.004-0c-0.193 0-0.4 0.013-0.6 0.033-1.68 0.247-2.8 1.453-3.42 2.38-0.633-0.927-1.76-2.133-3.427-2.38-0.2-0.020-0.4-0.033-0.6-0.033-0.018-0-0.039-0-0.061-0-2.103 0-3.812 1.684-3.853 3.777l-0 0.004c0.041 2.097 1.75 3.78 3.853 3.78 0.021 0 0.043-0 0.064-0.001l-0.003 0c0.2 0 0.4-0.013 0.613-0.040 1.68-0.24 2.8-1.447 3.427-2.373 0.633 0.927 1.753 2.133 3.427 2.38 0.207 0.020 0.4 0.033 0.607 0.033 0.012 0 0.026 0 0.041 0 2.102 0 3.812-1.684 3.853-3.776l0-0.004zM4.32 10.4c-0.133 0.027-0.287 0.027-0.42 0.027-0.016 0-0.035 0.001-0.054 0.001-1.362 0-2.472-1.084-2.512-2.437l-0-0.004c0.044-1.357 1.155-2.441 2.519-2.441 0.019 0 0.038 0 0.057 0.001l-0.003-0c0.133 0 0.28 0.013 0.42 0.027 1.58 0.233 2.547 1.78 2.873 2.413-0.333 0.633-1.3 2.2-2.88 2.413zM8.667 8c0.327-0.62 1.293-2.18 2.873-2.413 0.133-0.027 0.28-0.027 0.413-0.027 0.022-0.001 0.048-0.001 0.074-0.001 1.361 0 2.469 1.085 2.506 2.438l0 0.003c-0.044 1.357-1.155 2.441-2.519 2.441-0.019 0-0.038-0-0.057-0.001l0.003 0c-0.133 0-0.28-0.013-0.413-0.027-1.573-0.233-2.547-1.793-2.88-2.413zM2.807 8.393h2.36v-0.773h-2.353zM12.227 8.393h0.793v-0.773h-0.8v-0.793h-0.753v0.8h-0.8v0.767h0.8v0.787h0.767zM16 4.707c0 0.2-0.147 0.34-0.353 0.34-0.004 0-0.009 0-0.013 0-0.186 0-0.336-0.149-0.34-0.333v-0c0-0.187 0.16-0.347 0.353-0.347 0.207 0 0.353 0.147 0.353 0.34zM15.393 4.707c0 0.147 0.107 0.267 0.267 0.267 0.147 0 0.253-0.12 0.253-0.267s-0.107-0.267-0.253-0.267c-0.16-0.013-0.267 0.107-0.267 0.267zM15.593 4.88h-0.067v-0.347l0.133-0.007c0.060 0 0.093 0.007 0.12 0.020s0.040 0.040 0.040 0.073c0 0.040-0.027 0.067-0.073 0.073 0.033 0.013 0.047 0.040 0.060 0.087l0.020 0.087h-0.080c-0.013-0.013-0.013-0.047-0.027-0.087-0.013-0.033-0.027-0.047-0.073-0.047h-0.033zM15.607 4.68h0.040c0.047 0 0.067-0.007 0.067-0.047 0-0.033-0.020-0.047-0.067-0.047h-0.047v0.093z"></path>
</svg>
