<!-- Generated by IcoMoon.io -->
<svg version="1.1" xmlns="http://www.w3.org/2000/svg" width="16" height="16" viewBox="0 0 16 16">
<title>arxiv</title>
<path fill="#b31b1b" d="M13.8 10.269l-1.263-3.311h0.941l0.927 2.388 0.919-2.388h0.64l-1.28 3.311zM10.865 6.4v-0.747h0.893v0.747zM10.865 10.272v-3.314h0.893v3.311zM6.222 10.27l1.431-2.2-1.366-2.265h1.085l0.909 1.503 0.986-1.503h0.747l-1.364 2.104 1.417 2.358h-1.081l-0.967-1.6-1.038 1.6zM3.991 10.27v-3.312h0.892v0.625c0.229-0.467 0.583-0.701 1.057-0.701 0.059 0.001 0.116 0.007 0.171 0.018l-0.006-0.001v0.796c-0.105-0.041-0.226-0.065-0.352-0.068l-0.001-0c-0.358 0-0.645 0.178-0.869 0.533v2.109zM1.973 9.913q-0.443 0.433-0.958 0.433c-0.010 0-0.022 0.001-0.035 0.001-0.26 0-0.497-0.101-0.673-0.266l0.001 0c-0.168-0.166-0.271-0.397-0.271-0.651 0-0.012 0-0.025 0.001-0.037l-0 0.002c-0-0.011-0.001-0.024-0.001-0.037 0-0.338 0.174-0.636 0.436-0.808l0.004-0.002q0.438-0.298 1.256-0.299h0.237v-0.302q0-0.515-0.587-0.515c-0.391 0.008-0.754 0.117-1.068 0.301l0.010-0.006v-0.615c0.357-0.144 0.771-0.228 1.205-0.23h0.001q1.302 0 1.301 1.033v1.471c0 0.26 0.082 0.387 0.251 0.387 0.041-0 0.081-0.005 0.12-0.014l-0.004 0.001 0.021 0.501c-0.149 0.049-0.32 0.081-0.498 0.087l-0.003 0c-0.368 0-0.601-0.144-0.707-0.433zM1.973 9.433v-0.673h-0.213c-0.577 0-0.865 0.183-0.865 0.543-0 0.002-0 0.003-0 0.005 0 0.236 0.191 0.427 0.427 0.427 0 0 0 0 0 0v0c0.219 0.003 0.431-0.1 0.651-0.302z"></path>
</svg>
