<!-- Generated by IcoMoon.io -->
<svg version="1.1" xmlns="http://www.w3.org/2000/svg" width="16" height="16" viewBox="0 0 16 16">
<title>asciidoctor</title>
<path fill="#e40046" d="M12.047 0h-8.093c-2.182 0.004-3.95 1.772-3.953 3.953v8.094c0.004 2.182 1.772 3.95 3.953 3.953h8.094c2.182-0.004 3.95-1.771 3.953-3.953v-8.094c-0.004-2.182-1.771-3.95-3.953-3.953h-0zM7.14 10.267h-1.267l-1.073 2.587c-0.051 0.123-0.17 0.207-0.308 0.207-0.048 0-0.093-0.010-0.134-0.028l0.002 0.001c-0.123-0.053-0.207-0.173-0.207-0.313 0-0.048 0.010-0.094 0.028-0.136l-0.001 0.002 0.967-2.32h-1.913c-0 0-0 0-0 0-0.184 0-0.333-0.149-0.333-0.333 0-0.002 0-0.005 0-0.007v0c0.007-0.186 0.16-0.333 0.346-0.333 0 0 0 0 0 0h3.907c0.181 0.004 0.327 0.151 0.327 0.333 0 0.005-0 0.009-0 0.014l0-0.001c0 0 0 0 0 0 0 0.18-0.146 0.327-0.327 0.327-0.005 0-0.009-0-0.014-0l0.001 0zM12.42 13.047c-0.037 0.015-0.079 0.023-0.123 0.023-0.143 0-0.266-0.089-0.316-0.214l-0.001-0.002-3.567-8.667-1.593 3.813h1.047c0.181 0.004 0.327 0.151 0.327 0.333 0 0.005-0 0.009-0 0.014l0-0.001c0 0 0 0 0 0 0 0.18-0.146 0.327-0.327 0.327-0.005 0-0.009-0-0.014-0l0.001 0h-3.907c-0 0-0 0-0 0-0.184 0-0.333-0.149-0.333-0.333 0-0.002 0-0.005 0-0.007v0c0.007-0.186 0.16-0.333 0.346-0.333 0 0 0 0 0 0h2.133l2-4.847c0.049-0.121 0.164-0.205 0.3-0.207h0c0.001 0 0.002-0 0.003-0 0.141 0 0.262 0.084 0.316 0.204l0.001 0.002 3.893 9.447c0.017 0.039 0.026 0.084 0.026 0.131 0 0.142-0.087 0.264-0.211 0.315l-0.002 0.001z"></path>
</svg>
