<!-- Generated by IcoMoon.io -->
<svg version="1.1" xmlns="http://www.w3.org/2000/svg" width="16" height="16" viewBox="0 0 16 16">
<title>at-and-t</title>
<path fill="#00a8e0" d="M3.089 14.286c1.337 1.046 3.041 1.677 4.894 1.677 0.001 0 0.001 0 0.002 0h-0c2.017 0 3.857-0.749 5.26-1.979 0.017-0.015 0.009-0.025-0.007-0.015-0.63 0.42-2.425 1.339-5.253 1.339-2.457 0-4.009-0.548-4.886-1.037-0.017-0.009-0.023 0.004-0.010 0.015zM8.527 14.694c1.965 0 4.125-0.536 5.416-1.596 0.353-0.289 0.69-0.673 0.991-1.19 0.173-0.297 0.343-0.651 0.481-0.998 0.007-0.017-0.004-0.025-0.017-0.007-1.201 1.768-4.679 2.87-8.269 2.87-2.538 0-5.269-0.811-6.339-2.361-0.011-0.014-0.021-0.008-0.015 0.008 0.996 2.117 4.018 3.273 7.751 3.273zM6.38 11.182c-4.087 0-6.013-1.903-6.363-3.203-0.004-0.019-0.017-0.015-0.017 0.003 0 0.437 0.044 1.001 0.119 1.376 0.035 0.182 0.184 0.468 0.401 0.697 0.99 1.031 3.457 2.477 7.73 2.477 5.821 0 7.153-1.939 7.424-2.577 0.195-0.456 0.295-1.28 0.295-1.972 0-0.168-0.004-0.301-0.011-0.433 0-0.021-0.012-0.023-0.017-0.002-0.291 1.56-5.265 3.635-9.563 3.635zM0.77 4.557c-0.235 0.465-0.493 1.249-0.571 1.655-0.033 0.173-0.019 0.257 0.042 0.387 0.489 1.040 2.967 2.703 8.747 2.703 3.526 0 6.265-0.867 6.709-2.447 0.081-0.291 0.086-0.599-0.019-1.013-0.117-0.463-0.337-1.002-0.523-1.381-0.007-0.013-0.017-0.011-0.015 0.004 0.069 2.073-5.713 3.409-8.63 3.409-3.16 0-5.796-1.259-5.796-2.849 0-0.153 0.032-0.305 0.071-0.464 0.004-0.015-0.009-0.017-0.015-0.005zM13.258 2.012c0.033 0.053 0.051 0.109 0.051 0.184 0 0.887-2.715 2.456-7.035 2.456-3.175 0-3.769-1.178-3.769-1.927 0-0.268 0.103-0.542 0.329-0.82 0.012-0.017 0.002-0.023-0.013-0.011-0.414 0.352-0.782 0.735-1.11 1.15l-0.013 0.017c-0.159 0.201-0.258 0.379-0.258 0.485 0 1.552 3.892 2.677 7.531 2.677 3.877 0 5.608-1.266 5.608-2.378 0-0.397-0.155-0.63-0.551-1.080-0.257-0.293-0.5-0.531-0.757-0.765-0.013-0.010-0.021-0.002-0.013 0.011zM12.069 1.125c-1.16-0.707-2.562-1.125-4.063-1.125-0.008 0-0.015 0-0.023 0h0.001c-1.508 0-2.94 0.422-4.141 1.159-0.36 0.221-0.563 0.399-0.563 0.628 0 0.673 1.573 1.397 4.365 1.397 2.762 0 4.905-0.793 4.905-1.556 0-0.182-0.159-0.309-0.481-0.502z"></path>
</svg>
