<!-- Generated by IcoMoon.io -->
<svg version="1.1" xmlns="http://www.w3.org/2000/svg" width="16" height="16" viewBox="0 0 16 16">
<title>atlassian</title>
<path fill="#0052cc" d="M12.873 15.971h-2.4c-0.028 0.003-0.060 0.005-0.093 0.005-0.353 0-0.656-0.218-0.78-0.527l-0.002-0.006c-0.888-1.777-1.853-3.525-2.658-5.364-0.596-1.254-0.944-2.725-0.944-4.277 0-1.989 0.571-3.844 1.558-5.411l-0.025 0.042c0.111-0.187 0.347-0.417 0.527-0.417s0.395 0.25 0.493 0.444q3.629 7.26 7.265 14.525c0.361 0.694 0.195 0.979-0.603 0.986zM3.158 15.971h-2.465c-0.694 0-0.847-0.278-0.541-0.889q1.867-3.692 3.699-7.37c0.333-0.694 0.597-0.694 1.061-0.118 1.219 1.416 1.961 3.272 1.961 5.301 0 0.763-0.105 1.502-0.301 2.203l0.014-0.057c-0.229 0.881-0.355 0.937-1.243 0.937z"></path>
</svg>
