<!-- Generated by IcoMoon.io -->
<svg version="1.1" xmlns="http://www.w3.org/2000/svg" width="16" height="16" viewBox="0 0 16 16">
<title>atom</title>
<path fill="#66595c" d="M13.664 6.017c-1.455-0.62-3.411-1.020-5.5-1.13-0.333-0.020-0.658-0.027-0.967-0.027 1.545-1.887 3.201-3.153 4.291-3.193 0.215-0.009 0.397 0.037 0.542 0.131 0.471 0.305 0.603 1.179 0.363 2.393-0.027 0.167 0.080 0.329 0.24 0.36 0.167 0.033 0.327-0.073 0.36-0.24 0.3-1.52 0.080-2.564-0.627-3.025-0.253-0.165-0.56-0.243-0.9-0.231-1.367 0.051-3.293 1.533-5.060 3.813-0.769 0.023-1.493 0.087-2.155 0.191-0.431-1.931-0.26-3.318 0.396-3.651 0.092-0.049 0.19-0.073 0.305-0.083 0.465-0.036 1.107 0.263 1.807 0.847 0.129 0.107 0.324 0.093 0.431-0.040 0.109-0.13 0.089-0.32-0.040-0.43-0.84-0.696-1.615-1.036-2.248-0.989-0.191 0.017-0.371 0.065-0.535 0.147-0.793 0.405-1.113 1.551-0.913 3.225 0.047 0.347 0.107 0.708 0.193 1.080-2.187 0.437-3.581 1.313-3.641 2.416-0.040 0.78 0.577 1.523 1.787 2.148 0.149 0.077 0.335 0.020 0.413-0.133 0.076-0.149 0.020-0.333-0.133-0.411-0.967-0.497-1.487-1.059-1.455-1.572 0.033-0.72 1.181-1.46 3.173-1.853 0.18 0.663 0.413 1.355 0.7 2.060-0.679 1.259-1.171 2.498-1.425 3.6-0.373 1.643-0.173 2.813 0.573 3.299 0.24 0.156 0.52 0.233 0.831 0.233 0.623 0 1.378-0.307 2.231-0.915 0.14-0.1 0.171-0.29 0.073-0.427s-0.289-0.171-0.427-0.071c-1.029 0.735-1.896 0.981-2.375 0.669-0.507-0.33-0.617-1.295-0.307-2.651 0.213-0.924 0.605-1.953 1.139-3.013 0.133 0.292 0.273 0.584 0.42 0.875 0.95 1.864 2.113 3.485 3.273 4.563 0.924 0.86 1.783 1.309 2.49 1.309 0.233 0 0.453-0.050 0.651-0.149 0.763-0.39 1.093-1.473 0.932-3.050-0.149-1.475-0.707-3.273-1.569-5.067-0.073-0.151-0.256-0.215-0.407-0.144-0.153 0.073-0.22 0.257-0.147 0.408 1.793 3.735 1.92 6.793 0.913 7.307-1.060 0.542-3.616-1.57-5.593-5.453-0.227-0.437-0.425-0.867-0.6-1.287 0.227-0.405 0.467-0.813 0.73-1.22 0.263-0.403 0.537-0.792 0.816-1.163h0.263c0.36 0 0.751 0.007 1.156 0.032 4.353 0.229 7.317 1.707 7.256 2.889-0.027 0.51-0.616 1.025-1.617 1.413-0.156 0.064-0.235 0.24-0.173 0.397 0.047 0.12 0.16 0.195 0.284 0.195 0.039 0 0.076-0.007 0.111-0.020 1.27-0.493 1.967-1.171 2.007-1.953 0.047-0.887-0.78-1.74-2.333-2.4zM5.387 6.3c-0.18 0.277-0.347 0.551-0.509 0.829-0.195-0.512-0.355-1.007-0.482-1.477 0.475-0.073 0.99-0.127 1.54-0.16-0.187 0.26-0.369 0.529-0.547 0.807zM8.003 7.083c-0.506 0-0.917 0.41-0.917 0.917s0.41 0.917 0.917 0.917v0c0.506 0 0.917-0.41 0.917-0.917s-0.41-0.917-0.917-0.917v0z"></path>
</svg>
