<!-- Generated by IcoMoon.io -->
<svg version="1.1" xmlns="http://www.w3.org/2000/svg" width="16" height="16" viewBox="0 0 16 16">
<title>audible</title>
<path fill="#f8991c" d="M8.005 11.575l7.995-4.985v1.352l-7.995 5.006-8.005-5.007v-1.351zM8.005 5.323c-1.806 0-3.39 0.909-4.299 2.313 0.074-0.074 0.117-0.117 0.191-0.169 2.249-1.869 5.491-1.447 7.255 0.908l1.172-0.749c-0.929-1.363-2.524-2.303-4.32-2.303zM8.005 7.636c-0.97 0.003-1.829 0.477-2.36 1.206l-0.006 0.008c0.392-0.29 0.885-0.465 1.419-0.465 0.003 0 0.005 0 0.008 0h-0c0.866 0 1.637 0.444 2.155 1.193l1.119-0.697c-0.486-0.771-1.352-1.247-2.334-1.247zM2.598 5.608c3.295-2.598 7.953-1.891 10.435 1.563l0.021 0.021 1.215-0.75c-1.355-2.054-3.652-3.39-6.261-3.39-0.001 0-0.001 0-0.002 0h0c-2.598 0-4.911 1.331-6.263 3.39 0.243-0.275 0.549-0.602 0.855-0.834z"></path>
</svg>
