<!-- Generated by IcoMoon.io -->
<svg version="1.1" xmlns="http://www.w3.org/2000/svg" width="16" height="16" viewBox="0 0 16 16">
<title>audi</title>
<path fill="#bb0a30" d="M13.232 5.232c-0.661 0-1.268 0.232-1.744 0.619-0.476-0.387-1.083-0.619-1.744-0.619s-1.268 0.232-1.744 0.619c-0.476-0.387-1.083-0.619-1.744-0.619s-1.268 0.232-1.744 0.619c-0.476-0.387-1.083-0.619-1.744-0.619-1.529 0-2.768 1.239-2.768 2.768s1.239 2.768 2.768 2.768c0.661 0 1.268-0.232 1.744-0.619 0.476 0.387 1.083 0.619 1.744 0.619s1.268-0.232 1.744-0.619c0.476 0.387 1.083 0.619 1.744 0.619s1.268-0.232 1.744-0.619c0.476 0.387 1.083 0.619 1.744 0.619 1.529 0 2.768-1.239 2.768-2.768s-1.239-2.768-2.768-2.768zM11.488 9.244c-0.251-0.351-0.399-0.78-0.399-1.244s0.148-0.893 0.399-1.244c0.251 0.351 0.399 0.78 0.399 1.244s-0.148 0.893-0.399 1.244zM8 9.244c-0.251-0.351-0.399-0.78-0.399-1.244s0.148-0.893 0.399-1.244c0.251 0.351 0.399 0.78 0.399 1.244s-0.148 0.893-0.399 1.244zM4.512 9.244c-0.251-0.351-0.399-0.78-0.399-1.244s0.148-0.893 0.399-1.244c0.251 0.351 0.399 0.78 0.399 1.244s-0.148 0.893-0.399 1.244zM0.625 8c0-1.183 0.959-2.143 2.143-2.143 0.491 0 0.943 0.165 1.304 0.443-0.365 0.469-0.584 1.059-0.584 1.699s0.219 1.231 0.584 1.699c-0.361 0.277-0.813 0.443-1.304 0.443-1.183 0-2.143-0.959-2.143-2.143zM4.952 9.699c0.365-0.469 0.584-1.059 0.584-1.699s-0.219-1.231-0.584-1.699c0.361-0.277 0.813-0.443 1.304-0.443s0.943 0.165 1.304 0.443c-0.366 0.469-0.584 1.059-0.584 1.699s0.219 1.231 0.584 1.699c-0.361 0.277-0.813 0.443-1.304 0.443s-0.943-0.165-1.304-0.443zM8.44 9.699c0.366-0.469 0.584-1.059 0.584-1.699s-0.219-1.231-0.584-1.7c0.361-0.277 0.813-0.443 1.304-0.443s0.943 0.165 1.304 0.443c-0.366 0.469-0.584 1.059-0.584 1.699s0.219 1.231 0.584 1.699c-0.361 0.277-0.813 0.443-1.304 0.443s-0.943-0.165-1.304-0.443zM13.232 10.143c-0.491 0-0.943-0.165-1.304-0.443 0.365-0.469 0.584-1.059 0.584-1.699s-0.219-1.231-0.584-1.699c0.361-0.277 0.813-0.443 1.304-0.443 1.183 0 2.143 0.959 2.143 2.143s-0.959 2.143-2.143 2.143z"></path>
</svg>
