<!-- Generated by IcoMoon.io -->
<svg version="1.1" xmlns="http://www.w3.org/2000/svg" width="16" height="16" viewBox="0 0 16 16">
<title>aurelia</title>
<path fill="#ed2b88" d="M10.477 3.091l-1.484 0.991-1.53-2.293 1.485-0.991zM11.685 9.978l2.537 3.802-3.022 2.017-2.98-4.465 3.022-2.017zM7.878 12.518l0.559 0.837-2.3 1.535-1.002-1.5 2.301-1.536zM12.942 8.18l0.645-0.43 1.001 1.5-1.485 0.991-0.559-0.837 0.84-0.56zM12.545 9.404l-0.443-0.663 0.84-0.56 0.443 0.663zM2.528 8.395l-0.502 0.335-1.53-2.293 2.3-1.535 1.073 1.607 0.457 0.686zM7.675 3.969l0.458 0.686-3.023 2.017-2.971-4.452 3.021-2.017zM9.833 3.521l-0.84 0.56-1.53-2.292 1.485-0.991 1.53 2.293zM6.080 13.718l-0.443-0.663 1.798-1.2 0.443 0.663zM12.545 9.404l-0.443-0.663 0.84-0.56 0.443 0.663zM2.528 8.395l-0.457-0.685 1.798-1.2 0.457 0.686zM8.993 4.081l-0.457-0.685 0.84-0.56 0.457 0.685zM11.685 9.978l-3.022 2.017-0.443-0.663 3.022-2.017zM7.675 3.969l0.458 0.686-3.023 2.017-0.457-0.685zM1.671 3.421l0.57 0.855-0.855 0.57-0.571-0.855zM4.751 13.67l0.571 0.855-0.855 0.57-0.571-0.855zM2.503 14.531l-2.503-3.781 13.375-8.946 2.625 3.721z"></path>
</svg>
