<!-- Generated by IcoMoon.io -->
<svg version="1.1" xmlns="http://www.w3.org/2000/svg" width="16" height="16" viewBox="0 0 16 16">
<title>automatic</title>
<path fill="#7d8084" d="M8 4.512v0.001-0.825c-0.323 0.022-0.503 0.195-0.66 0.473l-3.427 6.985h1.643l-0.502-0.64 0.436-0.909 0.003 0.005 2.507-5.087zM7.017 8.749h1.964l-0.981-2.031zM5.489 9.611h0.011l-0.007-0.009zM8.982 8.749v0.001zM14.331 3.377l-5.491-3.172c-0.462-0.267-1.218-0.267-1.68 0l-5.491 3.172c-0.462 0.265-0.84 0.92-0.84 1.455v6.338c0 0.535 0.378 1.188 0.84 1.453l5.491 3.171c0.462 0.267 1.217 0.267 1.68 0l5.49-3.179c0.461-0.26 0.84-0.92 0.84-1.449v-6.336c0-0.533-0.378-1.187-0.839-1.453zM10.287 11.411l-0.458-0.923h-3.667l-0.449 0.923h-2.189l3.597-7.355c0.203-0.405 0.518-0.6 0.878-0.6s0.689 0.219 0.877 0.593l3.597 7.362zM8 4.513v1.649l1.679 3.449h-4.179l0.505 0.627h3.981l0.449 0.9h1.649l-1.139-0.66v0.027l-2.947-5.991z"></path>
</svg>
