<!-- Generated by IcoMoon.io -->
<svg version="1.1" xmlns="http://www.w3.org/2000/svg" width="16" height="16" viewBox="0 0 16 16">
<title>aventrix</title>
<path fill="#09d" d="M8 16c-4.419 0-8-3.581-8-8s3.581-8 8-8 8 3.581 8 8-3.581 8-8 8zM11.581 10.575c-0.153 0.107-0.429 0.215-0.721 0.215-0.307 0-0.537-0.123-0.537-0.567v-3.341c0-2.099-0.935-2.881-2.759-2.881-1.011 0-1.917 0.245-2.437 0.551-0.215 0.353-0.261 0.95-0.153 1.333 0.667-0.418 1.476-0.669 2.344-0.675l0.002-0c1.195 0 1.687 0.537 1.687 1.809v0.399c-0.445-0.183-1.027-0.245-1.533-0.245-1.733 0-3.066 0.735-3.066 2.529 0 1.671 1.149 2.299 2.468 2.299 1.012 0 1.717-0.322 2.161-0.905h0.061c0.123 0.567 0.521 0.905 1.211 0.905h0.006c0.371 0 0.718-0.103 1.015-0.281l-0.009 0.005c0.199-0.276 0.291-0.751 0.261-1.15zM7.211 10.789c-0.827 0-1.471-0.353-1.471-1.149 0-0.813 0.659-1.379 1.931-1.379 0.007-0 0.016-0 0.024-0 0.47 0 0.92 0.084 1.336 0.239l-0.027-0.009v1.502c-0.399 0.583-1.135 0.797-1.793 0.797z"></path>
</svg>
