<!-- Generated by IcoMoon.io -->
<svg version="1.1" xmlns="http://www.w3.org/2000/svg" width="16" height="16" viewBox="0 0 16 16">
<title>azurepipelines</title>
<path fill="#2560e0" d="M1.2 12h-1.2v4h4v-1.2h-2.8zM15.333 0h-5.953c-0.001 0-0.003 0-0.004 0-0.461 0-0.867 0.234-1.106 0.589l-0.003 0.005-2.267 3.4h-5.333c-0.368 0-0.667 0.298-0.667 0.667v0 3.667l2.333 2.407 0.8-0.86 1 1-0.8 0.813 0.987 0.987 0.813-0.813 1 1.007-0.8 0.8 2.333 2.333h3.667c0.368 0 0.667-0.298 0.667-0.667v0-5.333l3.407-2.267c0.36-0.243 0.593-0.649 0.593-1.109 0-0.004-0-0.008-0-0.011v0.001-5.947c0-0.368-0.298-0.667-0.667-0.667v0zM12 6c-1.105 0-2-0.895-2-2s0.895-2 2-2v0c1.105 0 2 0.895 2 2s-0.895 2-2 2v0z"></path>
</svg>
