<!-- Generated by IcoMoon.io -->
<svg version="1.1" xmlns="http://www.w3.org/2000/svg" width="16" height="16" viewBox="0 0 16 16">
<title>azureartifacts</title>
<path fill="#cb2e6d" d="M3.467 0c-0.368 0-0.667 0.287-0.667 0.639v7.028h10.4v-7.028c0-0.353-0.299-0.639-0.667-0.639zM5.6 1.533h1.6c0.221 0 0.4 0.171 0.4 0.383-0.005 0.213-0.178 0.383-0.392 0.383-0.003 0-0.006-0-0.009-0h-1.6c-0.002 0-0.005 0-0.008 0-0.213 0-0.387-0.171-0.392-0.383l-0-0c0-0.212 0.179-0.383 0.4-0.383zM0.709 8c-0.392 0-0.709 0.299-0.709 0.667v6.667c0 0.368 0.317 0.667 0.709 0.667h5.157c-0.368 0-0.667-0.298-0.667-0.667v0-5.333h-2c-0.221 0-0.4-0.179-0.4-0.4s0.179-0.4 0.4-0.4h2v-1.199zM15.333 8h-9.801v7.333c0 0.368 0.318 0.667 0.709 0.667h9.091c0.368 0 0.667-0.298 0.667-0.667v0-6.667c0-0.368-0.298-0.667-0.667-0.667v0zM8.8 14.8h-2.4v-0.8h2.4zM10.4 13.6h-4v-0.8h4zM10 10h-1.6c-0.221 0-0.4-0.179-0.4-0.4s0.179-0.4 0.4-0.4h1.6c0.209 0.015 0.373 0.189 0.373 0.4s-0.164 0.385-0.372 0.4l-0.001 0z"></path>
</svg>
