<!-- Generated by IcoMoon.io -->
<svg version="1.1" xmlns="http://www.w3.org/2000/svg" width="16" height="16" viewBox="0 0 16 16">
<title>babel</title>
<path fill="#f9dc3e" d="M10.956 5.381l-0.003-0.034-0.056 0.005 0.003 0.035zM11.331 6.283l0.001 0.019 0.039-0.003c0-0.020 0.005-0.039 0.012-0.056l-0 0.001-0.003-0.034c-0.017 0.001-0.033 0.026-0.049 0.073zM9.869 7.417c-0.003-0.032-0.102-0.157-0.299-0.376-0.003-0.040 0.064-0.1 0.203-0.18l0.396-0.345c0.089-0.113 0.141-0.295 0.157-0.549l-0.005-0.058c-0.016-0.175-0.143-0.317-0.383-0.425-0.142-0.096-0.398-0.149-0.768-0.159-0.307 0.026-0.705 0.135-1.198 0.328-0.13 0.094-0.281 0.191-0.438 0.279l-0.024 0.013 0.003 0.029c0.018-0.003 0.034-0.010 0.047-0.020l-0 0c0.020-0.002 0.031 0.007 0.033 0.027l0.029-0.016 0.013-0.001 0.002 0.013c0.001 0.015-0.105 0.1-0.321 0.25l0.017 0.031-0.014 0.001-0.036-0.013c0.001 0.011-0.014 0.018-0.044 0.020l0.001 0.013 0.035 0.043c-0.018-0-0.035-0.005-0.051-0.012l0.001 0c-0.059 0.009-0.11 0.038-0.146 0.080l-0 0 0.020-0.087c0.073-0.312 0.122-0.588 0.148-0.827l-0.003-0.015c-0.056-0.037-0.103-0.082-0.142-0.133l-0.001-0.001c0.001-0.009 0.001-0.021 0.001-0.032s-0-0.022-0.001-0.033l0 0.001-0.003-0.013-0.014 0.004c-0.157 0.235-0.458 0.635-0.905 1.202-0.34 0.403-0.516 0.627-0.527 0.673-0.139 0.143-0.205 0.23-0.198 0.26-0.037 0.023-0.052 0.047-0.047 0.073-0.010 0.002-0.017-0.001-0.020-0.012-0.058 0.094-0.152 0.161-0.261 0.184l-0.003 0-0.123 0.029c-0.017 0.003-0.025 0.015-0.023 0.035l0.003 0.015 0.046-0.011 0.003 0.013-0.105 0.040-0.185 0.043-0.097 0.007c-0.014 0.013 0.077-0.002 0.041 0.007l-0.121 0.029c-0.073 0.017-0.113 0.011-0.121-0.019l-0.015 0.003c0.003 0.013 0.003 0.023 0.001 0.031l-0.007-0.030-0.097 0.023c-0.007-0.045-0.139-0.209-0.393-0.491-0.005-0.055 0.085-0.134 0.269-0.237l0.519-0.457c0.116-0.149 0.185-0.389 0.207-0.718l-0.007-0.077c-0.020-0.233-0.189-0.42-0.505-0.564-0.187-0.127-0.524-0.195-1.010-0.205-0.403 0.034-0.93 0.178-1.577 0.428-0.173 0.126-0.371 0.253-0.578 0.368l-0.030 0.016 0.003 0.040c0.023-0.004 0.043-0.012 0.061-0.024l-0.001 0c0.027-0.003 0.041 0.009 0.043 0.033l0.040-0.023 0.020-0.001 0.001 0.019c0.001 0.019-0.14 0.129-0.425 0.331l0.023 0.035-0.020 0.001-0.044-0.015c0.001 0.012-0.019 0.020-0.060 0.023l0.002 0.021 0.047 0.053c-0.023-0-0.045-0.005-0.065-0.014l0.001 0c-0.093 0.009-0.183 0.075-0.271 0.2l0.023 0.036c0.077-0.071 0.122-0.107 0.135-0.108l0.005 0.058c-0.023 0.005-0.043 0.013-0.061 0.024l0.001-0 0.049 0.073c0.091-0.098 0.192-0.184 0.303-0.256l0.006-0.004c0.055 0.015 0.085 0.033 0.087 0.051l0.043-0.003c0.305-0.227 0.608-0.39 0.908-0.491l0.003 0.040c-0.056 0.083-0.093 0.126-0.113 0.128 0.002 0.029 0.011 0.053 0.029 0.075 0.005 0.051-0.132 0.395-0.408 1.031-0.627 1.477-1.153 2.57-1.582 3.277 0.001 0.015 0.010 0.033 0.025 0.057 0.105-0.025 0.172-0.051 0.2-0.076l0.023-0.003 0.003 0.040 0.039-0.003 0.040-0.022c0.001 0.011 0.015 0.017 0.042 0.015l0.003 0.040c0.003 0.039-0.019 0.099-0.067 0.18-0.043 0.049-0.089 0.151-0.137 0.307l0.001 0.019 0.039-0.004c0.171-0.191 0.3-0.378 0.389-0.56 0.498-0.147 0.877-0.29 1.14-0.431 0.265-0.023 0.467-0.093 0.604-0.208l-0.003-0.021-0.1 0.030-0.022 0.003-0.003-0.022c0.194-0.029 0.328-0.072 0.403-0.131 0.379-0.291 0.664-0.498 0.857-0.62 0.397-0.292 0.656-0.576 0.773-0.853l0.067-0.015c0.055-0.002 0.087-0.003 0.095-0.006-0.003-0.011 0.003-0.017 0.013-0.019 0.089-0.009 0.046 0.006 0.103-0.007l0.149-0.035c-0.009 0.002-0.013 0.007-0.011 0.016l0.023-0.013c-0.005 0-0.009-0.002-0.012-0.003l0.025-0.007-0.011 0.007c0.005 0.001 0.012 0.001 0.018 0.001 0.013 0 0.025-0.002 0.037-0.005l-0.001 0 0.011 0.044-0.679 1.080-0.151 0.189-0.073 0.247 0.014-0.004 0.073-0.031-0.023 0.096 0.007 0.029 0.021 0.025c-0.009 0.003-0.013 0.009-0.011 0.019l0.003 0.015 0.031-0.007c0.045-0.040 0.064-0.075 0.057-0.107 0.020 0.005 0.043 0.008 0.067 0.008 0.010 0 0.021-0.001 0.031-0.002l-0.001 0 0.003 0.016c-0.029 0.007-0.045 0.031-0.047 0.071l0.003 0.015 0.017-0.004c0.247-0.269 0.851-1.19 1.337-1.815-0.016-0.068 0.237-0.161 0.759-0.283l0.017-0.003c0.019 0.082-0.021 0.28-0.121 0.594-0.064 0.19-0.095 0.294-0.090 0.311-0.083 0.253-0.122 0.389-0.117 0.41l-0.185 0.607c-0.12 0.31-0.211 0.636-0.275 0.98 0.005-0.001 0.010-0.001 0.015-0.001 0.013 0 0.025 0.002 0.037 0.006l-0.001-0 0.026-0.023c0.003 0.011 0.009 0.014 0.020 0.012l-0.011-0.044 0.080-0.002c0.024-0.007 0.045-0.036 0.061-0.091-0.003-0.081 0.013-0.125 0.050-0.135 0.050-0.195 0.081-0.292 0.091-0.295 0.047-0.193 0.081-0.304 0.103-0.331 0.070-0.251 0.121-0.381 0.154-0.389l0.007 0.031-0.051 0.131c-0.089 0.395-0.179 0.707-0.27 0.935l0.026 0.113 0.017-0.003c0.22-0.475 0.538-1.413 0.952-2.817 0.010-0.122 0.077-0.226 0.175-0.286l0.002-0.001-0.024-0.025-0.003-0.013c0.047-0.010 0.081-0.029 0.1-0.055-0.003-0.011-0.044-0.026-0.125-0.047l0.207-0.885c0.022-0.024 0.048-0.045 0.077-0.061l0.002-0.001 0.003 0.045c-0.018 0.003-0.033 0.010-0.046 0.020l0-0 0.039 0.056c0.071-0.077 0.148-0.143 0.232-0.199 0.043 0.012 0.064 0.027 0.067 0.040l0.031-0.002c0.198-0.151 0.427-0.277 0.674-0.365l0.018-0.005 0.003 0.030c-0.041 0.063-0.070 0.095-0.085 0.096 0.002 0.021 0.009 0.040 0.019 0.057l-0-0.001c0.003 0.039-0.098 0.3-0.307 0.784-0.477 1.12-0.876 1.949-1.201 2.487 0.004 0.017 0.011 0.032 0.022 0.044l-0-0c0.080-0.019 0.131-0.039 0.151-0.058l0.014-0.001 0.003 0.029 0.033-0.002 0.030-0.015c0.001 0.008 0.011 0.011 0.032 0.011l0.003 0.032c0.003 0.028-0.015 0.073-0.051 0.135-0.034 0.037-0.070 0.114-0.108 0.231l0.001 0.015 0.031-0.002c0.114-0.123 0.212-0.264 0.29-0.416l0.005-0.011c0.379-0.112 0.667-0.22 0.866-0.327 0.203-0.017 0.355-0.070 0.46-0.157l-0.001-0.015-0.077 0.022-0.017 0.001-0.001-0.015c0.147-0.021 0.25-0.055 0.306-0.098 0.287-0.221 0.504-0.379 0.651-0.471 0.458-0.333 0.671-0.653 0.645-0.961zM9.79 7.437l0.011 0.12c-0.013 0.029-0.029 0.045-0.043 0.047l-0.018-0.205c0.033 0.012 0.050 0.024 0.051 0.038zM0.813 6.473l-0.020 0.001-0.003-0.037 0.082-0.007 0.001 0.019c-0.023 0.004-0.043 0.012-0.061 0.024l0.001-0zM0.413 10.47c-0.033-0.017-0.072-0.027-0.114-0.027-0.005 0-0.009 0-0.014 0l0.001-0-0.004-0.058c-0.003-0.022 0.011-0.037 0.039-0.043 0.027-0.003 0.041 0.017 0.044 0.054 0.069-0.084 0.107-0.127 0.113-0.128l0.045 0.018c-0.015 0.119-0.051 0.179-0.11 0.184zM4.683 6.003c-0.020 0.003-0.060-0.060-0.119-0.185l-0.003-0.037c0.038-0.004 0.077 0.058 0.119 0.185zM4.627 5.561l-0.017 0.039-0.58-0.242c0.387 0.013 0.586 0.080 0.597 0.203zM2.178 7.663l-0.082 0.007-0.003-0.036 0.082-0.007zM2.111 6.401l0.020-0.001 0.005 0.058c-0.019 0.001-0.044 0.030-0.075 0.085l-0.003-0.040c0.037-0.045 0.055-0.077 0.053-0.101zM1.94 6.806l0.007 0.077-0.020 0.001-0.007-0.077zM1.849 6.951l0.040-0.003c-0.004 0.064-0.022 0.099-0.053 0.101l-0.021 0.001c0.025-0.043 0.037-0.076 0.034-0.099zM1.783 7.153l0.022-0.003 0.001 0.019-0.037 0.062-0.039 0.003-0.001-0.019c0.039-0.004 0.057-0.024 0.054-0.063zM1.716 7.334l-0.012 0.097-0.020 0.001-0.009-0.096zM1.051 9.225c-0.027 0.133-0.055 0.2-0.084 0.203l-0.001-0.019c-0.007-0.065 0.021-0.127 0.085-0.184zM0.929 9.489l0.001 0.019c0.003 0.027-0.010 0.042-0.036 0.043l-0.001-0.019c-0.003-0.023 0.010-0.037 0.036-0.043zM0.893 10.038l0.062-0.006 0.003 0.021c-0.023 0.004-0.043 0.012-0.061 0.024l0.001-0-0.039 0.003c-0.003-0.020 0.011-0.035 0.035-0.043zM2.647 9.497c-0.346 0.171-0.55 0.287-0.611 0.347-0.375 0.131-0.56 0.211-0.557 0.243-0.333 0.132-0.553 0.229-0.658 0.289-0.040-0.001-0.077-0.011-0.109-0.029l0.001 0.001c-0.007-0.068 0.025-0.123 0.090-0.167 0.009-0.001 0.019-0.001 0.030-0.001 0.049 0 0.097 0.010 0.139 0.029l-0.002-0.001c0.092-0.043 0.2-0.079 0.312-0.104l0.011-0.002-0.003-0.040-0.123 0.011c0.015-0.021 0.134-0.077 0.357-0.167l0.061-0.007 0.001 0.019c-0.105 0.009-0.163 0.040-0.177 0.096 0.003 0.025 0.017 0.035 0.043 0.033 0.080-0.050 0.119-0.080 0.117-0.088 0.151-0.029 0.567-0.247 1.249-0.653l0.003 0.037c0.001 0.018-0.057 0.068-0.175 0.153zM1.602 9.84c0.101-0.008 0.19-0.052 0.256-0.119l0-0c0.029-0.002 0.044 0.009 0.045 0.033-0.048 0.005-0.142 0.045-0.278 0.123l-0.020 0.001zM3.289 8.545l-0.523 0.413c-0.389 0.255-0.597 0.383-0.627 0.385-0.619 0.34-1.005 0.517-1.154 0.53l-0.023 0.003c0.019-0.070 0.294-0.633 0.827-1.693 0.235-0.020 0.605-0.129 1.109-0.329l0.123-0.011c0.255-0.022 0.446 0.027 0.571 0.147l0.007 0.077c-0.095 0.273-0.199 0.431-0.312 0.478zM2.267 7.969l0.085-0.007 0.001 0.019-0.085 0.007zM3.449 7.769l0.061-0.007c0.057 0.027 0.087 0.051 0.089 0.073l0.001 0.019c-0.054 0.005-0.105-0.023-0.151-0.085zM3.616 6.816c-0.055 0.065-0.204 0.177-0.448 0.333-0.080 0.007-0.38 0.123-0.9 0.351-0.020-0.009-0.042-0.014-0.067-0.014-0.006 0-0.011 0-0.017 0.001l0.001-0-0.003-0.037c-0.007-0.075 0.027-0.169 0.1-0.282 0.041-0.213 0.085-0.336 0.133-0.365l0.433-0.973c-0.005-0.060 0.087-0.107 0.277-0.139l0.062-0.007 0.005 0.056c0.187-0.028 0.302-0.045 0.347-0.048 0.345-0.030 0.523 0.040 0.538 0.207l0.039-0.003-0.008-0.099 0.043-0.003c0.1 0.055 0.155 0.123 0.162 0.203 0.005 0.055-0.025 0.122-0.087 0.203-0.027 0.002-0.041-0.017-0.044-0.055l-0.043 0.003-0.009 0.119c-0.175 0.261-0.301 0.395-0.38 0.402-0.071 0.099-0.115 0.147-0.133 0.148zM3.882 7.498c-0.036-0.024-0.064-0.035-0.085-0.033l-0.005-0.058 0.039-0.003 0.087 0.051c0.003 0.027-0.008 0.041-0.035 0.044zM4.157 7.824c0.038 0.015 0.061 0.032 0.065 0.047l-0.019 0.005 0.001 0.001c-0.004 0-0.008 0.001-0.012 0.003l0-0-0.029 0.022zM4.183 7.987l-0.004-0.015 0.050-0.011 0.003 0.015zM4.303 8.121c0.051-0.008 0.076-0.011 0.171-0.033l0.003 0.016-0.18 0.041c0.002-0.006 0.004-0.015 0.006-0.023l0-0.001zM4.478 8.196c-0.076 0.007-0.059-0.002-0.18 0.025l-0.003-0.015 0.151-0.049 0.072-0.017 0.007 0.029c-0.031 0.007-0.008 0.007-0.046 0.027zM4.638 8.159c-0.017 0.005-0.032-0.004-0.040-0.024l0.047-0.011c0.020-0.005 0.033 0.003 0.037 0.024zM5.072 7.691l-0.003-0.015 0.075-0.018 0.007 0.029zM5.536 10.534c0.003-0.009 0.004-0.020 0.004-0.031 0-0.005-0-0.011-0.001-0.016l0 0.001 0.016-0.004c0.020-0.005 0.032 0.003 0.037 0.021l0.003 0.015zM5.861 7.813l-0.033-0.006c-0.037 0.016-0.082 0.032-0.129 0.044l-0.007 0.001-0.031 0.007c-0.018 0.005-0.032-0.002-0.039-0.021l0.217-0.049 0.071-0.033 0.023 0.027c-0.028 0.004-0.053 0.015-0.074 0.032l0-0zM6.027 7.76l-0.003-0.015c0.016-0.005 0.029-0.015 0.040-0.027l0-0 0.154-0.035 0.003 0.015c-0.081 0.020-0.147 0.040-0.195 0.062zM6.051 7.448c-0.017 0.006-0.031 0.015-0.043 0.027l0-0c-0.003-0.011-0.023-0.011-0.064-0.001-0.007-0.030 0.107-0.071 0.343-0.126l0.033-0.007 0.007 0.028c-0.165 0.049-0.258 0.076-0.276 0.079zM6.467 7c-0.017 0.189-0.083 0.295-0.2 0.323l-0.004-0.015-0.104 0.040-0.047 0.011c-0.009 0.002-0.019 0.004-0.030 0.004-0.012 0-0.024-0.002-0.035-0.005l0.001 0-0.009-0.041c-0.003-0.015 0.147-0.224 0.453-0.625l0.035 0.006c0.013 0.054-0.007 0.155-0.061 0.303zM7.2 6.371l-0.013 0.001-0.003-0.029 0.062-0.007 0.001 0.016c-0.018 0.005-0.033 0.011-0.048 0.019l0.001-0.001zM6.898 9.408c-0.025-0.014-0.056-0.021-0.088-0.021-0.002 0-0.005 0-0.007 0l0-0-0.003-0.045c-0.001-0.015 0.008-0.026 0.028-0.032 0.020-0.002 0.032 0.012 0.035 0.043 0.025-0.037 0.053-0.069 0.085-0.098l0-0 0.032 0.013c-0.012 0.090-0.039 0.137-0.082 0.141zM10.139 6.017c-0.015 0.001-0.045-0.047-0.091-0.143l-0.003-0.029c0.030-0.003 0.061 0.044 0.091 0.139zM10.097 5.678l-0.014 0.031-0.439-0.183c0.293 0.009 0.445 0.060 0.453 0.153zM8.237 7.275l-0.062 0.005-0.003-0.029 0.062-0.005zM8.185 6.315l0.017-0.001 0.003 0.045c-0.015 0.001-0.034 0.022-0.057 0.064l-0.003-0.030c0.027-0.034 0.040-0.060 0.039-0.079zM8.057 6.624l0.005 0.058-0.017 0.001-0.005-0.058zM7.987 6.735l0.031-0.003c-0.003 0.050-0.017 0.076-0.039 0.078l-0.017 0.001c0.014-0.022 0.023-0.048 0.025-0.076l0-0zM7.937 6.886l0.014-0.001 0.001 0.016-0.027 0.047-0.031 0.003-0.001-0.015c0.032-0.002 0.047-0.019 0.044-0.049zM7.887 7.024l-0.011 0.075-0.014 0.001-0.007-0.075zM7.38 8.462c-0.020 0.1-0.041 0.151-0.063 0.153l-0.001-0.013c-0.003-0.050 0.018-0.097 0.065-0.14zM7.287 8.662l0.001 0.013c0.003 0.021-0.007 0.033-0.028 0.034l-0.001-0.015c-0.001-0.015 0.008-0.026 0.028-0.032zM7.261 9.079l0.047-0.003 0.001 0.015c-0.018 0.003-0.033 0.010-0.047 0.018l0.001-0-0.030 0.002c-0.001-0.016 0.008-0.027 0.028-0.032zM8.592 8.668c-0.26 0.129-0.416 0.217-0.465 0.262-0.285 0.1-0.425 0.161-0.423 0.187-0.252 0.1-0.418 0.173-0.497 0.219-0.030-0.001-0.058-0.009-0.083-0.022l0.001 0c-0.005-0.051 0.019-0.093 0.069-0.123 0.008-0.001 0.016-0.001 0.025-0.001 0.037 0 0.071 0.007 0.103 0.021l-0.002-0.001c0.047-0.023 0.129-0.049 0.245-0.079l-0.003-0.029-0.097 0.007c0.012-0.017 0.103-0.059 0.273-0.128l0.047-0.003 0.001 0.013c-0.080 0.007-0.125 0.031-0.135 0.073 0.001 0.019 0.013 0.028 0.033 0.026 0.059-0.039 0.087-0.062 0.087-0.069 0.113-0.020 0.429-0.187 0.947-0.497l0.003 0.029c0.001 0.013-0.043 0.051-0.132 0.116zM7.798 8.929c0.077-0.006 0.145-0.039 0.197-0.089l-0 0c0.020-0.002 0.032 0.007 0.033 0.027-0.035 0.003-0.105 0.033-0.211 0.089l-0.017 0.001zM9.081 7.944l-0.395 0.317c-0.295 0.193-0.455 0.291-0.48 0.293-0.47 0.258-0.761 0.392-0.877 0.401l-0.017 0.001c0.015-0.053 0.225-0.481 0.63-1.285 0.177-0.015 0.457-0.099 0.84-0.251l0.097-0.008c0.193-0.017 0.338 0.021 0.433 0.113l0.005 0.058c-0.073 0.204-0.151 0.324-0.236 0.361zM8.305 7.507l0.062-0.006 0.001 0.015zM9.203 7.354l0.047-0.003c0.044 0.021 0.067 0.040 0.068 0.056l0.001 0.013c-0.041 0.003-0.081-0.018-0.117-0.066zM9.327 6.633c-0.041 0.049-0.154 0.135-0.338 0.253-0.061 0.007-0.289 0.093-0.683 0.265-0.016-0.006-0.034-0.009-0.052-0.009-0.004 0-0.007 0-0.011 0l0-0-0.003-0.029c-0.005-0.057 0.020-0.128 0.075-0.215 0.031-0.163 0.065-0.255 0.1-0.276l0.331-0.74c-0.003-0.044 0.067-0.080 0.209-0.107l0.047-0.003 0.003 0.045c0.14-0.023 0.227-0.035 0.263-0.039 0.261-0.022 0.397 0.030 0.408 0.158l0.031-0.003-0.007-0.071 0.031-0.003c0.076 0.041 0.116 0.091 0.121 0.151 0.003 0.043-0.017 0.095-0.063 0.155-0.020 0.003-0.032-0.012-0.034-0.043l-0.031 0.002-0.009 0.089c-0.131 0.2-0.227 0.303-0.288 0.308-0.053 0.073-0.087 0.109-0.101 0.111zM9.466 7.126l-0.003-0.045 0.031-0.003 0.067 0.040c0.001 0.020-0.009 0.030-0.029 0.033-0.028-0.018-0.049-0.027-0.065-0.025zM3.947 10.006l-0.031 0.007-0.026 0.023c0.005 0.019 0.017 0.026 0.037 0.021s0.029-0.017 0.021-0.051zM3.829 9.772l0.003 0.015c0.020-0.005 0.029-0.017 0.024-0.035l-0.003-0.015c-0.019 0.005-0.027 0.017-0.024 0.035zM4.664 7.786l0.036-0.008-0.007-0.031-0.036 0.009zM15.423 8.689c-0.36 0.081-0.405 0.067-0.481 0.073l0.003 0.029 0.033-0.002 0.017-0.001-0.005-0.004 0.040-0.015c0.356-0.039 0.398-0.025 0.393-0.079zM13.482 8.947l0.003 0.030h0.005zM13.259 8.165l-0.032-0.011c-0.016 0.036-0.029 0.077-0.037 0.12l-0.001 0.003 0.001 0.013c0.025-0.001 0.048-0.044 0.069-0.126zM15.496 8.683l0.003 0.030 0.052 0.009-0.003-0.029zM13.043 8.983l-0.080-0.009-0.015 0.031 0.001 0.015 0.48-0.040-0.002-0.029zM12.825 7.932l-0.001-0.015-0.016 0.001-0.030 0.019 0.017 0.029c0.023-0.003 0.033-0.013 0.031-0.033zM15.724 8.465l0.023-0.002c0.013-0.001 0.019-0.012 0.017-0.031l-0.013-0.028c-0.001 0-0.002-0-0.003-0-0.067 0-0.13 0.017-0.185 0.048l0.002-0.001-0.001-0.015-0.098 0.009c-0.003-0.030-0.011-0.045-0.024-0.044l-0.051 0.005c-0.060 0.005-0.088 0.003-0.117 0.025-0.001-0.011-0.005-0.016-0.011-0.016l-0.057 0.005-0.033 0.019c-0.001-0.011-0.005-0.015-0.011-0.015l-0.020 0.017-0.001-0.015-0.079-0.006-0.019 0.001 0.003 0.030 0.040 0.011 0.038-0.003c0.013 0.009 0.027 0.011 0.044 0.009l0.033-0.017 0.001 0.013c-0.187 0.047-0.185 0.038-0.313 0.059-0.014-0.009-0.025-0.014-0.032-0.013l-0.003 0.003c-0.014-0.001-0.023-0.011-0.024-0.027l0.067-0.008c0.005 0 0.008 0.005 0.045 0.012 0.053-0.026 0.055-0.037 0.084-0.039l-0.003-0.030c-0.183 0.035-0.109 0.012-0.338 0.032l-0.011 0.001-0.003-0.030c0.294-0.035 0.196-0.015 0.297-0.043 0.001 0.011 0.005 0.015 0.011 0.015 0.010-0.011 0.024-0.018 0.040-0.020l0-0 0.020-0.001c0.103-0.009 0.138 0.011 0.342-0.045l0.001 0.013 0.033-0.017 0.031-0.003c-0.003-0.029 0.043-0.034 0.058-0.035l-0.003-0.032c-0.358 0.072-0.452 0.052-0.551 0.080l-0.001-0.013c-0.093 0.017-0.097 0.009-0.121 0.011-0.012 0.004-0.022 0.010-0.029 0.019l-0 0c-0.001-0.011-0.005-0.015-0.012-0.015l-0.006 0.001-0.303 0.050c-0.001-0.008-0.005-0.013-0.012-0.012-0.158 0.033-0.115 0.039-0.327 0.058-0.015 0.003-0.028 0.009-0.039 0.017l0-0c-0.001-0.008-0.006-0.013-0.017-0.012l-0.129 0.011-0.087 0.022c-0.001-0.009-0.005-0.013-0.016-0.012-0.049 0.013-0.091 0.021-0.126 0.023h-0.003c-0.021 0.003 0.011-0.006-0.006-0.013l-0.026 0.016c-0.038 0.003-0.018-0.003-0.148-0.001-0.229 0.029-0.204 0.032-0.229 0.033l-0.086-0.006c0.001 0.008-0.003 0.014-0.013 0.014-0.097-0.013-0.147-0.028-0.147-0.047 0.013-0.092 0.035-0.139 0.067-0.141l0.017-0.001-0.015 0.031 0.017-0.001c0.031-0.017 0.045-0.032 0.044-0.047l-0.003-0.031-0.031 0.002-0.003-0.029c-0.001-0.004-0.001-0.009-0.001-0.014 0-0.016 0.004-0.032 0.011-0.046l-0 0.001 0.070-0.113 0.003 0.030 0.033-0.003-0.003-0.030-0.019-0.027c0.025-0.021 0.044-0.033 0.060-0.035l-0.002-0.015-0.045 0.003-0.003-0.045c0.090-0.187 0.133-0.297 0.13-0.327l0.032 0.013c0.020-0.002 0.030-0.013 0.029-0.035l-0.031 0.002-0.001-0.013c-0-0.003-0-0.007-0-0.010 0-0.019 0.005-0.037 0.013-0.052l-0 0.001c0.049-0.051 0.071-0.102 0.067-0.155 0.009-0.001 0.013 0.003 0.015 0.013 0.042-0.023 0.073-0.086 0.097-0.19 0.073-0.133 0.178-0.399 0.315-0.796 0.26-0.702 0.25-0.777 0.287-0.943l-0.031 0.003c0 0.003 0 0.006 0 0.010 0 0.018-0.005 0.036-0.013 0.051l0-0.001c-0.015-0.007-0.032-0.011-0.050-0.011h-0l-0.001-0.013c-0.005-0.060 0.020-0.133 0.077-0.218l0.014-0.001 0.027 0.102 0.030-0.002c-0.001-0.007 0.007-0.048 0.024-0.123-0.001-0.015-0.013-0.025-0.037-0.026l-0.030 0.019c-0.001-0.018-0.001-0.039-0.001-0.059 0-0.038 0.001-0.075 0.004-0.112l-0 0.005-0.015 0.002c-0.026-0.027-0.039-0.048-0.040-0.065l-0.17 0.017c-0.003-0.020-0.010-0.037-0.019-0.053l0 0.001c-0.001-0.015 0.037-0.031 0.115-0.046l0.035 0.013 0.032-0.019c0.001 0.011 0.007 0.015 0.019 0.015l0.032-0.019c0.001 0.011 0.007 0.015 0.019 0.014l0.015-0.001-0.003-0.035c-0.023 0.003-0.087 0.003-0.187-0.001l-0.031 0.021-0.001-0.019c-0.795 0.065-1.247 0.102-1.355 0.113-0.014 0.001-0.070 0-0.168-0.003 0.001 0.013-0.011 0.020-0.035 0.023l-0.035-0.015-0.116 0.029c-0.027 0.003-0.073 0.001-0.137-0.006-0.018 0.014-0.040 0.024-0.065 0.025l-0 0c-0.014 0.001 0.169-0.009 0.34-0.021-0.023 0.016-0.052 0.025-0.082 0.026h-0c-0.004 0.001-0.010 0.001-0.015 0.001-0.019 0-0.037-0.005-0.053-0.013l0.001 0c-0.069 0.022-0.153 0.043-0.24 0.058l-0.011 0.002-0.035-0.013-0.555 0.085c-0.017-0.008-0.037-0.012-0.057-0.012-0.006 0-0.012 0-0.018 0.001l0.001-0c-0.030 0.002-0.080 0.013-0.149 0.032l-0.268 0.111 0.020 0.033c0.021-0.004 0.039-0.011 0.055-0.022l-0.001 0 0.095 0.008-0.012 0.089c-0.088 0.039-0.139 0.097-0.153 0.171-0.131 0.058-0.197 0.099-0.197 0.124l0.001 0.015 0.020-0.001 0.036-0.019 0.041 0.050 0.006 0.069c0.003 0.021-0.219 0.487-0.663 1.398-0.384 0.877-0.586 1.357-0.605 1.444-0.132 0.037-0.207 0.090-0.23 0.161 0.003 0.023 0.041 0.038 0.117 0.044l0.003 0.034-0.035 0.057 0.007 0.069c0.003 0.035 0.099 0.063 0.287 0.081-0.001-0.011 0.005-0.019 0.018-0.020 0.003 0.043-0.008 0.126-0.035 0.249l0.020-0.001c0.078-0.107 0.115-0.18 0.111-0.22l0.017-0.002c0.019-0.001 0.039 0.020 0.063 0.067-0.023 0.009-0.107 0.198-0.249 0.567l0.020 0.033 0.020-0.001c0.175-0.441 0.283-0.685 0.329-0.731 0.229-0.020 0.625-0.061 1.187-0.121l0.036-0.021c0.001 0.012 0.008 0.018 0.021 0.017l0.037-0.003 0.035-0.021c0.001 0.012 0.008 0.018 0.021 0.017l0.425-0.037c0.113-0.010 0.167-0.044 0.161-0.102-0.001-0.015 0.065-0.033 0.199-0.053 0 0 0 0 0 0 0.021 0 0.041 0.004 0.059 0.011l-0.001-0c-0.001-0.011 0.067-0.021 0.201-0.033 0.003-0.071 0.027-0.109 0.067-0.112l-0.003-0.035c-0.049 0.006-0.093 0.016-0.135 0.031l0.004-0.001c-0.060-0.001-0.119-0.008-0.175-0.021l0.005 0.001c-0.016 0.010-0.034 0.017-0.054 0.021l-0.001 0-0.296 0.010-0.036 0.019c-0.001-0.011-0.008-0.015-0.021-0.014l-0.017 0.001-0.037 0.019c-0.001-0.011-0.032-0.019-0.094-0.027l-0.038 0.023-0.073 0.006-0.001-0.019c0.382-0.041 0.57-0.093 0.565-0.155 0.025-0.002 0.038 0.010 0.040 0.035l0.112-0.029-0.003-0.034-0.914 0.025c0.001 0.012-0.005 0.019-0.018 0.020l-0.111-0.009c-0.027 0.001-0.051 0.010-0.072 0.025l0-0-0.041-0.015c-0.115 0.009-0.2 0.024-0.257 0.041-0.032-0.002-0.068-0.003-0.105-0.003-0.055 0-0.109 0.003-0.162 0.008l0.007-0.001-0.205 0.017-0.095-0.011c-0.005-0.060 0.113-0.358 0.354-0.891 0.070-0.18 0.134-0.293 0.196-0.335 0.021 0 0.041 0.006 0.059 0.014l-0.001-0 0.146-0.050 0.075 0.012c0.125-0.011 0.271-0.047 0.439-0.108 0.009-0.001 0.019-0.002 0.029-0.002 0.023 0 0.046 0.004 0.067 0.011l-0.001-0 0.111-0.027 0.332-0.028c0.141-0.012 0.294-0.043 0.46-0.093l-0.003-0.035c-0.061 0.006-0.093-0.005-0.096-0.030-0.003-0.046-0.049-0.065-0.135-0.058l-0.003-0.034 0.091-0.027 0.24-0.020-0.003-0.034c-0.008 0-0.017 0-0.026 0-0.043 0-0.086-0.001-0.129-0.004l0.006 0-0.003-0.037 0.093-0.008c0.025-0.003 0.035-0.014 0.033-0.038-0.125 0.003-0.187-0.003-0.189-0.019-0.868 0.043-1.303 0.051-1.305 0.023-0.021 0.005-0.039 0.013-0.055 0.024l0-0-0.023-0.036c0.23-0.488 0.365-0.735 0.405-0.739-0.003 0.034-0.014 0.065-0.030 0.092l0.001-0.001 0.001 0.015 0.037-0.003c0.091-0.218 0.169-0.331 0.233-0.335 0.273-0.024-0.038-0.041 0.545-0.133 0.024 0.011 0.040 0.016 0.052 0.015 0.229-0.047 0.548-0.095 0.957-0.145l-0.003-0.035-0.218 0.020-0.003-0.033c0.025-0.002 0.047-0.011 0.066-0.026l-0 0 0.001 0.019c0.019-0.004 0.036-0.012 0.050-0.024l-0 0c0.038-0.004 0.067 0 0.087 0.011 0.051-0.015 0.113-0.028 0.176-0.036l0.006-0.001 0.137-0.013c0.033-0.021 0.049-0.040 0.047-0.058l-0.001-0.015c-0.011 0.001-0.024 0.002-0.036 0.002-0.030 0-0.059-0.003-0.086-0.009l0.003 0c-0.001-0.020 0.009-0.033 0.031-0.039l0.253-0.023 0.117-0.030c0.001 0.013 0.007 0.018 0.016 0.018 0.019-0.005 0.036-0.013 0.050-0.024l-0 0 0.019 0.003c-0.015 0.032-0.033 0.078-0.051 0.139l-0.033 0.003c-0.002-0.023-0.009-0.043-0.019-0.061l0 0.001-0.017 0.001c-0.308 0.858-0.446 1.258-0.731 1.917-0.052 0.169-0.096 0.262-0.133 0.283 0.001 0.019 0.013 0.028 0.033 0.026 0.001 0.009 0.001 0.020 0.001 0.031 0 0.079-0.022 0.153-0.061 0.216l0.001-0.002c-0.131 0.379-0.219 0.587-0.264 0.625l0.029 0.179c0.001 0.019-0.008 0.029-0.029 0.032l-0.031 0.002c-0.005-0.049-0.023-0.073-0.055-0.070l-0.017 0.001c-0.040 0.063-0.071 0.135-0.091 0.22l0.031-0.003c0.041-0.027 0.060-0.060 0.057-0.097l0.062-0.005 0.035 0.013c-0.029 0.045-0.041 0.080-0.039 0.107l0.017 0.029-0.040 0.095 0.001 0.015c0.002-0 0.005-0 0.007-0 0.041 0 0.078 0.013 0.109 0.034l-0.001-0c0.036-0.005 0.067-0.019 0.094-0.038l-0.001 0c0.036-0.003 0.169-0.005 0.397-0.005l0.115-0.039c0.14-0.001 0.162 0.003 0.283-0.008l0.049-0.005 0.027-0.018 0.001 0.015c0.127-0.011 0.135-0.003 0.235 0.009l0.001 0.015-0.070 0.007 0.003 0.029c0.021-0.002 0.040-0.009 0.056-0.021l-0 0c0.018-0.001 0.029 0.008 0.030 0.029-0.036 0.004-0.068 0.011-0.099 0.022l0.003-0.001-0.031-0.011c-0.049 0.013-0.038 0.017-0.071 0.019l-0.049-0.010c0.001 0.009-0.003 0.015-0.012 0.015 0.001 0.019 0.012 0.028 0.030 0.027l0.049-0.004 0.26-0.023 0.098-0.021c0.001 0.008 0.005 0.013 0.013 0.012l0.047-0.018 0.089-0.007c0.069-0.007 0.067-0.011 0.217-0.035-0.001-0.010 0.003-0.013 0.009-0.015l0.001 0.013c0.243-0.041 0.259-0.044 0.298-0.057l0.003 0.007c0.060-0.014 0.026-0.011 0.043-0.023 0.001 0.011 0.005 0.015 0.011 0.015l0.043-0.003-0.003-0.032-0.087-0.001-0.001-0.002-0.009 0.002h-0.012v0.003c-0.058 0.012-0.060 0.003-0.097 0.007l-0.217 0.012-0.001-0.015 0.121-0.017 0.044-0.003 0.025-0.018 0.001 0.016c0.171-0.015 0.231 0.028 1.021-0.14 0.043-0.004 0.039-0.039 0.067-0.113-0.002 0-0.004 0-0.006 0-0.013 0-0.025-0.003-0.035-0.009l0 0c-0.065 0.025-0.1 0.013-0.225 0.033-0.011 0.001-0.019-0.009-0.023-0.028l-0.001-0.013 0.121 0.004c0.023-0.002 0.067-0.006 0.132-0.043 0 0.011-0.024 0.017-0.007 0.015zM9.886 8.559l-0.056 0.005c-0.003-0.023 0.027-0.108 0.089-0.253l0.037-0.004c0.001 0.034-0.021 0.119-0.070 0.252zM9.953 8.289l-0.001-0.015c-0.001-0.019 0.011-0.032 0.037-0.038l0.001 0.015c0.001 0.023-0.011 0.036-0.037 0.038zM10.695 8.862l0.001 0.015-0.093 0.009-0.001-0.015zM10.583 8.852c0.001 0.019-0.027 0.040-0.089 0.061l-0.113-0.008-0.037 0.003-0.003-0.034zM11.332 5.403l-0.055 0.005-0.001-0.019c-0.001-0.019 0.009-0.032 0.033-0.038l0.020-0.001 0.038 0.015c0.001 0.023-0.010 0.036-0.035 0.038zM12.18 5.237l0.018-0.001 0.003 0.034-0.051 0.005c-0.001-0.019 0.009-0.032 0.031-0.038zM11.967 5.311l-0.084-0.009-0.001-0.015c0.11-0.009 0.147-0.021 0.214-0.040 0.001 0.013 0.013 0.017 0.035 0.015l0.003 0.034-0.033 0.004c-0.004 0.001-0.010 0.001-0.015 0.001-0.019 0-0.037-0.005-0.053-0.013l0.001 0c-0.019 0.012-0.041 0.021-0.065 0.023l-0.001 0zM12.072 5.619l-0.001-0.015 0.137-0.013 0.001 0.016zM12.218 5.5l-0.001-0.019 0.067-0.007 0.001 0.020zM12.233 5.268l-0.018 0.001 0.015-0.037 0.152-0.014 0.001 0.019c-0.057 0.007-0.108 0.018-0.157 0.033l0.006-0.002zM12.311 5.595l-0.003-0.034 0.067-0.006c0.022-0.003 0.033 0.009 0.035 0.032zM12.712 5.047l-0.085 0.023-0.015 0.001c-0.040 0.004-0.092 0.003-0.153-0.003 0.11-0.007 0.215-0.015 0.254-0.021zM12.621 5.427l0.001 0.015-0.118 0.011-0.001-0.015zM12.813 5.518c-0.001-0.014-0.024-0.024-0.070-0.029l-0.117 0.033-0.091 0.003c-0.020-0.014-0.031-0.023-0.032-0.031l0.105 0.006 0.235-0.038 0.12 0.005 0.001 0.019c-0.056 0.005-0.107 0.016-0.155 0.032l0.005-0.001zM14.021 5.206l0.027 0.001c0.040-0.039 0.087-0.071 0.138-0.094l0.003-0.001c-0.043 0.187-0.109 0.326-0.2 0.416l-0.067-0.040c0.034-0.077 0.068-0.171 0.095-0.267l0.004-0.015zM13.817 5.556l0.017-0.001c-0.023 0.043-0.043 0.065-0.059 0.067l-0.003-0.045c0.011 0 0.027-0.007 0.046-0.020zM13.686 5.87c0.032-0.128 0.063-0.2 0.091-0.219l0.001 0.015c-0.017 0.119-0.043 0.181-0.077 0.187l0.006 0.074c-0.029 0.041-0.041 0.071-0.040 0.095l-0.017 0.001-0.010-0.103c0.019-0.003 0.035-0.019 0.045-0.050zM13.635 6.041c-0.006 0.046-0.018 0.087-0.036 0.126l0.001-0.003-0.016 0.001-0.003-0.045c0.022-0.052 0.041-0.078 0.054-0.079zM12.678 8.817l-0.001-0.013 0.031-0.002 0.003 0.045c-0.017 0.001-0.029-0.009-0.033-0.030zM14.045 8.853c-0.001-0.011-0.006-0.015-0.016-0.015l-0.077 0.007-0.001-0.015h0.007l0.183-0.015 0.001 0.015c-0.053 0.002-0.085 0.011-0.096 0.023zM13.953 8.815c0.007 0.003 0.003 0.007 0 0.009-0.003-0.001-0.008-0.005 0-0.009zM13.963 8.602l-0.102 0.008-0.001-0.015 0.092-0.008 0.081-0.020c0.001 0.009 0.007 0.013 0.017 0.011 0.096-0.017 0.087-0.021 0.133-0.025 0.015-0.001 0.025 0.008 0.026 0.027zM14.32 8.571c-0.057-0.005-0.060-0.011-0.101-0.007l-0.001-0.013 0.091-0.008 0.001 0.013c-0.009 0.001 0.025 0.003 0.009 0.015zM14.327 8.555l-0.001-0.013 0.049-0.005 0.001 0.013zM14.437 8.545l-0.001-0.013c0.014-0.004 0.026-0.010 0.035-0.019l-0 0c0.025-0.002 0.038 0.015 0.041 0.033zM14.579 8.527l-0.001-0.016 0.060-0.005 0.001 0.015zM14.663 8.52c-0.001-0.018 0.006-0.029 0.021-0.031l0.020 0.026c-0.001-0.009 0.003-0.013 0.009-0.015l0.015 0.029zM13.767 8.907l-0.003-0.030-0.009 0.001zM15.851 8.367c0.009-0.005 0.014-0.011-0.009-0.015-0.011 0.012 0.012 0.016-0.011 0.017l0.001 0.011 0.013-0.009-0.013 0.011v0.001l-0.025 0.032 0.050-0.018h0.006zM15.937 8.435l-0.009 0.001 0.003 0.029 0.070-0.006c-0.001-0.019-0.048-0.025-0.063-0.025zM15.829 8.383l0.001-0.001v-0.001z"></path>
</svg>
