<!-- Generated by IcoMoon.io -->
<svg version="1.1" xmlns="http://www.w3.org/2000/svg" width="16" height="16" viewBox="0 0 16 16">
<title>baidu</title>
<path fill="#2319dc" d="M2.875 8.433c1.74-0.375 1.5-2.456 1.451-2.911-0.085-0.7-0.911-1.925-2.029-1.827-1.407 0.124-1.612 2.16-1.612 2.16-0.191 0.94 0.455 2.951 2.191 2.577zM6.105 4.939c0.96 0 1.736-1.107 1.736-2.473 0-1.36-0.773-2.467-1.733-2.467s-1.741 1.101-1.741 2.467 0.78 2.473 1.74 2.473zM10.245 5.103c1.287 0.173 2.108-1.2 2.275-2.24 0.167-1.033-0.667-2.24-1.573-2.447-0.913-0.211-2.040 1.249-2.153 2.2-0.12 1.167 0.167 2.327 1.447 2.491zM15.333 6.856c0-0.497-0.409-1.995-1.94-1.995-1.53 0-1.74 1.413-1.74 2.413 0 0.953 0.079 2.28 1.99 2.24 1.903-0.047 1.695-2.16 1.695-2.66zM13.4 11.213c0 0-1.99-1.54-3.151-3.2-1.573-2.451-3.81-1.453-4.556-0.211-0.747 1.255-1.907 2.041-2.070 2.251-0.167 0.207-2.4 1.413-1.903 3.613 0.5 2.2 2.24 2.16 2.24 2.16s1.28 0.127 2.773-0.207 2.773 0.080 2.773 0.080 3.471 1.167 4.432-1.073c0.949-2.247-0.54-3.407-0.54-3.407z"></path>
</svg>
