<!-- Generated by IcoMoon.io -->
<svg version="1.1" xmlns="http://www.w3.org/2000/svg" width="16" height="16" viewBox="0 0 16 16">
<title>bamboo</title>
<path fill="#0052cc" d="M14.477 9.095h-3.326c-0.002-0-0.005-0-0.007-0-0.217 0-0.397 0.159-0.429 0.368l-0 0.002c-0.197 1.336-1.333 2.35-2.708 2.354h-0l0.9 4.115c3.248-0.435 5.762-3.072 6.003-6.341l0.001-0.023c0.001-0.012 0.002-0.027 0.002-0.041 0-0.24-0.194-0.434-0.434-0.434-0.001 0-0.001 0-0.002 0h0zM8.721 8.99l4.8-4.114c0.093-0.079 0.152-0.197 0.152-0.328s-0.059-0.249-0.151-0.327l-0.001-0-4.801-4.113c-0.075-0.066-0.175-0.106-0.283-0.106-0.237 0-0.43 0.191-0.432 0.428v8.229c0 0.001-0 0.002-0 0.003 0 0.24 0.194 0.434 0.434 0.434 0.108 0 0.207-0.039 0.283-0.105l-0.001 0zM1.151 9.993c0.468 3.407 3.359 6.004 6.856 6.007h0v-4.18c-0.001 0-0.003 0-0.005 0-1.506 0-2.726-1.219-2.729-2.724v-0zM1.087 9.029v0.067h4.187c0.002-1.505 1.223-2.725 2.729-2.725 0.001 0 0.002 0 0.004 0h-0l-0.899-4.113c-3.386 0.454-5.976 3.303-6.020 6.767l-0 0.004z"></path>
</svg>
