<!-- Generated by IcoMoon.io -->
<svg version="1.1" xmlns="http://www.w3.org/2000/svg" width="16" height="16" viewBox="0 0 16 16">
<title>bancontact</title>
<path fill="#005498" d="M14.257 6.512h-4.716l-2.862 3.348h-5.641l1.522-1.793h-1.812c-0.411 0-0.748 0.344-0.748 0.767v1.619c0 0.422 0.337 0.767 0.748 0.767h8.622c0.411 0 0.973-0.256 1.249-0.569l3.617-4.114zM13.508 7.365l-0.501 0.57zM15.252 4.781h-8.597c-0.411 0-0.975 0.256-1.251 0.569l-3.66 4.139h4.698l2.912-3.347h5.616l-1.509 1.793h1.791c0.411 0 0.748-0.345 0.748-0.767v-1.619c0-0.422-0.337-0.767-0.748-0.767zM14.005 6.797l-0.316 0.361z"></path>
</svg>
