<!-- Generated by IcoMoon.io -->
<svg version="1.1" xmlns="http://www.w3.org/2000/svg" width="16" height="16" viewBox="0 0 16 16">
<title>bandlab</title>
<path fill="#dc3710" d="M8 0c-4.418 0-8 3.582-8 8s3.582 8 8 8 8-3.582 8-8-3.582-8-8-8zM8.25 1.75c0.333 0 0.333 0.5 0 0.5s-0.333-0.5 0-0.5zM7.5 2.75c0 0.667-1 0.667-1 0s1-0.667 1 0zM11.828 11.703c-0.261 0.367-0.548 0.547-1.138 0.547h-5.38c-0.587 0-0.877-0.18-1.138-0.545-0.354-0.504-0.055-1.049-0.055-1.049l2.373-4.612c0 0 0.103-0.306-0.049-0.47-0.151-0.158-0.631-0.688-0.669-0.729-0.052-0.065-0.069-0.115-0.074-0.165-0.008-0.045-0.045-0.565-0.045-0.625s-0.012-0.117 0.092-0.225c0.083-0.079 0.265-0.079 0.265-0.079h3.987c0 0 0.182-0.003 0.265 0.079 0.104 0.108 0.092 0.165 0.092 0.225-0.011 0.21-0.026 0.419-0.045 0.627-0.005 0.048-0.020 0.101-0.077 0.163l-0.675 0.728c-0.017 0.017-0.030 0.039-0.042 0.060h-2.436c-0.057 0-0.090 0.005-0.131 0.049-0.063 0.073-0.021 0.155-0.021 0.155l1.711 3.335c0.091 0.191-0.047 0.411-0.258 0.413-0.818 0-1.29 0.425-1.29 0.943 0 0.519 0.584 0.943 1.305 0.943 0.717 0 1.298-0.418 1.306-0.935 0 0 0.015-0.173-0.073-0.388l-1.725-3.354c0 0-0.033-0.089 0.022-0.165 0.056-0.078 0.146-0.082 0.146-0.082h1.68l2.133 4.109c0.001 0 0.3 0.545-0.054 1.048z"></path>
</svg>
