<!-- Generated by IcoMoon.io -->
<svg version="1.1" xmlns="http://www.w3.org/2000/svg" width="16" height="16" viewBox="0 0 16 16">
<title>basecamp</title>
<path fill="#5ecc62" d="M8 1.333c-4.307 0-7.68 5.48-8 10.107 1.352 2.347 4.61 3.227 8 3.227s6.65-0.88 8-3.227c-0.32-4.628-3.693-10.107-8-10.107zM8.1 13.6c-6.36 0-6.971-2.689-6.971-2.689l0.12-0.651c0 0 1.751-3.78 2.851-3.78s1.56 1.56 2.46 1.56 2.849-3.46 3.549-3.46c0.698 0 1.88 1.3 2.847 2.5 0.967 1.201 1.919 3.258 1.919 3.258l-0.005 0.023 0.1 0.591c0 0-0.511 2.649-6.869 2.649z"></path>
</svg>
