<!-- Generated by IcoMoon.io -->
<svg version="1.1" xmlns="http://www.w3.org/2000/svg" width="16" height="16" viewBox="0 0 16 16">
<title>bathasu</title>
<path fill="#00a3e0" d="M13.989 14.843c-0.22 0-0.436-0.059-0.629-0.171-0.6-0.347-0.807-1.113-0.46-1.713 1.273-2.2 0.513-5.027-1.693-6.299-0.7-0.403-1.487-0.613-2.3-0.613-0.22 0-0.44-0.060-0.628-0.172-0.6-0.345-0.811-1.112-0.46-1.711 0.22-0.383 0.631-0.62 1.081-0.623 1.243 0 2.475 0.327 3.557 0.951 1.64 0.951 2.813 2.485 3.305 4.32 0.49 1.833 0.24 3.747-0.711 5.4-0.22 0.38-0.64 0.62-1.081 0.62zM6.337 15.717c-2.54 0-4.903-1.364-6.171-3.559-0.345-0.596-0.138-1.363 0.46-1.707 0.582-0.336 1.379-0.117 1.71 0.457 0.821 1.423 2.352 2.305 3.997 2.305 0.801 0 1.598-0.213 2.299-0.617 0.691-0.411 1.272-0.991 1.683-1.693 0.111-0.19 0.261-0.35 0.46-0.46 0.571-0.34 1.373-0.12 1.703 0.451 0.221 0.38 0.221 0.862-0.010 1.252-0.621 1.081-1.523 1.973-2.604 2.605-1.082 0.621-2.313 0.952-3.557 0.952zM6.835 4.625c-0.745 0.689-1.211 1.675-1.211 2.77 0 0.687 0.185 1.329 0.507 1.885 0.181 0.311 0.281 0.66 0.281 1.042 0 0.831-0.491 1.553-1.193 1.883 0.973 0.3 2.053 0.21 3.007-0.341 0.6-0.35 1.062-0.831 1.382-1.381 0.18-0.311 0.447-0.581 0.773-0.763 0.72-0.42 1.593-0.349 2.233 0.091-0.22-0.991-0.84-1.893-1.793-2.433-0.587-0.34-1.24-0.501-1.88-0.501-0.36 0-0.72-0.1-1.040-0.28-0.72-0.42-1.101-1.202-1.031-1.983zM4.321 11.577c-0.443 0-0.857-0.24-1.082-0.627-0.627-1.080-0.953-2.31-0.953-3.556 0.001-3.921 3.187-7.112 7.114-7.112 0.687 0 1.248 0.561 1.248 1.253 0 0.69-0.561 1.251-1.253 1.251-2.541 0-4.607 2.068-4.607 4.608 0 0.807 0.212 1.603 0.617 2.303 0.11 0.187 0.167 0.404 0.167 0.625 0 0.691-0.56 1.252-1.253 1.252z"></path>
</svg>
