<!-- Generated by IcoMoon.io -->
<svg version="1.1" xmlns="http://www.w3.org/2000/svg" width="16" height="16" viewBox="0 0 16 16">
<title>beatsbydre</title>
<path fill="#e01f3d" d="M8.007 0c-0.857 0-1.682 0.135-2.456 0.384l0.057-0.016v4.431c0.66-0.499 1.495-0.8 2.4-0.8 2.209 0 4 1.791 4 4s-1.791 4-4 4c-2.209 0-4-1.791-4-4v-6.932c-2.412 1.408-4.007 3.984-4.007 6.932 0 4.418 3.582 8 8 8s8-3.582 8-8c0-4.416-3.578-7.996-7.993-8h-0zM8.107 5.602c-0.030-0.001-0.065-0.002-0.1-0.002-1.325 0-2.4 1.075-2.4 2.4 0 0 0 0 0 0.001v-0c0 1.325 1.074 2.4 2.4 2.4h0c0.002 0 0.005 0 0.008 0 1.325 0 2.4-1.075 2.4-2.4 0-1.293-1.022-2.347-2.303-2.398l-0.005-0z"></path>
</svg>
