<!-- Generated by IcoMoon.io -->
<svg version="1.1" xmlns="http://www.w3.org/2000/svg" width="16" height="16" viewBox="0 0 16 16">
<title>beats</title>
<path fill="#005571" d="M14.367 11.18c0 0.004 0 0.009 0 0.013 0 2.629-2.131 4.76-4.76 4.76-0.005 0-0.009 0-0.014-0h-7.959v-4.773h5.573c2.453-0.009 4.58-1.395 5.65-3.425l0.017-0.035c0.92 0.865 1.493 2.089 1.493 3.448 0 0.004 0 0.009-0 0.013v-0.001zM11.54 6.827c0.276-0.589 0.438-1.279 0.44-2.006v-0.001c0-0.004 0-0.009 0-0.013 0-2.629-2.131-4.76-4.76-4.76-0.007 0-0.014 0-0.021 0h-5.559v9.547h5.567c1.933 0 3.58-1.133 4.333-2.767z"></path>
</svg>
