<!-- Generated by IcoMoon.io -->
<svg version="1.1" xmlns="http://www.w3.org/2000/svg" width="16" height="16" viewBox="0 0 16 16">
<title>behance</title>
<path fill="#1769ff" d="M4.625 3.002c0.468 0 0.893 0.040 1.28 0.125 0.385 0.087 0.713 0.22 0.99 0.407 0.273 0.187 0.489 0.433 0.64 0.747 0.15 0.313 0.227 0.7 0.227 1.153 0 0.493-0.113 0.907-0.338 1.24s-0.558 0.6-1.001 0.813c0.604 0.173 1.051 0.48 1.348 0.913 0.299 0.44 0.443 0.967 0.443 1.573 0 0.5-0.087 0.927-0.273 1.287-0.187 0.367-0.447 0.667-0.773 0.9-0.32 0.232-0.7 0.4-1.113 0.511-0.407 0.11-0.835 0.169-1.273 0.169h-4.781v-9.835h4.625zM11.293 11.11c0.293 0.285 0.715 0.429 1.263 0.429 0.393 0 0.733-0.099 1.020-0.298 0.283-0.193 0.453-0.407 0.52-0.627h1.725c-0.269 0.853-0.699 1.467-1.267 1.833-0.567 0.373-1.256 0.553-2.053 0.553-0.558 0-1.056-0.087-1.515-0.267-0.449-0.18-0.827-0.433-1.147-0.76-0.309-0.327-0.549-0.72-0.718-1.18s-0.249-0.967-0.249-1.513c0-0.535 0.090-1.027 0.269-1.487 0.18-0.467 0.429-0.853 0.747-1.193 0.33-0.34 0.709-0.597 1.157-0.796s0.933-0.289 1.48-0.289c0.607 0 1.127 0.109 1.587 0.349 0.447 0.227 0.813 0.547 1.107 0.933 0.293 0.391 0.5 0.84 0.627 1.347 0.127 0.5 0.167 1.027 0.14 1.587h-5.127c0 0.56 0.187 1.088 0.473 1.377l-0.053 0.020zM4.467 11.143c0.211 0 0.413-0.020 0.604-0.062 0.193-0.040 0.365-0.11 0.509-0.2 0.14-0.090 0.26-0.219 0.347-0.389 0.087-0.16 0.127-0.38 0.127-0.64 0-0.5-0.147-0.86-0.427-1.080-0.287-0.213-0.66-0.32-1.127-0.32h-2.339v2.7h2.307zM13.538 7.377c-0.235-0.257-0.627-0.395-1.105-0.395-0.312 0-0.57 0.049-0.777 0.159-0.201 0.1-0.367 0.233-0.493 0.393s-0.211 0.32-0.261 0.5c-0.050 0.173-0.080 0.333-0.090 0.473h3.175c-0.047-0.5-0.22-0.867-0.453-1.127zM4.347 6.967c0.383 0 0.7-0.089 0.95-0.275 0.249-0.18 0.369-0.48 0.369-0.892 0-0.229-0.047-0.417-0.12-0.564-0.087-0.147-0.2-0.26-0.333-0.341-0.14-0.083-0.3-0.14-0.48-0.171-0.18-0.035-0.373-0.049-0.56-0.049h-2.019v2.293zM10.412 3.661h3.979v0.969h-3.979v-0.977z"></path>
</svg>
