<!-- Generated by IcoMoon.io -->
<svg version="1.1" xmlns="http://www.w3.org/2000/svg" width="16" height="16" viewBox="0 0 16 16">
<title>bit</title>
<path fill="#73398d" d="M8 16c-4.418 0-8-3.582-8-8s3.582-8 8-8 8 3.582 8 8-3.582 8-8 8zM7.237 8.713c0-0.861-0.509-1.346-1.239-1.346-0.227 0-0.425 0.048-0.575 0.149v-1.149c0-0.215-0.131-0.323-0.401-0.323s-0.401 0.108-0.401 0.323v3.022c0 0.203 0 0.401 0.275 0.557 0.239 0.137 0.551 0.203 0.885 0.203 0.933 0 1.454-0.563 1.454-1.437zM5.424 9.413v-1.281c0.101-0.075 0.228-0.12 0.365-0.12 0.004 0 0.008 0 0.012 0l-0.001-0c0.371 0 0.616 0.275 0.616 0.754 0 0.473-0.239 0.736-0.628 0.736-0.137 0-0.263-0.030-0.365-0.089zM8.736 6.577c0-0.275-0.197-0.461-0.473-0.461s-0.473 0.185-0.473 0.461 0.197 0.467 0.473 0.467 0.473-0.191 0.473-0.467zM8.664 7.69c0-0.215-0.131-0.323-0.401-0.323s-0.401 0.108-0.401 0.323v2.124c0 0.215 0.131 0.323 0.401 0.323s0.401-0.108 0.401-0.323zM11.091 9.419c-0.048 0-0.090 0.012-0.137 0.024-0.054 0.012-0.12 0.030-0.185 0.030-0.102 0-0.179-0.036-0.221-0.12-0.054-0.102-0.054-0.257-0.054-0.365v-0.897h0.503c0.215 0 0.323-0.108 0.323-0.335s-0.108-0.335-0.323-0.335h-0.503v-0.527c0-0.215-0.131-0.323-0.401-0.323s-0.401 0.108-0.401 0.323v0.527h-0.209c-0.215 0-0.323 0.108-0.323 0.335s0.108 0.335 0.323 0.335h0.209v0.897c0 0.275 0.012 0.533 0.131 0.748 0.131 0.239 0.389 0.413 0.82 0.413 0.233 0 0.461-0.054 0.593-0.131 0.114-0.066 0.143-0.149 0.143-0.233 0-0.131-0.066-0.365-0.288-0.365z"></path>
</svg>
