<!-- Generated by IcoMoon.io -->
<svg version="1.1" xmlns="http://www.w3.org/2000/svg" width="16" height="16" viewBox="0 0 16 16">
<title>bitcoin</title>
<path fill="#f7931a" d="M15.759 9.936c-1.068 4.287-5.409 6.893-9.695 5.824-4.284-1.060-6.893-5.41-5.823-9.69 1.067-4.29 5.409-6.899 9.692-5.831 4.287 1.070 6.895 5.41 5.825 9.699zM11.525 6.861c0.16-1.060-0.649-1.633-1.76-2.020l0.36-1.435-0.877-0.22-0.35 1.405c-0.23-0.058-0.47-0.111-0.709-0.167l0.351-1.418-0.88-0.22-0.36 1.443c-0.19-0.045-0.377-0.088-0.56-0.133l-1.21-0.3-0.233 0.938c0 0 0.65 0.15 0.637 0.157 0.357 0.091 0.42 0.324 0.41 0.511l-0.985 3.947c-0.050 0.111-0.16 0.271-0.409 0.209 0.010 0.013-0.64-0.16-0.64-0.16l-0.44 1.007 1.14 0.284 0.62 0.161-0.36 1.46 0.88 0.218 0.36-1.447c0.24 0.067 0.47 0.127 0.7 0.182l-0.34 1.436 0.88 0.22 0.363-1.46c1.493 0.285 2.62 0.171 3.093-1.183 0.38-1.091-0.020-1.72-0.811-2.131 0.569-0.129 1-0.507 1.12-1.287zM9.519 9.674c-0.269 1.093-2.105 0.5-2.7 0.353l0.48-1.933c0.597 0.153 2.505 0.447 2.22 1.58zM9.792 6.847c-0.247 0.993-1.775 0.49-2.27 0.367l0.436-1.76c0.496 0.12 2.091 0.349 1.833 1.389z"></path>
</svg>
