<!-- Generated by IcoMoon.io -->
<svg version="1.1" xmlns="http://www.w3.org/2000/svg" width="16" height="16" viewBox="0 0 16 16">
<title>bitdefender</title>
<path fill="#ed1c24" d="M1.123 0v0.238l0.821 0.697c0.985 0.803 1.113 0.959 1.113 1.684v13.381h5.764c3.025 0 6.055-1.086 6.055-4.566 0-2.055-1.449-3.639-3.457-3.865v-0.045c1.65-0.497 2.779-1.693 2.779-3.502 0-2.915-2.487-4.021-4.899-4.021zM5.907 2.443h2.349c1.589 0 2.081 0.218 2.563 0.675 0.365 0.347 0.533 0.825 0.534 1.38 0 0.517-0.178 0.977-0.554 1.336-0.47 0.451-1.116 0.674-2.295 0.674h-2.596zM5.907 8.948h2.733c2.304 0 3.39 0.587 3.39 2.26 0 2.102-2.037 2.351-3.504 2.351h-2.619z"></path>
</svg>
