<!-- Generated by IcoMoon.io -->
<svg version="1.1" xmlns="http://www.w3.org/2000/svg" width="16" height="16" viewBox="0 0 16 16">
<title>bitly</title>
<path fill="#ee6123" d="M8.703 14.173c-0.897 0.015-1.55-0.273-1.591-1.057-0.017-0.293-0.012-0.607 0.001-0.795 0.091-1.144 0.889-1.967 1.687-2.127 0.988-0.196 1.637 0.253 1.637 1.54 0 0.869-0.24 2.412-1.727 2.438zM7.949 0c-4.402 0-7.949 3.531-7.949 8.149 0 2.396 1.28 4.708 3.082 6.098 0.347 0.267 0.759 0.245 0.998 0.013 0.198-0.19 0.181-0.656-0.19-0.983-1.44-1.257-2.435-3.173-2.435-5.090 0-3.433 3.053-6.327 6.493-6.327 4.187 0 6.424 3.401 6.424 6.287 0 1.767-0.86 3.893-2.417 5.249 0.010 0 0.329-0.628 0.329-1.856 0-2.087-1.317-3.224-2.853-3.224-1.109 0-1.778 0.399-2.227 0.768 0-0.848 0.030-2.435 0.030-2.435 0-1.048-0.36-1.887-1.647-1.907-0.74-0.010-1.288 0.329-1.627 1.098-0.12 0.291-0.080 0.611 0.169 0.75 0.2 0.12 0.54 0.031 0.697-0.189 0.11-0.14 0.169-0.169 0.269-0.16 0.16 0.020 0.171 0.27 0.171 0.44 0.009 0.129 0.129 1.935 0.059 6.577-0.007 1.273 1.002 2.741 3.407 2.741 1.040 0 1.837-0.29 2.995-0.948 1.767-0.999 4.271-3.213 4.271-6.967-0.031-4.722-3.823-8.085-8.045-8.085z"></path>
</svg>
