<!-- Generated by IcoMoon.io -->
<svg version="1.1" xmlns="http://www.w3.org/2000/svg" width="16" height="16" viewBox="0 0 16 16">
<title>bitrise</title>
<path fill="#683d87" d="M8 11.933c1 0 1.8-0.8 1.8-1.8h-3.6c0 1 0.8 1.8 1.8 1.8zM4 8c-0.6 0-1.067 0.467-1.067 1.067h2.2c0-0.6-0.533-1.067-1.133-1.067zM8 2.733c0.4 0 0.667-0.333 0.667-0.667 0-0.4-0.333-0.667-0.667-0.667-0.4 0-0.667 0.333-0.667 0.667 0 0.4 0.267 0.667 0.667 0.667zM15.667 8.933c-0.2-1.267-0.467-2.533-0.667-3.333-0.267-1-1.067-1.733-2.133-1.8-1-0.067-2.667-0.133-4.933-0.133-2.2 0-3.867 0.067-4.933 0.133-0.933 0.067-1.8 0.8-2 1.8-0.2 0.867-0.467 2.133-0.667 3.333-0.133 0.867-0.2 1.867-0.333 3-0.067 0.6 0.133 1.267 0.6 1.733 0.4 0.467 1 0.733 1.6 0.8 1.4 0.067 3.533 0.133 5.8 0.133s4.4-0.067 5.8-0.133c0.6 0 1.2-0.333 1.6-0.8s0.6-1.067 0.6-1.733c-0.067-1.133-0.2-2.133-0.333-3zM14.6 12.867c-0.2 0.267-0.533 0.4-0.867 0.4-1.4 0.067-3.467 0.133-5.733 0.133s-4.333-0.067-5.733-0.133c-0.333 0-0.667-0.133-0.867-0.4s-0.333-0.533-0.333-0.867c0.067-1.067 0.133-2.067 0.267-2.867 0.2-1.2 0.467-2.467 0.667-3.267 0.133-0.533 0.6-0.933 1.133-0.933 1-0.133 2.667-0.2 4.867-0.2s3.867 0.067 4.867 0.133c0.533 0 1 0.4 1.133 0.933 0.2 0.8 0.467 2.067 0.667 3.267 0.133 0.8 0.2 1.8 0.267 2.867 0 0.4-0.133 0.667-0.333 0.933zM12 8c-0.6 0-1.067 0.467-1.067 1.067h2.2c-0.067-0.6-0.533-1.067-1.133-1.067z"></path>
</svg>
