<!-- Generated by IcoMoon.io -->
<svg version="1.1" xmlns="http://www.w3.org/2000/svg" width="16" height="16" viewBox="0 0 16 16">
<title>blackberry</title>
<path d="M1.367 2.36l-0.587 2.773h2.187c1.68 0 2.187-0.82 2.187-1.56 0-0.547-0.313-1.213-1.68-1.213h-2.107zM7.027 2.36l-0.587 2.773h2.187c1.707 0 2.187-0.82 2.187-1.56 0-0.547-0.313-1.213-1.68-1.213h-2.107zM12.213 4.82l-0.62 2.773h2.187c1.713 0 2.22-0.78 2.22-1.56 0-0.547-0.313-1.213-1.667-1.213h-2.12zM0.587 6.533l-0.587 2.773h2.187c1.713 0 2.187-0.82 2.187-1.56 0-0.547-0.313-1.213-1.68-1.213h-2.107zM6.287 6.533l-0.62 2.773h2.18c1.713 0 2.227-0.82 2.227-1.56 0-0.547-0.313-1.213-1.68-1.213h-2.113zM11.393 9.153l-0.58 2.767h2.187c1.667 0 2.18-0.78 2.18-1.56 0-0.547-0.313-1.207-1.673-1.207h-2.113zM5.467 10.867l-0.587 2.773h2.187c1.673 0 2.18-0.82 2.18-1.56 0-0.547-0.307-1.213-1.673-1.213z"></path>
</svg>
