<!-- Generated by IcoMoon.io -->
<svg version="1.1" xmlns="http://www.w3.org/2000/svg" width="16" height="16" viewBox="0 0 16 16">
<title>blender</title>
<path fill="#f5792a" d="M8.34 8.809c0.031-0.533 0.292-1.004 0.687-1.337 0.392-0.328 0.902-0.527 1.458-0.527 0.006 0 0.011 0 0.017 0h-0.001c0.567 0 1.087 0.2 1.474 0.527 0.395 0.333 0.655 0.804 0.685 1.337 0.030 0.549-0.19 1.057-0.577 1.435-0.405 0.387-0.955 0.625-1.56 0.625-0.008 0-0.016-0-0.023-0l0.001 0c-0.007 0-0.015 0-0.022 0-0.606 0-1.156-0.238-1.562-0.626l0.001 0.001c-0.387-0.378-0.607-0.887-0.577-1.435zM4.9 9.887c0.004 0.209 0.071 0.615 0.171 0.932 0.23 0.714 0.594 1.328 1.065 1.842l-0.003-0.004c0.51 0.559 1.128 1.010 1.823 1.32l0.035 0.014c0.708 0.32 1.535 0.507 2.406 0.507 0.012 0 0.024-0 0.036-0l-0.002 0c0.004 0 0.008 0 0.012 0 0.878 0 1.713-0.19 2.464-0.53l-0.038 0.015c0.729-0.327 1.347-0.78 1.853-1.336l0.004-0.004c0.468-0.511 0.831-1.127 1.052-1.806l0.010-0.035c0.135-0.416 0.213-0.895 0.213-1.392 0-0.232-0.017-0.46-0.050-0.683l0.003 0.025c-0.101-0.697-0.34-1.323-0.689-1.872l0.011 0.019c-0.336-0.533-0.746-0.984-1.223-1.353l-0.012-0.009h0.001l-5.012-3.848c-0.328-0.252-0.879-0.251-1.24 0.001-0.365 0.255-0.406 0.677-0.082 0.943l-0.001 0.001 2.084 1.695-6.362 0.007c-0.525 0.001-1.030 0.345-1.13 0.781-0.103 0.443 0.253 0.811 0.8 0.813v0.001l3.22-0.007-5.769 4.428c-0.542 0.415-0.717 1.105-0.375 1.542 0.347 0.445 1.083 0.445 1.631 0.003l3.136-2.566c0 0-0.046 0.347-0.043 0.554zM12.96 11.048c-0.647 0.659-1.551 1.032-2.53 1.033-0.98 0.003-1.885-0.368-2.531-1.025-0.297-0.298-0.532-0.659-0.684-1.061l-0.007-0.021c-0.107-0.287-0.168-0.619-0.168-0.965 0-0.507 0.132-0.983 0.364-1.395l-0.007 0.014c0.202-0.359 0.459-0.662 0.763-0.909l0.006-0.005c0.628-0.512 1.427-0.789 2.264-0.79s1.637 0.273 2.265 0.783c0.32 0.261 0.58 0.569 0.768 0.911 0.186 0.328 0.31 0.715 0.347 1.126l0.001 0.011c0.007 0.073 0.010 0.157 0.010 0.243 0 0.346-0.062 0.678-0.176 0.984l0.006-0.020c-0.158 0.423-0.393 0.785-0.69 1.084l0-0z"></path>
</svg>
