<!-- Generated by IcoMoon.io -->
<svg version="1.1" xmlns="http://www.w3.org/2000/svg" width="16" height="16" viewBox="0 0 16 16">
<title>blogger</title>
<path fill="#ff5722" d="M14.651 16h-13.3c-0.751 0-1.351-0.6-1.351-1.349v-13.3c0-0.751 0.6-1.351 1.35-1.351h13.35c0.7 0 1.3 0.6 1.3 1.35v13.3c0 0.75-0.6 1.35-1.349 1.35zM8 2.65h-2c-1.85 0-3.35 1.5-3.35 3.35v4c0 1.849 1.5 3.349 3.35 3.349h4c1.849 0 3.349-1.5 3.349-3.349v-2.65c0-0.4-0.3-0.7-0.7-0.7h-0.649c-0.349 0-0.651-0.3-0.651-0.651 0-1.851-1.5-3.351-3.349-3.349zM10.049 10.65h-4.049c-0.35 0-0.65-0.3-0.65-0.65s0.3-0.651 0.65-0.651h4.049c0.351 0 0.651 0.3 0.651 0.651s-0.3 0.651-0.651 0.65zM8.349 5.35c0.351 0 0.651 0.3 0.651 0.65s-0.3 0.65-0.65 0.65h-2.4c-0.35 0-0.651-0.3-0.651-0.65s0.3-0.65 0.65-0.65z"></path>
</svg>
