<!-- Generated by IcoMoon.io -->
<svg version="1.1" xmlns="http://www.w3.org/2000/svg" width="16" height="16" viewBox="0 0 16 16">
<title>bmcsoftware</title>
<path fill="#fe5000" d="M4.259 15.98c-0.632 0-1.297-0.498-1.297-1.463v-2.261c0-0.897 0.565-1.928 1.363-2.36l3.159-1.863-3.159-1.862c-0.765-0.499-1.363-1.497-1.363-2.395v-2.294c0-0.965 0.665-1.463 1.331-1.463 0.266 0 0.565 0.067 0.831 0.233l7.116 4.222c0.499 0.299 0.765 0.765 0.765 1.23 0 0.499-0.3 0.965-0.765 1.231l-1.696 0.998 1.696 0.998c0.499 0.299 0.798 0.765 0.798 1.23 0 0.499-0.3 0.965-0.798 1.231l-7.117 4.356c-0.299 0.167-0.565 0.233-0.864 0.232zM9.014 8.931l-3.891 2.294c-0.299 0.167-0.598 0.699-0.598 1.031v2.029l6.75-3.99zM4.525 1.749v2.028c0 0.333 0.299 0.865 0.598 1.031l3.891 2.294 2.295-1.363z"></path>
</svg>
