<!-- Generated by IcoMoon.io -->
<svg version="1.1" xmlns="http://www.w3.org/2000/svg" width="16" height="16" viewBox="0 0 16 16">
<title>boeing</title>
<path fill="#1d439c" d="M4.603 11.569c-0.002 0-0.004 0-0.007 0-0.948 0-1.819-0.327-2.507-0.874l0.008 0.006c0.803-1.81 2.436-4.239 4.665-6.611 1.145 0.728 1.894 1.99 1.894 3.427 0 0.627-0.142 1.22-0.397 1.75l0.011-0.024c-0.707-0.327-1.367-0.737-1.925-1.253l1.221 2.292c-0.739 0.793-1.79 1.287-2.957 1.287-0.002 0-0.004 0-0.006 0h0zM0.553 7.519c0-0 0-0.001 0-0.001 0-2.237 1.813-4.050 4.050-4.050 0 0 0 0 0.001 0h-0c0.6 0 1.168 0.131 1.681 0.364-2.195 1.94-3.895 4.195-4.901 6.145-0.518-0.672-0.831-1.525-0.831-2.452 0-0.002 0-0.004 0-0.006v0zM8.78 9.46c0.27-0.566 0.428-1.231 0.428-1.932 0-0.003 0-0.007-0-0.010v0c0-1.6-0.817-3.010-2.057-3.835 0.75-0.771 1.528-1.499 2.341-2.188l0.048-0.040c-1.060 0.631-1.975 1.286-2.831 2.009l0.031-0.025c-0.619-0.33-1.353-0.524-2.133-0.524-2.543 0-4.605 2.062-4.605 4.605 0 1.15 0.421 2.201 1.118 3.008l-0.005-0.006c-0.883 1.909-1.036 3.441-0.259 3.958 0.832 0.555 2.641-0.451 3.727-2.089 0 0-1.679 1.515-2.601 1.167-0.567-0.215-0.569-1.083-0.101-2.328 0.75 0.557 1.694 0.892 2.716 0.892 0.002 0 0.005 0 0.007 0h-0c1.262 0 2.404-0.507 3.235-1.328l0.163 0.308c2.006-0.163 7.997-0.322 7.997-0.322 0-0.287-3.967-0.027-7.221-1.32z"></path>
</svg>
