<!-- Generated by IcoMoon.io -->
<svg version="1.1" xmlns="http://www.w3.org/2000/svg" width="16" height="16" viewBox="0 0 16 16">
<title>boost</title>
<path fill="#f69220" d="M10.545 12.105c0.039-0.030 0.075-0.066 0.109-0.1 0.264-0.273 0.427-0.646 0.427-1.056s-0.163-0.783-0.427-1.057l0 0-5.201-5.333c-0.036 0.033-0.073 0.066-0.107 0.101-0.265 0.273-0.428 0.646-0.428 1.057s0.163 0.784 0.428 1.057l-0-0zM14.363 4.505c0.417 0.085 0.775 0.292 1.048 0.581l0.001 0.001c0.784 0.827 0.784 2.167 0 2.993l-3.705 3.898c-0.224 0.23-0.523 0.385-0.859 0.424l-0.007 0.001 2.203 2.263-11.407-2.505c-0.416-0.088-0.774-0.296-1.047-0.584l-0.001-0.001c-0.787-0.825-0.787-2.165 0-2.996l3.701-3.892c0.223-0.233 0.525-0.39 0.862-0.428l0.007-0.001-2.204-2.259z"></path>
</svg>
