<!-- Generated by IcoMoon.io -->
<svg version="1.1" xmlns="http://www.w3.org/2000/svg" width="16" height="16" viewBox="0 0 16 16">
<title>bootstrap</title>
<path fill="#563d7c" d="M13.333 0h-10.667c-1.471 0.004-2.663 1.195-2.667 2.667v10.667c0 1.467 1.2 2.667 2.667 2.667h10.667c1.467 0 2.667-1.2 2.667-2.667v-10.667c0-1.467-1.2-2.667-2.667-2.667zM11.875 11.237c-0.133 0.321-0.345 0.605-0.615 0.823-0.28 0.227-0.635 0.413-1.071 0.547-0.436 0.135-0.955 0.203-1.555 0.203h-4.288v-9.333h4.535c0.839 0 1.511 0.189 2.013 0.573 0.507 0.387 0.759 0.963 0.759 1.74 0 0.47-0.115 0.873-0.345 1.207-0.229 0.331-0.56 0.591-0.987 0.771v0.031c0.569 0.12 1.010 0.39 1.3 0.81s0.439 0.951 0.439 1.591c0 0.359-0.069 0.7-0.2 1.019zM10.025 8.937c-0.273-0.25-0.657-0.372-1.153-0.372h-2.881v2.912h2.889c0.493 0 0.88-0.128 1.153-0.387 0.273-0.257 0.413-0.623 0.413-1.093-0.005-0.46-0.14-0.816-0.413-1.060zM9.625 7.055c0.264-0.224 0.393-0.545 0.393-0.963 0-0.469-0.117-0.803-0.353-0.993-0.235-0.19-0.573-0.289-1.019-0.289h-2.667v2.575h2.667c0.389 0 0.72-0.113 0.979-0.331z"></path>
</svg>
