<!-- Generated by IcoMoon.io -->
<svg version="1.1" xmlns="http://www.w3.org/2000/svg" width="16" height="16" viewBox="0 0 16 16">
<title>bower</title>
<path fill="#ef5734" d="M15.694 7.537c-0.823-0.791-4.938-1.285-6.236-1.428 0.063-0.148 0.117-0.302 0.161-0.461 0.177-0.078 0.368-0.15 0.566-0.21 0.024 0.071 0.138 0.343 0.202 0.473 2.611 0.072 2.745-1.94 2.851-2.492 0.104-0.539 0.099-1.060 0.994-2.012-1.334-0.389-3.253 0.602-3.896 2.079-0.242-0.090-0.484-0.158-0.723-0.198-0.172-0.692-1.065-2.62-3.409-2.62-1.519 0-3.050 0.627-4.201 1.721-0.62 0.589-1.107 1.288-1.449 2.079-0.368 0.854-0.554 1.794-0.554 2.795 0 3.485 2.379 6.538 3.723 6.538 0.587 0 1.092-0.439 1.211-0.833 0.1 0.271 0.404 1.11 0.504 1.324 0.148 0.316 0.833 0.59 1.132 0.261 0.385 0.214 1.092 0.343 1.477-0.228 0.742 0.157 1.398-0.285 1.412-0.814 0.364-0.019 0.542-0.53 0.463-0.937-0.059-0.299-0.684-1.375-0.929-1.746 0.483 0.393 1.708 0.504 1.856 0 0.779 0.612 1.994 0.291 2.090-0.207 0.947 0.246 2.033-0.295 1.855-0.949 1.521-0.105 1.327-1.723 0.9-2.134zM11.733 4.854c-0.4-0.158-0.909-0.257-1.265-0.257-0.505 0-0.813 0.286-1.288 0.286-0.1 0-0.338 0.001-0.529-0.068 0.126 0.132 0.282 0.203 0.585 0.203 0.181 0 0.54-0.093 0.83-0.179 0.004 0.061 0.011 0.121 0.019 0.182-0.544 0.13-1.115 0.476-1.28 0.566-0.367-0.812-0.052-1.579 0.24-1.932 1.308 0.003 2.365 0.901 2.688 1.199zM12.299 4.794l-0.2-0.187c-0.206-0.193-0.42-0.367-0.64-0.521 0.328-0.65 0.739-1.36 1.259-1.799-0.572 0.231-1.138 0.92-1.472 1.657-0.17-0.108-0.343-0.205-0.518-0.289 0.466-0.995 1.549-1.826 2.743-1.891-0.8 0.725-0.499 2.172-1.173 3.029zM10.656 5.471c-0.088-0.191-0.177-0.508-0.166-0.695 0.148-0.004 0.434 0.052 0.479 0.063-0.018 0.088-0.027 0.28-0.027 0.304 0.028-0.049 0.107-0.216 0.138-0.283 0.285 0.054 0.66 0.145 0.88 0.248-0.259 0.167-0.697 0.349-1.304 0.362zM5.942 4.17c-0.323-0.116-0.323-0.407 0-0.523s0.729 0.030 0.729 0.262-0.406 0.378-0.729 0.262zM7.019 4.278c0-0.64-0.698-1.042-1.253-0.722s-0.555 1.124 0 1.444c0.555 0.32 1.253-0.082 1.253-0.722zM8.875 3.228c-1.043 1.057-0.631 2.395-0.251 2.999-0.54 0.899-1.603 1.514-2.837 1.793 1.385 0 2.2-0.357 2.674-0.706 0.302-0.223 0.466-0.443 0.55-0.565 2.054 0.133 5.306 0.795 5.623 1.009 0.127 0.086 0.259 0.276 0.278 0.458-1.543-0.216-4.325-0.444-5.054-0.482 0.517 0.073 4.289 0.788 4.943 0.955-0.199 0.324-0.653 0.554-1.336 0.394 0.369 0.503-0.347 1.106-1.346 0.774 0.22 0.494-0.669 0.938-1.68 0.424 0.013 0.494-1.254 0.551-1.754 0.005 0.010 0.065 0.069 0.189 0.095 0.244-0.161 1.442-1.343 2.337-2.553 2.337-2.962 0-5.543-2.406-5.543-5.607 0-3.384 2.501-5.91 5.519-5.91 1.729 0 2.51 1.361 2.671 1.877z"></path>
</svg>
