<!-- Generated by IcoMoon.io -->
<svg version="1.1" xmlns="http://www.w3.org/2000/svg" width="16" height="16" viewBox="0 0 16 16">
<title>box</title>
<path fill="#0061d5" d="M0.639 3.682c-0.36 0-0.639 0.28-0.639 0.599v5.033c0.036 1.662 1.392 2.996 3.059 2.996 0.006 0 0.011-0 0.017-0h-0.001c1.183-0.001 2.213-0.656 2.748-1.622l0.008-0.016c0.519 0.959 1.558 1.638 2.716 1.638 1.718 0 3.116-1.358 3.116-3.075 0.040-1.638-1.358-2.997-3.075-2.997-1.159 0-2.197 0.639-2.716 1.598-0.52-0.959-1.559-1.598-2.757-1.598-0.719 0-1.359 0.24-1.878 0.599v-2.556c-0.008-0.328-0.271-0.591-0.598-0.599l-0.001-0zM11.735 6.173c-0.032-0.006-0.069-0.009-0.106-0.009-0.136 0-0.262 0.043-0.365 0.116l0.002-0.001c-0.24 0.2-0.319 0.599-0.12 0.879l1.598 2.077-1.597 2.077c-0.2 0.28-0.16 0.64 0.12 0.84s0.677 0.199 0.877-0.081l1.359-1.757 1.397 1.798c0.2 0.24 0.599 0.279 0.879 0.080 0.24-0.2 0.28-0.56 0.081-0.839l-1.559-2.077 1.559-2.038c0.2-0.279 0.199-0.679-0.081-0.879-0.32-0.2-0.679-0.16-0.879 0.12l-1.397 1.717-1.36-1.797c-0.099-0.12-0.249-0.2-0.408-0.225zM3.075 7.436c1.039 0 1.878 0.84 1.878 1.839 0 1.039-0.839 1.837-1.878 1.837s-1.877-0.799-1.877-1.837c0-0.999 0.839-1.839 1.877-1.839zM8.589 7.436c1.039 0 1.877 0.84 1.877 1.839-0.040 1.039-0.879 1.837-1.877 1.837-1.039 0-1.878-0.799-1.878-1.837 0-0.999 0.839-1.839 1.878-1.839z"></path>
</svg>
