<!-- Generated by IcoMoon.io -->
<svg version="1.1" xmlns="http://www.w3.org/2000/svg" width="16" height="16" viewBox="0 0 16 16">
<title>brandfolder</title>
<path fill="#40d1f5" d="M0 15.527h13.067v-1.985h-11.081v-11.083h11.084v7.274h-0.948l1.939 1.939 1.939-1.94h-0.945v-9.26h-15.055zM10.765 8.904c-0.127-0.271-0.288-0.493-0.48-0.665s-0.399-0.303-0.622-0.389c-0.225-0.088-0.427-0.145-0.611-0.169 0.167-0.023 0.331-0.089 0.49-0.197 0.161-0.107 0.303-0.243 0.431-0.406 0.128-0.165 0.23-0.357 0.305-0.575 0.077-0.22 0.114-0.457 0.114-0.713 0-0.432-0.084-0.791-0.251-1.078s-0.398-0.517-0.689-0.689-0.632-0.293-1.024-0.365c-0.391-0.072-0.807-0.108-1.245-0.108-0.503 0-0.921 0.012-1.258 0.036-0.335 0.025-0.63 0.055-0.886 0.097v8.622c0.456 0.055 0.862 0.094 1.223 0.114 0.359 0.020 0.721 0.029 1.089 0.029 0.479 0 0.936-0.036 1.371-0.108s0.818-0.203 1.149-0.395c0.333-0.192 0.595-0.453 0.791-0.785s0.294-0.757 0.294-1.276c0-0.383-0.064-0.71-0.192-0.981zM6.777 4.881c0.607-0.074 1.249-0.036 1.534 0.203 0.253 0.211 0.405 0.399 0.405 0.947 0 0.501-0.238 0.797-0.405 0.904s-0.393 0.245-0.935 0.245-0.598 0-0.598 0zM8.796 10.667c-0.299 0.26-0.743 0.368-1.211 0.368-0.527 0-0.809-0.048-0.809-0.048v-2.491h0.755c0.474 0 0.959 0.084 1.221 0.309 0.339 0.291 0.407 0.597 0.407 1.003s-0.141 0.665-0.364 0.859z"></path>
</svg>
