<!-- Generated by IcoMoon.io -->
<svg version="1.1" xmlns="http://www.w3.org/2000/svg" width="16" height="16" viewBox="0 0 16 16">
<title>brand-dot-ai</title>
<path fill="#0aa0ff" d="M15.972 7.507c-0.252-4.171-3.703-7.477-7.931-7.503h-0.095c-1.493 0.011-2.891 0.427-4.083 1.149-1.101 0.665-2.029 1.589-2.699 2.689-0.658 1.077-1.065 2.325-1.149 3.66-0.010 0.165-0.015 0.329-0.015 0.498 0 0.167 0.007 0.333 0.017 0.497 0.082 1.335 0.489 2.582 1.149 3.66 0.667 1.099 1.589 2.020 2.683 2.689 1.199 0.716 2.598 1.137 4.087 1.147h0.12c4.229-0.029 7.665-3.327 7.927-7.493 0.009-0.16 0.020-0.331 0.020-0.49s0-0.33-0.011-0.489zM8.001 10.427v2.553c0.064 1.56-0.38 1.82-0.913 1.844-0.023 0-0.044 0.002-0.067 0.003-3.037-0.43-5.439-2.838-5.856-5.882-0.044-0.309-0.067-0.625-0.067-0.947 0-0.32 0.023-0.635 0.067-0.945 0.417-3.040 2.812-5.447 5.847-5.88l0.077 0.007c0.533 0.029 0.977 0.287 0.913 1.843v2.552c-0.007 1.049 0.597 2.048 1.238 2.427-0.641 0.373-1.245 1.25-1.239 2.426z"></path>
</svg>
