<!-- Generated by IcoMoon.io -->
<svg version="1.1" xmlns="http://www.w3.org/2000/svg" width="16" height="16" viewBox="0 0 16 16">
<title>brave</title>
<path fill="#fb542b" d="M14.412 4.019l0.415 1.191c0.011 0.032 0.018 0.070 0.018 0.108 0 0.030-0.004 0.059-0.011 0.087l0.001-0.002-0.017 0.065-0.048 0.183-0.171 0.653-0.521 1.981c-0.409 1.558-0.677 2.584-0.741 2.839-0.351 1.391-0.63 1.875-1.531 2.511-0.789 0.557-2.435 1.676-2.752 1.874-0.048 0.030-0.084 0.054-0.118 0.078l0.010-0.007-0.125 0.085c-0.11 0.079-0.235 0.154-0.366 0.22l-0.016 0.007c-0.15 0.070-0.293 0.109-0.439 0.109s-0.289-0.039-0.439-0.109c-0.147-0.072-0.272-0.148-0.39-0.232l0.008 0.006-0.125-0.085c-0.019-0.014-0.054-0.037-0.090-0.060l-0.018-0.011c-0.317-0.199-1.963-1.317-2.752-1.874-0.901-0.636-1.179-1.119-1.531-2.511-0.065-0.255-0.333-1.281-0.738-2.828l-0.743-2.829-0.017-0.065c-0.007-0.025-0.011-0.054-0.011-0.084 0-0.039 0.007-0.076 0.019-0.111l-0.001 0.002 0.415-1.191-0.311-0.768c-0.015-0.037-0.024-0.079-0.024-0.124 0-0.087 0.034-0.166 0.088-0.225l-0 0 0.081-0.087c0.065-0.069 0.138-0.147 0.219-0.231 0.231-0.242 0.473-0.492 0.718-0.737 0.234-0.235 0.549-0.361 0.916-0.405 0.095-0.011 0.206-0.017 0.318-0.017 0.215 0 0.425 0.022 0.628 0.065l-0.020-0.003 1.207-1.375c0.060-0.069 0.148-0.112 0.247-0.112 0 0 0 0 0 0h4.692c0.095 0 0.184 0.041 0.247 0.112l1.207 1.375c0.183-0.039 0.393-0.061 0.608-0.061 0.112 0 0.222 0.006 0.331 0.018l-0.013-0.001c0.368 0.043 0.682 0.169 0.916 0.405 0.326 0.329 0.651 0.665 0.972 1.005l0.025 0.027c0.109 0.117 0.133 0.253 0.085 0.371zM13.751 4.118c-0.012-0.032-0.018-0.070-0.018-0.108 0-0.045 0.009-0.088 0.025-0.126l-0.001 0.002 0.279-0.687-0.151-0.159c-0.245-0.257-0.476-0.494-0.709-0.728l0.001 0.001c-0.116-0.116-0.295-0.188-0.527-0.215-0.071-0.007-0.154-0.012-0.238-0.012-0.159 0-0.315 0.015-0.466 0.045l0.015-0.002c-0.053 0.009-0.102 0.019-0.144 0.029l-0.046 0.011c-0.026 0.008-0.057 0.012-0.088 0.012-0.098 0-0.186-0.043-0.246-0.112l-0-0-1.238-1.41h-4.395l-1.238 1.41c-0.061 0.069-0.149 0.112-0.247 0.112-0.031 0-0.061-0.004-0.090-0.012l0.002 0.001c-0.045-0.013-0.109-0.027-0.174-0.038l-0.016-0.002c-0.136-0.027-0.292-0.042-0.452-0.042-0.083 0-0.166 0.004-0.247 0.012l0.010-0.001c-0.233 0.027-0.412 0.099-0.527 0.215-0.282 0.283-0.562 0.571-0.838 0.863l-0.021 0.022 0.279 0.687c0.015 0.037 0.024 0.080 0.024 0.124 0 0.039-0.007 0.076-0.019 0.111l0.001-0.002-0.423 1.213 0.039 0.15 0.171 0.653 0.521 1.982c-0.689-3.153-0.433-2.2-0.18-1.245l0.923 4.091c0.316 1.252 0.517 1.601 1.272 2.134 0.78 0.551 2.418 1.663 2.722 1.855 0.038 0.024 0.078 0.050 0.128 0.085l0.125 0.085c0.127 0.086 0.212 0.138 0.291 0.175 0.070 0.033 0.125 0.047 0.162 0.047s0.091-0.015 0.162-0.047c0.079-0.037 0.164-0.089 0.291-0.175l0.125-0.085c0.051-0.034 0.090-0.061 0.128-0.085 0.304-0.191 1.942-1.303 2.722-1.855 0.755-0.533 0.956-0.882 1.272-2.134 0.065-0.259 0.333-1.283 0.74-2.834l0.734-2.796zM11.307 2.816c0 0 1.719 2.085 1.719 2.531s-0.216 0.563-0.433 0.795l-1.289 1.373c-0.122 0.13-0.375 0.327-0.227 0.681s0.369 0.806 0.125 1.263-0.665 0.763-0.933 0.713-0.9-0.382-1.132-0.533-0.968-0.761-0.968-0.993c0-0.233 0.761-0.651 0.901-0.747s0.781-0.463 0.795-0.607c0.013-0.145 0.008-0.187-0.181-0.544s-0.53-0.833-0.473-1.15 0.606-0.481 0.998-0.63 1.147-0.429 1.241-0.473c0.094-0.044 0.070-0.085-0.216-0.113s-1.096-0.135-1.461-0.033-0.99 0.258-1.040 0.34c-0.051 0.083-0.095 0.085-0.043 0.37s0.319 1.65 0.345 1.893 0.077 0.403-0.184 0.463-0.699 0.163-0.85 0.163-0.589-0.104-0.85-0.163c-0.261-0.060-0.21-0.22-0.184-0.463s0.293-1.608 0.345-1.893 0.007-0.287-0.043-0.37-0.675-0.238-1.040-0.34-1.176 0.006-1.461 0.033c-0.285 0.027-0.31 0.069-0.216 0.113s0.849 0.324 1.241 0.473 0.941 0.313 0.998 0.63-0.284 0.793-0.473 1.15-0.194 0.399-0.181 0.544 0.654 0.513 0.795 0.607c0.141 0.095 0.901 0.513 0.901 0.747s-0.736 0.842-0.968 0.993-0.863 0.483-1.132 0.533c-0.269 0.051-0.689-0.255-0.933-0.713s-0.025-0.909 0.125-1.263-0.105-0.551-0.227-0.681l-1.289-1.373c-0.217-0.231-0.433-0.349-0.433-0.795s1.719-2.531 1.719-2.531 1.45 0.278 1.645 0.278 0.619-0.163 1.010-0.295 0.652-0.132 0.652-0.132 0.261 0.001 0.652 0.132 0.815 0.295 1.010 0.295 1.645-0.278 1.645-0.278zM10.019 10.792c0.107 0.067 0.041 0.193-0.055 0.261s-1.399 1.081-1.525 1.193-0.312 0.297-0.439 0.297-0.312-0.185-0.439-0.297-1.429-1.124-1.525-1.193-0.162-0.195-0.055-0.261 0.439-0.235 0.899-0.474 1.031-0.441 1.121-0.441 0.661 0.203 1.121 0.441 0.792 0.407 0.899 0.474z"></path>
</svg>
