<!-- Generated by IcoMoon.io -->
<svg version="1.1" xmlns="http://www.w3.org/2000/svg" width="16" height="16" viewBox="0 0 16 16">
<title>breaker</title>
<path fill="#003dad" d="M9.037 8.616c0.14 0 0.257 0.011 0.39 0.037 0.695 0.137 1.265 0.643 1.497 1.304 0.067 0.213 0.156 0.531 0.213 0.75l0.074 0.289 0.297-0.006c2.368-0.050 4.304-1.977 4.304-4.364 0.001-3.617-3.016-6.626-7.625-6.626-1.901 0.006-3.704 0.697-5.069 1.81-1.789 1.467-2.931 3.695-2.931 6.191 0.001 0.64 0.079 1.284 0.223 1.879 0.525 2.179 1.94 4.010 3.839 5.085 1.149 0.647 2.523 1.031 3.939 1.035 0.347 0 0.701-0.024 1.036-0.066 2.084-0.27 3.915-1.341 5.177-2.893l0.083-0.101-0.16-0.579-0.309 0.081c-0.957 0.254-1.939 0.385-2.975 0.384-0.829 0-1.619-0.085-2.399-0.25-0.703-0.141-1.274-0.653-1.499-1.32-0.073-0.21-0.105-0.405-0.104-0.639-0.007-0.521 0.171-0.95 0.494-1.317 0.366-0.421 0.905-0.685 1.505-0.685zM8.187 0.75c4.265 0 6.875 2.74 6.875 5.875 0 1.874-1.445 3.413-3.279 3.598-0.049-0.174-0.101-0.357-0.146-0.497-1.161-3.638-3.926-6.455-7.484-7.755 1.157-0.785 2.52-1.226 4.034-1.221zM0.937 8.001c0-2.189 0.97-4.151 2.504-5.482 2.918 0.935 5.309 2.931 6.705 5.581-0.181-0.080-0.373-0.141-0.573-0.181-0.813-0.169-1.674-0.263-2.538-0.263-2.16 0.004-4.23 0.573-6.001 1.55-0.065-0.391-0.098-0.789-0.098-1.205zM8.486 13.311c0.816 0.171 1.684 0.265 2.553 0.265 0.664 0 1.324-0.055 1.965-0.156-1.013 0.901-2.279 1.521-3.679 1.743-0.533-0.625-0.995-1.3-1.381-2.021 0.173 0.073 0.354 0.13 0.543 0.169zM8.43 15.247c-0.080 0.003-0.161 0.004-0.243 0.004-1.217 0.004-2.324-0.283-3.329-0.806 0.289-1.271 0.781-2.45 1.447-3.518 0.023 0.196 0.066 0.391 0.124 0.565 0.447 1.361 1.135 2.642 2.001 3.755zM6.969 8.805c-1.303 1.46-2.287 3.275-2.784 5.243-1.429-0.947-2.501-2.388-2.978-4.078 1.724-1.005 3.688-1.567 5.829-1.564 0.12 0 0.239 0.001 0.357 0.005-0.155 0.116-0.297 0.247-0.425 0.394z"></path>
</svg>
