<!-- Generated by IcoMoon.io -->
<svg version="1.1" xmlns="http://www.w3.org/2000/svg" width="16" height="16" viewBox="0 0 16 16">
<title>broadcom</title>
<path fill="#cc092f" d="M8 0c-4.42 0-8 3.58-8 8 0.004 0.863 0.143 1.693 0.399 2.47l-0.016-0.057c0.183-0.080 0.377-0.173 0.571-0.253 0.913-0.36 1.753-0.24 2.587 0.267 0 0 0.307 0.187 0.4 0.24 0.393 0.253 0.76 0.487 1.113 0.487 0.34 0 0.673-0.093 0.813-0.747 0.22-1.020 0.76-3.533 0.993-4.773 0.14-0.733 0.213-1.127 0.293-1.393 0.133-0.473 0.387-0.727 0.74-0.767 0 0 0.060-0.007 0.107-0.007s0.1 0.007 0.1 0.007c0.36 0.040 0.613 0.293 0.753 0.767 0.073 0.267 0.147 0.66 0.287 1.393 0.233 1.24 0.773 3.753 0.993 4.773 0.14 0.653 0.473 0.747 0.813 0.747 0.353 0 0.72-0.233 1.113-0.487 0.093-0.053 0.4-0.24 0.4-0.24 0.84-0.507 1.673-0.627 2.587-0.267 0.2 0.080 0.393 0.173 0.58 0.26 0.237-0.722 0.373-1.553 0.373-2.415 0-0.002 0-0.003 0-0.005v0c0-4.42-3.58-8-8-8zM8 6.527c-0.267 1.34-0.667 3.28-0.867 4.14-0.24 1.133-1 1.773-2.080 1.773-0.72 0-1.293-0.36-1.8-0.673-0.253-0.167-0.533-0.347-0.833-0.433-0.15-0.054-0.324-0.085-0.504-0.085-0.158 0-0.31 0.024-0.453 0.067l0.011-0.003c-0.244 0.079-0.451 0.167-0.649 0.271l0.022-0.011c1.341 2.644 4.039 4.425 7.153 4.427h0c3.116-0.003 5.814-1.787 7.132-4.388l0.021-0.046c-0.175-0.093-0.383-0.181-0.598-0.252l-0.029-0.008c-0.137-0.044-0.296-0.070-0.46-0.070-0.172 0-0.337 0.028-0.491 0.080l0.011-0.003c-0.307 0.107-0.587 0.287-0.84 0.453-0.507 0.313-1.080 0.673-1.8 0.673-1.080 0-1.833-0.64-2.080-1.773-0.2-0.86-0.867-4.14-0.867-4.14z"></path>
</svg>
