<!-- Generated by IcoMoon.io -->
<svg version="1.1" xmlns="http://www.w3.org/2000/svg" width="16" height="16" viewBox="0 0 16 16">
<title>buddy</title>
<path fill="#1a86fd" d="M14.467 3.538l-5.835-3.369c-0.181-0.106-0.398-0.169-0.63-0.169s-0.45 0.063-0.636 0.172l0.006-0.003-5.837 3.369c-0.379 0.222-0.63 0.628-0.63 1.092 0 0 0 0 0 0v0 6.739c0 0.45 0.24 0.867 0.63 1.091l5.837 3.371c0.181 0.106 0.398 0.169 0.63 0.169s0.449-0.063 0.636-0.172l-0.006 0.003 5.837-3.37c0.39-0.225 0.63-0.641 0.63-1.092v-6.739c0-0.45-0.24-0.867-0.631-1.092zM9.5 8.706l-2.536 2.536-0.901-0.901 2.536-2.537-2.536-2.537 0.901-0.9 3.437 3.437z"></path>
</svg>
