<!-- Generated by IcoMoon.io -->
<svg version="1.1" xmlns="http://www.w3.org/2000/svg" width="16" height="16" viewBox="0 0 16 16">
<title>buffer</title>
<path fill="#168eea" d="M15.856 12.16c0.191 0.095 0.191 0.178 0 0.249l-7.571 3.482c-0.191 0.097-0.38 0.097-0.569 0l-7.573-3.482c-0.189-0.071-0.189-0.155 0-0.25l1.815-0.82c0.189-0.093 0.38-0.093 0.568 0l5.191 2.382c0.19 0.093 0.38 0.093 0.569 0l5.191-2.383c0.189-0.093 0.379-0.093 0.568 0zM15.856 7.857c0.191 0.095 0.191 0.19 0 0.284l-7.571 3.485c-0.191 0.069-0.38 0.069-0.569 0l-7.573-3.487c-0.189-0.095-0.189-0.189 0-0.284l1.815-0.818c0.189-0.096 0.38-0.096 0.568 0l5.191 2.38c0.19 0.096 0.38 0.096 0.569 0l5.191-2.38c0.189-0.096 0.379-0.096 0.568 0zM0.143 3.84c-0.19-0.095-0.19-0.178 0-0.25l7.573-3.483c0.189-0.093 0.38-0.093 0.568 0l7.572 3.487c0.191 0.071 0.191 0.155 0 0.25l-7.571 3.482c-0.191 0.095-0.38 0.095-0.569 0z"></path>
</svg>
