<!-- Generated by IcoMoon.io -->
<svg version="1.1" xmlns="http://www.w3.org/2000/svg" width="16" height="16" viewBox="0 0 16 16">
<title>c</title>
<path fill="#a8b9cc" d="M11.349 6.144c0 0-0.257-2.195-2.637-2.257s-3.601 1.647-3.601 4.087 1.351 4.392 3.665 4.392c2.315 0 2.573-2.44 2.573-2.44l4.437 0.244c0 0 0.261 2.204-1.596 3.885s-4.136 1.956-5.728 1.945c-1.592-0.012-3.799 0.023-5.933-1.979-2.133-2.001-2.496-3.945-2.496-5.855s0.405-4.441 2.943-6.36c1.724-1.303 3.473-1.783 5.221-1.783 7.3-0.001 7.789 6.165 7.789 6.165z"></path>
</svg>
