<!-- Generated by IcoMoon.io -->
<svg version="1.1" xmlns="http://www.w3.org/2000/svg" width="16" height="16" viewBox="0 0 16 16">
<title>cakephp</title>
<path fill="#d33c43" d="M0 9.25v2.497c0 1.378 3.58 2.495 8 2.495v-2.495c-4.42 0-8-1.12-8-2.495zM14.256 10.805l-6.256-1.555v2.497l6.256 1.555c1.091-0.427 1.744-0.967 1.744-1.555v-2.497c0 0.588-0.653 1.128-1.744 1.555zM8 6.755v2.495c-4.418 0-8-1.118-8-2.496v-2.501c0-1.376 3.58-2.495 8-2.495 4.417 0 8 1.12 8 2.496v2.5c0 0.589-0.653 1.127-1.744 1.556l-6.256-1.557z"></path>
</svg>
