<!-- Generated by IcoMoon.io -->
<svg version="1.1" xmlns="http://www.w3.org/2000/svg" width="16" height="16" viewBox="0 0 16 16">
<title>canva</title>
<path fill="#00c4cc" d="M8 0c-4.418 0-8 3.582-8 8s3.582 8 8 8 8-3.582 8-8-3.582-8-8-8zM4.641 5.12c0.503 0 0.891 0.366 0.937 0.8 0.046 0.389-0.114 0.731-0.548 0.937-0.229 0.114-0.32 0.115-0.366 0.046-0.023-0.046 0-0.091 0.046-0.137 0.411-0.343 0.411-0.617 0.365-1.005-0.023-0.252-0.205-0.412-0.389-0.412-0.8 0-1.943 1.783-1.783 3.086 0.069 0.503 0.366 1.097 1.006 1.097 0.205 0 0.433-0.069 0.64-0.16 0.333-0.176 0.533-0.313 0.731-0.533-0.049-0.59 0.469-1.364 1.234-1.364 0.343 0 0.617 0.137 0.64 0.389 0.045 0.343-0.251 0.388-0.343 0.388s-0.252-0.023-0.252-0.113c-0.023-0.092 0.206-0.047 0.183-0.252-0.023-0.137-0.16-0.183-0.297-0.183-0.48 0-0.754 0.663-0.686 1.074 0.023 0.183 0.115 0.366 0.298 0.366 0.137 0 0.343-0.207 0.411-0.503 0.045-0.205 0.229-0.343 0.389-0.343 0.068 0 0.113 0.023 0.137 0.114v0.092c-0.023 0.091-0.091 0.365-0.068 0.434 0 0.046 0.023 0.114 0.113 0.114 0.061 0 0.291-0.12 0.518-0.306 0.078-0.393 0.169-0.865 0.169-0.905 0.023-0.16 0.091-0.32 0.411-0.32 0.069 0 0.114 0.023 0.137 0.114v0.092l-0.091 0.411c0.297-0.389 0.731-0.663 1.005-0.663 0.115 0 0.206 0.068 0.206 0.183 0 0.069 0 0.183-0.046 0.297-0.091 0.251-0.206 0.64-0.275 0.983 0 0.091 0.023 0.183 0.138 0.183s0.457-0.137 0.731-0.503l0.005-0.003c-0.001-0.045-0.005-0.089-0.005-0.135 0-0.274 0.023-0.503 0.069-0.663 0.045-0.183 0.274-0.343 0.411-0.343 0.069 0 0.137 0.046 0.137 0.114 0 0.023 0 0.069-0.023 0.091-0.091 0.297-0.16 0.571-0.16 0.846 0 0.16 0.023 0.388 0.068 0.525 0 0.023 0.023 0.046 0.047 0.046 0.045 0 0.365-0.297 0.593-0.685-0.205-0.137-0.32-0.366-0.32-0.64 0-0.48 0.297-0.731 0.572-0.731 0.229 0 0.411 0.16 0.411 0.48 0 0.205-0.069 0.433-0.183 0.64h0.068c0.005 0 0.011 0 0.017 0 0.147 0 0.279-0.061 0.372-0.16l0-0c0.021-0.034 0.052-0.061 0.088-0.077l0.001-0c0.223-0.283 0.553-0.493 0.94-0.493 0.32 0 0.616 0.137 0.639 0.388 0.045 0.343-0.252 0.412-0.343 0.412l-0.001-0.001c-0.092 0-0.251-0.023-0.251-0.115s0.206-0.045 0.183-0.251c-0.023-0.137-0.16-0.183-0.297-0.183-0.457 0-0.753 0.594-0.685 1.074 0.023 0.183 0.114 0.389 0.297 0.389 0.137 0 0.343-0.205 0.435-0.503 0.045-0.183 0.229-0.343 0.389-0.343 0.069 0 0.113 0.023 0.137 0.114 0 0.046 0 0.137-0.091 0.435-0.113 0.205-0.114 0.32-0.091 0.411 0.023 0.183 0.114 0.32 0.206 0.389 0.023 0.023 0.045 0.068 0.045 0.068 0 0.046-0.023 0.092-0.091 0.092-0.023 0-0.045 0-0.069-0.023-0.343-0.137-0.48-0.365-0.526-0.594-0.137 0.16-0.297 0.251-0.48 0.251-0.297 0-0.593-0.274-0.64-0.617-0.003-0.029-0.004-0.062-0.004-0.096 0-0.12 0.020-0.236 0.056-0.344l-0.002 0.008c-0.135 0.087-0.281 0.135-0.415 0.135h-0.113c-0.298 0.435-0.618 0.732-0.847 0.869-0.073 0.040-0.159 0.065-0.25 0.069l-0.001 0c-0.045 0-0.114-0.023-0.137-0.069-0.063-0.101-0.104-0.261-0.129-0.445-0.321 0.351-0.763 0.537-0.969 0.537-0.229 0-0.365-0.137-0.388-0.367v-0.251c0.068-0.503 0.251-0.8 0.251-0.891-0.001-0.025-0.021-0.045-0.046-0.047l-0-0c-0.16 0-0.685 0.549-0.777 0.915l-0.069 0.297c-0.045 0.206-0.251 0.343-0.388 0.343-0.069 0-0.115-0.023-0.137-0.115v-0.091l0.031-0.155c-0.29 0.207-0.58 0.339-0.717 0.339-0.205 0-0.32-0.115-0.343-0.275-0.137 0.183-0.297 0.275-0.503 0.275-0.235 0-0.464-0.16-0.575-0.395-0.163 0.183-0.349 0.369-0.568 0.509-0.32 0.206-0.685 0.366-1.12 0.366-0.388 0-0.731-0.206-0.914-0.389-0.275-0.251-0.434-0.64-0.457-1.006-0.137-1.12 0.549-2.56 1.6-3.2 0.252-0.137 0.503-0.229 0.755-0.229zM11.155 7.314c-0.069 0-0.115 0.115-0.115 0.229 0 0.183 0.091 0.389 0.206 0.503 0.043-0.116 0.068-0.249 0.068-0.389v-0c0-0.229-0.091-0.343-0.159-0.343z"></path>
</svg>
