<!-- Generated by IcoMoon.io -->
<svg version="1.1" xmlns="http://www.w3.org/2000/svg" width="16" height="16" viewBox="0 0 16 16">
<title>cashapp</title>
<path fill="#00c244" d="M15.727 2.313c-0.351-0.948-1.086-1.682-2.010-2.026l-0.024-0.008c-0.873-0.28-1.667-0.28-3.28-0.28h-4.84c-1.6 0-2.407 0-3.267 0.267-0.949 0.353-1.683 1.090-2.026 2.016l-0.008 0.024c-0.273 0.867-0.273 1.667-0.273 3.267v4.847c0 1.607 0 2.4 0.267 3.267 0.351 0.948 1.086 1.682 2.010 2.026l0.023 0.008c0.867 0.273 1.667 0.273 3.267 0.273h4.853c1.607 0 2.407 0 3.267-0.267 0.952-0.351 1.689-1.088 2.032-2.016l0.008-0.024c0.273-0.867 0.273-1.667 0.273-3.267v-4.833c0-1.607 0-2.407-0.273-3.273zM11.613 5.4l-0.62 0.62c-0.059 0.055-0.139 0.089-0.227 0.089-0.084 0-0.161-0.031-0.22-0.083l0 0c-0.575-0.488-1.326-0.786-2.146-0.787h-0c-0.647 0-1.293 0.213-1.293 0.807 0 0.6 0.693 0.8 1.493 1.1 1.4 0.467 2.56 1.053 2.56 2.427 0 1.493-1.16 2.52-3.053 2.633l-0.173 0.8c-0.032 0.15-0.163 0.26-0.32 0.26-0 0-0 0-0 0h-1.193l-0.060-0.007c-0.15-0.035-0.26-0.167-0.26-0.325 0-0.024 0.003-0.048 0.007-0.070l-0 0.002 0.187-0.847c-0.75-0.192-1.397-0.556-1.922-1.049l0.002 0.002v-0.007c-0.058-0.058-0.094-0.138-0.094-0.227s0.036-0.169 0.094-0.227l0-0 0.667-0.647c0.058-0.055 0.137-0.088 0.223-0.088s0.165 0.034 0.224 0.088l-0-0c0.607 0.573 1.42 0.893 2.26 0.88 0.867 0 1.447-0.367 1.447-0.947s-0.587-0.733-1.693-1.147c-1.173-0.42-2.287-1.013-2.287-2.4 0-1.613 1.34-2.4 2.927-2.473l0.167-0.82c0.032-0.146 0.16-0.253 0.313-0.253 0.002 0 0.005 0 0.007 0h1.186l0.067 0.007c0.173 0.040 0.287 0.207 0.247 0.38l-0.18 0.913c0.6 0.2 1.167 0.513 1.653 0.927l0.013 0.013c0.127 0.133 0.127 0.333 0 0.453z"></path>
</svg>
