<!-- Generated by IcoMoon.io -->
<svg version="1.1" xmlns="http://www.w3.org/2000/svg" width="16" height="16" viewBox="0 0 16 16">
<title>cassandra</title>
<path fill="#1287b1" d="M11.673 4.357c-0.001 0.002-0.165 0.171-0.258 0.272-0.244 0.265-0.613 0.65-0.875 0.747h-0.003c-0.035-0.012-0.069-0.023-0.106-0.033l0.469-0.95-0.005 0.008c-0.015 0.029-0.479 0.943-1.111 0.812l-0.001 0.001c-0.009-0.002-0.017 0.001-0.027-0.001 0.303-0.387 0.42-0.742 0.42-0.742s-0.504 0.809-1.127 0.59c-0.015-0.005-0.027-0.016-0.033-0.031l-0-0c-0.002-0.008-0.004-0.017-0.004-0.027s0.001-0.019 0.004-0.027l-0 0.001c0.007-0.027 0.027-0.061 0.045-0.093 0.063-0.117 0.171-0.245 0.171-0.245s-0.104 0.101-0.244 0.197l-0.001 0.001c-0.105 0.071-0.23 0.139-0.347 0.157-0.017 0.003-0.036 0.005-0.056 0.005s-0.039-0.002-0.058-0.005l0.002 0c-0.143-0.025-0.139-0.167-0.099-0.303v-0.001c0.040-0.136 0.116-0.267 0.116-0.267s-0.127 0.199-0.265 0.392c-0.107 0.149-0.207 0.264-0.277 0.316l-0.080 0.003c-0.042-0.117 0.067-0.504 0.067-0.507-0.072 0.114-0.141 0.211-0.215 0.304l0.005-0.007c-0.066 0.085-0.14 0.159-0.224 0.222l-0.003 0.002h-0.018c-0.055 0.005-0.107 0.013-0.159 0.021-0.023-0.021-0.038-0.050-0.043-0.083l-0-0.001c-0.028-0.179 0.082-0.504 0.083-0.508-0.001 0.004-0.060 0.173-0.14 0.335v0.003c-0.021 0.045-0.047 0.080-0.071 0.119-0.057 0.091-0.117 0.163-0.174 0.146-0.085-0.025-0.135-0.135-0.164-0.237s-0.038-0.199-0.038-0.199-0.021 0.167-0.078 0.323c-0.022 0.068-0.055 0.127-0.097 0.178l0.001-0.001c-0.016 0.018-0.038 0.024-0.057 0.037-0.659 0.119-1.245 0.295-1.8 0.53l0.055-0.021c-0.149 0.055-0.297 0.105-0.449 0.171-0.5 0.213-1.019 0.484-1.562 0.832-0.641 0.418-1.199 0.845-1.721 1.309l0.014-0.013c-0.299 0.262-0.604 0.547-0.917 0.86 2.372-1.278 3.313-3.162 7.755-3.33 3.363-0.127 4.933 1.425 5.452 1.447 1.304 0.055 2.171-0.933 2.448-1.297 0.075-0.095 0.119-0.158 0.122-0.163-0.007 0.007-0.219 0.249-0.521 0.481l-0.004 0.003c-0.307 0.234-0.7 0.453-1.051 0.4h-0.001c-0.045-0.007-0.092-0.005-0.135-0.021 0.495-0.289 0.824-0.793 0.988-1.063 0.051-0.083 0.155-0.24 0.155-0.24s-1.164 1.192-2.031 1.112l-0.001 0.001c-0.034-0.003-0.070 0.005-0.103-0.003 0.378-0.297 0.657-0.696 0.852-1.033v-0.002h0.001c0.211-0.365 0.321-0.657 0.323-0.661-0.003 0.005-0.217 0.332-0.511 0.691l-0.007 0.007c-0.293 0.36-0.665 0.747-0.976 0.866-0.047 0.017-0.093 0.044-0.137 0.048 0.723-0.639 1.026-1.548 1.026-1.548s-0.731 1.063-1.351 1.259c-0.037 0.011-0.076 0.031-0.113 0.036 0.379-0.341 0.579-0.613 0.705-0.827v-0.001c0.159-0.269 0.187-0.433 0.187-0.433l-0.003 0.003c-0.068 0.088-0.127 0.16-0.188 0.231l0.007-0.009-0.011 0.011c-0.17 0.2-0.43 0.489-0.697 0.719l-0.003 0.003c-0.063 0.054-0.133 0.109-0.205 0.16l-0.009 0.006c-0.020 0.014-0.040 0.031-0.059 0.043-0.052 0.033-0.112 0.064-0.174 0.089l-0.008 0.003c-0.015 0.007-0.029 0.015-0.043 0.020-0.045-0.030-0.088-0.061-0.137-0.090-0.031 0.040-0.064 0.078-0.095 0.117h-0.001c-0.013-0.004-0.029-0.004-0.042-0.011 0.572-0.623 0.96-1.413 0.96-1.413l-0.003 0.003c-0.005 0.007-0.795 1.073-1.153 1.14-0.047-0.023-0.093-0.047-0.143-0.069 0.004-0.040 0.014-0.077 0.030-0.11l-0.001 0.002c0.081-0.189 0.31-0.478 0.31-0.478s-0.062 0.047-0.082 0.064c-0.060 0.052-0.126 0.104-0.194 0.153l-0.008 0.006c-0.037 0.027-0.076 0.048-0.115 0.072-0.043 0.027-0.085 0.051-0.125 0.070-0.051 0.029-0.11 0.049-0.173 0.057l-0.002 0c-0.029 0-0.055-0.003-0.073-0.018 0.302-0.185 0.819-1.085 0.822-1.091zM8.48 5.801c-0.071-0.002-0.155-0.003-0.238-0.003-0.13 0-0.26 0.002-0.389 0.007l0.019-0.001c-0.191 0.007-0.367 0.022-0.545 0.035l-0.001 0.001c-0.187 0.082-0.365 0.179-0.522 0.306 0.015 0.033 0.023 0.071 0.023 0.112v0c-0.001 0.046-0.012 0.090-0.032 0.128l0.001-0.002 0.59 0.428 0.015-0.009-0.24-0.843 0.415 0.743c0.013-0.005 0.028-0.009 0.042-0.013l-0.013-0.824 0.265 0.775 0.317-0.766 0.012 0.845c0.003 0.001 0.005 0.004 0.008 0.005l0.475-0.671-0.242 0.813 0.005 0.007 0.694-0.461-0.505 0.7v0.005l0.633-0.227c0.009-0.011 0.020-0.020 0.028-0.031-0.036-0.044-0.057-0.102-0.057-0.164 0-0.145 0.118-0.263 0.263-0.263 0.021 0 0.041 0.002 0.060 0.007l-0.002-0c0.079-0.163 0.139-0.336 0.179-0.513-0.369-0.068-0.802-0.113-1.243-0.126l-0.013-0zM6.809 5.889l-0.013 0.001c-0.205 0.024-0.404 0.052-0.595 0.083s-0.375 0.067-0.549 0.107l-0.009 0.001c0.077 0.259 0.196 0.504 0.354 0.72 0.072-0.159 0.163-0.307 0.268-0.441-0.011-0.030-0.018-0.065-0.018-0.101 0-0.161 0.13-0.291 0.291-0.291 0.038 0 0.075 0.007 0.109 0.021l-0.002-0.001c0.051-0.039 0.111-0.066 0.165-0.1zM9.782 5.951c-0.013 0.201-0.052 0.389-0.113 0.566l0.005-0.015c0.053 0.048 0.086 0.117 0.086 0.194 0 0.145-0.118 0.263-0.263 0.263-0.015 0-0.029-0.001-0.043-0.004l0.002 0c-0.107 0.16-0.228 0.297-0.364 0.418l-0.002 0.002 0.441 0.023-0.663 0.157c-0.017 0.012-0.031 0.028-0.048 0.039 0.395 0.063 0.743 0.227 1.028 0.464l-0.004-0.003c0.213-0.383 0.336-0.823 0.336-1.293 0-0.357-0.158-0.619-0.397-0.811zM5.57 6.101c-0.197 0.047-0.387 0.098-0.567 0.153-0.089 0.144-0.141 0.319-0.141 0.505 0 0 0 0.001 0 0.001v-0c0 1.081 0.645 2.011 1.571 2.427l0.001-0.008c-0.151-0.151-0.28-0.324-0.381-0.515l-0.006-0.012c-0.016 0.002-0.035 0.004-0.054 0.004-0.211 0-0.381-0.171-0.381-0.381 0-0.148 0.085-0.277 0.209-0.34l0.002-0.001c-0.010-0.077-0.016-0.167-0.016-0.258 0-0.239 0.040-0.469 0.113-0.684l-0.004 0.015c-0.177-0.257-0.3-0.564-0.345-0.896l-0.001-0.011zM10.657 6.119c0.093 0.273 0.15 0.561 0.15 0.862 0 1.627-1.469 2.945-3.28 2.945s-3.28-1.319-3.28-2.945c0-0.157 0.015-0.312 0.042-0.463-0.518 0.218-0.967 0.471-1.383 0.741-0.143 0.259-0.212 0.529-0.189 0.8 0.057 0.657 0.634 1.205 1.516 1.576l-0.171-0.045c-1.527-0.431-2.738 0.335-4.063-0.329 0.307 0.243 0.656 0.478 1.665 0.481 0.342 0.001 1.439-0.053 1.641 0.124s-0.681 1.009-0.681 1.009 1.493-1.265 1.639-0.833c0.091 0.268-0.428 0.984-0.428 0.984s0.522-0.707 0.909-0.858c0.267-0.104 0.49-0.091 0.681 0.177 0.127 0.177-0.606 1.035-0.606 1.035s0.984-0.959 1.16-0.909c0.177 0.051 0 0.909 0 0.909s0.363-0.871 0.557-0.935c0.265-0.089-0.606 2.020-0.606 2.020s1.063-1.95 1.262-1.994c0.34-0.076 0.568 1.362 0.568 1.362s-0.166-1.257 0.013-1.337c1.129-0.511 0.479 2.171 0.479 2.171s0.739-1.82 0.285-2.224c1.199 0.795 1.052 2.224 1.052 2.224s0.315-0.68-0.569-2.353c0.48-0.025 1.2 1.243 1.2 1.243s-0.782-1.387-0.252-1.413c1.053-0.049 1.16 1.843 1.16 1.843s0.316-0.265-0.53-2.12c0.539-0.345 1.843 1.716 1.843 1.716s-1.203-2.011-1.009-2.146 0.9 0.64 0.9 0.64-0.539-0.74-0.396-0.815c0.143-0.076 1.575 1.471 1.575 1.471s-1.263-1.514-1.045-1.7c0.219-0.185 1.145 0.523 1.145 0.523s-1.423-0.933-1.145-1.078c0.387-0.201 1.49 0.48 1.49 0.48s-0.664-0.547-0.555-0.68c0.109-0.135 1.413 0.857 1.413 0.857s-1.152-0.909-1.211-1.137c-0.059-0.227 0.908 0.077 0.908 0.077s-1.068-0.496-1.085-0.639c-0.017-0.143 0.707 0.159 0.707 0.159s-0.993-0.816-1.237-0.151c-0.056 0.106-0.125 0.2-0.189 0.3 0.062-0.18 0.090-0.362 0.073-0.547-0.008-0.071-0.020-0.134-0.037-0.195l0.002 0.009c-0.455-0.245-1.134-0.622-2.089-0.891zM6.771 6.422c-0.052 0.078-0.139 0.128-0.238 0.128-0.036 0-0.071-0.007-0.103-0.019l0.002 0.001c-0.036 0.049-0.067 0.101-0.099 0.153l0.851 0.314c0.007-0.009 0.013-0.020 0.021-0.029zM6.332 6.686c-0.063 0.103-0.12 0.211-0.163 0.326 0.080 0.085 0.173 0.157 0.264 0.229l0.615-0.019 0.001-0.003zM9.123 7.047l-0.404 0.309 0.035 0.001c0.134-0.088 0.255-0.193 0.369-0.31zM6.1 7.241c-0.001 0.008-0.005 0.015-0.007 0.023-0.029 0.124-0.045 0.267-0.045 0.414 0 0.079 0.005 0.157 0.014 0.234l-0.001-0.009c0.157 0.032 0.277 0.157 0.3 0.314l0 0.002 0.625-0.401c-0.057-0.020-0.113-0.040-0.167-0.064l-0.701-0.051 0.425-0.093c-0.169-0.107-0.315-0.229-0.443-0.368l-0.001-0.002zM6.629 7.381c0.092 0.057 0.187 0.107 0.287 0.149l0.077-0.016c0-0.013 0.003-0.025 0.004-0.037zM8.709 7.835l0.611 0.6-0.799-0.311 0.469 0.719-0.715-0.555-0.008 0.004 0.231 0.853-0.397-0.757-0.065 0.887-0.269-0.884-0.313 0.841 0.075-0.907-0.011-0.005-0.541 0.768 0.198-0.74c-0.227 0.218-0.406 0.482-0.523 0.778l-0.005 0.015c0.063 0.068 0.131 0.132 0.201 0.193 0.202 0.055 0.433 0.086 0.672 0.086 0.93 0 1.748-0.478 2.223-1.202l0.006-0.010c-0.239-0.168-0.521-0.293-0.825-0.357l-0.015-0.003zM7.085 7.983l-0.719 0.26c0.001 0.012 0.007 0.022 0.007 0.034 0 0 0 0 0 0 0 0.11-0.047 0.21-0.122 0.279l-0 0c0.068 0.145 0.152 0.282 0.25 0.41 0.061-0.162 0.133-0.302 0.218-0.431l-0.005 0.008-0.197 0.159zM9.507 9.843c-0.124 0.033-0.247 0.065-0.373 0.091 0.128-0.027 0.249-0.060 0.373-0.091zM8.781 10c-0.076 0.013-0.15 0.031-0.227 0.042-0.135 0.019-0.261 0.028-0.391 0.041 0.21-0.022 0.416-0.049 0.617-0.083zM7.881 10.113c-0.073 0.005-0.143 0.005-0.216 0.008 0.073-0.005 0.143-0.002 0.216-0.008z"></path>
</svg>
