<!-- Generated by IcoMoon.io -->
<svg version="1.1" xmlns="http://www.w3.org/2000/svg" width="16" height="16" viewBox="0 0 16 16">
<title>castro</title>
<path fill="#00b265" d="M8 0c-4.419 0-8 3.582-8 8s3.581 8 8 8c4.418 0 8-3.582 8-8s-3.582-8-8-8zM7.999 9.327c-0.756 0-1.368-0.613-1.368-1.368s0.613-1.368 1.368-1.368v0c0.756 0 1.368 0.613 1.368 1.368s-0.613 1.368-1.368 1.368v0zM11.329 12.563l-1.341-1.861c0.847-0.624 1.39-1.617 1.39-2.737 0-1.872-1.517-3.389-3.389-3.389s-3.389 1.517-3.389 3.389c0 1.125 0.548 2.122 1.391 2.738l0.010 0.007-1.343 1.862c-1.434-1.045-2.356-2.719-2.356-4.608 0-3.139 2.545-5.684 5.684-5.684 0.001 0 0.001 0 0.002 0h-0c3.139 0 5.684 2.545 5.684 5.684v0c0 0.002 0 0.004 0 0.007 0 1.881-0.916 3.549-2.325 4.581l-0.016 0.011z"></path>
</svg>
