<!-- Generated by IcoMoon.io -->
<svg version="1.1" xmlns="http://www.w3.org/2000/svg" width="16" height="16" viewBox="0 0 16 16">
<title>castorama</title>
<path fill="#0078d7" d="M5.94 10.737c-1.419 0-2.439-1.196-2.439-2.844 0-1.432 0.979-2.73 2.325-2.73 1.517 0 2.363 1.238 2.363 1.238l1.959-2.199c-0.607-0.708-1.732-1.921-4.335-1.921-2.925 0-5.473 2.326-5.473 5.637 0 3.177 2.317 5.688 5.511 5.688 2.57 0 3.715-1.345 4.36-2.086l-1.887-1.979c0 0.001-0.943 1.196-2.384 1.196zM12.189 0v6.659h-1.376c-0.707 0-1.28 0.573-1.28 1.28s0.573 1.28 1.28 1.28v0h1.376v6.781h3.47v-16z"></path>
</svg>
