<!-- Generated by IcoMoon.io -->
<svg version="1.1" xmlns="http://www.w3.org/2000/svg" width="16" height="16" viewBox="0 0 16 16">
<title>centos</title>
<path fill="#262577" d="M8.051 0.044l-2.129 2.143h-3.69v3.623l-2.232 2.197 2.233 2.199v3.593h3.583l2.19 2.157 2.19-2.157h3.62v-3.583l2.185-2.199-2.155-2.168v-3.635h-3.639zM8.051 0.543l1.66 1.671h-1.127v4.294l-0.533 0.537-0.54-0.543v-4.315h-1.093zM2.584 2.537h2.989l-1.249 1.257 2.835 2.853v0.436h-0.532l-2.844-2.801-1.199 1.18zM6.069 2.537h1.090v3.61l-2.339-2.353zM8.937 2.566h1.125l1.22 1.228-2.345 2.359zM10.557 2.566h2.936v2.929l-1.22-1.228-2.827 2.845h-0.509v-0.46l2.841-2.858zM12.273 4.766l1.22 1.229v1.117h-3.551zM3.783 4.775l2.343 2.308h-3.543v-1.127zM2.232 6.303v1.131h4.251l0.581 0.572-0.521 0.513h-4.309v1.191l-1.731-1.703zM13.845 6.348l1.659 1.669-1.689 1.7v-1.197h-4.273l-0.5-0.503 0.55-0.553h4.253zM7.511 7l0.54 0.543 0.124-0.125 0.409-0.412v0.457h0.512l-0.55 0.553 0.5 0.503h-0.479v0.539l-0.561-0.553-0.494 0.487v-0.471h-0.467l0.521-0.513-0.125-0.124-0.455-0.448h0.525zM2.584 8.871h3.601l-2.402 2.367-1.199-1.181zM6.687 8.871h0.472v0.467l-2.936 2.892 1.235 1.216h-2.873v-2.895l1.199 1.18zM8.919 8.871h0.477l2.878 2.895 0.124-0.125 1.066-1.073v2.877h-2.911l1.235-1.217-2.869-2.826zM9.892 8.871h3.571v1.199l-1.19 1.197zM8.005 8.999l0.561 0.553v4.247h1.127l-1.688 1.663-1.689-1.663h1.193v-4.311zM7.159 9.833v3.613h-1.199l-1.235-1.215zM8.919 9.897l2.368 2.333-1.235 1.217h-1.133z"></path>
</svg>
