<!-- Generated by IcoMoon.io -->
<svg version="1.1" xmlns="http://www.w3.org/2000/svg" width="16" height="16" viewBox="0 0 16 16">
<title>chase</title>
<path fill="#117aca" d="M5.727 15.983q-0.123 0-0.22-0.044t-0.185-0.115-0.123-0.176-0.053-0.229l0.018-3.947h10.432l-4.74 4.511h-5.145zM16 10.273q-0.018 0.123-0.053 0.22t-0.123 0.176-0.185 0.123-0.22 0.044h-3.947l-0.018-10.449 4.529 4.758v5.128zM10.273 0.018q0.106 0 0.22 0.044t0.176 0.115 0.115 0.176 0.035 0.229l0.018 3.947h-10.467l4.775-4.511h5.11zM0.018 5.727q-0.018-0.123 0.035-0.22t0.123-0.176 0.176-0.123 0.211-0.044h3.965l-0.018 10.449-4.493-4.758-0.018-5.128z"></path>
</svg>
