<!-- Generated by IcoMoon.io -->
<svg version="1.1" xmlns="http://www.w3.org/2000/svg" width="16" height="16" viewBox="0 0 16 16">
<title>chef</title>
<path fill="#f09820" d="M8.020 0c-3.393 0-6.307 2.113-7.473 5.1l1.273 0.513c0.988-2.511 3.389-4.258 6.199-4.267h0.001c1.493 0 2.88 0.513 3.973 1.313l0.8-1.093c-1.309-0.978-2.959-1.567-4.746-1.567-0.009 0-0.019 0-0.028 0h0.001zM8.020 1.533c-2.742 0.006-5.085 1.706-6.038 4.109l-0.015 0.044 1.273 0.467c0.749-1.93 2.592-3.273 4.748-3.273 0.011 0 0.023 0 0.034 0l-0.002-0zM10.387 2l-0.507 1.28c1.628 0.615 2.832 2.013 3.162 3.722l0.005 0.031h1.387c-0.369-2.312-1.92-4.19-4.003-5.018l-0.044-0.015zM8.020 3.067c-2.732 0.009-4.944 2.226-4.944 4.96 0 2.739 2.221 4.96 4.96 4.96 2.395 0 4.393-1.697 4.858-3.955l0.006-0.032h-1.387c-0.461 1.524-1.848 2.616-3.492 2.627h-0.001c-0.006 0-0.013 0-0.020 0-1.985 0-3.593-1.609-3.593-3.593 0-0.005 0-0.009 0-0.014v0.001c-0-0.004-0-0.009-0-0.013 0-1.985 1.609-3.593 3.593-3.593 0.007 0 0.014 0 0.021 0h-0.001c0.001 0 0.002 0 0.003 0 1.639 0 3.023 1.096 3.458 2.595l0.006 0.025h1.38c-0.453-2.276-2.434-3.967-4.81-3.967-0.013 0-0.026 0-0.038 0l0.002-0zM14.833 3.793l-1.167 0.727c0.47 0.717 0.803 1.565 0.942 2.478l0.004 0.035h1.387c-0.151-1.219-0.566-2.317-1.185-3.27l0.018 0.030zM7.98 4.553c-1.893 0.037-3.413 1.581-3.413 3.479 0 0.494 0.103 0.964 0.289 1.39l-0.009-0.022 1.313-0.58c-0.11-0.235-0.176-0.509-0.18-0.799l-0-0.001c0-1.093 0.907-2.007 2-2.007zM9.26 4.813l-0.513 1.347c0.44 0.18 0.767 0.467 1.020 0.873h1.533c-0.3-1.028-1.050-1.837-2.017-2.212l-0.023-0.008zM0 8.013c0 1.1 0.22 2.193 0.693 3.247l1.2-0.547c-0.343-0.795-0.544-1.72-0.547-2.692v-0.001zM1.533 8.013c0 2.733 1.673 5.067 4.080 6.020l0.507-1.28c-1.911-0.759-3.237-2.591-3.24-4.733v-0zM9.733 9c-0.22 0.4-0.547 0.733-0.987 0.873l0.513 1.353c0.991-0.384 1.742-1.196 2.034-2.203l0.006-0.024zM13.047 9c-0.479 2.377-2.544 4.145-5.025 4.16h-0.002v1.347c0.004 0 0.008 0 0.013 0 3.234 0 5.914-2.371 6.396-5.47l0.005-0.036zM14.613 9c-0.521 3.224-3.272 5.66-6.597 5.687l-0.003 0c-1.82 0-3.493-0.767-4.693-1.967l-0.953 0.947c1.46 1.46 3.467 2.333 5.687 2.333 0.003 0 0.006 0 0.009 0 4.066 0 7.423-3.033 7.933-6.96l0.004-0.040zM6.6 9.44l-1.020 1.020c0.625 0.626 1.486 1.015 2.439 1.020h0.001v-1.46c-0.002 0-0.004 0-0.006 0-0.551 0-1.051-0.221-1.414-0.58l0 0z"></path>
</svg>
