<!-- Generated by IcoMoon.io -->
<svg version="1.1" xmlns="http://www.w3.org/2000/svg" width="16" height="16" viewBox="0 0 16 16">
<title>circle</title>
<path fill="#8669ae" d="M13.859 2.555c-0.067-0.070-0.131-0.142-0.201-0.211s-0.141-0.135-0.213-0.201c-1.415-1.327-3.324-2.142-5.423-2.142-0.008 0-0.015 0-0.023 0h0.001c-0.006-0-0.014-0-0.021-0-2.202 0-4.196 0.896-5.636 2.342l-0 0c-3.051 3.051-3.116 7.971-0.201 11.103 0.066 0.072 0.131 0.143 0.2 0.213 0.069 0.069 0.14 0.133 0.211 0.2 1.416 1.327 3.326 2.141 5.427 2.141 0.007 0 0.014-0 0.021-0h-0.001c2.137 0 4.147-0.831 5.658-2.341 3.051-3.051 3.115-7.971 0.201-11.104zM2.755 2.755c1.335-1.342 3.184-2.173 5.226-2.173 0.007 0 0.013 0 0.020 0h-0.001c1.883 0 3.66 0.699 5.033 1.972l-0.667 0.668c-1.141-1.051-2.67-1.695-4.35-1.695-0.006 0-0.011 0-0.017 0h0.001c-0.005-0-0.011-0-0.018-0-1.782 0-3.394 0.725-4.559 1.896l-0 0c-1.171 1.165-1.895 2.777-1.895 4.558 0 0.006 0 0.012 0 0.019v-0.001c0 1.632 0.6 3.169 1.695 4.366l-0.669 0.667c-2.688-2.906-2.621-7.455 0.201-10.278zM11.954 3.634v0.001l-0.677 0.676c-0.863-0.777-2.011-1.252-3.27-1.252-0.002 0-0.005 0-0.007 0h0c-0.004-0-0.009-0-0.014-0-1.36 0-2.59 0.553-3.479 1.447l-0 0c-0.894 0.889-1.448 2.12-1.448 3.481 0 0.004 0 0.009 0 0.013v-0.001c0 0.002 0 0.005 0 0.007 0 1.258 0.475 2.406 1.255 3.273l-0.004-0.004-0.676 0.677c-0.945-1.035-1.523-2.418-1.523-3.936 0-0.006 0-0.012 0-0.018v0.001c-0-0.005-0-0.011-0-0.016 0-1.621 0.66-3.088 1.725-4.147l0-0c1.059-1.066 2.526-1.725 4.147-1.725 0.006 0 0.011 0 0.017 0h-0.001c1.475 0 2.867 0.539 3.954 1.523zM12.358 8c0 1.163-0.454 2.258-1.277 3.081s-1.917 1.277-3.081 1.277c-0.001 0-0.002 0-0.003 0-1.099 0-2.102-0.41-2.866-1.085l0.005 0.004-0.001-0.003c-0.073-0.063-0.147-0.125-0.216-0.194-0.065-0.067-0.129-0.138-0.19-0.211l-0.005-0.006c-0.671-0.757-1.080-1.758-1.080-2.855 0-0.003 0-0.006 0-0.010v0c0-1.164 0.453-2.258 1.276-3.081 0.784-0.788 1.869-1.276 3.068-1.276 0.004 0 0.009 0 0.013 0h-0.001c1.066 0 2.070 0.384 2.863 1.080 0.074 0.064 0.149 0.127 0.217 0.197 0.069 0.069 0.133 0.143 0.197 0.216 0.671 0.758 1.081 1.76 1.081 2.859 0 0.002 0 0.004 0 0.006v-0zM4.723 11.689h0.001c0.864 0.777 2.012 1.253 3.272 1.253 0.002 0 0.003 0 0.005 0h-0c0.004 0 0.009 0 0.014 0 1.36 0 2.591-0.554 3.479-1.449l0-0c0.895-0.888 1.449-2.119 1.449-3.479 0-0.005 0-0.009-0-0.014v0.001c0-0.001 0-0.003 0-0.004 0-1.26-0.475-2.409-1.255-3.278l0.004 0.005 0.675-0.675c0.945 1.035 1.523 2.419 1.523 3.938 0 0.005 0 0.010-0 0.015v-0.001c0 0.005 0 0.011 0 0.018 0 1.621-0.66 3.088-1.726 4.146l-0 0c-1.059 1.066-2.525 1.725-4.145 1.725-0.006 0-0.013-0-0.019-0h0.001c-0.004 0-0.009 0-0.014 0-1.519 0-2.903-0.579-3.944-1.527l0.005 0.004zM13.245 13.245c-1.334 1.342-3.181 2.172-5.222 2.172-0.008 0-0.016-0-0.024-0h0.001c-0.006 0-0.013 0-0.020 0-1.939 0-3.703-0.75-5.018-1.975l0.004 0.004 0.669-0.667c1.14 1.051 2.669 1.695 4.349 1.695 0.006 0 0.012-0 0.018-0h-0.001c0.005 0 0.011 0 0.018 0 1.782 0 3.395-0.725 4.559-1.897l0-0c1.171-1.164 1.895-2.777 1.895-4.558 0-0.006-0-0.012-0-0.018v0.001c0-0.005 0-0.010 0-0.016 0-1.68-0.644-3.209-1.699-4.354l0.004 0.004 0.667-0.668c2.687 2.906 2.623 7.455-0.201 10.278z"></path>
</svg>
