<!-- Generated by IcoMoon.io -->
<svg version="1.1" xmlns="http://www.w3.org/2000/svg" width="16" height="16" viewBox="0 0 16 16">
<title>circleci</title>
<path d="M5.975 8c0-1.056 0.856-1.903 1.903-1.903s1.904 0.856 1.904 1.903c0 1.048-0.856 1.904-1.904 1.904-1.047 0-1.903-0.856-1.903-1.904zM7.879 0c-3.735 0-6.864 2.56-7.752 6.017-0.007 0.024-0.007 0.047-0.007 0.080 0 0.209 0.168 0.384 0.383 0.384h3.223c0.153 0 0.289-0.087 0.345-0.222 0.665-1.44 2.12-2.448 3.808-2.448 2.311 0 4.191 1.88 4.191 4.191 0 2.313-1.88 4.193-4.193 4.193-1.687 0-3.143-1-3.807-2.449-0.065-0.127-0.193-0.224-0.345-0.224h-3.222c-0.208 0-0.383 0.169-0.383 0.384 0 0.025 0.009 0.048 0.009 0.080 0.88 3.453 4.013 6.013 7.749 6.013 4.416 0 8-3.583 8-8 0-4.415-3.584-8-8-8z"></path>
</svg>
