<!-- Generated by IcoMoon.io -->
<svg version="1.1" xmlns="http://www.w3.org/2000/svg" width="16" height="16" viewBox="0 0 16 16">
<title>cirrusci</title>
<path d="M14.937 10.318c0.652 0.564 1.063 1.393 1.063 2.317 0 0 0 0.001 0 0.001v-0c0 1.687-1.369 3.060-3.051 3.060h-12.207c-0.41 0-0.742-0.332-0.742-0.742s0.332-0.742 0.742-0.742h12.207c0.866-0.004 1.567-0.707 1.567-1.573 0-0.001 0-0.002 0-0.003v0c0-0.001 0-0.002 0-0.003 0-0.867-0.701-1.57-1.566-1.573h-12.207c-0.41 0-0.742-0.332-0.742-0.742s0.332-0.742 0.742-0.742v0h12.207c0.866-0.004 1.567-0.707 1.567-1.573 0-0.001 0-0.002 0-0.003v0c0-0.001 0-0.002 0-0.003 0-0.867-0.701-1.57-1.566-1.573h-12.207c-0.41 0-0.742-0.332-0.742-0.742s0.332-0.742 0.742-0.742v0h12.207c0.864 0 1.567-0.707 1.567-1.576s-0.703-1.576-1.567-1.576c-0.41 0-0.742-0.332-0.742-0.742s0.332-0.742 0.742-0.742v0c1.683 0 3.051 1.373 3.051 3.061 0 0.926-0.413 1.757-1.063 2.318 0.652 0.564 1.063 1.393 1.063 2.317 0 0 0 0.001 0 0.001v-0c0 0.926-0.413 1.757-1.063 2.318z"></path>
</svg>
