<!-- Generated by IcoMoon.io -->
<svg version="1.1" xmlns="http://www.w3.org/2000/svg" width="16" height="16" viewBox="0 0 16 16">
<title>cisco</title>
<path fill="#1ba0d7" d="M10.887 12.114v-0.741l-0.015 0.007c-0.167 0.081-0.348 0.127-0.534 0.135-0.018 0.001-0.039 0.002-0.060 0.002-0.18 0-0.346-0.060-0.479-0.162l0.002 0.001c-0.108-0.084-0.189-0.197-0.233-0.327l-0.001-0.005c-0.025-0.074-0.039-0.16-0.039-0.249 0-0.069 0.009-0.137 0.025-0.201l-0.001 0.006c0.035-0.15 0.119-0.284 0.238-0.379 0.107-0.089 0.237-0.145 0.375-0.161 0.041-0.005 0.089-0.008 0.137-0.008 0.208 0 0.405 0.052 0.577 0.143l-0.007-0.003 0.016 0.009v-0.745l-0.034-0.009c-0.173-0.057-0.373-0.090-0.58-0.090-0.033 0-0.066 0.001-0.099 0.002l0.005-0c-0.219 0.006-0.425 0.056-0.612 0.141l0.010-0.004c-0.191 0.088-0.36 0.218-0.493 0.381-0.199 0.25-0.32 0.57-0.32 0.919 0 0.333 0.11 0.641 0.296 0.888l-0.003-0.004c0.197 0.252 0.473 0.43 0.783 0.504 0.327 0.080 0.671 0.068 0.991-0.035l0.055-0.015zM3.557 12.114v-0.741l-0.015 0.007c-0.167 0.081-0.348 0.127-0.534 0.135-0.018 0.001-0.039 0.002-0.061 0.002-0.18 0-0.346-0.060-0.479-0.162l0.002 0.001c-0.108-0.084-0.189-0.197-0.233-0.327l-0.001-0.005c-0.025-0.075-0.040-0.161-0.040-0.25 0-0.069 0.009-0.136 0.025-0.2l-0.001 0.006c0.035-0.15 0.118-0.284 0.238-0.379 0.107-0.089 0.237-0.145 0.375-0.161 0.041-0.005 0.089-0.008 0.137-0.008 0.208 0 0.405 0.052 0.577 0.143l-0.007-0.003 0.016 0.009v-0.745l-0.034-0.009c-0.173-0.057-0.373-0.090-0.58-0.090-0.033 0-0.066 0.001-0.099 0.002l0.005-0c-0.219 0.006-0.425 0.056-0.612 0.141l0.010-0.004c-0.196 0.091-0.361 0.22-0.491 0.378l-0.002 0.002c-0.199 0.25-0.32 0.571-0.32 0.919 0 0.333 0.11 0.64 0.295 0.888l-0.003-0.004c0.194 0.247 0.464 0.426 0.774 0.502l0.010 0.002c0.327 0.080 0.67 0.068 0.991-0.035l0.055-0.015zM6.173 11.499l-0.003 0.638 0.047 0.008c0.147 0.027 0.294 0.046 0.443 0.057 0.13 0.013 0.261 0.015 0.391 0.008 0.125-0.009 0.248-0.033 0.367-0.069 0.14-0.040 0.27-0.109 0.381-0.203 0.098-0.084 0.174-0.191 0.22-0.313l0.002-0.005c0.037-0.093 0.058-0.201 0.058-0.314 0-0.117-0.023-0.229-0.065-0.332l0.002 0.006c-0.045-0.11-0.113-0.202-0.198-0.275l-0.001-0.001c-0.082-0.073-0.179-0.131-0.286-0.168l-0.006-0.002-0.481-0.179c-0.058-0.025-0.104-0.069-0.131-0.124l-0.001-0.002c-0.009-0.020-0.015-0.043-0.015-0.068 0-0.029 0.007-0.056 0.020-0.079l-0 0.001c0.025-0.040 0.060-0.073 0.101-0.094l0.001-0.001c0.050-0.025 0.108-0.042 0.169-0.049l0.002-0c0.102-0.015 0.205-0.014 0.307 0.003 0.12 0.013 0.239 0.034 0.355 0.064l0.025 0.005v-0.589l-0.046-0.010c-0.099-0.025-0.221-0.048-0.347-0.063l-0.015-0.002c-0.074-0.010-0.159-0.016-0.246-0.016-0.081 0-0.161 0.005-0.239 0.015l0.009-0.001c-0.2 0.018-0.39 0.095-0.547 0.22-0.107 0.084-0.187 0.195-0.234 0.323-0.069 0.193-0.070 0.405 0 0.599 0.036 0.097 0.093 0.183 0.168 0.254 0.065 0.062 0.138 0.115 0.218 0.157 0.105 0.056 0.216 0.099 0.331 0.13 0.038 0.011 0.076 0.023 0.113 0.036l0.057 0.021 0.016 0.007c0.056 0.020 0.108 0.052 0.151 0.093 0.030 0.028 0.053 0.063 0.067 0.101 0.005 0.017 0.007 0.035 0.007 0.055s-0.002 0.037-0.007 0.054l0-0.002c-0.019 0.058-0.058 0.104-0.109 0.131l-0.001 0.001c-0.053 0.028-0.115 0.048-0.18 0.057l-0.003 0c-0.063 0.010-0.135 0.016-0.208 0.016-0.027 0-0.053-0.001-0.080-0.002l0.004 0c-0.141-0.011-0.268-0.029-0.393-0.053l0.022 0.004c-0.106-0.022-0.17-0.037-0.234-0.054l0.043 0.009zM4.523 12.163h0.7v-2.778h-0.7zM12.631 10.205c0.125-0.102 0.286-0.164 0.461-0.164 0.228 0 0.431 0.104 0.565 0.268l0.001 0.001c0.102 0.125 0.165 0.286 0.165 0.461 0 0.228-0.104 0.431-0.268 0.565l-0.001 0.001-0.011 0.009c-0.122 0.094-0.277 0.151-0.445 0.151-0.404 0-0.731-0.327-0.731-0.731 0-0.226 0.102-0.427 0.263-0.561l0.001-0.001zM11.615 10.775c0.013 0.798 0.662 1.439 1.462 1.439 0.112 0 0.221-0.013 0.325-0.036l-0.010 0.002c0.665-0.129 1.161-0.707 1.161-1.401 0-0.517-0.275-0.97-0.687-1.22l-0.006-0.004c-0.22-0.138-0.487-0.22-0.774-0.22-0.802 0-1.453 0.641-1.471 1.438l-0 0.002zM15.307 7.152c0.008 0.185 0.16 0.331 0.346 0.331s0.338-0.147 0.346-0.331l0-0.001v-0.77c-0.008-0.185-0.16-0.331-0.346-0.331s-0.338 0.147-0.346 0.331l-0 0.001v0.77zM13.411 7.152c0.014 0.181 0.164 0.322 0.347 0.322s0.333-0.141 0.347-0.32l0-0.001v-1.726c-0.012-0.182-0.162-0.326-0.347-0.326s-0.335 0.143-0.347 0.325l-0 0.001v1.726zM11.487 7.847c0.014 0.18 0.164 0.321 0.346 0.321s0.332-0.141 0.346-0.32l0-0.001v-3.734c-0.008-0.185-0.16-0.331-0.346-0.331s-0.338 0.147-0.346 0.331l-0 0.001v3.734zM9.595 7.152c0.012 0.182 0.162 0.326 0.347 0.326s0.335-0.143 0.347-0.325l0-0.001v-1.726c-0.008-0.185-0.16-0.331-0.346-0.331s-0.338 0.147-0.346 0.331l-0 0.001v1.726zM7.663 7.152c0.018 0.177 0.166 0.314 0.346 0.314s0.328-0.137 0.346-0.313l0-0.001v-0.77c-0.008-0.185-0.16-0.331-0.346-0.331s-0.338 0.147-0.346 0.331l-0 0.001v0.77zM5.749 7.152c0.008 0.185 0.16 0.331 0.346 0.331s0.338-0.147 0.346-0.331l0-0.001v-1.726c-0.008-0.185-0.16-0.331-0.346-0.331s-0.338 0.147-0.346 0.331l-0 0.001v1.726zM3.825 7.847c0.008 0.185 0.16 0.331 0.346 0.331s0.338-0.147 0.346-0.331l0-0.001v-3.734c-0.008-0.185-0.16-0.331-0.346-0.331s-0.338 0.147-0.346 0.331l-0 0.001v3.734zM1.917 7.152c0.016 0.179 0.165 0.318 0.347 0.318s0.331-0.139 0.347-0.316l0-0.001v-1.726c-0.008-0.185-0.16-0.331-0.346-0.331s-0.338 0.147-0.346 0.331l-0 0.001v1.726zM0 7.152c0.014 0.18 0.164 0.321 0.346 0.321s0.332-0.141 0.346-0.32l0-0.001v-0.77c-0.008-0.185-0.16-0.331-0.346-0.331s-0.338 0.147-0.346 0.331l-0 0.001v0.77z"></path>
</svg>
