<!-- Generated by IcoMoon.io -->
<svg version="1.1" xmlns="http://www.w3.org/2000/svg" width="16" height="16" viewBox="0 0 16 16">
<title>civicrm</title>
<path fill="#81c459" d="M15.043 6.036c0.165-0.318 0.3-0.75 0.157-1.191-0.167-0.511-0.626-0.85-1.367-1.007l-4.701-1-4.801-2.568c-0.052-0.028-0.519-0.27-1.030-0.27-0.381 0-0.709 0.132-0.949 0.381-0.225 0.233-0.359 0.556-0.402 0.963-0.039-0.003-0.084-0.004-0.13-0.004-0.001 0-0.002 0-0.003 0h0c-0.726 0-1.099 0.304-1.284 0.559-0.287 0.395-0.323 0.929-0.107 1.588l1.766 5.412 0.167 4.689c0.029 0.815 0.479 1.691 1.399 1.691 0.176 0 0.358-0.034 0.547-0.1 0.219 0.371 0.613 0.821 1.243 0.821 0.444 0 0.883-0.238 1.304-0.709l3.407-3.798 4.522-2.855c0.098-0.063 0.963-0.633 0.932-1.486-0.015-0.428-0.241-0.801-0.668-1.116zM4.931 13.444l-1.552-4.756-0.211-5.898 5.551 1.181 4.514 2.415-3.753 4.186zM13.585 5.007c0.363 0.077 0.473 0.186 0.48 0.209 0.014 0.042-0.011 0.131-0.058 0.229l-1.082-0.579zM3.301 1.195c0.179 0 0.405 0.097 0.467 0.129l1.159 0.619-1.795-0.382c0.009-0.215 0.053-0.323 0.080-0.351 0.008-0.007 0.041-0.015 0.090-0.015zM1.561 3.116c-0.13-0.397-0.062-0.515-0.061-0.516 0.013-0.017 0.111-0.066 0.317-0.066 0.055 0 0.106 0.003 0.147 0.007l0.073 2.033zM3.553 13.544l-0.019-0.532 0.343 1.049c-0.035 0.012-0.075 0.020-0.117 0.023l-0.001 0c-0.097 0-0.195-0.333-0.205-0.54zM5.962 14.493c-0.276 0.309-0.413 0.312-0.415 0.312-0.039 0-0.123-0.088-0.201-0.211l1.212-0.765zM14.142 7.627l-0.963 0.609 1.13-1.26c0.166 0.116 0.209 0.199 0.209 0.219 0.004 0.089-0.191 0.312-0.376 0.432z"></path>
</svg>
