<!-- Generated by IcoMoon.io -->
<svg version="1.1" xmlns="http://www.w3.org/2000/svg" width="16" height="16" viewBox="0 0 16 16">
<title>clockify</title>
<path fill="#03a9f4" d="M9.986 5.499l3.625-3.676 1.038 1.051-3.625 3.676zM8.517 9.255c-0.356-0.001-0.678-0.148-0.909-0.384l-0-0c-0.232-0.238-0.375-0.564-0.375-0.923 0-0 0-0 0-0v0c0-0.721 0.575-1.307 1.283-1.307s1.285 0.585 1.285 1.307c0 0.344-0.134 0.675-0.375 0.923-0.231 0.237-0.553 0.384-0.909 0.385h-0zM14.665 13.052l-1.037 1.053-3.625-3.677 1.039-1.051zM8.556 13.602c0.745-0 1.454-0.151 2.1-0.423l-0.036 0.013 1.771 1.797c-1.101 0.636-2.422 1.011-3.831 1.011-0.002 0-0.003 0-0.004 0h0c-4.357 0-7.889-3.582-7.889-8s3.533-8 7.889-8c1.379 0 2.675 0.36 3.802 0.991l-1.741 1.767c-0.609-0.258-1.318-0.408-2.061-0.409h-0c-3.051 0-5.525 2.52-5.525 5.627s2.473 5.627 5.525 5.627z"></path>
</svg>
