<!-- Generated by IcoMoon.io -->
<svg version="1.1" xmlns="http://www.w3.org/2000/svg" width="16" height="16" viewBox="0 0 16 16">
<title>clojure</title>
<path fill="#5881d8" d="M7.669 8.144c-0.079 0.173-0.167 0.366-0.258 0.572-0.321 0.728-0.677 1.613-0.807 2.181-0.048 0.209-0.075 0.449-0.075 0.696 0 0.012 0 0.024 0 0.037l-0-0.002c0 0.109 0.006 0.225 0.015 0.343 0.455 0.167 0.945 0.259 1.457 0.26 0.477-0.001 0.936-0.081 1.364-0.226l-0.030 0.009c-0.1-0.091-0.192-0.187-0.275-0.289l-0.004-0.005c-0.569-0.726-0.886-1.788-1.388-3.575zM5.57 4.542c-1.092 0.775-1.797 2.034-1.799 3.458v0c0.002 1.403 0.686 2.646 1.738 3.414l0.012 0.008c0.26-1.081 0.911-2.071 1.887-4.056-0.058-0.159-0.124-0.333-0.198-0.517-0.271-0.679-0.661-1.465-1.009-1.822-0.183-0.187-0.39-0.348-0.618-0.479l-0.014-0.007zM11.685 12.851c-0.56-0.070-1.022-0.155-1.427-0.297-0.658 0.333-1.435 0.528-2.257 0.528-2.807 0-5.083-2.275-5.083-5.082v-0c0-0.001 0-0.003 0-0.004 0-1.519 0.669-2.882 1.728-3.811l0.006-0.005c-0.265-0.068-0.569-0.107-0.882-0.108h-0c-1.491 0.013-3.065 0.839-3.72 3.068-0.061 0.324-0.047 0.569-0.047 0.86 0 4.418 3.582 8 8 8 2.706 0 5.095-1.345 6.543-3.401-0.783 0.195-1.537 0.289-2.181 0.291-0.241 0-0.468-0.013-0.679-0.039zM10.182 11.301c0.049 0.024 0.161 0.065 0.317 0.109 1.054-0.778 1.731-2.015 1.733-3.41v-0h-0.001c-0.003-2.335-1.895-4.227-4.23-4.23h-0c-0.475 0.001-0.932 0.080-1.358 0.225l0.030-0.009c0.859 0.979 1.272 2.377 1.671 3.908l0.001 0.002c0.001 0.001 0.128 0.425 0.345 0.987s0.526 1.257 0.862 1.763c0.221 0.34 0.465 0.584 0.63 0.655zM8.001 0c-0.001 0-0.003 0-0.004 0-2.668 0-5.031 1.308-6.481 3.318l-0.016 0.024c0.756-0.473 1.527-0.645 2.201-0.638 0.929 0.003 1.661 0.291 2.011 0.488 0.085 0.049 0.165 0.101 0.244 0.155 0.602-0.271 1.305-0.429 2.045-0.429 2.807 0 5.083 2.275 5.083 5.082v0c0 0.001 0 0.003 0 0.005 0 1.413-0.578 2.692-1.511 3.611l-0.001 0.001c0.229 0.025 0.473 0.042 0.723 0.041 0.885 0 1.844-0.195 2.561-0.799 0.469-0.395 0.861-0.972 1.078-1.838 0.043-0.335 0.067-0.675 0.067-1.021 0-4.418-3.581-8-7.999-8z"></path>
</svg>
