<!-- Generated by IcoMoon.io -->
<svg version="1.1" xmlns="http://www.w3.org/2000/svg" width="16" height="16" viewBox="0 0 16 16">
<title>cloudbees</title>
<path fill="#1997b5" d="M2.367 4.273c0-0.8 0.487-1.52 1.253-1.867 0.279-0.126 0.604-0.2 0.947-0.2 0.525 0 1.009 0.173 1.399 0.464l-0.006-0.004 1.68-1.567c-0.828-0.684-1.9-1.099-3.068-1.099-0.893 0-1.73 0.242-2.448 0.665l0.023-0.012c-1.283 0.722-2.136 2.075-2.136 3.627 0 0.418 0.062 0.822 0.177 1.203l-0.008-0.029c0.625 1.814 2.317 3.094 4.308 3.094 0.032 0 0.064-0 0.096-0.001l-0.005 0h1.72v-2.2h-1.72c-1.22-0.013-2.213-0.94-2.213-2.073zM11.373 7.427h-1.72v2.2h1.72c1.22 0 2.213 0.933 2.213 2.067 0 1.147-0.993 2.067-2.213 2.067s-2.213-0.913-2.213-2.053v-7.44c0-1.053-0.42-2.073-1.173-2.86l-1.68 1.58c0.313 0.353 0.487 0.813 0.487 1.287v7.427c0 2.36 2.053 4.273 4.58 4.273 2.533 0 4.58-1.913 4.58-4.273s-2.047-4.273-4.58-4.273z"></path>
</svg>
