<!-- Generated by IcoMoon.io -->
<svg version="1.1" xmlns="http://www.w3.org/2000/svg" width="16" height="16" viewBox="0 0 16 16">
<title>cloudflare</title>
<path fill="#f38020" d="M11.006 11.23c0.098-0.338 0.061-0.647-0.104-0.877-0.15-0.211-0.403-0.333-0.708-0.347l-5.773-0.075c-0 0-0.001 0-0.002 0-0.036 0-0.069-0.019-0.087-0.047l-0-0c-0.019-0.028-0.023-0.066-0.014-0.104 0.019-0.056 0.075-0.099 0.136-0.104l5.824-0.075c0.69-0.033 1.44-0.591 1.702-1.276l0.333-0.868c0.014-0.037 0.020-0.075 0.010-0.112-0.375-1.698-1.89-2.964-3.7-2.964-1.669 0-3.086 1.078-3.592 2.574-0.328-0.244-0.746-0.375-1.196-0.333-0.802 0.079-1.444 0.722-1.524 1.524-0.019 0.207-0.005 0.409 0.042 0.596-1.309 0.037-2.354 1.107-2.354 2.425 0 0.117 0.009 0.234 0.023 0.352 0.009 0.055 0.056 0.098 0.113 0.098h10.654c0.061 0 0.117-0.043 0.135-0.104zM12.844 7.521c-0.051 0-0.107 0-0.159 0.007-0.038 0-0.070 0.028-0.085 0.065l-0.225 0.783c-0.098 0.338-0.061 0.647 0.103 0.878 0.15 0.211 0.404 0.332 0.708 0.346l1.229 0.076c0.037 0 0.070 0.018 0.089 0.047s0.023 0.072 0.014 0.104c-0.019 0.056-0.075 0.099-0.136 0.104l-1.281 0.075c-0.694 0.033-1.439 0.591-1.702 1.276l-0.094 0.239c-0.019 0.048 0.014 0.094 0.066 0.094h4.398c0.051 0 0.098-0.033 0.113-0.084 0.075-0.272 0.117-0.558 0.117-0.854 0-1.735-1.417-3.151-3.156-3.151z"></path>
</svg>
