<!-- Generated by IcoMoon.io -->
<svg version="1.1" xmlns="http://www.w3.org/2000/svg" width="16" height="16" viewBox="0 0 16 16">
<title>co-op</title>
<path fill="#00b1e7" d="M15.517 3.51c0-0.568-0.088-1.135-0.24-1.703-0.219-0.677-0.721-1.223-1.354-1.463-0.605-0.218-1.303-0.344-2.031-0.344s-1.426 0.126-2.074 0.357l0.043-0.013c-0.665 0.235-1.17 0.775-1.35 1.448l-0.003 0.015c-0.146 0.507-0.229 1.090-0.229 1.692s0.084 1.185 0.24 1.737l-0.011-0.045c0.217 0.677 0.72 1.223 1.353 1.463 0.551 0.209 1.187 0.33 1.852 0.33 0.063 0 0.125-0.001 0.187-0.003l-0.009 0c0.699 0 1.375-0.131 2.031-0.327 0.665-0.235 1.17-0.775 1.351-1.448l0.003-0.015c0.153-0.546 0.24-1.113 0.24-1.681zM13.311 3.51c0 0.262-0.043 0.568-0.131 0.808-0.109 0.349-0.415 0.633-0.787 0.721-0.157 0.031-0.338 0.049-0.524 0.049s-0.366-0.018-0.541-0.052l0.018 0.003c-0.384-0.067-0.687-0.348-0.785-0.714l-0.002-0.007c-0.083-0.248-0.131-0.533-0.131-0.83s0.048-0.582 0.137-0.849l-0.005 0.019c0.109-0.349 0.415-0.633 0.787-0.721 0.157-0.031 0.338-0.049 0.524-0.049s0.366 0.018 0.541 0.052l-0.018-0.003c0.383 0.067 0.687 0.348 0.785 0.714l0.002 0.007c0.087 0.305 0.131 0.589 0.131 0.851zM7.481 12.703c0.145-0.507 0.229-1.090 0.229-1.692s-0.084-1.185-0.24-1.737l0.011 0.045c-0.218-0.677-0.721-1.223-1.353-1.463-0.605-0.218-1.303-0.344-2.031-0.344s-1.426 0.126-2.074 0.357l0.043-0.013c-0.666 0.235-1.17 0.776-1.351 1.449l-0.003 0.015c-0.145 0.507-0.229 1.090-0.229 1.692s0.084 1.185 0.24 1.737l-0.011-0.045c0.219 0.677 0.721 1.223 1.354 1.462 0.605 0.218 1.303 0.344 2.031 0.344s1.426-0.126 2.074-0.357l-0.043 0.013c0.652-0.256 1.147-0.787 1.349-1.446l0.004-0.016zM5.516 11.021c0 0.262-0.044 0.568-0.131 0.808-0.122 0.359-0.414 0.63-0.778 0.719l-0.008 0.002c-0.158 0.031-0.339 0.049-0.524 0.049s-0.366-0.018-0.542-0.052l0.018 0.003c-0.383-0.067-0.686-0.349-0.784-0.714l-0.002-0.007c-0.083-0.248-0.131-0.533-0.131-0.83s0.048-0.582 0.136-0.849l-0.005 0.019c0.121-0.359 0.414-0.63 0.779-0.719l0.007-0.002c0.158-0.031 0.339-0.050 0.524-0.050s0.366 0.018 0.542 0.052l-0.018-0.003c0.383 0.067 0.686 0.349 0.784 0.714l0.002 0.007c0.087 0.284 0.131 0.567 0.131 0.851zM5.516 3.488h2.205c0-0.567-0.087-1.135-0.24-1.681-0.218-0.677-0.721-1.223-1.353-1.463-0.605-0.218-1.303-0.344-2.031-0.344s-1.426 0.126-2.074 0.357l0.043-0.013c-0.677 0.261-1.179 0.807-1.355 1.484-0.145 0.507-0.229 1.090-0.229 1.692s0.084 1.185 0.24 1.737l-0.011-0.045c0.219 0.677 0.721 1.223 1.354 1.463 0.655 0.24 1.332 0.328 2.031 0.328s1.375-0.131 2.031-0.328c0.665-0.235 1.169-0.775 1.35-1.448l0.003-0.015c0.022-0.087 0.043-0.197 0.087-0.284l-2.074-0.961c-0.022 0.131-0.043 0.24-0.087 0.371-0.109 0.349-0.415 0.633-0.786 0.721-0.158 0.031-0.339 0.049-0.524 0.049s-0.366-0.018-0.542-0.052l0.018 0.003c-0.383-0.068-0.686-0.349-0.784-0.714l-0.002-0.007c-0.083-0.248-0.131-0.533-0.131-0.83s0.048-0.582 0.136-0.849l-0.005 0.019c0.109-0.349 0.415-0.633 0.786-0.721 0.158-0.031 0.339-0.049 0.524-0.049s0.366 0.018 0.542 0.052l-0.018-0.003c0.383 0.067 0.686 0.349 0.784 0.714l0.002 0.007c0.065 0.283 0.109 0.545 0.109 0.807zM8.463 9.341c-0.151 0.51-0.238 1.096-0.24 1.702v4.957h2.205v-4.979c0-0.262 0.043-0.568 0.131-0.808 0.109-0.349 0.415-0.633 0.787-0.721 0.157-0.031 0.338-0.050 0.524-0.050s0.366 0.018 0.541 0.052l-0.018-0.003c0.383 0.067 0.687 0.349 0.785 0.714l0.002 0.007c0.083 0.248 0.131 0.533 0.131 0.83s-0.048 0.582-0.136 0.849l0.005-0.019c-0.109 0.349-0.415 0.633-0.764 0.72-0.158 0.031-0.339 0.050-0.524 0.050s-0.366-0.018-0.542-0.052l0.018 0.003c-0.066-0.021-0.153-0.043-0.218-0.065l0.742 2.053c0.699 0 1.375-0.131 2.031-0.327 0.665-0.235 1.169-0.775 1.351-1.448l0.003-0.015c0.145-0.507 0.229-1.090 0.229-1.692s-0.084-1.185-0.24-1.737l0.011 0.045c-0.219-0.677-0.721-1.223-1.354-1.463-0.605-0.218-1.303-0.344-2.031-0.344s-1.426 0.126-2.074 0.357l0.043-0.013c-0.677 0.175-1.179 0.721-1.398 1.399z"></path>
</svg>
