<!-- Generated by IcoMoon.io -->
<svg version="1.1" xmlns="http://www.w3.org/2000/svg" width="16" height="16" viewBox="0 0 16 16">
<title>codacy</title>
<path d="M2.589 6.55c0.403-1.448 1.329-2.633 2.557-3.366l0.026-0.014 0.027-0.014-1.202-2.075c-1.813 1.061-3.151 2.765-3.712 4.793l-0.013 0.056zM6.549 2.596c0.428-0.12 0.92-0.189 1.428-0.189 0.005 0 0.010 0 0.016 0h0.003v-2.397h-0.013c-0.002 0-0.003 0-0.005 0-0.749 0-1.474 0.102-2.161 0.294l0.113-0.027zM9.452 2.598c1.446 0.403 2.63 1.33 3.361 2.557l0.014 0.026 0.014 0.027 2.078-1.199c-1.061-1.812-2.764-3.151-4.791-3.712l-0.056-0.013zM0 8v0.004c0 0.733 0.099 1.443 0.283 2.118l-0.013-0.056 2.317-0.619c-0.12-0.426-0.189-0.916-0.189-1.421 0-0.007 0-0.014 0-0.021v0.001-0.005zM1.070 11.997c0.367 0.627 0.787 1.169 1.267 1.65l1.702-1.693c-0.33-0.33-0.62-0.701-0.861-1.104l-0.014-0.026-0.015-0.027zM3.997 14.92c1.133 0.672 2.497 1.069 3.955 1.069 0.008 0 0.016-0 0.025-0h0.012v-2.397h-0.003c-0.003 0-0.006 0-0.009 0-1.035 0-2.003-0.284-2.831-0.777l0.025 0.014 0.026 0.014zM12.839 10.803c-0.739 1.253-1.916 2.181-3.316 2.58l-0.040 0.010-0.039 0.009 0.621 2.317c2.083-0.573 3.787-1.909 4.831-3.68l0.021-0.037zM15.718 10.147c0.179-0.631 0.282-1.357 0.282-2.106 0-0.725-0.096-1.427-0.277-2.095l0.013 0.056-2.324 0.621c0.117 0.427 0.183 0.916 0.183 1.421 0 0.527-0.073 1.037-0.209 1.52l0.009-0.039z"></path>
</svg>
