<!-- Generated by IcoMoon.io -->
<svg version="1.1" xmlns="http://www.w3.org/2000/svg" width="16" height="16" viewBox="0 0 16 16">
<title>codewars</title>
<path fill="#ad2c27" d="M0.507 8.133l-0.053-0.027c-0.12-0.067-0.213-0.167-0.28-0.293-0.093-0.173-0.133-0.333-0.133-0.5l0.013-0.087c0-0.133 0.033-0.253 0.093-0.367l0.053-0.1c0.027-0.053 0.067-0.1 0.1-0.147 0.040-0.047 0.047-0.107 0.033-0.16l-0.033-0.107c-0.040-0.133-0.067-0.267-0.067-0.4l-0.020-0.080c0-0.147 0.040-0.293 0.133-0.4l0.067-0.087c0.047-0.067 0.12-0.107 0.2-0.133 0.067-0.020 0.113-0.087 0.12-0.167l0.013-0.227c0-0.18 0.087-0.347 0.22-0.467l0.16-0.12c0.033-0.033 0.067-0.067 0.093-0.12 0.033-0.040 0.040-0.093 0.033-0.133-0.013-0.067 0-0.087 0.033-0.093 0.107 0.040 0.173 0.027 0.22-0.027l0.087-0.113 0.24-0.267c0.067-0.067 0.093-0.187 0.053-0.28l-0.080-0.173c-0.013-0.040 0-0.087 0.033-0.1 0.087 0 0.147 0.033 0.173 0.087l0.027 0.047c0.040 0.080 0.133 0.12 0.2 0.087 0.147-0.053 0.267-0.067 0.38-0.067h0.213c0.147 0 0.267-0.1 0.293-0.253 0.027-0.187 0.093-0.333 0.187-0.433 0.1-0.113 0.213-0.2 0.347-0.267 0.173-0.093 0.28-0.227 0.313-0.4 0.047-0.213 0.16-0.367 0.313-0.467l0.507-0.287 0.147-0.087c0.087-0.053 0.167-0.12 0.233-0.2l0.133-0.16c0.067-0.067 0.133-0.113 0.213-0.133 0.067-0.020 0.16-0.033 0.24-0.027l0.267 0.020c0.133 0 0.24 0.033 0.347 0.080l0.067 0.033c0.067 0.027 0.133 0.013 0.167-0.033l0.060-0.033 0.287-0.3c0.067-0.067 0.147-0.093 0.233-0.080s0.173 0.047 0.253 0.087c0.12 0.067 0.22 0.093 0.333 0.093h0.067c0.147 0 0.293 0.020 0.44 0.053l0.1 0.027c0.1 0.027 0.2-0.013 0.267-0.093 0.020-0.033 0.067-0.040 0.093-0.013 0.020 0.013 0.027 0.027 0.033 0.047 0.013 0.133 0.093 0.233 0.2 0.267l0.107 0.033c0.113 0.033 0.213 0.107 0.28 0.2 0.067 0.1 0.147 0.2 0.24 0.267l0.067 0.067c0.067 0.067 0.16 0.093 0.253 0.087h0.393c0.16 0 0.313 0.027 0.467 0.093 0.147 0.067 0.3 0.080 0.44 0.027 0.147-0.047 0.3-0.067 0.453-0.047l0.287 0.047c0.133 0.013 0.267 0.080 0.347 0.18l0.033 0.033c0.067 0.067 0.133 0.153 0.2 0.247 0.040 0.087 0.133 0.133 0.227 0.133h0.413c0.1 0 0.2 0.020 0.28 0.067 0.087 0.067 0.16 0.133 0.227 0.2l0.067 0.087c0.080 0.093 0.12 0.22 0.113 0.353 0 0.107 0.080 0.2 0.187 0.2l0.133 0.013c0.093 0 0.173 0.067 0.22 0.153l0.067 0.133 0.173 0.387c0.027 0.067 0.033 0.133 0.027 0.187 0 0.067 0.020 0.12 0.067 0.147l0.067 0.047c0.087 0.067 0.133 0.167 0.12 0.28l-0.047 0.313-0.013 0.133c-0.013 0.067 0.020 0.153 0.080 0.2 0.1 0.067 0.147 0.153 0.153 0.253v0.133c0 0.067-0.013 0.147-0.067 0.2-0.040 0.053-0.067 0.12-0.067 0.2l0.020 0.153c0 0.107 0.067 0.2 0.133 0.267 0.093 0.067 0.147 0.173 0.16 0.28 0.027 0.167 0.033 0.3 0.033 0.433v0.153c0 0.053 0 0.107 0.020 0.16 0.013 0.047 0.047 0.093 0.087 0.12l0.133 0.1c0.133 0.087 0.227 0.2 0.28 0.353 0.067 0.147 0.087 0.3 0.087 0.453v0.053c0 0.12-0.013 0.247-0.053 0.36-0.033 0.12-0.027 0.233 0.020 0.333 0.053 0.093 0.087 0.2 0.1 0.313 0.027 0.133 0.013 0.267-0.033 0.373l-0.013 0.047c-0.033 0.080-0.087 0.153-0.153 0.213-0.067 0.067-0.133 0.107-0.173 0.153-0.040 0.040-0.067 0.107-0.047 0.167l0.020 0.093c0.033 0.133 0.033 0.267 0 0.387v0.053c-0.027 0.1-0.067 0.187-0.107 0.267-0.047 0.087-0.113 0.153-0.2 0.2l-0.1 0.067c-0.047 0.027-0.080 0.087-0.080 0.147 0 0.067-0.027 0.133-0.067 0.173l-0.1 0.133c-0.067 0.087-0.153 0.16-0.247 0.2-0.093 0.067-0.173 0.133-0.233 0.2-0.067 0.080-0.12 0.173-0.147 0.267-0.027 0.12-0.12 0.187-0.22 0.187h-0.36c-0.093 0-0.18 0.067-0.22 0.147-0.047 0.107-0.093 0.18-0.153 0.247-0.067 0.067-0.107 0.147-0.133 0.24-0.013 0.080-0.080 0.133-0.147 0.107-0.087-0.040-0.173 0-0.213 0.067-0.080 0.133-0.16 0.233-0.247 0.32l-0.047 0.040c-0.087 0.067-0.2 0.12-0.3 0.12-0.12 0-0.18 0.053-0.2 0.133-0.020 0.067-0.033 0.153-0.040 0.227-0.013 0.080-0.040 0.153-0.067 0.22l-0.033 0.040c-0.067 0.1-0.12 0.2-0.187 0.287l-0.027 0.040c-0.087 0.113-0.2 0.2-0.333 0.233-0.16 0.053-0.3 0.067-0.44 0.067h-0.093c-0.067 0-0.133 0.040-0.18 0.107l-0.040 0.067-0.040 0.080-0.087 0.147c-0.067 0.12-0.167 0.2-0.3 0.24-0.133 0.033-0.287 0.047-0.427 0.040l-0.107-0.013c-0.093 0-0.18-0.027-0.267-0.067-0.067-0.027-0.16 0-0.2 0.067-0.067 0.093-0.147 0.147-0.233 0.173l-0.2 0.067c-0.133 0.033-0.28 0.033-0.42 0l-0.107-0.033c-0.067 0-0.133-0.033-0.187-0.067-0.067-0.033-0.133-0.047-0.2-0.040l-0.087 0.013c-0.133 0.013-0.253 0-0.373-0.033l-0.18-0.040c-0.080-0.027-0.153-0.080-0.2-0.153-0.033-0.067-0.107-0.12-0.2-0.133h-0.213c-0.133-0.020-0.253-0.067-0.333-0.167l-0.267-0.253-0.093-0.080-0.147-0.107-0.087-0.067c-0.1-0.067-0.22-0.12-0.347-0.133l-0.4-0.067c-0.040 0-0.067-0.013-0.107-0.020l-0.153-0.033c-0.067-0.013-0.133-0.067-0.18-0.133-0.040-0.067-0.113-0.093-0.18-0.067-0.133 0.053-0.24 0.067-0.347 0.087h-0.093c-0.173 0.013-0.333-0.013-0.493-0.087-0.16-0.067-0.267-0.167-0.367-0.293-0.080-0.113-0.2-0.2-0.347-0.227l-0.187-0.040c-0.133-0.027-0.267-0.080-0.387-0.16-0.133-0.093-0.2-0.18-0.253-0.287-0.053-0.1-0.087-0.213-0.093-0.333v-0.053c-0.013-0.133-0.107-0.253-0.233-0.287-0.153-0.047-0.267-0.113-0.367-0.2-0.093-0.087-0.147-0.213-0.147-0.347l0.013-0.293c0-0.113-0.033-0.213-0.113-0.287-0.080-0.080-0.133-0.18-0.133-0.287l-0.020-0.24c-0.013-0.173-0.047-0.347-0.087-0.52-0.040-0.153 0.020-0.307 0.147-0.38l0.047-0.033c0.067-0.047 0.093-0.133 0.053-0.213l-0.053-0.067c-0.067-0.067-0.133-0.113-0.2-0.133-0.053-0.013-0.067-0.067-0.067-0.1l0.067-0.080c0.040-0.047 0.033-0.12 0-0.16-0.053-0.053-0.080-0.12-0.087-0.187l-0.013-0.467c0-0.093 0.013-0.187 0.040-0.28 0.027-0.080 0-0.173-0.080-0.207zM7.107 7.253c0.047-0.047 0.040-0.133 0-0.167-0.067-0.053-0.113-0.113-0.153-0.18l-0.067-0.107c-0.047-0.087-0.107-0.16-0.173-0.227l-0.013-0.013c-0.067-0.053-0.113-0.12-0.153-0.2-0.033-0.067-0.033-0.133 0-0.2l0.040-0.067c0.040-0.067 0.067-0.16 0.067-0.24v-0.027c0-0.067-0.027-0.133-0.067-0.2-0.027-0.053-0.053-0.12-0.067-0.187v-0.040c-0.020-0.080 0-0.167 0.053-0.233 0.053-0.087 0.093-0.167 0.113-0.267v-0.013c0.027-0.067 0.013-0.153-0.027-0.22s-0.053-0.133-0.027-0.213l0.047-0.133c0.040-0.12 0.1-0.227 0.18-0.32l0.093-0.1 0.067-0.080 0.040-0.040c0.040-0.040 0.047-0.107 0.013-0.16-0.033-0.067-0.053-0.133-0.040-0.2l0.013-0.093c0.020-0.133 0.067-0.267 0.153-0.373l0.027-0.027c0.1-0.133 0.227-0.22 0.373-0.267l0.18-0.067c0.080-0.027 0.133-0.113 0.133-0.2 0-0.107 0.033-0.2 0.093-0.287l0.033-0.033c0.067-0.113 0.147-0.227 0.2-0.347l0.047-0.087c0.013-0.020 0.020-0.047 0.020-0.067 0-0.113-0.067-0.213-0.173-0.22l-0.293-0.020c-0.167-0.013-0.333 0-0.493 0l-0.567 0.067c-0.087 0-0.153 0.067-0.16 0.16 0 0.093-0.067 0.173-0.147 0.2l-0.24 0.067-0.067 0.020-0.2 0.067c-0.147 0.047-0.267 0.153-0.333 0.3l-0.053 0.087c-0.067 0.147-0.18 0.267-0.32 0.353-0.133 0.087-0.2 0.227-0.213 0.387v0.067c-0.013 0.133-0.053 0.267-0.133 0.36l-0.033 0.053c-0.053 0.067-0.067 0.153-0.033 0.227 0.033 0.080 0.053 0.167 0.047 0.253v0.353c0 0.093-0.067 0.173-0.133 0.2-0.093 0.033-0.153 0.107-0.18 0.2l-0.033 0.133c-0.027 0.133 0.020 0.267 0.133 0.347 0.107 0.080 0.173 0.2 0.2 0.347v0.12c0.020 0.133 0.093 0.267 0.213 0.333 0.12 0.080 0.213 0.2 0.267 0.333l0.033 0.107c0.053 0.147 0.173 0.233 0.307 0.247h0.040c0.12 0 0.227 0.067 0.293 0.173s0.173 0.18 0.293 0.2l0.187 0.053c0.113 0.033 0.22 0.093 0.307 0.18l0.013 0.013c0.067 0.053 0.173 0.047 0.233-0.027zM7.867 6.64c0.067 0.040 0.133 0.020 0.16-0.040l0.020-0.033c0.047-0.093 0.107-0.187 0.173-0.267l0.133-0.2c0.020 0 0.027-0.013 0.033-0.027l0.16-0.213c0.067-0.067 0.147-0.113 0.24-0.113 0.087 0 0.16-0.047 0.2-0.133 0.027-0.093 0.067-0.18 0.147-0.253l0.033-0.040c0.067-0.067 0.133-0.1 0.2-0.133 0.087-0.013 0.167-0.027 0.247-0.027h0.2c0.080 0 0.147-0.033 0.187-0.1s0.1-0.113 0.167-0.147l0.067-0.027c0.107-0.047 0.227-0.080 0.347-0.093l0.133-0.013c0.080 0 0.167 0 0.247 0.047 0.067 0.047 0.153 0.040 0.22-0.013l0.047-0.027c0.1-0.067 0.213-0.12 0.333-0.133h0.013c0.133-0.027 0.253-0.027 0.387-0.020h0.067c0.133 0.020 0.247 0.067 0.333 0.167l0.020 0.027c0.067 0.067 0.173 0.12 0.267 0.12h0.113c0.033 0 0.067-0.013 0.087-0.047 0.020-0.020 0.053-0.040 0.087-0.040h0.067c0.093 0 0.18 0.027 0.267 0.053l0.113 0.047c0.107 0.033 0.22 0.067 0.333 0.080h0.080c0.053 0 0.087-0.033 0.087-0.080 0-0.067-0.013-0.133-0.047-0.187l-0.047-0.107c-0.053-0.087-0.093-0.18-0.133-0.267l-0.013-0.033c-0.033-0.067-0.033-0.133 0-0.2v-0.033c0.013-0.053-0.013-0.113-0.067-0.133h-0.053c-0.107-0.033-0.2-0.093-0.267-0.18l-0.067-0.067c-0.067-0.067-0.107-0.167-0.133-0.267-0.033-0.087-0.107-0.153-0.2-0.153h-0.28c-0.1-0.013-0.187-0.067-0.247-0.147l-0.027-0.033c-0.047-0.067-0.087-0.147-0.113-0.227-0.033-0.067-0.107-0.107-0.173-0.087l-0.080 0.027c-0.133 0.047-0.267 0.067-0.4 0.053l-0.107-0.013c-0.113 0-0.22-0.047-0.307-0.113l-0.067-0.047c-0.053-0.040-0.107-0.067-0.167-0.093-0.067-0.027-0.12-0.013-0.16 0.033l-0.033 0.040c-0.067 0.067-0.16 0.12-0.253 0.133l-0.36 0.020c-0.067 0-0.133 0.033-0.18 0.080-0.053 0.047-0.113 0.080-0.18 0.093h-0.013c-0.067 0-0.133 0.047-0.2 0.093v0.013c-0.067 0.067-0.153 0.1-0.24 0.1l-0.027 0.013c-0.080 0-0.16 0-0.24 0.020h-0.080c-0.113 0.020-0.2 0.113-0.227 0.233l-0.027 0.153c-0.020 0.107-0.067 0.2-0.133 0.287-0.067 0.080-0.147 0.133-0.247 0.133h-0.113c-0.067 0.013-0.133 0.087-0.12 0.167 0.013 0.113 0 0.213-0.020 0.313l-0.027 0.113c-0.027 0.1-0.093 0.18-0.18 0.213l-0.040 0.020h-0.013c-0.040 0.027-0.067 0.087-0.033 0.133 0.040 0.067 0.053 0.133 0.047 0.2l-0.020 0.213c0 0.080-0.033 0.153-0.067 0.22-0.040 0.067-0.040 0.133-0.013 0.2l0.067 0.147c0.033 0.067 0.040 0.133 0.020 0.213-0.020 0.067-0.033 0.133-0.027 0.2 0 0.067 0.040 0.133 0.093 0.16l0.013 0.013zM13.133 11.46c0.067 0.067 0.167 0.093 0.247 0.040l0.133-0.087c0.067-0.047 0.12-0.113 0.147-0.2v-0.013l0.067-0.2 0.040-0.067 0.027-0.067 0.027-0.047c0.027-0.053 0.067-0.093 0.133-0.113l0.027-0.013c0.053-0.013 0.087-0.067 0.087-0.12 0-0.067 0.033-0.12 0.067-0.167l0.053-0.047 0.133-0.173v-0.013c0.040-0.053 0.067-0.113 0.080-0.18s0-0.133-0.027-0.2l-0.013-0.027c-0.027-0.067-0.040-0.113-0.047-0.173l-0.020-0.187-0.020-0.2c0-0.067 0.027-0.133 0.067-0.2 0.047-0.053 0.080-0.12 0.107-0.187v-0.027l0.013-0.013c0.013-0.067-0.020-0.133-0.080-0.133-0.067-0.033-0.133-0.087-0.153-0.167l-0.020-0.040c-0.033-0.12-0.053-0.24-0.053-0.36l0.013-0.333v-0.020c0-0.113-0.093-0.2-0.2-0.2h-0.013c-0.133 0-0.24-0.040-0.333-0.133l-0.053-0.067-0.133-0.153-0.173-0.2c-0.067-0.093-0.133-0.173-0.22-0.253-0.067-0.067-0.167-0.133-0.267-0.147l-0.133-0.020c-0.067-0.013-0.153-0.047-0.227-0.093-0.053-0.040-0.133-0.027-0.187 0.027l-0.087 0.093-0.040 0.027c-0.047 0.013-0.093-0.013-0.113-0.067-0.027-0.080-0.027-0.173 0.013-0.253v-0.040c0-0.047-0.040-0.080-0.080-0.067h-0.107c-0.12 0-0.24-0.013-0.353-0.067l-0.067-0.027c-0.067-0.033-0.147-0.053-0.22-0.053-0.067 0-0.133 0.013-0.2 0.053l-0.027 0.020c-0.080 0.053-0.173 0.080-0.267 0.087h-0.22c-0.1 0-0.2 0.033-0.267 0.087-0.087 0.053-0.18 0.087-0.28 0.107l-0.18 0.027c-0.080 0.020-0.167 0.053-0.24 0.113-0.067 0.067-0.16 0.107-0.247 0.133l-0.033 0.013c-0.107 0.033-0.2 0.1-0.267 0.2l-0.080 0.080c-0.047 0.067-0.047 0.147 0 0.213 0.040 0.067 0.12 0.087 0.2 0.067l0.1-0.040c0.053-0.020 0.113 0 0.16 0.027 0.040 0.033 0.1 0.053 0.16 0.047l0.167-0.020c0.093 0 0.187 0 0.28 0.027 0.1 0.033 0.187 0.067 0.267 0.133s0.167 0.093 0.267 0.107 0.2 0.033 0.293 0.067l0.067 0.013c0.067 0.020 0.12 0.067 0.16 0.133 0.033 0.053 0.067 0.133 0.067 0.2v0.020c0 0.080 0.067 0.133 0.133 0.133h0.040c0.107 0 0.22 0.013 0.333 0.047l0.047 0.020c0.067 0.027 0.133 0.067 0.18 0.133 0.053 0.067 0.087 0.133 0.107 0.2l0.020 0.093c0.020 0.1 0.027 0.2 0.027 0.307v0.033c0 0.067 0.047 0.133 0.12 0.16 0.067 0.013 0.147 0.040 0.22 0.080l0.033 0.013c0.087 0.053 0.173 0.12 0.24 0.2l0.033 0.047c0.087 0.1 0.133 0.227 0.133 0.353v0.047c0 0.1-0.020 0.2-0.053 0.293-0.027 0.080 0 0.173 0.087 0.2l0.047 0.033c0.1 0.040 0.187 0.113 0.253 0.2 0.067 0.1 0.093 0.213 0.093 0.333v0.2c-0.013 0.067-0.033 0.12-0.067 0.167s-0.033 0.113 0 0.16zM8.867 8.047h-0.013c-0.027 0-0.040 0.033-0.033 0.067l0.027 0.133c0.027 0.107 0.040 0.213 0.053 0.32s0.067 0.2 0.147 0.267h0.027c0.1 0.080 0.16 0.2 0.167 0.32v0.333c-0.013 0.067 0 0.133 0.040 0.187l0.033 0.033c0.067 0.080 0.093 0.173 0.1 0.267l0.020 0.367c0 0.087-0.053 0.16-0.133 0.173l-0.067 0.013c-0.047 0-0.067 0.053-0.067 0.1 0 0.053 0.020 0.113 0.040 0.167v0.013c0.020 0.067 0.027 0.133 0.020 0.2l-0.027 0.18c-0.027 0.133-0.067 0.253-0.133 0.373l-0.047 0.080c-0.033 0.067-0.080 0.107-0.133 0.133-0.067 0.027-0.113 0.080-0.133 0.147l-0.053 0.24c-0.033 0.133-0.093 0.267-0.173 0.4h-0.013c-0.080 0.107-0.18 0.2-0.3 0.267l-0.080 0.053-0.2 0.1c-0.067 0.027-0.107 0.087-0.12 0.16l-0.033 0.22c-0.020 0.133-0.067 0.247-0.16 0.333l-0.087 0.1-0.1 0.1-0.1 0.107c-0.080 0.093-0.2 0.133-0.333 0.113l-0.24-0.047-0.22-0.027h-0.060c-0.027 0.027-0.033 0.067-0.013 0.107 0.047 0.080 0.12 0.133 0.2 0.133l0.147 0.027c0.067 0 0.147 0.033 0.213 0.067 0.067 0.047 0.133 0.080 0.213 0.1h0.013c0.087 0.033 0.18 0.040 0.267 0.033l0.1-0.013c0.113-0.013 0.22 0 0.313 0.040l0.080 0.027c0.033 0.013 0.087 0 0.12-0.033 0.040-0.040 0.080-0.067 0.133-0.087l0.053-0.013c0.087-0.027 0.173-0.040 0.267-0.040h0.053c0.080 0 0.153 0.013 0.22 0.053l0.027 0.013c0.047 0.020 0.1 0 0.133-0.040 0.020-0.047 0.067-0.093 0.113-0.133l0.167-0.113 0.16-0.1c0.067-0.047 0.16-0.067 0.24-0.067l0.24-0.020c0.093-0.013 0.173-0.080 0.2-0.173 0.027-0.1 0.067-0.2 0.133-0.287s0.133-0.16 0.2-0.227c0.087-0.067 0.173-0.1 0.267-0.107h0.053c0.107-0.020 0.187-0.12 0.18-0.227v-0.447c0.013-0.067 0.040-0.153 0.080-0.22l0.133-0.2 0.053-0.067c0.040-0.033 0.067-0.080 0.113-0.133l0.067-0.087c0.040-0.067 0.040-0.153-0.013-0.213-0.067-0.067-0.1-0.16-0.113-0.253v-0.027c-0.013-0.107-0.013-0.22 0.020-0.333v-0.033c0.033-0.087 0.080-0.173 0.133-0.253 0.053-0.067 0.047-0.16-0.020-0.213l-0.113-0.1c-0.093-0.080-0.147-0.2-0.16-0.32l-0.013-0.133c0-0.040 0-0.087-0.013-0.133l-0.013-0.1c-0.013-0.113-0.080-0.2-0.173-0.267l-0.047-0.013c-0.067-0.040-0.133-0.1-0.187-0.18-0.053-0.067-0.080-0.16-0.1-0.253l-0.020-0.113c0-0.040-0.027-0.067-0.067-0.087l-0.32-0.1c-0.067-0.013-0.133-0.067-0.18-0.113h-0.013c-0.040-0.053-0.107-0.053-0.147-0.013l-0.067 0.067c-0.013 0.020-0.027 0.027-0.047 0.020-0.040 0-0.067-0.033-0.053-0.067 0.013-0.107-0.027-0.213-0.113-0.28l-0.087-0.067-0.2-0.133c-0.053-0.020-0.133 0-0.16 0.067l-0.027 0.040c0 0.013-0.020 0.020-0.027 0.027-0.027 0-0.067 0-0.067-0.033l-0.020-0.033c-0.020-0.040-0.067-0.067-0.107-0.080zM8.067 8.713l-0.033-0.033c-0.033-0.027-0.067-0.020-0.1 0.013-0.047 0.080-0.087 0.167-0.107 0.253v0.013c-0.020 0.087-0.1 0.147-0.18 0.133h-0.080c-0.093 0-0.167 0.080-0.167 0.173 0 0.12-0.040 0.24-0.113 0.333l-0.040 0.040c-0.067 0.087-0.167 0.147-0.267 0.18l-0.053 0.013c-0.067 0.020-0.12 0.067-0.133 0.147 0 0.067-0.040 0.133-0.093 0.187l-0.067 0.053c-0.080 0.087-0.2 0.133-0.32 0.147l-0.333 0.033c-0.107 0-0.2 0.067-0.267 0.167s-0.167 0.167-0.267 0.18l-0.147 0.013c-0.107 0.013-0.22 0.013-0.333-0.013l-0.067-0.013-0.18-0.047c-0.067-0.020-0.12 0-0.16 0.047l-0.067 0.087c-0.087 0.1-0.213 0.147-0.333 0.133l-0.433-0.053c-0.067 0-0.12-0.033-0.18-0.067-0.067-0.040-0.113-0.087-0.16-0.133l-0.167-0.2c-0.020-0.013-0.053-0.020-0.087-0.013l-0.093 0.040-0.373 0.093c-0.067 0.020-0.153 0-0.22-0.040-0.067-0.053-0.147-0.067-0.227-0.067h-0.087c-0.080 0.020-0.133 0.107-0.107 0.187l0.027 0.133c0.020 0.067 0.013 0.147-0.020 0.213s-0.027 0.133 0.020 0.2l0.040 0.053c0.053 0.080 0.133 0.147 0.2 0.213s0.133 0.133 0.187 0.22l0.1 0.18c0.053 0.093 0.133 0.147 0.24 0.147 0.1 0 0.2 0.033 0.28 0.1l0.2 0.187c0.053 0.047 0.133 0.053 0.187 0.013l0.033-0.013c0.040 0 0.067 0.027 0.067 0.067v0.033c0 0.087 0.067 0.167 0.153 0.2l0.3 0.067c0.107 0.033 0.213 0.067 0.313 0.133h0.053c0.053 0 0.1-0.047 0.093-0.107v-0.233c0-0.067 0.027-0.133 0.080-0.16l0.033-0.013c0.033 0.013 0.067 0.040 0.053 0.067v0.113c0 0.087 0.027 0.167 0.087 0.227 0.067 0.067 0.153 0.080 0.227 0.053 0.080-0.033 0.16-0.040 0.247-0.033l0.247 0.013c0.12 0.013 0.233 0 0.333-0.047 0.12-0.040 0.22-0.093 0.313-0.167l0.040-0.027 0.2-0.18c0.067-0.067 0.153-0.1 0.233-0.1h0.267c0.133-0.013 0.253-0.133 0.267-0.267l0.027-0.133c0-0.087 0.040-0.167 0.1-0.233 0.067-0.067 0.133-0.107 0.2-0.133l0.080-0.033c0.113-0.047 0.2-0.147 0.24-0.267l0.040-0.16c0.033-0.133 0.1-0.267 0.2-0.353l0.013-0.013c0.080-0.067 0.093-0.2 0.040-0.293l-0.020-0.047c-0.047-0.067-0.053-0.167-0.020-0.253 0.033-0.093 0.067-0.173 0.12-0.253l0.067-0.093c0.027-0.053 0.027-0.133-0.013-0.18-0.040-0.053-0.067-0.12-0.067-0.187l-0.013-0.093v-0.227c0.013-0.067 0-0.153-0.020-0.22l-0.027-0.080zM7.113 8.207v-0.020c0-0.067-0.040-0.107-0.093-0.107h-0.173c-0.067 0.013-0.133 0.013-0.187 0h-0.3c-0.153 0-0.3-0.027-0.447-0.067l-0.16-0.040-0.133-0.040-0.3-0.1c-0.16-0.047-0.28-0.153-0.353-0.3l-0.033-0.067c-0.047-0.1-0.147-0.153-0.247-0.133-0.113 0-0.227 0-0.333-0.053l-0.080-0.033c-0.153-0.067-0.267-0.2-0.267-0.38l-0.027-0.18c-0.020-0.093-0.080-0.18-0.16-0.213-0.093-0.040-0.18-0.093-0.267-0.153l-0.033-0.020c-0.1-0.080-0.187-0.187-0.233-0.313l-0.013-0.040c-0.033-0.107-0.040-0.22-0.013-0.333l0.013-0.040c0.027-0.087 0.033-0.173 0.033-0.267 0-0.080-0.033-0.16-0.093-0.22l-0.093-0.087c-0.107-0.087-0.173-0.213-0.18-0.353-0.013-0.147-0.013-0.287 0.013-0.427v-0.040c0-0.080-0.067-0.133-0.133-0.133h-0.020c-0.087 0-0.16 0.053-0.2 0.133-0.033 0.093-0.087 0.167-0.147 0.24l-0.027 0.033-0.2 0.2c-0.067 0.067-0.107 0.167-0.12 0.267s-0.040 0.2-0.080 0.293l-0.013 0.033c-0.033 0.080-0.087 0.153-0.153 0.2-0.067 0.053-0.113 0.133-0.113 0.213l-0.013 0.307c0 0.133-0.020 0.267-0.067 0.4l-0.013 0.053c-0.033 0.087 0 0.18 0.080 0.22l0.28 0.12 0.027 0.013c0.020 0 0.027 0.013 0.033 0.033 0.020 0.027 0 0.067-0.020 0.067l-0.067 0.033c-0.040 0.013-0.067 0.053-0.080 0.1l-0.013 0.067v0.013l-0.067 0.373c-0.013 0.053-0.013 0.113-0.013 0.173 0 0.053 0.033 0.1 0.080 0.12l0.147 0.067c0.067 0.040 0.147 0.087 0.2 0.133l0.067 0.053c0.020 0.027 0.053 0.053 0.080 0.067l0.027 0.027c0.047 0.040 0.080 0.093 0.093 0.153l0.067 0.3c0 0.080 0.067 0.147 0.133 0.167l0.107 0.033c0 0 0.020 0 0.033 0.013l0.133 0.040c0.107 0.033 0.2 0.093 0.28 0.173 0.080 0.067 0.16 0.153 0.227 0.247l0.027 0.027c0.053 0.067 0.133 0.1 0.213 0.080s0.167-0.027 0.253-0.027h0.1c0.067 0 0.153 0.020 0.227 0.067 0.067 0.040 0.153 0.067 0.233 0.1h0.020c0.080 0.033 0.167 0.020 0.233-0.027 0.067-0.053 0.153-0.080 0.24-0.080l0.313 0.020c0.067 0 0.133-0.013 0.167-0.067h0.013l0.113-0.107 0.033-0.033c0.053-0.067 0.133-0.093 0.213-0.1h0.3c0.080 0 0.153-0.067 0.187-0.133s0.1-0.12 0.18-0.133l0.133-0.027c0.053 0 0.1-0.047 0.12-0.107 0.020-0.067 0.053-0.12 0.1-0.16l0.107-0.107c0.067-0.067 0.1-0.133 0.1-0.207z"></path>
</svg>
