<!-- Generated by IcoMoon.io -->
<svg version="1.1" xmlns="http://www.w3.org/2000/svg" width="16" height="16" viewBox="0 0 16 16">
<title>codechef</title>
<path fill="#5b4638" d="M7.338 0c-0.525 0.021-1.010 0.247-1.481 0.457-0.346 0.169-0.758 0.328-1.185 0.454l-0.058 0.015c-0.423 0.117-0.867 0.236-1.209 0.525-0.148 0.12-0.237 0.293-0.353 0.441-0.206 0.324-0.299 0.711-0.305 1.092 0.024 0.407 0.144 0.8 0.251 1.191 0.245 0.841 0.538 1.669 0.798 2.506 0.244 0.774 0.469 1.563 0.863 2.277 0.131 0.263 0.233 0.539 0.357 0.804 0.018 0.045 0.035 0.105 0.095 0.099 0.091-0.008 0.162-0.077 0.245-0.109 0.552-0.276 1.16-0.428 1.77-0.499 0.472-0.049 0.953-0.052 1.421 0.036 0.48 0.109 0.945 0.284 1.395 0.483 0.24 0.115 0.479 0.232 0.725 0.332 0.032 0.027 0.090 0.039 0.107-0.011 0.146-0.218 0.313-0.423 0.445-0.651 0.33-0.707 0.348-1.519 0.692-2.221 0.239-0.481 0.595-0.891 0.844-1.365 0.117-0.177 0.287-0.311 0.392-0.498 0.291-0.446 0.52-0.932 0.7-1.433 0.068-0.195 0.115-0.408 0.060-0.613-0.040-0.199-0.135-0.38-0.212-0.565-0.044-0.167-0.107-0.313-0.189-0.447l0.004 0.007c-0.271-0.451-0.713-0.766-1.162-1.024-0.697-0.393-1.464-0.646-2.234-0.853-0.723-0.201-1.573-0.351-2.447-0.42l-0.048-0.003c-0.066-0.005-0.142-0.007-0.219-0.007-0.021 0-0.042 0-0.063 0.001l0.003-0zM6.745 0.404c-0.174 0.149-0.242 0.379-0.312 0.589-0.112 0.379-0.175 0.775-0.138 1.171 0.043 0.708 0.131 1.413 0.22 2.117 0.12 0.901 0.258 1.8 0.451 2.689 0.017 0.11 0.043 0.231 0.033 0.34-0.077-0.117-0.121-0.255-0.172-0.387-0.167-0.51-0.288-1.033-0.403-1.556-0.192-0.842-0.326-1.829-0.373-2.839l-0.001-0.039c-0.017-0.562-0.003-1.151 0.247-1.667 0.079-0.151 0.173-0.307 0.32-0.398 0.038-0.021 0.083-0.033 0.13-0.033 0.005 0 0.010 0 0.016 0l-0.001-0zM4.344 1.18c0.085 0 0.093 0.106 0.112 0.168 0.177 0.532 0.281 1.085 0.453 1.619 0.116 0.433 0.159 0.882 0.205 1.327 0.065 0.693 0.072 1.39 0.164 2.080 0.017 0.133 0.055 0.262 0.079 0.393 0.007 0.045-0.039 0.033-0.055 0.009-0.099-0.107-0.122-0.261-0.164-0.395-0.107-0.43-0.161-0.87-0.223-1.308-0.116-0.877-0.191-1.76-0.353-2.63-0.105-0.408-0.237-0.81-0.307-1.225 0.004-0.034 0.062-0.032 0.088-0.039zM3.059 2.405c0.153 0.037 0.243 0.179 0.341 0.289 0.267 0.357 0.36 0.803 0.463 1.229 0.189 0.843 0.297 1.702 0.483 2.547 0.087 0.444 0.195 0.884 0.338 1.314 0.009 0.034 0.023 0.089 0.025 0.113-0.155-0.287-0.262-0.597-0.377-0.902-0.399-1.132-0.549-2.331-0.867-3.485-0.089-0.319-0.205-0.633-0.397-0.905-0.031-0.059-0.053-0.136-0.025-0.198 0.004-0.003 0.009-0.002 0.014-0.001zM11.49 11.202c-0.091 0.005-0.207 0.073-0.184 0.178 0.063 0.145 0.223 0.205 0.351 0.277 0.294 0.144 0.625 0.193 0.905 0.364 0.061 0.040 0.099 0.131 0.043 0.191-0.12 0.177-0.313 0.293-0.482 0.423-0.248 0.177-0.518 0.34-0.705 0.586-0.044 0.071-0.027 0.178 0.055 0.213 0.073 0.053 0.162 0.012 0.225-0.034 0.345-0.196 0.663-0.436 0.985-0.668 0.213-0.159 0.429-0.318 0.617-0.507 0.057-0.090-0.020-0.183-0.079-0.247-0.182-0.19-0.413-0.325-0.643-0.447-0.281-0.151-0.607-0.266-0.952-0.327l-0.020-0.003c-0.017-0.001-0.038-0.002-0.058-0.002s-0.041 0.001-0.061 0.002l0.003-0zM3.973 11.22c-0.351 0.089-0.665 0.28-0.983 0.449-0.283 0.162-0.569 0.331-0.803 0.561-0.071 0.081-0.115 0.189-0.115 0.307 0 0.007 0 0.013 0 0.020l-0-0.001c0.043 0.072 0.133 0.093 0.201 0.137 0.568 0.295 1.157 0.548 1.753 0.779 0.088 0.028 0.177 0.075 0.271 0.071 0.105-0.013 0.206-0.136 0.142-0.237-0.097-0.162-0.28-0.241-0.433-0.337-0.365-0.202-0.769-0.341-1.091-0.612-0.031-0.061 0.063-0.085 0.095-0.12 0.366-0.263 0.819-0.395 1.142-0.718 0.059-0.060 0.109-0.173 0.032-0.239-0.057-0.049-0.137-0.058-0.211-0.059zM9.383 11.749c-0.287 0.018-0.557 0.287-0.516 0.584 0.021 0.173 0.059 0.35 0.152 0.499 0.080 0.12 0.22 0.191 0.364 0.191 0.182 0.021 0.393-0.039 0.484-0.212 0.091-0.158 0.141-0.343 0.137-0.525-0.025-0.307-0.311-0.563-0.621-0.538zM6.39 11.755c-0.309 0.019-0.538 0.337-0.513 0.635 0.007 0.296 0.21 0.601 0.51 0.663 0.235 0.040 0.473-0.127 0.535-0.353 0.083-0.233 0.088-0.507-0.029-0.73-0.105-0.167-0.319-0.218-0.503-0.215zM6.465 12.191c0.161 0.043 0.196 0.313 0.030 0.372-0.094 0.023-0.159-0.080-0.156-0.163-0.005-0.085 0.033-0.191 0.126-0.209zM9.423 12.286c0.065 0 0.151 0.047 0.127 0.125-0.009 0.114-0.143 0.222-0.251 0.151-0.088-0.047-0.115-0.197-0.013-0.245 0.037-0.019 0.080-0.030 0.126-0.030 0.004 0 0.008 0 0.012 0l-0.001-0zM7.077 14.271c-0.369 0.034-0.696 0.223-1.028 0.373-0.203 0.104-0.441 0.208-0.67 0.125-0.251-0.080-0.471-0.233-0.706-0.347-0.050-0.009-0.041 0.051-0.031 0.081 0.054 0.353 0.086 0.735 0.303 1.033 0.225 0.291 0.601 0.412 0.955 0.445 0.531 0.048 1.095-0.079 1.514-0.419 0.206-0.175 0.381-0.421 0.39-0.699-0.004-0.216-0.163-0.397-0.349-0.489-0.106-0.064-0.234-0.102-0.37-0.102-0.002 0-0.005 0-0.007 0h0zM8.797 14.276c-0.264 0.035-0.543 0.175-0.648 0.433-0.086 0.239 0.023 0.499 0.181 0.68 0.284 0.339 0.713 0.529 1.145 0.589 0.385 0.052 0.791 0.009 1.143-0.16 0.292-0.15 0.511-0.437 0.567-0.761 0.043-0.194 0.054-0.393 0.083-0.589-0.044-0.052-0.099 0.025-0.145 0.035-0.225 0.095-0.431 0.245-0.673 0.29-0.242 0.016-0.458-0.115-0.677-0.195-0.287-0.119-0.567-0.269-0.877-0.319-0.021-0.002-0.046-0.003-0.071-0.003-0.010 0-0.019 0-0.029 0.001l0.001-0zM6.877 10.882c-0.047 0-0.095 0.009-0.144 0.020-0.118 0.029-0.218 0.064-0.315 0.106l0.013-0.005c-0.1 0.041-0.195 0.085-0.271 0.12-0.030 0.015-0.078 0.036-0.127 0.055l-0.018 0.006c-0.009 0.001-0.019 0.002-0.029 0.002-0.034 0-0.066-0.009-0.093-0.025l0.001 0c-0.041-0.025-0.080-0.067-0.094-0.17l-0.18 0.025c0.021 0.145 0.093 0.247 0.18 0.3s0.179 0.060 0.252 0.045c0.057-0.012 0.107-0.039 0.184-0.074s0.17-0.079 0.265-0.117c0.095-0.039 0.192-0.073 0.273-0.092 0.029-0.009 0.062-0.014 0.096-0.014 0.026 0 0.050 0.003 0.074 0.008l-0.002-0c0.093 0.040 0.127 0.087 0.143 0.119s0.020 0.045 0.020 0.045l0.175-0.040c0 0 0.001-0.016-0.033-0.085-0.052-0.093-0.133-0.165-0.23-0.204l-0.003-0.001c-0.037-0.016-0.079-0.025-0.124-0.025-0.004 0-0.008 0-0.012 0l0.001-0zM8.706 13.507c-0.027 0.001-0.052 0.013-0.068 0.033l-0 0c0 0-0.081 0.099-0.191 0.197s-0.253 0.187-0.329 0.189c-0.075 0.002-0.209-0.079-0.313-0.173-0.103-0.093-0.178-0.189-0.178-0.189-0.017-0.024-0.044-0.040-0.075-0.040-0.050 0-0.091 0.041-0.091 0.091 0 0.023 0.009 0.044 0.023 0.060l-0-0c0 0 0.083 0.107 0.199 0.213s0.265 0.225 0.44 0.22c0.173-0.005 0.323-0.127 0.444-0.235s0.21-0.217 0.21-0.217c0.013-0.016 0.021-0.036 0.021-0.058 0-0.050-0.041-0.091-0.091-0.091-0.001 0-0.002 0-0.002 0h0zM7.338 0.001c-0.525 0.020-1.010 0.245-1.481 0.456-0.346 0.169-0.758 0.328-1.185 0.454l-0.058 0.015c-0.423 0.117-0.867 0.236-1.209 0.525-0.148 0.12-0.237 0.293-0.353 0.442-0.206 0.323-0.299 0.711-0.305 1.091 0.024 0.407 0.144 0.8 0.251 1.191 0.245 0.842 0.538 1.669 0.798 2.506 0.244 0.774 0.469 1.563 0.863 2.278 0.131 0.262 0.233 0.538 0.357 0.803 0.018 0.045 0.035 0.105 0.095 0.1 0.091-0.009 0.162-0.077 0.245-0.11 0.552-0.276 1.16-0.427 1.77-0.499 0.472-0.049 0.953-0.052 1.421 0.037 0.48 0.109 0.945 0.283 1.395 0.482 0.24 0.115 0.479 0.232 0.725 0.332 0.032 0.027 0.090 0.039 0.107-0.011 0.146-0.218 0.313-0.423 0.445-0.65 0.33-0.708 0.348-1.52 0.692-2.221 0.239-0.481 0.595-0.891 0.844-1.365 0.117-0.177 0.287-0.312 0.392-0.498 0.291-0.447 0.52-0.933 0.7-1.434 0.068-0.195 0.115-0.408 0.060-0.613-0.040-0.199-0.135-0.38-0.212-0.565-0.044-0.167-0.108-0.313-0.189-0.447l0.004 0.007c-0.271-0.451-0.713-0.767-1.162-1.024-0.697-0.394-1.464-0.647-2.234-0.854-0.723-0.201-1.573-0.351-2.447-0.42l-0.048-0.003c-0.063-0.004-0.137-0.007-0.211-0.007-0.024 0-0.048 0-0.072 0.001l0.004-0zM6.745 0.405c-0.174 0.148-0.242 0.379-0.312 0.589-0.112 0.378-0.175 0.775-0.138 1.17 0.043 0.708 0.131 1.413 0.22 2.117 0.12 0.901 0.258 1.801 0.451 2.689 0.017 0.11 0.043 0.231 0.033 0.34-0.077-0.117-0.121-0.255-0.172-0.387-0.167-0.51-0.288-1.033-0.403-1.556-0.192-0.842-0.326-1.829-0.373-2.838l-0.001-0.039c-0.017-0.563-0.003-1.151 0.247-1.668 0.079-0.15 0.173-0.307 0.32-0.398 0.038-0.021 0.083-0.033 0.13-0.033 0.005 0 0.010 0 0.016 0l-0.001-0zM4.344 1.18c0.085 0 0.093 0.107 0.112 0.168 0.177 0.532 0.281 1.085 0.453 1.619 0.116 0.432 0.159 0.881 0.205 1.327 0.065 0.693 0.072 1.391 0.164 2.080 0.017 0.133 0.055 0.263 0.079 0.393 0.007 0.045-0.039 0.033-0.055 0.009-0.099-0.107-0.122-0.26-0.164-0.395-0.107-0.43-0.161-0.869-0.223-1.308-0.116-0.877-0.191-1.76-0.353-2.63-0.105-0.408-0.237-0.81-0.307-1.225 0.004-0.034 0.062-0.032 0.088-0.039zM3.059 2.405c0.153 0.037 0.243 0.178 0.341 0.289 0.267 0.357 0.36 0.803 0.463 1.229 0.189 0.843 0.297 1.703 0.483 2.547 0.087 0.444 0.195 0.885 0.338 1.314 0.009 0.034 0.023 0.089 0.025 0.113-0.155-0.287-0.262-0.597-0.377-0.901-0.399-1.133-0.549-2.331-0.867-3.487-0.089-0.318-0.205-0.633-0.397-0.905-0.031-0.058-0.053-0.136-0.025-0.197 0.004-0.003 0.009-0.002 0.014-0.001zM11.49 11.202c-0.091 0.005-0.207 0.073-0.184 0.179 0.063 0.145 0.223 0.205 0.351 0.277 0.294 0.143 0.625 0.193 0.905 0.363 0.061 0.040 0.099 0.131 0.043 0.191-0.12 0.178-0.313 0.293-0.482 0.423-0.248 0.177-0.518 0.34-0.705 0.586-0.044 0.071-0.027 0.178 0.055 0.213 0.073 0.053 0.162 0.013 0.225-0.033 0.345-0.197 0.663-0.437 0.985-0.668 0.213-0.16 0.429-0.319 0.617-0.507 0.057-0.090-0.020-0.183-0.079-0.247-0.182-0.191-0.413-0.325-0.643-0.448-0.281-0.15-0.607-0.265-0.952-0.326l-0.020-0.003c-0.019-0.002-0.041-0.002-0.063-0.002-0.019 0-0.038 0.001-0.056 0.002l0.003-0zM3.973 11.221c-0.351 0.089-0.665 0.28-0.983 0.448-0.283 0.162-0.569 0.331-0.803 0.561-0.071 0.081-0.115 0.189-0.115 0.307 0 0.006 0 0.013 0 0.019l-0-0.001c0.043 0.073 0.133 0.093 0.201 0.137 0.568 0.295 1.157 0.549 1.753 0.779 0.088 0.028 0.177 0.075 0.271 0.072 0.105-0.013 0.206-0.137 0.142-0.238-0.097-0.162-0.28-0.241-0.433-0.337-0.365-0.202-0.769-0.341-1.091-0.612-0.031-0.060 0.063-0.085 0.095-0.12 0.366-0.263 0.819-0.395 1.142-0.718 0.059-0.060 0.109-0.172 0.032-0.238-0.057-0.049-0.137-0.059-0.211-0.059zM9.383 11.749c-0.287 0.019-0.557 0.288-0.516 0.584 0.021 0.173 0.059 0.351 0.152 0.5 0.080 0.119 0.22 0.19 0.364 0.191 0.182 0.020 0.393-0.040 0.484-0.213 0.091-0.157 0.141-0.343 0.137-0.525-0.025-0.307-0.311-0.563-0.621-0.538zM6.389 11.756c-0.309 0.019-0.538 0.337-0.513 0.635 0.007 0.296 0.21 0.601 0.51 0.663 0.235 0.039 0.473-0.127 0.535-0.353 0.083-0.233 0.088-0.508-0.029-0.731-0.105-0.166-0.319-0.218-0.503-0.215zM6.464 12.192c0.161 0.042 0.196 0.313 0.030 0.371-0.094 0.023-0.159-0.080-0.156-0.163-0.005-0.085 0.033-0.191 0.126-0.209zM9.422 12.287c0.065 0 0.151 0.048 0.127 0.125-0.009 0.115-0.143 0.222-0.251 0.151-0.088-0.047-0.115-0.198-0.013-0.246 0.037-0.019 0.080-0.030 0.126-0.030 0.004 0 0.008 0 0.012 0l-0.001-0zM7.077 14.271c-0.369 0.035-0.696 0.224-1.028 0.373-0.203 0.103-0.441 0.207-0.67 0.124-0.251-0.079-0.471-0.233-0.706-0.347-0.050-0.008-0.041 0.052-0.031 0.081 0.054 0.353 0.086 0.735 0.303 1.033 0.225 0.292 0.601 0.413 0.955 0.445 0.531 0.048 1.095-0.079 1.514-0.419 0.206-0.175 0.381-0.42 0.39-0.699-0.004-0.216-0.163-0.397-0.349-0.489-0.106-0.064-0.234-0.102-0.37-0.102-0.002 0-0.005 0-0.007 0h0zM8.797 14.277c-0.264 0.035-0.543 0.175-0.648 0.433-0.086 0.239 0.023 0.499 0.181 0.681 0.284 0.339 0.713 0.528 1.145 0.589 0.385 0.052 0.791 0.010 1.143-0.16 0.292-0.15 0.511-0.437 0.567-0.761 0.043-0.193 0.054-0.393 0.083-0.589-0.044-0.051-0.099 0.026-0.145 0.035-0.225 0.095-0.431 0.245-0.673 0.291-0.242 0.016-0.458-0.115-0.677-0.196-0.287-0.119-0.567-0.268-0.877-0.318-0.023-0.002-0.050-0.004-0.077-0.004-0.008 0-0.016 0-0.023 0l0.001-0z"></path>
</svg>
