<!-- Generated by IcoMoon.io -->
<svg version="1.1" xmlns="http://www.w3.org/2000/svg" width="16" height="16" viewBox="0 0 16 16">
<title>codeship</title>
<path fill="#3c4858" d="M8.035 0c-0.648 0-1.599 0.27-1.599 0.508v1.411c0.48-0.105 1.036-0.17 1.605-0.181l0.008-0c0.58 0.013 1.136 0.076 1.677 0.184l-0.061-0.010v-1.396c0-0.245-0.983-0.516-1.63-0.515zM8.050 2.525c-1.361 0-3.379 0.558-3.379 0.795v1.73c0.962-0.676 2.071-1.236 3.258-1.624l0.089-0.025c0.008-0.009 1.869 0.499 3.475 1.663l0.002 0.002v-1.747c0-0.247-2.084-0.795-3.445-0.795zM8.067 4.247c-0.509 0.131-1.009 0.37-1.476 0.591-1.068 0.51-1.988 1.126-2.805 1.855l0.012-0.010c0.901 0.919 1.441 2.073 1.769 3.147l0.025 0.075 0.027 0.025-0.035-0.025c-0.009-0.009-1.082-1.107-2.648-1.107-0.828 0-1.787 0.304-2.795 1.222 0.098 0.344 0.213 0.671 0.352 0.999v0.011l0.017 0.031c1.336 3.050 4.467 5.035 7.795 4.937 3.263-0.098 6.232-2.207 7.42-5.239 0.065-0.164 0.123-0.337 0.181-0.501-1.124-0.836-2.888-1.876-3.567-1.745v-0.002c-0.517 0.099-1.124 0.844-1.903 1.59 0.312-1.107 0.871-2.343 1.888-3.409-0.25-0.229-0.52-0.452-0.801-0.661l-0.028-0.020v-0.008c-1.017-0.755-2.199-1.403-3.428-1.755zM8.060 4.845l0.408 2.033-0.098 1.78-0.295 2.639v0.012l-0.033-0.004c-0.004-0.001-0.010-0.005-0.015-0.007v-0.018l-0.329-2.631-0.081-1.769zM8.66 11.395l0.014 0.003c0 0.001-0.031 0.014-0.063 0.026l-0.032 0.011c0.027-0.015 0.053-0.024 0.081-0.040z"></path>
</svg>
