<!-- Generated by IcoMoon.io -->
<svg version="1.1" xmlns="http://www.w3.org/2000/svg" width="16" height="16" viewBox="0 0 16 16">
<title>codecademy</title>
<path fill="#1f4056" d="M15.885 13.153h-3.73c-0.063 0-0.113 0.039-0.113 0.115v1.010c0 0.063 0.039 0.113 0.115 0.113h3.729c0.064 0 0.115-0.029 0.115-0.109v-1.010c0-0.070-0.038-0.111-0.115-0.111v-0.009zM10.975 1.643c0.011 0.023 0.020 0.045 0.031 0.080v12.527c0 0.041-0.013 0.064-0.025 0.076-0.021 0.025-0.051 0.040-0.086 0.040-0.001 0-0.003-0-0.004-0h-10.79c-0.025 0-0.050 0-0.065-0.013-0.023-0.022-0.037-0.053-0.037-0.087 0-0.001 0-0.001 0-0.002v0-12.553c0-0.051 0.027-0.089 0.064-0.1h10.828c0.027 0 0.064 0.011 0.077 0.023v0.011zM1.212 13.050c0 0.049 0.025 0.091 0.064 0.102h8.429c0.039-0.013 0.064-0.051 0.064-0.103v-10.113c0-0.049-0.026-0.089-0.065-0.1h-8.427c-0.037 0.013-0.064 0.049-0.064 0.1l-0.002 10.113zM4.661 7.467c0.433 0 0.676 0.118 0.931 0.413 0.039 0.050 0.102 0.063 0.153 0.023l0.689-0.613c0.050-0.029 0.039-0.109 0.013-0.149-0.423-0.509-1.036-0.829-1.827-0.829-1.060 0-1.86 0.53-2.17 1.471-0.11 0.33-0.16 0.751-0.16 1.319 0 0.57 0.050 0.989 0.17 1.32 0.31 0.951 1.11 1.47 2.17 1.47 0.8 0 1.41-0.32 1.83-0.811 0.030-0.049 0.040-0.11-0.010-0.151l-0.691-0.61c-0.049-0.031-0.109-0.031-0.149 0.018-0.26 0.3-0.53 0.46-0.969 0.46-0.471 0-0.83-0.23-0.98-0.69-0.091-0.26-0.111-0.58-0.111-0.989 0-0.41 0.030-0.712 0.12-0.981 0.16-0.439 0.511-0.671 0.991-0.671z"></path>
</svg>
