<!-- Generated by IcoMoon.io -->
<svg version="1.1" xmlns="http://www.w3.org/2000/svg" width="16" height="16" viewBox="0 0 16 16">
<title>codecov</title>
<path fill="#f01f7a" d="M8.005 0.32c-4.411 0.003-8.001 3.567-8.005 7.946v0.020l1.361 0.794 0.019-0.013c0.614-0.426 1.374-0.68 2.194-0.68 0.004 0 0.008 0 0.012 0h-0.001c0.247 0 0.489 0.023 0.724 0.067l-0.024-0.004c0.748 0.136 1.4 0.475 1.918 0.956l-0.002-0.002-0.003-0.002 0.233 0.217 0.132-0.289c0.128-0.28 0.276-0.543 0.44-0.782 0.066-0.096 0.139-0.193 0.221-0.297l0.137-0.171-0.168-0.141c-0.704-0.594-1.57-1.018-2.523-1.199l-0.035-0.005-0.035-0.005c-0.307-0.058-0.659-0.092-1.020-0.092-0.607 0-1.192 0.095-1.741 0.27l0.040-0.011 0.041-0.011c0.647-2.838 3.143-4.816 6.089-4.818 0.006-0 0.014-0 0.021-0 1.709 0 3.257 0.691 4.38 1.809l-0-0c0.808 0.797 1.395 1.816 1.664 2.958l0.008 0.042c-0.497-0.16-1.069-0.253-1.662-0.253-0.001 0-0.003 0-0.004 0h-0.102c-0.237 0.004-0.467 0.022-0.691 0.052l0.030-0.003-0.028 0.004c-0.117 0.015-0.205 0.029-0.293 0.045l0.033-0.005c-0.038 0.007-0.076 0.015-0.113 0.022-0.124 0.024-0.212 0.045-0.299 0.068l0.038-0.008-0.092 0.023c-0.152 0.040-0.259 0.073-0.365 0.109l0.043-0.013-0.019 0.007c-0.237 0.080-0.473 0.179-0.701 0.293l-0.018 0.009c-0.101 0.051-0.203 0.107-0.313 0.171l-0.024 0.015c-0.545 0.329-1.010 0.728-1.398 1.192l-0.007 0.009-0.007 0.009-0.050 0.061c-0.079 0.096-0.161 0.205-0.24 0.317l-0.012 0.018c-0.059 0.087-0.118 0.179-0.192 0.301l-0.040 0.069c-0.039 0.064-0.091 0.159-0.14 0.254l-0.016 0.034-0.011 0.019c-0.113 0.227-0.211 0.465-0.293 0.709l-0.011 0.035c-0.174 0.506-0.275 1.090-0.275 1.697 0 0.040 0 0.080 0.001 0.12l-0-0.006v-0.005l0.001 0.075c0.004 0.105 0.009 0.197 0.015 0.287l-0.001-0.025c0.010 0.124 0.020 0.219 0.032 0.313l-0.004-0.038 0.003 0.028 0.009 0.069c0.012 0.085 0.025 0.168 0.041 0.252 0.161 0.844 0.563 1.688 1.163 2.44l0.027 0.034 0.028-0.033c0.239-0.283 0.833-1.18 0.883-1.718l0.001-0.010-0.005-0.009c-0.269-0.501-0.427-1.095-0.427-1.727 0-0.001 0-0.002 0-0.004v-0c0-2.011 1.581-3.681 3.598-3.801l0.133-0.005c0.027-0.001 0.058-0.001 0.090-0.001 0.83 0 1.601 0.256 2.237 0.693l-0.013-0.009 0.019 0.013 1.361-0.791v-0.020c0-0.007 0-0.016 0-0.025 0-2.188-0.895-4.167-2.34-5.59l-0.001-0.001c-1.442-1.435-3.43-2.321-5.625-2.321-0.011 0-0.022 0-0.033 0h0.002z"></path>
</svg>
