<!-- Generated by IcoMoon.io -->
<svg version="1.1" xmlns="http://www.w3.org/2000/svg" width="16" height="16" viewBox="0 0 16 16">
<title>codefactor</title>
<path fill="#f44a6a" d="M3.58 1.767c0 0.002 0 0.004 0 0.007 0 0.967-0.78 1.752-1.746 1.76h-0.001c-0.969-0.004-1.753-0.79-1.753-1.76 0-0.002 0-0.005 0-0.007v0c-0-0.002-0-0.004-0-0.007 0-0.97 0.784-1.756 1.753-1.76h0c0.966 0.008 1.747 0.793 1.747 1.76 0 0.002 0 0.005-0 0.007v-0zM3.58 8c0 0.002 0 0.004 0 0.007 0 0.967-0.78 1.752-1.746 1.76h-0.001c-0.969-0.004-1.753-0.79-1.753-1.76 0-0.002 0-0.005 0-0.007v0c-0-0.002-0-0.004-0-0.007 0-0.97 0.784-1.756 1.753-1.76h0c0.966 0.008 1.747 0.793 1.747 1.76 0 0.002 0 0.005-0 0.007v-0zM3.58 14.233c0 0.002 0 0.004 0 0.007 0 0.967-0.78 1.752-1.746 1.76h-0.001c-0.969-0.004-1.753-0.79-1.753-1.76 0-0.002 0-0.005 0-0.007v0c-0-0.002-0-0.004-0-0.007 0-0.97 0.784-1.756 1.753-1.76h0c0.966 0.008 1.747 0.793 1.747 1.76 0 0.002 0 0.005-0 0.007v-0zM7.54 0c-0.963 0.011-1.74 0.795-1.74 1.76 0 0.002 0 0.005 0 0.007v-0c-0 0.002-0 0.004-0 0.007 0 0.963 0.773 1.745 1.732 1.76l0.001 0h6.627c0.969-0.004 1.753-0.79 1.753-1.76 0-0.002 0-0.005-0-0.007v0c0-0.002 0-0.004 0-0.007 0-0.967-0.78-1.752-1.746-1.76h-0.001zM5.8 8c-0-0.002-0-0.004-0-0.007 0-0.967 0.78-1.752 1.746-1.76h3.787c0.96 0.015 1.733 0.797 1.733 1.76 0 0.002 0 0.005-0 0.007v-0c0 0.002 0 0.004 0 0.007 0 0.963-0.773 1.745-1.732 1.76l-0.001 0h-3.8c-0.96-0.015-1.733-0.797-1.733-1.76 0-0.002 0-0.005 0-0.007v0z"></path>
</svg>
