<!-- Generated by IcoMoon.io -->
<svg version="1.1" xmlns="http://www.w3.org/2000/svg" width="16" height="16" viewBox="0 0 16 16">
<title>codepen</title>
<path d="M16 5.455l-0.012-0.058-0.011-0.033c-0.007-0.016-0.012-0.033-0.020-0.050-0.002-0.012-0.010-0.023-0.013-0.033l-0.023-0.045-0.020-0.033-0.029-0.040-0.031-0.030-0.040-0.030-0.031-0.020-0.040-0.029-0.029-0.027-0.010-0.013-7.303-4.886c-0.231-0.155-0.531-0.155-0.761 0l-7.403 4.941-0.025 0.027-0.033 0.037-0.025 0.030-0.033 0.040c-0.013 0.011-0.020 0.020-0.020 0.031l-0.033 0.040-0.013 0.040c-0.013 0.007-0.013 0.027-0.020 0.047l-0.007 0.033c-0.013 0.021-0.013 0.041-0.013 0.061v4.998c0 0.029 0.002 0.060 0.007 0.090l0.007 0.031c0.003 0.020 0.007 0.040 0.013 0.057l0.010 0.033c0.007 0.018 0.011 0.035 0.018 0.050l0.015 0.033c0 0.007 0.010 0.027 0.020 0.040l0.020 0.027c0.010 0.007 0.020 0.027 0.030 0.040l0.020 0.027 0.027 0.027c0.007 0.009 0.007 0.020 0.020 0.020l0.040 0.028 0.027 0.020 0.007 0.009 7.313 4.887c0.109 0.080 0.25 0.109 0.38 0.109s0.26-0.040 0.38-0.12l7.439-4.937 0.035-0.039 0.022-0.030 0.027-0.040 0.020-0.033 0.020-0.047 0.011-0.035 0.020-0.051 0.010-0.030 0.020-0.053v-5c0-0.033 0-0.063-0.011-0.093l-0.009-0.030 0.029 0.002zM8.007 9.641l-2.433-1.627 2.433-1.628 2.433 1.627zM7.317 5.192l-2.982 1.993-2.409-1.611 5.391-3.593zM3.097 8.014l-1.721 1.153v-2.301zM4.335 8.847l2.982 1.993v3.213l-5.391-3.594 2.412-1.611zM8.693 10.841l2.983-1.987 2.409 1.613-5.391 3.593zM12.913 8.021l1.722-1.147v2.304zM11.677 7.194l-2.982-1.994v-3.22l5.39 3.593-2.408 1.61z"></path>
</svg>
