<!-- Generated by IcoMoon.io -->
<svg version="1.1" xmlns="http://www.w3.org/2000/svg" width="16" height="16" viewBox="0 0 16 16">
<title>coderwall</title>
<path fill="#3e8dcc" d="M14.236 12.472c0.973 0 1.764 0.79 1.764 1.764s-0.791 1.764-1.764 1.764-1.764-0.791-1.764-1.764c0-0.972 0.79-1.764 1.764-1.764zM8 6.236c0.973 0 1.764 0.791 1.764 1.764s-0.791 1.764-1.764 1.764-1.764-0.791-1.764-1.764 0.791-1.764 1.764-1.764zM14.236 6.236c0.973 0 1.764 0.791 1.764 1.764s-0.791 1.764-1.764 1.764-1.764-0.791-1.764-1.764 0.79-1.764 1.764-1.764zM8 0c0.973 0 1.764 0.79 1.764 1.764s-0.791 1.764-1.764 1.764-1.764-0.791-1.764-1.764 0.791-1.764 1.764-1.764zM1.764 0c0.973 0 1.764 0.79 1.764 1.764s-0.791 1.764-1.764 1.764-1.764-0.791-1.764-1.764 0.791-1.764 1.764-1.764zM14.236 0c0.973 0 1.764 0.79 1.764 1.764s-0.791 1.764-1.764 1.764-1.764-0.791-1.764-1.764 0.79-1.764 1.764-1.764z"></path>
</svg>
