<!-- Generated by IcoMoon.io -->
<svg version="1.1" xmlns="http://www.w3.org/2000/svg" width="16" height="16" viewBox="0 0 16 16">
<title>codeigniter</title>
<path fill="#ee4623" d="M5.66 16c-1.027-0.453-1.724-1.431-1.815-2.549 0.060-1.151 0.668-2.203 1.633-2.831-0.159 0.387-0.12 0.827 0.1 1.18 0.251 0.35 0.681 0.518 1.103 0.431 0.601-0.169 0.953-0.793 0.784-1.395-0.060-0.211-0.18-0.401-0.344-0.545-0.68-0.553-1.021-1.422-0.9-2.291 0.117-0.46 0.371-0.876 0.731-1.19-0.27 0.72 0.491 1.431 1.003 1.78 0.907 0.544 1.78 1.142 2.616 1.791 0.913 0.72 1.411 1.847 1.333 3-0.205 1.227-1.073 2.24-2.257 2.62 2.367-0.527 4.807-2.407 4.853-5.073-0.047-2.133-1.32-4.048-3.267-4.92h-0.087c0.043 0.105 0.064 0.217 0.060 0.331 0.007-0.073 0.007-0.147 0-0.22 0.011 0.087 0.011 0.173 0 0.26-0.148 0.607-0.76 0.98-1.368 0.832-0.243-0.060-0.46-0.197-0.616-0.393-0.78-1 0-2.138 0.131-3.238 0.080-1.407-0.563-2.751-1.703-3.573 0.571 0.951-0.189 2.2-0.742 2.911s-1.353 1.24-2.005 1.86c-0.703 0.653-1.347 1.372-1.925 2.14-1.249 1.527-1.74 3.54-1.333 5.47 0.557 1.86 2.103 3.257 4.010 3.62z"></path>
</svg>
