<!-- Generated by IcoMoon.io -->
<svg version="1.1" xmlns="http://www.w3.org/2000/svg" width="16" height="16" viewBox="0 0 16 16">
<title>coffeescript</title>
<path d="M3.093 4.98c1.4 0.353 3.187 0.533 5.34 0.533 2.2 0 3.947-0.18 5.34-0.533 1.487-0.347 2.2-0.813 2.2-1.253 0-0.313-0.32-0.62-0.9-0.853 0.133 0.087 0.233 0.233 0.233 0.393 0 0.447-0.673 0.813-2.027 1.12-1.253 0.273-2.853 0.467-4.8 0.467-1.88 0-3.553-0.193-4.76-0.453-1.3-0.32-1.98-0.667-1.98-1.12 0-0.187 0.087-0.347 0.347-0.533-0.813 0.313-1.253 0.58-1.253 0.98 0.047 0.453 0.773 0.907 2.26 1.253zM6.22 3.54c1.513-0.133 1.953-1.107 3.727-1.267 0.873-0.067 1.427 0.107 1.487 0.413 0.053 0.287-0.38 0.48-0.907 0.52-0.727 0.073-1.027-0.187-1.087-0.433-0.54 0.060-0.627 0.287-0.6 0.447 0.060 0.307 0.713 0.613 1.833 0.507 1.267-0.1 1.693-0.6 1.587-1.1-0.133-0.653-1.107-1.2-2.853-1.033-2.24 0.2-2.227 1.24-3.753 1.367-0.627 0.060-0.973-0.087-1.033-0.333-0.040-0.247 0.267-0.367 0.627-0.393 0.333-0.033 0.74 0.027 0.933 0.133 0.14-0.073 0.187-0.147 0.173-0.233-0.067-0.233-0.527-0.333-1.107-0.293-1.133 0.1-1.133 0.607-1.093 0.833 0.113 0.58 0.987 0.967 2.067 0.867zM13.833 6.1c-1.4 0.327-3.187 0.54-5.34 0.54-2.2 0-3.993-0.227-5.387-0.533-1.253-0.32-1.92-0.673-2.153-1.040 0.12 0.82 0.327 1.613 0.593 2.367-0.32 0.2-0.607 0.447-0.867 0.78-0.426 0.516-0.684 1.184-0.684 1.912 0 0.055 0.001 0.109 0.004 0.163l-0-0.008c0.052 0.715 0.409 1.337 0.941 1.742l0.006 0.004c0.58 0.453 1.207 0.587 1.92 0.453 0.273-0.047 0.58-0.187 0.86-0.28-0.587 0-1.080-0.187-1.573-0.58-0.529-0.371-0.896-0.942-0.992-1.601l-0.002-0.013c-0.133-0.627 0-1.207 0.353-1.72 0.080-0.1 0.167-0.187 0.26-0.267 0.2 0.487 0.413 0.967 0.653 1.413 0.54 0.82 1.080 1.533 1.62 2.307 0.233 0.453 0.387 0.9 0.493 1.347 0.358 0.49 0.872 0.846 1.469 0.996l0.018 0.004c0.767 0.267 1.567 0.387 2.387 0.34h0.087c0.089 0.004 0.193 0.007 0.297 0.007 0.774 0 1.518-0.129 2.211-0.367l-0.048 0.014c0.59-0.176 1.083-0.525 1.435-0.987l0.005-0.007h0.047c0.087-0.447 0.233-0.893 0.447-1.347 0.533-0.78 1.080-1.487 1.613-2.307 0.695-1.26 1.216-2.725 1.482-4.277l0.012-0.083c-0.287 0.4-0.96 0.753-2.167 1.027z"></path>
</svg>
