<!-- Generated by IcoMoon.io -->
<svg version="1.1" xmlns="http://www.w3.org/2000/svg" width="16" height="16" viewBox="0 0 16 16">
<title>coinbase</title>
<path fill="#0667d0" d="M1.594 9.241c0.059 0.13 0.136 0.247 0.227 0.349-0.18 0.099-0.395 0.157-0.623 0.157-0.007 0-0.013-0-0.020-0l0.001 0c-0.683 0-1.179-0.451-1.179-1.169 0-0.724 0.521-1.175 1.179-1.175 0.234 0 0.419 0.051 0.605 0.15-0.087 0.107-0.159 0.228-0.213 0.361-0.101-0.041-0.219-0.065-0.342-0.065-0.002 0-0.004 0-0.005 0h0c-0.405 0-0.719 0.259-0.719 0.729 0 0.445 0.304 0.729 0.739 0.729 0.125 0 0.24-0.023 0.349-0.066zM2.969 7.403c0.673 0 1.159 0.476 1.159 1.175 0 0.693-0.486 1.169-1.159 1.169-0.668 0-1.154-0.476-1.154-1.169 0-0.699 0.486-1.175 1.154-1.175zM2.969 7.833c-0.375 0-0.648 0.289-0.648 0.745 0 0.451 0.273 0.739 0.648 0.739 0.385 0 0.653-0.289 0.653-0.739 0-0.456-0.269-0.745-0.653-0.745zM4.447 9.696v-2.243h0.501v2.243zM4.381 6.765c0.011-0.165 0.147-0.294 0.314-0.294s0.303 0.129 0.314 0.293l0 0.001c-0.001 0.174-0.14 0.315-0.314 0.319h-0c-0.174-0.003-0.313-0.145-0.314-0.319v-0zM5.385 7.595c0.305-0.119 0.657-0.189 1.026-0.193l0.002-0c0.572 0 0.937 0.217 0.937 0.851v1.443h-0.496v-1.397c0-0.324-0.203-0.441-0.481-0.441-0.004-0-0.008-0-0.013-0-0.168 0-0.331 0.024-0.485 0.069l0.012-0.003v1.772h-0.501zM7.768 6.253h0.501v1.261c0.106-0.056 0.314-0.111 0.511-0.111 0.648 0 1.134 0.415 1.134 1.134 0 0.724-0.481 1.21-1.311 1.21-0.324 0-0.607-0.065-0.835-0.147zM8.269 9.271c0.096 0.030 0.223 0.045 0.349 0.045 0.46 0 0.789-0.253 0.789-0.77 0-0.435-0.309-0.693-0.688-0.693-0.005-0-0.011-0-0.017-0-0.159 0-0.308 0.039-0.439 0.109l0.005-0.002zM11.361 8.193c0-0.243-0.182-0.355-0.43-0.355-0.24 0.001-0.463 0.069-0.654 0.185l0.006-0.003v-0.435c0.206-0.115 0.453-0.182 0.715-0.182 0.005 0 0.010 0 0.015 0h-0.001c0.491 0 0.84 0.203 0.84 0.765v1.483c-0.231 0.057-0.496 0.091-0.768 0.091h-0c-0.582 0-1.007-0.177-1.007-0.684 0-0.455 0.389-0.678 1.037-0.678h0.248zM11.361 8.714h-0.213c-0.349 0-0.577 0.101-0.577 0.329 0 0.233 0.213 0.324 0.516 0.324 0.076 0 0.183-0.011 0.273-0.025zM12.217 9.089c0.207 0.157 0.455 0.253 0.683 0.253 0.223 0 0.369-0.076 0.369-0.253 0-0.183-0.131-0.248-0.42-0.324-0.465-0.107-0.663-0.294-0.663-0.683 0-0.456 0.345-0.679 0.8-0.679 0.253 0 0.455 0.055 0.643 0.172v0.461c-0.197-0.141-0.389-0.228-0.627-0.228-0.218 0-0.334 0.107-0.334 0.253s0.096 0.223 0.354 0.294c0.511 0.111 0.734 0.303 0.734 0.709 0 0.471-0.359 0.683-0.845 0.683-0.263 0-0.526-0.071-0.693-0.182zM14.441 8.689v0.010c0.030 0.4 0.375 0.618 0.723 0.618 0.309 0 0.532-0.071 0.754-0.218v0.441c-0.202 0.142-0.501 0.207-0.789 0.207-0.698 0-1.174-0.445-1.174-1.154 0-0.714 0.465-1.19 1.083-1.19 0.653 0 0.961 0.42 0.961 1.033v0.253zM15.529 8.365c-0.010-0.349-0.182-0.542-0.506-0.542-0.289 0-0.501 0.203-0.567 0.542z"></path>
</svg>
