<!-- Generated by IcoMoon.io -->
<svg version="1.1" xmlns="http://www.w3.org/2000/svg" width="16" height="16" viewBox="0 0 16 16">
<title>compropago</title>
<path fill="#00aaef" d="M12.88 5.185h-0.002c-0.403-0.403-1.005-0.403-1.407 0l-6.329 6.33c-0.3 0.301-0.8 0.503-1.308 0.503-0.5 0-1-0.202-1.401-0.603-0.4-0.402-0.602-0.903-0.602-1.407s0.2-1.005 0.6-1.407l5.927-5.929c-0.804-0.803-2.010-0.803-2.815 0l-4.42 4.522c-1.509 1.508-1.509 4.020 0 5.627 1.507 1.509 4.019 1.509 5.627 0l6.23-6.229c0.302-0.403 0.302-1.005-0.1-1.408zM14.787 3.181v-0.007c-1.507-1.507-4.019-1.507-5.625 0l-6.127 6.231c-0.4 0.402-0.4 1.005 0 1.407 0.407 0.402 1.008 0.402 1.408 0l0.1-0.1 0.607-0.603 4.623-4.623 0.996-1.003c0.3-0.302 0.803-0.503 1.307-0.503s1.005 0.201 1.405 0.603c0.403 0.407 0.603 0.908 0.603 1.409s-0.2 1.008-0.603 1.407l-5.929 5.927c0.805 0.808 2.009 0.808 2.813 0l4.524-4.517c1.508-1.609 1.508-4.018-0.102-5.627z"></path>
</svg>
