<!-- Generated by IcoMoon.io -->
<svg version="1.1" xmlns="http://www.w3.org/2000/svg" width="16" height="16" viewBox="0 0 16 16">
<title>composer</title>
<path fill="#885630" d="M11.107 0c-0.047 0-0.077 0.023-0.11 0.063-0.042 0.048-0.067 0.112-0.067 0.181 0 0.038 0.008 0.074 0.021 0.107l-0.001-0.002c0.127 0.273 0.242 0.553 0.352 0.833 0.007 0.013 0.015 0.027 0.026 0.045-0.026-0.001-0.033-0.015-0.042-0.029-0.198-0.207-0.432-0.371-0.665-0.536-0.315-0.225-0.66-0.402-1.002-0.581-0.041-0.022-0.090-0.038-0.141-0.043l-0.002-0-0.256-0.027c-0.135-0.017-0.237 0.060-0.237 0.195 0 0.072-0.031 0.088-0.090 0.093-0.053 0.003-0.125 0.077-0.131 0.128-0.003 0.020-0.005 0.042-0.005 0.066 0 0.138 0.060 0.262 0.156 0.347l0 0c0.296 0.277 0.582 0.563 0.869 0.85l0.010 0.005c0.008 0.007 0.014 0.015 0.018 0.025l0 0c-0.005 0.002-0.009 0.002-0.013 0.002-0.010-0.002-0.018-0.007-0.024-0.015l-0-0c-0.001-0.001-0.003-0.003-0.003-0.005-0.041-0.024-0.085-0.047-0.125-0.073-0.2-0.133-0.397-0.269-0.597-0.399-0.086-0.062-0.191-0.103-0.305-0.113l-0.002-0c-0.012-0.002-0.025-0.002-0.039-0.002-0.088 0-0.167 0.038-0.222 0.098l-0 0c-0.038 0.034-0.061 0.083-0.061 0.138 0 0.011 0.001 0.021 0.003 0.032l-0-0.001c0.011 0.097 0.077 0.158 0.149 0.208 0.335 0.225 0.633 0.489 0.911 0.783 0.024 0.025 0.049 0.053 0.077 0.075 0.079 0.064 0.127 0.149 0.175 0.237 0.022 0.040 0.014 0.049-0.029 0.049-0.285 0-0.557 0.079-0.831 0.136-0.112 0.024-0.223 0.063-0.263 0.187-0.043 0.14-0.064 0.219 0.107 0.261 0.386 0.1 0.717 0.218 1.034 0.36l-0.040-0.016c0.030 0.015 0.055 0.032 0.078 0.052l-0-0c0.080 0.069 0.153 0.146 0.241 0.202 0.253 0.165 0.513 0.319 0.813 0.389 0.035 0.008 0.067 0.026 0.101 0.033 0.033 0.010 0.056 0.029 0.063 0.063 0.019 0.119 0.093 0.186 0.203 0.22 0.014 0.004 0.025 0.013 0.040 0.019 0.035 0.011 0.051 0.037 0.062 0.072 0.045 0.16 0.091 0.319 0.141 0.477 0.017 0.053 0.001 0.067-0.047 0.082-0.248 0.072-0.495 0.147-0.741 0.223-0.088 0.027-0.089 0.029-0.045 0.109l0.605 1.090c0.085 0.153 0.088 0.153 0.243 0.073 0.016-0.008 0.038-0.035 0.053-0.009 0.014 0.024 0.040 0.059 0.016 0.087-0.075 0.086-0.127 0.187-0.191 0.28-0.021 0.030-0.021 0.049-0.003 0.078 0.067 0.111 0.135 0.223 0.2 0.335 0.008 0.013 0.023 0.029 0.020 0.039l-0.082 0.245c-0.049-0.181-0.122-0.34-0.215-0.484l0.004 0.007c-0.12-0.192-0.273-0.361-0.413-0.541-0.022-0.027-0.048-0.051-0.073-0.077-0.133-0.138-0.304-0.221-0.466-0.319-0.065-0.039-0.141-0.069-0.222-0.084l-0.004-0.001c-0.25-0.053-0.498-0.073-0.747 0.003-0.051 0.016-0.078 0.003-0.108-0.040-0.061-0.085-0.111-0.182-0.193-0.248-0.2-0.16-0.411-0.305-0.657-0.389-0.17-0.063-0.367-0.103-0.573-0.112l-0.004-0c-0.015-0-0.032-0-0.050-0-0.091 0-0.181 0.004-0.27 0.013l0.011-0.001c-0.264 0.020-0.527 0.049-0.76 0.195-0.047 0.029-0.1 0.045-0.147 0.072-0.24 0.129-0.477 0.257-0.677 0.453-0.208 0.199-0.404 0.404-0.589 0.618l-0.009 0.011c-0.215 0.256-0.377 0.545-0.522 0.845-0.010 0.021-0.015 0.047-0.047 0.064l-0.080-0.496c-0.005-0.031 0.015-0.029 0.035-0.025 0.059 0.007 0.117 0.009 0.176 0.017 0.045 0.007 0.069-0.003 0.080-0.053 0.015-0.068 0.031-0.137 0.045-0.207 0.055-0.265 0.133-0.52 0.202-0.78 0.013-0.049 0.005-0.067-0.047-0.080-0.254-0.060-0.509-0.128-0.763-0.189-0.048-0.011-0.071-0.029-0.056-0.080 0.058-0.199 0.083-0.407 0.161-0.6 0.007-0.023 0.020-0.043 0.037-0.058l0-0c0.065-0.051 0.113-0.11 0.107-0.201-0.005-0.069 0.027-0.112 0.093-0.143 0.121-0.057 0.239-0.125 0.353-0.192 0.093-0.053 0.167-0.128 0.217-0.219l0.001-0.003c0.215-0.403 0.393-0.828 0.653-1.207 0.022-0.034 0.040-0.071 0.067-0.1 0.168-0.176 0.325-0.363 0.514-0.52 0.059-0.049 0.075-0.117 0.077-0.19 0-0.085-0.049-0.145-0.101-0.203-0.050-0.058-0.101-0.107-0.186-0.098-0.019 0.002-0.038-0.007-0.059-0.009 0.013-0.026 0.033-0.032 0.051-0.043 0.226-0.145 0.451-0.291 0.677-0.439 0.273-0.176 0.546-0.353 0.821-0.529 0.035-0.023 0.051-0.040 0.013-0.073-0.010-0.009-0.016-0.020-0.024-0.029-0.056-0.066-0.056-0.066-0.133-0.019l-2.295 1.428c-0.067 0.041-0.067 0.041-0.101-0.033-0.075-0.175-0.118-0.359-0.174-0.54-0.013-0.041-0.002-0.065 0.030-0.091 0.193-0.153 0.369-0.327 0.547-0.495 0.067-0.063 0.112-0.149 0.124-0.245l0-0.002c0.015-0.113-0.060-0.173-0.163-0.131-0.058 0.023-0.106 0.046-0.153 0.073l0.006-0.003c-0.453 0.25-0.937 0.421-1.433 0.565-0.029 0.008-0.055 0.017-0.079-0.013-0.049-0.060-0.123-0.093-0.185-0.139-0.008-0.007-0.019-0.011-0.031-0.011-0.004 0-0.008 0-0.011 0.001l0-0c-0.067 0.018-0.136 0.037-0.177 0.098-0.106 0.155-0.239 0.293-0.338 0.455-0.113 0.187-0.222 0.375-0.35 0.552-0.024 0.033-0.033 0.039-0.056-0.001l-0.425-0.745c-0.049-0.086-0.098-0.16-0.152-0.23l0.003 0.004c-0.063-0.079-0.139-0.117-0.239-0.106-0.017 0.002-0.040-0.003-0.047 0.024-0.013 0.073-0.047 0.151-0.038 0.221 0.023 0.18 0.055 0.361 0.1 0.537 0.076 0.306 0.163 0.608 0.253 0.909 0.089 0.296 0.188 0.587 0.284 0.882 0.008 0.025 0.022 0.048-0.013 0.069-0.045 0.025-0.117 0.039-0.125 0.083-0.008 0.047 0.033 0.1 0.053 0.15l0.005 0.011c0.016 0.039 0.024 0.096 0.053 0.111 0.039 0.019 0.073-0.033 0.109-0.055 0.032-0.019 0.043-0.014 0.058 0.019 0.083 0.195 0.168 0.389 0.253 0.584 0.007 0.015 0.012 0.033 0.012 0.051 0 0.014-0.003 0.028-0.007 0.041l0-0.001c-0.052 0.136-0.096 0.297-0.126 0.463l-0.002 0.017c-0.008 0.047-0.025 0.047-0.061 0.037 0.314 0.063 0.128 0.015-0.059-0.033l-0.496-0.107c-0.082-0.021-0.082-0.021-0.091 0.062v0.007c-0.040 0.443-0.080 0.887-0.122 1.329-0.003 0.040 0.002 0.057 0.045 0.061 0.129 0.016 0.257 0.037 0.385 0.056 0.024 0.003 0.045 0.005 0.039 0.040-0.029 0.15-0.051 0.302-0.083 0.451-0.003 0.010-0.005 0.021-0.005 0.033 0 0.029 0.010 0.055 0.027 0.076l-0-0c0.045 0.058 0.088 0.117 0.133 0.176 0.031 0.042 0.053 0.096 0.025 0.139-0.014 0.021-0.022 0.046-0.022 0.074 0 0.002 0 0.003 0 0.005v-0c0.005 0.277 0.005 0.553 0.017 0.831 0.007 0.134 0.005 0.269 0.008 0.403 0.007 0.357 0.027 0.712 0.040 1.069 0.007 0.175-0.024 0.347-0.016 0.522 0.001 0.043 0.011 0.067 0.056 0.081 0.106 0.033 0.208 0.077 0.315 0.111 0.055 0.015 0.1 0.053 0.123 0.103l0 0.001c0.017 0.036 0.026 0.077 0.026 0.121 0 0.009-0 0.017-0.001 0.026l0-0.001c-0.001 0.048 0.016 0.077 0.055 0.104 0.165 0.118 0.328 0.24 0.493 0.361 0.433 0.32 0.867 0.642 1.303 0.96 0.040 0.031 0.049 0.055 0.025 0.098-0.023 0.041-0.037 0.090-0.059 0.131-0.019 0.039-0.016 0.063 0.021 0.089 0.055 0.039 0.107 0.082 0.157 0.125 0.043 0.037 0.045 0.094 0.032 0.139-0.010 0.033-0.058 0.003-0.088 0-0.021-0.001-0.042-0.007-0.063-0.009-0.207-0.033-0.411-0.087-0.621-0.104-0.334-0.027-0.669-0.056-1.007-0.047-0.017 0-0.045-0.016-0.049 0.020-0.005 0.028-0.011 0.059 0.021 0.078 0.016 0.009 0.033 0.017 0.051 0.024 0.189 0.065 0.365 0.16 0.538 0.259 0.112 0.064 0.222 0.136 0.345 0.179 0.023 0.008 0.045 0.025 0.072 0.001-0.185-0.147-0.369-0.295-0.555-0.443 0.026-0.019 0.047-0.011 0.066-0.009 0.222 0.017 0.443 0.048 0.659 0.099 0.475 0.113 0.947 0.241 1.415 0.382 0.153 0.047 0.317 0.069 0.455 0.162 0.033 0.022 0.053 0.045 0.049 0.087 0.008 0.009 0.018 0.022 0.007 0.030-0.013 0.008-0.024-0.008-0.033-0.016-0.109-0.009-0.218-0.017-0.325-0.029-0.309-0.031-0.616-0.073-0.928-0.064-0.233 0.007-0.467-0.010-0.7 0.007-0.329 0.022-0.659 0.065-0.987 0.1-0.017 0.002-0.042-0.001-0.042 0.018 0 0.024 0.009 0.051 0.040 0.058 0.023 0.005 0.049 0.008 0.075 0.008h0c0.167 0.007 0.331 0.005 0.497 0.007 0.413 0.010 0.828-0.008 1.24 0.027 0.149 0.013 0.3 0.007 0.445 0.033 0.687 0.129 1.37 0.263 2.052 0.412 0.080 0.017 0.162 0.030 0.24 0.069-0.037 0.033-0.085 0.043-0.105 0.091-0.146 0.337-0.242 0.693-0.353 1.042-0.020 0.059 0.020 0.128 0.080 0.144 0.016 0.005 0.033 0.007 0.052 0.007 0.092 0 0.168-0.066 0.183-0.154l0-0.001c0.013-0.072 0.026-0.144 0.035-0.218 0.003-0.024 0.011-0.037 0.035-0.045 0.088-0.035 0.174-0.072 0.262-0.107 0.136-0.052 0.254-0.125 0.353-0.217l-0.001 0.001c0.089-0.085 0.165-0.183 0.167-0.313 0-0.040 0.009-0.066 0.041-0.090 0.147-0.113 0.279-0.243 0.407-0.376 0.123-0.125 0.253-0.241 0.391-0.349l0.009-0.007c0.016-0.013 0.029-0.032 0.054-0.023l0.373 0.147c-0.25 0.152-0.487 0.298-0.722 0.44-0.011 0.007-0.024 0.010-0.035 0.013-0.088 0.027-0.164 0.073-0.225 0.134l0-0c-0.25 0.248-0.378 0.543-0.363 0.9 0.009 0.24 0.147 0.353 0.381 0.299 0.41-0.096 0.76-0.489 0.821-0.919 0.016-0.12 0.035-0.238-0.051-0.342-0.038-0.047-0.077-0.090-0.118-0.13l-0-0c0.013-0.008 0.019-0.013 0.026-0.017 0.518-0.309 1.083-0.519 1.65-0.713 0.693-0.239 1.4-0.429 2.109-0.612l-0.050-0.011c-0.047 0.005-0.091 0.010-0.137 0.013-0.214 0.014-0.413 0.046-0.605 0.094l0.023-0.005-0.011 0.005c-0.016 0.006-0.035 0.010-0.055 0.010-0.003 0-0.006-0-0.009-0l0 0c-0.009 0-0.019 0-0.032 0.001 0.043-0.041 0.168-0.176 0.202-0.167l0.001-0.003h0.003c0-0.005 0.013-0.014 0.013-0.014 0.011-0.019 0.027-0.032 0.049-0.033 0.035-0.050 0.079-0.092 0.129-0.124l0.002-0.001c0.033-0.021 0.069-0.041 0.107-0.057h-0.001c0.107 0 0.213-0.129 0.324-0.175-0.001-0.004-0.007-0.007-0.009-0.011-0.16 0.023-0.317 0.048-0.471 0.106-0.328 0.121-0.667 0.216-0.987 0.357-0.495 0.216-0.988 0.432-1.463 0.69-0.014 0.007-0.030 0.015-0.048 0.023l-0.004 0.001-0.037-0.336c-0.003-0.023 0.008-0.032 0.027-0.042 0.421-0.223 0.843-0.443 1.283-0.625 0.362-0.151 0.72-0.314 1.084-0.461 0.001-0.003 0.003-0.007 0.007-0.007h0.003c0.002 0 0.002 0.002 0.003 0.002 0.005 0.008 0.001 0.013-0.003 0.017-0.001 0.002-0.003 0.002-0.007 0.003h-0.001c-0.093 0.127-0.176 0.272-0.242 0.425l-0.006 0.015c0.025 0.007 0.035-0.001 0.045-0.011 0.075-0.080 0.151-0.158 0.224-0.238 0.143-0.157 0.293-0.306 0.469-0.427 0.011-0.008 0.030-0.015 0.022-0.032-0.009-0.020-0.030-0.010-0.045-0.007-0.165 0.033-0.329 0.064-0.493 0.103-0.054 0.013-0.051-0.007-0.053-0.045-0.001-0.131 0.018-0.26 0.023-0.391 0.002-0.060 0.016-0.116 0.040-0.167l-0.001 0.003c0.065-0.151 0.131-0.3 0.198-0.45 0.033-0.075 0.053-0.155 0.066-0.235 0.021-0.128 0.037-0.257 0.049-0.387 0.021-0.199 0.091-0.387 0.125-0.583 0.043-0.249 0.079-0.501 0.171-0.739 0.083-0.211 0.163-0.423 0.248-0.632 0.117-0.285 0.266-0.555 0.337-0.86 0.024-0.105 0.051-0.201 0.003-0.305-0.027-0.056-0.035-0.12-0.054-0.181-0.009-0.025-0.013-0.053-0.013-0.083 0-0.019 0.002-0.037 0.006-0.055l-0 0.002c0.032-0.163 0.047-0.325-0.042-0.477-0.024-0.041 0.005-0.067 0.029-0.093 0.059-0.061 0.062-0.088 0.011-0.153-0.059-0.073-0.117-0.149-0.18-0.218-0.053-0.056-0.103-0.117-0.156-0.175-0.037-0.022-0.033-0.037 0.008-0.051 0.093-0.032 0.184-0.072 0.279-0.101 0.053-0.016 0.067-0.047 0.071-0.094 0.030-0.403 0.060-0.809 0.093-1.212 0.005-0.056-0.005-0.067-0.063-0.049-0.303 0.096-0.605 0.187-0.909 0.281-0.093 0.029-0.095 0.029-0.136-0.062-0.154-0.346-0.274-0.705-0.4-1.060-0.013-0.030-0.020-0.064-0.020-0.1 0-0.040 0.009-0.078 0.025-0.112l-0.001 0.002c0.045-0.125 0.016-0.251 0.013-0.378-0.002-0.006-0.003-0.012-0.003-0.019v-0c-0.030-0.382-0.090-0.734-0.179-1.074l0.009 0.042c-0.088-0.323-0.201-0.604-0.344-0.868l0.011 0.021c-0.152-0.288-0.315-0.573-0.491-0.85-0.075-0.119-0.155-0.226-0.289-0.285-0.050-0.021-0.108-0.033-0.168-0.033h-0zM9.345 0.173c0.003-0 0.006-0 0.009-0 0.046 0 0.089 0.013 0.125 0.035l-0.001-0.001c0.402 0.198 0.723 0.377 1.034 0.568l-0.055-0.031c0.165 0.105 0.321 0.225 0.477 0.347 0.073 0.058 0.128 0.145 0.189 0.22 0.025 0.031 0.008 0.060-0.016 0.083-0.016 0.016-0.039 0.026-0.058 0.037-0.021 0.015-0.048 0.027-0.040 0.058 0.007 0.027 0.037 0.033 0.061 0.039 0.011 0.002 0.024 0.004 0.037 0.004 0.025 0 0.049-0.005 0.070-0.014l-0.001 0c0.112-0.047 0.207 0.032 0.279 0.111 0.019 0.020 0.027 0.062 0.062 0.049 0.037-0.014 0.042-0.054 0.039-0.091-0.008-0.1-0.033-0.198-0.056-0.296-0.060-0.251-0.18-0.479-0.279-0.715-0.035-0.085-0.073-0.169-0.109-0.255-0.019-0.047 0.007-0.088 0.032-0.121 0.021-0.027 0.054-0.003 0.081 0.009 0.101 0.045 0.159 0.127 0.208 0.221 0.053 0.1 0.119 0.193 0.175 0.291 0.096 0.17 0.215 0.33 0.291 0.508 0.112 0.259 0.255 0.505 0.322 0.784 0.057 0.247 0.139 0.488 0.168 0.743 0.011 0.096-0.007 0.189 0.005 0.281 0.022 0.186-0.005 0.362-0.082 0.532-0.020 0.047-0.014 0.091 0.008 0.139 0.168 0.355 0.307 0.722 0.447 1.090 0.018 0.048 0.010 0.067-0.040 0.082-0.321 0.094-0.643 0.192-0.965 0.289-0.047 0.015-0.061 0.002-0.075-0.040-0.082-0.217-0.16-0.431-0.235-0.645-0.016-0.045-0.035-0.069-0.085-0.058-0.059 0.015-0.091-0.011-0.117-0.064-0.041-0.085-0.075-0.187-0.144-0.24s-0.177-0.055-0.269-0.077c-0.069-0.018-0.138-0.039-0.208-0.050-0.156-0.030-0.294-0.093-0.41-0.184l0.002 0.002c-0.202-0.149-0.41-0.287-0.623-0.418-0.069-0.005-0.135-0.024-0.202-0.040-0.185-0.038-0.369-0.078-0.555-0.113-0.045-0.008-0.053-0.042-0.056-0.072-0.005-0.037 0.005-0.073 0.043-0.096 0.059-0.035 0.127-0.042 0.193-0.053 0.264-0.047 0.573-0.078 0.888-0.086l0.009-0c0.073-0.001 0.139 0.027 0.208 0.044 0.011 0.004 0.023 0.006 0.036 0.006 0.028 0 0.054-0.010 0.074-0.026l-0 0c0.144-0.095 0.289-0.187 0.433-0.281 0.023-0.014 0.064-0.024 0.047-0.062-0.003-0.006-0.006-0.010-0.010-0.015l0 0c-0.008-0.007-0.017-0.008-0.029-0.008l-0.033 0.001h-0.005c-0.003-0-0.007-0-0.011-0-0.162 0-0.312 0.050-0.437 0.135l0.003-0.002c-0.053 0.033-0.173 0.013-0.207-0.037-0.227-0.344-0.549-0.592-0.855-0.859-0.136-0.118-0.269-0.241-0.413-0.351-0.037-0.027-0.053-0.096-0.029-0.131 0.032-0.048 0.073-0.027 0.112-0.010 0.123 0.055 0.241 0.117 0.352 0.195 0.376 0.269 0.78 0.496 1.181 0.723 0.009 0.006 0.020 0.012 0.031 0.017l0.002 0.001c0.061 0.020 0.093-0.007 0.083-0.071-0.005-0.035-0.020-0.065-0.042-0.090l0 0c-0.325-0.383-0.667-0.749-1.004-1.122-0.070-0.077-0.153-0.144-0.232-0.213-0.061-0.050-0.11-0.112-0.145-0.182l-0.001-0.003c-0.009-0.015-0.014-0.034-0.014-0.053 0-0.029 0.011-0.054 0.030-0.074l-0 0c0.027-0.030 0.051-0.037 0.091-0.016 0.113 0.055 0.221 0.119 0.322 0.195 0.177 0.135 0.357 0.269 0.536 0.403l0.538 0.402c0.014 0.011 0.029 0.022 0.041 0.033 0.033 0.031 0.063 0.063 0.095 0.095l0.019 0.019c0.013 0.013 0.024 0.030 0.040 0.040 0.037 0.022 0.075 0.041 0.113 0.003 0.013-0.013 0.019-0.024 0.021-0.037 0-0.005 0.002-0.009 0-0.014 0-0.002 0-0.005-0.001-0.007-0.006-0.019-0.016-0.035-0.029-0.048v0l-0.12-0.125c-0.066-0.069-0.134-0.134-0.204-0.196l-0.004-0.003c-0.233-0.193-0.471-0.381-0.711-0.563-0.122-0.093-0.265-0.155-0.397-0.232-0.048-0.027-0.080-0.067-0.115-0.106-0.015-0.017-0.023-0.039-0.023-0.063 0-0.013 0.003-0.026 0.008-0.038l-0 0.001c0.015-0.036 0.050-0.034 0.080-0.038zM5.501 1.099c0.001-0 0.003-0 0.005-0 0.005 0 0.010 0.001 0.015 0.004l-0-0c0.032 0.018 0.020 0.051 0.020 0.090 0.009 0.040-0.017 0.073-0.053 0.107-0.231 0.215-0.471 0.418-0.717 0.615-0.098 0.079-0.218 0.115-0.327 0.175-0.023 0.011-0.035 0-0.048-0.016-0.080-0.103-0.159-0.207-0.239-0.309-0.030-0.037 0.011-0.035 0.031-0.043 0.169-0.061 0.336-0.13 0.504-0.197 0.243-0.096 0.464-0.233 0.693-0.355 0.024-0.013 0.047-0.029 0.070-0.042 0.016-0.007 0.029-0.025 0.047-0.027zM3.755 1.653c0.035 0.004 0.066 0.019 0.089 0.043v0c0.048 0.045 0.087 0.096 0.12 0.152 0.115 0.187 0.275 0.337 0.431 0.491 0.109 0.109 0.219 0.214 0.335 0.313 0.038 0.033 0.045 0.085 0.065 0.128 0.008 0.016 0.001 0.029-0.013 0.037-0.007 0.005-0.015 0.009-0.020 0.013-0.095 0.080-0.184 0.069-0.295 0.013-0.223-0.115-0.413-0.259-0.575-0.43l-0.001-0.001c-0.007-0.007-0.013-0.011-0.020-0.016-0.076-0.057-0.080-0.055-0.113 0.033-0.035 0.090-0.057 0.183-0.097 0.269-0.015 0.030 0.008 0.063 0.031 0.085 0.025 0.026 0.043 0.066 0.089 0.059 0.021-0.003 0.032-0.015 0.037-0.037 0.011-0.053 0.026-0.106 0.040-0.171 0.175 0.147 0.369 0.261 0.56 0.389l-0.185 0.106c-0.475 0.267-0.952 0.534-1.426 0.803-0.039 0.021-0.055 0.025-0.071-0.023-0.182-0.565-0.374-1.127-0.527-1.701-0.035-0.133-0.049-0.272-0.075-0.408-0.008-0.040 0.019-0.061 0.045-0.075 0.035-0.017 0.037 0.024 0.049 0.040 0.251 0.347 0.423 0.74 0.627 1.113 0.061 0.112 0.13 0.221 0.195 0.331 0.013 0.020 0.023 0.038 0.055 0.027 0.035-0.013 0.029-0.035 0.023-0.060-0.026-0.116-0.085-0.22-0.129-0.329-0.007-0.015-0.012-0.033-0.012-0.051 0-0.020 0.005-0.039 0.014-0.056l-0 0.001c0.091-0.189 0.219-0.354 0.32-0.535 0.093-0.165 0.211-0.312 0.301-0.478 0.023-0.045 0.069-0.075 0.122-0.075 0.004 0 0.008 0 0.012 0l-0.001-0zM4.938 1.981c0.009 0.002 0.016 0.011 0.024 0.028 0.080 0.18 0.134 0.37 0.201 0.553 0.007 0.018 0.008 0.033-0.011 0.044l-0.171 0.105c-0.005 0.003-0.011 0.005-0.031 0.013-0.005-0.009-0.011-0.023-0.021-0.034l-0.36-0.413c-0.016-0.019-0.032-0.037 0-0.054 0.118-0.067 0.208-0.176 0.333-0.233 0.016-0.007 0.027-0.011 0.035-0.009zM6.224 2.305c0.002-0 0.005-0 0.007-0 0.033 0 0.063 0.012 0.086 0.031l-0-0c0.035 0.026 0.057 0.067 0.057 0.113 0 0.012-0.001 0.023-0.004 0.033l0-0.001c-0.016 0.077-0.054 0.143-0.107 0.193l-0 0c-0.222 0.213-0.416 0.452-0.579 0.713l-0.009 0.016c-0.152 0.24-0.302 0.479-0.416 0.74-0.026 0.053-0.059 0.098-0.097 0.137l0-0c-0.16 0.182-0.351 0.323-0.57 0.425-0.043 0.017-0.072 0.058-0.072 0.106 0 0 0 0 0 0v-0c-0.003 0.040-0.016 0.079-0.019 0.119-0 0.103-0.050 0.195-0.126 0.253l-0.001 0.001c-0.027 0.021-0.030 0.055-0.040 0.083l-0.182 0.61c0 0.005 0 0.009-0.001 0.013 0 0.009 0.001 0.021-0.011 0.025-0.027 0.007-0.051-0.001-0.075-0.014-0.487-0.11-0.785-0.187-1.080-0.268l0.194 0.046c-0.037-0.008-0.072-0.019-0.111-0.024-0.059-0.008-0.064-0.035-0.037-0.080 0.039-0.187 0.083-0.373 0.199-0.531 0.025-0.035 0.024-0.064 0.001-0.103-0.127-0.211-0.223-0.439-0.328-0.659-0.017-0.037-0.011-0.053 0.023-0.073 2.165-1.289 2.726-1.643 3.287-1.998l-1.565 0.927c0.030-0.020 0.059-0.008 0.088-0.015 0.101-0.023 0.199-0.053 0.287-0.109 0.007-0.005 0.017-0.008 0.020-0.015 0.065-0.142 0.207-0.191 0.327-0.247 0.274-0.125 0.551-0.24 0.793-0.422 0.017-0.014 0.039-0.023 0.063-0.025l0-0zM13.853 4.819v0.003l0.001-0.001c-0.014 0.171-0.029 0.332-0.041 0.493l-0.029 0.357c-0.003 0.043-0.016 0.071-0.063 0.087-3.368 1.066-4.113 1.331-4.857 1.598l2.584-0.812c-0.024 0.003-0.037-0.008-0.053-0.037-0.145-0.263-0.293-0.523-0.441-0.785-0.019-0.033-0.025-0.051 0.023-0.064l2.836-0.831c0.009-0.003 0.021-0.005 0.040-0.009zM13.579 5.077c-0.103 0.002-0.195 0.098-0.191 0.195 0.005 0.091 0.083 0.171 0.169 0.168 0.091-0.001 0.18-0.102 0.178-0.201-0.003-0.111-0.055-0.163-0.157-0.162zM2.359 5.657c0.007 0 0.016 0.001 0.026 0.005l1.29 0.339c0.43 0.114 0.861 0.227 1.291 0.34 0.041 0.011 0.055 0.024 0.040 0.067l-0.185 0.609c-0.007 0.024-0.011 0.049-0.039 0.049-0.001 0-0.002 0-0.003 0-0.004 0-0.007-0.001-0.011-0.002l0 0-0.691-0.095c-0.151-0.020-0.3-0.041-0.45-0.062 0.459 0.043-0.009-0.024-0.477-0.089l-0.893-0.102c-0.029-0.008-0.039-0.025-0.033-0.065 0.035-0.317 0.069-0.634 0.102-0.953 0.002-0.008 0.001-0.014 0.003-0.021 0.002-0.003 0.003-0.006 0.003-0.010v-0c0.005-0.009 0.014-0.013 0.025-0.011zM7.783 5.725l0.075 0.001c0.131 0.007 0.259 0.057 0.379 0.111 0.053 0.024 0.106 0.047 0.159 0.072l0.038 0.019c0.039 0.019 0.079 0.038 0.115 0.060l0.075 0.043c0.024 0.017 0.050 0.031 0.072 0.049 0.048 0.033 0.095 0.070 0.138 0.11 0.145 0.135 0.248 0.293 0.309 0.48 0.043 0.135 0.075 0.273 0.087 0.411 0.011 0.135-0.029 0.266-0.064 0.395-0.005 0.020-0.013 0.024-0.020 0.023-0.009-0.003-0.014-0.015-0.022-0.024l-0.144-0.167c-0.177-0.214-0.414-0.374-0.685-0.453l-0.010-0.003c-0.197-0.058-0.424-0.095-0.658-0.103l-0.005-0c-0.191 0.001-0.375 0.024-0.553 0.065l0.017-0.003c-0.141 0.027-0.282 0.049-0.421 0.075-0.091 0.016-0.175 0.057-0.258 0.094-0.040 0.018-0.080 0.035-0.12 0.051l-0.013 0.003c-0.251 0.088-0.463 0.24-0.683 0.38-0.060 0.040-0.11 0.093-0.162 0.145l-0.007 0.005-0.043 0.043c-0.101 0.098-0.2 0.197-0.309 0.287-0.049 0.069-0.117 0.117-0.179 0.177 0.016-0.113 0.047-0.219 0.097-0.315 0.061-0.114 0.119-0.209 0.181-0.3l-0.007 0.010c0.032-0.047 0.064-0.093 0.097-0.137 0.075-0.101 0.144-0.187 0.215-0.27l-0.005 0.006c0.054-0.065 0.109-0.129 0.165-0.193s0.112-0.127 0.167-0.19c0.023-0.024 0.048-0.045 0.075-0.065l0.002-0.001 0.017-0.020c0.052-0.045 0.098-0.091 0.159-0.14l0.008-0.007 0.045-0.041c0.16-0.152 0.346-0.271 0.531-0.389 0.019-0.013 0.038-0.023 0.057-0.034l0.074-0.032c0.007-0.003 0.013-0.007 0.019-0.008 0.025-0.011 0.064-0.026 0.102-0.039l0.013-0.004 0.078-0.024c0.093-0.027 0.186-0.049 0.277-0.078 0.148-0.049 0.318-0.077 0.495-0.077 0.009 0 0.018 0 0.028 0l-0.001-0zM2.737 6.025c-0.047 0.003-0.102-0.002-0.143 0.038-0.056 0.056-0.090 0.133-0.090 0.218 0 0.089 0.038 0.169 0.098 0.225l0 0c0.033 0.030 0.078 0.048 0.126 0.048s0.093-0.018 0.127-0.048l-0 0c0.097-0.085 0.122-0.209 0.064-0.357-0.035-0.091-0.083-0.125-0.181-0.125zM13.301 6.066c0.058-0.001 0.109 0.035 0.153 0.097 0.009 0.007 0.019 0.013 0.029 0.021 0.015 0.013 0.020 0.027 0.035 0.043 0.066 0.075 0.138 0.149 0.207 0.223 0.004 0.004 0.007 0.010 0.009 0.016l0 0c0.001 0.002 0.001 0.004 0.001 0.006s-0.001 0.006-0.003 0.009l0-0c-0.002 0.004-0.006 0.007-0.010 0.009l-0 0-0.007 0.010-0.001 0.001c-0.001 0.001-0.001 0.003-0.003 0.007 0 0.001-0.002 0.003-0.002 0.003h0.002v0.005c-0.097 0.097-0.071 0.189 0.007 0.277 0.004 0.008 0.009 0.016 0.009 0.024 0.064 0.085 0.011 0.169 0 0.255-0.002 0.008-0.003 0.011-0.010 0.014l-0.005 0.002c-0.007-0-0.014-0.002-0.020-0.003l0.001 0-0.007-0.002c-0.102-0.029-0.158-0.046-0.214-0.064l0.046 0.013c-0.005 0-0.008-0.003-0.013-0.005-0.005 0-0.008-0.005-0.013-0.005-0.003 0-0.006 0-0.010 0-0.025 0-0.048-0.005-0.070-0.013l0.001 0c-0.022-0.011-0.047-0.017-0.074-0.017-0.047 0-0.090 0.019-0.12 0.051l-0 0c-0 0.005-0.001 0.009-0.003 0.014l0-0c0.027 0.040 0.072 0.049 0.112 0.062 0.163 0.053 0.302 0.153 0.453 0.232 0.035 0.020 0.041 0.061 0.038 0.101-0.002 0.022-0.008 0.045-0.013 0.069l-0.048 0.207c0 0.002 0 0.004 0 0.006 0 0.017-0.005 0.032-0.013 0.045l0-0c0.002 0.112-0.077 0.195-0.113 0.291-0.005 0.008-0.008 0.011-0.013 0.027-0.031 0.082-0.060 0.147-0.092 0.211l0.006-0.012c0 0.005-0.007 0.011-0.008 0.016v-0.003c0 0.001-0.001 0.001-0.001 0.003l-0.003 0.007c-0.002 0.001-0.002 0.003-0.003 0.005-0.008 0.030-0.013 0.062-0.039 0.088-0.033 0.11-0.075 0.205-0.128 0.294l0.003-0.006c-0.005 0.008-0.008 0.008-0.011 0.024-0.041 0.096-0.085 0.211-0.127 0.317-0.009 0.039-0.017 0.077-0.027 0.113l-0.005 0.010c0 0.001-0.001 0.001-0.001 0.003 0 0.003-0.003 0.007-0.005 0.009 0 0.003 0 0.007 0 0.010 0 0.043-0.009 0.083-0.025 0.12l0.001-0.002c-0.008 0.026-0.015 0.055-0.023 0.080-0.001 0.005-0.002 0.009-0.003 0.014l0-0-0.134 0.608c-0.037 0.167-0.051 0.336-0.079 0.503-0.025 0.157-0.032 0.318-0.071 0.472-0.027 0.112-0.091 0.216-0.142 0.32-0.048 0.097-0.079 0.201-0.138 0.296l-0.005 0.010c-0.003 0.006-0.006 0.012-0.008 0.019l-0 0.001c-0.001 0.004-0.001 0.009-0.003 0.012l-0.005 0.022c-0.001 0.006-0.001 0.012-0.001 0.019 0 0.002 0 0.004 0 0.006l-0-0c0 0.008 0 0.016-0.002 0.024v0.024c0 0.003 0 0.007 0 0.011 0 0.013-0.001 0.026-0.002 0.039l0-0.002c-0.013 0.171-0.035 0.343-0.027 0.515 0.001 0.032-0.008 0.050-0.039 0.061l-0.038 0.015c-0.033 0.012-0.057 0.023-0.082 0.035l0.006-0.003-0.040 0.016c-0.021 0.008-0.033 0.015-0.066 0.023v-0.003c0 0-0.005 0.003-0.007 0.003l-0.089 0.037-0.062 0.025c-0.040 0.027-0.087 0.049-0.138 0.061l-0.003 0.001-0.024 0.014c-0.212 0.088-0.316 0.136-0.419 0.184l0.103-0.043c-0.054 0.016-0.11 0.048-0.165 0.073-0.059 0.027-0.117 0.050-0.176 0.076-0.093 0.041-0.185 0.080-0.279 0.121-0.003 0.001-0.008 0-0.011 0-0.085 0.032-0.173 0.079-0.253 0.115-0.032 0.017-0.078 0.035-0.118 0.051-0.073 0.029-0.090 0.025-0.106-0.050-0.048-0.035-0.053-0.094-0.070-0.144-0.018-0.048-0.032-0.1-0.048-0.149-0.003-0.016-0.011-0.013-0.011-0.023-0.016-0.022-0.016-0.043-0.024-0.065l-0.002-0.011c-0.005-0.003-0.005-0.008-0.007-0.013l-0.004-0.011h0.003c-0.022-0.067-0.047-0.133-0.062-0.2-0.016-0.045-0.045-0.088-0.053-0.135-0.002-0.007-0.002-0.015-0.002-0.023s0.001-0.016 0.003-0.024l-0 0.001 0.005-0.022 0.003-0.011c0.013-0.031 0.034-0.062 0.050-0.093 0.011-0.025 0.021-0.051 0.032-0.077s0.021-0.045 0.032-0.077c0.025-0.048 0.041-0.104 0.073-0.16 0-0.013 0.010-0.026 0.013-0.039 0.029-0.097 0.060-0.197 0.099-0.291 0-0.003-0.003-0.008-0.002-0.011 0.011-0.057 0.065-0.078 0.097-0.112v0.002c0.016-0.005 0.025-0.015 0.033-0.015 0.009-0.016 0.019-0.023 0.029-0.032 0.024-0.029 0.048-0.062 0.070-0.095l0.002-0.004c0.030-0.045 0.057-0.091 0.091-0.136 0.011-0.014 0.020-0.037 0.038-0.037 0.003 0 0.005 0 0.008 0.001 0.026 0.007 0.018 0.037 0.015 0.056-0.007 0.033-0.010 0.070-0.010 0.109s0.004 0.076 0.011 0.113l-0.001-0.004c0.008 0.056 0.017 0.112 0.022 0.168l-0.001 0.025c0.014 0.038 0.023 0.081 0.024 0.126v0c0.013 0.055 0.024 0.107 0.040 0.161 0.048 0.1 0.083 0.2 0.115 0.303l0.003-0.001c0.054 0.080 0.109 0.173 0.163 0.261 0.016 0.021 0.033 0.043 0.049 0.059h0.003v0.013c0.016 0 0.024 0.035 0.048 0.003-0.005-0.016-0.008-0.016-0.013-0.016-0.008-0.015-0.014-0.033-0.020-0.051l-0.001-0.002c-0.003-0.011-0.009-0.023-0.010-0.033-0.003-0.009-0.006-0.020-0.008-0.032l-0-0.002c-0.001-0.005-0.001-0.011-0.003-0.016-0.001-0.012-0.004-0.023-0.007-0.033l0 0.001-0.007-0.050-0.009-0.049c-0.005-0.005-0.005-0.011-0.005-0.017-0.001-0.007-0.003-0.013-0.007-0.020-0.001-0.019-0.005-0.038-0.007-0.057l-0.015-0.115c-0.001-0.020-0.008-0.039-0.009-0.058-0.006-0.066-0.010-0.144-0.010-0.222 0-0.143 0.012-0.284 0.036-0.42l-0.002 0.015h0.009c0.019-0.096 0.039-0.207 0.057-0.311 0.005 0 0.010 0.002 0.016 0.002-0.007 0.174 0.011 0.347 0.050 0.517 0.001 0.003 0.001 0.008 0.001 0.011 0.024 0.065 0.050 0.131 0.071 0.199 0.005 0.014 0.009 0.029 0.015 0.041 0.009 0.024 0.022 0.045 0.037 0.063l-0-0c0.005 0.008 0.014 0.016 0.014 0.024 0.016 0.013 0.024 0.027 0.037 0.040 0.009 0.011 0.017 0.024 0.027 0.035 0.033 0.032 0.069 0.062 0.111 0.104-0.003-0.019-0.007-0.051-0.010-0.083l-0.001-0.011c-0.003-0.029-0.008-0.057-0.011-0.089 0 0-0.009-0.005-0.009-0.008-0.001-0.026-0.003-0.051-0.007-0.075l0 0.003-0.027-0.22c0-0.006 0-0.011 0.001-0.017 0-0.007 0.002-0.018 0.002-0.018-0.009-0.068-0.014-0.146-0.014-0.225 0-0.018 0-0.036 0.001-0.054l-0 0.003-0.001-0.011c-0.007-0.038-0.011-0.082-0.011-0.127 0-0.042 0.003-0.083 0.010-0.124l-0.001 0.004c0.003-0.022 0.001-0.047 0.003-0.069 0-0.005-0.002-0.008-0.002-0.013 0-0.105 0.005-0.213 0.037-0.315l0.002-0.011c0.008-0.048 0.016-0.105 0.024-0.159s0.016-0.107 0.022-0.16c0.003-0.022 0.010-0.033 0.023-0.033 0.007 0 0.016 0.003 0.027 0.011l0.034 0.020 0.050 0.033c0.016 0.011 0.032 0.022 0.047 0.037 0.001 0.001 0.003 0.003 0.006 0.005 0.003 0.003 0.007 0.005 0.011 0.008l0 0h0.003v-0.001c0.112 0.056 0.174 0.151 0.249 0.239 0.034 0.025 0.059 0.059 0.073 0.099l0 0.001c0.050 0.065 0.087 0.136 0.113 0.215 0.001 0.007 0.005 0.014 0.007 0.020s0.005 0.004 0.006 0.020c0.013 0.016 0.021 0.037 0.029 0.056l0.023 0.056 0.013 0.027c0.003 0.007 0.007 0.011 0.011 0.016 0.007 0.008 0.016 0.014 0.026 0.016l0 0c0.018-0.059-0.023-0.115-0.007-0.171h0.005c0-0.016-0.005-0.017-0.005-0.025-0.016-0.104-0.029-0.207-0.073-0.302-0.001-0.008-0.001-0.026-0.001-0.026-0.039-0.096-0.057-0.193-0.113-0.278-0.013-0.010-0.022-0.025-0.025-0.042l-0-0c-0.017-0.016-0.027-0.035-0.037-0.054-0.002-0.002-0.010-0.016-0.018-0.029l-0.007-0.013v0.011c0-0.001-0.003-0.003-0.003-0.005v-0.002c-0.048-0.069-0.097-0.13-0.148-0.187l0.001 0.002-0.007-0.007c-0.007-0.007-0.013-0.007-0.020-0.022-0.038-0.016-0.075-0.064-0.113-0.098-0.005-0.005-0.009-0.007-0.013-0.011-0.003-0.003 0-0.007-0.016-0.011-0.080-0.055-0.139-0.122-0.209-0.17-0.013-0.016-0.029-0.007-0.035-0.032 0.207-0.013 0.407 0.011 0.615 0.024v-0.008h0.001c0.103 0.016 0.199 0.035 0.291 0.075 0.003 0 0.007 0.005 0.011 0.005v0.003c0.064 0.015 0.125 0.043 0.185 0.072 0.013 0.007 0.029 0.027 0.043 0.008 0.011-0.016-0.007-0.031-0.016-0.043-0.024-0.033-0.047-0.067-0.072-0.101-0.005-0.008-0.013-0.016-0.013-0.024-0.048-0.047-0.085-0.099-0.127-0.146-0.014-0.013-0.027-0.027-0.039-0.042l-0.001-0.001c-0.053-0.034-0.098-0.071-0.139-0.113l-0-0c-0.008-0.005-0.016-0.015-0.024-0.015-0.020 0-0.043-0.023-0.064-0.037-0.020-0.014-0.043-0.027-0.064-0.041-0.008-0.005-0.016-0.008-0.024-0.013-0.097-0.037-0.195-0.070-0.293-0.107-0.003 0-0.009-0.002-0.009-0.003 0 0-0.009 0-0.011-0.001-0.019-0.001-0.035-0.008-0.048-0.020l0 0c-0.008-0.006-0.014-0.014-0.018-0.023l-0-0-0.003-0.008c-0.005-0.013-0.007-0.027-0.005-0.042 0.001-0.011 0.001-0.025 0.001-0.038 0-0.038-0.003-0.076-0.010-0.112l0.001 0.004c-0.001-0.015-0.005-0.027-0.008-0.042-0.005-0.023-0.008-0.037-0.011-0.050l0.002 0.010-0.010-0.041c-0.007-0.031-0.013-0.051-0.019-0.071l0.003 0.011c0 0-0.007-0.001-0.007-0.006-0.015-0.097-0.053-0.195-0.083-0.291-0.005-0.013-0.007-0.022-0.011-0.038-0.021-0.032-0.034-0.070-0.038-0.111l-0-0.001c0-0.013 0-0.024 0.001-0.037l0.001-0.017c0.003-0.018 0.007-0.037 0.013-0.055l0.022-0.072c0-0.003 0-0.011 0.002-0.011h-0.002c0.021-0.113 0.066-0.209 0.098-0.312 0-0.001 0.003-0.001 0.003-0.003l0.007-0.007c0.001-0.001 0.003-0.001 0.003-0.003 0.023-0.029 0.036-0.067 0.036-0.107 0-0.006-0-0.011-0.001-0.017l0 0.001c-0.002-0.025-0.009-0.049-0.019-0.070l0.001 0.001c-0.011-0.029-0.025-0.056-0.040-0.085-0.001-0.003-0.007-0.007-0.009-0.008-0.001-0.002-0.003-0.003-0.003-0.005-0.058-0.067-0.105-0.146-0.137-0.231l-0.002-0.005-0.011-0.025c-0.003-0.003-0.003-0.007-0.005-0.011l-0.001-0.005c-0.002-0.003-0.003-0.007-0.005-0.011l-0-0.001 0.001 0.001-0.001-0.003c0.002-0.011 0.005-0.021 0.008-0.030l-0 0.001c0.003-0.007 0.007-0.011 0.009-0.017 0.003-0.005 0.008-0.009 0.013-0.015l0.006-0.005c0.043-0.063 0.083-0.128 0.131-0.189 0.026-0.030 0.042-0.070 0.042-0.113 0-0.020-0.003-0.038-0.009-0.056l0 0.001c-0.027-0.091-0.024-0.093 0.067-0.127 0.016-0.007 0.21-0.080 0.288-0.104l0.050-0.019 0.013-0.005c-0.077 0.021 0.035-0.022 0.148-0.064l0.192-0.063c0.003-0.001 0.008-0.001 0.011-0.001 0.094-0.048 0.195-0.079 0.294-0.112 0.013-0.005 0.024-0.010 0.040-0.013 0.016-0.013 0.064-0.023 0.080-0.037 0.080-0.025 0.144-0.062 0.216-0.078 0.030-0.025 0.069-0.042 0.111-0.045l0.001-0zM9.679 6.468c0.055 0.001 0.108 0.009 0.157 0.025l-0.004-0.001 0.009 0.003c0.173 0.053 0.349 0.095 0.513 0.173 0.027 0.013 0.056 0.025 0.075 0.051 0.107 0.077 0.205 0.165 0.287 0.27 0.127 0.163 0.253 0.328 0.371 0.515-0.007-0.002-0.015-0.005-0.023-0.009v-0.001c-0.047-0.020-0.088-0.043-0.125-0.070l0.002 0.001c-0.123-0.077-0.271-0.156-0.423-0.226l-0.027-0.011c-0.063-0.029-0.137-0.052-0.215-0.066l-0.006-0.001c-0.121-0.023-0.26-0.037-0.402-0.037-0.072 0-0.144 0.003-0.214 0.010l0.009-0.001c-0.056 0.005-0.113 0-0.17 0-0.041 0-0.061-0.020-0.061-0.061 0-0.157 0.008-0.315-0.040-0.467-0.010-0.032 0.009-0.045 0.037-0.055 0.073-0.027 0.158-0.044 0.247-0.045h0zM7.846 6.983c0.282-0.010 0.541 0.070 0.778 0.216 0.088 0.053 0.169 0.117 0.242 0.189l0.009 0.009c0.081 0.082 0.153 0.173 0.214 0.273 0.053 0.087 0.039 0.181 0.021 0.276-0.048 0.271-0.211 0.471-0.395 0.658-0.177 0.179-0.397 0.296-0.602 0.432-0.29 0.193-0.621 0.269-0.959 0.319-0.421 0.062-0.849 0.069-1.271 0.125-0.153 0.019-0.309 0.032-0.463 0.059-0.186 0.031-0.345 0.131-0.452 0.272l-0.001 0.002c-0.041 0.056-0.067 0.125-0.107 0.202-0.011-0.033-0.018-0.071-0.018-0.11 0-0.056 0.013-0.108 0.036-0.155l-0.001 0.002c0.074-0.158 0.198-0.284 0.351-0.358l0.004-0.002c0.277-0.146 0.586-0.175 0.882-0.25 0.24-0.061 0.487-0.096 0.725-0.161 0.364-0.099 0.68-0.224 0.977-0.379l-0.027 0.013c0.16-0.083 0.327-0.168 0.437-0.323 0.055-0.078 0.089-0.175 0.089-0.28 0-0.032-0.003-0.064-0.009-0.094l0.001 0.003c-0.003-0.023-0.010-0.033-0.018-0.035s-0.019 0.005-0.033 0.018c-0.12 0.107-0.245 0.209-0.381 0.299-0.213 0.137-0.449 0.22-0.692 0.28-0.387 0.096-0.777 0.177-1.176 0.207-0.301 0.019-0.583 0.077-0.849 0.168l0.023-0.007c-0.227 0.079-0.458 0.157-0.64 0.327-0.023 0.020-0.050 0.038-0.087 0.065l0.005-0.025-0.017 0.013v-0.003c0.006-0.004 0.011-0.009 0.016-0.011 0.011-0.051 0.031-0.095 0.057-0.135l-0.001 0.001 0.431-0.681c0.008-0.013 0.017-0.025 0.027-0.035l-0 0c0.223-0.219 0.435-0.451 0.682-0.643 0.409-0.32 0.856-0.57 1.37-0.68 0.125-0.027 0.251-0.047 0.381-0.047 0.147-0.001 0.295-0.007 0.44-0.011zM2.758 6.998c0.009 0 0.019 0.001 0.032 0.006 0.019 0.007 0.041 0.005 0.063 0.007 0.085 0.019 0.173 0.020 0.257 0.041 0.008 0 0.011 0.001 0.023 0.007 0.097 0.005 0.188 0.018 0.277 0.040l-0.010-0.002c0.097 0.013 0.193 0.024 0.289 0.040 0.022 0 0.041-0.001 0.062 0.011 0.003 0 0.008-0.001 0.008 0 0.112 0.013 0.2 0.021 0.297 0.037h-0.010v0.003c0.064 0.008 0.106 0.016 0.155 0.024 0.051 0.008 0.104 0.021 0.153 0.021h0.002c0.005 0 0.008 0.002 0.011 0.002l0.014 0.003c0.032 0.001 0.045 0.019 0.050 0.047 0.025 0.151 0.047 0.303 0.078 0.455 0 0.011 0.007 0.021 0.005 0.031l0.013 0.073c0.014 0.073 0.027 0.147 0.041 0.221 0 0.007 0 0.021 0.002 0.024v0.007c0.016 0.095 0.033 0.182 0.049 0.273v0.031c-0.080 0.088-0.147 0.189-0.197 0.299l-0.003 0.007c-0.021 0.050-0.047 0.101-0.067 0.151l-0.004 0.002c-0.016 0.051-0.041 0.1-0.065 0.149-0.002 0-0.003 0.003-0.005 0.007-0.003 0.006-0.005 0.016-0.008 0.020v0.002c-0.038 0.107-0.081 0.198-0.132 0.284l0.004-0.008c-0.005 0.013-0.016 0.026-0.016 0.037-0.016 0.060-0.031 0.121-0.061 0.177-0.009 0.056-0.026 0.107-0.051 0.153l0.001-0.003c-0.023 0.1-0.053 0.188-0.090 0.271l0.004-0.009c-0.005 0.013-0.013 0.024-0.013 0.037l-0.001 0.005c-0.002 0.005-0.003 0.013-0.007 0.019-0.001 0.008-0.004 0.014-0.007 0.020l0-0-0.001 0.007-0.025 0.495 0.014 0.005 0.063-0.123c0.021-0.040 0.037-0.082 0.059-0.123 0.013-0.029 0.033-0.057 0.033-0.087 0.048-0.080 0.091-0.16 0.141-0.233 0.005-0.008 0.015-0.013 0.020-0.029 0.041-0.065 0.089-0.149 0.139-0.223 0.017-0.029 0.036-0.053 0.052-0.082h-0.001c0.011-0.032 0.029-0.037 0.043-0.051s0.022-0.029 0.054-0.043c0 0.013 0.003 0.024 0.002 0.035l-0.002 0.007c0 0.006-0.003 0.012-0.005 0.019l-0.001 0.007c-0.002 0.005-0.002 0.008-0.003 0.013-0.001 0.003-0.001 0.007-0.001 0.010 0 0.001 0 0.002 0 0.003l-0-0c0 0.004-0.003 0.007-0.002 0.012l-0.002 0.010h0.002c-0.015 0.096-0.014 0.205-0.016 0.305 0 0.005-0.003 0.013-0.003 0.016l0.003-0.001c0.013 0.096 0.029 0.192 0.041 0.288h-0.001c0.002 0 0.003 0.021 0.003 0.029 0.016 0.096 0.037 0.193 0.048 0.291l0.001 0.011c0.002 0.007 0.003 0.011 0.003 0.017 0.016 0.077 0.073 0.13 0.109 0.197 0.026 0.037 0.053 0.080 0.077 0.112h0.001v0.001c0.080 0.071 0.147 0.143 0.237 0.207 0.013 0 0.026 0.016 0.039 0.016h-0.001v0.008c0.032 0.003 0.059 0.029 0.093 0.019 0.007-0.002 0.012-0.005 0.018-0.008l-0 0c0.005-0.003 0.011-0.007 0.013-0.011 0.007-0.015-0.007-0.023-0.018-0.027-0.131-0.083-0.111-0.22-0.127-0.347h0.005v-0.002c0.032 0.031 0.054 0.061 0.081 0.093 0.004 0.007 0.010 0.013 0.016 0.017l0 0 0.033 0.037c0.023 0.024 0.047 0.047 0.072 0.067s0.053 0.043 0.083 0.059c0.013 0.005 0.026 0.016 0.037 0.016h-0.003c0.096 0.047 0.179 0.091 0.267 0.137 0.021 0.003 0.039 0.011 0.053 0.024l-0-0c0.032 0.096 0.070 0.192 0.061 0.304 0.003 0 0.007 0.011 0.008 0.020 0 0.002 0.001 0.005 0.001 0.007 0 0.005-0.001 0.009-0.002 0.013l0-0c0.011 0.093 0.011 0.187-0.002 0.28 0.002 0.003 0.002 0.007 0.002 0.012 0 0.005-0.001 0.010-0.004 0.014l0-0c-0.002 0.003 0 0.005-0.001 0.008h0.001c0 0.093-0.001 0.185-0.025 0.277-0.002 0.091-0.031 0.18-0.040 0.271 0 0.003-0.002 0.007-0.003 0.011-0.005 0.017-0.013 0.038 0.025 0.033v-0.001c0.087-0.090 0.173-0.178 0.253-0.279v0.007c0.001-0.032 0.020-0.049 0.038-0.064 0.033-0.033 0.067-0.087 0.101-0.133s0.067-0.091 0.101-0.137l0.001-0.008c0.005-0.016 0.011-0.026 0.019-0.031 0.003-0.001 0.007-0.003 0.009-0.003h0.011c0.013 0.002 0.024 0.007 0.034 0.014l-0-0c0.020 0.011 0.037 0.022 0.053 0.033l-0.002-0.001c0.096 0.053 0.205 0.088 0.277 0.179 0.008 0.008 0.017 0.009 0.025 0.025 0.033 0.016 0.064 0.053 0.089 0.088l0.025 0.024c0.001 0.001 0.003 0.001 0.005 0.003 0.127 0.107 0.136 0.165 0.045 0.307-0.003 0.005-0.008 0.010-0.011 0.010-0.004 0.014-0.010 0.026-0.016 0.037l0-0.001c-0.004 0.009-0.009 0.017-0.014 0.024l0-0-0.007 0.011c-0.023 0.039-0.049 0.079-0.059 0.123-0.006 0.023-0.010 0.049-0.010 0.077 0 0.012 0.001 0.025 0.002 0.037l-0-0.001c0.017 0.063 0.033 0.127 0.047 0.191 0.008 0.038 0.016 0.077 0.019 0.117 0.013 0.095-0.032 0.152-0.112 0.192v-0.001c-0.016 0.001-0.017 0.011-0.025 0.016-0.004 0.004-0.008 0.007-0.013 0.009l-0 0c-0.007 0.006-0.016 0.012-0.024 0.017l-0.001 0.001c-0.023 0.014-0.040 0.034-0.051 0.057l-0 0.001c0 0.005 0 0.003-0.001 0.007s0 0.009-0.001 0.009h0.005v0.009c-0.016 0.047-0.024 0.080-0.032 0.104-0.002 0.007-0.005 0.011-0.007 0.016s-0.005 0.008-0.007 0.011c-0.001 0.003-0.005 0.007-0.006 0.008-0.004 0.004-0.010 0.007-0.016 0.008l-0 0h-0.005c-0.012-0.001-0.024-0.004-0.034-0.008l0.001 0c-0.023-0.008-0.052-0.019-0.092-0.032-0.003-0.001-0.006-0.001-0.007-0.003s-0.005-0.002-0.008-0.003h-0l-0.018-0.008h-0.007v-0.007h-0.001c-0.048-0.016-0.093-0.025-0.136-0.043-0.025-0.009-0.053-0.017-0.080-0.029-0.033-0.008-0.067-0.024-0.101-0.024-0.093-0.032-0.187-0.048-0.277-0.080-0.007 0-0.013 0.001-0.029 0v0.001c-0.064-0.013-0.115-0.029-0.176-0.040-0.059-0.009-0.081-0.040-0.075-0.099 0.003-0.025 0.002-0.053 0.002-0.077 0-0.008-0.002-0.011-0.002-0.027-0.009-0.017-0.024-0.035-0.037-0.057-0.004-0.005-0.007-0.011-0.009-0.017l-0-0.001c-0.008-0.008-0.024-0.016-0.024-0.025-0.016-0.003-0.010-0.007-0.015-0.010-0.049-0.047-0.035-0.109-0.029-0.168l0.001-0.019 0.005-0.037c0.001-0.007 0.001-0.013 0.003-0.017 0.026-0.1 0.032-0.193-0.075-0.253-0.013-0.008-0.020-0.016-0.037-0.027v0.003c-0.044-0.036-0.092-0.072-0.143-0.106l-0.007-0.004c-0.008-0.016-0.010-0.019-0.026-0.026-0.079-0.043-0.147-0.094-0.207-0.152l0 0-0.049-0.027h0.007c-0.010-0.017-0.021-0.015-0.029-0.023-0.013-0.009-0.024-0.016-0.040-0.026-0.080-0.069-0.189-0.133-0.275-0.211-0.030-0.010-0.049-0.033-0.073-0.053v-0.003c-0.085-0.060-0.168-0.117-0.251-0.181h0.002c-0.010 0-0.010-0.008-0.026-0.016-0.048-0.024-0.096-0.064-0.137-0.096-0.013-0.016-0.026-0.016-0.039-0.016-0.039-0.032-0.072-0.047-0.104-0.075-0.013-0.008-0.024-0.017-0.040-0.027-0.1-0.057-0.187-0.121-0.265-0.194l0.001 0.001-0.008-0.008-0.015-0.016c-0.012-0.015-0.021-0.033-0.025-0.053l-0-0.001v0.013c-0.058-0.063-0.096-0.135-0.144-0.2l-0.005-0.010c-0.002-0.003-0.003-0.006-0.003-0.009v-0c-0.001-0.005-0.002-0.011-0.002-0.017 0-0 0-0 0-0.001v0c0.002-0.014 0.008-0.026 0.016-0.035l-0 0c0-0.003 0.002-0.008 0.002-0.013 0.016-0.102 0.072-0.195 0.112-0.291v-0.025c0 0 0-0.015-0.002-0.021l-0.003-0.009-0.003-0.003c-0.003-0.003-0.007-0.005-0.011-0.007l-0-0h-0.005c-0.015 0.002-0.028 0.007-0.039 0.015l0-0c-0.014 0.009-0.026 0.018-0.037 0.029l0-0-0.013 0.010c-0.003 0.004-0.006 0.008-0.009 0.012l-0 0-0.005 0.007c0 0.001-0.001 0-0.001 0 0 0.001-0.002 0-0.002 0v0.001c-0.032 0.037-0.080 0.069-0.121 0.103-0.008 0.008-0.023 0.017-0.023 0.025v-0.001h-0.005c-0.013 0.016-0.030 0.016-0.048 0.008l-0.207-0.091c-0.016-0.008-0.024-0.025-0.027-0.041-0.001-0.004-0.003-0.011-0.005-0.018l-0.001-0.003-0.005-0.017v0.003c-0.024-0.112 0.015-0.195 0.035-0.291 0.001-0.008 0.003-0.016 0.003-0.024 0.016-0.093 0.022-0.192 0.049-0.282v-0.041c-0.014-0.103-0.015-0.203-0.022-0.306l0.001-0.053c-0.009-0.191-0.022-0.381-0.029-0.571-0.015-0.399-0.047-0.795-0.035-1.193 0-0.003 0-0.007 0-0.011 0-0.073-0.018-0.141-0.051-0.201l0.001 0.002c-0.024-0.044-0.045-0.079-0.069-0.114l0.003 0.005c-0.024-0.030-0.039-0.068-0.039-0.11 0-0.017 0.002-0.034 0.007-0.049l-0 0.001c0.024-0.093 0.042-0.189 0.059-0.283 0.006-0.033 0.015-0.056 0.039-0.057zM2.647 7.251l0.003 0.010c0.003 0.021-0.005 0.043-0.014 0.075-0.003-0.008-0.005-0.018-0.005-0.029s0.002-0.020 0.006-0.029l-0 0.001c0.003-0.011 0.007-0.020 0.011-0.029l-0.001 0.001zM9.791 7.253c0.087-0.001 0.171 0.003 0.254 0.016 0.146 0.011 0.28 0.039 0.367 0.109 0.063 0.027 0.125 0.060 0.186 0.096 0.147 0.088 0.294 0.179 0.441 0.269 0.031 0.019 0.058 0.043 0.078 0.071l0.001 0.001 0.149 0.21c0.008 0.011 0.021 0.024 0.010 0.038-0.003 0.004-0.008 0.008-0.013 0.009l-0 0c-0.012 0.003-0.023-0.001-0.033-0.007-0.065-0.037-0.133-0.072-0.199-0.109-0.227-0.128-0.49-0.233-0.768-0.301l-0.022-0.005c-0.071-0.021-0.139-0.041-0.215-0.051l-0.101-0.023c-0.003 0.002 0.003 0.008 0.011 0.016 0.003 0.003 0.007 0.007 0.008 0.010 0.008 0.009 0.017 0.016 0.027 0.022l0 0 0.013 0.007c0.151 0.077 0.408 0.125 0.595 0.211l0.039 0.019c0.104 0.054 0.199 0.121 0.293 0.193l0.179 0.138c0.269 0.195 0.433 0.459 0.513 0.779 0.002 0.009 0.005 0.019 0.007 0.029l0.007 0.009c0.013 0.020 0.016 0.043 0.011 0.064 0.001 0.005 0.001 0.010 0.003 0.015-0.003 0.047-0.040 0.027-0.061 0.027-0.148-0.008-0.287-0.034-0.418-0.077l0.012 0.003h-0.004c-0.034-0.011-0.079-0.027-0.11-0.036-0.141-0.050-0.273-0.109-0.41-0.159-0.168-0.059-0.299-0.174-0.441-0.275-0.249-0.172-0.467-0.35-0.669-0.545l0.002 0.001c-0.022-0.020-0.040-0.043-0.053-0.069l-0.001-0.001c-0.008-0.016-0.022-0.049-0.035-0.083l-0.006-0.019-0.024-0.063c-0.007-0.018-0.012-0.032-0.018-0.045l0.002 0.005-0.001-0.003c-0.002-0.001-0.002-0.005-0.002-0.007v-0.001l-0.001-0.007c-0.004-0.010-0.006-0.022-0.006-0.035 0-0.017 0.004-0.033 0.010-0.047l-0 0.001c0.001-0.003 0.001-0.007 0.003-0.009l0.003-0.011 0.003-0.009c0.002-0.003 0.002-0.009 0.003-0.011l0.002-0.010 0.001-0.011 0.002-0.009 0.001-0.011 0.001-0.009 0.002-0.011 0.001-0.009 0.002-0.011c0-0.003 0-0.007 0.001-0.010 0-0.003 0-0.008 0.002-0.011v-0.177c-0.002-0.055 0.017-0.076 0.072-0.074 0.053 0.001 0.108-0.001 0.162-0.003l0.050 0.003c0.027-0.001 0.054-0.003 0.081-0.003zM9.98 7.608c0.005 0.002 0.012 0.004 0.018 0.005l0 0h0.001c-0.008 0.005-0.019 0.003-0.022 0.013-0.003-0.013-0.001-0.018 0.002-0.019zM10.567 7.836c0.002 0.001 0.004 0.002 0.007 0.004l0.001 0 0.002 0.001zM9.295 7.954l0.001 0.002c0.005 0.002 0.009 0.007 0.015 0.016 0.051 0.103 0.121 0.187 0.2 0.266 0.083 0.080 0.173 0.153 0.259 0.232 0.179 0.161 0.361 0.32 0.545 0.475 0.119 0.101 0.261 0.152 0.413 0.192 0.345 0.088 0.699 0.121 1.050 0.169 0.093 0.013 0.176 0.043 0.249 0.104h-0.005c0.007 0.005 0.011 0.008 0.016 0.013-0.197-0.029-0.393-0.026-0.591-0.031-0.216-0.005-0.427 0.021-0.64 0.045-0.019 0.002-0.040 0.003-0.062 0.003-0.058 0-0.113-0.007-0.167-0.021l0.005 0.001c-0.205-0.047-0.399-0.13-0.593-0.211-0.219-0.093-0.401-0.235-0.575-0.392-0.013-0.013-0.025-0.024-0.038-0.037-0.055-0.054-0.101-0.116-0.135-0.186l-0.002-0.004-0.001-0.004c-0.060-0.141-0.057-0.299-0.011-0.472 0.013-0.047 0.027-0.093 0.041-0.139 0.005-0.015 0.013-0.023 0.023-0.021zM9.129 8.741c0.043 0.155 0.155 0.264 0.25 0.382l0.019 0.026 0.019 0.025c0.021 0.024 0.044 0.044 0.069 0.062l0.001 0.001c0.011 0.008 0.021 0.014 0.031 0.022l0.014 0.011c0.1 0.080 0.217 0.166 0.336 0.249l0.022 0.015 0.219 0.153c0.099 0.069 0.203 0.127 0.312 0.177 0.027 0.013 0.055 0.024 0.082 0.037 0.083 0.035 0.167 0.066 0.253 0.093l0.014 0.005c0.053 0.014 0.111 0.019 0.167 0.025 0.021 0.001 0.042 0.005 0.061 0.007 0.015 0.003 0.028 0.009 0.041 0.016l-0.001-0c0.017 0.010 0.032 0.021 0.046 0.034l-0-0c0.049 0.045 0.096 0.109 0.099 0.147 0 0.007 0 0.011-0.001 0.016-0.001 0.003-0.001 0.005-0.003 0.007-0.007 0.011-0.016 0.020-0.022 0.032-0.020 0.033-0.040 0.067-0.057 0.102l-0.007 0.018c-0.012 0.025-0.018 0.055-0.018 0.086 0 0.032 0.007 0.063 0.020 0.090l-0.001-0.001c0.077-0.077 0.145-0.158 0.195-0.251 0.021-0.038 0.041-0.082 0.056-0.129l0.002-0.005c0.007-0.018 0.002-0.039 0.007-0.056 0.007-0.019-0.016-0.047-0.007-0.060 0-0.001 0.002-0.001 0.003-0.003 0.003-0.002 0.006-0.004 0.009-0.005l0-0c0.007-0.001 0.013-0.003 0.018-0.003 0.013-0.001 0.024-0.003 0.037-0.003 0.032 0 0.063 0.005 0.093 0.015 0.019 0.007 0.013 0.030 0.011 0.048v0.003c-0.003 0.057-0.027 0.11-0.048 0.161-0.006 0.015-0.011 0.027-0.017 0.039l0.001-0.002c-0.035 0.095-0.078 0.178-0.13 0.254l0.002-0.004c-0.079 0.104-0.169 0.201-0.317 0.207h-0.042c-0.025 0-0.051 0.007-0.077 0.008-0.001-0-0.002-0-0.004-0-0.025 0-0.046 0.016-0.053 0.038l-0 0c-0.011 0.026-0.026 0.048-0.039 0.073l-0.005 0.011c-0.063 0.151-0.155 0.278-0.271 0.379l-0.001 0.001c-0.053 0.047-0.109 0.093-0.167 0.135-0.090 0.060-0.193 0.11-0.303 0.147l-0.009 0.003-0.024 0.009-0.023 0.010-0.013 0.005c-0.007 0.001-0.015 0.005-0.021 0.007-0.024 0.009-0.043 0.023-0.031 0.060 0.013 0.040 0.042 0.051 0.079 0.053 0.008 0 0.017 0 0.027-0.002 0.037-0.003 0.071-0.011 0.103-0.023l-0.003 0.001c0.032-0.011 0.064-0.026 0.097-0.040 0.023-0.010 0.045-0.019 0.069-0.027-0.019 0.081-0.030 0.157-0.056 0.227l-0.014 0.035c-0.031 0.071-0.051 0.113-0.072 0.154l0.012-0.026c-0.012 0.029-0.027 0.056-0.041 0.083-0.077 0.153-0.163 0.3-0.27 0.437-0.068 0.087-0.146 0.162-0.234 0.224l-0.003 0.002c-0.015 0.011-0.037 0.027-0.060 0.043l-0.009 0.006c-0.072 0.047-0.155 0.093-0.242 0.133l-0.012 0.005-0.043 0.020-0.035 0.013-0.029 0.012c-0.027 0.011-0.055 0.020-0.082 0.030-0.024 0.009-0.062 0.021-0.099 0.032l-0.013 0.003c-0.102 0.032-0.23 0.063-0.361 0.086l-0.019 0.003c-0.005 0-0.009 0.002-0.013 0.002-0.037 0.007-0.072 0.011-0.109 0.017-0.039 0.005-0.077 0.011-0.117 0.016-0.046 0.005-0.099 0.008-0.152 0.008-0.089 0-0.176-0.008-0.26-0.023l0.009 0.001-0.019-0.005c-0.037-0.011-0.069-0.024-0.099-0.041l0.002 0.001c-0.041-0.023-0.080-0.047-0.121-0.067-0.036-0.018-0.064-0.034-0.092-0.051l0.005 0.003c-0.042-0.025-0.076-0.048-0.11-0.073l0.003 0.002c-0.068-0.046-0.122-0.109-0.154-0.183l-0.001-0.003c-0.021-0.052-0.042-0.094-0.064-0.135l0.003 0.006c-0.007-0.013-0.014-0.024-0.020-0.035-0.058-0.092-0.119-0.172-0.186-0.246l0.001 0.002c-0.029-0.035-0.056-0.066-0.084-0.096l0.001 0.001c-0.014-0.016-0.027-0.032-0.041-0.047-0.059-0.066-0.115-0.126-0.174-0.184l-0.044-0.044c-0.073-0.072-0.152-0.138-0.237-0.197l-0.006-0.004c-0.058-0.043-0.124-0.085-0.193-0.123l-0.009-0.005-0.040-0.026c-0.189-0.12-0.335-0.295-0.418-0.501l-0.003-0.007c-0.029-0.062-0.071-0.081-0.147-0.083-0.002 0-0.005 0-0.007 0-0.058 0-0.113-0.012-0.164-0.033l0.003 0.001-0.001-0.001c-0.034-0.014-0.063-0.033-0.088-0.056l0 0-0.017-0.011c-0.015-0.017-0.025-0.039-0.039-0.060-0.087-0.125-0.173-0.269-0.248-0.418l-0.009-0.020c0 0.002 0.001 0.003 0.002 0.005l-0.004-0.009 0.002 0.003c-0.021-0.061-0.037-0.105-0.055-0.147l0.006 0.017-0.024-0.057c-0.007-0.022-0.011-0.048-0.011-0.074 0-0.010 0.001-0.020 0.002-0.030l-0 0.001 0.005-0.021c0.001-0.003 0.001-0.007 0.003-0.010 0.002-0.007 0.005-0.014 0.008-0.020l-0 0.001c0.022-0.037 0.050-0.069 0.084-0.093l0.001-0.001c0.013-0.011 0.028-0.022 0.043-0.032l0.002-0.001c0.031-0.023 0.063-0.042 0.093-0.063 0.047-0.029 0.095-0.056 0.145-0.082 0.181-0.093 0.373-0.159 0.571-0.209 0.011-0.003 0.022-0.005 0.035-0.008 0.022-0.005 0.047-0.007 0.070-0.010 0.024-0.001 0.048-0.003 0.071-0.003l0.071-0.001c0.011 0 0.024 0 0.035-0.001 0.235-0.011 0.443-0.026 0.649-0.046l-0.049 0.004c0.12-0.011 0.24-0.024 0.36-0.037 0.279-0.032 0.533-0.108 0.765-0.222l-0.014 0.006c0.024-0.013 0.049-0.024 0.073-0.037l0.042-0.023c0.096-0.051 0.192-0.101 0.285-0.155 0.009-0.013 0.021-0.017 0.037-0.022l0.007-0.002v0.008c-0.002 0.009-0.007 0.017-0.013 0.023l-0 0-0.014 0.009c-0.093 0.119-0.221 0.2-0.331 0.3-0.012 0.009-0.023 0.019-0.033 0.030l-0 0c-0.035 0.029-0.071 0.059-0.111 0.091 0.139 0 0.273-0.016 0.399-0.053 0.238-0.070 0.437-0.21 0.577-0.397l0.002-0.003c0.069-0.091 0.131-0.198 0.185-0.321zM6.953 8.751c-0.066 0.033-0.143 0.058-0.224 0.072l-0.005 0.001c-0.373 0.093-0.753 0.147-1.131 0.217-0.282 0.053-0.53 0.167-0.741 0.328l0.004-0.003c-0.013 0.010-0.027 0.021-0.041 0.029-0.017 0.011-0.026 0.009-0.029-0.007-0.002-0.003-0.002-0.007-0.002-0.012-0.007-0.096 0.023-0.143 0.111-0.183 0.12-0.055 0.24-0.112 0.36-0.168 0.157-0.072 0.325-0.095 0.495-0.112 0.264-0.029 0.528-0.063 0.793-0.093l0.349-0.057zM8.543 9.581l-0.017 0.001c-0.025 0.007-0.024 0.033-0.024 0.053 0.002 0.067 0.005 0.134 0.013 0.201 0.007 0.073 0.031 0.146 0.075 0.205 0.081 0.112 0.199 0.192 0.336 0.222l0.004 0.001c0.103 0.024 0.103 0.025 0.113 0.133 0.005 0.046 0.011 0.087 0.054 0.113 0.075 0.045 0.151 0.091 0.242 0.097 0.056 0.005 0.113 0.008 0.161 0.045 0.060 0.040 0.134 0.065 0.213 0.065h0c0.056 0.005 0.113 0.007 0.169 0.016 0.045 0.008 0.075-0.007 0.107-0.033 0.159-0.131 0.316-0.265 0.465-0.411-0.017-0.020-0.043-0.026-0.079-0.008-0.117 0.057-0.207 0.107-0.296 0.159l0.019-0.011c-0.021 0.015-0.047 0.026-0.074 0.032l-0.001 0c-0.144 0.029-0.31 0.047-0.48 0.049l-0.002 0c-0.093-0.005-0.177-0.036-0.247-0.088l0.001 0.001c-0.045-0.029-0.089-0.070-0.097-0.134 0.024-0.008 0.047 0.001 0.069 0.005 0.085 0.011 0.168 0.042 0.255 0.037 0.208-0.013 0.403-0.075 0.599-0.142l0.189-0.069c0.029-0.010 0.037-0.020 0.011-0.047-0.031-0.033-0.064-0.027-0.098-0.023-0.161 0.024-0.346 0.038-0.534 0.038-0.252 0-0.498-0.025-0.736-0.072l0.024 0.004c-0.12-0.023-0.248-0.031-0.295-0.18-0.013-0.040-0.025-0.080-0.033-0.121-0.011-0.044-0.033-0.083-0.063-0.113l0 0c-0.010-0.014-0.025-0.024-0.043-0.027l-0-0zM8.161 9.625c-0.032 0-0.053 0.033-0.069 0.062-0.040 0.069-0.091 0.131-0.138 0.195-0.072 0.098-0.173 0.119-0.279 0.103-0.32-0.053-0.714-0.095-1.113-0.118l-0.032-0.002c-0.020-0.001-0.039-0.007-0.055 0.007-0.122 0.089-0.245 0.176-0.322 0.312 0.005 0.001 0.010 0.005 0.013 0.005 0.013-0.001 0.023-0.005 0.037-0.007 0.198-0.049 0.405-0.065 0.615-0.048 0.265 0.023 0.528 0.075 0.792 0.112 0.035 0.005 0.071 0.007 0.104 0.024 0.080 0.042 0.12 0.115 0.151 0.193 0.047 0.12 0.060 0.249 0.069 0.377 0.007 0.101-0.015 0.185-0.096 0.253-0.062 0.046-0.108 0.109-0.133 0.183l-0.001 0.003c0.103 0 0.191 0.017 0.258 0.104 0.042 0.054 0.096 0.099 0.149 0.145 0.045 0.043 0.106 0.069 0.174 0.069 0.092 0 0.172-0.049 0.216-0.122l0.001-0.001c0.039-0.063 0.075-0.127 0.117-0.187 0.058-0.085 0.113-0.176 0.217-0.213 0.062-0.020 0.035-0.051 0.014-0.077-0.041-0.053-0.119-0.054-0.187-0.013-0.107 0.064-0.178 0.159-0.255 0.25-0.023 0.027-0.045 0.054-0.075 0.077-0.039 0.027-0.072 0.029-0.106-0.007-0.038-0.038-0.077-0.078-0.118-0.112-0.035-0.029-0.042-0.055-0.021-0.096 0.036-0.066 0.057-0.145 0.057-0.228 0-0.017-0.001-0.033-0.002-0.049l0 0.002c-0.019-0.208-0.053-0.413-0.2-0.578-0.016-0.017-0.016-0.027 0.007-0.043 0.153-0.105 0.256-0.273 0.272-0.465l0-0.002c0.005-0.050-0.005-0.090-0.045-0.104-0.004-0.002-0.009-0.002-0.015-0.003h-0zM11.135 9.648c0.137 0 0.258 0.053 0.377 0.121-0.003 0-0.005 0-0.008 0.002l0.021 0.011c-0.181 0.027-0.36 0.040-0.541 0.020-0.056-0.006-0.112-0.017-0.17-0.015-0.113 0.003-0.205-0.056-0.301-0.107h0.011c-0.008-0.005-0.016-0.008-0.024-0.013 0.016 0.002 0.033 0.002 0.049 0.003 0.019 0.002 0.037 0.007 0.056 0.010 0.159 0.033 0.312-0.013 0.469-0.029 0.018-0.002 0.038-0.003 0.059-0.003h0zM5.342 10.124c-0.004 0-0.008 0.001-0.011 0.003l0-0c-0.033 0.013-0.065 0.032-0.075 0.077-0.032 0.149 0.037 0.291 0.185 0.368 0.067 0.035 0.119 0.085 0.151 0.153 0.011 0.025 0.013 0.071 0.048 0.063s0.007-0.051 0.014-0.069c0.005-0.090-0.013-0.167-0.085-0.213-0.053-0.033-0.073-0.080-0.093-0.134-0.025-0.071-0.031-0.149-0.089-0.205-0.013-0.014-0.024-0.043-0.045-0.043zM6.571 10.36c-0.073 0.018-0.157 0.035-0.235 0.071-0.055 0.025-0.058 0.056-0.010 0.093 0.029 0.023 0.058 0.033 0.093 0.021 0.034-0.014 0.073-0.022 0.115-0.022 0.083 0 0.159 0.033 0.215 0.086l-0-0c0.059 0.051 0.137 0.083 0.222 0.083 0.046 0 0.089-0.009 0.129-0.025l-0.002 0.001c0.071-0.024 0.131-0.064 0.195-0.1 0.022-0.013 0.047-0.022 0.074-0.027l0.001-0c0.096-0.009 0.192-0.022 0.287-0.035 0.025-0.003 0.065 0.007 0.072-0.024 0.007-0.032-0.031-0.051-0.053-0.072-0.011-0.011-0.030-0.013-0.046-0.017-0.049-0.016-0.105-0.025-0.164-0.025-0.045 0-0.089 0.005-0.131 0.016l0.004-0.001c-0.089 0.020-0.191 0.032-0.296 0.032s-0.207-0.012-0.305-0.034l0.009 0.002c-0.053-0.013-0.109-0.013-0.173-0.021zM11.173 10.953c0.004 0 0.007 0.002 0.010 0.005s0.006 0.006 0.008 0.009l0 0 0.005 0.003c0.029 0.023-0.005 0.073-0.013 0.112-0.020 0.112-0.038 0.223-0.057 0.335-0.005 0.032-0.008 0.065-0.032 0.11l-0.005-0.029-0.008 0.016c-0.025-0.137-0.043-0.299-0.050-0.464l-0-0.007c-0.001-0.035 0.023-0.043 0.045-0.051 0.032-0.011 0.071-0.044 0.097-0.039zM9.027 11.554c-0.006 0.002-0.011 0.004-0.016 0.007l0-0c-0.127 0.070-0.269 0.073-0.409 0.091-0.059 0.008-0.133-0.010-0.176 0.033-0.105 0.104-0.195 0.061-0.288-0.013-0.005-0.003-0.009-0.007-0.016-0.009-0.137-0.073-0.275-0.1-0.416-0.003-0.038 0.030-0.087 0.049-0.14 0.049-0.013 0-0.027-0.001-0.040-0.003l0.001 0c-0.049-0.013-0.087-0.010-0.127 0.025-0.019 0.018-0.044 0.032-0.067 0.047-0.063 0.041-0.063 0.048-0.005 0.094 0.013 0.011 0.029 0.016 0.045 0.021 0.133 0.040 0.258 0.011 0.375-0.053 0.121-0.065 0.235-0.062 0.345 0.021 0.101 0.075 0.208 0.077 0.32 0.030 0.125-0.059 0.271-0.108 0.422-0.14l0.013-0.002c0.023-0.003 0.045-0.011 0.066 0.007 0.064 0.059 0.125 0.017 0.186-0.007 0.024-0.010 0.027-0.029 0.025-0.053-0.005-0.051-0.043-0.080-0.065-0.12-0.010-0.017-0.021-0.023-0.036-0.021zM5.881 11.601c0.006 0 0.013 0.004 0.021 0.011 0.026 0.024 0.050 0.049 0.075 0.073l0.010 0.009c0.013 0.011 0.014 0.026 0.008 0.040l-0.149 0.3-0.016-0.005c0-0.003 0.002-0.005 0.002-0.008 0.032-0.131 0.019-0.267 0.037-0.4 0.001-0.013 0.006-0.020 0.012-0.021zM8.481 11.993c-0.159 0.005-0.32 0.031-0.469 0.081-0.123 0.042-0.261 0.071-0.325 0.213-0.037 0.083-0.032 0.171-0.057 0.254 0.011 0.066 0.011 0.131 0.049 0.187 0.011 0.016 0.016 0.042 0.043 0.040 0.029-0.001 0.039-0.025 0.047-0.045 0.029-0.061 0.035-0.129 0.054-0.193 0.031-0.105 0.079-0.187 0.187-0.234 0.113-0.048 0.229-0.093 0.344-0.137 0.014-0.006 0.030-0.010 0.048-0.010 0.007 0 0.014 0.001 0.020 0.002l-0.001-0c0.143 0.020 0.291 0.014 0.418 0.097 0.008 0.006 0.019 0.009 0.030 0.009 0.004 0 0.008-0 0.012-0.001l-0 0c0.048-0.011 0.053-0.027 0.024-0.065-0.089-0.122-0.231-0.2-0.391-0.2-0.012 0-0.023 0-0.035 0.001l0.002-0zM7.003 12.487l0.009 0.011c0.063 0.078 0.125 0.145 0.167 0.224 0.101 0.193 0.249 0.334 0.441 0.437 0.090 0.048 0.171 0.115 0.276 0.127l0.002 0.001 0.012-0.001c0.011 0 0.027-0.002 0.024 0.016-0.002 0.009-0.011 0.009-0.021 0.008h-0.005c-0.003 0-0.007 0-0.010-0.002-0.111 0.003-0.22 0.022-0.329 0.045-0.057 0.012-0.113 0.025-0.17 0.039-0.018 0.006-0.073 0.019-0.128 0.030l-0.034 0.006h-0.002c-0.022 0.005-0.032 0.016-0.029 0.039 0.003 0.027 0.013 0.041 0.045 0.048 0.044 0.008 0.094 0.012 0.145 0.012 0.013 0 0.026-0 0.040-0.001l-0.002 0c0.079-0.002 0.157-0.010 0.235-0.023s0.171-0.020 0.264-0.020c0.090 0 0.178 0.007 0.265 0.020l-0.010-0.001c-0.287 0.047-0.523 0.208-0.783 0.317-0.135 0.056-0.239 0.163-0.367 0.232-0.009 0.011-0.015 0.029-0.024 0.040-0.021 0.026-0.024 0.079-0.058 0.073h-0.003c-0.003 0-0.007 0.002-0.010 0-0.066-0.006-0.127-0.026-0.179-0.058l0.002 0.001c-0.020-0.013-0.015-0.037-0.015-0.059v-0.302c0-0.021 0.008-0.045-0.013-0.060-0.071-0.044-0.053-0.121-0.071-0.185-0.007-0.025 0.011-0.038 0.026-0.054l0.185-0.207c0.042-0.045 0.059-0.095 0.029-0.149-0.057-0.109-0.048-0.213-0.001-0.323 0.037-0.087 0.061-0.178 0.095-0.28zM10.059 12.605c0.003 0.002 0.007 0.003 0.008 0.005l0.005-0.005c0.026 0.015 0.027 0.033 0.033 0.050 0.068 0.165 0.133 0.331 0.2 0.496 0.017 0.037 0.020 0.069-0.004 0.099-0.045 0.057-0.073 0.129-0.073 0.209 0 0.042 0.008 0.083 0.022 0.12l-0.001-0.002c0.045 0.137 0.013 0.232-0.122 0.299-0.023 0.015-0.050 0.024-0.080 0.024h-0c-0.001 0-0.003 0-0.005 0-0.021 0-0.040-0.008-0.054-0.020l0 0c-0.25-0.173-0.547-0.23-0.828-0.329-0.040-0.014-0.078-0.029-0.12-0.038-0.048-0.011-0.045-0.043-0.038-0.077 0.005-0.024 0.017-0.027 0.030-0.025 0.013-0.003 0.031 0.007 0.042 0.009 0.32 0.080 0.643 0.144 0.952 0.264 0.011 0.005 0.021 0.007 0.029 0.009 0.023-0.003 0.029-0.025 0.026-0.055-0.007-0.072-0.013-0.143-0.096-0.181-0.191-0.086-0.412-0.142-0.645-0.155l-0.005-0c-0.033-0.003-0.065-0.005-0.099-0.007 0.159-0.096 0.333-0.147 0.475-0.271 0.018-0.015 0.035-0.029 0.050-0.045l-0 0 0.265-0.321zM8.805 13.361h0.013c0.020-0.001 0.036 0.003 0.038 0.035 0 0.029 0.007 0.055-0.040 0.061-0.054 0.009-0.117 0.014-0.18 0.014-0.001 0-0.002 0-0.002 0h0c-0.063 0-0.123-0.007-0.185-0.021-0.033-0.008-0.047-0.031-0.043-0.057 0.001-0.018 0.014-0.018 0.027-0.018 0.002-0 0.005-0 0.008-0 0.006 0 0.013 0.001 0.019 0.003l-0-0h0.12c0.018 0.001 0.038 0.002 0.059 0.002 0.060 0 0.118-0.007 0.174-0.020l-0.005 0.001zM8.829 13.625c0.004 0 0.008 0.001 0.013 0.003 0.185 0.077 0.371 0.154 0.563 0.233-0.088 0.073-0.169 0.139-0.249 0.203-0.147 0.119-0.293 0.239-0.431 0.369-0.033 0.032-0.059 0.033-0.098 0.009-0.202-0.12-0.442-0.242-0.691-0.348l-0.041-0.015c-0.11-0.047-0.227-0.065-0.341-0.105 0.013-0.024 0.037-0.024 0.056-0.031 0.245-0.091 0.495-0.173 0.735-0.28 0.063-0.029 0.125-0.005 0.185 0.003 0.091 0.013 0.18 0.014 0.263-0.031 0.009-0.006 0.021-0.010 0.034-0.010 0.001 0 0.001 0 0.002 0h-0zM7.388 14.090c0.020 0.001 0.039 0.006 0.056 0.012l-0.001-0c0.131 0.051 0.253 0.123 0.379 0.183 0-0 0.001-0 0.002-0 0.007 0 0.013 0.003 0.018 0.007l-0-0c0.003 0.001 0.003 0.003 0.003 0.007v0.003c0 0.002-0.002 0.002-0.002 0.003-0.001 0.002-0.003 0.002-0.005 0.002l-0.007-0.002c-0.003-0.002-0.006-0.005-0.008-0.008l-0-0-0.575-0.143c0.049-0.039 0.089-0.067 0.139-0.065zM12.835 14.447c-0.095-0.003-0.173 0.041-0.248 0.1-0.019 0.015-0.031 0.032-0.063 0.011-0.070-0.048-0.137-0.035-0.197 0.026-0.033 0.034-0.057 0.076-0.068 0.123l-0 0.002c-0.083 0.336-0.168 0.671-0.248 1.008-0.027 0.113 0.032 0.17 0.149 0.153 0.105-0.017 0.159-0.077 0.176-0.213 0.017-0.131 0.035-0.261 0.073-0.397 0.1 0.125 0.193 0.241 0.289 0.359 0.093 0.113 0.193 0.214 0.329 0.275 0.096 0.043 0.179 0.018 0.255-0.049 0.027-0.023 0.044-0.057 0.044-0.095 0-0.015-0.003-0.030-0.008-0.043l0 0.001c-0.010-0.048-0.052-0.083-0.102-0.083-0.001 0-0.002 0-0.003 0h0c-0.040-0.003-0.075-0.021-0.101-0.047l0 0c-0.090-0.078-0.17-0.165-0.238-0.26l-0.003-0.004c-0.060-0.080-0.063-0.080 0.017-0.135 0.168-0.115 0.227-0.278 0.215-0.473-0.009-0.146-0.088-0.231-0.226-0.253-0.012-0.002-0.026-0.004-0.041-0.004l-0-0zM5.679 14.467c-0.027 0-0.051 0.013-0.065 0.050-0.013 0.033-0.035 0.029-0.061 0.025-0.025-0.004-0.054-0.007-0.083-0.007-0.141 0-0.269 0.059-0.36 0.153l-0 0c-0.253 0.247-0.383 0.543-0.368 0.903 0.009 0.239 0.147 0.353 0.379 0.301 0.459-0.107 0.816-0.557 0.835-1.055 0.005-0.128-0.112-0.313-0.227-0.359-0.015-0.007-0.033-0.011-0.051-0.011h-0zM4.393 14.505c-0.157 0.002-0.3 0.062-0.409 0.159l0.001-0.001c-0.231 0.201-0.365 0.462-0.431 0.759-0.007 0.030-0.012 0.064-0.012 0.1 0 0.082 0.023 0.158 0.063 0.223l-0.001-0.002c0.047 0.079 0.105 0.107 0.195 0.090 0.218-0.043 0.412-0.113 0.591-0.209l-0.011 0.005c0.058-0.030 0.107-0.068 0.15-0.112l0-0c0.035-0.035 0.056-0.083 0.056-0.136v-0c0-0.050-0.022-0.067-0.069-0.069s-0.087 0.016-0.128 0.031c-0.138 0.050-0.272 0.111-0.415 0.147-0.070 0.018-0.094 0.002-0.109-0.070-0.002-0.010-0.003-0.021-0.003-0.033 0-0.017 0.002-0.034 0.006-0.050l-0 0.001c0.027-0.112 0.065-0.221 0.125-0.322 0.040-0.076 0.095-0.139 0.162-0.188l0.002-0.001c0.093-0.059 0.189-0.091 0.295-0.027 0.035 0.020 0.069 0.011 0.1-0.009 0.048-0.031 0.084-0.077 0.1-0.132l0-0.002c0.011-0.033 0.001-0.060-0.029-0.077-0.065-0.041-0.143-0.069-0.226-0.077l-0.002-0zM10.526 14.552c-0.005-0-0.010-0-0.016-0-0.129 0-0.245 0.053-0.329 0.138l-0 0c-0.104 0.107-0.122 0.216-0.056 0.351 0.049 0.101 0.118 0.187 0.185 0.277 0.048 0.063 0.099 0.125 0.144 0.191 0.032 0.047 0.016 0.083-0.039 0.101-0.012 0.004-0.027 0.007-0.042 0.007-0.018 0-0.036-0.004-0.052-0.010l0.001 0c-0.097-0.035-0.18-0.088-0.25-0.154l0 0c-0.026-0.021-0.045-0.050-0.054-0.082l-0-0.001c-0.008-0.049-0.035-0.072-0.083-0.077-0.054-0.005-0.104-0.005-0.136 0.053-0.053 0.092-0.038 0.175 0.058 0.262 0.184 0.163 0.403 0.235 0.622 0.253 0.2 0.003 0.323-0.178 0.258-0.348-0.029-0.077-0.079-0.144-0.127-0.209-0.080-0.106-0.163-0.209-0.238-0.317-0.060-0.083-0.032-0.144 0.065-0.176 0.090-0.029 0.167-0.003 0.24 0.053 0.087 0.067 0.16 0.031 0.179-0.077 0.011-0.057-0.019-0.096-0.059-0.129-0.074-0.061-0.168-0.1-0.272-0.104l-0.001-0zM11.796 14.592c-0.091-0.002-0.183 0-0.273 0.011-0.109 0.013-0.213 0.043-0.253 0.165-0.001 0.007-0.009 0.016-0.016 0.017-0.125 0.032-0.168 0.135-0.201 0.239-0.071 0.231-0.133 0.464-0.199 0.695-0.016 0.056 0.007 0.093 0.053 0.121 0.036 0.023 0.073 0.021 0.115 0.010 0.216-0.053 0.432-0.111 0.658-0.095 0.001 0 0.003 0 0.005 0 0.029 0 0.057-0.007 0.081-0.020l-0.001 0c0.048-0.029 0.079-0.080 0.079-0.139 0-0.007-0.001-0.015-0.001-0.022l0 0.001c-0.009-0.061-0.057-0.078-0.109-0.087-0.034-0.005-0.075-0.009-0.116-0.011l-0.002-0c-0.146 0-0.289 0.013-0.429 0.037l0.015-0.002c0.021-0.152 0.032-0.161 0.176-0.161 0.107 0 0.215-0.007 0.315-0.048 0.067-0.029 0.111-0.075 0.117-0.151 0.005-0.051-0.017-0.081-0.069-0.083-0.015-0.001-0.034-0.001-0.052-0.001-0.026 0-0.052 0.001-0.078 0.003l0.003-0-0.302 0.027c0.016-0.035 0.024-0.067 0.041-0.091 0.029-0.041-0.005-0.119 0.056-0.139 0.050-0.016 0.109-0.005 0.163-0.007 0.143-0.003 0.285-0.005 0.423-0.049 0.053-0.014 0.097-0.045 0.128-0.086l0-0.001c0.047-0.072 0.029-0.12-0.055-0.123-0.091-0.004-0.182-0.009-0.273-0.011zM7.353 14.597c-0.047-0.002-0.087 0.028-0.123 0.062-0.093 0.089-0.178 0.183-0.257 0.284l-0.004 0.006-0.245 0.304c-0.013 0.016-0.027 0.047-0.053 0.033-0.020-0.009-0.012-0.037-0.009-0.057 0.007-0.073 0.016-0.145 0.024-0.219 0.010-0.096 0.023-0.192 0.007-0.288-0.021-0.115-0.104-0.147-0.197-0.075-0.023 0.019-0.043 0.039-0.062 0.060l-0.001 0.001c-0.070 0.081-0.135 0.172-0.193 0.267l-0.005 0.009c-0.15 0.232-0.288 0.473-0.469 0.685-0.033 0.040-0.069 0.079-0.099 0.121-0.032 0.048-0.045 0.103-0.015 0.153 0.027 0.045 0.073 0.061 0.125 0.058 0.054-0.003 0.083-0.043 0.112-0.081l0.417-0.568c0.008-0.010 0.011-0.029 0.035-0.023-0.003 0.020-0.006 0.045-0.008 0.070l-0 0.003c-0.007 0.091-0.025 0.183-0.007 0.275 0.023 0.106 0.107 0.149 0.204 0.101 0.052-0.029 0.097-0.062 0.136-0.101l-0 0c0.078-0.075 0.152-0.155 0.22-0.241 0.076-0.096 0.153-0.193 0.233-0.298 0.024 0.080 0.015 0.152 0.011 0.224-0.008 0.125-0.032 0.25-0.008 0.377 0.016 0.078 0.061 0.125 0.125 0.129 0.007 0.001 0.016 0.001 0.025 0.001 0.060 0 0.115-0.018 0.161-0.048l-0.001 0.001c0.083-0.053 0.091-0.158 0.013-0.229-0.022-0.019-0.037-0.045-0.042-0.075l-0-0.001c-0.017-0.087-0.003-0.171 0.011-0.256 0.026-0.163 0.077-0.323 0.069-0.491-0.003-0.065-0.013-0.127-0.080-0.158-0.015-0.008-0.032-0.013-0.050-0.014l-0-0zM12.713 14.723c0.078-0.007 0.117 0.043 0.094 0.118-0.010 0.034-0.026 0.063-0.047 0.088l0-0c-0.086 0.107-0.195 0.18-0.331 0.235 0.012-0.105 0.038-0.201 0.076-0.29l-0.003 0.007c0.041-0.089 0.109-0.149 0.21-0.158zM8.279 14.737c0.002-0 0.005-0 0.007-0 0.034 0 0.066 0.009 0.094 0.024l-0.001-0.001c0.051 0.029 0.065 0.097 0.030 0.155-0.033 0.049-0.074 0.090-0.122 0.122l-0.002 0.001c-0.092 0.070-0.199 0.126-0.315 0.16l-0.007 0.002c0.047-0.144 0.085-0.277 0.163-0.391 0.035-0.044 0.089-0.073 0.15-0.073 0.001 0 0.002 0 0.002 0h-0zM9.346 14.798c0.006-0 0.012-0.001 0.019-0.001 0.044 0 0.087 0.009 0.126 0.024l-0.002-0.001c0.075 0.031 0.101 0.067 0.099 0.179-0.023 0.219-0.128 0.41-0.282 0.545l-0.001 0.001c-0.058 0.051-0.133 0.084-0.215 0.091l-0.001 0c-0.098 0.008-0.175-0.054-0.165-0.152 0.019-0.214 0.077-0.416 0.22-0.584 0.050-0.059 0.121-0.097 0.202-0.103l0.001-0zM5.425 14.8c0.006-0 0.013-0.001 0.020-0.001 0.045 0 0.089 0.009 0.128 0.025l-0.002-0.001c0.073 0.029 0.099 0.065 0.096 0.175-0.022 0.219-0.126 0.41-0.28 0.544l-0.001 0.001c-0.058 0.051-0.133 0.085-0.215 0.093l-0.002 0c-0.1 0.007-0.177-0.055-0.168-0.155 0.020-0.21 0.077-0.409 0.217-0.573 0.050-0.062 0.124-0.102 0.207-0.109l0.001-0z"></path>
</svg>
