<!-- Generated by IcoMoon.io -->
<svg version="1.1" xmlns="http://www.w3.org/2000/svg" width="16" height="16" viewBox="0 0 16 16">
<title>conda-forge</title>
<path d="M5.471 3.911l0.003 0.264h-0.971l0.004 0.437v0.003l-4.505 0.001v0.141l-0.001 0.559 0.013 0.027c0.141 0.311 0.442 0.601 0.838 0.875s0.89 0.531 1.43 0.753c1.080 0.443 2.335 0.747 3.337 0.733 0.497-0.007 0.843 0.152 1.080 0.448 0.227 0.284 0.34 0.728 0.349 1.28l-1.755 1.393 0.005 1.264h8.228l-0.003-1.173-1.753-1.48c0.037-1.342 0.472-2.295 1.185-2.937 0.725-0.653 1.74-0.993 2.913-1.077l0.13-0.010 0.001-1.498zM5.754 4.192l9.964 0.004-0.003 0.971c-1.158 0.103-2.193 0.444-2.949 1.123-0.608 0.548-0.955 1.375-1.127 2.356l-1.078 0.003 0.001 0.281 1.023-0.003c-0.018 0.151-0.075 0.267-0.082 0.427l-0.595-0.002-0.001 0.281 0.663 0.003 1.425 1.201-1.961 0.001c-0.483-0.45-1.035-0.744-1.611-0.772-0.545-0.027-1.092 0.216-1.591 0.693l-1.985-0.016 1.499-1.187v-0.068c0.001-0.629-0.133-1.147-0.427-1.513-0.264-0.331-0.671-0.499-1.161-0.527l-0.005-2.993h0.005zM4.787 4.456h0.684l0.005 2.936c-0.925-0.013-2.083-0.269-3.087-0.682-0.525-0.216-1.005-0.465-1.377-0.724-0.367-0.253-0.621-0.517-0.729-0.746v-0.343l4.224-0.001v1.44h0.281v-1.44h0.003l-0.003-0.29zM9.411 10.349c0.5 0.025 1.002 0.291 1.453 0.719l-0.001 0.741h-2.897l-0.004-0.8c0.471-0.478 0.962-0.684 1.449-0.66zM5.573 11.025l2.107 0.015 0.004 0.769h-2.107zM13.24 11.119l0.001 0.689h-2.099v-0.689z"></path>
</svg>
