<!-- Generated by IcoMoon.io -->
<svg version="1.1" xmlns="http://www.w3.org/2000/svg" width="16" height="16" viewBox="0 0 16 16">
<title>confluence</title>
<path d="M0.58 12.171c-0.165 0.255-0.353 0.583-0.509 0.83-0.045 0.074-0.071 0.164-0.071 0.26 0 0.182 0.096 0.342 0.239 0.432l0.002 0.001 3.31 2.036c0.076 0.048 0.168 0.076 0.267 0.076 0.185 0 0.348-0.099 0.437-0.247l0.001-0.002c0.133-0.221 0.303-0.509 0.489-0.814 1.311-2.165 2.63-1.902 5.005-0.764l3.305 1.558c0.064 0.031 0.139 0.050 0.219 0.050 0.207 0 0.385-0.124 0.465-0.301l0.001-0.003 1.576-3.564c0.027-0.060 0.042-0.13 0.042-0.204 0-0.204-0.12-0.381-0.294-0.462l-0.003-0.001c-3.497-1.56-4.584-2.086-5.668-2.618l2.358 1.044c-4.478-2.165-8.269-2.021-11.172 2.693zM15.421 3.829c0.166-0.27 0.354-0.583 0.509-0.833 0.044-0.074 0.070-0.162 0.070-0.257 0-0.182-0.095-0.341-0.238-0.431l-0.002-0.001-3.309-2.037c-0.076-0.048-0.168-0.076-0.267-0.076-0.185 0-0.348 0.099-0.437 0.247l-0.001 0.002c-0.13 0.223-0.301 0.509-0.489 0.817-1.311 2.164-2.63 1.9-5.005 0.764l-3.292-1.561c-0.064-0.031-0.139-0.049-0.219-0.049-0.207 0-0.385 0.123-0.465 0.301l-0.001 0.003-1.576 3.564c-0.027 0.060-0.042 0.13-0.042 0.204 0 0.204 0.12 0.381 0.294 0.462l0.003 0.001c0.693 0.327 2.070 0.978 3.31 1.574 4.465 2.164 8.261 2.019 11.159-2.693z"></path>
</svg>
