<!-- Generated by IcoMoon.io -->
<svg version="1.1" xmlns="http://www.w3.org/2000/svg" width="16" height="16" viewBox="0 0 16 16">
<title>coronarenderer</title>
<path fill="#e6502a" d="M13.156 7.735c0.052 0.251 0.077 0.507 0.077 0.763 0 0.96-0.375 1.897-1.037 2.593-0.659 0.691-1.572 1.112-2.526 1.161-0.963 0.049-1.923-0.279-2.653-0.91-0.719-0.622-1.184-1.51-1.281-2.456-0.099-0.963 0.182-1.943 0.78-2.705 0.585-0.745 1.445-1.253 2.383-1.397 0.959-0.148 1.956 0.085 2.749 0.647 0.77 0.546 1.317 1.379 1.508 2.305zM16 4v8c0 2.209-1.791 4-4 4h-8c-2.209 0-4-1.791-4-4v-8c0-2.209 1.791-4 4-4h8c2.209 0 4 1.791 4 4zM14.552 6.322c-0.31-0.932-0.849-1.783-1.556-2.465-0.683-0.659-1.519-1.154-2.426-1.435 0.106 0.282 0.159 0.583 0.159 0.884-0.739-0.97-1.873-1.6-3.088-1.709-0.741-0.067-1.497 0.056-2.177 0.359 0.553 0.171 1.037 0.538 1.353 1.022-1.229-0.439-2.624-0.3-3.741 0.374-0.456 0.275-0.861 0.635-1.189 1.054 0.767-0.165 1.583 0.046 2.175 0.562-0.493 0.473-1.169 0.725-1.852 0.693 0.103 0.167 0.225 0.321 0.363 0.459-0.007 0.011-0.014 0.023-0.021 0.034-0.464 0.209-0.859 0.561-1.12 0.997-0.292 0.486-0.409 1.067-0.332 1.628 0.044 0.321 0.151 0.631 0.313 0.911-0.072-0.623 0.456-1.172 1.081-1.124 0.614 0.047 1.051 0.655 0.901 1.253-0.107 0.423-0.488 0.738-0.924 0.761 0.58 1.031 1.575 1.801 2.72 2.097 0.405 0.105 0.825 0.151 1.244 0.137-0.314 0.239-0.686 0.405-1.091 0.474 0.995 0.677 2.183 1.045 3.387 1.052 0.97 0.006 1.937-0.22 2.801-0.661 0.833-0.424 1.563-1.041 2.123-1.789 0.567-0.759 0.953-1.65 1.117-2.584 0.173-0.993 0.099-2.029-0.219-2.986z"></path>
</svg>
