<!-- Generated by IcoMoon.io -->
<svg version="1.1" xmlns="http://www.w3.org/2000/svg" width="16" height="16" viewBox="0 0 16 16">
<title>coursera</title>
<path fill="#2a73cc" d="M15.995 7.871c-0.003-0.071-0.007-0.136-0.013-0.2l0.001 0.014v-0.003c-0.063-0.706-0.3-1.346-0.669-1.89l0.009 0.014c-0.174-0.26-0.365-0.487-0.577-0.691l-0.001-0.001c-0.312-0.299-0.673-0.551-1.068-0.742l-0.025-0.011c-0.583-0.281-1.269-0.446-1.992-0.446-0.015 0-0.029 0-0.044 0l0.002-0c-0.006-0-0.013-0-0.020-0-0.602 0-1.178 0.109-1.711 0.307l0.034-0.011c-0.465 0.165-0.868 0.39-1.224 0.671l0.009-0.007c-0.082 0.067-0.154 0.13-0.224 0.196l0.002-0.002-0.057 0.057-0.078 0.083h0.001l-0.037 0.037-0.017 0.019-0.094 0.098c-0.069 0.078-0.135 0.156-0.197 0.233v-0.001l-0.003-0.002c-0.128 0.155-0.247 0.317-0.333 0.462-0.059 0.093-0.117 0.189-0.173 0.285l-0.765 1.546 0.001 0.001-0.040 0.079-0.084 0.171c-0.167 0.339-0.347 0.678-0.547 0.957-0.448 0.491-0.954 0.732-1.604 0.732-0.045 0-0.093-0.002-0.139-0.005-0.392-0.015-0.728-0.108-1.026-0.285-0.282-0.164-0.508-0.398-0.658-0.678l-0.005-0.009c-0.137-0.246-0.218-0.54-0.218-0.852 0-0.021 0-0.042 0.001-0.063l-0 0.003 0.001-0.023c0.021-0.507 0.214-0.901 0.603-1.241 0.095-0.083 0.194-0.152 0.297-0.213 0.014-0.009 0.029-0.016 0.043-0.024 0.289-0.158 0.618-0.237 0.995-0.237l0.117 0.003c0.599 0.023 1.061 0.209 1.43 0.575l1.156-2.075c-0.268-0.18-0.576-0.34-0.901-0.463l-0.031-0.010c-0.013-0.005-0.027-0.011-0.040-0.015-0.041-0.015-0.082-0.030-0.124-0.043-0.334-0.114-0.723-0.197-1.126-0.231l-0.018-0.001c-0.029-0.003-0.040-0.005-0.050-0.006l0.019 0.002c-0.061-0.003-0.123-0.011-0.183-0.013-0.056-0.002-0.125-0.004-0.195-0.005l-0.003-0h-0.037c-0.008-0-0.016-0-0.025-0-0.724 0-1.41 0.165-2.021 0.459l0.028-0.012c-0.687 0.331-1.252 0.823-1.659 1.429l-0.009 0.015c-0.424 0.626-0.677 1.397-0.677 2.228 0 0.009 0 0.018 0 0.027v-0.001c-0.001 1.043 0.379 1.959 1.134 2.729 0.789 0.807 1.814 1.243 3.045 1.294 0.079 0.003 0.157 0.005 0.235 0.005 0.697 0 1.341-0.124 1.919-0.372 0.145-0.062 0.285-0.134 0.428-0.215 0.078-0.045 0.152-0.093 0.225-0.143l0.053-0.037 0.091-0.062c0.109-0.079 0.211-0.164 0.311-0.254l0.035-0.033c0.059-0.055 0.117-0.112 0.173-0.17l0.207-0.235 0.079-0.099 0.037-0.054 0.037-0.053c0.308-0.517 1.31-2.401 1.31-2.401v-0.004l0.060-0.115 0.049-0.090c0.148-0.269 0.255-0.459 0.396-0.66l0.004-0.007c0.329-0.478 0.896-0.818 1.564-0.875 1.12-0.097 2.101 0.639 2.191 1.643s-0.745 1.897-1.865 1.994c-0.058 0.005-0.126 0.008-0.195 0.008-0.17 0-0.335-0.019-0.494-0.054l0.015 0.003-0.006 0.002c-0.821-0.171-1.345-0.77-1.603-1.039l-1.078 1.983c0 0 0.335 0.337 0.565 0.506 0.231 0.169 0.527 0.334 0.764 0.437 0.557 0.248 1.208 0.392 1.892 0.393h0c0.081 0 0.065 0 0.148-0.003 1.229-0.051 2.326-0.523 3.117-1.33 0.749-0.767 1.155-1.642 1.159-2.679v-0.031z"></path>
</svg>
