<!-- Generated by IcoMoon.io -->
<svg version="1.1" xmlns="http://www.w3.org/2000/svg" width="16" height="16" viewBox="0 0 16 16">
<title>coveralls</title>
<path fill="#3f5767" d="M0 8v8h16v-16h-16zM8.797 3.875l0.778 2.343 1.503 0.003c0.825 0.003 1.944 0.013 2.485 0.025l0.981 0.019-1.979 1.435c-1.087 0.787-1.984 1.453-1.993 1.475-0.007 0.022 0.325 1.085 0.737 2.36 0.413 1.278 0.747 2.325 0.744 2.328-0.003 0.007-0.9-0.631-1.991-1.413-1.091-0.785-2-1.431-2.022-1.441-0.019-0.007-0.941 0.631-2.047 1.425-1.103 0.79-2.013 1.434-2.016 1.428-0.003-0.003 0.331-1.050 0.744-2.328 0.413-1.275 0.743-2.338 0.737-2.36-0.009-0.021-0.907-0.687-1.993-1.475l-1.979-1.435 0.981-0.019c0.541-0.012 1.66-0.021 2.485-0.025l1.503-0.003 0.779-2.343c0.967-3.189 1.233-3.968 1.502-4.745l-0.721 2.401c0.003 0 0.353 1.053 0.782 2.344z"></path>
</svg>
