<!-- Generated by IcoMoon.io -->
<svg version="1.1" xmlns="http://www.w3.org/2000/svg" width="16" height="16" viewBox="0 0 16 16">
<title>cpanel</title>
<path fill="#ff6c2c" d="M3.057 6.231c-0.002-0-0.004-0-0.007-0-0.083 0-0.16 0.028-0.221 0.076l0.001-0.001c-0.063 0.050-0.109 0.118-0.131 0.197l-0.001 0.003-0.873 3.264h0.615c0.001 0 0.002 0 0.004 0 0.083 0 0.158-0.028 0.218-0.076l-0.001 0.001c0.063-0.048 0.11-0.115 0.133-0.191l0.001-0.003 0.645-2.403h0.496c0.001 0 0.001 0 0.002 0 0.076 0 0.148 0.019 0.212 0.053l-0.002-0.001c0.064 0.033 0.117 0.077 0.159 0.132l0.001 0.001c0.040 0.053 0.070 0.116 0.085 0.184l0.001 0.003c0.007 0.029 0.011 0.062 0.011 0.096 0 0.043-0.006 0.085-0.018 0.125l0.001-0.003c-0.053 0.203-0.235 0.351-0.451 0.351h-0.257c-0.001-0-0.003-0-0.005-0-0.083 0-0.16 0.028-0.221 0.076l0.001-0.001c-0.063 0.048-0.11 0.115-0.133 0.191l-0.001 0.003-0.16 0.597h0.801c0.001 0 0.002 0 0.003 0 0.448 0 0.842-0.228 1.074-0.573l0.003-0.005c0.076-0.112 0.136-0.242 0.174-0.381l0.002-0.009 0.018-0.067c0.030-0.101 0.047-0.217 0.047-0.337 0-0.095-0.011-0.187-0.031-0.276l0.002 0.008c-0.087-0.393-0.34-0.713-0.68-0.89l-0.007-0.003c-0.167-0.088-0.365-0.14-0.575-0.14-0.004 0-0.008 0-0.012 0h0.001zM15.355 6.231c-0.001-0-0.003-0-0.005-0-0.061 0-0.118 0.021-0.163 0.055l0.001-0c-0.046 0.035-0.080 0.085-0.093 0.143l-0 0.002-0.889 3.34c0.001 0 0.003 0 0.005 0 0.135 0 0.264-0.023 0.383-0.066l-0.008 0.002c0.126-0.045 0.236-0.105 0.334-0.179l-0.003 0.002c0.1-0.077 0.185-0.167 0.254-0.268l0.003-0.004c0.069-0.101 0.123-0.22 0.154-0.346l0.002-0.008 0.664-2.464c0.004-0.013 0.007-0.029 0.007-0.045 0-0.038-0.014-0.073-0.037-0.1l0 0c-0.030-0.039-0.077-0.063-0.13-0.063-0.001 0-0.003 0-0.004 0h0zM5.587 7.095l-0.089 0.335c-0.008 0.029-0.012 0.061-0.012 0.095 0 0.028 0.003 0.055 0.009 0.081l-0-0.002c0.012 0.056 0.035 0.106 0.067 0.148l-0.001-0.001c0.033 0.043 0.074 0.077 0.121 0.102l0.002 0.001c0.047 0.025 0.104 0.040 0.163 0.040 0.002 0 0.003-0 0.005-0h1.438c0.001-0 0.002-0 0.003-0 0.021 0 0.040 0.010 0.053 0.025l0 0c0.008 0.011 0.013 0.024 0.013 0.039 0 0.007-0.001 0.014-0.003 0.020l0-0-0.013 0.048-0.216 0.801-0.009 0.037c-0.006 0.029-0.022 0.053-0.044 0.070l-0 0c-0.022 0.017-0.051 0.027-0.081 0.027-0.001 0-0.002-0-0.004-0h-0.87c-0.001 0-0.002 0-0.002 0-0.031 0-0.059-0.015-0.077-0.038l-0-0c-0.014-0.016-0.022-0.037-0.022-0.059 0-0.010 0.002-0.019 0.004-0.028l-0 0.001c0.015-0.049 0.047-0.075 0.098-0.075h0.539c0.001 0 0.003 0 0.004 0 0.082 0 0.158-0.028 0.218-0.075l-0.001 0.001c0.063-0.049 0.11-0.115 0.133-0.193l0.001-0.003 0.088-0.332h-1.207c-0 0-0.001 0-0.001 0-0.090 0-0.177 0.016-0.257 0.045l0.005-0.002c-0.082 0.029-0.154 0.069-0.217 0.119l0.002-0.001c-0.066 0.051-0.123 0.111-0.169 0.178l-0.002 0.003c-0.046 0.066-0.082 0.143-0.103 0.226l-0.001 0.005-0.019 0.067c-0.017 0.058-0.027 0.126-0.027 0.195 0 0.057 0.006 0.112 0.019 0.165l-0.001-0.005c0.026 0.118 0.075 0.222 0.143 0.311l-0.001-0.002c0.14 0.184 0.36 0.302 0.607 0.302 0.002 0 0.004 0 0.005-0h-0l1.438 0.004c0.001 0 0.002 0 0.004 0 0.277 0 0.51-0.188 0.579-0.442l0.001-0.004 0.35-1.3c0.015-0.056 0.024-0.119 0.024-0.185 0-0.056-0.006-0.11-0.018-0.162l0.001 0.005c-0.025-0.113-0.072-0.213-0.138-0.298l0.001 0.002c-0.068-0.086-0.151-0.156-0.247-0.206l-0.004-0.002c-0.094-0.050-0.206-0.080-0.325-0.080-0.003 0-0.005 0-0.008 0h0zM1.323 7.102c-0.001 0-0.002 0-0.004 0-0.151 0-0.296 0.026-0.431 0.074l0.009-0.003c-0.141 0.049-0.263 0.116-0.372 0.199l0.003-0.002c-0.223 0.173-0.388 0.412-0.464 0.687l-0.002 0.009-0.018 0.067c-0.028 0.1-0.044 0.215-0.044 0.334 0 0.096 0.010 0.189 0.030 0.278l-0.002-0.009c0.043 0.201 0.127 0.377 0.243 0.527l-0.002-0.003c0.119 0.153 0.268 0.277 0.438 0.366l0.007 0.003c0.167 0.088 0.365 0.14 0.575 0.14 0.004 0 0.008-0 0.012-0h0.309l0.177-0.655c0.004-0.014 0.007-0.029 0.007-0.045 0-0.037-0.013-0.072-0.036-0.098l0 0c-0.029-0.039-0.076-0.064-0.128-0.064-0.002 0-0.003 0-0.005 0h-0.282c-0.001 0-0.002 0-0.004 0-0.076 0-0.148-0.018-0.212-0.051l0.003 0.001c-0.064-0.031-0.118-0.075-0.159-0.129l-0.001-0.001c-0.039-0.053-0.069-0.116-0.084-0.184l-0.001-0.003c-0.007-0.030-0.011-0.065-0.011-0.1 0-0.045 0.006-0.089 0.018-0.13l-0.001 0.003c0.030-0.103 0.090-0.189 0.17-0.251l0.001-0.001c0.075-0.058 0.171-0.093 0.274-0.093 0.002 0 0.004 0 0.006 0h0.464c0.001 0 0.003 0 0.005 0 0.084 0 0.161-0.029 0.222-0.077l-0.001 0.001c0.063-0.049 0.11-0.117 0.132-0.195l0.001-0.003 0.155-0.593zM8.709 7.102l-0.655 2.459c-0.004 0.013-0.007 0.029-0.007 0.045 0 0.038 0.014 0.073 0.037 0.1l-0-0c0.029 0.039 0.075 0.063 0.127 0.063 0.001 0 0.002-0 0.003-0h0.474c0.001 0 0.002 0 0.002 0 0.061 0 0.118-0.020 0.164-0.054l-0.001 0.001c0.047-0.033 0.081-0.082 0.095-0.138l0-0.002 0.429-1.607h0.497c0.002-0 0.003-0 0.005-0 0.075 0 0.147 0.019 0.209 0.051l-0.002-0.001c0.063 0.033 0.116 0.078 0.158 0.132l0.001 0.001c0.040 0.053 0.070 0.115 0.085 0.183l0.001 0.003c0.007 0.029 0.011 0.062 0.011 0.096 0 0.043-0.006 0.085-0.018 0.125l0.001-0.003-0.265 1.004c-0.004 0.014-0.007 0.030-0.007 0.046 0 0.089 0.073 0.162 0.162 0.162 0.002 0 0.003-0 0.005-0h0.475c0.001 0 0.001 0 0.002 0 0.061 0 0.116-0.020 0.161-0.054l-0.001 0.001c0.047-0.034 0.081-0.083 0.095-0.14l0-0.002 0.221-0.832c0.030-0.102 0.047-0.22 0.047-0.342 0-0.093-0.010-0.184-0.029-0.272l0.002 0.008c-0.043-0.202-0.127-0.379-0.243-0.53l0.002 0.003c-0.119-0.153-0.268-0.277-0.438-0.366l-0.007-0.003c-0.167-0.088-0.366-0.139-0.576-0.139-0.005 0-0.010 0-0.015 0h0.001zM12.571 7.102c-0.002-0-0.004-0-0.006-0-0.114 0-0.224 0.020-0.326 0.056l0.007-0.002c-0.209 0.074-0.381 0.209-0.499 0.383l-0.002 0.004c-0.059 0.087-0.106 0.188-0.135 0.296l-0.002 0.007-0.271 1.003c-0.017 0.057-0.027 0.122-0.027 0.19 0 0.053 0.006 0.104 0.017 0.153l-0.001-0.005c0.025 0.114 0.073 0.214 0.138 0.299l-0.001-0.002c0.067 0.087 0.151 0.157 0.247 0.206l0.004 0.002c0.094 0.048 0.205 0.077 0.322 0.077 0.004 0 0.007-0 0.011-0h1.667c0.001 0 0.002 0 0.004 0 0.082 0 0.158-0.028 0.218-0.076l-0.001 0.001c0.063-0.048 0.11-0.115 0.133-0.191l0.001-0.003 0.14-0.527h-1.832c-0.073-0.001-0.132-0.060-0.132-0.133 0-0.012 0.002-0.024 0.005-0.036l-0 0.001 0.199-0.751c0.015-0.044 0.041-0.081 0.075-0.108l0-0c0.032-0.027 0.074-0.043 0.119-0.043 0 0 0.001 0 0.001 0h0.821c0.056 0 0.102 0.046 0.102 0.102 0 0.009-0.001 0.019-0.004 0.027l0-0.001-0.017 0.067c-0.015 0.050-0.047 0.075-0.097 0.075h-0.54c-0.002-0-0.005-0-0.008-0-0.083 0-0.159 0.028-0.219 0.075l0.001-0.001c-0.062 0.048-0.107 0.115-0.127 0.193l-0.001 0.002-0.089 0.327h1.336c0.002 0 0.004 0 0.007 0 0.135 0 0.26-0.045 0.359-0.122l-0.001 0.001c0.104-0.079 0.18-0.19 0.212-0.318l0.001-0.004 0.080-0.3c0.016-0.057 0.025-0.122 0.025-0.189 0-0.054-0.006-0.107-0.017-0.158l0.001 0.005c-0.024-0.113-0.071-0.213-0.137-0.297l0.001 0.002c-0.067-0.086-0.151-0.156-0.246-0.207l-0.004-0.002c-0.094-0.050-0.205-0.079-0.323-0.079-0.003 0-0.006 0-0.009 0h0z"></path>
</svg>
