<!-- Generated by IcoMoon.io -->
<svg version="1.1" xmlns="http://www.w3.org/2000/svg" width="16" height="16" viewBox="0 0 16 16">
<title>cplusplus</title>
<path fill="#00599c" d="M14.929 4c-0.111-0.193-0.265-0.362-0.435-0.46l-5.877-3.393c-0.339-0.195-0.893-0.195-1.231 0l-5.879 3.393c-0.339 0.195-0.615 0.675-0.615 1.067v6.787c0 0.196 0.069 0.413 0.181 0.607s0.265 0.362 0.435 0.459l5.877 3.394c0.339 0.195 0.893 0.195 1.231 0l5.877-3.394c0.169-0.097 0.323-0.266 0.435-0.459s0.181-0.411 0.181-0.607v-6.787c0.001-0.196-0.068-0.413-0.179-0.607zM8 12.739c-2.613 0-4.739-2.126-4.739-4.739s2.126-4.739 4.739-4.739c1.744 0.003 3.267 0.944 4.092 2.346l0.012 0.022-2.051 1.187c-0.418-0.713-1.181-1.184-2.053-1.186h-0c-1.307 0-2.369 1.063-2.369 2.37s1.063 2.37 2.369 2.37c0.872-0.002 1.634-0.473 2.047-1.174l0.006-0.011 2.051 1.187c-0.838 1.424-2.361 2.365-4.104 2.368h-0zM12.739 8.263h-0.527v0.527h-0.527v-0.527h-0.527v-0.527h0.527v-0.527h0.527v0.527h0.527zM14.714 8.263h-0.527v0.527h-0.527v-0.527h-0.526v-0.527h0.526v-0.527h0.527v0.527h0.527z"></path>
</svg>
