<!-- Generated by IcoMoon.io -->
<svg version="1.1" xmlns="http://www.w3.org/2000/svg" width="16" height="16" viewBox="0 0 16 16">
<title>creativecommons</title>
<path fill="#ef9421" d="M7.989 0c-2.195 0-4.127 0.811-5.619 2.323-1.537 1.556-2.37 3.573-2.37 5.677 0 2.126 0.811 4.099 2.348 5.633 1.537 1.533 3.533 2.367 5.641 2.367s4.148-0.833 5.729-2.389c1.493-1.469 2.283-3.42 2.283-5.611 0-2.17-0.791-4.143-2.305-5.655-1.536-1.533-3.511-2.345-5.706-2.345zM8.011 1.447c1.8 0 3.402 0.68 4.653 1.929 1.229 1.227 1.887 2.849 1.887 4.625 0 1.797-0.636 3.375-1.865 4.581-1.295 1.271-2.963 1.951-4.675 1.951-1.734 0-3.359-0.679-4.609-1.929s-1.953-2.893-1.953-4.603c0-1.731 0.702-3.375 1.953-4.647 1.229-1.249 2.809-1.907 4.609-1.907zM5.787 5.519c-1.305 0-2.343 0.921-2.343 2.481 0 1.587 0.977 2.481 2.387 2.481 0.905 0 1.677-0.496 2.103-1.249l-0.994-0.505c-0.222 0.532-0.559 0.691-0.985 0.691-0.737 0-1.073-0.611-1.073-1.417s0.284-1.418 1.073-1.418c0.213 0 0.64 0.115 0.888 0.647l1.065-0.559c-0.453-0.824-1.225-1.152-2.121-1.152zM10.408 5.519c-1.305 0-2.343 0.921-2.343 2.481 0 1.587 0.976 2.481 2.387 2.481 0.906 0 1.677-0.496 2.103-1.249l-0.993-0.505c-0.222 0.532-0.56 0.691-0.985 0.691-0.737 0-1.074-0.611-1.074-1.417s0.284-1.418 1.073-1.418c0.213 0 0.64 0.115 0.888 0.647l1.065-0.559c-0.453-0.824-1.225-1.152-2.121-1.152z"></path>
</svg>
