<!-- Generated by IcoMoon.io -->
<svg version="1.1" xmlns="http://www.w3.org/2000/svg" width="16" height="16" viewBox="0 0 16 16">
<title>crunchbase</title>
<path fill="#0288d1" d="M14.4 0h-12.8c-0.882 0.004-1.596 0.718-1.6 1.6v12.8c0.004 0.882 0.718 1.596 1.6 1.6h12.8c0.882-0.004 1.596-0.718 1.6-1.6v-12.8c-0.004-0.882-0.718-1.596-1.6-1.6h-0zM4.697 9.643c0.171 0.080 0.372 0.127 0.583 0.127 0.565 0 1.053-0.334 1.276-0.815l0.004-0.009h1.107c-0.272 1.085-1.238 1.877-2.39 1.877-1.359 0-2.46-1.101-2.46-2.46s1.101-2.46 2.46-2.46c1.152 0 2.118 0.791 2.386 1.86l0.004 0.017h-1.107c-0.227-0.49-0.715-0.823-1.28-0.823-0.777 0-1.407 0.63-1.407 1.407 0 0.565 0.334 1.053 0.815 1.276l0.009 0.004zM12.26 10.207c-0.201 0.174-0.435 0.316-0.691 0.415l-0.016 0.005c-0.263 0.105-0.568 0.166-0.888 0.166-0.512 0-0.987-0.157-1.381-0.425l0.008 0.005v0.253h-1.007v-7.047h1v2.74c0.338-0.232 0.748-0.383 1.191-0.419l0.009-0.001h0.18c0.001 0 0.002 0 0.004 0 1.351 0 2.447 1.095 2.447 2.447 0 0.743-0.331 1.409-0.854 1.857l-0.003 0.003zM12.111 8.363c0 0.009 0 0.020 0 0.031 0 0.775-0.628 1.403-1.403 1.403s-1.403-0.628-1.403-1.403c0-0.011 0-0.021 0-0.032l-0 0.002c0.017-0.761 0.638-1.372 1.402-1.372s1.385 0.611 1.402 1.37l0 0.002z"></path>
</svg>
