<!-- Generated by IcoMoon.io -->
<svg version="1.1" xmlns="http://www.w3.org/2000/svg" width="16" height="16" viewBox="0 0 16 16">
<title>crunchyroll</title>
<path fill="#f47521" d="M1.955 8.978c-0.014-0.166-0.022-0.36-0.022-0.555 0-3.884 3.149-7.033 7.033-7.033s7.033 3.149 7.033 7.033c0 0.008-0 0.016-0 0.023v-0.446c0-4.418-3.582-8-8-8s-8 3.582-8 8 3.582 8 8 8h0.533c-3.675-0.268-6.557-3.305-6.578-7.020l-0-0.002zM12.8 9.333c-0.003 0-0.006 0-0.009 0-1.418 0-2.567-1.149-2.567-2.567 0-1.102 0.694-2.042 1.67-2.406l0.018-0.006c-0.718-0.392-1.574-0.623-2.483-0.623-0.033 0-0.067 0-0.1 0.001l0.005-0c-3.093 0-5.6 2.507-5.6 5.6s2.507 5.6 5.6 5.6c3.093 0 5.6-2.507 5.6-5.6v0c0.002-0.053 0.004-0.115 0.004-0.178 0-0.315-0.034-0.622-0.097-0.918l0.005 0.028c-0.409 0.647-1.12 1.070-1.93 1.070-0.040 0-0.080-0.001-0.12-0.003l0.006 0z"></path>
</svg>
