<!-- Generated by IcoMoon.io -->
<svg version="1.1" xmlns="http://www.w3.org/2000/svg" width="16" height="16" viewBox="0 0 16 16">
<title>cryengine</title>
<path d="M9.809 9.917c0.197 0 0.387 0.068 0.538 0.192l0.009 0.008-0.099 0.159c-0.123-0.112-0.281-0.173-0.447-0.173-0.366 0-0.663 0.297-0.663 0.663s0.297 0.663 0.663 0.663c0.331 0 0.607-0.244 0.655-0.561l0.001-0.009h-0.568l0.115-0.185h0.644v0.093c0 0.468-0.381 0.849-0.848 0.849s-0.848-0.381-0.848-0.849c-0.001-0.469 0.379-0.849 0.847-0.849zM0.848 9.917c0.231 0 0.453 0.096 0.612 0.261l0.008 0.009-0.105 0.161c-0.127-0.157-0.313-0.247-0.516-0.247-0.366 0-0.663 0.297-0.663 0.663s0.297 0.663 0.663 0.663c0.191 0 0.373-0.082 0.499-0.226l0.007-0.008 0.141 0.12c-0.16 0.19-0.396 0.299-0.645 0.299-0.467 0-0.848-0.38-0.848-0.848s0.381-0.848 0.848-0.848zM2.475 9.927c0.426 0 0.596 0.2 0.596 0.489 0 0.242-0.123 0.413-0.414 0.471l-0.009 0.002 0.468 0.717h-0.224l-0.442-0.705h-0.319v0.705h-0.182v-1.678zM6.395 11.442v0.163h-1.148v-0.163zM3.716 9.927l0.461 0.766c0.016 0.028 0.025 0.058 0.030 0.077 0.007-0.019 0.013-0.045 0.029-0.073l0.004-0.007 0.459-0.763h0.198l-1.043 1.679h-0.181l0.431-0.7-0.588-0.979zM15.397 11.442v0.163h-1.148v-0.163zM12.357 9.927l1.008 1.39c-0.009-0.039-0.013-0.054-0.014-0.085v-1.305h0.181v1.679h-0.172l-1.010-1.395c0.007 0.022 0.015 0.052 0.016 0.095v1.3h-0.181v-1.679zM11.449 9.927v1.679h-0.181v-1.679zM7.186 9.927l1.008 1.39c-0.009-0.039-0.013-0.054-0.014-0.085v-1.305h0.181v1.679h-0.172l-1.010-1.395c0.007 0.022 0.015 0.052 0.016 0.095v1.3h-0.181v-1.679zM15.397 10.637v0.165h-1.148v-0.165zM6.395 10.637v0.165h-1.148v-0.165zM2.477 10.089h-0.347v0.645h0.345c0.256 0 0.41-0.075 0.41-0.319s-0.155-0.326-0.408-0.326zM15.805 9.711c0.108 0 0.195 0.087 0.195 0.195s-0.087 0.195-0.195 0.195-0.195-0.087-0.195-0.195c0.001-0.108 0.088-0.195 0.195-0.195zM15.397 9.927v0.163h-1.148v-0.163zM6.395 9.927v0.163h-0.98l0.101-0.163zM15.805 9.744c-0.089 0-0.161 0.072-0.161 0.161s0.072 0.161 0.161 0.161 0.162-0.072 0.162-0.161c0-0.089-0.073-0.161-0.162-0.161zM15.806 9.805c0.050 0 0.072 0.025 0.072 0.061 0 0.027-0.012 0.047-0.039 0.056l-0.004 0.001 0.053 0.082h-0.039l-0.045-0.069c-0.001-0.001-0.002-0.005-0.003-0.007v-0.002h-0.039v0.079h-0.032v-0.201zM15.807 9.835h-0.043v0.061h0.043c0.027 0 0.040-0.007 0.040-0.030s-0.013-0.031-0.039-0.031zM7.273 4.4l0.059-0.005c-1.573 0.366-2.507 1.555-2.507 1.709v0.001c0 0.001 0.001-0.006 0.001 0.024v0.004h0.001c0.032 0.169 0.497 0.983 2.294 1.467-2.060-0.163-2.996-1.165-3.042-1.459l-0.001-0.009h-0.001c0-0.031-0.001-0.025-0.001-0.023v0l0.001-0.009c0.025-0.301 1.285-1.541 3.196-1.701l0.059-0.005zM7.927 4.387c2.139 0.111 3.384 1.383 3.395 1.739v-0.001c0-0.001-0.001 0-0.001 0.022v0.004h-0.001c-0.017 0.179-0.697 0.905-1.714 1.24-1.243 0.409-3.244 0.26-3.244-1.299 0-0.731 0.596-1.327 1.328-1.327 0.739 0 1.331 0.598 1.331 1.33 0 0.357-0.154 0.702-0.387 0.946 0.218-0.004 1.011-0.062 1.759-0.678 0.083-0.081 0.135-0.148 0.157-0.189 0.006-0.011 0.015-0.030 0.013-0.048 0.001-0.16-0.859-1.389-2.637-1.74zM7.689 5.339c-0.417 0-0.754 0.337-0.754 0.754s0.337 0.754 0.754 0.754c0.416 0 0.754-0.337 0.754-0.754s-0.337-0.754-0.754-0.754zM11.321 6.127c0 0 0 0 0 0z"></path>
</svg>
