<!-- Generated by IcoMoon.io -->
<svg version="1.1" xmlns="http://www.w3.org/2000/svg" width="16" height="16" viewBox="0 0 16 16">
<title>csharp</title>
<path fill="#239120" d="M8 0c-4.418 0-8 3.582-8 8v0c0 4.418 3.582 8 8 8v0c4.418 0 8-3.582 8-8v0c0-4.418-3.582-8-8-8v0zM6.284 4.747c0.477 0.003 0.931 0.096 1.348 0.262l-0.025-0.009v0.787c-0.42-0.238-0.922-0.378-1.457-0.378-0.015 0-0.030 0-0.045 0l0.002-0c-0.023-0.001-0.049-0.001-0.076-0.001-0.66 0-1.254 0.279-1.673 0.725l-0.001 0.001c-0.421 0.478-0.678 1.11-0.678 1.802 0 0.048 0.001 0.095 0.004 0.142l-0-0.007c-0.002 0.040-0.004 0.088-0.004 0.135 0 0.652 0.24 1.248 0.636 1.704l-0.003-0.003c0.393 0.421 0.951 0.684 1.57 0.684 0.030 0 0.059-0.001 0.089-0.002l-0.004 0c0.023 0.001 0.050 0.001 0.077 0.001 0.577 0 1.117-0.157 1.58-0.432l-0.014 0.008-0.003 0.72c-0.472 0.235-1.028 0.372-1.617 0.372-0.047 0-0.094-0.001-0.14-0.003l0.007 0c-0.037 0.002-0.080 0.003-0.123 0.003-0.797 0-1.517-0.332-2.028-0.866l-0.001-0.001c-0.503-0.562-0.811-1.309-0.811-2.128 0-0.051 0.001-0.102 0.004-0.152l-0 0.007c-0.002-0.043-0.003-0.094-0.003-0.144 0-0.89 0.348-1.7 0.915-2.299l-0.001 0.002c0.561-0.574 1.343-0.93 2.208-0.93 0.038 0 0.075 0.001 0.112 0.002l-0.005-0c0.020-0.001 0.048-0.002 0.076-0.003l0.004-0c0.021-0 0.046-0.001 0.071-0.001 0.004 0 0.007 0 0.011 0h-0.001zM10.193 4.85h0.557l-0.37 1.768h1.107l0.378-1.768h0.54l-0.37 1.768 1.155-0.003-0.1 0.465h-1.15l-0.275 1.32h1.235l-0.117 0.465h-1.211l-0.387 1.75h-0.553l0.378-1.75h-1.1l-0.37 1.75h-0.54l0.37-1.75h-1.16l0.087-0.465h1.165l0.267-1.317h-1.217l0.092-0.465h1.217zM10.287 7.080l-0.287 1.32h1.115l0.282-1.32z"></path>
</svg>
