<!-- Generated by IcoMoon.io -->
<svg version="1.1" xmlns="http://www.w3.org/2000/svg" width="16" height="16" viewBox="0 0 16 16">
<title>csswizardry</title>
<path fill="#f43059" d="M0.020 10.952v-10.207c0-0.412 0.333-0.745 0.745-0.745h14.435c0.416 0 0.747 0.333 0.747 0.747v9.84c-0.447-0.273-0.973-0.411-1.571-0.411-0.836 0-1.47 0.2-1.903 0.597-0.433 0.399-0.647 0.885-0.647 1.483 0 0.647 0.22 1.127 0.667 1.433 0.26 0.19 0.74 0.36 1.427 0.508l0.7 0.16c0.42 0.089 0.713 0.2 0.907 0.307 0.187 0.122 0.287 0.291 0.287 0.51 0 0.377-0.193 0.637-0.58 0.765l-0.020 0.011h-1.473c-0.191-0.069-0.34-0.169-0.46-0.3-0.12-0.149-0.2-0.367-0.24-0.675h-1.32c0 0.377 0.069 0.697 0.22 0.987h-1.12c0.127-0.26 0.2-0.549 0.2-0.878 0-0.587-0.2-1.033-0.591-1.344-0.249-0.198-0.627-0.357-1.125-0.478l-1.147-0.268c-0.44-0.093-0.727-0.187-0.867-0.267-0.207-0.12-0.307-0.3-0.307-0.527 0-0.253 0.107-0.453 0.313-0.593 0.22-0.14 0.5-0.207 0.86-0.207 0.327 0 0.587 0.060 0.807 0.173 0.329 0.171 0.5 0.46 0.527 0.858h1.333c-0.020-0.697-0.277-1.235-0.767-1.603-0.496-0.367-1.083-0.557-1.78-0.557-0.837 0-1.463 0.2-1.902 0.587-0.427 0.389-0.647 0.887-0.647 1.473 0 0.647 0.22 1.125 0.667 1.433 0.268 0.18 0.747 0.349 1.433 0.507l0.697 0.16c0.407 0.090 0.707 0.19 0.907 0.31 0.187 0.12 0.287 0.287 0.287 0.507 0 0.38-0.2 0.627-0.587 0.767h-1.493c-0.189-0.071-0.347-0.171-0.46-0.31-0.12-0.147-0.207-0.376-0.247-0.676h-1.345c0 0.372 0.070 0.7 0.213 0.987h-1.393c0.22-0.347 0.369-0.747 0.442-1.193h-1.369c-0.093 0.34-0.208 0.599-0.35 0.767-0.173 0.22-0.4 0.36-0.68 0.43h-0.818c-0.3-0.070-0.558-0.239-0.767-0.507-0.309-0.372-0.459-0.929-0.459-1.667 0-0.747 0.153-1.313 0.44-1.72 0.3-0.409 0.687-0.607 1.193-0.607 0.5 0 0.867 0.14 1.127 0.429 0.14 0.16 0.26 0.4 0.347 0.717h1.387c-0.020-0.412-0.173-0.827-0.457-1.24-0.515-0.733-1.329-1.1-2.443-1.1-0.773 0-1.423 0.24-1.94 0.707zM15.949 13.376v-1.036h-0.344c-0.023-0.398-0.2-0.681-0.522-0.849-0.209-0.109-0.478-0.165-0.795-0.165-0.36 0-0.637 0.073-0.847 0.215-0.208 0.143-0.319 0.345-0.319 0.601 0 0.237 0.111 0.413 0.318 0.53 0.147 0.070 0.433 0.169 0.873 0.269l1.147 0.273c0.2 0.040 0.373 0.1 0.533 0.153z"></path>
</svg>
