<!-- Generated by IcoMoon.io -->
<svg version="1.1" xmlns="http://www.w3.org/2000/svg" width="16" height="16" viewBox="0 0 16 16">
<title>curl</title>
<path d="M14.82 3.135c-0.357 0-0.645-0.289-0.645-0.645s0.289-0.645 0.645-0.645 0.645 0.289 0.645 0.645c0.001 0.356-0.289 0.645-0.645 0.645zM8.415 14.155c-0.357 0-0.645-0.289-0.645-0.645s0.289-0.645 0.645-0.645 0.645 0.289 0.645 0.645c-0.001 0.355-0.289 0.645-0.645 0.645zM14.82 1.309c-0.652 0-1.181 0.529-1.181 1.181 0 0.139 0.035 0.269 0.079 0.393l-5.539 9.494c-0.535 0.112-0.945 0.565-0.945 1.133 0 0.652 0.529 1.181 1.181 1.181s1.18-0.529 1.18-1.181c0-0.131-0.035-0.251-0.074-0.369l5.567-9.525c0.519-0.125 0.913-0.569 0.913-1.127-0.001-0.651-0.529-1.18-1.181-1.18zM9.989 3.135c-0.357 0-0.645-0.289-0.645-0.645s0.289-0.645 0.645-0.645 0.645 0.289 0.645 0.645-0.289 0.645-0.645 0.645zM3.583 14.155c-0.356 0-0.645-0.289-0.645-0.645s0.289-0.645 0.645-0.645c0.357 0 0.645 0.289 0.645 0.645s-0.289 0.645-0.645 0.645zM9.989 1.309c-0.653 0-1.181 0.529-1.181 1.181 0 0.139 0.035 0.269 0.079 0.393l-5.539 9.494c-0.536 0.112-0.946 0.565-0.946 1.133 0 0.652 0.529 1.181 1.181 1.181s1.181-0.529 1.181-1.181c0-0.131-0.035-0.251-0.074-0.369l5.567-9.525c0.519-0.125 0.913-0.569 0.913-1.127-0.001-0.651-0.529-1.18-1.181-1.18zM1.166 5.109c0.356 0 0.645 0.289 0.645 0.645s-0.289 0.645-0.645 0.645-0.645-0.288-0.645-0.644 0.289-0.645 0.645-0.645zM1.166 4.589c-0.643 0-1.165 0.523-1.165 1.165s0.523 1.165 1.165 1.165 1.165-0.523 1.165-1.165-0.523-1.165-1.165-1.165zM1.166 9.235c0.356 0 0.645 0.289 0.645 0.645s-0.289 0.645-0.645 0.645-0.645-0.289-0.645-0.645 0.289-0.645 0.645-0.645zM1.166 8.715c-0.643 0-1.165 0.523-1.165 1.165s0.523 1.165 1.165 1.165 1.165-0.523 1.165-1.165-0.523-1.165-1.165-1.165z"></path>
</svg>
