<!-- Generated by IcoMoon.io -->
<svg version="1.1" xmlns="http://www.w3.org/2000/svg" width="16" height="16" viewBox="0 0 16 16">
<title>dailymotion</title>
<path fill="#0066dc" d="M9.379 7.542c-1.169 0-2.069 0.951-2.069 2.073 0 1.169 0.9 2.057 2.17 2.057l-0.011 0.001c1.060 0 1.95-0.873 1.95-2.027 0-1.2-0.891-2.105-2.040-2.105zM0 0v16h16v-16zM13.795 13.871h-2.384v-0.94c-0.733 0.72-1.482 0.98-2.477 0.98-1.015 0-1.888-0.33-2.62-0.99-0.965-0.85-1.465-1.98-1.465-3.291 0-1.2 0.467-2.276 1.34-3.116 0.78-0.764 1.73-1.153 2.79-1.153 1.013 0 1.793 0.342 2.353 1.060v-3.65l2.462-0.509z"></path>
</svg>
