<!-- Generated by IcoMoon.io -->
<svg version="1.1" xmlns="http://www.w3.org/2000/svg" width="16" height="16" viewBox="0 0 16 16">
<title>dart</title>
<path fill="#0175c2" d="M2.737 2.737c0 0 3.369-1.683 5.053-2.526 0.265-0.133 0.577-0.212 0.908-0.212 0.028 0 0.056 0.001 0.084 0.002l-0.004-0c0.511 0.031 1.118 0.525 1.118 0.525l6.105 6.106v6.526h-2.842v2.842h-6.632l-6-6c-0.324-0.333-0.526-0.803-0.526-1.263 0-0.213 0.12-0.545 0.211-0.737zM3.189 3.189v7.858c0.001 0.362 0.014 0.683 0.332 1.005l3.281 3.281h5.689v-2.842zM11.226 2.737c-0.599-0.597-1.206-1.187-1.827-1.762-0.201-0.178-0.378-0.312-0.713-0.308-0.247 0.009-0.58 0.13-0.58 0.13l-3.879 1.939z"></path>
</svg>
