<!-- Generated by IcoMoon.io -->
<svg version="1.1" xmlns="http://www.w3.org/2000/svg" width="16" height="16" viewBox="0 0 16 16">
<title>dashlane</title>
<path fill="#007c97" d="M10.42 6.693c-0.313-0.262-0.575-0.68-0.575-1.099 0-0.157 0.052-0.418 0.105-0.575 0-0.104 0.052-0.104 0.105-0.157 0.471-0.105 0.68-0.105 0.732-0.157 0.105-0.209 0.157-0.471 0.157-0.471l-3.66-1.151c0 0 0.209 0.575 0.366 0.628l1.673 0.732c0 0-0.837 0.209-1.307 0.313l-0.105 0.053c0 0 0.157 0.313 0.471 0.471 0.313-0.105 0.889-0.209 0.889-0.209-0.784 1.569-2.457 2.614-4.235 2.614h-0.627c-0.21 0-0.262 0.157-0.105 0.262 0.313 0.157 0.575 0.47 0.68 0.784 0.052 0.209-0.053 0.367-0.209 0.471-0.313 0.261-1.15 0.837-1.935 1.464-0.101-0.15-0.189-0.323-0.256-0.506l-0.005-0.017c-0.732-1.621-1.098-3.922-1.098-6.955v-0.105l6.275-2.039 6.274 2.039v0.053c0 1.098-0.052 2.144-0.157 3.033v0.105h1.046v-0.053c0.105-0.941 0.157-1.935 0.157-3.033v-0.836l-7.32-2.353-7.32 2.353v0.784c0 3.189 0.365 5.595 1.15 7.373 0.105 0.261 0.261 0.523 0.366 0.732-0.627 0.471-1.151 0.837-1.151 0.837l0.313 0.523 4.027-2.876c2.047-1.408 4.579-2.248 7.307-2.248 0.005 0 0.009 0 0.014 0h1.255c-0.157 0.993-0.419 1.882-0.732 2.614-0.367 0.837-0.837 1.569-1.464 2.301-0.471 0.575-1.046 1.046-1.673 1.464-1.046 0.732-1.987 1.046-2.039 1.098-0.105-0.052-0.993-0.366-2.039-1.098-0.68-0.471-1.255-0.941-1.725-1.516-0.157-0.157-0.313-0.367-0.471-0.575l-0.052-0.052-0.837 0.627 0.052 0.053c0.209 0.261 0.367 0.47 0.523 0.679 0.523 0.627 1.15 1.15 1.83 1.621 1.15 0.785 2.143 1.151 2.3 1.203 0 0 0.209 0.053 0.262 0.105h0.105c0.105 0 0.261-0.105 0.261-0.105 0.209-0.052 1.15-0.418 2.3-1.203 0.687-0.486 1.286-1.019 1.822-1.611l0.008-0.009c0.641-0.736 1.184-1.581 1.595-2.498l0.026-0.064c0.397-0.882 0.691-1.906 0.831-2.978l0.006-0.056h0.889c0.052-0.209 0.104-0.575 0.104-0.575h-3.241c-1.203-0.052-1.621 0-1.935-0.209z"></path>
</svg>
