<!-- Generated by IcoMoon.io -->
<svg version="1.1" xmlns="http://www.w3.org/2000/svg" width="16" height="16" viewBox="0 0 16 16">
<title>datacamp</title>
<path fill="#3ac" d="M9.437 3.719l-0.129 0.179c-0.16-0.165-0.546-0.339-0.573-0.352l0.103-0.274-0.009-0.007c-0.016-0.011-0.033-0.019-0.052-0.025-0.582-0.219-1.117-0.222-1.845-0.011l0.345 0.921h-0.007c-0.483 0.157-0.843 0.592-0.882 0.641l-0.477-0.341c-0.263 0.348-0.45 0.977-0.45 1.461h-0.609c0.005 0.437 0.084 1.196 0.6 1.825l0.455-0.347c0.415 0.611 1.283 1.054 2.010 0.979l-0.011-1.271h0.009v0.017c0.182 0.053 0.562-0.062 0.728-0.193l0.345 0.461c0.362-0.123 0.643-0.825 0.672-0.901l0.549 0.188c0.147-0.509 0.152-1.048 0.015-1.559l-0.001 0.001v-0.006c0.001 0.001 0.001 0.003 0.001 0.005l0.196-0.071c-0.145-0.55-0.497-1.023-0.982-1.32zM8.112 6.172c-0.227 0.095-0.49 0.042-0.663-0.133-0.174-0.177-0.226-0.44-0.132-0.669s0.317-0.379 0.563-0.379c0 0 0 0 0 0h0.001c0 0 0 0 0 0 0.337 0.002 0.609 0.277 0.608 0.613-0.001 0.249-0.149 0.473-0.377 0.568zM15.108 2.461l-7.015-2.433c-0.108-0.038-0.225-0.038-0.333 0l-6.866 2.435c-0.223 0.079-0.362 0.301-0.337 0.537l0.969 9.228c0.017 0.165 0.113 0.313 0.258 0.394l5.974 3.315c0.075 0.041 0.159 0.063 0.244 0.063h0.001c0.087 0 0.173-0.023 0.249-0.066l5.826-3.315c0.139-0.079 0.233-0.222 0.253-0.383l1.113-9.228c0.028-0.239-0.111-0.466-0.336-0.546zM11.176 8.611c0 0-0.085 0.096 0.034 0.297 0.119 0.199 0.153 0.199-0.068 0.408 0.171 0.148 0.171 0.271-0.085 0.387 0.006 0.412 0.089 0.781-0.434 0.812s-1.187-0.321-1.359 0.626c-0.173 0.946-0.128 0.592-0.179 0.829h-3.697c0.46-1.268 0.853-2.667 0-3.355s-2.249-3.572 0.504-5.050c0.31-0.165 0.641-0.29 0.983-0.369l-0.116-0.309 0.036-0.014c0.011-0.005 1.183-0.456 2.195 0.041l0.033 0.017-0.122 0.277c0.653 0.147 1.139 0.388 1.32 0.501 0.409 0.255 0.953 0.66 1.005 1.044s-0.443 0.191-0.443 0.191c0.307 0.745 0.323 1.279 0.187 1.845v0.001c-0.136 0.565 0.63 1.15 0.613 1.561-0.050 0.191-0.407 0.261-0.407 0.261z"></path>
</svg>
