<!-- Generated by IcoMoon.io -->
<svg version="1.1" xmlns="http://www.w3.org/2000/svg" width="16" height="16" viewBox="0 0 16 16">
<title>dazn</title>
<path fill="#f8f8f5" d="M9.849 5.527l0.515-1.731 0.527 1.731zM12.415 7.039l-1.35-4.085c-0.030-0.090-0.065-0.149-0.103-0.177-0.039-0.027-0.101-0.042-0.187-0.042h-0.747c-0.007-0.001-0.015-0.001-0.023-0.001-0.061 0-0.119 0.017-0.168 0.047l0.001-0.001c-0.040 0.030-0.073 0.088-0.099 0.174l-1.363 4.085c-0.017 0.021-0.025 0.064-0.025 0.128 0 0.099 0.060 0.149 0.18 0.149h0.56c0.051 0 0.093-0.002 0.125-0.007 0.030-0.003 0.056-0.014 0.078-0.032l-0 0c0.022-0.021 0.039-0.047 0.051-0.076l0.001-0.001c0.015-0.034 0.031-0.079 0.048-0.135l0.212-0.714h1.537l0.218 0.701c0.017 0.060 0.034 0.107 0.051 0.142 0.015 0.031 0.034 0.058 0.058 0.080l0 0c0.021 0.019 0.047 0.031 0.076 0.035h0.001c0.030 0.004 0.069 0.007 0.115 0.007h0.598c0.12 0 0.18-0.049 0.18-0.149 0-0.002 0-0.005 0-0.008 0-0.018-0.001-0.036-0.004-0.054l0 0.002c-0.008-0.029-0.016-0.053-0.025-0.076l0.001 0.004zM11.752 8.684h-0.431c-0.112 0-0.186 0.016-0.222 0.048s-0.055 0.098-0.055 0.197v2.425l-1.273-2.431c-0.051-0.103-0.101-0.169-0.151-0.197s-0.136-0.042-0.26-0.042h-0.399c-0.111 0-0.185 0.017-0.221 0.049s-0.055 0.098-0.055 0.196v4.092c0 0.099 0.017 0.164 0.051 0.196s0.107 0.048 0.219 0.048h0.437c0.111 0 0.185-0.016 0.221-0.048s0.055-0.097 0.055-0.196v-2.432l1.273 2.438c0.051 0.103 0.101 0.169 0.151 0.197 0.049 0.028 0.136 0.041 0.26 0.041h0.399c0.111 0 0.185-0.016 0.222-0.048s0.055-0.097 0.055-0.196v-4.092c0-0.099-0.019-0.164-0.055-0.196s-0.111-0.049-0.222-0.049zM13.887 8.297l1.11 1.11v5.59h-13.994v-5.59l1.109-1.109c0.076-0.076 0.123-0.181 0.123-0.297s-0.047-0.221-0.123-0.297v0l-1.109-1.11v-5.591h13.994v5.589l-1.11 1.111c-0.076 0.076-0.122 0.181-0.122 0.296s0.047 0.221 0.123 0.297v0zM16 0h-16v7.075l0.925 0.925-0.925 0.925v7.075h16v-7.075l-0.925-0.925 0.925-0.925zM7.113 12.313h-1.807l1.903-2.676c0.023-0.030 0.042-0.064 0.057-0.1l0.001-0.003c0.008-0.025 0.013-0.054 0.013-0.084 0-0.002-0-0.004-0-0.006v0-0.515c0-0.099-0.019-0.164-0.055-0.196s-0.111-0.049-0.223-0.049h-2.749c-0.099 0-0.163 0.019-0.193 0.055s-0.045 0.113-0.045 0.229v0.387c0 0.115 0.015 0.191 0.045 0.227s0.094 0.055 0.193 0.055h1.697l-1.878 2.676c-0.042 0.048-0.069 0.111-0.071 0.179l-0 0.001v0.528c0 0.099 0.018 0.163 0.055 0.196s0.111 0.048 0.223 0.048h2.833c0.099 0 0.163-0.018 0.193-0.054s0.045-0.113 0.045-0.229v-0.386c0-0.115-0.015-0.191-0.045-0.228s-0.095-0.055-0.193-0.055zM6.272 5.489c0 0.176-0.011 0.323-0.035 0.441s-0.062 0.213-0.116 0.287c-0.053 0.071-0.125 0.125-0.209 0.153l-0.003 0.001c-0.090 0.029-0.194 0.046-0.301 0.046-0.008 0-0.017-0-0.025-0l0.001 0h-0.527v-2.78h0.527c0.244 0 0.42 0.073 0.527 0.216s0.161 0.381 0.161 0.711zM7.192 3.629c-0.15-0.305-0.355-0.53-0.614-0.675-0.26-0.146-0.587-0.219-0.98-0.219h-1.319c-0.111 0-0.185 0.016-0.222 0.048s-0.055 0.098-0.055 0.196v4.092c0 0.099 0.019 0.164 0.055 0.197s0.111 0.048 0.222 0.048h1.479c0.699 0 1.177-0.298 1.433-0.895 0.060-0.137 0.102-0.275 0.125-0.415 0.023-0.146 0.036-0.315 0.036-0.486 0-0.016-0-0.031-0-0.047l0 0.002v-0.869c0-0.245-0.012-0.437-0.036-0.579-0.025-0.153-0.070-0.29-0.133-0.417l0.004 0.009z"></path>
</svg>
