<!-- Generated by IcoMoon.io -->
<svg version="1.1" xmlns="http://www.w3.org/2000/svg" width="16" height="16" viewBox="0 0 16 16">
<title>dblp</title>
<path fill="#004f9f" d="M14.2 9.72l-1.633-6.107c0 0-0.1-0.393-0.48-0.22l-3.733 1.733 0.573 2.133 0.727 2.72 0.007 0.040c0.033 0.313-0.273 0.527-0.273 0.527l-1.253 0.58 0.333 1.26 0.027 0.067c0.047 0.113 0.187 0.4 0.54 0.607l4.633 2.847c0 0 0.453 0.273 0.347-0.113l-1.32-4.933 1.24-0.573c0 0 0.373-0.173 0.267-0.567zM9.173 9.78l-0.007-0.040-0.753-2.813-0.44-1.633-0.447-1.66v-0.027c0 0-0.107-0.393-0.56-0.667l-4.633-2.847c0 0-0.453-0.273-0.347 0.113l1.327 4.947-1.247 0.58c0 0-0.373 0.173-0.267 0.567l1.633 6.107c0 0 0.107 0.393 0.48 0.22l4.98-2.32c0 0 0.347-0.16 0.28-0.527z"></path>
</svg>
