<!-- Generated by IcoMoon.io -->
<svg version="1.1" xmlns="http://www.w3.org/2000/svg" width="16" height="16" viewBox="0 0 16 16">
<title>debian</title>
<path fill="#a81d33" d="M9.253 8.453c-0.267 0 0.053 0.133 0.4 0.187 0.093-0.067 0.18-0.147 0.26-0.22-0.129 0.030-0.277 0.047-0.43 0.047-0.081 0-0.161-0.005-0.24-0.014l0.009 0.001zM10.68 8.1c0.153-0.22 0.267-0.46 0.313-0.707-0.040 0.18-0.133 0.333-0.22 0.487-0.5 0.313-0.047-0.18 0-0.373-0.533 0.673-0.073 0.4-0.093 0.593zM11.2 6.733c0.033-0.48-0.093-0.333-0.133-0.147 0.047 0.027 0.087 0.333 0.133 0.147zM8.253 0.207c0.133 0.027 0.3 0.047 0.28 0.080 0.153-0.033 0.187-0.067-0.287-0.080zM8.533 0.287l-0.1 0.020 0.093-0.007v-0.013zM12.947 6.913c0.013 0.427-0.133 0.633-0.253 1l-0.233 0.12c-0.187 0.36 0.020 0.233-0.113 0.52-0.293 0.26-0.893 0.813-1.080 0.867-0.133 0 0.093-0.167 0.127-0.227-0.393 0.267-0.32 0.4-0.913 0.567l-0.020-0.040c-1.48 0.693-3.533-0.68-3.5-2.56-0.020 0.113-0.047 0.087-0.080 0.133-0.005-0.060-0.008-0.13-0.008-0.2 0-0.934 0.542-1.742 1.328-2.127l0.014-0.006c0.293-0.151 0.639-0.239 1.006-0.239 0.569 0 1.088 0.212 1.483 0.561l-0.002-0.002c-0.411-0.53-1.048-0.867-1.764-0.867-0.018 0-0.035 0-0.052 0.001l0.003-0c-0.787 0.007-1.52 0.507-1.767 1.047-0.4 0.253-0.447 0.98-0.62 1.107-0.24 1.733 0.44 2.48 1.587 3.36 0.18 0.127 0.053 0.14 0.080 0.233-0.401-0.193-0.74-0.453-1.017-0.77l-0.003-0.004c0.153 0.22 0.313 0.44 0.533 0.607-0.367-0.12-0.847-0.867-0.987-0.9 0.62 1.107 2.52 1.947 3.507 1.533-0.088 0.007-0.19 0.010-0.292 0.010-0.451 0-0.884-0.072-1.29-0.205l0.029 0.008c-0.22-0.107-0.513-0.34-0.467-0.38 0.443 0.191 0.958 0.302 1.499 0.302 0.926 0 1.776-0.325 2.441-0.868l-0.007 0.006c0.293-0.233 0.62-0.627 0.713-0.633-0.133 0.213 0.027 0.107-0.080 0.293 0.293-0.48-0.133-0.2 0.307-0.827l0.16 0.22c-0.060-0.4 0.493-0.88 0.44-1.507 0.127-0.2 0.133 0.2 0 0.647 0.193-0.493 0.053-0.567 0.1-0.973 0.053 0.133 0.12 0.28 0.153 0.42-0.12-0.467 0.133-0.8 0.187-1.067-0.060-0.033-0.187 0.2-0.213-0.353 0-0.247 0.067-0.133 0.093-0.187-0.053-0.033-0.173-0.213-0.253-0.573 0.053-0.087 0.147 0.22 0.227 0.227-0.053-0.28-0.133-0.5-0.133-0.72-0.227-0.453-0.080 0.067-0.267-0.2-0.227-0.727 0.2-0.167 0.227-0.493 0.36 0.513 0.56 1.307 0.653 1.64-0.067-0.4-0.187-0.8-0.327-1.173 0.107 0.047-0.173-0.827 0.14-0.247-0.43-1.267-1.295-2.29-2.413-2.913l-0.027-0.014c0.12 0.113 0.28 0.26 0.22 0.28-0.5-0.3-0.413-0.32-0.487-0.447-0.407-0.167-0.433 0.013-0.707 0-0.773-0.413-0.92-0.367-1.627-0.633l0.033 0.153c-0.513-0.167-0.6 0.067-1.153 0-0.033-0.027 0.18-0.093 0.353-0.12-0.493 0.067-0.467-0.093-0.953 0.020 0.113-0.087 0.24-0.14 0.367-0.213-0.4 0.027-0.96 0.233-0.787 0.047-0.66 0.3-1.827 0.713-2.48 1.327l-0.020-0.147c-0.3 0.36-1.307 1.073-1.387 1.54l-0.087 0.020c-0.153 0.267-0.253 0.567-0.38 0.84-0.2 0.347-0.3 0.133-0.267 0.187-0.4 0.813-0.6 1.5-0.773 2.067 0.12 0.18 0 1.1 0.047 1.84-0.2 3.64 2.56 7.18 5.573 8 0.447 0.153 1.1 0.153 1.66 0.167-0.66-0.187-0.747-0.1-1.387-0.327-0.467-0.213-0.567-0.467-0.893-0.753l0.133 0.233c-0.647-0.227-0.38-0.28-0.907-0.447l0.14-0.18c-0.207-0.020-0.553-0.353-0.647-0.54l-0.227 0.007c-0.273-0.333-0.42-0.58-0.407-0.773l-0.073 0.133c-0.087-0.14-1.013-1.267-0.533-1.007-0.087-0.080-0.207-0.133-0.333-0.367l0.093-0.113c-0.233-0.293-0.427-0.68-0.413-0.8 0.133 0.16 0.213 0.2 0.3 0.22-0.587-1.447-0.62-0.080-1.067-1.467l0.1-0.013c-0.067-0.107-0.12-0.227-0.173-0.34l0.040-0.4c-0.42-0.493-0.12-2.067-0.060-2.933 0.047-0.36 0.353-0.733 0.587-1.32l-0.14-0.027c0.267-0.473 1.56-1.913 2.16-1.84 0.287-0.367-0.060 0-0.12-0.093 0.64-0.66 0.84-0.467 1.267-0.587 0.467-0.267-0.4 0.107-0.18-0.1 0.8-0.2 0.567-0.467 1.613-0.567 0.107 0.067-0.26 0.093-0.347 0.173 0.667-0.327 2.1-0.247 3.040 0.18 1.087 0.513 2.307 2.007 2.353 3.42l0.053 0.013c-0.027 0.567 0.087 1.213-0.113 1.807l0.133-0.28zM6.36 8.82l-0.033 0.187c0.173 0.233 0.313 0.487 0.533 0.673-0.16-0.313-0.28-0.44-0.5-0.867zM6.773 8.8c-0.093-0.1-0.147-0.227-0.207-0.347 0.053 0.213 0.173 0.4 0.287 0.587l-0.080-0.24zM14.067 7.213l-0.047 0.1c-0.067 0.507-0.227 1.007-0.46 1.473 0.267-0.487 0.433-1.027 0.5-1.573zM8.3 0.080c0.18-0.067 0.44-0.033 0.633-0.080-0.247 0.020-0.493 0.033-0.733 0.067l0.1 0.013zM2.007 3.427c0.047 0.38-0.287 0.533 0.073 0.28 0.2-0.44-0.073-0.12-0.067-0.28zM1.587 5.2c0.080-0.26 0.1-0.413 0.133-0.56-0.233 0.293-0.113 0.353-0.133 0.553z"></path>
</svg>
