<!-- Generated by IcoMoon.io -->
<svg version="1.1" xmlns="http://www.w3.org/2000/svg" width="16" height="16" viewBox="0 0 16 16">
<title>deepin</title>
<path fill="#007cff" d="M10.736 0.464c-1.149-0.42-2.327-0.533-3.47-0.427-1.325 0.105-1.972 0.515-1.933 0.441-2.167 0.773-4 2.438-4.848 4.771-1.511 4.156 0.629 8.752 4.779 10.265 4.152 1.513 8.741-0.63 10.252-4.786s-0.629-8.751-4.779-10.265zM5.537 14.763c-0.479-0.179-0.89-0.382-1.276-0.62l0.031 0.018c1.933 0.149 4.457-0.297 6.159-1.889 0 0 3.244-2.592 0.897-6.846 0 0 0.379 1.715-0.104 3.125 0 0-0.46 1.918-2.505 2.475-3.011 0.821-6.443-1.287-7.877-2.309-0.108-1.049-0.012-2.133 0.373-3.192 0.57-1.568 1.642-2.792 2.951-3.613-0.327 2.291-0.068 4.4 0.304 5.283 0.499 1.185 1.367 2.567 3.060 2.743 1.693 0.178 2.627-1.407 2.627-1.407 0.869-1.32 1.005-3.215 0.992-3.261s-0.231-0.171-0.231-0.171c-0.585 2.366-1.549 3.156-1.549 3.156-1.52 1.467-2.597 0.45-2.597 0.45-1.157-1.243-0.347-3.263-0.347-3.263 0.453-1.376 1.773-3.389 3.27-4.413 0.249 0.061 0.5 0.1 0.747 0.189 0.917 0.341 1.705 0.83 2.375 1.445l-0.005-0.005c-1.094 0.399-2.861 1.243-2.861 1.243-2.801 1.18-2.99 2.964-2.99 2.964-0.29 1.839 1.169 1.060 1.169 1.060 1.501-0.731 2.239-3.011 2.239-3.011-0.469-0.089-0.838 0.053-0.838 0.053-0.599 1.48-1.822 2.088-1.822 2.088-0.481 0.255-0.593-0.195-0.593-0.195-0.081-0.337 0.348-0.395 0.348-0.395 0.667-0.259 1.093-0.959 1.189-1.245s0.275-0.309 0.275-0.309c0.506-0.166 1.098-0.291 1.709-0.354l0.037-0.003c1.133-0.139 2.869 0.401 2.869 0.401 0.389 0.157 0.763 0.273 1.094 0.367 0.636 1.589 0.737 3.399 0.107 5.133-1.359 3.74-5.491 5.669-9.227 4.308z"></path>
</svg>
