<!-- Generated by IcoMoon.io -->
<svg version="1.1" xmlns="http://www.w3.org/2000/svg" width="16" height="16" viewBox="0 0 16 16">
<title>deliveroo</title>
<path fill="#00ccbc" d="M11.241 0l-0.751 7.056-1.283-5.949-4.022 0.844 1.283 5.948-5.797 1.215 1.023 4.751 10.194 2.135 2.332-5.163 1.109-10.413zM7.593 9.073c0.003-0 0.006-0 0.009-0 0.075 0 0.145 0.016 0.209 0.045l-0.003-0.001c0.139 0.062 0.373 0.193 0.42 0.395 0.069 0.289 0.003 0.533-0.208 0.723v0.001c-0.21 0.189-0.488 0.172-0.783 0.075s-0.425-0.448-0.313-0.873c0.083-0.315 0.473-0.363 0.669-0.365zM10.355 9.439c0.298-0.008 0.555 0.124 0.7 0.362s0.071 0.5-0.081 0.762h-0.001c-0.153 0.261-0.553 0.297-0.948 0.107-0.266-0.129-0.265-0.456-0.235-0.655 0.017-0.114 0.062-0.216 0.13-0.299l-0.001 0.001c0.095-0.118 0.254-0.272 0.437-0.277z"></path>
</svg>
