<!-- Generated by IcoMoon.io -->
<svg version="1.1" xmlns="http://www.w3.org/2000/svg" width="16" height="16" viewBox="0 0 16 16">
<title>dell</title>
<path fill="#007db8" d="M11.975 9.733v-3.517h0.815v2.803h1.427v0.713zM5.453 7.541l1.987-1.528c0.187 0.152 0.373 0.305 0.561 0.458l-1.885 1.427 0.407 0.357 1.885-1.477c0.187 0.152 0.373 0.305 0.561 0.459-0.215 0.183-0.829 0.667-1.445 1.147l-0.44 0.33 0.407 0.357 1.887-1.53-0.001-1.324h0.815v2.803h1.477v0.713h-2.241v-1.325c-0.663 0.509-1.325 1.019-1.987 1.528l-1.987-1.528c-0.096 0.486-0.435 0.907-0.875 1.129-0.19 0.098-0.398 0.16-0.61 0.184-0.122 0.015-0.245 0.011-0.367 0.011h-1.257v-3.516h1.449c0.396 0.004 0.759 0.143 1.045 0.374l-0.003-0.003c0.303 0.24 0.519 0.581 0.618 0.953zM3.109 6.93v2.14l0.635-0.001c0.28-0.009 0.527-0.143 0.689-0.347l0.001-0.002c0.158-0.196 0.253-0.448 0.253-0.723 0-0.196-0.049-0.381-0.135-0.543l0.003 0.006c-0.133-0.254-0.365-0.44-0.644-0.509l-0.007-0.001c-0.111-0.027-0.225-0.020-0.338-0.021zM7.88 0h0.225c1.321 0.018 2.559 0.354 3.646 0.936l-0.043-0.021c1.105 0.589 2.024 1.387 2.735 2.349l0.016 0.022c0.941 1.27 1.516 2.862 1.541 4.587l0 0.006v0.24c-0.027 2.076-0.843 3.956-2.161 5.36l0.004-0.004c-1.437 1.532-3.464 2.495-5.716 2.525l-0.005 0h-0.241c-0.998-0.016-1.945-0.211-2.817-0.556l0.054 0.019c-1.115-0.441-2.065-1.083-2.847-1.889l-0.002-0.002c-0.835-0.858-1.481-1.904-1.868-3.069l-0.016-0.057c-0.231-0.693-0.37-1.491-0.384-2.319l-0-0.007v-0.241c0.028-1.592 0.52-3.064 1.346-4.292l-0.018 0.028c0.791-1.182 1.85-2.126 3.094-2.76l0.046-0.021c0.994-0.508 2.165-0.814 3.405-0.835l0.007-0zM7.778 0.82c-1.634 0.048-3.122 0.637-4.3 1.594l0.013-0.010c-0.98 0.793-1.739 1.821-2.196 3l-0.017 0.049c-0.293 0.756-0.463 1.632-0.463 2.547 0 1.036 0.218 2.021 0.61 2.913l-0.018-0.046c0.53 1.2 1.337 2.195 2.344 2.933l0.020 0.014c0.895 0.659 1.977 1.119 3.152 1.293l0.039 0.005c0.971 0.139 1.97 0.083 2.917-0.173 1.344-0.37 2.49-1.082 3.379-2.037l0.004-0.004c0.886-0.949 1.518-2.145 1.783-3.474l0.008-0.046c0.083-0.414 0.131-0.889 0.131-1.376 0-0.62-0.078-1.222-0.223-1.796l0.011 0.050c-0.616-2.41-2.391-4.301-4.681-5.069l-0.051-0.015c-0.665-0.224-1.431-0.354-2.227-0.354-0.083 0-0.165 0.001-0.247 0.004l0.012-0z"></path>
</svg>
