<!-- Generated by IcoMoon.io -->
<svg version="1.1" xmlns="http://www.w3.org/2000/svg" width="16" height="16" viewBox="0 0 16 16">
<title>deno</title>
<path d="M7.371 0.004c-0.037 0.004-0.157 0.018-0.265 0.027-1.539 0.161-3.054 0.813-4.289 1.847-0.335 0.296-0.641 0.602-0.927 0.925l-0.010 0.011c-1.023 1.222-1.621 2.593-1.841 4.217-0.049 0.36-0.049 1.576 0 1.936 0.221 1.623 0.819 2.995 1.841 4.217 0.296 0.335 0.602 0.641 0.925 0.927l0.011 0.010c1.222 1.023 2.593 1.621 4.217 1.841 0.36 0.049 1.576 0.049 1.936 0 1.623-0.221 2.995-0.819 4.217-1.841 0.335-0.296 0.641-0.602 0.927-0.925l0.010-0.011c1.023-1.222 1.621-2.593 1.841-4.217 0.049-0.36 0.049-1.576 0-1.936-0.221-1.623-0.819-2.995-1.841-4.217-0.296-0.335-0.602-0.641-0.925-0.927l-0.011-0.010c-1.218-1.019-2.603-1.625-4.205-1.84-0.173-0.023-0.425-0.033-0.891-0.037-0.088-0.002-0.192-0.003-0.296-0.003-0.149 0-0.297 0.002-0.445 0.006l0.022-0zM7.469 0.854c0 0.23 0.016 0.73 0.037 1.204 0.012 0.232 0.025 0.565 0.031 0.738 0.021 0.614 0.087 2.225 0.097 2.369l0.010 0.143-0.089-0.010c-0.037-0.002-0.072-0.010-0.104-0.022l0.002 0.001c-0.015-0.090-0.025-0.194-0.027-0.301l-0-0.002c-0.023-0.251-0.081-1.579-0.135-2.909l-0.029-0.906-0.012-0.437 0.055-0.008c0.029-0.004 0.079-0.010 0.11-0.012l0.053-0.002zM9.352 0.807c0.002 0.002 0.008 0.596 0.014 1.32 0.008 0.726 0.018 1.377 0.023 1.448 0.006 0.073 0.004 0.136-0.006 0.14-0.016 0.003-0.034 0.005-0.053 0.005s-0.037-0.002-0.055-0.005l0.002 0-0.091-0.008-0.014-0.573-0.021-0.781c-0.016-0.348-0.029-1.531-0.018-1.56 0.008-0.021 0.029-0.023 0.112-0.010 0.057 0.012 0.104 0.021 0.107 0.024zM4.801 1.466c0.012 0.018 0.104 1.102 0.219 2.521 0.037 0.482 0.075 0.923 0.081 0.978 0.010 0.101 0.008 0.104-0.055 0.143-0.023 0.015-0.049 0.029-0.076 0.039l-0.002 0.001c-0.006 0-0.018-0.051-0.023-0.114-0.027-0.256-0.134-1.491-0.209-2.385-0.043-0.525-0.083-0.995-0.089-1.047-0.010-0.087-0.008-0.095 0.043-0.122 0.063-0.033 0.099-0.039 0.112-0.014zM10.217 1.861c0.055 0.020 0.061 0.029 0.073 0.142 0.020 0.197 0.014 1.137-0.008 1.137-0.057 0-0.175-0.067-0.185-0.104-0.008-0.148-0.013-0.321-0.013-0.495 0-0.044 0-0.088 0.001-0.131l-0 0.007c0-0.639-0.008-0.602 0.132-0.555zM6.583 1.954c0 0.053 0.014 0.346 0.029 0.655l0.041 0.87c0.014 0.343 0.018 0.331-0.114 0.339-0.065 0.002-0.065 0.002-0.069-0.097-0.004-0.055-0.014-0.226-0.025-0.384-0.010-0.157-0.033-0.498-0.049-0.757s-0.035-0.517-0.041-0.573c-0.012-0.099-0.010-0.102 0.043-0.122 0.036-0.013 0.078-0.020 0.122-0.021l0-0c0.063-0.002 0.063-0.002 0.063 0.090zM12.041 2.223l0.067 0.027 0.014 0.263c0.006 0.143 0.010 0.455 0.006 0.689l-0.006 0.429-0.083-0.041-0.083-0.039-0.006-0.653c-0.004-0.36-0.002-0.665 0.002-0.679 0.008-0.029 0.008-0.029 0.089 0.005zM8.449 2.481c0.012 0.012 0.039 0.966 0.041 1.45l0.002 0.291-0.093-0.014c-0.038-0.003-0.071-0.008-0.104-0.015l0.006 0.001c-0.006-0.004-0.065-1.462-0.065-1.603v-0.145l0.101 0.012c0.041 0.004 0.079 0.012 0.115 0.024l-0.003-0.001zM12.98 2.621c0.023 0.027 0.027 0.459 0.033 2.835 0.006 2.729 0.006 2.8-0.029 2.8-0.026-0.002-0.050-0.011-0.069-0.026l0 0c-0.029-0.021-0.033-0.26-0.043-2.591-0.004-1.065-0.012-2.066-0.026-3.065l0.002 0.214-0.012-0.283 0.057 0.041c0.033 0.023 0.071 0.057 0.086 0.075zM11.215 3.025c0.010 0.008 0.020 0.12 0.021 0.248 0.010 0.435 0.012 3.101 0.002 3.109-0.004 0.004-0.039-0.006-0.079-0.021l-0.071-0.029v-3.347l0.055 0.012c0.029 0.008 0.061 0.020 0.071 0.029zM5.785 3.135c0.006 0.053 0.016 0.173 0.021 0.271l0.031 0.488c0.023 0.346 0.020 0.368-0.093 0.368-0.059 0-0.067-0.006-0.075-0.065-0.020-0.116-0.089-1.084-0.079-1.1 0.046-0.027 0.1-0.045 0.157-0.053l0.002-0c0.012-0.002 0.027 0.039 0.034 0.091zM2.53 3.636l0.097 0.97c0.033 0.325 0.061 0.6 0.061 0.612 0 0.023-0.151 0.099-0.167 0.083-0.047-0.301-0.12-0.929-0.184-1.56l-0.022-0.27c0-0.047 0.151-0.246 0.171-0.224 0.006 0.004 0.025 0.179 0.045 0.389zM10.245 3.843l0.057 0.033 0.002 0.425c0.002 0.232 0.006 0.492 0.006 0.577 0.004 0.177-0.018 0.207-0.124 0.169l-0.061-0.021v-0.169c0-0.095-0.006-0.368-0.014-0.61l-0.012-0.437h0.045c0.037 0.005 0.071 0.016 0.101 0.033l-0.001-0.001zM3.394 4.606l0.13 1.417 0.067 0.728-0.077 0.077-0.075 0.077-0.014-0.155c-0.008-0.087-0.047-0.488-0.089-0.893s-0.101-0.993-0.13-1.307l-0.055-0.567 0.077-0.071c0.069-0.065 0.077-0.067 0.091-0.031 0.008 0.020 0.041 0.346 0.075 0.726zM1.92 4.845c0.043 0.387 0.157 1.419 0.256 2.29s0.191 1.712 0.209 1.869c0.016 0.157 0.043 0.395 0.059 0.531 0.027 0.23 0.027 0.246-0.004 0.269-0.047 0.035-0.067 0.031-0.067-0.010 0-0.018-0.018-0.167-0.039-0.329-0.035-0.269-0.095-0.726-0.226-1.751-0.027-0.207-0.081-0.618-0.118-0.915 0.090 0.953 0.003 0.298-0.082-0.358l-0.164-1.557c-0.035-0.267-0.057-0.506-0.051-0.531 0.014-0.053 0.13-0.238 0.142-0.226 0.004 0.006 0.043 0.327 0.085 0.717zM1.318 5.693l0.122 0.96c0.037 0.291 0.085 0.655 0.106 0.807l0.037 0.275-0.041 0.035c-0.023 0.020-0.047 0.027-0.055 0.020s-0.023-0.087-0.035-0.173-0.085-0.592-0.163-1.121l-0.14-0.964 0.045-0.134c0.013-0.050 0.032-0.094 0.057-0.134l-0.001 0.002c0.008 0 0.037 0.193 0.069 0.427zM12.12 5.435c0.027 0.027 0.031 0.149 0.031 1.053v1.021h-0.055c-0.12 0-0.118 0.029-0.126-1.088l-0.006-1.017h0.063c0.033 0 0.077 0.014 0.093 0.031zM7.813 5.787c0.445 0.067 0.832 0.191 1.216 0.387 0.248 0.128 0.366 0.217 0.641 0.48 0.409 0.391 0.661 0.734 0.897 1.218 0.344 0.705 0.478 1.328 0.647 3.001 0.077 0.749 0.177 2.109 0.199 2.666 0.006 0.161 0.020 0.427 0.031 0.59 0.021 0.346 0.047 0.299-0.258 0.447-0.423 0.205-0.83 0.346-1.367 0.478-0.657 0.161-1.082 0.213-1.731 0.215l-0.472 0.002 0.004-0.226c0-0.124 0.012-0.413 0.023-0.639 0.059-1.096 0.047-2.479-0.029-3.247-0.043-0.441-0.128-0.976-0.175-1.094-0.010-0.025 0.035-0.047 0.23-0.114 0.356-0.124 0.665-0.279 0.712-0.356 0.085-0.145-0.067-0.354-0.26-0.354-0.033 0-0.134 0.035-0.226 0.077-0.441 0.203-1.324 0.441-1.834 0.494-0.127 0.011-0.275 0.017-0.424 0.017-0.302 0-0.597-0.026-0.885-0.075l0.031 0.004c-0.207-0.037-0.577-0.177-0.885-0.337-0.356-0.185-0.575-0.431-0.639-0.722-0.035-0.157-0.025-0.472 0.020-0.649 0.049-0.195 0.187-0.478 0.313-0.643 0.561-0.738 1.718-1.377 2.904-1.601 0.216-0.037 0.465-0.059 0.719-0.059 0.211 0 0.42 0.015 0.623 0.044l-0.023-0.003zM13.883 5.848c0.071 0.029 0.079 0.037 0.079 0.104 0.004 0.537-0.008 1.765-0.018 1.816-0.002 0.018-0.104 0.020-0.147 0.004-0.027-0.010-0.031-0.116-0.031-0.984 0-0.622 0.008-0.972 0.020-0.972 0.010 0 0.055 0.014 0.098 0.032zM14.743 6.928l0.071 0.029-0.014 1.629c-0.016 2.076-0.018 2.137-0.093 2.316-0.122 0.293-0.116 0.352-0.104-0.935 0.004-0.643 0.014-1.295 0.018-1.446s0.008-0.579 0.010-0.951c0-0.449 0.006-0.673 0.020-0.673 0.012 0 0.053 0.014 0.092 0.029zM2.91 7.418c0.012 0.159 0.008 0.175-0.049 0.301l-0.063 0.134-0.023-0.197c-0.037-0.315-0.037-0.329 0.037-0.376 0.033-0.023 0.069-0.039 0.075-0.035s0.018 0.083 0.023 0.173zM1.694 8.605c0.018 0.161 0.155 1.232 0.226 1.757 0.106 0.813 0.114 0.929 0.067 0.879-0.031-0.142-0.065-0.349-0.093-0.558l-0.006-0.050c-0.307-2.121-0.305-2.107-0.279-2.123 0.053-0.035 0.071-0.016 0.085 0.095zM3.111 9.505c0.012 0.049 0.069 0.583 0.069 0.647 0 0.055-0.071 0.106-0.102 0.075-0.010-0.010-0.035-0.177-0.055-0.37l-0.049-0.451-0.012-0.099 0.069 0.079c0.033 0.034 0.060 0.073 0.080 0.116l0.001 0.003zM4.699 10.247c0.021 0.020 0.035 0.099 0.053 0.311 0.029 0.384 0.033 0.354-0.047 0.354-0.083 0-0.081 0.006-0.108-0.341-0.027-0.352-0.027-0.348 0.025-0.348 0.025 0 0.059 0.012 0.077 0.024zM6.257 10.277c0.004 0.020 0.014 0.138 0.021 0.262 0.006 0.124 0.023 0.403 0.039 0.62 0.055 0.795 0.057 0.895 0.023 0.895-0.037 0-0.041-0.029-0.085-0.59-0.030-0.435-0.053-0.716-0.078-0.996l0.013 0.183c-0.018-0.215-0.029-0.393-0.023-0.397 0.021-0.023 0.079-0.006 0.089 0.023zM2.558 10.655c0.012 0.018 0.087 0.647 0.179 1.507 0.027 0.26 0.055 0.509 0.061 0.557l0.010 0.085-0.049-0.031c-0.031-0.018-0.052-0.051-0.052-0.089 0-0.003 0-0.006 0-0.008l-0 0c0-0.124-0.085-0.941-0.149-1.44-0.037-0.283-0.067-0.533-0.067-0.557 0-0.041 0.047-0.057 0.067-0.024zM13.913 11.477l-0.014 0.823-0.049 0.073c-0.112 0.165-0.106 0.197-0.101-0.724l0.004-0.844 0.073-0.075c0.025-0.028 0.053-0.052 0.085-0.072l0.002-0.001c0.006 0 0.006 0.37 0.001 0.82zM12.093 12.781c0.010 1.143 0.008 1.232-0.023 1.267-0.020 0.021-0.037 0.035-0.043 0.029-0.014-0.016-0.033-2.509-0.018-2.523 0.008-0.008 0.027-0.012 0.045-0.010 0.025 0.006 0.031 0.145 0.039 1.236zM5.667 11.999c0.014 0.122 0.063 0.707 0.083 0.982 0.012 0.185 0.012 0.191-0.031 0.205-0.023 0.008-0.051 0.006-0.059-0.004-0.014-0.014-0.057-0.451-0.11-1.123l-0.014-0.161h0.061c0.057 0 0.061 0.004 0.071 0.102zM4.12 12.687c0.014 0.014 0.023 0.063 0.023 0.112 0 0.051 0.023 0.317 0.049 0.592 0.075 0.753 0.081 0.856 0.047 0.836-0.051-0.029-0.097-0.075-0.087-0.087-0.001-0.078-0.008-0.153-0.021-0.227l0.001 0.008c-0.014-0.114-0.031-0.299-0.039-0.413s-0.025-0.323-0.041-0.463c-0.037-0.344-0.035-0.384 0.008-0.384 0.020 0 0.045 0.010 0.059 0.025zM5.051 14.011c0.006 0.043 0.018 0.205 0.025 0.358 0.014 0.295 0.008 0.317-0.073 0.256-0.023-0.018-0.039-0.093-0.063-0.317-0.041-0.405-0.043-0.389 0.033-0.382 0.057 0.006 0.065 0.014 0.077 0.085zM4.348 6.729c-0.205 0.089-0.221 0.366-0.027 0.465 0.14 0.071 0.281 0.037 0.354-0.085 0.026-0.040 0.042-0.089 0.042-0.142 0-0.144-0.117-0.261-0.261-0.261-0.039 0-0.076 0.008-0.109 0.024l0.002-0.001zM5.682 6.918c-0.085 0.054-0.141 0.148-0.141 0.256s0.056 0.201 0.14 0.255l0.001 0.001c0.187 0.112 0.429-0.035 0.429-0.26 0-0.217-0.248-0.362-0.429-0.251z"></path>
</svg>
