<!-- Generated by IcoMoon.io -->
<svg version="1.1" xmlns="http://www.w3.org/2000/svg" width="16" height="16" viewBox="0 0 16 16">
<title>dependabot</title>
<path fill="#025e8c" d="M7.299 0.209c0.197-0.131 0.44-0.209 0.701-0.209s0.503 0.078 0.705 0.212l-0.005-0.003 6.222 4.079c0.361 0.236 0.577 0.638 0.577 1.069v5.285c0 0.431-0.217 0.833-0.577 1.069l-6.222 4.079c-0.197 0.131-0.44 0.209-0.701 0.209s-0.503-0.078-0.705-0.212l0.005 0.003-6.222-4.079c-0.35-0.232-0.577-0.623-0.577-1.068 0-0 0-0.001 0-0.001v0-5.285c0-0.431 0.217-0.833 0.577-1.069zM8.5 5v0.5h-4c-0.276 0-0.5 0.224-0.5 0.5v0 2h-0.333c-0.092 0-0.167 0.075-0.167 0.167v0 1.667c0 0.092 0.075 0.167 0.167 0.167h0.333v1c0 0.277 0.224 0.5 0.5 0.5h7c0.276 0 0.5-0.224 0.5-0.5v0-1h0.333c0.092 0 0.167-0.075 0.167-0.167v0-1.667c0-0.092-0.075-0.167-0.167-0.167v0h-0.333v-2c0-0.276-0.224-0.5-0.5-0.5v0h-2.5v-1.833c0-0.092-0.075-0.167-0.167-0.167v0h-1.167c-0.092 0-0.167 0.075-0.167 0.167v0 1.167c0 0.092 0.075 0.167 0.167 0.167zM10.691 8.393l-1.048 1.048c-0.037 0.036-0.087 0.059-0.143 0.059s-0.106-0.023-0.143-0.059v0l-0.631-0.631c-0.036-0.037-0.059-0.087-0.059-0.143s0.023-0.106 0.059-0.143v0l0.215-0.215c0.037-0.036 0.087-0.059 0.143-0.059s0.106 0.023 0.143 0.059v0l0.273 0.274 0.691-0.691c0.037-0.036 0.087-0.059 0.143-0.059s0.106 0.023 0.143 0.059v0l0.215 0.215c0.036 0.037 0.059 0.087 0.059 0.143s-0.023 0.106-0.059 0.143v0zM6.309 9.44v0.001c-0.037 0.036-0.087 0.059-0.143 0.059s-0.106-0.023-0.143-0.059v0l-0.632-0.631c-0.037-0.036-0.059-0.087-0.059-0.143s0.023-0.106 0.059-0.143v0l0.215-0.215c0.037-0.036 0.087-0.059 0.142-0.059s0.106 0.022 0.142 0.059l-0-0 0.275 0.274 0.691-0.691c0.037-0.036 0.087-0.059 0.142-0.059s0.106 0.022 0.142 0.059l-0-0 0.215 0.215c0.036 0.037 0.059 0.087 0.059 0.143s-0.023 0.106-0.059 0.143v0z"></path>
</svg>
