<!-- Generated by IcoMoon.io -->
<svg version="1.1" xmlns="http://www.w3.org/2000/svg" width="16" height="16" viewBox="0 0 16 16">
<title>devrant</title>
<path fill="#f99a66" d="M7.813 0c-4.159-0.010-6.752 2.697-6.679 6.881-0.049 2.605 0.958 4.668 2.751 5.823 0.442 0.27 0.909 0.491 1.425 0.663l1.449 2.235c0.222 0.565 0.467 0.516 0.565-0.073l0.393-1.793h0.295c1.646 0.049 3.047-0.345 4.152-1.057 1.744-1.155 2.751-3.194 2.702-5.798 0.073-4.249-2.579-6.977-6.854-6.879-0.067-0.001-0.133-0.003-0.199-0.003zM10.861 3.091c0.172 0 0.344 0.061 0.467 0.184h0.001c0.123 0.123 0.197 0.295 0.197 0.491 0 0.099 0 0.197-0.049 0.271l-2.481 6.167c-0.172 0.294-0.418 0.368-0.59 0.368-0.364-0.005-0.658-0.299-0.663-0.663v-0c0-0.099 0.025-0.172 0.049-0.271l2.457-6.141c0.049-0.098 0.099-0.172 0.147-0.221 0.118-0.114 0.279-0.184 0.457-0.184 0.003 0 0.007 0 0.010 0h-0.001zM6.304 5c0.209 0 0.417 0.080 0.577 0.239h0.001c0.147 0.147 0.245 0.344 0.221 0.565 0 0.221-0.098 0.393-0.245 0.565s-0.345 0.246-0.565 0.246c-0.221 0-0.393-0.099-0.565-0.247-0.173-0.147-0.247-0.343-0.247-0.565s0.099-0.418 0.247-0.565c0.16-0.16 0.368-0.24 0.577-0.239zM6.304 8.316c0.209 0 0.417 0.080 0.577 0.24h0.001c0.147 0.172 0.245 0.369 0.221 0.565-0.003 0.222-0.097 0.422-0.245 0.565l-0 0c-0.147 0.172-0.344 0.245-0.565 0.245-0.222-0.003-0.422-0.097-0.565-0.245l-0-0c-0.173-0.148-0.247-0.344-0.247-0.565s0.099-0.418 0.247-0.565c0.16-0.16 0.368-0.24 0.577-0.24z"></path>
</svg>
