<!-- Generated by IcoMoon.io -->
<svg version="1.1" xmlns="http://www.w3.org/2000/svg" width="16" height="16" viewBox="0 0 16 16">
<title>diaspora</title>
<path d="M10.173 14.597l-1.555-2.171c-0.415-0.58-0.751-1.031-0.769-1.031s-0.671 0.876-1.544 2.075c-0.832 1.143-1.52 2.076-1.53 2.076-0.022 0-2.999-2.096-3.007-2.118-0.004-0.011 0.67-0.999 1.495-2.195 0.827-1.197 1.503-2.193 1.503-2.217 0-0.037-0.272-0.129-2.371-0.83l-2.395-0.799c-0.020-0.012 0.104-0.427 0.529-1.767 0.307-0.964 0.563-1.76 0.57-1.77 0.009-0.011 1.14 0.349 2.515 0.803s2.51 0.823 2.525 0.823c0.015 0 0.031-0.020 0.035-0.047 0.007-0.020 0.020-1.191 0.027-2.6 0.013-1.4 0.027-2.56 0.033-2.58 0.013-0.020 0.4-0.020 1.82-0.020 0.989 0 1.809 0.010 1.822 0.020 0.017 0.011 0.043 0.791 0.091 2.52 0.073 2.85 0.073 2.89 0.12 2.89 0.017 0 1.107-0.36 2.42-0.813 1.315-0.44 2.395-0.8 2.403-0.791 0.020 0.029 1.1 3.54 1.090 3.55-0.011 0.011-1.111 0.39-2.44 0.84-1.84 0.62-2.431 0.83-2.431 0.86-0.009 0.020 0.62 0.97 1.431 2.14 0.789 1.16 1.429 2.11 1.429 2.12-0.010 0.031-2.96 2.201-2.989 2.201-0.010 0-0.39-0.511-0.83-1.13z"></path>
</svg>
