<!-- Generated by IcoMoon.io -->
<svg version="1.1" xmlns="http://www.w3.org/2000/svg" width="16" height="16" viewBox="0 0 16 16">
<title>directus</title>
<path d="M12.791 9.273c-0.074-0.017-0.137-0.038-0.198-0.064l0.008 0.003c-0.053-0.023-0.097-0.055-0.135-0.093l-0-0c0.037-0.325 0-0.608 0.031-0.928 0.123-1.241 0.903-0.848 1.604-1.051 0.437-0.123 0.873-0.375 0.983-0.891-0.472-0.551-0.996-1.034-1.572-1.451l-0.026-0.018c-1.9-1.352-4.383-1.893-6.639-1.518 0.349 0.602 0.859 1.077 1.472 1.374l0.020 0.009c0 0-0.611 0-1.135-0.391-0.153 0.061-0.461 0.183-0.609 0.256 0.609 0.587 1.439 0.948 2.354 0.948 0.781 0 1.501-0.264 2.074-0.707l-0.008 0.006c-0.007 0.011-0.123 0.19-0.265 0.933-0.313 1.587-1.217 1.463-2.336 1.064-2.323-0.843-3.602-0.062-4.763-1.66-0.338 0.191-0.547 0.547-0.547 0.935 0 0.399 0.221 0.737 0.54 0.922 0.175-0.232 0.253-0.297 0.557-0.297-0.471 0.267-0.527 0.5-0.729 1.145-0.245 0.781-0.141 1.58-1.291 1.789-0.609 0.031-0.596 0.443-0.817 1.057-0.277 0.799-0.645 1.119-1.365 1.875 0.295 0.357 0.603 0.4 0.916 0.271 0.645-0.271 1.143-1.107 1.61-1.647 0.523-0.603 1.777-0.345 2.723-0.935 0.651-0.399 0.971-0.94 0.541-1.856 0.267 0.294 0.44 0.678 0.467 1.101l0 0.005c1.094-0.142 2.557 1.192 3.891 1.413-0.126-0.158-0.235-0.338-0.319-0.531l-0.006-0.015c-0.153-0.369-0.203-0.707-0.172-1.002 0.123 0.731 0.86 1.671 2.047 1.758 0.301 0.024 0.633-0.013 0.977-0.117 0.412-0.123 0.793-0.283 1.248-0.197 0.338 0.062 0.651 0.233 0.848 0.523 0.295 0.43 0.94 0.523 1.229-0.006-0.651-1.703-2.447-1.813-3.209-2.010z"></path>
</svg>
