<!-- Generated by IcoMoon.io -->
<svg version="1.1" xmlns="http://www.w3.org/2000/svg" width="16" height="16" viewBox="0 0 16 16">
<title>discourse</title>
<path d="M8.069 0c4.375 0 7.931 3.657 7.931 7.998 0 4.34-3.553 7.993-7.933 7.993l-8.067 0.009v-8.14c0-4.34 3.688-7.86 8.069-7.86zM8.146 3.042c-1.729-0.002-3.331 0.901-4.225 2.38-0.887 1.472-0.925 3.305-0.099 4.813l-0.889 2.838 3.196-0.716c1.83 0.817 3.977 0.451 5.424-0.927 1.447-1.369 1.907-3.485 1.158-5.331-0.757-1.852-2.56-3.060-4.56-3.057z"></path>
</svg>
