<!-- Generated by IcoMoon.io -->
<svg version="1.1" xmlns="http://www.w3.org/2000/svg" width="16" height="16" viewBox="0 0 16 16">
<title>discord</title>
<path fill="#7289da" d="M13.481 0c0.937 0 1.693 0.758 1.738 1.65v14.35l-1.785-1.515-0.98-0.892-1.069-0.932 0.447 1.47h-9.359c-0.935 0-1.693-0.71-1.693-1.651v-10.827c0-0.892 0.76-1.651 1.697-1.651h11zM9.403 3.789h-0.020l-0.135 0.133c1.382 0.4 2.051 1.025 2.051 1.025-0.891-0.445-1.693-0.668-2.496-0.758-0.58-0.090-1.16-0.043-1.65 0h-0.133c-0.313 0-0.98 0.133-1.873 0.49-0.311 0.135-0.49 0.224-0.49 0.224s0.668-0.668 2.14-1.025l-0.090-0.090c0 0-1.115-0.043-2.318 0.847 0 0-1.203 2.096-1.203 4.68 0 0 0.667 1.16 2.495 1.204 0 0 0.267-0.355 0.537-0.668-1.027-0.312-1.427-0.936-1.427-0.936s0.089 0.044 0.223 0.133h0.040c0.020 0 0.029 0.010 0.040 0.020v0.004c0.011 0.011 0.020 0.020 0.040 0.020 0.22 0.091 0.44 0.18 0.62 0.267 0.311 0.135 0.71 0.269 1.2 0.357 0.62 0.090 1.331 0.133 2.14 0 0.4-0.090 0.8-0.178 1.2-0.357 0.26-0.133 0.58-0.267 0.931-0.491 0 0-0.4 0.624-1.47 0.936 0.22 0.311 0.53 0.667 0.53 0.667 1.829-0.040 2.54-1.2 2.58-1.151 0-2.58-1.21-4.68-1.21-4.68-1.090-0.809-2.11-0.84-2.29-0.84zM9.515 6.731c0.469 0 0.847 0.4 0.847 0.89 0 0.493-0.38 0.893-0.847 0.893s-0.847-0.4-0.847-0.889c0.001-0.493 0.382-0.892 0.847-0.894zM6.486 6.731c0.467 0 0.844 0.4 0.844 0.89 0 0.493-0.38 0.893-0.847 0.893s-0.847-0.4-0.847-0.889c0-0.493 0.38-0.892 0.849-0.894z"></path>
</svg>
