<!-- Generated by IcoMoon.io -->
<svg version="1.1" xmlns="http://www.w3.org/2000/svg" width="16" height="16" viewBox="0 0 16 16">
<title>disqus</title>
<path fill="#2e9fff" d="M8.292 15.769c-1.902 0-3.64-0.693-4.984-1.844l-3.308 0.453 1.278-3.155c-0.445-0.983-0.695-2.073-0.695-3.223 0-4.291 3.45-7.769 7.71-7.769 4.253 0 7.707 3.479 7.707 7.769 0 4.292-3.451 7.769-7.708 7.769zM12.502 7.978v-0.022c0-2.242-1.582-3.84-4.308-3.84h-2.943v7.771h2.9c2.747 0 4.35-1.667 4.35-3.909zM8.225 9.977h-0.86v-3.95h0.86c1.265 0 2.105 0.72 2.105 1.963v0.020c0 1.256-0.84 1.967-2.105 1.967z"></path>
</svg>
