<!-- Generated by IcoMoon.io -->
<svg version="1.1" xmlns="http://www.w3.org/2000/svg" width="16" height="16" viewBox="0 0 16 16">
<title>disroot</title>
<path fill="#50162d" d="M12.549 4.437q0.061 0.085 0 0.17-0.062 0.021-0.103 0l-0.103-0.149-0.246-0.063q-0.061-0.064 0-0.17 0.061-0.085 0.164-0.064 0.185 0.107 0.287 0.276zM15.543 7.327q0.021 0.063 0.021 0.106l-0.103 0.149v-0.233q0.041-0.021 0.082-0.021zM11.955 4.161l0.102 0.17q-0.082 0.149-0.164 0.191l-0.061 0.085q-0.041-0.106-0.061-0.212-0.021 0-0.041-0.021l-0.082 0.085-0.369-0.085q-0.082-0.107 0.041-0.233 0.123-0.128 0.287-0.064zM11.196 4.607l-0.103-0.064 0.082-0.043zM9.555 3.523l-0.123 0.149-0.123-0.149-0.103-0.021 0.328-0.064zM15.953 6.711q0.082 0.064 0.021 0.319l-0.123 0.361-0.103 0.127-0.021-0.255q0-0.085-0.020-0.149 0-0.064-0.021-0.127l-0.267 0.127q0.021 0.043 0.021 0.107 0.021 0.064 0.041 0.085l-0.287 0.021 0.020 0.085 0.061 0.064-0.102 0.233q-0.021 0.191-0.103 0.213l-0.082-0.128-0.247 0.063q-0.081-0.085-0.081-0.149l-0.062-0.085 0.103-0.127q-0.041-0.085-0.082-0.085l-0.103 0.043-0.102 0.255q-0.144 0-0.185 0.043l0.123 0.17 0.431 0.233 0.021 0.149q0.082 0.021 0.123 0.063 0.061 0.043 0.082 0.064-0.021 0.043-0.041 0.107-0.020 0.042-0.082 0.085l-0.185 0.127 0.021 0.17q-0.164 0.064-0.287 0.213l-0.062 0.233q-0.225 0-0.287 0.043l0.020 0.319-0.061-0.021q-0.082-0.128-0.164-0.064l0.082 0.276q-0.061 0-0.103 0.021l-0.041 0.043 0.082 0.149q0.020 0.085 0.020 0.128-0.123 0.106-0.246 0.127-0.102 0.022-0.164 0.149l0.021 0.255q-0.061 0.149-0.103 0.191-0.205 0-0.307 0.043l-0.123 0.233-0.102-0.042q-0.083-0.021-0.123 0l-0.082 0.17q-0.185 0-0.267 0.085l-0.164 0.149 0.041-0.191q0.061-0.17-0.062-0.191l-0.082 0.063-0.020 0.107-0.205 0.127-0.020 0.233h-0.39l-0.082 0.149q-0.041 0.127-0.205 0.191t-0.574 0.063-0.513 0.043q-0.103 0-0.185 0.107-0.061 0.106-0.143 0.149l-0.328 0.106-0.103 0.191-0.143 0.107q-0.103 0.063-0.328 0.063l-0.205 0.107-0.307 0.127-0.226-0.021q-0.123-0.064-0.287-0.064h-0.369l-0.123-0.085-0.246 0.043-0.123 0.17-0.185-0.127-0.143-0.149-0.328-0.021-0.123-0.107 0.185-0.233 0.246-0.34v-0.233l0.287-0.319v-0.361q0-0.17 0.062-0.297l0.225 0.064q0.082-0.085 0.082-0.128-0.123-0.106-0.225-0.276l-0.205-0.297-0.246-0.319-0.164-0.298-0.185-0.297-0.143-0.361-0.307-0.34-1.128-1.657-0.205-0.361-0.205-0.404-0.164-0.106q-0.185-0.233-0.308-0.51l-0.061-0.255-0.185-0.085-0.635 0.127q-0.226 0-0.492 0.085l-0.431 0.17-0.513 0.063-0.287 0.107q-0.185 0.043-0.287-0.043l-0.144-0.17-0.225 0.085-0.185-0.064q0-0.213-0.041-0.255l-0.185-0.255q-0.123-0.085-0.185-0.107l0.020-0.106h0.205q-0.020-0.063-0.020-0.149v-0.107l0.205 0.085q0.103-0.063 0.123-0.107l0.082-0.169 0.164 0.021 0.123-0.361-0.020-0.191 0.103 0.063 0.102 0.107q0.103-0.043 0.123-0.085l0.185-0.233 0.184 0.021-0.061-0.149-0.123-0.149-0.185-0.063q0.123-0.191 0.533-0.277l0.656-0.063 0.225-0.149 0.533-0.107 0.82-0.043 0.287-0.063q0.165-0.064 0.329-0.021l0.328-0.021q0.328-0.085 0.471-0.043l0.267 0.021 0.369 0.021 0.553 0.107 0.492 0.042 0.349-0.149q0.123 0 0.267 0.17l0.205 0.149h0.431l0.143 0.17-0.020 0.107 0.123 0.34 0.082-0.043 0.185-0.213 0.205 0.319-0.246-0.085q-0.143 0-0.164 0.212l0.205 0.043 0.082 0.107 0.123-0.043q0.103-0.043 0.205 0.043 0.123 0.063 0.164 0.149l0.123 0.17h0.267q0-0.064 0.020-0.085 0.021-0.043 0.041-0.063l0.041 0.212h0.082l0.061-0.063 0.062 0.107 0.061-0.171q0.267 0 0.307-0.043 0-0.063-0.041-0.106l-0.082-0.107q0-0.106 0.164-0.085l0.287 0.085 0.205-0.021 0.123 0.107 0.041 0.085q-0.185-0.043-0.247 0.021-0.040 0.042-0.020 0.149l0.143 0.127q0 0.149 0.144 0.319l0.082-0.085 0.020-0.17 0.083 0.106h0.348q0.103 0 0.164 0.233l0.062 0.213 0.082 0.063 0.103-0.107 0.328 0.107 0.061-0.107 0.103-0.042q0.082-0.064 0.103-0.107v-0.106l-0.041-0.107 0.287 0.085q0.083-0.085 0.103-0.127-0.041-0.107-0.082-0.107l-0.205-0.042v-0.107l0.061-0.149 0.061-0.127q0.103 0.063 0.123 0.107l0.103 0.148 0.143-0.021 0.143-0.021 0.513 0.446 0.143-0.021 0.143 0.191 0.123 0.064q-0.062 0.085 0 0.191l0.143-0.063h0.143l0.123 0.213 0.123 0.212q0.164 0 0.247 0.043l0.081 0.383 0.226 0.127 0.184 0.064q0 0.107-0.041 0.17l0.041 0.213 0.062 0.127-0.021 0.149 0.082-0.043q0.082-0.107 0.123-0.127zM10.787 3.567q0.061 0.063 0 0.191-0.021 0.043-0.123 0.064-0.061-0.064 0-0.191 0.020-0.043 0.123-0.063zM14.99 7.519q0.061 0.064 0 0.17l-0.103 0.043-0.020-0.149q0-0.063 0.020-0.085 0.041-0.021 0.103 0.021zM14.129 6.478q0.041 0.042 0.041 0.212-0.082 0.043-0.164 0.021-0.102-0.063-0.041-0.191 0.041-0.107 0.164-0.042zM8.326 3.651l-0.123 0.233 0.061-0.169zM11.155 11.854l-0.082-0.127 0.082-0.064q0.103 0.021 0.082 0.149zM14.58 8.687q-0.123-0.085-0.164-0.169l0.123 0.085zM6.377 12.47l0.102-0.106 0.103-0.064zM15.193 6.967l-0.061 0.127-0.020 0.065-0.021-0.149zM15.296 8.008l-0.041 0.191zM13.84 5.67l0.062 0.085-0.082 0.021-0.082-0.064zM10.17 10.664l-0.082 0.064zM9.74 3.502l-0.020 0.107zM14.107 5.861l-0.041 0.107zM14.025 9.325l0.041 0.063-0.062 0.043zM10.089 3.629l-0.041 0.064zM11.195 11.386l-0.040 0.085zM6.582 6.838l-0.082 0.085zM6.459 12.937l-0.021 0.107zM12.673 4.628l0.040 0.064-0.102-0.043zM9.33 10.408l-0.021 0.085zM14.067 6.095l-0.021 0.085zM13.923 7.093l-0.041 0.064zM14.189 9.728l-0.061 0.043zM1.128 4.416l-0.021 0.106zM14.866 7.965l-0.082 0.043zM14.599 7.816l-0.123 0.021zM10.273 12.363l-0.020 0.064zM14.415 8.262v-0.107zM15.42 6.838q-0.021 0.043-0.021 0.085 0-0.064 0.021-0.085zM1.004 4.012l-0.020 0.085zM12.671 5.861l-0.082 0.021zM12.343 4.586l-0.041 0.063zM7.28 3.375l-0.061 0.021zM9.331 4.225l-0.021 0.085zM9.044 4.203l-0.041 0.043zM6.397 12.789l-0.020 0.085zM13.799 7.476l-0.040-0.043zM8.755 4.076l-0.041-0.043zM15.337 6.775q0-0.17-0.062-0.277-0.041-0.106-0.143-0.191l-0.020 0.276 0.143 0.064q0.020 0.063 0 0.106zM13.737 6.265l-0.040-0.043zM14.557 7.221l-0.102-0.021-0.123-0.191 0.041-0.17-0.185 0.128 0.103 0.127 0.020 0.065-0.245 0.106 0.164 0.021q0.041 0.043 0.082 0.063 0.061 0.021 0.082 0.021zM14.148 6.838l-0.082-0.063-0.144-0.043-0.061-0.107-0.082 0.085-0.061 0.149 0.164 0.064q0.123 0 0.185 0.063zM10.56 4.522l-0.082-0.043-0.123-0.063q-0.082 0-0.082 0.042l0.020 0.128 0.144 0.085zM13.021 9.049l0.041-0.255q0-0.34-0.247-0.723-0.205-0.383-0.533-0.616-0.267-0.255-0.737-0.447l-0.82-0.361-0.308-0.191-0.451-0.17-0.471-0.149-0.759-0.17-0.247-0.043q-0.184 0-0.287 0.043-0.082 0.021-0.061 0.149l0.246 0.489q0.185 0.34 0.349 0.467l0.185 0.127v0.128l0.205 0.255 0.020 0.17q0.083 0.064 0.123 0.064 0.103 0.063 0.267 0.319l0.226 0.276 0.348 0.51 0.308 0.553 0.143 0.425-0.041 0.277 0.082 0.127-0.082 0.127q-0.062 0.064 0 0.128l0.143-0.043 0.246-0.107q0.103 0 0.349-0.127l0.451-0.213 0.635-0.255q0.389-0.17 0.553-0.34l0.082-0.213q0-0.149 0.041-0.212z"></path>
</svg>
