<!-- Generated by IcoMoon.io -->
<svg version="1.1" xmlns="http://www.w3.org/2000/svg" width="16" height="16" viewBox="0 0 16 16">
<title>django</title>
<path d="M7.431 0h2.616v12.11c-1.342 0.255-2.327 0.357-3.397 0.357-3.194 0-4.859-1.444-4.859-4.213 0-2.667 1.767-4.4 4.502-4.4 0.425 0 0.747 0.034 1.138 0.136zM7.431 6.095c-0.248-0.087-0.533-0.137-0.831-0.137-0.018 0-0.037 0-0.055 0.001l0.003-0c-1.325 0-2.089 0.815-2.089 2.243 0 1.393 0.731 2.157 2.073 2.157 0.289 0 0.527-0.017 0.9-0.068zM14.209 4.040v6.065c0 2.089-0.153 3.092-0.611 3.958-0.425 0.833-0.985 1.359-2.141 1.937l-2.429-1.155c1.155-0.543 1.716-1.019 2.073-1.75 0.374-0.747 0.493-1.614 0.493-3.89v-5.165zM11.593 0.014h2.616v2.684h-2.616z"></path>
</svg>
