<!-- Generated by IcoMoon.io -->
<svg version="1.1" xmlns="http://www.w3.org/2000/svg" width="16" height="16" viewBox="0 0 16 16">
<title>dlna</title>
<path fill="#48a842" d="M15.503 8.445h-6.823c-0.701 0-1.4 0.326-1.795 0.844v-0.011c-0.394 0.544-1.029 0.902-1.753 0.902-1.197 0-2.166-0.972-2.166-2.167 0-1.197 0.969-2.167 2.166-2.167 0.723 0 1.359 0.357 1.753 0.902v-0.009c0.395 0.517 1.094 0.849 1.795 0.849h6.753c0.124-0.003 0.582-0.063 0.565-0.654-0.589-3.391-3.919-5.991-7.949-5.991-2.481 0-4.698 0.987-6.175 2.535-0.237 0.351 0.009 0.459 0.233 0.489h4.405c0.7 0 1.4-0.332 1.794-0.851v0.012c0.394-0.545 1.031-0.903 1.753-0.903 1.197 0 2.166 0.971 2.166 2.167 0 1.195-0.969 2.168-2.166 2.168-0.723 0-1.359-0.358-1.753-0.903v0.013c-0.394-0.519-1.094-0.844-1.794-0.844l-4.795 0.002c0 0-0.712-0.040-1.146 0.573-0.331 0.535-0.572 1.682-0.572 2.603 0 0.925 0.132 1.766 0.578 2.615 0.376 0.605 1.14 0.566 1.14 0.566l-0.028 0.004h4.822c0.7 0 1.4-0.327 1.794-0.845v0.013c0.394-0.545 1.031-0.903 1.753-0.903 1.197 0 2.166 0.972 2.166 2.167 0 1.197-0.969 2.167-2.166 2.167-0.723 0-1.359-0.358-1.753-0.903v0.012c-0.394-0.519-1.094-0.851-1.794-0.851h-4.403c-0.219 0.028-0.465 0.132-0.253 0.466 1.477 1.558 3.703 2.549 6.192 2.549 4.036 0 7.371-2.607 7.951-6.006-0.003-0.475-0.326-0.585-0.497-0.608z"></path>
</svg>
