<!-- Generated by IcoMoon.io -->
<svg version="1.1" xmlns="http://www.w3.org/2000/svg" width="16" height="16" viewBox="0 0 16 16">
<title>docker</title>
<path fill="#1488c6" d="M3.213 11.517c-0.456 0-0.869-0.373-0.869-0.827s0.373-0.829 0.87-0.829c0.499 0 0.873 0.373 0.873 0.828s-0.415 0.827-0.874 0.827zM13.888 7.008c-0.090-0.661-0.5-1.2-1.040-1.613l-0.21-0.167-0.169 0.207c-0.329 0.373-0.46 1.035-0.42 1.53 0.040 0.375 0.16 0.747 0.369 1.036-0.169 0.087-0.379 0.167-0.54 0.251-0.38 0.125-0.749 0.167-1.12 0.167h-10.693l-0.040 0.247c-0.080 0.788 0.040 1.613 0.375 2.36l0.163 0.29v0.040c1 1.655 2.78 2.4 4.719 2.4 3.729 0 6.788-1.613 8.238-5.089 0.95 0.041 1.909-0.207 2.36-1.117l0.12-0.207-0.2-0.125c-0.54-0.329-1.28-0.373-1.9-0.207zM8.549 6.347h-1.619v1.613h1.62v-1.615zM8.549 4.318h-1.619v1.613h1.62v-1.611zM8.549 2.249h-1.619v1.613h1.62v-1.613zM10.529 6.347h-1.609v1.613h1.613v-1.615zM4.531 6.347h-1.609v1.613h1.615v-1.615zM6.551 6.347h-1.6v1.613h1.609v-1.615zM2.531 6.347h-1.597v1.613h1.619v-1.615zM6.551 4.318h-1.6v1.613h1.609v-1.611zM4.521 4.318h-1.596v1.613h1.609v-1.611z"></path>
</svg>
