<!-- Generated by IcoMoon.io -->
<svg version="1.1" xmlns="http://www.w3.org/2000/svg" width="16" height="16" viewBox="0 0 16 16">
<title>dot-net</title>
<path fill="#5c2d91" d="M2.111 5.044v5.833h0.682v-4.217c0.001-0.047 0.002-0.102 0.002-0.157 0-0.226-0.013-0.45-0.037-0.67l0.002 0.027h0.026c0.054 0.14 0.116 0.26 0.19 0.372l-0.005-0.007 2.998 4.652h0.838v-5.833h-0.681v4.102c-0.001 0.040-0.001 0.086-0.001 0.133 0 0.255 0.016 0.507 0.046 0.754l-0.003-0.030h-0.016c-0.036-0.070-0.115-0.2-0.237-0.39l-2.918-4.569zM8.321 5.044v5.833h3.1l0.003-0.64h-2.406v-2.022h2.105v-0.614h-2.105v-1.939h2.259v-0.617zM11.946 5.044v0.617h1.677v5.215h0.681v-5.215h1.696v-0.617zM0.436 10.045c-0.12 0.003-0.228 0.055-0.304 0.137l-0 0c-0.081 0.081-0.131 0.193-0.131 0.317 0 0.001 0 0.002 0 0.003v-0c-0 0.002-0 0.004-0 0.006 0 0.123 0.050 0.234 0.131 0.314l0 0c0.079 0.083 0.19 0.134 0.313 0.134 0.002 0 0.005-0 0.007-0h-0c0.001 0 0.002 0 0.003 0 0.124 0 0.237-0.051 0.317-0.134l0-0c0.083-0.080 0.134-0.192 0.134-0.316 0-0.001 0-0.003-0-0.004v0c0-0 0-0.001 0-0.001 0-0.125-0.051-0.238-0.134-0.318l-0-0c-0.080-0.085-0.193-0.137-0.319-0.137-0 0-0.001 0-0.001 0h0c-0.002-0-0.004-0-0.006-0-0.003 0-0.007 0-0.010 0l0.001-0z"></path>
</svg>
