<!-- Generated by IcoMoon.io -->
<svg version="1.1" xmlns="http://www.w3.org/2000/svg" width="16" height="16" viewBox="0 0 16 16">
<title>draugiem-dot-lv</title>
<path fill="#f60" d="M5.436 10.064c0.032 0.231 0.093 0.375 0.185 0.462 0.096 0.087 0.227 0.12 0.397 0.14 0.203-0.020 0.34-0.067 0.433-0.2 0.055-0.087 0.093-0.22 0.111-0.407l0.065-0.773v-0.013l-0.013-0.12-0.020-0.113-0.020-0.117-0.021-0.11-0.020-0.116-0.020-0.11-0.020-0.109-0.020-0.113-0.019-0.107-0.040-0.2v-0.092l-0.020-0.091-0.020-0.089-0.010-0.084-0.020-0.077-0.020-0.067-0.020-0.113-0.031-0.111-0.060-0.24-0.009-0.131-0.035-0.135-0.030-0.14-0.035-0.14-0.020-0.14-0.029-0.143-0.020-0.142-0.011-0.161-0.010-0.14-0.007-0.152v-0.268l0.013-0.14 0.023-0.14 0.031-0.14 0.040-0.133 0.060-0.129 0.071-0.124 0.027-0.049c-0.133-0.031-0.293-0.051-0.46-0.051-0.073 0-0.133 0-0.2 0.011-1.553 0.133-0.92 1.891-0.653 2.855 0.187 0.667 0.4 2.227 0.48 2.707zM5.623 4.288c0.060 0.020 0.119 0.030 0.189 0.030 0.32 0 0.527-0.17 0.64-0.43 0.075-0.18 0.108-0.401 0.102-0.63-0.009-0.2-0.049-0.381-0.109-0.54-0.13-0.311-0.36-0.521-0.711-0.521-0.049 0-0.090 0-0.12 0.011-0.45 0.073-0.651 0.52-0.63 1.073 0.010 0.52 0.209 0.953 0.62 1.053zM6.452 6.85c0.056 0.24 0.112 0.46 0.158 0.65 0.19 0.771 0.375 2.562 0.443 3.112 0.065 0.551 0.26 0.66 0.647 0.7 0.384-0.029 0.578-0.149 0.643-0.689s0.253-2.332 0.438-3.102c0.045-0.187 0.107-0.407 0.16-0.64 0.172-0.7 0.311-1.527 0-2.067-0.197-0.34-0.577-0.56-1.24-0.56-0.671 0-1.055 0.22-1.248 0.573-0.31 0.54-0.171 1.373 0 2.073zM7.691 3.997h0.010c0.6 0 0.887-0.549 0.887-1.22s-0.28-1.231-0.88-1.231h-0.007c-0.607 0-0.887 0.56-0.887 1.24s0.28 1.227 0.891 1.227zM9.575 4.498c-0.18 0-0.34 0.020-0.47 0.050l0.030 0.050 0.070 0.129 0.050 0.133 0.040 0.14 0.030 0.14 0.020 0.14 0.010 0.153v0.293l-0.010 0.153v0.111l-0.020 0.145-0.020 0.142-0.029 0.142-0.031 0.14-0.029 0.14-0.030 0.137-0.033 0.133-0.033 0.131-0.040 0.13-0.033 0.12-0.020 0.12-0.033 0.112-0.012 0.060-0.020 0.080-0.020 0.091-0.017 0.089-0.010 0.088-0.020 0.080v0.020l-0.040 0.2-0.013 0.109-0.020 0.112-0.013 0.11-0.020 0.11-0.013 0.12-0.009 0.11-0.019 0.24-0.011 0.12v0.009c0.030 0.331 0.050 0.62 0.060 0.78 0.020 0.191 0.050 0.32 0.111 0.411 0.093 0.133 0.233 0.18 0.44 0.2 0.173-0.020 0.3-0.047 0.4-0.147 0.1-0.080 0.153-0.229 0.193-0.46 0.080-0.469 0.293-2.033 0.473-2.702 0.267-0.967 0.9-2.722-0.653-2.856-0.070-0.009-0.13-0.009-0.2-0.009l0.008-0.033zM9.586 4.318c0.060 0 0.12-0.009 0.18-0.020 0.4-0.1 0.6-0.529 0.62-1.040 0.020-0.54-0.18-1-0.633-1.061-0.040-0.011-0.080-0.011-0.12-0.011-0.36 0-0.593 0.22-0.713 0.527-0.060 0.16-0.1 0.347-0.1 0.547-0.013 0.24 0.020 0.46 0.1 0.64 0.107 0.267 0.32 0.44 0.64 0.44zM11.446 5.118c2.86 0.041 4.533 1.801 2.64 4.203-0.88 1.111-2.353 2.211-4.327 2.912l-0.28 0.1c-0.193 0.060-0.373 0.12-0.553 0.171-0.433 0.12-0.84 0.23-1.24 0.31-0.433 0.093-0.853 0.153-1.253 0.2-0.293 0.033-0.573 0.053-0.833 0.053-1.831 0.053-3.212-0.447-3.66-1.52-0.54-1.28 0.549-3.060 2.74-4.42-1.62 0.647-4.56 2.193-4.691 4.38v0.28c0.011 0.233 0.049 0.453 0.13 0.693 0.471 1.48 2.673 2.18 5.473 1.933 0.271-0.020 0.551-0.049 0.833-0.093 0.403-0.055 0.82-0.14 1.24-0.24 0.403-0.087 0.82-0.207 1.243-0.34l0.28-0.087c0.19-0.060 0.371-0.12 0.551-0.19 2.431-0.88 4.233-2.050 5.284-3.401 0.6-0.768 0.91-1.488 0.97-2.12v-0.489c-0.173-1.609-2.040-2.549-4.585-2.29l0.029-0.030z"></path>
</svg>
