<!-- Generated by IcoMoon.io -->
<svg version="1.1" xmlns="http://www.w3.org/2000/svg" width="16" height="16" viewBox="0 0 16 16">
<title>dribbble</title>
<path fill="#ea4c89" d="M8 16c-4.41 0-8-3.59-8-8s3.59-8 8-8 8 3.59 8 8-3.59 8-8 8zM14.747 9.095c-0.233-0.073-2.113-0.635-4.256-0.292 0.893 2.456 1.258 4.456 1.328 4.872 1.533-1.037 2.624-2.68 2.928-4.58zM10.67 14.3c-0.102-0.6-0.5-2.688-1.46-5.18l-0.044 0.013c-3.86 1.343-5.24 4.017-5.36 4.267 1.153 0.905 2.613 1.444 4.193 1.444 0.947 0 1.847-0.193 2.671-0.544zM2.923 12.58c0.155-0.267 2.030-3.37 5.555-4.51 0.090-0.030 0.18-0.056 0.27-0.080-0.173-0.39-0.36-0.778-0.555-1.16-3.413 1.020-6.723 0.977-7.023 0.97l-0.003 0.208c0 1.755 0.665 3.358 1.755 4.572zM1.31 6.61c0.307 0.005 3.122 0.017 6.318-0.832-1.132-2.012-2.353-3.705-2.533-3.952-1.912 0.9-3.34 2.66-3.785 4.784zM6.4 1.368c0.188 0.253 1.43 1.943 2.548 4 2.43-0.91 3.46-2.293 3.582-2.468-1.207-1.073-2.793-1.724-4.53-1.724-0.55 0-1.087 0.067-1.6 0.192zM13.29 3.69c-0.145 0.193-1.29 1.662-3.816 2.693 0.16 0.327 0.313 0.657 0.453 0.991 0.053 0.12 0.1 0.24 0.147 0.353 2.273-0.287 4.533 0.173 4.76 0.22-0.013-1.613-0.587-3.093-1.544-4.257z"></path>
</svg>
