<!-- Generated by IcoMoon.io -->
<svg version="1.1" xmlns="http://www.w3.org/2000/svg" width="16" height="16" viewBox="0 0 16 16">
<title>drone</title>
<path d="M10.047 9.089c0 1.13-0.916 2.047-2.047 2.047s-2.047-0.916-2.047-2.047v0c0-1.13 0.916-2.047 2.047-2.047s2.047 0.916 2.047 2.047v0zM8 1.237c3.573 0.028 7.635 2.547 8 7.293h-4.837c0 0-0.623-2.622-3.163-2.605s-3.163 2.605-3.163 2.605h-4.837c0.235-4.663 4.229-7.323 8-7.293zM8.033 14.763c-2.664 0.007-5.153-2.003-6.173-5.116h2.977c0 0 0.642 2.593 3.182 2.575s3.144-2.575 3.144-2.575h2.977c-0.663 3.293-3.443 5.109-6.107 5.116z"></path>
</svg>
