<!-- Generated by IcoMoon.io -->
<svg version="1.1" xmlns="http://www.w3.org/2000/svg" width="16" height="16" viewBox="0 0 16 16">
<title>drupal</title>
<path fill="#0678be" d="M13.633 2.368c-1.461-1.53-3.478-2.364-5.633-2.364-4.379 0-7.995 3.615-7.995 7.996s3.615 7.996 7.995 7.996 7.997-3.615 7.997-7.996c0-2.155-0.834-4.172-2.363-5.632zM8 13.215c-2.433 0-4.38-1.947-4.38-4.38 0-2.017 1.39-3.407 2.572-4.589 0.835-0.835 1.6-1.6 1.808-2.503 0.209 0.835 0.973 1.599 1.808 2.433 1.182 1.183 2.573 2.573 2.573 4.589 0 2.433-1.947 4.381-4.381 4.45z"></path>
</svg>
