<!-- Generated by IcoMoon.io -->
<svg version="1.1" xmlns="http://www.w3.org/2000/svg" width="16" height="16" viewBox="0 0 16 16">
<title>dtube</title>
<path fill="#f00" d="M15.067 3.667c-0.598-1.137-1.481-2.054-2.555-2.676l-0.032-0.017c-1.047-0.596-2.301-0.948-3.637-0.948-0.043 0-0.086 0-0.129 0.001l0.006-0h-8.6l4.607 2.667h3.993c1.293 0 2.273 0.413 2.947 1.253 0.667 0.833 1 2.053 1 3.673v0.847c-0.007 1.56-0.353 2.76-1.033 3.6s-1.667 1.26-2.947 1.26h-4.113l-4.573 2.64h8.753c1.393 0 2.647-0.327 3.753-0.96s1.967-1.533 2.58-2.68 0.913-2.467 0.913-3.953v-0.733c0-1.48-0.313-2.8-0.933-3.973zM0.087 2.64v10.733l9.293-5.373z"></path>
</svg>
