<!-- Generated by IcoMoon.io -->
<svg version="1.1" xmlns="http://www.w3.org/2000/svg" width="16" height="16" viewBox="0 0 16 16">
<title>duckduckgo</title>
<path fill="#de5833" d="M8 0c-4.418 0-8 3.582-8 8s3.582 8 8 8 8-3.582 8-8-3.582-8-8-8zM8 15.333c-4.050 0-7.333-3.284-7.333-7.333s3.284-7.333 7.333-7.333 7.333 3.283 7.333 7.333-3.283 7.333-7.333 7.333zM14.813 8c0 3.203-2.211 5.889-5.191 6.617-0.18-0.347-0.353-0.678-0.499-0.959 0.43 0.166 1.287 0.479 1.472 0.41 0.251-0.096 0.188-2.099-0.093-2.163-0.225-0.050-1.088 0.558-1.427 0.806l0.023 0.104c0.052 0.265 0.096 0.662 0.020 0.831-0.001 0.003-0.001 0.007-0.003 0.009-0.010 0.024-0.026 0.043-0.045 0.058l-0 0c-0.189 0.125-0.721 0.189-1.002 0.125-0.017-0.004-0.031-0.009-0.045-0.014l0.002 0.001c-0.463 0.264-1.34 0.739-1.5 0.647-0.219-0.125-0.251-1.784-0.219-2.192 0.023-0.307 1.102 0.191 1.628 0.453 0.116-0.109 0.401-0.181 0.653-0.207-0.38-0.926-0.66-1.985-0.489-2.737 0 0.001 0.001 0.001 0.001 0.001 0.237 0.165 1.82 0.7 2.607 0.685s2.076-0.495 1.935-0.882c-0.141-0.387-1.423 0.34-2.761 0.216-0.991-0.092-1.165-0.536-0.947-0.86 0.276-0.407 0.779 0.077 1.607-0.171 0.83-0.247 1.991-0.69 2.421-0.931 0.996-0.555-0.417-0.785-0.75-0.631-0.316 0.147-1.415 0.425-1.926 0.547 0.285-1.011-0.402-2.766-1.171-3.533-0.251-0.251-0.634-0.408-1.069-0.491-0.167-0.229-0.436-0.447-0.817-0.651-0.517-0.276-1.132-0.438-1.784-0.438-0.216 0-0.429 0.018-0.635 0.052l0.022-0.003-0.016 0.003-0.023 0.003 0.003 0.001c-0.099 0.019-0.158 0.053-0.238 0.065 0.099 0.011 0.47 0.184 0.705 0.279-0.116 0.045-0.275 0.072-0.397 0.123-0.051 0.007-0.097 0.020-0.14 0.039l0.004-0.001c-0.115 0.053-0.202 0.25-0.2 0.343 0.56-0.057 1.388-0.017 1.994 0.164-0.429 0.060-0.823 0.172-1.107 0.321-0.011 0.005-0.020 0.012-0.032 0.019-0.036 0.013-0.071 0.028-0.101 0.044-0.911 0.48-1.314 1.603-1.074 2.949 0.215 1.216 1.11 5.392 1.527 7.376-2.649-0.933-4.548-3.457-4.548-6.426 0-3.763 3.050-6.813 6.813-6.813s6.813 3.050 6.813 6.813zM6.063 6.387c-0.279 0-0.505 0.226-0.505 0.505s0.226 0.505 0.505 0.505v0c0.279 0 0.505-0.226 0.505-0.505s-0.226-0.505-0.505-0.505v0zM6.289 6.855c-0.072 0-0.131-0.059-0.131-0.131s0.059-0.131 0.131-0.131v0c0.072 0 0.131 0.059 0.131 0.131s-0.059 0.131-0.131 0.131v0zM9.438 6.16c-0.005-0-0.011-0-0.017-0-0.239 0-0.433 0.194-0.433 0.433s0.194 0.433 0.433 0.433c0.006 0 0.012-0 0.018-0l-0.001 0c0.232-0.009 0.416-0.2 0.416-0.433s-0.184-0.424-0.415-0.433l-0.001-0zM9.631 6.561c-0.062 0-0.112-0.050-0.112-0.112s0.050-0.112 0.112-0.112v0c0.062 0 0.112 0.050 0.112 0.112s-0.050 0.112-0.112 0.112v0zM6.209 5.431c0 0-0.381-0.173-0.75 0.060-0.369 0.232-0.356 0.469-0.356 0.469s-0.196-0.437 0.327-0.652c0.524-0.213 0.78 0.123 0.779 0.123zM9.699 5.396c0 0-0.273-0.156-0.487-0.153-0.436 0.005-0.554 0.197-0.554 0.197s0.073-0.459 0.63-0.367c0.185 0.035 0.335 0.156 0.409 0.319l0.001 0.004z"></path>
</svg>
