<!-- Generated by IcoMoon.io -->
<svg version="1.1" xmlns="http://www.w3.org/2000/svg" width="16" height="16" viewBox="0 0 16 16">
<title>dunked</title>
<path fill="#2da9d7" d="M9.194 0v13.177c0.023 1.522 1.261 2.747 2.786 2.747 0.001 0 0.001 0 0.002 0h2.787v-13.176c-0.022-1.522-1.261-2.748-2.786-2.748-0 0-0.001 0-0.001 0h0zM4.217 9.953c-0 0-0 0-0 0-1.624 0-2.945 1.296-2.985 2.91l-0 0.004v0.147c0.025 1.63 1.352 2.941 2.986 2.941s2.961-1.312 2.986-2.939l0-0.002v-0.143c-0.038-1.62-1.36-2.918-2.985-2.918-0 0-0.001 0-0.001 0h0z"></path>
</svg>
