<!-- Generated by IcoMoon.io -->
<svg version="1.1" xmlns="http://www.w3.org/2000/svg" width="16" height="16" viewBox="0 0 16 16">
<title>duolingo</title>
<path fill="#58cc02" d="M4.8 1.913c-0.902 0.003-1.632 0.734-1.633 1.637v2.078l-2.449-0.609c-0.042-0.011-0.091-0.018-0.142-0.018-0.007 0-0.014 0-0.021 0l0.001-0c-0.309 0.011-0.556 0.265-0.556 0.576 0 0.013 0 0.026 0.001 0.039l-0-0.002c0.145 1.888 1.466 3.432 3.227 3.906l0.031 0.007c0.45 2.244 2.399 3.913 4.74 3.926h0.001c2.341-0.015 4.287-1.683 4.732-3.894l0.005-0.031c1.793-0.48 3.116-2.024 3.26-3.899l0.001-0.015c0.001-0.011 0.001-0.024 0.001-0.038 0-0.311-0.246-0.564-0.554-0.576l-0.001-0c-0.006-0-0.012-0-0.019-0-0.051 0-0.101 0.007-0.148 0.019l0.004-0.001-2.449 0.609v-2.078c-0.001-0.902-0.731-1.634-1.633-1.637h-0c-0.232 0.006-0.451 0.052-0.653 0.132l0.013-0.004c-1.247 0.531-2.076 0.792-2.554 0.8-0.478-0.008-1.308-0.269-2.555-0.8-0.193-0.077-0.416-0.124-0.649-0.128l-0.002-0zM10.223 2.851c0.004-0 0.008-0.001 0.012-0.001s0.008 0 0.013 0.001l-0.001-0c0.043 0.005 0.085 0.033 0.117 0.085 0.013 0.024 0.029 0.055 0.043 0.087l0.003 0.008c0.005 0.011 0.014 0.030 0.022 0.050l0.003 0.009c0.005 0.011 0.013 0.032 0.020 0.052l0.003 0.009c0.004 0.011 0.011 0.032 0.017 0.053l0.002 0.009c0.004 0.011 0.010 0.032 0.015 0.053l0.002 0.009c0.003 0.013 0.008 0.034 0.012 0.056l0.001 0.008c0.003 0.014 0.006 0.036 0.009 0.058l0.001 0.007c0.002 0.014 0.004 0.036 0.006 0.057l0 0.005c0.002 0.019 0.003 0.043 0.003 0.066l0 0.002c0.001 0.016 0.001 0.034 0.001 0.052s-0 0.037-0.001 0.055l0-0.003c0.001 0 0.002 0 0.002 0s0.002 0 0.002 0h-0l0.315-0.351c0.002-0.002 0.004-0.004 0.007-0.007l0-0c0.002-0.002 0.004-0.004 0.006-0.006l0-0c0.002-0.002 0.005-0.004 0.008-0.006l0-0c0.001-0.001 0.003-0.002 0.004-0.004l0-0c0.002-0.001 0.005-0.003 0.007-0.005l0.001-0c0.001-0.001 0.003-0.002 0.005-0.004l0.001-0c0.002-0.001 0.004-0.002 0.006-0.004l0.001-0c0.001-0.001 0.003-0.002 0.006-0.003l0.001-0c0.001-0.001 0.004-0.002 0.006-0.003l0.001-0c0.002-0.001 0.005-0.002 0.008-0.003l0.001-0c0.001-0 0.003-0.001 0.005-0.002l0.001-0c0.002-0.001 0.005-0.002 0.008-0.002l0.001-0c0.002-0.001 0.005-0.001 0.008-0.002l0.001-0c0.001-0 0.004-0.001 0.006-0.001l0.001-0c0.003-0 0.006-0.001 0.010-0.001l0.001-0c0.001-0 0.002-0 0.002-0s0.002 0 0.002 0h-0c0.002-0 0.004-0 0.007-0s0.005 0 0.007 0l-0-0c0.001 0 0.001-0 0.002-0s0.001 0 0.002 0h-0c0.005 0 0.008 0.001 0.012 0.001l-0.001-0c0.001-0 0.002-0 0.003-0s0.002 0 0.004 0h-0c0.004 0.001 0.006 0.002 0.008 0.002l-0.001-0c0.004 0.001 0.007 0.002 0.010 0.002l-0.001-0c0.004 0.001 0.007 0.002 0.010 0.003l-0.001-0c0.003 0.001 0.006 0.002 0.008 0.002l-0.001-0c0.004 0.001 0.006 0.003 0.008 0.004l-0.001-0c0.004 0.002 0.007 0.003 0.010 0.004l-0.001-0c0 0 0 0 0 0s0 0 0 0h-0c0.002 0.001 0.003 0.001 0.004 0.002l-0.001-0c0.004 0.002 0.008 0.005 0.011 0.007l-0.001-0c0.003 0.001 0.005 0.002 0.006 0.003l-0.001-0c0.003 0.002 0.006 0.004 0.008 0.006l-0.001-0c0.002 0.002 0.004 0.004 0.007 0.007l0 0c0.002 0.001 0.004 0.003 0.005 0.004l-0-0c0.003 0.002 0.005 0.005 0.007 0.007l0 0c0.001 0.002 0.003 0.003 0.004 0.005l0 0c0.001 0.001 0.002 0.003 0.004 0.004l0 0c0.002 0.003 0.004 0.006 0.006 0.009l0 0.001c0 0 0.001 0.001 0.002 0.003l0 0.001c0.002 0.003 0.004 0.007 0.006 0.010l0 0.001c0.011 0.019 0.024 0.046 0.037 0.073l0.003 0.008c0.006 0.011 0.015 0.031 0.023 0.050l0.003 0.008c0.005 0.012 0.013 0.033 0.021 0.054l0.003 0.009c0.004 0.010 0.011 0.030 0.017 0.049l0.003 0.009c0.004 0.012 0.010 0.034 0.015 0.056l0.002 0.009c0.003 0.012 0.008 0.033 0.013 0.054l0.001 0.008c0.003 0.014 0.007 0.036 0.010 0.058l0.001 0.007c0.004 0.022 0.008 0.053 0.010 0.083l0 0.005c0.052 0.029 0.094 0.055 0.134 0.083l-0.006-0.004c0.030 0.021 0.054 0.038 0.078 0.056l-0.004-0.003c0.030 0.021 0.054 0.039 0.077 0.058l-0.004-0.003c0.025 0.021 0.047 0.040 0.068 0.060l-0.001-0.001c0.024 0.022 0.046 0.042 0.067 0.063l-0-0c0.020 0.021 0.040 0.042 0.060 0.064l0.002 0.002c0.019 0.021 0.039 0.043 0.058 0.066l0.002 0.003c0.016 0.019 0.034 0.043 0.051 0.067l0.004 0.005c0.015 0.019 0.032 0.044 0.049 0.068l0.004 0.006c0.012 0.018 0.027 0.042 0.042 0.068l0.005 0.008c0.011 0.018 0.026 0.044 0.041 0.070l0.005 0.010c0.009 0.016 0.022 0.043 0.035 0.070l0.005 0.011c0.008 0.016 0.020 0.043 0.032 0.070l0.004 0.012c0.007 0.016 0.018 0.045 0.028 0.075l0.004 0.013c0.006 0.015 0.016 0.043 0.025 0.071l0.003 0.013c0.005 0.017 0.013 0.047 0.020 0.078l0.002 0.012c0.005 0.016 0.012 0.045 0.018 0.075l0.002 0.012c0.004 0.019 0.008 0.050 0.012 0.081l0.001 0.009c0.003 0.021 0.007 0.052 0.010 0.083l0.001 0.007c0.004 0.044 0.007 0.097 0.007 0.149v1.173c-0 0.056-0.003 0.111-0.008 0.165l0.001-0.007c-0.004 0.038-0.008 0.068-0.013 0.098l0.001-0.010c-0.005 0.040-0.010 0.071-0.015 0.101l0.002-0.011c-0.008 0.042-0.015 0.073-0.023 0.103l0.003-0.013c-0.009 0.041-0.017 0.069-0.025 0.097l0.003-0.013c-0.013 0.043-0.023 0.073-0.033 0.102l0.004-0.013c-0.013 0.040-0.024 0.067-0.034 0.094l0.004-0.012c-0.017 0.040-0.029 0.067-0.043 0.095l0.005-0.011c-0.017 0.038-0.030 0.064-0.043 0.090l0.005-0.010c-0.019 0.035-0.034 0.061-0.050 0.086l0.004-0.008c-0.019 0.034-0.035 0.060-0.051 0.084l0.004-0.007c-0.021 0.030-0.038 0.054-0.055 0.077l0.003-0.004c-0.021 0.029-0.040 0.053-0.059 0.077l0.003-0.003c-0.021 0.025-0.041 0.047-0.061 0.069l0.001-0.001c-0.021 0.023-0.040 0.044-0.060 0.065l0-0c-0.022 0.021-0.044 0.042-0.067 0.062l-0.002 0.002c-0.020 0.018-0.041 0.037-0.063 0.056l-0.003 0.002c-0.019 0.015-0.042 0.033-0.066 0.050l-0.005 0.004c-0.020 0.015-0.044 0.033-0.069 0.050l-0.006 0.004c-0.017 0.012-0.042 0.027-0.067 0.042l-0.008 0.005c-0.018 0.011-0.044 0.026-0.070 0.041l-0.010 0.005c-0.016 0.009-0.042 0.021-0.068 0.033l-0.011 0.005c-0.017 0.009-0.045 0.022-0.073 0.034l-0.012 0.005c-0.015 0.006-0.042 0.017-0.069 0.026l-0.013 0.004c-0.017 0.007-0.046 0.017-0.076 0.026l-0.013 0.003c-0.016 0.005-0.046 0.013-0.076 0.020l-0.012 0.002c-0.016 0.005-0.045 0.012-0.075 0.018l-0.012 0.002c-0.021 0.004-0.053 0.009-0.085 0.012l-0.009 0.001c-0.019 0.003-0.048 0.007-0.078 0.011l-0.008 0.001c-0.047 0.005-0.102 0.007-0.158 0.007h-0.14c-0.058-0-0.114-0.003-0.17-0.009l0.007 0.001c-0.039-0.004-0.069-0.008-0.1-0.013l0.010 0.001c-0.040-0.005-0.070-0.010-0.1-0.015l0.011 0.002c-0.043-0.009-0.073-0.016-0.103-0.024l0.013 0.003c-0.041-0.009-0.069-0.016-0.097-0.024l0.013 0.003c-0.042-0.013-0.071-0.023-0.1-0.034l0.012 0.004c-0.041-0.014-0.069-0.024-0.096-0.035l0.012 0.004c-0.039-0.016-0.066-0.029-0.093-0.042l0.011 0.005c-0.038-0.017-0.064-0.030-0.091-0.044l0.010 0.005c-0.035-0.019-0.061-0.034-0.086-0.050l0.008 0.004c-0.034-0.020-0.059-0.035-0.084-0.052l0.007 0.004c-0.029-0.021-0.053-0.038-0.075-0.056l0.004 0.003c-0.030-0.021-0.054-0.039-0.077-0.058l0.004 0.003c-0.025-0.021-0.047-0.041-0.069-0.061l0.001 0.001c-0.023-0.021-0.045-0.041-0.066-0.062l0 0c-0.021-0.021-0.041-0.043-0.061-0.066l-0.002-0.002c-0.019-0.020-0.038-0.042-0.056-0.064l-0.002-0.003c-0.015-0.019-0.033-0.043-0.050-0.067l-0.004-0.006c-0.015-0.019-0.033-0.043-0.049-0.067l-0.004-0.006c-0.011-0.017-0.026-0.042-0.041-0.068l-0.005-0.009c-0.002-0.002-0.008-0.013-0.014-0.023l-0.005-0.009v0.653c-0 0.018-0.001 0.035-0.003 0.051l0-0.003c-0.001 0.013-0.002 0.025-0.003 0.036l0-0.003c-0.002 0.016-0.004 0.028-0.006 0.040l0.001-0.004c0 0 0 0 0 0.001s0 0 0 0.001v-0c-0.003 0.014-0.005 0.023-0.007 0.033l0.001-0.005c-0.004 0.019-0.008 0.033-0.012 0.047l0.001-0.005c-0.003 0.012-0.006 0.020-0.008 0.028l0.001-0.005c-0.006 0.019-0.012 0.034-0.018 0.048l0.002-0.005c-0.004 0.012-0.007 0.018-0.010 0.025l0.002-0.005c-0.009 0.019-0.016 0.034-0.024 0.048l0.002-0.004c-0.006 0.011-0.010 0.019-0.014 0.026l0.002-0.003c-0.007 0.012-0.013 0.021-0.018 0.029l0.002-0.003c-0.008 0.013-0.015 0.023-0.023 0.033l0.001-0.002c-0.007 0.010-0.013 0.018-0.020 0.026l0.001-0.001c-0.008 0.011-0.016 0.020-0.023 0.029l0.001-0.001c-0.008 0.009-0.016 0.017-0.024 0.026l0-0c-0.008 0.008-0.016 0.016-0.024 0.024l-0 0c-0.008 0.007-0.017 0.014-0.025 0.022l-0.001 0.001c-0.007 0.006-0.015 0.013-0.024 0.020l-0.002 0.001c-0.008 0.006-0.017 0.013-0.027 0.020l-0.002 0.001c-0.007 0.005-0.015 0.011-0.025 0.016l-0.003 0.002c-0.007 0.004-0.017 0.010-0.027 0.016l-0.004 0.002c-0.006 0.004-0.016 0.009-0.026 0.014l-0.004 0.002c-0.006 0.003-0.016 0.007-0.027 0.012l-0.005 0.002c-0.006 0.003-0.017 0.008-0.029 0.012l-0.005 0.002c-0.006 0.002-0.016 0.006-0.026 0.009l-0.005 0.001c-0.006 0.002-0.017 0.005-0.028 0.008l-0.005 0.001c-0.007 0.002-0.018 0.005-0.030 0.007l-0.004 0.001c-0.007 0.002-0.018 0.004-0.029 0.005l-0.004 0.001c-0.008 0.001-0.020 0.003-0.032 0.004l-0.003 0c-0.008 0.001-0.019 0.002-0.031 0.003l-0.002 0c-0.005 0-0.011 0-0.018 0s-0.012-0-0.019-0l0.001 0c-0.005 0-0.011 0-0.017 0s-0.012-0-0.018-0l0.001 0c-0.013-0.001-0.025-0.002-0.036-0.003l0.003 0c-0.015-0.001-0.026-0.003-0.038-0.004l0.004 0c-0.016-0.003-0.028-0.005-0.039-0.008l0.005 0.001c-0.016-0.003-0.027-0.006-0.038-0.008l0.005 0.001c-0.016-0.004-0.027-0.007-0.038-0.011l0.005 0.001c-0.015-0.005-0.026-0.008-0.036-0.012l0.005 0.002c-0.016-0.006-0.027-0.010-0.038-0.015l0.004 0.002c-0.015-0.006-0.025-0.010-0.035-0.015l0.004 0.002c-0.014-0.007-0.024-0.012-0.034-0.018l0.003 0.002c-0.014-0.007-0.024-0.013-0.034-0.019l0.003 0.002c-0.011-0.007-0.020-0.013-0.029-0.019l0.002 0.001c-0.012-0.008-0.022-0.015-0.032-0.023l0.002 0.001c-0.010-0.008-0.018-0.014-0.026-0.021l0.001 0.001c-0.010-0.008-0.019-0.016-0.027-0.023l0.001 0.001c-0.008-0.008-0.016-0.016-0.024-0.024l-0-0c-0.008-0.008-0.015-0.016-0.023-0.025l-0.001-0.001c-0.007-0.008-0.015-0.017-0.022-0.027l-0.001-0.001c-0.005-0.007-0.011-0.015-0.017-0.023l-0.001-0.002c-0.006-0.008-0.013-0.018-0.020-0.029l-0.002-0.003c-0.002-0.004-0.006-0.010-0.010-0.017l-0.002-0.003c-0.009-0.015-0.020-0.034-0.029-0.054l-0.002-0.004c0.001 0.003 0 0.001-0-0l-0.002-0.004c-0.007-0.014-0.014-0.032-0.021-0.051l-0.002-0.005c0 0.002-0.001-0.002-0.002-0.005l-0.001-0.005c-0.004-0.011-0.009-0.027-0.014-0.044l-0.001-0.005c-0.001-0.002-0.003-0.009-0.004-0.017l-0.001-0.005c-0.002-0.009-0.005-0.022-0.007-0.036l-0-0.004c-0.001-0.005-0.003-0.015-0.004-0.025l-0-0.004c-0.001-0.005-0.001-0.013-0.002-0.020l-0-0.002c-0-0.001-0.001-0.006-0.001-0.011l-0-0.003c0-0 0-0 0-0.001s0-0 0-0.001v0c-0.001-0.013-0.002-0.029-0.002-0.045v-0.653c-0.010 0.019-0.016 0.029-0.022 0.039l0.005-0.009c-0.019 0.034-0.035 0.060-0.051 0.084l0.004-0.007c-0.020 0.030-0.037 0.053-0.055 0.076l0.003-0.004c-0.022 0.031-0.040 0.055-0.059 0.079l0.003-0.004c-0.020 0.024-0.039 0.045-0.058 0.066l0.001-0.001c-0.022 0.025-0.043 0.048-0.064 0.070l0.001-0.001c-0.021 0.020-0.042 0.040-0.065 0.060l-0.002 0.002c-0.020 0.019-0.042 0.039-0.064 0.058l-0.002 0.002c-0.020 0.016-0.044 0.034-0.068 0.052l-0.005 0.004c-0.019 0.015-0.042 0.032-0.066 0.049l-0.006 0.004c-0.018 0.012-0.042 0.027-0.068 0.042l-0.008 0.005c-0.018 0.011-0.044 0.027-0.071 0.041l-0.009 0.005c-0.016 0.009-0.042 0.022-0.069 0.034l-0.011 0.005c-0.016 0.008-0.043 0.021-0.071 0.033l-0.012 0.005c-0.016 0.007-0.044 0.018-0.073 0.028l-0.013 0.004c-0.016 0.007-0.044 0.016-0.073 0.026l-0.013 0.004c-0.015 0.005-0.044 0.012-0.072 0.019l-0.012 0.002c-0.018 0.005-0.048 0.013-0.080 0.019l-0.012 0.002c-0.018 0.004-0.048 0.008-0.077 0.012l-0.009 0.001c-0.021 0.004-0.052 0.008-0.084 0.011l-0.008 0.001c-0.049 0.005-0.106 0.008-0.163 0.008h-0.14c-0.056-0-0.111-0.003-0.165-0.009l0.007 0.001c-0.038-0.004-0.067-0.007-0.097-0.012l0.010 0.001c-0.041-0.005-0.073-0.009-0.104-0.015l0.011 0.002c-0.041-0.008-0.070-0.015-0.098-0.023l0.013 0.003c-0.042-0.009-0.072-0.017-0.101-0.025l0.013 0.003c-0.042-0.013-0.072-0.023-0.101-0.033l0.013 0.004c-0.040-0.013-0.067-0.024-0.094-0.034l0.012 0.004c-0.040-0.017-0.068-0.030-0.096-0.043l0.011 0.005c-0.038-0.017-0.064-0.029-0.090-0.043l0.010 0.005c-0.036-0.019-0.061-0.035-0.087-0.050l0.008 0.004c-0.034-0.019-0.058-0.034-0.082-0.050l0.007 0.004c-0.031-0.021-0.056-0.039-0.080-0.057l0.005 0.003c-0.028-0.021-0.051-0.039-0.074-0.057l0.003 0.003c-0.025-0.021-0.046-0.040-0.067-0.059l0.001 0.001c-0.025-0.022-0.047-0.043-0.069-0.064l0 0c-0.020-0.020-0.039-0.041-0.058-0.063l-0.002-0.002c-0.019-0.021-0.039-0.043-0.058-0.065l-0.002-0.003c-0.016-0.020-0.035-0.044-0.052-0.068l-0.004-0.005c-0.014-0.019-0.031-0.042-0.048-0.067l-0.004-0.006c-0.012-0.018-0.028-0.043-0.043-0.069l-0.005-0.009c-0.011-0.018-0.026-0.043-0.041-0.069l-0.005-0.009c-0.009-0.016-0.022-0.042-0.034-0.069l-0.005-0.011c-0.008-0.016-0.021-0.044-0.033-0.072l-0.004-0.012c-0.006-0.015-0.017-0.042-0.026-0.070l-0.004-0.013c-0.007-0.017-0.017-0.046-0.026-0.076l-0.004-0.013c-0.005-0.015-0.012-0.044-0.019-0.072l-0.002-0.012c-0.005-0.018-0.012-0.048-0.018-0.079l-0.002-0.012c-0.004-0.019-0.009-0.050-0.012-0.081l-0.001-0.009c-0.003-0.020-0.007-0.050-0.011-0.080l-0.001-0.008c-0.005-0.047-0.008-0.102-0.008-0.158v-1.172c0.001-0.054 0.004-0.107 0.009-0.159l-0.001 0.007c0.004-0.038 0.007-0.069 0.012-0.1l-0.001 0.010c0.005-0.039 0.010-0.069 0.015-0.099l-0.002 0.011c0.008-0.042 0.015-0.073 0.023-0.103l-0.003 0.013c0.010-0.042 0.018-0.071 0.027-0.1l-0.003 0.013c0.012-0.042 0.022-0.070 0.032-0.099l-0.004 0.013c0.014-0.041 0.024-0.070 0.036-0.098l-0.004 0.012c0.016-0.040 0.029-0.068 0.042-0.095l-0.005 0.011c0.017-0.038 0.030-0.064 0.043-0.089l-0.005 0.010c0.020-0.037 0.035-0.064 0.051-0.090l-0.005 0.008c0.019-0.033 0.034-0.057 0.050-0.081l-0.004 0.007c0.021-0.032 0.039-0.056 0.057-0.081l-0.003 0.005c0.021-0.029 0.038-0.052 0.056-0.074l-0.003 0.004c0.021-0.026 0.041-0.048 0.062-0.070l-0.001 0.001c0.021-0.024 0.042-0.046 0.062-0.067l-0 0c0.020-0.020 0.041-0.039 0.063-0.058l0.002-0.002c0.021-0.020 0.044-0.040 0.068-0.060l0.003-0.002c0.019-0.015 0.041-0.033 0.064-0.050l0.005-0.003c0.020-0.015 0.044-0.032 0.069-0.049l0.007-0.004c0.034-0.024 0.076-0.050 0.119-0.075l0.009-0.005c0.003-0.036 0.007-0.066 0.012-0.096l-0.001 0.007c0.004-0.028 0.007-0.050 0.011-0.071l-0.001 0.008c0.006-0.030 0.011-0.052 0.016-0.073l-0.002 0.009c0.007-0.030 0.013-0.051 0.019-0.071l-0.002 0.009c0.009-0.030 0.015-0.051 0.023-0.072l-0.003 0.009c0.010-0.029 0.018-0.049 0.026-0.069l-0.003 0.009c0.012-0.028 0.021-0.048 0.030-0.067l-0.003 0.008c0.015-0.034 0.028-0.060 0.042-0.086l-0.003 0.007c0.002-0.005 0.005-0.009 0.007-0.013l-0 0.001c0.001-0.001 0.002-0.003 0.003-0.004l-0 0c0.002-0.003 0.005-0.006 0.007-0.009l-0 0c0.002-0.002 0.003-0.003 0.004-0.005l-0 0c0.002-0.002 0.003-0.004 0.005-0.005l-0 0c0.002-0.003 0.004-0.005 0.007-0.007l-0 0c0.001-0.001 0.003-0.002 0.004-0.004l0-0c0.002-0.002 0.005-0.004 0.007-0.006l0-0c0.002-0.001 0.005-0.003 0.007-0.005l0.001-0c0.001-0.001 0.003-0.002 0.005-0.003l0.001-0c0.003-0.002 0.006-0.004 0.010-0.006l0.001-0c0-0 0.002-0.001 0.003-0.002l0.001-0c0.002-0.001 0.005-0.002 0.008-0.004l0.001-0c0.001-0.001 0.004-0.002 0.006-0.003l0.001-0c0.001-0 0.003-0.001 0.005-0.002l0.001-0c0.002-0.001 0.005-0.002 0.008-0.002l0.001-0c0.002-0.001 0.005-0.001 0.008-0.002l0.001-0c0.001-0 0.004-0.001 0.006-0.001l0.001-0c0.001-0 0.004-0 0.006-0.001l0.001-0c0.003-0 0.007-0.001 0.011-0.001l0.001-0c0.001 0 0.001-0 0.002-0s0.001 0 0.002 0h-0c0.002-0 0.004-0 0.006-0s0.004 0 0.007 0l-0-0c0.001-0 0.002-0 0.002-0s0.002 0 0.002 0h-0c0.005 0.001 0.008 0.001 0.012 0.002l-0.001-0c0.003 0.001 0.006 0.001 0.008 0.002l-0.001-0c0.004 0.001 0.007 0.001 0.010 0.002l-0.001-0c0.004 0.001 0.007 0.002 0.009 0.003l-0.001-0c0.004 0.001 0.006 0.002 0.008 0.002l-0.001-0c0.004 0.001 0.007 0.003 0.010 0.004l-0.001-0c0.003 0.002 0.005 0.003 0.008 0.004l-0.001-0c0.003 0.002 0.005 0.003 0.008 0.004l-0.001-0c0.004 0.002 0.006 0.003 0.009 0.004l-0.001-0c0.003 0.002 0.005 0.003 0.007 0.004l-0.001-0c0.003 0.002 0.006 0.004 0.008 0.006l-0-0c0.002 0.001 0.004 0.003 0.005 0.004l-0-0c0.003 0.002 0.006 0.005 0.008 0.007l-0-0c0.002 0.002 0.004 0.004 0.007 0.007l0 0c0.002 0.002 0.004 0.004 0.007 0.007l0 0v-0.003l0.314 0.349c0.001 0 0.002 0 0.003 0s0.002 0 0.004 0h-0c-0.001-0.018-0.001-0.039-0.001-0.060 0-0.015 0-0.030 0.001-0.045l-0 0.002c0.001-0.026 0.002-0.050 0.004-0.074l-0 0.005c0.002-0.026 0.004-0.047 0.007-0.068l-0.001 0.006c0.004-0.029 0.007-0.051 0.011-0.073l-0.001 0.008c0.005-0.030 0.010-0.051 0.015-0.072l-0.002 0.009c0.007-0.030 0.012-0.051 0.018-0.072l-0.002 0.009c0.009-0.030 0.015-0.051 0.023-0.072l-0.003 0.009c0.010-0.030 0.018-0.050 0.026-0.070l-0.003 0.009c0.011-0.028 0.019-0.047 0.027-0.066l-0.003 0.008c0.018-0.040 0.033-0.071 0.050-0.101l-0.003 0.007c0.057-0.090 0.143-0.109 0.213-0.055 0.010 0.007 0.020 0.017 0.029 0.027l1.187 1.293v-0.001c0.020 0.020 0.040 0.040 0.060 0.058l0.001 0.001c0.014 0.014 0.030 0.028 0.046 0.041l0.002 0.001c0.014 0.012 0.031 0.025 0.047 0.038l0.003 0.002c0.014 0.011 0.031 0.023 0.048 0.035l0.004 0.003c0.012 0.008 0.030 0.019 0.048 0.030l0.006 0.003c0.013 0.008 0.031 0.019 0.050 0.030l0.006 0.003c0.012 0.007 0.030 0.016 0.049 0.025l0.008 0.003c0.011 0.006 0.030 0.015 0.050 0.023l0.008 0.003c0.012 0.005 0.032 0.014 0.052 0.021l0.009 0.003c0.011 0.004 0.030 0.011 0.050 0.018l0.009 0.003c0.012 0.004 0.033 0.010 0.054 0.015l0.009 0.002c0.011 0.003 0.032 0.008 0.052 0.013l0.009 0.002c0.014 0.003 0.036 0.007 0.058 0.010l0.007 0.001c0.014 0.003 0.035 0.006 0.057 0.008l0.006 0.001c0.017 0.002 0.039 0.003 0.062 0.004l0.002 0c0.019 0.001 0.041 0.002 0.064 0.002h0c0.023-0 0.046-0.001 0.068-0.002l-0.003 0c0.025-0.001 0.047-0.002 0.069-0.004l-0.005 0c0.028-0.003 0.049-0.006 0.070-0.010l-0.008 0.001c0.029-0.004 0.051-0.008 0.073-0.012l-0.008 0.001c0.029-0.006 0.049-0.011 0.069-0.017l-0.009 0.002c0.030-0.007 0.052-0.013 0.073-0.019l-0.009 0.002c0.029-0.009 0.049-0.016 0.068-0.024l-0.009 0.003c0.029-0.010 0.050-0.019 0.070-0.027l-0.008 0.003c0.028-0.012 0.047-0.021 0.065-0.030l-0.007 0.003c0.026-0.012 0.045-0.022 0.063-0.032l-0.007 0.003c0.025-0.014 0.043-0.025 0.061-0.036l-0.005 0.003c0.024-0.014 0.041-0.025 0.058-0.036l-0.005 0.003c0.021-0.015 0.038-0.028 0.055-0.041l-0.003 0.002c0.020-0.015 0.036-0.028 0.052-0.041l-0.002 0.002c0.018-0.015 0.033-0.029 0.049-0.043l-0.001 0.001c0.022-0.020 0.042-0.039 0.061-0.059l0 0 1.187-1.293c0.009-0.010 0.018-0.019 0.029-0.026l0.001-0c0.020-0.015 0.045-0.026 0.071-0.029l0.001-0zM10.237 2.963c-0.542 0.495-0.946 1.143-1.55 1.572-0.621 0.371-1.473 0.129-1.882-0.447-0.341-0.373-0.671-0.78-1.042-1.111-0.216 0.172-0.109 0.497-0.221 0.719-0.139 0.137-0.28-0.121-0.351-0.211-0.056-0.113-0.211-0.189-0.257-0.032-0.109 0.185-0.027 0.493-0.277 0.571-0.613 0.393-0.851 1.171-0.766 1.861-0.020 0.655-0.044 1.411 0.465 1.906 0.737 0.787 2.193 0.699 2.783-0.213 0.039-0.093 0.097-0.201 0.174-0.28v-0.28c0-0.001 0-0.001 0-0.002s0-0.001 0-0.002v0l-0.233-0.039c-0.016-0.003-0.028-0.017-0.028-0.034 0-0.002 0-0.003 0-0.005l-0 0c0.083-0.454 0.474-0.794 0.945-0.796h0c0.001 0 0.003-0 0.004-0 0.473 0 0.866 0.341 0.948 0.79l0.001 0.006c0 0.001 0 0.003 0 0.004 0 0.017-0.012 0.031-0.029 0.034l-0 0-0.233 0.040c0 0 0 0 0 0s0 0 0 0v-0 0.253l0.005 0.001c0.389 1.023 1.819 1.378 2.678 0.752 0.458-0.33 0.752-0.861 0.752-1.461 0-0.081-0.005-0.16-0.016-0.238l0.001 0.009c0.009-0.689 0.087-1.487-0.435-2.028-0.144-0.18-0.403-0.266-0.508-0.465-0.037-0.167-0.027-0.392-0.191-0.491-0.207 0.086-0.254 0.371-0.485 0.423-0.133-0.253-0.037-0.598-0.251-0.808zM5.615 4.312c0.734 0 1.329 0.596 1.329 1.33v0 0.8c-0.005 0.224-0.065 0.433-0.167 0.615l0.003-0.007c-0.060-0.031-0.239-0.105-0.42-0.176l-0.123-0.043c0.008-0.008 0.015-0.016 0.023-0.024l0.001-0.001c0.003-0.003 0.007-0.007 0.010-0.011l0.001-0.001c0.010-0.012 0.021-0.024 0.031-0.037l0.001-0.002c0.001-0.002 0.004-0.006 0.007-0.009l0.001-0.002c0.008-0.011 0.017-0.024 0.025-0.037l0.002-0.003c0.001-0.002 0.004-0.006 0.007-0.011l0.002-0.003c0.006-0.010 0.013-0.024 0.020-0.038l0.002-0.004c0.001-0.001 0.003-0.006 0.006-0.011l0.002-0.004c0.004-0.009 0.010-0.022 0.015-0.036l0.001-0.004c0.001-0.003 0.004-0.009 0.007-0.016l0.001-0.004c0.003-0.008 0.007-0.021 0.010-0.034l0.001-0.004c0.001-0.003 0.003-0.010 0.005-0.018l0.001-0.004c0.002-0.008 0.004-0.020 0.006-0.032l0-0.004c0.001-0.006 0.003-0.015 0.004-0.025l0-0.003c0.002-0.015 0.004-0.034 0.005-0.053l0-0.001v-0.689c-0-0.019-0.001-0.038-0.003-0.056l0 0.003c-0.001-0.013-0.002-0.024-0.004-0.035l0 0.003c-0.002-0.014-0.003-0.025-0.005-0.035l0.001 0.004c-0.003-0.015-0.005-0.025-0.008-0.036l0.001 0.004c-0.003-0.014-0.006-0.025-0.009-0.034l0.001 0.004c-0.005-0.015-0.008-0.025-0.012-0.036l0.001 0.004c-0.005-0.014-0.008-0.023-0.011-0.032l0.001 0.004c-0.006-0.015-0.010-0.025-0.015-0.035l0.002 0.004c-0.006-0.013-0.010-0.021-0.015-0.030l0.002 0.003c-0.007-0.012-0.012-0.022-0.018-0.031l0.002 0.003c-0.007-0.012-0.012-0.021-0.018-0.029l0.002 0.003c-0.007-0.010-0.013-0.018-0.019-0.025l0.001 0.001c-0.008-0.010-0.014-0.019-0.021-0.027l0.001 0.001c-0.007-0.008-0.014-0.016-0.020-0.023l0 0c-0.008-0.009-0.015-0.017-0.022-0.024l0 0c-0.007-0.007-0.015-0.014-0.023-0.021l-0.001-0.001c-0.007-0.007-0.015-0.013-0.022-0.020l-0.001-0.001c-0.007-0.006-0.015-0.012-0.024-0.018l-0.002-0.001c-0.007-0.005-0.015-0.011-0.024-0.017l-0.002-0.001c-0.006-0.004-0.015-0.010-0.024-0.015l-0.003-0.002c-0.006-0.004-0.015-0.009-0.023-0.014l-0.003-0.002c-0.006-0.003-0.015-0.008-0.025-0.012l-0.004-0.002c-0.006-0.003-0.016-0.008-0.026-0.012l-0.004-0.002c-0.005-0.002-0.015-0.006-0.024-0.010l-0.004-0.001c-0.005-0.002-0.015-0.005-0.024-0.008l-0.004-0.001c-0.006-0.002-0.017-0.005-0.028-0.007l-0.004-0.001c-0.006-0.002-0.016-0.004-0.027-0.006l-0.004-0.001c-0.006-0.001-0.016-0.003-0.026-0.005l-0.004-0c-0.007-0.001-0.018-0.003-0.029-0.004l-0.003-0c-0.016-0.002-0.034-0.003-0.053-0.003h-0c-0.015 0.001-0.029 0.002-0.043 0.003l0.003-0c-0.014 0.001-0.025 0.002-0.037 0.004l0.003-0c-0.013 0.002-0.023 0.003-0.033 0.005l0.004-0.001c-0.015 0.003-0.027 0.005-0.038 0.008l0.004-0.001c-0.015 0.003-0.025 0.006-0.035 0.009l0.005-0.001c-0.015 0.004-0.026 0.007-0.036 0.011l0.005-0.001c-0.015 0.005-0.025 0.009-0.035 0.014l0.004-0.002c-0.017 0.006-0.029 0.011-0.041 0.017l0.004-0.002c0.009 0.009 0.018 0.017 0.026 0.026l0 0c0.005 0.005 0.010 0.010 0.014 0.016l0 0c0.003 0.004 0.007 0.008 0.011 0.013l0.001 0.001c0.003 0.004 0.007 0.010 0.011 0.015l0.001 0.001c0.003 0.004 0.007 0.010 0.010 0.016l0.001 0.002c0.002 0.003 0.005 0.008 0.008 0.013l0.001 0.002c0.003 0.004 0.006 0.010 0.010 0.017l0.001 0.002c0.002 0.003 0.004 0.009 0.006 0.015l0.001 0.003c0.002 0.004 0.005 0.011 0.008 0.017l0.001 0.003c0.001 0.003 0.003 0.008 0.005 0.014l0.001 0.003c0.002 0.004 0.004 0.011 0.006 0.018l0.001 0.003c0.001 0.004 0.003 0.011 0.004 0.017l0 0.003c0.001 0.004 0.002 0.010 0.004 0.017l0 0.002c0.001 0.006 0.002 0.015 0.003 0.023l0 0.001c0 0.003 0.001 0.008 0.001 0.013l0 0.001c0 0.004 0 0.009 0 0.014s-0 0.010-0 0.014l0-0.001c0 0.002 0 0.004 0 0.007s-0 0.005-0 0.007v-0c-0 0.008-0.001 0.015-0.001 0.022l0-0.002c-0.001 0.008-0.001 0.016-0.002 0.023l0-0.002c-0.001 0.008-0.002 0.013-0.003 0.019l0-0.003c-0.002 0.010-0.003 0.018-0.005 0.025l0.001-0.003c-0.002 0.009-0.004 0.015-0.006 0.021l0.001-0.003c-0.003 0.010-0.005 0.016-0.008 0.023l0.001-0.003c-0.003 0.009-0.006 0.016-0.009 0.023l0.001-0.003c-0.003 0.008-0.005 0.013-0.008 0.019l0.001-0.003c-0.004 0.009-0.008 0.015-0.012 0.022l0.001-0.002c-0.004 0.008-0.007 0.013-0.010 0.018l0.001-0.002c-0.005 0.008-0.010 0.015-0.014 0.021l0.001-0.001c-0.004 0.006-0.006 0.009-0.009 0.013l0.001-0.001c-0.006 0.008-0.012 0.015-0.018 0.022l0-0c-0.003 0.004-0.006 0.007-0.009 0.010l0-0c-0.004 0.005-0.009 0.009-0.013 0.013l-0 0c-0.005 0.006-0.010 0.011-0.016 0.016l-0 0c-0.003 0.003-0.008 0.006-0.012 0.009l-0.001 0.001c-0.005 0.004-0.010 0.009-0.016 0.013l-0.001 0.001c-0.005 0.003-0.010 0.007-0.016 0.011l-0.002 0.001c-0.004 0.003-0.009 0.006-0.014 0.009l-0.002 0.001c-0.003 0.002-0.008 0.004-0.013 0.007l-0.002 0.001c-0.005 0.003-0.011 0.006-0.018 0.010l-0.002 0.001c-0.005 0.002-0.012 0.005-0.020 0.008l-0.003 0.001c-0.002 0.001-0.006 0.003-0.011 0.004l-0.003 0.001c-0.006 0.002-0.014 0.004-0.023 0.007l-0.003 0.001c-0.002 0.001-0.006 0.002-0.011 0.003l-0.003 0.001c-0.005 0.001-0.013 0.003-0.020 0.004l-0.002 0c-0.003 0.001-0.009 0.002-0.015 0.003l-0.002 0c-0.007 0.001-0.017 0.002-0.026 0.002l-0.001 0c-0.002 0-0.006 0.001-0.010 0.001l-0.002 0c-0.003 0-0.008 0-0.012 0s-0.008-0-0.012-0l0.001 0c-0.003 0-0.006 0-0.009 0s-0.007-0-0.010-0l0 0c-0.009-0.001-0.016-0.002-0.023-0.004l0.003 0c-0.008-0.001-0.014-0.001-0.019-0.002l0.002 0c-0.015-0.003-0.028-0.005-0.040-0.009l0.003 0.001v0.573c0.001 0.013 0.002 0.024 0.003 0.035l-0-0.003c0.001 0.017 0.003 0.031 0.005 0.045l-0-0.003c-0.222-0.071-0.521-0.147-0.826-0.21l-0.065-0.011v-0.605c-0-0.002-0-0.004-0-0.007 0-0.732 0.593-1.325 1.325-1.325 0.002 0 0.003 0 0.005 0h-0zM10.385 4.312c0 0 0 0 0.001 0 0.735 0 1.33 0.595 1.33 1.33v0 0.606c-0.283 0.057-0.58 0.13-0.891 0.222 0.002-0.012 0.003-0.027 0.005-0.042l0-0.002c0.001-0.008 0.002-0.018 0.003-0.029l0-0.002v-0.689c-0-0.019-0.001-0.038-0.003-0.057l0 0.003c-0.001-0.013-0.003-0.024-0.004-0.034l0 0.004c-0.002-0.014-0.003-0.025-0.005-0.035l0.001 0.004c-0.003-0.014-0.005-0.025-0.008-0.035l0.001 0.004c-0.003-0.015-0.006-0.026-0.009-0.036l0.001 0.004c-0.004-0.014-0.007-0.023-0.011-0.032l0.001 0.004c-0.005-0.015-0.009-0.026-0.014-0.036l0.002 0.004c-0.006-0.014-0.010-0.023-0.014-0.032l0.002 0.004c-0.006-0.013-0.010-0.022-0.015-0.032l0.002 0.004c-0.007-0.012-0.012-0.021-0.018-0.029l0.002 0.003c-0.007-0.012-0.012-0.022-0.018-0.031l0.002 0.003c-0.007-0.011-0.013-0.019-0.020-0.028l0.001 0.002c-0.007-0.010-0.013-0.017-0.020-0.025l0.001 0.001c-0.008-0.009-0.015-0.017-0.022-0.025l0 0c-0.007-0.009-0.014-0.016-0.022-0.024l0 0c-0.007-0.007-0.015-0.014-0.023-0.021l-0.001-0.001c-0.007-0.006-0.014-0.013-0.021-0.019l-0.001-0.001c-0.007-0.006-0.016-0.012-0.025-0.019l-0.002-0.001c-0.006-0.005-0.014-0.010-0.022-0.016l-0.002-0.001c-0.007-0.005-0.016-0.010-0.025-0.016l-0.003-0.002c-0.006-0.004-0.015-0.009-0.023-0.014l-0.003-0.002c-0.006-0.003-0.015-0.007-0.024-0.012l-0.004-0.002c-0.006-0.003-0.016-0.008-0.026-0.012l-0.004-0.002c-0.005-0.002-0.013-0.006-0.022-0.009l-0.004-0.001c-0.006-0.002-0.017-0.006-0.028-0.009l-0.004-0.001c-0.006-0.002-0.016-0.005-0.026-0.007l-0.004-0.001c-0.006-0.002-0.017-0.004-0.027-0.006l-0.004-0.001c-0.007-0.001-0.017-0.003-0.028-0.004l-0.003-0c-0.007-0.001-0.017-0.003-0.027-0.004l-0.003-0c-0.016-0.002-0.035-0.003-0.054-0.003h-0c-0.015 0.001-0.028 0.002-0.041 0.003l0.003-0c-0.012 0.001-0.023 0.002-0.033 0.003l0.003-0c-0.015 0.002-0.027 0.004-0.039 0.006l0.004-0.001c-0.014 0.002-0.024 0.004-0.034 0.006l0.004-0.001c-0.015 0.003-0.025 0.006-0.035 0.009l0.005-0.001c-0.015 0.004-0.026 0.007-0.036 0.011l0.005-0.001c-0.014 0.005-0.024 0.008-0.033 0.012l0.004-0.002c-0.014 0.005-0.024 0.009-0.034 0.014l0.004-0.002c-0.014 0.007-0.024 0.012-0.033 0.017l0.003-0.002c-0.015 0.007-0.025 0.012-0.035 0.018l0.003-0.002c0.009 0.009 0.018 0.019 0.026 0.029l0.001 0.001c0.007 0.009 0.014 0.020 0.021 0.032l0.001 0.002c0.006 0.009 0.013 0.021 0.019 0.032l0.001 0.002c0.005 0.009 0.010 0.022 0.015 0.034l0.001 0.003c0.004 0.010 0.008 0.022 0.011 0.035l0.001 0.003c0.001 0.003 0.002 0.009 0.003 0.014l0 0.002c0.001 0.005 0.003 0.013 0.004 0.020l0 0.002c0.001 0.007 0.002 0.017 0.003 0.027l0 0.001c0 0.002 0.001 0.006 0.001 0.010l0 0.002c0 0 0 0 0 0s0 0 0 0v-0c0 0.006 0.001 0.013 0.001 0.020s-0 0.014-0.001 0.021l0-0.001c-0.001 0.015-0.002 0.028-0.004 0.042l0-0.002c-0.001 0.007-0.002 0.012-0.003 0.017l0-0.003c-0.002 0.011-0.003 0.019-0.005 0.027l0.001-0.003c-0.004 0.016-0.008 0.028-0.012 0.041l0.001-0.003c0 0 0 0 0 0s0 0 0 0v-0c-0.005 0.015-0.011 0.027-0.016 0.039l0.001-0.002c-0.007 0.014-0.013 0.026-0.020 0.037l0.001-0.002c-0.008 0.013-0.015 0.024-0.023 0.034l0.001-0.001c-0.009 0.011-0.017 0.021-0.026 0.031l0-0c-0.009 0.010-0.018 0.019-0.028 0.028l-0 0c-0.009 0.008-0.019 0.017-0.030 0.025l-0.001 0.001c-0.009 0.007-0.020 0.014-0.032 0.021l-0.002 0.001c-0 0-0 0-0 0s-0 0-0 0h0c-0.009 0.006-0.021 0.012-0.033 0.017l-0.002 0.001c-0.009 0.005-0.021 0.010-0.034 0.014l-0.003 0.001c-0.010 0.003-0.023 0.007-0.036 0.010l-0.003 0.001c-0.005 0.001-0.012 0.002-0.019 0.004l-0.002 0c-0.017 0.003-0.037 0.006-0.057 0.007l-0.001 0c-0.006 0-0.013 0-0.020 0s-0.014-0-0.021-0.001l0.001 0v0.559c0.001 0.021 0.002 0.040 0.005 0.059l-0-0.003c0.002 0.013 0.003 0.023 0.005 0.032l-0.001-0.004c0.002 0.016 0.005 0.028 0.007 0.040l-0.001-0.004c0.003 0.012 0.006 0.019 0.008 0.026l-0.001-0.004c0.004 0.018 0.008 0.031 0.012 0.044l-0.001-0.004c0.004 0.011 0.006 0.017 0.009 0.024l-0.002-0.004c0.007 0.018 0.012 0.031 0.018 0.044l-0.002-0.004c0.004 0.009 0.006 0.014 0.008 0.018l-0.002-0.004c0.009 0.018 0.016 0.031 0.024 0.045l-0.002-0.003c0.004 0.007 0.006 0.011 0.009 0.015l-0.002-0.003c0.010 0.017 0.019 0.031 0.029 0.044l-0.001-0.002c0.003 0.004 0.005 0.006 0.007 0.009l-0.001-0.001c0.012 0.016 0.023 0.029 0.035 0.043l-0.001-0.001c0.002 0.002 0.004 0.004 0.005 0.005l0 0c0.010 0.011 0.019 0.021 0.029 0.031v0c-0.179 0.069-0.36 0.142-0.543 0.22-0.099-0.176-0.159-0.386-0.165-0.609l-0-0.002v-0.8c-0-0.002-0-0.004-0-0.006 0-0.731 0.593-1.324 1.324-1.324 0.002 0 0.003 0 0.005 0h-0zM8.023 6.213c-0.025 0-0.051 0-0.077 0.002-0.399 0.028-0.725 0.312-0.815 0.689l-0.001 0.006 0.867 0.132 0.459-0.072 0.402-0.092c-0.087-0.377-0.453-0.655-0.835-0.665zM8.597 7.003c-0.056-0.003-0.006 0.095-0.016 0.143 0.007 0.302 0.017 0.608-0.016 0.908-0.095 0.369-0.595 0.557-0.9 0.318-0.225-0.157-0.283-0.456-0.247-0.712-0.001-0.213-0.013-0.427 0.009-0.64-0.107-0.057-0.040 0.071-0.057 0.129 0.007 0.406-0.033 0.817 0.030 1.219 0.124 0.399 0.685 0.57 1 0.287 0.207-0.167 0.266-0.457 0.233-0.711-0.003-0.311 0.008-0.622-0.006-0.933-0.009-0.004-0.019-0.007-0.030-0.008l-0-0zM8.501 7.033c-0.017 0.002-0.031 0.005-0.046 0.009l0.002-0c-0.017 0.007-0.042 0.015-0.067 0.022l-0.007 0.002-0.020 0.005c-0.013 0.004-0.032 0.008-0.051 0.012l-0.006 0.001-0.019 0.004c-0.053 0.011-0.115 0.018-0.178 0.020l-0.002 0-0.023 0.001c-0.015 0-0.032 0.001-0.049 0.001s-0.035-0-0.052-0.001l0.003 0h-0.011c-0.043-0.002-0.083-0.005-0.122-0.009l0.008 0.001c-0.004 0-0.008 0-0.011-0.001-0.082-0.009-0.146-0.018-0.209-0.028l0.023 0.003-0.048-0.007-0.121-0.022c-0.015 0.044-0.023 0.095-0.023 0.148 0 0 0 0.001 0 0.001v-0 0.725c0.003 0.277 0.239 0.5 0.53 0.503h0c0 0 0 0 0 0 0.292 0 0.529-0.225 0.529-0.503 0-0 0-0 0-0.001v0-0.726c-0-0.057-0.011-0.112-0.030-0.164l0.001 0.004zM8.527 7.945c-0.001 0.011-0.002 0.019-0.004 0.026l0-0.003c0.001-0.005 0.002-0.013 0.003-0.021l0-0.003zM8.519 7.999c-0.002 0.010-0.004 0.017-0.005 0.024l0.001-0.004c0.001-0.003 0.003-0.010 0.004-0.017l0.001-0.003zM8.505 8.049c-0.003 0.010-0.005 0.017-0.008 0.024l0.001-0.004c0.001-0.003 0.004-0.010 0.006-0.016l0.001-0.004zM8.487 8.102c-0.004 0.008-0.006 0.013-0.008 0.018l0.001-0.003c0.001-0.002 0.003-0.006 0.005-0.011l0.001-0.003zM8.463 8.149c-0.004 0.007-0.007 0.011-0.009 0.016l0.001-0.002c0.001-0.002 0.004-0.006 0.007-0.011l0.001-0.002zM8.434 8.196c-0.003 0.005-0.005 0.008-0.008 0.011l0.001-0.001c0.001-0.002 0.003-0.005 0.006-0.008l0.001-0.002zM8.401 8.239c-0.002 0.002-0.004 0.004-0.007 0.007l-0 0c0.002-0.002 0.004-0.004 0.007-0.007l0-0zM8.365 8.276c-0.001 0.001-0.003 0.003-0.004 0.004l-0 0c0.001-0.001 0.003-0.003 0.004-0.004l0-0zM6.321 10.023c0.001-0 0.003-0 0.005-0s0.003 0 0.005 0l-0-0h1.215c0.001-0 0.003-0 0.004-0 0.052 0 0.093 0.042 0.093 0.093 0 0.010-0.002 0.019-0.004 0.028l0-0.001c-0.093 0.28-0.382 0.473-0.704 0.475-0.006 0-0.012 0-0.019 0-0.31 0-0.575-0.195-0.678-0.47l-0.002-0.005c-0.004-0.010-0.006-0.021-0.006-0.033 0-0.049 0.039-0.088 0.088-0.088 0.001 0 0.002 0 0.002 0h-0zM8.457 10.023c0.001-0 0.001-0 0.002-0s0.001 0 0.002 0h1.216c0.001-0 0.002-0 0.004-0 0.052 0 0.093 0.042 0.093 0.093 0 0.009-0.001 0.018-0.004 0.027l0-0.001c-0.093 0.279-0.381 0.473-0.707 0.473-0.005 0-0.011 0-0.017 0-0.309 0-0.573-0.194-0.677-0.467l-0.002-0.005c-0.002-0.007-0.003-0.016-0.003-0.025 0-0.052 0.041-0.094 0.092-0.096h0zM7.39 11.055c0-0 0.001-0 0.002-0s0.001 0 0.002 0h1.216c0.001-0 0.002-0 0.004-0 0.052 0 0.093 0.042 0.093 0.093 0 0.010-0.002 0.020-0.005 0.029l0-0.001c-0.090 0.282-0.379 0.474-0.704 0.474-0.005 0-0.012 0-0.018 0-0.31 0-0.575-0.195-0.677-0.469l-0.002-0.005c-0.003-0.008-0.004-0.018-0.004-0.028 0-0.052 0.042-0.093 0.093-0.093 0 0 0 0 0 0h-0zM2.967 12.157c-0.174 0.005-0.33 0.080-0.44 0.199l-0 0v-0.001c-0.104 0.112-0.168 0.262-0.168 0.428 0 0.179 0.075 0.341 0.195 0.455l0.726 0.68c0.11 0.099 0.257 0.159 0.417 0.159 0.345 0 0.625-0.28 0.625-0.625 0-0.174-0.071-0.332-0.186-0.445l-0-0-0.725-0.679c-0.111-0.106-0.262-0.171-0.428-0.171-0.006 0-0.011 0-0.016 0l0.001-0zM13.043 12.157c-0.007-0-0.016-0-0.024-0-0.166 0-0.317 0.065-0.428 0.171l0-0-0.726 0.679c-0.122 0.114-0.197 0.276-0.197 0.456 0 0.346 0.28 0.626 0.626 0.626 0.166 0 0.317-0.065 0.429-0.17l-0 0 0.725-0.679c0.121-0.115 0.195-0.277 0.195-0.456 0-0.165-0.064-0.316-0.168-0.428l0 0c-0.108-0.117-0.26-0.192-0.43-0.199l-0.001-0z"></path>
</svg>
