<!-- Generated by IcoMoon.io -->
<svg version="1.1" xmlns="http://www.w3.org/2000/svg" width="16" height="16" viewBox="0 0 16 16">
<title>dynatrace</title>
<path fill="#1496ff" d="M6.249 0c-0.207 0.004-0.62 0.060-1.014 0.436-0.581 0.549-3.483 3.304-4.648 4.411-0.527 0.503-0.48 1.063-0.48 1.109v0.251c0.045-0.195 0.125-0.333 0.285-0.55 0.331-0.411 0.867-0.525 1.085-0.548 0 0 0 0 0.001 0s0 0 0.001 0h-0c1.253-0.181 2.757-0.312 4.28-0.364l0.071-0.002c2.89-0.091 4.798 0.15 4.798 0.15l4.056-3.862c0 0-2.125-0.4-4.547-0.685-0.978-0.13-2.273-0.252-3.58-0.334l-0.179-0.009c-0.014 0-0.060-0.005-0.129-0.004zM15.289 1.672l-4.044 3.86c0 0 0.148 1.92-0.091 4.799-0.126 1.633-0.389 3.244-0.583 4.329-0.035 0.217-0.171 0.743-0.617 1.063-0.193 0.132-0.327 0.197-0.499 0.242 1.031-0.34 0.727-4.698 0.727-4.698-2.89 0.091-4.809-0.148-4.809-0.148l-4.056 3.861c0 0 2.148 0.423 4.57 0.697 1.371 0.16 3.222 0.286 3.485 0.309 0.015 0 0.030-0.005 0.045-0.008-0.009 0.002-0.015 0.006-0.023 0.008 0.092 0 0.173 0.010 0.253 0.010 0.057 0 0.617 0.070 1.142-0.432 1.165-1.109 4.055-3.873 4.627-4.422 0.525-0.503 0.48-1.063 0.48-1.12-0.003-1.332-0.053-2.646-0.149-3.948l0.011 0.179c-0.16-2.433-0.467-4.581-0.468-4.58zM2.571 5.537c-1.154 0.001-2.339 0.139-2.464 0.681 0.011 0.811 0.033 2.091 0.137 3.52 0.16 2.433 0.469 4.591 0.469 4.591l4.055-3.86c-0.011 0.011-0.159-1.92 0.081-4.799h-0.001c0 0-1.123-0.135-2.276-0.133z"></path>
</svg>
