<!-- Generated by IcoMoon.io -->
<svg version="1.1" xmlns="http://www.w3.org/2000/svg" width="16" height="16" viewBox="0 0 16 16">
<title>ebay</title>
<path fill="#e53238" d="M4.037 8.087v-3.28h0.8v2.017c0.393-0.469 0.935-0.604 1.468-0.604 0.893 0 1.885 0.603 1.885 1.903 0 0.155-0.010 0.305-0.040 0.445 0.16-0.635 0.849-0.87 1.931-0.896 0.34-0.012 0.73-0.012 1.040-0.012v-0.090c0-0.59-0.371-0.829-1.020-0.829-0.48 0-0.83 0.2-0.87 0.54h-0.85c0.091-0.86 1-1.080 1.791-1.080 0.709 0 1.33 0.18 1.61 0.68l-0.291-0.56h0.94l1.37 2.75 1.37-2.751h0.829l-2.48 4.87h-0.897l0.713-1.36-1.553-2.92c0.087 0.17 0.133 0.37 0.133 0.62v1.64c0 0.231 0.007 0.46 0.027 0.67h-0.743c-0.020-0.17-0.031-0.34-0.031-0.51-0.402 0.489-0.88 0.64-1.547 0.64-0.987 0-1.515-0.52-1.515-1.13 0-0.1 0.010-0.189 0.025-0.27-0.2 0.831-0.907 1.391-1.845 1.391-0.58 0-1.129-0.21-1.467-0.62 0 0.16-0.010 0.329-0.027 0.489h-0.787c0.013-0.26 0.027-0.57 0.027-0.83v-0.7h-3.22c0.043 0.73 0.545 1.16 1.235 1.16 0.479 0 0.903-0.2 1.045-0.62h0.827c-0.16 0.86-1.073 1.15-1.86 1.15-1.429 0.014-2.062-0.777-2.062-1.837 0-1.169 0.655-1.94 2.077-1.94 1.125 0 1.953 0.591 1.96 1.871zM10.129 8.209c-0.73 0.023-1.18 0.155-1.18 0.633 0 0.31 0.24 0.647 0.87 0.647 0.84 0 1.29-0.46 1.29-1.209v-0.087c-0.3 0-0.66 0.004-0.989 0.015zM6.089 9.459c0.74 0 1.251-0.537 1.251-1.347s-0.512-1.347-1.262-1.347c-0.74 0-1.26 0.537-1.26 1.347s0.51 1.347 1.25 1.347zM3.189 7.783c-0.029-0.75-0.569-1.031-1.15-1.031-0.629 0-1.129 0.316-1.21 1.031z"></path>
</svg>
