<!-- Generated by IcoMoon.io -->
<svg version="1.1" xmlns="http://www.w3.org/2000/svg" width="16" height="16" viewBox="0 0 16 16">
<title>eclipseide</title>
<path fill="#2c2255" d="M7.405 0.016c-0.183 0.003-0.403 0.008-0.491 0.015-2.429 0.209-4.602 1.647-5.862 3.875-0.574 1.010-0.948 2.203-1.037 3.475l-0.001 0.026c-0.027 0.345-0.013 1.163 0.023 1.472 0.204 1.788 0.902 3.373 2.047 4.643 1.308 1.449 3.057 2.311 4.958 2.442 0.28 0.021 0.695 0.027 0.68 0.008-0.063-0.019-0.139-0.037-0.217-0.048l-0.009-0.001c-1.116-0.22-2.259-0.753-3.185-1.488-0.627-0.505-1.166-1.084-1.616-1.73l-0.018-0.027c-0.839-1.22-1.362-2.716-1.422-4.33l-0-0.015c-0.005-0.109-0.008-0.238-0.008-0.366 0-0.887 0.139-1.741 0.398-2.542l-0.016 0.059c0.523-1.681 1.58-3.151 2.983-4.152 0.799-0.586 1.748-1.020 2.776-1.241l0.048-0.009 0.295-0.065zM8.389 0.356c-1.292 0.077-2.518 0.51-3.522 1.244-1.25 0.913-2.204 2.163-2.72 3.564-0.097 0.265-0.188 0.547-0.188 0.586 0 0.008 2.552 0.016 6.873 0.016 5.643 0 6.877-0.005 6.877-0.024 0-0.031-0.102-0.35-0.189-0.585-0.102-0.28-0.384-0.873-0.547-1.148-0.267-0.455-0.607-0.915-0.983-1.328-1.101-1.213-2.395-1.956-3.88-2.223-0.523-0.094-1.2-0.133-1.723-0.102zM15.887 6.647c-0.013 0-3.195 0-7.073 0.003l-7.049 0.005-0.007 0.039c-0.024 0.107-0.089 0.721-0.089 0.829 0 0.019 1.19 0.021 7.165 0.021h7.167v-0.050c0-0.068-0.047-0.528-0.071-0.703-0.013-0.107-0.027-0.144-0.043-0.144zM8.838 8.404c-6.247-0.003-7.154 0-7.162 0.023-0.013 0.027 0.016 0.371 0.050 0.649 0.013 0.105 0.023 0.199 0.023 0.209 0 0.018 1.425 0.023 7.083 0.023h7.083l0.016-0.125c0.029-0.217 0.068-0.647 0.063-0.711l-0.005-0.063zM8.84 10.216c-5.922 0-6.881 0.003-6.881 0.023 0 0.013 0.036 0.139 0.081 0.28 0.315 0.96 0.786 1.79 1.39 2.505l-0.009-0.011c0.188 0.228 0.63 0.691 0.819 0.858 1.045 0.933 2.165 1.477 3.453 1.687 0.403 0.063 0.591 0.075 1.167 0.073 0.607 0 0.865-0.021 1.349-0.118 1.407-0.277 2.609-0.967 3.687-2.113 0.845-0.899 1.404-1.84 1.752-2.941l0.078-0.243z"></path>
</svg>
