<!-- Generated by IcoMoon.io -->
<svg version="1.1" xmlns="http://www.w3.org/2000/svg" width="16" height="16" viewBox="0 0 16 16">
<title>elastic</title>
<path fill="#005571" d="M13.547 10.877l-2.631-0.615-0.699-1.335 3.441-3.015c1.020 0.387 1.701 1.365 1.701 2.46 0 1.127-0.743 2.152-1.812 2.505zM11.569 13.987c-0.41 0-0.811-0.137-1.139-0.39l0.52-2.71 2.39 0.559c0.076 0.206 0.114 0.426 0.114 0.656 0 1.039-0.845 1.885-1.885 1.885zM9.816 13.598c-0.717 1.049-1.908 1.729-3.258 1.729-0.001 0-0.003 0-0.004 0h0c-2.177 0-3.948-1.771-3.948-3.947 0-0.267 0.026-0.531 0.077-0.786l3.434-3.104 3.504 1.597 0.776 1.482zM0.642 7.629c0-1.127 0.743-2.151 1.812-2.505l2.625 0.62 0.616 1.316-3.356 3.033c-1.018-0.388-1.697-1.368-1.697-2.465zM4.432 2.013c0 0 0 0 0.001 0 0.432 0 0.831 0.145 1.149 0.39l-0.004-0.003-0.524 2.719-2.392-0.565c-0.076-0.206-0.114-0.426-0.114-0.656 0-1.039 0.845-1.885 1.885-1.885zM6.201 2.404c0.736-1.072 1.947-1.712 3.246-1.712 2.171 0 3.937 1.766 3.937 3.937 0 0.266-0.025 0.519-0.076 0.774l-3.521 3.085-3.49-1.591-0.681-1.455zM15.976 8.379c0-1.337-0.829-2.505-2.076-2.96 0.053-0.258 0.083-0.554 0.083-0.857v0c0-2.485-2.022-4.507-4.507-4.507-1.452 0-2.802 0.696-3.651 1.869-0.399-0.312-0.909-0.501-1.462-0.501-0.001 0-0.002 0-0.002 0h0c-1.319 0-2.392 1.073-2.392 2.392 0 0.292 0.052 0.57 0.15 0.834-1.24 0.447-2.093 1.644-2.093 2.972 0 1.344 0.833 2.518 2.086 2.969-0.052 0.257-0.082 0.553-0.082 0.856v0c0 2.479 2.017 4.496 4.496 4.496 1.455 0 2.805-0.699 3.649-1.877 0.42 0.33 0.934 0.511 1.466 0.511 1.319 0 2.392-1.073 2.392-2.392 0-0.292-0.052-0.571-0.15-0.834 1.24-0.447 2.093-1.643 2.093-2.972z"></path>
</svg>
