<!-- Generated by IcoMoon.io -->
<svg version="1.1" xmlns="http://www.w3.org/2000/svg" width="16" height="16" viewBox="0 0 16 16">
<title>elasticsearch</title>
<path fill="#005571" d="M7.513 10.387h-6.44c-0.228-0.704-0.36-1.513-0.36-2.354 0-0.012 0-0.023 0-0.035v0.002c0-0.833 0.12-1.633 0.36-2.387h10.573c0.002 0 0.004-0 0.007-0 1.314 0 2.38 1.066 2.38 2.38 0 0.002 0 0.005-0 0.007v-0c0 0.004 0 0.009 0 0.013 0 1.308-1.059 2.37-2.366 2.373h-0zM7.213 11.187h-5.847c0.636 1.436 1.642 2.61 2.897 3.435l0.030 0.018c1.224 0.823 2.73 1.313 4.352 1.313 0.008 0 0.015-0 0.023-0h-0.001c2.767 0 5.187-1.413 6.62-3.533-0.734-0.761-1.761-1.235-2.899-1.24h-0.001zM12.387 4.82c1.133 0 2.167-0.48 2.9-1.233-1.452-2.142-3.874-3.531-6.621-3.531-3.242 0-6.033 1.935-7.279 4.714l-0.020 0.050h5.827z"></path>
</svg>
