<!-- Generated by IcoMoon.io -->
<svg version="1.1" xmlns="http://www.w3.org/2000/svg" width="16" height="16" viewBox="0 0 16 16">
<title>elasticcloud</title>
<path fill="#005571" d="M15.080 12.973c-1.471 1.826-3.707 2.985-6.213 2.987h-0c-2.507-0.002-4.742-1.161-6.201-2.971l-0.012-0.015c1.472-1.82 3.705-2.973 6.208-2.973 0.002 0 0.004 0 0.006 0h-0c2.507 0 4.76 1.173 6.213 2.973zM6.88 8c0-1.013 0.833-1.993 1.747-1.993h0.28c2.607 0 4.733-1.173 6.193-2.987-1.481-1.824-3.721-2.981-6.232-2.987h-0.001c-2.507 0.002-4.742 1.161-6.201 2.971l-0.012 0.015c-1.092 1.342-1.753 3.073-1.753 4.958 0 0.008 0 0.015 0 0.023v-0.001c0 1.293 0.3 2.507 0.86 3.587 1.346-1.487 3.142-2.544 5.172-2.956l0.061-0.010c-0.060-0.2-0.12-0.42-0.113-0.62z"></path>
</svg>
