<!-- Generated by IcoMoon.io -->
<svg version="1.1" xmlns="http://www.w3.org/2000/svg" width="16" height="16" viewBox="0 0 16 16">
<title>electron</title>
<path fill="#47848f" d="M1.765 7.785c-0.692-1.207-0.833-2.336-0.341-3.187 0.659-1.141 2.312-1.54 4.403-1.159 0.105 0.015 0.186 0.104 0.186 0.213 0 0.119-0.096 0.215-0.215 0.215-0.017 0-0.033-0.002-0.049-0.006l0.001 0c-1.933-0.352-3.407 0.003-3.955 0.952-0.403 0.698-0.282 1.673 0.341 2.76 0.022 0.033 0.035 0.074 0.035 0.118 0 0.119-0.096 0.215-0.215 0.215-0.084 0-0.157-0.048-0.192-0.119l-0.001-0.001zM11.712 3.739c1.223 0.016 2.104 0.397 2.501 1.084 0.547 0.946 0.12 2.397-1.145 3.891-0.037 0.039-0.060 0.091-0.060 0.149 0 0.119 0.096 0.215 0.215 0.215 0.070 0 0.132-0.034 0.172-0.086l0-0.001c1.369-1.617 1.847-3.244 1.19-4.383-0.484-0.838-1.507-1.28-2.866-1.298-0.004-0-0.009-0.001-0.015-0.001-0.119 0-0.215 0.096-0.215 0.215s0.096 0.215 0.215 0.215c0.003 0 0.006-0 0.009-0l-0 0zM10.476 13.899c-0.032-0.019-0.070-0.031-0.111-0.031-0.078 0-0.146 0.041-0.183 0.103l-0.001 0.001c-0.623 1.035-1.387 1.599-2.173 1.599-1.095 0-2.139-1.098-2.8-2.945-0.029-0.087-0.109-0.149-0.204-0.149-0.119 0-0.215 0.096-0.215 0.215 0 0.028 0.005 0.055 0.015 0.080l-0.001-0.001c0.715 1.999 1.887 3.229 3.203 3.229 0.96 0 1.849-0.655 2.542-1.807 0.019-0.032 0.031-0.070 0.031-0.111 0-0.078-0.041-0.145-0.103-0.183l-0.001-0.001zM15.38 12.169c-0.001 0.566-0.46 1.025-1.027 1.025-0.224 0-0.432-0.072-0.6-0.194l0.003 0.002c-1.637 0.963-4.764 0.473-7.707-1.227-1.253-0.723-2.351-1.595-3.197-2.523-0.038-0.039-0.062-0.092-0.062-0.151 0-0.119 0.096-0.215 0.215-0.215 0.066 0 0.125 0.030 0.164 0.076l0 0c0.815 0.895 1.878 1.739 3.093 2.441 2.778 1.604 5.702 2.080 7.198 1.271-0.085-0.146-0.135-0.321-0.135-0.508 0-0.567 0.46-1.027 1.027-1.027s1.027 0.46 1.027 1.027c0 0.001 0 0.002 0 0.002v-0zM2.672 12.169c0 0.001 0 0.001 0 0.002 0 0.567-0.46 1.027-1.027 1.027s-1.027-0.46-1.027-1.027c0-0.385 0.212-0.72 0.525-0.896l0.005-0.003c-0.155-1.918 1.86-4.489 4.907-6.248 1.265-0.731 2.583-1.249 3.821-1.514 0.009-0.001 0.019-0.002 0.030-0.002 0.119 0 0.215 0.096 0.215 0.215 0 0.097-0.065 0.179-0.153 0.206l-0.002 0c-1.193 0.256-2.469 0.758-3.697 1.467-2.869 1.657-4.765 4.045-4.699 5.751 0.025-0.002 0.050-0.004 0.075-0.004 0.567 0 1.027 0.46 1.026 1.026zM6.981 1.027c0.020-0.551 0.472-0.99 1.026-0.99s1.006 0.439 1.026 0.988l0 0.002c0 0.015-0.001 0.030-0.002 0.045 1.699 0.878 2.88 3.873 2.88 7.335 0 1.423-0.199 2.789-0.569 3.973-0.025 0.093-0.108 0.16-0.208 0.16-0.119 0-0.215-0.096-0.215-0.215 0-0.026 0.005-0.052 0.013-0.075l-0 0.001c0.357-1.141 0.55-2.465 0.55-3.845 0-3.26-1.084-6.063-2.565-6.909-0.174 0.332-0.517 0.555-0.911 0.555-0.566 0-1.025-0.459-1.025-1.025 0-0.001 0-0.001 0-0.002v0zM7.851 7.681c-0.337 0.075-0.586 0.371-0.586 0.726 0 0.41 0.333 0.743 0.743 0.743 0.056 0 0.11-0.006 0.162-0.018l-0.005 0.001c0.337-0.075 0.586-0.371 0.586-0.726 0-0.41-0.333-0.743-0.743-0.743-0.056 0-0.11 0.006-0.162 0.018l0.005-0.001z"></path>
</svg>
