<!-- Generated by IcoMoon.io -->
<svg version="1.1" xmlns="http://www.w3.org/2000/svg" width="16" height="16" viewBox="0 0 16 16">
<title>elementary</title>
<path fill="#64baff" d="M8 0c-4.418 0-8 3.582-8 8s3.582 8 8 8v0c4.418 0 8-3.582 8-8s-3.582-8-8-8v0zM8 0.667c0.001 0 0.002 0 0.003 0 3.34 0 6.159 2.233 7.044 5.288l0.013 0.052c-0.784 1.592-1.828 2.939-3.091 4.040l-0.015 0.013c-0.627 0.54-1.307 1.020-2.053 1.36-0.753 0.333-1.58 0.533-2.4 0.48-0.656-0.037-1.261-0.22-1.794-0.517l0.021 0.011c1.478-0.808 2.731-1.828 3.772-3.036l0.015-0.017c0.708-0.762 1.241-1.697 1.529-2.733l0.011-0.047c0.12-0.527 0.133-1.067 0.027-1.6-0.115-0.549-0.368-1.026-0.722-1.409l0.002 0.002c-0.355-0.371-0.806-0.647-1.313-0.789l-0.020-0.005c-0.268-0.074-0.576-0.116-0.894-0.116-0.233 0-0.461 0.023-0.682 0.066l0.022-0.004c-1.063 0.241-1.975 0.78-2.671 1.524l-0.003 0.003c-1.215 1.184-1.968 2.837-1.968 4.665 0 0.115 0.003 0.23 0.009 0.344l-0.001-0.016c0.097 1.184 0.573 2.24 1.305 3.065l-0.005-0.005c-0.681 0.248-1.483 0.446-2.311 0.56l-0.063 0.007c-0.687-1.095-1.094-2.427-1.094-3.853 0-4.048 3.28-7.33 7.327-7.333h0zM8.047 2.147c0.513 0 1.033 0.16 1.447 0.467 0.367 0.28 0.647 0.68 0.8 1.12 0.153 0.433 0.2 0.913 0.14 1.373-0.158 0.965-0.56 1.817-1.14 2.515l0.007-0.009c-1.108 1.425-2.535 2.551-4.178 3.279l-0.069 0.027c-0.32-0.28-0.6-0.613-0.8-0.987-0.332-0.604-0.527-1.325-0.527-2.090 0-0.173 0.010-0.343 0.029-0.51l-0.002 0.020c0.080-0.88 0.387-1.733 0.8-2.527 0.446-0.954 1.136-1.73 1.991-2.267l0.022-0.013c0.453-0.247 0.967-0.4 1.48-0.4zM15.267 7.013c0.042 0.295 0.066 0.635 0.066 0.982 0 4.050-3.283 7.333-7.333 7.333-2.269 0-4.298-1.031-5.643-2.65l-0.010-0.012c0.927-0.212 1.735-0.487 2.503-0.834l-0.083 0.034c0.34 0.267 0.72 0.473 1.113 0.627 0.529 0.193 1.14 0.305 1.776 0.305 0.664 0 1.3-0.121 1.887-0.343l-0.037 0.012c1.205-0.458 2.235-1.126 3.095-1.968l-0.002 0.002c1.055-0.99 1.944-2.14 2.632-3.416l0.035-0.071z"></path>
</svg>
