<!-- Generated by IcoMoon.io -->
<svg version="1.1" xmlns="http://www.w3.org/2000/svg" width="16" height="16" viewBox="0 0 16 16">
<title>eleventy</title>
<path d="M2.257 8.021v-8h11.469v16h-11.469zM11.037 12.068c0.092-0.009 0.176-0.035 0.253-0.073l-0.004 0.002c0.288-0.142 0.453-0.448 0.585-1.084 0.051-0.248 0.797-4.112 0.806-4.175 0.017-0.124-0.005-0.255-0.056-0.317-0.016-0.017-0.036-0.031-0.057-0.042l-0.001-0.001-0.040-0.021h-0.194c-0.169 0-0.199 0-0.232 0.013-0.075 0.026-0.138 0.104-0.17 0.211-0.007 0.025-0.112 0.587-0.232 1.249l-0.219 1.201-0.031-0.14c-0.373-1.698-0.509-2.301-0.529-2.355-0.014-0.042-0.038-0.078-0.069-0.107l-0-0c-0.070-0.071-0.078-0.073-0.378-0.073-0.274 0-0.281 0-0.333 0.049-0.057 0.053-0.081 0.144-0.074 0.28 0.004 0.077 0.030 0.18 0.459 1.856 0.442 1.725 0.501 1.962 0.525 2.118 0.031 0.2-0.033 0.475-0.139 0.595-0.021 0.025-0.025 0.026-0.056 0.021-0.019 0-0.080-0.018-0.136-0.034-0.179-0.052-0.241-0.048-0.308 0.019-0.064 0.064-0.091 0.165-0.092 0.34 0 0.171 0.019 0.227 0.106 0.315s0.216 0.139 0.397 0.153c0.109 0.008 0.147 0.008 0.22-0.001zM9.773 10.927c0.052-0.026 0.090-0.072 0.106-0.127l0-0.001c0.013-0.039 0.015-0.065 0.015-0.237 0-0.17-0.002-0.199-0.014-0.236-0.027-0.081-0.091-0.131-0.185-0.145-0.027-0.007-0.133-0.007-0.237-0.007-0.243-0.001-0.252-0.007-0.297-0.123-0.045-0.12-0.064-0.217-0.075-0.401-0.006-0.298-0.009-0.649-0.009-1 0-0.103 0-0.206 0.001-0.309l-0 0.016v-1.177h0.233c0.303 0 0.338-0.007 0.401-0.075 0.036-0.044 0.061-0.099 0.068-0.159l0-0.001c0.005-0.053 0.007-0.115 0.007-0.178s-0.003-0.125-0.008-0.186l0.001 0.008c-0.017-0.107-0.066-0.181-0.141-0.215-0.038-0.017-0.043-0.017-0.3-0.020h-0.261l-0.002-0.813c-0.002-0.727-0.003-0.818-0.014-0.852-0.019-0.073-0.068-0.132-0.133-0.164l-0.001-0.001c-0.035-0.016-0.048-0.017-0.213-0.019-0.18 0-0.237 0-0.286 0.025-0.058 0.028-0.099 0.089-0.123 0.185-0.009 0.036-0.021 0.231-0.051 0.841l-0.040 0.796c0 0-0.053 0-0.12 0.007-0.137 0.007-0.175 0.015-0.218 0.057-0.061 0.061-0.080 0.127-0.085 0.303-0.007 0.223 0.013 0.325 0.077 0.392 0.050 0.054 0.089 0.067 0.23 0.071l0.115 0.007v1.19c0 1.133 0.004 1.346 0.023 1.516 0.027 0.247 0.087 0.473 0.161 0.619 0.129 0.253 0.363 0.411 0.659 0.445h0.67zM4.809 10.927c0.065-0.035 0.107-0.103 0.133-0.221 0.011-0.051 0.012-0.267 0.012-3.012 0-2.789-0.001-2.96-0.013-3.007-0.033-0.129-0.127-0.193-0.252-0.173-0.023 0.007-0.229 0.056-0.457 0.117s-0.456 0.12-0.505 0.132c-0.113 0.029-0.143 0.041-0.187 0.084-0.070 0.065-0.081 0.123-0.081 0.404 0 0.277 0.011 0.333 0.080 0.403 0.063 0.063 0.126 0.067 0.304 0.020 0.069-0.017 0.129-0.032 0.133-0.032 0.007 0 0.009 0.523 0.011 2.509 0.002 2.291 0.003 2.513 0.014 2.56 0.032 0.135 0.075 0.197 0.157 0.227 0.023 0.009 0.089 0.011 0.325 0.009 0.29 0 0.297 0 0.327-0.019zM6.944 10.927c0.061-0.031 0.101-0.090 0.131-0.193l0.016-0.056 0.002-2.957c0.001-2.129 0-2.971-0.007-3.006-0.022-0.133-0.097-0.205-0.215-0.205-0.044 0-0.132 0.020-0.571 0.136-0.373 0.098-0.533 0.143-0.566 0.159-0.052 0.025-0.092 0.068-0.113 0.121l-0.001 0.002c-0.016 0.040-0.016 0.047-0.016 0.319 0 0.277 0 0.278 0.017 0.322 0.013 0.031 0.032 0.058 0.055 0.080l0 0c0.067 0.067 0.115 0.070 0.304 0.023 0.021-0.007 0.067-0.018 0.114-0.029l0.024-0.005c0.005 0 0.008 0.801 0.009 2.527l0.002 2.527 0.017 0.057c0.016 0.061 0.047 0.113 0.090 0.153l0 0c0.052 0.041 0.057 0.042 0.38 0.040 0.276 0 0.298 0 0.325-0.016z"></path>
</svg>
