<!-- Generated by IcoMoon.io -->
<svg version="1.1" xmlns="http://www.w3.org/2000/svg" width="16" height="16" viewBox="0 0 16 16">
<title>ember-dot-js</title>
<path fill="#e04e39" d="M0 0v16h16v-16zM8.193 2.92c1.107-0.020 1.887 0.28 2.56 1.233 1.5 3.72-4 5.6-4 5.6s-0.153 0.987 1.347 0.947c1.853 0 3.8-1.433 4.54-2.040 0.076-0.064 0.174-0.102 0.282-0.102 0.125 0 0.238 0.052 0.318 0.136l0 0 0.56 0.58c0.075 0.079 0.121 0.186 0.121 0.304 0 0.114-0.044 0.219-0.115 0.297l0-0c-0.48 0.533-1.613 1.64-3.313 2.353 0 0-2.84 1.313-4.753 0.067-0.887-0.541-1.494-1.468-1.586-2.541l-0.001-0.012c0 0-1.387-0.073-2.28-0.42-0.887-0.347 0.007-1.4 0.007-1.4s0.28-0.433 0.8 0 1.493 0.24 1.493 0.24c0.087-0.687 0.233-1.587 0.653-2.54 0.893-2 2.253-2.673 3.367-2.7zM8.413 4.787c-0.733 0.047-1.867 1.187-1.92 3.287 0 0 0.5 0.153 1.607-0.607 1.113-0.76 1.333-1.98 0.74-2.54-0.097-0.089-0.226-0.143-0.369-0.143-0.020 0-0.041 0.001-0.060 0.003l0.002-0z"></path>
</svg>
