<!-- Generated by IcoMoon.io -->
<svg version="1.1" xmlns="http://www.w3.org/2000/svg" width="16" height="16" viewBox="0 0 16 16">
<title>emlakjet</title>
<path fill="#0ae524" d="M10.433 10.737v-0.16c-0.049-0.664-0.365-1.246-0.841-1.644l-0.004-0.003c-0.483-0.442-1.127-0.643-1.77-0.603-1.247 0.080-2.252 1.165-2.252 2.41 0 0.523 0.080 1.045 0.281 1.647h-2.815v-7.753l4.947-3.415 4.988 3.415v7.795h-2.815c0.12-0.442 0.281-1.125 0.281-1.688zM13.813 3.907l-5.511-3.817c-0.201-0.121-0.442-0.121-0.603 0l-5.55 3.816c-0.161 0.080-0.241 0.241-0.241 0.442v8.638c0 0.321 0.241 0.563 0.563 0.563h4.144c0.004 0 0.009 0 0.013 0 0.303 0 0.549-0.246 0.549-0.549 0-0.005-0-0.009-0-0.014l0 0.001c0-0.040 0-0.12-0.040-0.16l-0.040-0.121c-0.201-0.482-0.443-1.085-0.443-1.687v-0.121c-0.040-0.361 0.080-0.723 0.321-0.964 0.229-0.266 0.553-0.445 0.919-0.482l0.006-0c0.362-0.040 0.684 0.080 0.965 0.321s0.443 0.563 0.483 0.924v0.12c0.040 0.804-0.483 1.969-0.563 2.090l-0.764 1.447-0.12-0.241c-0.081-0.121-0.201-0.241-0.322-0.281s-0.282-0.040-0.403 0.040c-0.12 0.080-0.241 0.201-0.281 0.321s-0.040 0.281 0.040 0.402l0.603 1.125c0.081 0.161 0.282 0.281 0.483 0.281s0.403-0.12 0.483-0.281l1.207-2.25h3.821c0.004 0 0.009 0 0.013 0 0.303 0 0.549-0.246 0.549-0.549 0-0.005-0-0.009-0-0.014l0 0.001v-8.557c-0.040-0.201-0.12-0.362-0.281-0.442z"></path>
</svg>
