<!-- Generated by IcoMoon.io -->
<svg version="1.1" xmlns="http://www.w3.org/2000/svg" width="16" height="16" viewBox="0 0 16 16">
<title>empirekred</title>
<path fill="#72be50" d="M15.997 3.123c0-1.387-1.116-2.516-2.485-2.516h-11.033c-1.37-0.001-2.483 1.129-2.483 2.519v5.024c0 0.224 0.030 0.445 0.090 0.665 0.020 0.089 0.047 0.176 0.080 0.26 0.167 0.415 0.435 0.78 0.782 1.062 0.34 0.349 0.78 0.73 1.31 1.14l0.070 0.049 0.29 0.22 0.347 0.265c0.793 0.608 2.137 1.635 4.11 3.14 0.322 0.244 0.692 0.451 0.922 0.451 0.229 0 0.601-0.207 0.922-0.451 1.973-1.505 3.315-2.532 4.109-3.14l0.648-0.493h-0.001l0.073-0.057c0.532-0.408 0.975-0.793 1.312-1.14 0.343-0.279 0.605-0.64 0.767-1.051 0.111-0.293 0.168-0.604 0.169-0.917v-4.767h-0.002l0.002-0.002zM13.237 7.285c-0.062-0.011-0.125-0.021-0.189-0.030-0.070 0-0.151-0.010-0.22-0.010-0.185-0.004-0.371 0.033-0.54 0.109-0.143 0.067-0.267 0.165-0.36 0.291-0.090 0.131-0.153 0.277-0.191 0.431-0.040 0.169-0.060 0.349-0.060 0.54v1.92h-3.351l-2.489-3.722-1.037 1.050v2.65h-1.813v-8.247h1.811v3.42l3.22-3.418h2.264l-3.22 3.257 3.444 4.862v-4.119h1.108v0.788h0.015c0.056-0.13 0.13-0.253 0.22-0.365 0.096-0.112 0.2-0.208 0.322-0.287 0.12-0.071 0.25-0.14 0.387-0.18s0.28-0.060 0.427-0.060c0.076 0 0.16 0.020 0.253 0.040z"></path>
</svg>
