<!-- Generated by IcoMoon.io -->
<svg version="1.1" xmlns="http://www.w3.org/2000/svg" width="16" height="16" viewBox="0 0 16 16">
<title>epel</title>
<path fill="#fc0000" d="M0.468 1.574c-0.792 0.073-0.587 0.103 1.32 0.191 3.785 0.161 6.029 0.763 7.569 1.995 0.821 0.675 1.458 2.097 1.458 2.097s-2.426 0.557-5.198 1.1c-2.773 0.543-4.973 1.027-4.885 1.056 0.235 0.073 3.476-0.323 6.879-0.851l3.247-0.489c0.052-0.008 0.024 0.263 0.024 0.343 0 0.733-0.748 1.965-1.863 3.066-1.833 1.789-4.415 3.124-7.715 3.975-0.909 0.235-1.467 0.425-1.261 0.425 0.792 0.029 3.828-0.865 5.207-1.511 1.79-0.851 2.934-1.672 4.327-3.109 0.987-1.228 1.996-1.864 2.037-3.345l2.040-0.337c1.086-0.176 2.069-0.367 2.187-0.411 0.161-0.059 0.19-0.235 0.131-0.675-0.103-0.807-0.733-1.437-2.009-2.025-1.936-0.895-3.92-1.069-4.961-0.453-0.115 0.067-0.251 0.278-0.356 0.324 4.447 1.435 3.924 1.24 3.402 1.046l-4.979-1.62c-2.024-0.689-4.503-0.983-6.601-0.792zM13.156 3.423c1.085 0.323 2.787 1.343 2.528 1.393l-2.044 0.401-2.257 0.515c-0.429-0.957-0.994-1.488-1.752-2.203l0.089-0.218c0.215-0.531 1.691-0.401 3.437 0.113z"></path>
</svg>
