<!-- Generated by IcoMoon.io -->
<svg version="1.1" xmlns="http://www.w3.org/2000/svg" width="16" height="16" viewBox="0 0 16 16">
<title>epicgames</title>
<path d="M2.359 0c-0.915 0-1.252 0.337-1.252 1.252v11.043c0 0.103 0.005 0.199 0.013 0.287 0.023 0.201 0.025 0.395 0.211 0.615 0.017 0.025 0.207 0.164 0.207 0.164 0.101 0.051 0.171 0.085 0.287 0.133l5.556 2.328c0.287 0.131 0.409 0.184 0.617 0.177h0.003c0.211 0.007 0.333-0.045 0.62-0.177l5.555-2.328c0.116-0.048 0.184-0.083 0.287-0.133 0 0 0.189-0.141 0.207-0.164 0.187-0.219 0.189-0.413 0.211-0.615 0.008-0.088 0.013-0.184 0.013-0.287v-11.045c-0.001-0.914-0.339-1.251-1.253-1.251zM11.263 2.073h0.453c0.756 0 1.124 0.368 1.124 1.131v1.253h-0.915v-1.202c0-0.245-0.113-0.358-0.35-0.358h-0.156c-0.245 0-0.358 0.113-0.358 0.358v3.875c0 0.244 0.113 0.357 0.358 0.357h0.173c0.235 0 0.348-0.113 0.348-0.357v-1.387h0.917v1.429c0 0.763-0.376 1.139-1.134 1.139h-0.461c-0.761 0-1.133-0.378-1.133-1.139v-3.961c0-0.761 0.373-1.139 1.133-1.139zM3.137 2.124h2.076v0.851h-1.144v1.736h1.101v0.849h-1.101v1.849h1.159v0.849h-2.091zM5.682 2.124h1.464c0.758 0 1.133 0.378 1.133 1.141v1.63c0 0.763-0.375 1.139-1.133 1.139h-0.529v2.225h-0.935zM8.701 2.124h0.932v6.135h-0.932zM6.614 2.951v2.26h0.386c0.234 0 0.347-0.113 0.347-0.36v-1.54c0-0.247-0.113-0.36-0.347-0.36zM4.044 9.72h0.139l0.031 0.005h0.050l0.025 0.008h0.025l0.025 0.007 0.025 0.005 0.023 0.005 0.023 0.005 0.023 0.005 0.025 0.008 0.020 0.005 0.020 0.008 0.025 0.007 0.020 0.010 0.026 0.010 0.023 0.010 0.020 0.013 0.025 0.009 0.017 0.013 0.025 0.012 0.020 0.013 0.023 0.012 0.020 0.015 0.020 0.013 0.020 0.015 0.021 0.015 0.020 0.017 0.020 0.015-0.015 0.020-0.018 0.018-0.015 0.020-0.018 0.020-0.015 0.018-0.015 0.017-0.018 0.020-0.015 0.020-0.015 0.018-0.017 0.020-0.015 0.020-0.018 0.020-0.015 0.018-0.015 0.020-0.017 0.020-0.015 0.021-0.017 0.017-0.015 0.020-0.020-0.015-0.020-0.017-0.020-0.013-0.023-0.015-0.017-0.013-0.023-0.013-0.020-0.013-0.023-0.013-0.040-0.020-0.020-0.007-0.023-0.008-0.025-0.007-0.020-0.005-0.051-0.011-0.025-0.002h-0.027l-0.031-0.005h-0.050l-0.025 0.003h-0.025l-0.025 0.007-0.023 0.005-0.023 0.007-0.025 0.007-0.020 0.010-0.025 0.011-0.038 0.025-0.020 0.012-0.018 0.015-0.017 0.015-0.018 0.015-0.015 0.018-0.020 0.017-0.025 0.038-0.015 0.020-0.010 0.023-0.013 0.020-0.012 0.023-0.007 0.023-0.011 0.023-0.007 0.025-0.003 0.025-0.007 0.023-0.005 0.028v0.025l-0.005 0.025v0.060l0.003 0.026 0.002 0.023 0.003 0.025 0.005 0.025 0.007 0.020 0.003 0.025 0.007 0.020 0.008 0.020 0.010 0.026 0.013 0.025 0.010 0.020 0.013 0.020 0.015 0.021 0.015 0.020 0.013 0.018 0.020 0.017 0.015 0.018 0.017 0.015 0.040 0.031 0.021 0.013 0.020 0.012 0.023 0.011 0.025 0.010 0.020 0.010 0.025 0.007 0.025 0.008 0.025 0.005 0.025 0.005 0.025 0.003 0.031 0.002h0.083l0.031-0.005h0.025l0.025-0.008 0.025-0.005 0.025-0.008 0.023-0.005 0.023-0.010 0.020-0.010 0.025-0.011 0.015-0.010 0.020-0.013v-0.231h-0.368v-0.373h0.831v0.832l-0.017 0.015-0.020 0.015-0.018 0.013-0.020 0.015-0.020 0.012-0.020 0.015-0.020 0.013-0.021 0.013-0.025 0.013-0.023 0.013-0.020 0.013-0.025 0.010-0.020 0.013-0.076 0.030-0.023 0.010-0.023 0.007-0.023 0.008-0.025 0.007-0.023 0.007-0.025 0.008-0.023 0.005-0.051 0.011-0.025 0.005-0.025 0.003-0.051 0.005-0.030 0.002-0.025 0.003-0.028 0.003h-0.131l-0.028-0.005h-0.025l-0.025-0.005h-0.025l-0.025-0.008-0.025-0.005-0.025-0.005-0.025-0.005-0.020-0.008-0.025-0.005-0.025-0.008-0.023-0.010-0.023-0.007-0.025-0.010-0.023-0.010-0.025-0.010-0.020-0.011-0.025-0.012-0.017-0.013-0.025-0.012-0.018-0.013-0.020-0.012-0.040-0.031-0.023-0.015-0.015-0.015-0.020-0.015-0.018-0.017-0.017-0.015-0.018-0.017-0.015-0.018-0.018-0.017-0.015-0.020-0.015-0.018-0.013-0.020-0.015-0.020-0.013-0.020-0.012-0.020-0.013-0.023-0.012-0.020-0.020-0.045-0.011-0.023-0.010-0.023-0.007-0.020-0.010-0.023-0.005-0.023-0.007-0.023-0.005-0.025-0.007-0.023-0.005-0.025-0.002-0.023-0.005-0.025-0.003-0.023-0.002-0.025-0.003-0.025-0.003-0.025v-0.139l0.005-0.025v-0.027l0.007-0.025v-0.025l0.008-0.025 0.008-0.025 0.005-0.025 0.007-0.023 0.008-0.025 0.007-0.023 0.010-0.025 0.010-0.023 0.011-0.023 0.020-0.045 0.013-0.023 0.013-0.020 0.012-0.020 0.013-0.020 0.012-0.020 0.015-0.021 0.015-0.020 0.015-0.020 0.018-0.018 0.015-0.017 0.015-0.018 0.020-0.017 0.015-0.018 0.020-0.015 0.018-0.017 0.020-0.015 0.020-0.015 0.020-0.013 0.020-0.015 0.020-0.013 0.021-0.013 0.023-0.013 0.025-0.013 0.020-0.012 0.025-0.011 0.023-0.010 0.025-0.013 0.020-0.007 0.025-0.008 0.023-0.010 0.023-0.005 0.023-0.007 0.025-0.005 0.023-0.007 0.025-0.005h0.025l0.025-0.007h0.025l0.025-0.005h0.025zM12.037 9.725h0.138l0.031 0.005h0.050l0.025 0.007h0.030l0.025 0.008 0.023 0.005 0.025 0.005 0.025 0.005 0.023 0.005 0.025 0.007 0.025 0.008 0.020 0.005 0.025 0.010 0.025 0.008 0.020 0.010 0.051 0.020 0.023 0.013 0.018 0.009 0.025 0.013 0.023 0.012 0.020 0.013 0.023 0.015 0.020 0.012 0.040 0.031 0.020 0.015-0.015 0.020-0.013 0.021-0.015 0.020-0.015 0.020-0.015 0.023-0.013 0.020-0.015 0.020-0.015 0.021-0.013 0.020-0.015 0.020-0.015 0.020-0.015 0.021-0.013 0.023-0.015 0.020-0.017 0.020-0.013 0.020-0.015 0.021-0.020-0.015-0.023-0.013-0.020-0.012-0.020-0.015-0.023-0.010-0.020-0.013-0.025-0.009-0.017-0.010-0.025-0.011-0.020-0.010-0.020-0.007-0.023-0.010-0.025-0.007-0.025-0.008-0.025-0.007-0.027-0.005-0.025-0.005-0.025-0.005-0.025-0.003-0.025-0.003-0.023-0.002h-0.056l-0.027 0.005-0.025 0.005-0.025 0.005-0.020 0.011-0.017 0.010-0.023 0.020-0.015 0.023-0.010 0.023v0.063l0.013 0.028 0.010 0.015 0.017 0.017 0.025 0.013 0.020 0.012 0.051 0.020 0.033 0.010 0.020 0.005 0.020 0.007 0.025 0.005 0.020 0.007 0.025 0.005 0.028 0.007 0.027 0.007 0.028 0.008 0.028 0.005 0.025 0.008 0.028 0.007 0.025 0.005 0.025 0.007 0.025 0.007 0.025 0.008 0.025 0.007 0.023 0.007 0.025 0.008 0.025 0.010 0.025 0.013 0.025 0.010 0.051 0.025 0.020 0.013 0.020 0.012 0.023 0.015 0.018 0.013 0.023 0.017 0.055 0.055 0.013 0.020 0.017 0.025 0.013 0.017 0.010 0.025 0.013 0.017 0.007 0.025 0.008 0.020 0.005 0.025 0.005 0.025 0.005 0.025 0.003 0.025 0.003 0.025v0.063l-0.003 0.027-0.003 0.025-0.002 0.028-0.005 0.025-0.007 0.025-0.005 0.025-0.007 0.025-0.010 0.023-0.010 0.020-0.011 0.023-0.012 0.020-0.015 0.020-0.013 0.020-0.012 0.021-0.017 0.018-0.015 0.017-0.018 0.015-0.020 0.017-0.017 0.015-0.020 0.015-0.020 0.012-0.021 0.015-0.045 0.023-0.025 0.013-0.025 0.009-0.025 0.010-0.025 0.008-0.025 0.007-0.020 0.007-0.051 0.011-0.020 0.005-0.025 0.005h-0.025l-0.025 0.005h-0.025l-0.025 0.005h-0.187l-0.025-0.003-0.025-0.003-0.028-0.002-0.025-0.005-0.025-0.003-0.025-0.005-0.025-0.005-0.028-0.007-0.025-0.005-0.025-0.007-0.025-0.005-0.025-0.007-0.025-0.008-0.025-0.010-0.023-0.007-0.025-0.007-0.025-0.011-0.020-0.010-0.025-0.010-0.020-0.013-0.025-0.010-0.023-0.013-0.017-0.013-0.025-0.013-0.018-0.012-0.023-0.013-0.020-0.015-0.020-0.015-0.020-0.015-0.020-0.015-0.018-0.015-0.020-0.017 0.015-0.020 0.018-0.018 0.015-0.020 0.017-0.020 0.015-0.018 0.015-0.020 0.018-0.020 0.015-0.018 0.017-0.020 0.015-0.017 0.017-0.020 0.015-0.020 0.015-0.018 0.018-0.020 0.015-0.020 0.017-0.018 0.018-0.020 0.017 0.015 0.025 0.015 0.017 0.015 0.025 0.015 0.020 0.013 0.023 0.015 0.020 0.013 0.023 0.010 0.020 0.013 0.023 0.010 0.025 0.010 0.020 0.010 0.025 0.007 0.020 0.011 0.025 0.007 0.025 0.008 0.025 0.008 0.025 0.005 0.025 0.005 0.025 0.005h0.027l0.025 0.008h0.139l0.025-0.005 0.025-0.005 0.020-0.005 0.020-0.007 0.018-0.011 0.023-0.015 0.013-0.018 0.012-0.020 0.007-0.025v-0.058l-0.010-0.025-0.015-0.020-0.015-0.015-0.023-0.015-0.018-0.010-0.025-0.010-0.025-0.010-0.030-0.013-0.018-0.005-0.020-0.005-0.025-0.007-0.020-0.005-0.025-0.008-0.025-0.005-0.027-0.008-0.025-0.005-0.028-0.008-0.025-0.005-0.025-0.008-0.025-0.005-0.025-0.008-0.025-0.007-0.025-0.005-0.023-0.008-0.023-0.007-0.023-0.008-0.025-0.010-0.028-0.010-0.025-0.010-0.025-0.010-0.051-0.025-0.017-0.013-0.025-0.013-0.018-0.015-0.023-0.013-0.015-0.015-0.018-0.017-0.020-0.018-0.015-0.017-0.015-0.018-0.013-0.017-0.012-0.020-0.013-0.023-0.009-0.018-0.008-0.020-0.007-0.023-0.007-0.020-0.005-0.025-0.005-0.023v-0.025l-0.005-0.025v-0.108l0.005-0.051 0.005-0.020 0.005-0.025 0.007-0.020 0.005-0.025 0.010-0.020 0.010-0.025 0.023-0.045 0.013-0.020 0.017-0.020 0.013-0.020 0.020-0.020 0.017-0.018 0.015-0.020 0.023-0.018 0.015-0.013 0.023-0.015 0.020-0.015 0.020-0.013 0.025-0.012 0.020-0.010 0.026-0.013 0.020-0.010 0.025-0.008 0.025-0.010 0.025-0.007 0.018-0.005 0.025-0.005 0.020-0.005 0.025-0.005 0.025-0.005 0.051-0.005 0.025-0.002zM5.879 9.743h0.471l0.030 0.068 0.007 0.025 0.020 0.045 0.011 0.023 0.010 0.023 0.007 0.023 0.013 0.025 0.010 0.023 0.010 0.023 0.005 0.023 0.010 0.023 0.013 0.023 0.010 0.025 0.010 0.023 0.007 0.023 0.010 0.023 0.013 0.023 0.007 0.023 0.011 0.025 0.007 0.025 0.010 0.020 0.013 0.025 0.009 0.020 0.010 0.025 0.008 0.025 0.007 0.020 0.023 0.045 0.010 0.025 0.007 0.020 0.011 0.025 0.013 0.025 0.010 0.023 0.015 0.045 0.010 0.023 0.013 0.023 0.009 0.025 0.011 0.023 0.007 0.023 0.011 0.023 0.020 0.045 0.010 0.025 0.008 0.023 0.010 0.023 0.013 0.023 0.020 0.045 0.005 0.025 0.010 0.023 0.013 0.023 0.010 0.023 0.007 0.023 0.010 0.023 0.010 0.025 0.013 0.025 0.007 0.020 0.011 0.025 0.007 0.020 0.010 0.025 0.023 0.045 0.007 0.025 0.011 0.020 0.007 0.025 0.013 0.020 0.010 0.025 0.007 0.025 0.010 0.020 0.011 0.025 0.012 0.020 0.011 0.025 0.007 0.025 0.008 0.020 0.010 0.025 0.013 0.020h-0.522l-0.013-0.022-0.007-0.023-0.011-0.023-0.010-0.025-0.007-0.023-0.020-0.045-0.008-0.023-0.020-0.045-0.007-0.023-0.010-0.025-0.010-0.023-0.008-0.023-0.010-0.023h-0.723l-0.010 0.025-0.007 0.020-0.010 0.025-0.013 0.025-0.005 0.020-0.010 0.026-0.010 0.020-0.007 0.025-0.010 0.020-0.010 0.025-0.008 0.020-0.010 0.025-0.010 0.025-0.010 0.020-0.007 0.025h-0.517l0.010-0.025 0.020-0.045 0.008-0.025 0.007-0.023 0.013-0.023 0.020-0.045 0.007-0.023 0.010-0.025 0.013-0.023 0.009-0.023 0.008-0.023 0.007-0.023 0.010-0.023 0.013-0.025 0.009-0.023 0.010-0.023 0.008-0.023 0.020-0.045 0.020-0.051 0.008-0.020 0.010-0.025 0.013-0.020 0.010-0.025 0.007-0.025 0.007-0.020 0.010-0.025 0.013-0.020 0.009-0.025 0.011-0.020 0.007-0.025 0.011-0.025 0.013-0.020 0.007-0.025 0.010-0.020 0.008-0.025 0.010-0.025 0.013-0.020 0.010-0.025 0.007-0.020 0.010-0.025 0.008-0.020 0.013-0.025 0.010-0.025 0.010-0.023 0.007-0.023 0.010-0.023 0.013-0.023 0.009-0.023 0.005-0.025 0.020-0.045 0.013-0.023 0.010-0.023 0.007-0.023 0.011-0.025 0.010-0.025 0.010-0.020 0.010-0.025 0.007-0.020 0.020-0.051 0.013-0.020 0.009-0.025 0.008-0.020 0.007-0.025 0.010-0.020 0.013-0.025 0.009-0.025 0.008-0.020 0.010-0.025 0.023-0.045 0.007-0.025 0.007-0.020 0.011-0.025zM7.34 9.755h0.517l0.015 0.020 0.013 0.023 0.015 0.020 0.013 0.023 0.013 0.020 0.013 0.023 0.012 0.020 0.015 0.023 0.025 0.040 0.013 0.023 0.013 0.020 0.017 0.023 0.010 0.020 0.013 0.023 0.015 0.020 0.015 0.020 0.010 0.023 0.015 0.020 0.013 0.023 0.009 0.020 0.018 0.023 0.013 0.020 0.013 0.023 0.013 0.020 0.012 0.020 0.015 0.023 0.013 0.020 0.013 0.023 0.013 0.020 0.013 0.023 0.015 0.020 0.013 0.023 0.012 0.020 0.015-0.020 0.010-0.025 0.015-0.017 0.015-0.025 0.013-0.017 0.009-0.025 0.018-0.018 0.013-0.025 0.010-0.018 0.015-0.020 0.015-0.025 0.013-0.017 0.012-0.025 0.013-0.018 0.015-0.025 0.012-0.018 0.013-0.025 0.012-0.017 0.013-0.020 0.015-0.025 0.013-0.018 0.013-0.025 0.015-0.018 0.013-0.025 0.012-0.017 0.015-0.020 0.013-0.025 0.015-0.018 0.013-0.025 0.012-0.018 0.013-0.025 0.015-0.017 0.013-0.025 0.013-0.017h0.521v1.859h-0.489v-1.093l-0.012 0.017-0.015 0.025-0.013 0.017-0.015 0.020-0.013 0.025-0.015 0.018-0.013 0.020-0.015 0.025-0.013 0.017-0.013 0.020-0.017 0.020-0.013 0.026-0.015 0.017-0.013 0.020-0.012 0.025-0.015 0.017-0.013 0.020-0.015 0.025-0.013 0.018-0.015 0.020-0.013 0.025-0.012 0.017-0.015 0.020-0.013 0.025-0.015 0.018-0.015 0.020-0.013 0.020-0.013 0.025-0.015 0.018-0.015 0.020-0.010 0.025-0.018 0.017-0.013 0.020-0.015 0.025-0.013 0.018h-0.009l-0.015-0.023-0.013-0.020-0.015-0.023-0.013-0.020-0.015-0.023-0.013-0.020-0.015-0.023-0.013-0.020-0.015-0.023-0.013-0.020-0.017-0.023-0.010-0.020-0.015-0.023-0.015-0.020-0.013-0.023-0.015-0.020-0.013-0.025-0.015-0.020-0.013-0.023-0.015-0.020-0.013-0.023-0.015-0.020-0.012-0.023-0.015-0.020-0.013-0.023-0.015-0.020-0.013-0.023-0.015-0.020-0.013-0.023-0.015-0.020-0.013-0.023-0.017-0.020-0.010-0.023-0.015-0.020v1.096h-0.483v-1.84zM9.653 9.755h1.466v0.42h-0.98v0.298h0.881v0.395h-0.881v0.32h0.993v0.421h-1.477zM6.108 10.325l-0.010 0.025-0.008 0.020-0.010 0.025-0.010 0.025-0.007 0.023-0.010 0.023-0.011 0.025-0.010 0.025-0.007 0.020-0.010 0.025-0.010 0.020-0.008 0.025-0.010 0.025-0.010 0.020-0.007 0.025-0.010 0.020-0.010 0.025-0.011 0.025-0.007 0.020-0.011 0.025-0.010 0.025-0.007 0.020-0.011 0.025h0.429l-0.010-0.025-0.008-0.023-0.010-0.025-0.010-0.023-0.007-0.023-0.010-0.023-0.010-0.025-0.008-0.023-0.020-0.045-0.007-0.023-0.010-0.025-0.008-0.023-0.020-0.045-0.007-0.023-0.010-0.025-0.010-0.025-0.008-0.020-0.020-0.051-0.007-0.023zM5.341 13.807h5.342l-2.727 0.9z"></path>
</svg>
