<!-- Generated by IcoMoon.io -->
<svg version="1.1" xmlns="http://www.w3.org/2000/svg" width="16" height="16" viewBox="0 0 16 16">
<title>epson</title>
<path fill="#039" d="M11.077 9.277c-0.686 0-0.952-0.635-0.952-1.277 0-0.65 0.265-1.285 0.952-1.285s0.953 0.635 0.953 1.285c0 0.642-0.266 1.277-0.953 1.277zM11.077 6.073c-1.085 0-1.711 0.812-1.711 1.927s0.627 1.927 1.711 1.927c1.085 0 1.712-0.812 1.712-1.927s-0.627-1.927-1.712-1.927zM0 6.177h2.723v0.649h-1.963v0.805h1.83v0.635h-1.83v0.901h1.963v0.65h-2.723zM4.487 8.073h-0.686v-1.247h0.686c0.473 0 0.79 0.207 0.79 0.627 0 0.414-0.317 0.62-0.79 0.62zM3.041 9.816h0.76v-1.093h0.685c0.923 0 1.543-0.458 1.543-1.269 0-0.819-0.621-1.277-1.543-1.277h-1.445zM13.845 6.177h-0.775v3.639h0.745v-1.477c0-0.399-0.015-0.76-0.029-1.070 0.089 0.178 0.354 0.723 0.472 0.931l0.967 1.617h0.775v-3.639h-0.737v1.439c0 0.399 0.015 0.797 0.029 1.115-0.089-0.184-0.354-0.731-0.48-0.937zM6.893 8.613c0 0.487 0.405 0.679 0.834 0.679 0.281 0 0.745-0.081 0.745-0.458 0-0.399-0.561-0.473-1.099-0.613-0.569-0.155-1.115-0.362-1.115-1.041 0-0.753 0.709-1.107 1.373-1.107 0.768 0 1.469 0.332 1.469 1.181h-0.753c-0.029-0.443-0.369-0.553-0.753-0.553-0.259 0-0.583 0.103-0.583 0.413 0 0.281 0.185 0.325 1.107 0.561 0.265 0.073 1.107 0.236 1.107 1.063 0 0.679-0.531 1.181-1.528 1.181-0.811 0-1.571-0.399-1.565-1.306z"></path>
</svg>
