<!-- Generated by IcoMoon.io -->
<svg version="1.1" xmlns="http://www.w3.org/2000/svg" width="16" height="16" viewBox="0 0 16 16">
<title>eslint</title>
<path fill="#4b32c3" d="M4.838 6.088l3.039-1.755c0.035-0.021 0.078-0.033 0.123-0.033s0.087 0.012 0.124 0.033l-0.001-0.001 3.039 1.755c0.074 0.043 0.123 0.122 0.123 0.213 0 0 0 0 0 0.001v-0 3.509c-0 0.090-0.049 0.169-0.122 0.212l-0.001 0.001-3.039 1.755c-0.035 0.021-0.078 0.033-0.123 0.033s-0.087-0.012-0.124-0.033l0.001 0.001-3.039-1.755c-0.074-0.043-0.123-0.122-0.123-0.213 0-0 0-0 0-0.001v0-3.508c0-0 0-0 0-0 0-0.091 0.049-0.17 0.122-0.213l0.001-0.001zM15.901 7.687l-3.631-6.317c-0.132-0.229-0.376-0.397-0.64-0.397h-7.261c-0.264 0-0.508 0.169-0.64 0.397l-3.631 6.303c-0.062 0.107-0.099 0.235-0.099 0.372s0.037 0.265 0.101 0.376l-0.002-0.004 3.631 6.265c0.131 0.228 0.375 0.345 0.639 0.345h7.262c0.263 0 0.507-0.113 0.639-0.341l3.631-6.275c0.062-0.104 0.099-0.229 0.099-0.362s-0.037-0.258-0.101-0.365l0.002 0.003zM12.895 10.724c-0.003 0.097-0.056 0.18-0.135 0.225l-0.001 0.001-4.626 2.668c-0.038 0.022-0.083 0.035-0.131 0.035s-0.093-0.013-0.132-0.035l0.001 0.001-4.629-2.668c-0.080-0.045-0.134-0.129-0.137-0.225l-0-0v-5.337c0-0.093 0.055-0.179 0.136-0.225l4.624-2.668c0.080-0.047 0.181-0.047 0.261 0l4.629 2.669c0.080 0.045 0.134 0.129 0.137 0.225l0 0z"></path>
</svg>
