<!-- Generated by IcoMoon.io -->
<svg version="1.1" xmlns="http://www.w3.org/2000/svg" width="16" height="16" viewBox="0 0 16 16">
<title>etsy</title>
<path fill="#f16521" d="M5.709 1.63c0-0.217 0.022-0.347 0.393-0.347h4.977c0.867 0 1.347 0.74 1.693 2.129l0.28 1.111h0.847c0.153-3.152 0.287-4.523 0.287-4.523s-2.131 0.24-3.393 0.24h-6.366l-3.409-0.109v0.913l1.15 0.217c0.807 0.16 1 0.331 1.067 1.071 0 0 0.073 2.18 0.073 5.76 0 3.59-0.060 5.74-0.060 5.74 0 0.649-0.26 0.889-1.060 1.049l-1.148 0.22v0.899l3.42-0.11h5.7c1.29 0 4.26 0.11 4.26 0.11 0.070-0.78 0.5-4.32 0.57-4.709h-0.8l-0.856 1.94c-0.67 1.52-1.651 1.63-2.74 1.63h-3.271c-1.087 0-1.61-0.427-1.61-1.367v-4.961c0 0 2.413 0 3.193 0.064 0.608 0.043 0.975 0.217 1.173 1.065l0.26 1.13h0.94l-0.060-2.852 0.128-2.87h-0.927l-0.3 1.26c-0.189 0.829-0.32 0.98-1.169 1.067-1.111 0.113-3.21 0.093-3.21 0.093v-5.857z"></path>
</svg>
