<!-- Generated by IcoMoon.io -->
<svg version="1.1" xmlns="http://www.w3.org/2000/svg" width="16" height="16" viewBox="0 0 16 16">
<title>eventstore</title>
<path fill="#5ab552" d="M3.857 2.276c0.285-0.167 0.583-0.315 0.893-0.444 0.654-0.281 1.33-0.439 2.024-0.51l0.751 0.849-0.35 0.879c-0.68 0.13-1.319 0.38-1.919 0.74l-0.13 0.080-0.119-1.158-1.15-0.44zM3.53 2.483l1.193 0.46 0.125 1.14c-0.646 0.475-1.15 1.082-1.509 1.82-0.034 0.066-0.064 0.132-0.093 0.2l-0.84-1.019-1.369 0.289c0.341-0.736 0.801-1.394 1.375-1.973 0.343-0.348 0.713-0.653 1.111-0.917zM11.385 10.517c0.13-0.216 0.236-0.435 0.32-0.66l1.292 1.567 2.17-0.467c-0.125 0.342-0.271 0.677-0.441 1.005-0.447 0.861-1.035 1.606-1.765 2.24-0.741 0.641-1.579 1.11-2.514 1.405-0.018 0.006-0.037 0.011-0.055 0.017l-1.607-1.359 0.419-1.85 0.034-0.014c0.919-0.4 1.638-1.019 2.149-1.89zM14.102 3.203c0.133 0.182 0.256 0.373 0.375 0.569 0.494 0.832 0.836 1.721 1.026 2.669 0.181 0.94 0.21 1.886 0.080 2.835-0.070 0.456-0.17 0.9-0.309 1.335l-2.17 0.466-1.3-1.571c0.151-0.578 0.17-1.18 0.040-1.806-0.15-0.743-0.48-1.377-0.969-1.9l2.339-0.28 0.871-2.317zM0.892 5.723l1.4-0.296 0.824 1.006c-0.261 0.723-0.32 1.473-0.19 2.253 0.030 0.223 0.079 0.437 0.14 0.646l-1.48-0.337-1.060 1.254c-0.129-0.555-0.189-1.123-0.189-1.703 0.002-0.967 0.18-1.9 0.538-2.799l0.011-0.026zM3.187 9.679c0.213 0.563 0.525 1.076 0.939 1.544 0.31 0.359 0.66 0.65 1.042 0.879l-1.467 0.841 0.080 1.909c-0.484-0.301-0.93-0.66-1.333-1.070-0.681-0.7-1.2-1.499-1.56-2.4-0.099-0.25-0.18-0.5-0.25-0.75l1.090-1.279 1.48 0.339zM5.488 12.277c0.315 0.157 0.653 0.277 1.012 0.36 0.805 0.187 1.59 0.155 2.353-0.094l-0.417 1.838 1.591 1.347c-0.795 0.209-1.609 0.297-2.439 0.267-0.97-0.031-1.902-0.236-2.793-0.617-0.24-0.102-0.47-0.215-0.694-0.34l-0.079-1.921zM13.877 2.909l-0.875 2.324-2.409 0.29c-0.070-0.061-0.142-0.121-0.218-0.17-0.79-0.6-1.68-0.951-2.669-1.050-0.231-0.019-0.45-0.019-0.66-0.019l0.84-2.151-1.818-2.070c0.551-0.060 1.091-0.069 1.639-0.060 0.327 0.010 0.65 0.034 0.973 0.075 0.453 0.059 0.901 0.159 1.343 0.28 0.937 0.267 1.79 0.689 2.561 1.287 0.486 0.373 0.917 0.794 1.293 1.264z"></path>
</svg>
