<!-- Generated by IcoMoon.io -->
<svg version="1.1" xmlns="http://www.w3.org/2000/svg" width="16" height="16" viewBox="0 0 16 16">
<title>eventbrite</title>
<path fill="#f05537" d="M7 3.867c1.8-0.4 3.533 0.333 4.533 1.667l-7.8 1.8c0.267-1.667 1.533-3.067 3.267-3.467zM11.6 10.4c-0.6 0.867-1.533 1.533-2.6 1.733-1.8 0.4-3.533-0.333-4.533-1.733l7.8-1.733 1.267-0.267 2.467-0.533c0-0.533-0.067-1.067-0.2-1.533-1-4.333-5.267-6.933-9.6-5.933s-7 5.2-6 9.4 5.267 6.867 9.6 5.867c2.533-0.6 4.533-2.267 5.467-4.4 0.067-0.067-3.667-0.867-3.667-0.867z"></path>
</svg>
