<!-- Generated by IcoMoon.io -->
<svg version="1.1" xmlns="http://www.w3.org/2000/svg" width="16" height="16" viewBox="0 0 16 16">
<title>everplaces</title>
<path fill="#fa4b32" d="M7.226 15.981c-4.053-0.389-7.226-3.81-7.226-7.963 0-4.415 3.585-8 8-8s8 3.585 8 8c0 4.153-3.173 7.573-7.226 7.962v-4.697c1.48-0.35 2.58-1.681 2.58-3.265 0-1.852-1.502-3.355-3.354-3.355s-3.355 1.503-3.355 3.355c0 1.585 1.102 2.915 2.58 3.265zM6.967 6.211c0.428 0 0.775 0.347 0.775 0.775s-0.347 0.775-0.775 0.775-0.773-0.347-0.773-0.775 0.347-0.774 0.773-0.775z"></path>
</svg>
