<!-- Generated by IcoMoon.io -->
<svg version="1.1" xmlns="http://www.w3.org/2000/svg" width="16" height="16" viewBox="0 0 16 16">
<title>evernote</title>
<path fill="#00a82d" d="M5.128 3.63c0 0.159-0.013 0.425-0.171 0.597-0.171 0.16-0.435 0.173-0.592 0.173h-1.684c-0.487 0-0.777 0-0.973 0.027-0.106 0.013-0.237 0.067-0.303 0.093-0.027 0.013-0.027 0-0.013-0.013l3.842-3.941c0.013-0.013 0.027-0.013 0.013 0.013-0.027 0.066-0.079 0.199-0.092 0.305-0.027 0.199-0.027 0.491-0.027 0.981zM8.693 15.543c-0.447-0.292-0.684-0.677-0.776-0.915-0.091-0.216-0.144-0.467-0.145-0.73v-0c0.001-1.105 0.896-2 2-2.003h0c0.329 0 0.592 0.265 0.592 0.597 0 0.001 0 0.003 0 0.004 0 0.22-0.121 0.411-0.3 0.512l-0.003 0.002c-0.066 0.040-0.158 0.067-0.224 0.080s-0.315 0.040-0.433 0.145c-0.132 0.107-0.237 0.279-0.237 0.465 0 0.199 0.079 0.385 0.211 0.517 0.237 0.239 0.553 0.371 0.895 0.371 0.894-0.003 1.618-0.729 1.618-1.624 0-0.003 0-0.005-0-0.008v0c0-0.809-0.539-1.526-1.25-1.844-0.105-0.053-0.276-0.093-0.434-0.133-0.097-0.022-0.232-0.045-0.367-0.063l-0.027-0.003c-0.553-0.067-1.934-0.504-2.027-1.737 0 0-0.407 1.857-1.223 2.361-0.079 0.040-0.184 0.080-0.303 0.107s-0.249 0.040-0.289 0.040c-1.329 0.079-2.737-0.345-3.71-1.353 0 0-0.658-0.544-1-2.069-0.079-0.372-0.237-1.035-0.329-1.659-0.040-0.225-0.053-0.398-0.066-0.557 0-0.65 0.395-1.087 0.895-1.153h2.684c0.46 0 0.724-0.12 0.895-0.279 0.224-0.212 0.277-0.517 0.277-0.875v-2.799c0.065-0.491 0.5-0.903 1.144-0.903h0.316c0.131 0 0.289 0.013 0.434 0.027 0.105 0.013 0.197 0.040 0.355 0.080 0.803 0.199 0.973 1.021 0.973 1.021s1.513 0.265 2.277 0.398c0.723 0.133 2.513 0.252 2.855 2.069 0.803 4.325 0.316 8.517 0.277 8.517-0.566 4.086-3.934 3.887-3.934 3.887-0.016 0-0.036 0.001-0.055 0.001-0.585 0-1.127-0.184-1.572-0.497l0.009 0.006zM11.72 6.853c-0.435-0.040-0.803 0.133-0.935 0.465-0.027 0.067-0.053 0.146-0.039 0.185s0.040 0.053 0.066 0.067c0.158 0.080 0.421 0.119 0.803 0.159s0.645 0.067 0.815 0.040c0.027 0 0.053-0.013 0.079-0.053s0.013-0.12 0.013-0.186c-0.040-0.358-0.369-0.623-0.803-0.677z"></path>
</svg>
