<!-- Generated by IcoMoon.io -->
<svg version="1.1" xmlns="http://www.w3.org/2000/svg" width="16" height="16" viewBox="0 0 16 16">
<title>evry</title>
<path fill="#063a54" d="M0.295 8.613c0.068 0.17 0.075 0.284 0.048 0.461-0.021 0.135-0.045 0.269-0.072 0.403-0.023 0.116-0.078 0.367 0.002 0.463 0.078 0.093 0.233 0.087 0.415 0.065 0.201-0.025 1.207-0.228 2.265-0.665 0.143-0.062 0.29-0.137 0.415-0.23 0.287-0.216 0.333-0.67 0.333-0.67 0.007-0.087 0.006-0.211-0.109-0.275-0.084-0.047-0.201-0.017-0.375 0.029-0.289 0.077-1.001 0.346-1.249 0.419-0.1 0.029-0.298 0.076-0.374-0.018-0.127-0.156 0.055-0.646 0.163-0.919s0.279-0.492 0.803-0.64c0.193-0.055 0.508-0.153 0.636-0.195 0.141-0.047 0.326-0.138 0.405-0.45 0.090-0.356-0.185-0.411-0.437-0.479-0.359-0.098-0.585-0.11-0.427-0.453 0.065-0.14 0.125-0.202 0.265-0.239 0.143-0.037 1.353-0.225 1.834-0.311 0.27-0.048 0.361-0.191 0.474-0.421 0.243-0.497-0.062-0.529-0.308-0.507-0.557 0.051-1.452 0.21-1.835 0.265-0.204 0.029-0.068-0.313-0.307-0.329-0.469-0.033-0.868 0.162-1.027 0.283-0.151 0.115-0.223 0.469-0.223 0.469l-0.465 1.579c-0.040 0.182-0.097 0.362-0.229 0.439-0.319 0.189-0.971 0.201-0.913 0.893 0 0 0.013 0.34 0.292 1.033zM4.507 5.663c0.186-0.031 0.436-0.077 0.504 0.391 0.021 0.141 0.021 1.774 0.021 1.774s0.179-0.168 0.729-1.017c0.417-0.643 0.878-1.474 1.051-1.765 0.101-0.171 0.289-0.348 0.612-0.11 0.361 0.265 0.369 0.457 0.21 0.729-0.163 0.279-0.6 0.991-1.218 1.848-0.561 0.779-0.83 1.087-1.066 1.344s-0.551 0.553-0.879 0.508c-0.436-0.061-0.403-0.799-0.42-1.010s-0.103-1.888-0.044-2.279c0.023-0.152 0.017-0.331 0.499-0.411zM10.404 5.707c0.201 0.107-0.030 0.57-0.417 0.851-0.249 0.181-0.676 0.453-1.115 0.453 0.196-0.329 0.42-0.614 0.677-0.865l0.001-0.001c0.313-0.307 0.679-0.533 0.854-0.439zM15.851 5.605c0.194-0.249 0.233-0.397-0.089-0.707-0.289-0.278-0.482-0.114-0.623 0.030-0.023 0.028-0.677 0.667-1.366 1.447-0.536 0.607-0.999 1.171-0.999 1.171s-0.017-0.38 0.041-0.857c0.033-0.272 0.124-0.801 0.151-0.969 0.136-0.849-0.395-0.883-0.593-0.895-0.208-0.013-0.307 0.097-0.369 0.355-0.057 0.237-0.367 1.541-0.243 2.883 0.022 0.242 0.070 0.491 0.075 0.507l-0.125 0.171c-1.166-0.323-1.964-1.109-1.964-1.109s0.383-0.11 0.803-0.362c0.334-0.2 0.977-0.695 0.909-1.569-0.058-0.741-0.847-1.080-1.138-1.019-0.265 0.055-0.727 0.372-1.165 0.76-0.029-0.203-0.035-0.426-0.245-0.451-0.155-0.018-0.334 0.055-0.464 0.121-0.143 0.069-0.258 0.178-0.332 0.312l-0.002 0.004-0.491 1.11c-0.016 0.039-0.048 0.048-0.073 0.053-0.263 0.060-0.347 0.247-0.366 0.299 0 0-0.11 0.231 0.084 0.441-0.097 0.257-0.355 0.855-0.355 0.855-0.32 0.734-0.299 0.989-0.185 1.145 0.058 0.079 0.262 0.194 0.508 0.234 0.185 0.031 0.327-0.079 0.482-0.321 0.229-0.358 0.688-1.302 0.688-1.302s0.913 0.983 2.747 1.629c0 0-0.97 1.315-1.11 2.043 0 0-0.072 0.477 0.581 0.475 0.164 0 0.411-0.039 0.591-0.147 0.071-0.041 0.125-0.107 0.148-0.185l0.001-0.002c0.002-0.010 0.004-0.021 0.004-0.033 0-0.025-0.007-0.049-0.018-0.070l0 0.001c-0.018-0.031-0.046-0.049-0.067-0.069-0.033-0.033-0.029-0.075-0.011-0.125 0.359-1.029 1.821-2.779 2.131-3.159 0.822-1.005 2.341-2.569 2.451-2.693z"></path>
</svg>
