<!-- Generated by IcoMoon.io -->
<svg version="1.1" xmlns="http://www.w3.org/2000/svg" width="16" height="16" viewBox="0 0 16 16">
<title>exercism</title>
<path fill="#009cab" d="M2.9 1.107c-0.639 0-1.124 0.199-1.454 0.595s-0.496 0.976-0.496 1.737v2.316c0 0.537-0.057 0.949-0.173 1.239s-0.329 0.56-0.64 0.812c-0.092 0.075-0.137 0.137-0.137 0.185s0.045 0.11 0.137 0.185c0.317 0.257 0.532 0.529 0.645 0.817s0.169 0.698 0.169 1.234v2.308c0 0.767 0.167 1.349 0.5 1.745s0.816 0.595 1.449 0.595h0.588c0.253 0 0.412-0.012 0.48-0.036 0.067-0.024 0.1-0.085 0.1-0.181 0-0.134-0.089-0.223-0.266-0.265l-0.322-0.073c-0.709-0.161-1.063-0.86-1.063-2.099v-2.195c0-0.831-0.201-1.418-0.604-1.761l-0.153-0.129c-0.075-0.064-0.112-0.113-0.112-0.145 0-0.037 0.037-0.086 0.113-0.145l0.153-0.129c0.402-0.343 0.603-0.93 0.603-1.761v-2.195c0-0.74 0.090-1.253 0.27-1.54s0.555-0.508 1.123-0.663c0.172-0.049 0.258-0.127 0.258-0.233 0-0.145-0.193-0.217-0.58-0.217zM12.513 1.126c-0.387 0-0.58 0.072-0.58 0.217 0 0.107 0.085 0.185 0.257 0.233 0.569 0.155 0.944 0.377 1.124 0.663s0.27 0.8 0.27 1.54v2.196c0 0.831 0.201 1.417 0.604 1.761l0.153 0.129c0.075 0.059 0.113 0.107 0.113 0.145 0 0.033-0.038 0.081-0.113 0.145l-0.153 0.129c-0.402 0.343-0.603 0.931-0.603 1.761v2.195c0 1.239-0.355 1.938-1.063 2.099l-0.323 0.072c-0.177 0.043-0.265 0.131-0.265 0.265 0 0.097 0.033 0.157 0.1 0.181 0.068 0.024 0.227 0.036 0.48 0.036h0.588c0.633 0 1.117-0.199 1.449-0.595s0.5-0.978 0.5-1.745v-2.308c0-0.537 0.056-0.948 0.169-1.235s0.327-0.559 0.645-0.816c0.091-0.075 0.137-0.137 0.137-0.185s-0.045-0.11-0.137-0.185c-0.312-0.252-0.525-0.523-0.641-0.812s-0.173-0.703-0.173-1.239v-2.316c0-0.761-0.165-1.34-0.495-1.737s-0.815-0.595-1.453-0.595zM5.122 6.49c-0.971 0-1.76 0.741-1.76 1.652h0.68c0-0.559 0.485-1.013 1.080-1.013s1.079 0.455 1.079 1.013h0.68c0-0.911-0.789-1.652-1.759-1.652zM10.726 6.49c-0.971 0-1.759 0.741-1.759 1.652h0.68c0-0.559 0.485-1.013 1.080-1.013s1.080 0.455 1.080 1.013h0.68c0-0.911-0.79-1.652-1.761-1.652zM6.473 9.573v0.374c0 0.851 0.708 1.544 1.577 1.544s1.578-0.693 1.578-1.544v-0.373h-0.623v0.373c0 0.585-0.507 0.951-0.955 0.951s-0.987-0.182-0.987-0.951v-0.373z"></path>
</svg>
