<!-- Generated by IcoMoon.io -->
<svg version="1.1" xmlns="http://www.w3.org/2000/svg" width="16" height="16" viewBox="0 0 16 16">
<title>expo</title>
<path d="M12.147 7.773c0.039 0.003 0.086 0.004 0.132 0.004 0.948 0 1.739-0.672 1.923-1.566l0.002-0.013c-0.233-0.356-0.629-0.587-1.080-0.587-0 0-0 0-0.001 0h0c-0.009-0-0.019-0-0.030-0-0.711 0-1.288 0.577-1.288 1.288 0 0.338 0.13 0.645 0.342 0.875l-0.001-0.001zM7.556 2.348l2.681-1.551-0.853-0.481-3.695 2.14 0.294 0.165 0.56 0.313zM10.58 0.653c0.045 0.014 0.080 0.049 0.094 0.093l0 0.001 1.242 3.797c0.005 0.014 0.008 0.030 0.008 0.047 0 0.053-0.028 0.099-0.070 0.124l-0.001 0c-0.752 0.448-1.247 1.257-1.247 2.182 0 0.236 0.032 0.465 0.093 0.683l-0.004-0.018c0.304 1.083 1.282 1.864 2.443 1.864 0.090 0 0.18-0.005 0.268-0.014l-0.011 0.001c0.068-0.005 0.133 0.037 0.154 0.101l1.281 3.901c0.005 0.014 0.007 0.029 0.007 0.046 0 0.053-0.028 0.1-0.069 0.126l-0.001 0-3.929 2.385c-0.018 0.011-0.040 0.018-0.064 0.019l-0 0c-0.007 0.001-0.015 0.002-0.023 0.002-0.030 0-0.057-0.009-0.080-0.024l0.001 0-1.383-0.899c-0.024-0.016-0.043-0.038-0.054-0.064l-0-0.001-2.697-6.448-4.11 2.438c-0.008 0.005-0.016 0.010-0.026 0.014l-0.001 0c-0.017 0.008-0.036 0.012-0.057 0.012-0.027 0-0.053-0.008-0.075-0.022l0.001 0-0.929-0.547c-0.044-0.025-0.073-0.072-0.073-0.125 0-0.024 0.006-0.046 0.016-0.066l-0 0.001 3.977-7.875c0.015-0.029 0.038-0.052 0.067-0.066l0.001-0 3.979-2.304c0.021-0.013 0.047-0.021 0.075-0.021 0.026 0 0.050 0.007 0.071 0.019l-0.001-0zM6.42 3.203l-0.967-0.545-3.847 7.615 0.698 0.411 3.315-4.507c0.026-0.037 0.069-0.061 0.118-0.061 0.006 0 0.013 0 0.019 0.001l-0.001-0c0.053 0.005 0.097 0.040 0.117 0.089l3.614 8.647 0.967 0.626-3.869-11.78zM13.123 8.482c-0 0-0 0-0.001 0-0.874 0-1.582-0.708-1.582-1.582s0.708-1.582 1.582-1.582c0.437 0 0.832 0.177 1.118 0.463l-0-0c0.286 0.286 0.463 0.681 0.463 1.117 0 0 0 0 0 0v-0c0 0.001 0 0.003 0 0.004 0 0.873-0.707 1.58-1.58 1.58 0 0 0 0 0 0v0z"></path>
</svg>
