<!-- Generated by IcoMoon.io -->
<svg version="1.1" xmlns="http://www.w3.org/2000/svg" width="16" height="16" viewBox="0 0 16 16">
<title>eyeem</title>
<path d="M2.449 6.121v-0.693h-2.449v3.815h2.453v-0.699h-1.663v-0.919h1.439v-0.678h-1.439v-0.827zM3.89 10.543l1.688-3.938h-0.827l-0.601 1.571-0.607-1.571h-0.823l1.031 2.403-0.673 1.535zM8.307 8.161v-0.296c0-0.821-0.5-1.311-1.26-1.311-0.786 0-1.342 0.52-1.342 1.372 0 0.847 0.556 1.372 1.362 1.372 0.617 0 1.123-0.357 1.214-0.857l-0.749-0.036c-0.057 0.183-0.225 0.291-0.485 0.291-0.337 0-0.536-0.209-0.551-0.535zM7.041 7.136c0.337 0 0.5 0.209 0.515 0.531h-1.061c0.021-0.337 0.23-0.531 0.546-0.531zM11.36 6.12v-0.693h-2.448v3.815h2.453v-0.699h-1.663v-0.919h1.439v-0.678h-1.439v-0.827zM15 6.553c-0.398 0-0.658 0.179-0.811 0.419-0.173-0.271-0.465-0.418-0.827-0.418s-0.576 0.137-0.693 0.321v-0.271h-0.704v2.637h0.745v-1.464c0-0.316 0.179-0.531 0.474-0.531 0.271 0 0.429 0.189 0.429 0.525v1.469h0.745v-1.555c0.031-0.265 0.194-0.439 0.459-0.439 0.285 0 0.439 0.189 0.439 0.525v1.469h0.745v-1.617c0-0.668-0.398-1.071-1-1.072z"></path>
</svg>
