<!-- Generated by IcoMoon.io -->
<svg version="1.1" xmlns="http://www.w3.org/2000/svg" width="16" height="16" viewBox="0 0 16 16">
<title>f-droid</title>
<path fill="#1976d2" d="M13.648 6.721h-11.296c-0.585 0-1.059 0.474-1.059 1.059v7.060c0 0.585 0.474 1.059 1.059 1.059h11.296c0.585 0 1.059-0.474 1.059-1.059v-7.060c0-0.585-0.475-1.059-1.059-1.059zM8 15.017c-2.044 0-3.707-1.663-3.707-3.707s1.663-3.707 3.707-3.707 3.707 1.663 3.707 3.707-1.663 3.707-3.707 3.707zM8 8.274c-1.674 0-3.036 1.362-3.036 3.036s1.362 3.036 3.036 3.036 3.036-1.362 3.036-3.036-1.362-3.036-3.036-3.036zM8 13.516c-1.042 0-1.921-0.735-2.147-1.712h1.113c0.183 0.387 0.573 0.653 1.034 0.653 0.64 0 1.147-0.507 1.147-1.147s-0.507-1.147-1.147-1.147c-0.433 0-0.8 0.235-0.995 0.583h-1.135c0.252-0.941 1.113-1.641 2.13-1.641 1.212 0 2.206 0.994 2.206 2.206s-0.994 2.207-2.206 2.207zM15.899 0.264c-0.001 0.001-0.001 0.001-0.001 0.002-0.001-0.001-0.003-0.002-0.004-0.003 0.001-0.001 0.001-0.002 0.003-0.003-0.077-0.091-0.186-0.154-0.346-0.159-0.135 0.003-0.261 0.065-0.341 0.173l-1.212 1.569c-0.109-0.039-0.226-0.063-0.349-0.063h-11.297c-0.123 0-0.239 0.025-0.349 0.063l-1.212-1.569c-0.081-0.108-0.207-0.169-0.341-0.173-0.16 0.004-0.269 0.067-0.346 0.159 0.001 0.001 0.001 0.002 0.003 0.003-0.002 0.001-0.003 0.003-0.005 0.004 0-0.001-0.001-0.001-0.001-0.002-0.044 0.052-0.198 0.284-0.008 0.549l1.273 1.647c-0.045 0.117-0.072 0.244-0.072 0.377v2.471c0 0.585 0.474 1.059 1.059 1.059h11.296c0.585 0 1.059-0.474 1.059-1.059v-2.471c0-0.133-0.027-0.26-0.073-0.377l1.273-1.647c0.189-0.265 0.035-0.497-0.009-0.549zM4.603 5.485c-0.658 0-1.191-0.533-1.191-1.191s0.533-1.191 1.191-1.191 1.191 0.533 1.191 1.191-0.533 1.191-1.191 1.191zM11.486 5.485c-0.658 0-1.191-0.533-1.191-1.191s0.533-1.191 1.191-1.191 1.191 0.533 1.191 1.191-0.533 1.191-1.191 1.191z"></path>
</svg>
