<!-- Generated by IcoMoon.io -->
<svg version="1.1" xmlns="http://www.w3.org/2000/svg" width="16" height="16" viewBox="0 0 16 16">
<title>f-secure</title>
<path fill="#00baff" d="M15.953 1.96c-2.39-0.877-5.15-1.385-8.028-1.385-2.424 0-4.763 0.36-6.969 1.029l0.17-0.044c-0.655 0.162-1.134 0.744-1.134 1.439 0 0.14 0.020 0.276 0.056 0.405l-0.003-0.010c0.267 1.067 0.653 2.293 1.12 3.407 0.007 0.027 0.020 0.013 0.020-0.013-0.067-0.52 0.333-1.18 1.12-1.42 1.663-0.548 3.578-0.863 5.566-0.863 2.159 0 4.231 0.372 6.156 1.057l-0.128-0.040c0.573 0.2 1.213-0.113 1.4-0.707 0.467-1.5 0.653-2.52 0.7-2.773 0.007-0.047-0.033-0.067-0.047-0.080zM4.433 5.26c-0.573 0.12-1.367 0.307-1.96 0.507-1.187 0.407-1.133 1.853-0.5 2.313 0.047-0.267 0.333-0.633 0.653-0.753 1.187-0.467 2.46-0.747 3.747-0.86-0.653-0.267-1.293-0.647-1.933-1.207zM13.887 8.153c-1.756-0.845-3.819-1.338-5.996-1.338-1.786 0-3.494 0.332-5.067 0.937l0.096-0.033c-0.567 0.213-0.92 0.9-0.567 1.553 0.682 1.224 1.377 2.27 2.143 3.258l-0.043-0.058c-0.113-0.387 0.087-1.107 0.847-1.34 2.1-0.647 4.307-0.373 5.773 0.22 0.413 0.167 1 0.067 1.327-0.427 0.496-0.746 1.004-1.624 1.459-2.532l0.067-0.148c0.020-0.040 0-0.073-0.040-0.093zM10.48 13.333c-0.64-0.328-1.19-0.728-1.667-1.201l0.001 0.001c-0.227-0.227-0.56-0.553-0.913-0.94-0.8 0-1.58 0.080-2.413 0.347-0.773 0.24-0.847 1.133-0.507 1.6 0.573 0.713 0.973 1.1 1.613 1.76 0.329 0.324 0.781 0.524 1.28 0.524 0.492 0 0.939-0.195 1.267-0.511l-0.001 0.001c0.5-0.5 0.807-0.833 1.373-1.473 0.033-0.033 0.020-0.093-0.033-0.107z"></path>
</svg>
