<!-- Generated by IcoMoon.io -->
<svg version="1.1" xmlns="http://www.w3.org/2000/svg" width="16" height="16" viewBox="0 0 16 16">
<title>fandango</title>
<path fill="#ff7300" d="M9.109 4.637l-3.743 1.027 0.76 2.816 3.743-1.027 0.763 2.813-3.743 0.993 0.729 2.816-3.743 0.993-0.929-3.376c0.564-0.663 0.796-1.591 0.564-2.485-0.265-0.895-0.928-1.59-1.723-1.888l-0.928-3.478 7.52-1.989zM13.847 4.505l-1.225-4.472-12.621 3.345 1.225 4.505c0.729 0.133 1.391 0.695 1.59 1.491 0.232 0.795-0.067 1.59-0.629 2.12l1.192 4.472 12.622-3.379-1.193-4.472c-0.761-0.133-1.391-0.695-1.623-1.491-0.199-0.795 0.067-1.623 0.663-2.12z"></path>
</svg>
