<!-- Generated by IcoMoon.io -->
<svg version="1.1" xmlns="http://www.w3.org/2000/svg" width="16" height="16" viewBox="0 0 16 16">
<title>favro</title>
<path fill="#512da8" d="M7.724 1.103c-2.437 0.001-4.413 1.977-4.414 4.414v0.515c0.953 0.484 1.712 1.234 2.194 2.152l0.013 0.027v-2.694c0-0.002 0-0.003 0-0.005 0-1.216 0.986-2.201 2.201-2.201 0.002 0 0.004 0 0.006 0h-0c0.607 0 1.103-0.497 1.103-1.103s-0.497-1.103-1.103-1.104zM1.103 6.069c-0.607 0-1.103 0.497-1.103 1.103s0.497 1.103 1.103 1.103c0.002 0 0.003 0 0.005 0 1.216 0 2.201 0.986 2.201 2.201 0 0.002 0 0.004 0 0.006v-0 3.311c0 0.607 0.497 1.103 1.103 1.103s1.103-0.497 1.103-1.103v-3.311c-0.001-2.437-1.976-4.412-4.413-4.413h-0zM11.586 6.069c-2.437 0-4.414 1.977-4.414 4.414s1.977 4.414 4.414 4.414c0.002 0 0.003 0 0.005 0 0.852 0 1.648-0.243 2.321-0.663l-0.018 0.011c0.175 0.386 0.561 0.653 1.002 0.653 0.609-0.002 1.101-0.495 1.103-1.103v-6.621c-0.002-0.609-0.495-1.101-1.103-1.103h-0c-0.451 0-0.827 0.267-1.002 0.653-0.655-0.41-1.45-0.653-2.302-0.653-0.002 0-0.004 0-0.006 0h0zM11.586 8.276c1.223 0 2.207 0.984 2.207 2.207s-0.984 2.207-2.207 2.207c-1.223 0-2.207-0.984-2.207-2.207s0.984-2.207 2.207-2.207z"></path>
</svg>
