<!-- Generated by IcoMoon.io -->
<svg version="1.1" xmlns="http://www.w3.org/2000/svg" width="16" height="16" viewBox="0 0 16 16">
<title>fedora</title>
<path fill="#294172" d="M8 0c-4.417 0-7.997 3.579-8 7.995v6.191c0.002 1.003 0.816 1.815 1.819 1.815 0 0 0 0 0 0h6.185c4.417-0.002 7.997-3.583 7.997-8s-3.582-8-8-8zM11.063 3.718c-0.253 0-0.344-0.049-0.715-0.049 0 0 0 0 0 0-1.093 0-1.98 0.885-1.982 1.978v1.722c0 0.155 0.125 0.28 0.28 0.28h1.302c0.485 0 0.877 0.387 0.877 0.873 0 0.489-0.396 0.875-0.887 0.875h-1.572v1.99c0 2.074-1.681 3.755-3.755 3.755-0 0-0 0-0.001 0h0c-0.006 0-0.012 0-0.019 0-0.289 0-0.568-0.041-0.832-0.117l0.021 0.005c-0.425-0.111-0.771-0.459-0.771-0.864 0-0.489 0.355-0.845 0.887-0.845 0.252 0 0.344 0.048 0.714 0.048 1.093 0 1.98-0.885 1.982-1.979v-1.722c-0-0.154-0.126-0.279-0.28-0.279 0 0 0 0 0 0h-1.302c-0.485 0-0.877-0.387-0.877-0.873 0-0.489 0.396-0.875 0.887-0.875h1.571v-1.99c0-2.074 1.681-3.755 3.755-3.755v0c0.315 0 0.538 0.035 0.829 0.111 0.425 0.111 0.772 0.46 0.772 0.864 0 0.49-0.355 0.846-0.886 0.846z"></path>
</svg>
