<!-- Generated by IcoMoon.io -->
<svg version="1.1" xmlns="http://www.w3.org/2000/svg" width="16" height="16" viewBox="0 0 16 16">
<title>feedly</title>
<path fill="#2bb24c" d="M9.24 1.326c-0.316-0.322-0.756-0.522-1.242-0.522s-0.926 0.2-1.242 0.521l-0 0-6.244 6.359c-0.317 0.327-0.512 0.773-0.512 1.265s0.195 0.938 0.512 1.265l-0-0 4.456 4.539c0.307 0.274 0.714 0.442 1.16 0.443h3.742c0.489-0 0.931-0.202 1.248-0.527l0-0 4.369-4.45c0.317-0.327 0.513-0.773 0.513-1.265s-0.195-0.938-0.513-1.265l0 0zM9.067 12.941l-0.623 0.633c-0.045 0.047-0.109 0.076-0.179 0.076 0 0 0 0 0 0h-0.533c-0.063-0.001-0.121-0.025-0.165-0.064l0 0-0.636-0.647c-0.045-0.047-0.073-0.11-0.073-0.181s0.028-0.134 0.073-0.181l-0 0 0.891-0.907c0.045-0.046 0.108-0.075 0.177-0.075s0.132 0.029 0.177 0.075l0 0 0.891 0.907c0.045 0.047 0.073 0.11 0.073 0.181s-0.028 0.135-0.074 0.181l0-0zM9.067 9.133l-2.491 2.539c-0.045 0.046-0.108 0.074-0.177 0.074-0 0-0.001 0-0.001 0h-0.533c-0 0-0.001 0-0.002 0-0.063 0-0.121-0.024-0.165-0.062l0 0-0.634-0.647c-0.045-0.047-0.073-0.111-0.073-0.181s0.028-0.134 0.073-0.181l-0 0 2.759-2.809c0.045-0.046 0.108-0.074 0.177-0.074s0.132 0.028 0.177 0.074l0 0 0.891 0.908c0.045 0.046 0.073 0.11 0.073 0.179s-0.028 0.134-0.074 0.181l0-0zM9.067 5.329l-4.36 4.44c-0.045 0.046-0.108 0.075-0.178 0.075-0 0-0 0-0.001 0h-0.533c-0 0-0.001 0-0.001 0-0.063 0-0.121-0.024-0.165-0.063l0 0-0.635-0.648c-0.045-0.046-0.073-0.11-0.073-0.18s0.028-0.133 0.073-0.18l-0 0 4.629-4.713c0.045-0.046 0.108-0.074 0.177-0.074s0.132 0.028 0.177 0.074l0 0 0.891 0.907c0.045 0.047 0.073 0.11 0.073 0.181s-0.028 0.135-0.074 0.181l0-0z"></path>
</svg>
