<!-- Generated by IcoMoon.io -->
<svg version="1.1" xmlns="http://www.w3.org/2000/svg" width="16" height="16" viewBox="0 0 16 16">
<title>fidoalliance</title>
<path fill="#ffbf3b" d="M5.233 5.009c-0.399 0-0.723 0.324-0.723 0.723s0.324 0.723 0.723 0.723c0.399 0 0.723-0.323 0.723-0.723v-0.001c0-0.399-0.324-0.723-0.723-0.723zM3.295 7.035v0.945h1.299v3.195h0.469v-1.816h0.339v1.816h0.473v-4.141zM9.415 7.393h-0.015c-0.191-0.277-0.575-0.468-1.093-0.468-0.993 0-1.865 0.816-1.857 2.213 0 1.291 0.787 2.134 1.773 2.134 0.531 0 1.040-0.241 1.29-0.693l0.078 0.595h1.113v-6.073h-1.289zM9.415 9.329c0 0.105-0.008 0.209-0.023 0.31l0.001-0.011c-0.073 0.355-0.383 0.617-0.753 0.617h-0.009c-0.531 0-0.879-0.439-0.879-1.149 0-0.652 0.297-1.178 0.886-1.178 0.404 0 0.681 0.291 0.759 0.631 0.009 0.060 0.015 0.129 0.015 0.2l-0.001 0.036v-0.002zM3.201 5.927l0.317-1.067c-0.070-0.025-0.156-0.048-0.244-0.065l-0.012-0.002-0.013-0.002c-0.163-0.039-0.351-0.061-0.543-0.061-0.003 0-0.007 0-0.010 0h0.001c-0.001 0-0.003 0-0.004 0-0.256 0-0.503 0.039-0.736 0.111l0.018-0.005 0.018-0.005c-0.097 0.028-0.181 0.063-0.261 0.106l0.007-0.004 0.007-0.003c-0.17 0.086-0.315 0.192-0.442 0.317l0-0c-0.333 0.327-0.503 0.77-0.503 1.317v0.472h-0.802v0.945h0.799v3.195h1.281v-3.195h0.799v-0.944h-0.799v-0.5c-0.001-0.013-0.001-0.028-0.001-0.044 0-0.164 0.058-0.315 0.156-0.433l-0.001 0.001-0.001 0.001c0.013-0.015 0.027-0.028 0.041-0.041l0.001-0 0.001-0.001c0 0 0.276-0.273 0.927-0.093zM13.537 6.925c-1.34 0-2.218 0.857-2.218 2.205s0.929 2.141 2.142 2.141c1.109 0 2.184-0.693 2.184-2.218-0.001-1.249-0.845-2.128-2.108-2.128zM13.495 10.343c-0.555 0-0.851-0.531-0.851-1.247 0-0.61 0.241-1.241 0.851-1.241 0.581 0 0.823 0.624 0.823 1.234 0 0.758-0.321 1.255-0.823 1.254zM14.995 6.507h0.155v0.393h0.093v-0.393h0.154v-0.078h-0.402zM15.866 6.429l-0.121 0.337-0.121-0.337h-0.135v0.471h0.087v-0.381l0.132 0.381h0.075l0.13-0.381v0.381h0.087v-0.471z"></path>
</svg>
