<!-- Generated by IcoMoon.io -->
<svg version="1.1" xmlns="http://www.w3.org/2000/svg" width="16" height="16" viewBox="0 0 16 16">
<title>figma</title>
<path fill="#f24e1e" d="M8 8c0-1.473 1.194-2.667 2.667-2.667s2.667 1.194 2.667 2.667v0c0 1.473-1.194 2.667-2.667 2.667s-2.667-1.194-2.667-2.667v0zM2.667 13.333c0-1.473 1.194-2.667 2.667-2.667v0h2.667v2.667c0 1.473-1.194 2.667-2.667 2.667s-2.667-1.194-2.667-2.667v0zM8 0v5.333h2.667c1.473 0 2.667-1.194 2.667-2.667s-1.194-2.667-2.667-2.667v0zM2.667 2.667c0 1.473 1.194 2.667 2.667 2.667v0h2.667v-5.333h-2.667c-1.473 0-2.667 1.194-2.667 2.667v0zM2.667 8c0 1.473 1.194 2.667 2.667 2.667v0h2.667v-5.333h-2.667c-1.473 0-2.667 1.194-2.667 2.667v0z"></path>
</svg>
