<!-- Generated by IcoMoon.io -->
<svg version="1.1" xmlns="http://www.w3.org/2000/svg" width="16" height="16" viewBox="0 0 16 16">
<title>filezilla</title>
<path fill="#bf0000" d="M16.001 1.24v-0.706c-0.141 0-0.279-0.058-0.379-0.157s-0.156-0.237-0.156-0.378h-0.707c-0.014 0.296-0.267 0.524-0.563 0.51-0.275-0.014-0.495-0.235-0.509-0.51h-0.707c-0.018 0.296-0.272 0.521-0.569 0.503-0.27-0.017-0.486-0.233-0.503-0.503h-0.706c-0.015 0.296-0.267 0.524-0.563 0.51-0.275-0.014-0.495-0.235-0.51-0.51h-0.707c-0.015 0.296-0.266 0.524-0.563 0.51-0.275-0.014-0.495-0.235-0.51-0.51h-0.706c-0.018 0.296-0.272 0.521-0.569 0.503-0.27-0.017-0.486-0.233-0.503-0.503h-0.707c-0.007 0.296-0.255 0.527-0.551 0.516-0.281-0.009-0.507-0.235-0.517-0.516h-0.707c-0.014 0.296-0.267 0.524-0.563 0.51-0.275-0.015-0.496-0.235-0.509-0.51h-0.707c-0.011 0.296-0.259 0.527-0.555 0.516-0.281-0.009-0.507-0.235-0.517-0.516h-0.707c0 0.141-0.057 0.279-0.157 0.378s-0.237 0.157-0.379 0.157v0.706c0.296 0.011 0.527 0.259 0.516 0.555-0.009 0.281-0.235 0.507-0.516 0.517v0.707c0.296 0.011 0.527 0.259 0.516 0.555-0.009 0.281-0.235 0.507-0.516 0.517v0.706c0.296 0 0.536 0.241 0.536 0.537s-0.24 0.536-0.536 0.536v0.706c0.296 0 0.536 0.239 0.536 0.536s-0.239 0.536-0.536 0.536v0.707c0.296 0.011 0.527 0.259 0.516 0.555-0.009 0.281-0.235 0.507-0.516 0.517v0.707c0.296 0 0.536 0.239 0.536 0.535s-0.239 0.537-0.536 0.537v0.707c0.296 0.011 0.527 0.258 0.516 0.553-0.009 0.281-0.235 0.508-0.516 0.517v0.707c0.296 0 0.536 0.239 0.536 0.537 0 0.295-0.239 0.535-0.536 0.535v0.707c0.295 0.001 0.535 0.239 0.535 0.535h0.707c0.018-0.295 0.273-0.521 0.569-0.503 0.271 0.017 0.486 0.232 0.503 0.503h0.707c0.014-0.295 0.267-0.523 0.563-0.509 0.275 0.014 0.495 0.235 0.509 0.509h0.706c0.015-0.295 0.267-0.523 0.563-0.509 0.275 0.014 0.495 0.235 0.509 0.509h0.707c0.011-0.295 0.259-0.527 0.555-0.517 0.281 0.011 0.507 0.236 0.517 0.517h0.707c0.014-0.295 0.267-0.523 0.563-0.509 0.275 0.014 0.495 0.235 0.509 0.509h0.706c0.015-0.295 0.267-0.523 0.563-0.509 0.275 0.014 0.495 0.235 0.51 0.509h0.706c0.015-0.295 0.267-0.523 0.563-0.509 0.275 0.014 0.495 0.235 0.51 0.509h0.707c0.011-0.295 0.259-0.527 0.554-0.517 0.281 0.011 0.507 0.236 0.517 0.517h0.703c0-0.141 0.057-0.279 0.157-0.379 0.099-0.099 0.237-0.156 0.378-0.156v-0.707c-0.296-0.018-0.521-0.272-0.503-0.568 0.017-0.271 0.233-0.487 0.503-0.503v-0.707c-0.296-0.015-0.524-0.267-0.509-0.563 0.014-0.276 0.234-0.496 0.509-0.509v-0.707c-0.296-0.018-0.521-0.273-0.503-0.569 0.017-0.271 0.233-0.486 0.503-0.503v-0.707c-0.296-0.014-0.524-0.267-0.509-0.563 0.014-0.275 0.234-0.495 0.509-0.509v-0.705c-0.296-0.018-0.521-0.273-0.503-0.569 0.017-0.271 0.233-0.486 0.503-0.503v-0.707c-0.296-0.014-0.524-0.267-0.509-0.563 0.014-0.275 0.234-0.495 0.509-0.509v-0.707c-0.296-0.018-0.521-0.272-0.503-0.569 0.017-0.27 0.233-0.486 0.503-0.503v-0.707c-0.296-0.015-0.524-0.267-0.51-0.563 0.014-0.275 0.234-0.495 0.51-0.509zM13.289 7.799l-4.269 4.151c0.387 0.060 0.76 0.15 1.161 0.15 0.977 0 2.099-0.297 2.858-0.611l-0.389 1.831c-1.117 0.537-1.801 0.581-2.469 0.581-0.73 0-1.429-0.238-2.143-0.238-0.402 0-0.983 0.030-1.339 0.267l-0.774-1.369 4.405-4.361h-5.069l-0.967 4.539h-2.113l2.203-10.387h6.993l-0.447 2.097h-4.866l-0.417 1.95h7.985l-0.343 1.4z"></path>
</svg>
