<!-- Generated by IcoMoon.io -->
<svg version="1.1" xmlns="http://www.w3.org/2000/svg" width="16" height="16" viewBox="0 0 16 16">
<title>firebase</title>
<path fill="#ffca28" d="M2.593 10.449l1.577-10.141c0.027-0.175 0.177-0.307 0.357-0.307 0.138 0 0.258 0.077 0.318 0.191l0.001 0.002 1.695 3.181zM13.79 12.909l-1.501-9.333c-0.030-0.172-0.178-0.302-0.357-0.302-0.1 0-0.19 0.040-0.255 0.105l0-0-9.467 9.529 5.238 2.952c0.152 0.087 0.335 0.138 0.529 0.138s0.377-0.051 0.534-0.141l-0.005 0.003zM9.533 4.765l-1.213-2.321c-0.062-0.116-0.182-0.194-0.32-0.194s-0.258 0.078-0.319 0.192l-0.001 0.002-5.327 9.545z"></path>
</svg>
