<!-- Generated by IcoMoon.io -->
<svg version="1.1" xmlns="http://www.w3.org/2000/svg" width="16" height="16" viewBox="0 0 16 16">
<title>fitbit</title>
<path fill="#00b0b9" d="M8.865 1.217c0 0.651-0.54 1.19-1.191 1.19-0.648 0-1.189-0.54-1.189-1.19 0-0.649 0.542-1.19 1.189-1.19 0.651 0 1.191 0.542 1.191 1.19zM7.675 3.379c-0.701 0-1.242 0.54-1.242 1.244 0 0.702 0.54 1.243 1.243 1.243 0.702 0 1.243-0.541 1.243-1.243s-0.55-1.244-1.25-1.244zM7.675 6.731c-0.701 0-1.297 0.594-1.297 1.297s0.596 1.297 1.298 1.297 1.297-0.594 1.297-1.297-0.596-1.297-1.297-1.297zM7.675 10.136c-0.701 0-1.242 0.54-1.242 1.243s0.54 1.244 1.243 1.244c0.702 0 1.243-0.541 1.243-1.244 0-0.648-0.55-1.243-1.25-1.243zM7.675 13.597c-0.648 0-1.189 0.539-1.189 1.189 0 0.647 0.542 1.187 1.189 1.187 0.651 0 1.191-0.539 1.191-1.189 0-0.649-0.54-1.187-1.191-1.187zM10.973 3.215c-0.757 0-1.405 0.651-1.405 1.407s0.649 1.405 1.405 1.405 1.404-0.65 1.404-1.405c0-0.757-0.648-1.406-1.404-1.406zM10.973 6.569c-0.811 0-1.46 0.649-1.46 1.46s0.65 1.458 1.46 1.458 1.459-0.647 1.459-1.459c0-0.811-0.649-1.459-1.459-1.459zM10.973 9.974c-0.757 0-1.405 0.651-1.405 1.405 0 0.757 0.649 1.406 1.405 1.406s1.404-0.651 1.404-1.406-0.647-1.405-1.404-1.405zM14.377 6.405c-0.864 0-1.62 0.703-1.62 1.623 0 0.865 0.701 1.622 1.62 1.622 0.921 0 1.623-0.71 1.623-1.629-0.055-0.921-0.757-1.621-1.623-1.621zM4.324 3.541c-0.595 0-1.080 0.487-1.080 1.082 0 0.594 0.486 1.080 1.080 1.080 0.595 0 1.079-0.486 1.079-1.080 0-0.595-0.485-1.080-1.079-1.080zM4.324 6.893c-0.649 0-1.135 0.486-1.135 1.135s0.481 1.135 1.13 1.135 1.13-0.487 1.13-1.135c0-0.65-0.49-1.135-1.14-1.135zM4.324 10.297c-0.595 0-1.080 0.487-1.080 1.080 0 0.597 0.486 1.082 1.080 1.082 0.595 0 1.079-0.49 1.079-1.090s-0.485-1.080-1.079-1.080zM0.974 7.055c-0.542 0-0.974 0.431-0.974 0.973 0 0.54 0.432 0.973 0.973 0.973 0.54 0 0.973-0.432 0.973-0.973s-0.432-0.973-0.972-0.973z"></path>
</svg>
