<!-- Generated by IcoMoon.io -->
<svg version="1.1" xmlns="http://www.w3.org/2000/svg" width="16" height="16" viewBox="0 0 16 16">
<title>fiverr</title>
<path fill="#1dbf73" d="M9.093 7.952h-0.636c0.040-0.172 0.144-0.328 0.356-0.328 0.164 0 0.28 0.152 0.28 0.328zM16.001 8c0 4.418-3.582 8-8 8s-8-3.582-8-8 3.582-8 8-8 8 3.582 8 8zM4.145 6.52c0 0.199 0.161 0.36 0.36 0.36s0.36-0.161 0.36-0.36-0.161-0.36-0.36-0.36-0.36 0.161-0.36 0.36zM5.157 8.8h-0.28v-1.684h-1.644v-0.108c0-0.212 0.212-0.216 0.32-0.216 0.124 0 0.18 0.012 0.18 0.012v-0.584c0 0-0.112-0.016-0.264-0.016-0.344 0-0.98 0.096-0.98 0.824v0.092h-0.3v0.54h0.3v1.14h-0.28v0.54h1.352v-0.54h-0.328v-1.14h0.9v1.14h-0.28v0.54h1.304zM7.433 7.656h0.248v-0.54h-1.18v0.54h0.2l-0.256 0.8c-0.048 0.132-0.060 0.292-0.060 0.292h-0.016c0 0-0.012-0.16-0.060-0.292l-0.256-0.8h0.2v-0.54h-1.18v0.54h0.248l0.616 1.68h0.88zM9.865 8.136c0-0.616-0.372-1.072-1.032-1.072-0.716 0-1.156 0.508-1.156 1.16 0 0.592 0.428 1.164 1.22 1.164 0.6 0 0.956-0.312 0.956-0.312l-0.272-0.516c0 0-0.296 0.212-0.624 0.212-0.236 0-0.46-0.124-0.516-0.408h1.408c-0.004-0.004 0.016-0.156 0.016-0.228zM11.849 7.088c0 0-0.044-0.008-0.088-0.008-0.34-0.004-0.62 0.244-0.712 0.548v0h-0.008c0 0 0.008-0.044 0.008-0.112v-0.116c0-0.204-0.112-0.284-0.316-0.284h-0.7v0.54h0.208c0.060 0 0.096 0.036 0.096 0.096v1.048h-0.3v0.54h1.348v-0.54h-0.3v-0.324c0-0.404 0.2-0.668 0.612-0.668 0.092 0 0.152 0.012 0.152 0.012zM13.821 7.82v-0.732c0 0-0.044-0.008-0.088-0.008-0.336-0.004-0.616 0.244-0.712 0.548v0h-0.008c0 0 0.008-0.044 0.008-0.112v-0.116c0-0.204-0.112-0.284-0.316-0.284h-0.7v0.54h0.208c0.060 0 0.096 0.036 0.096 0.096v1.048h-0.3v0.54h1.348v-0.54h-0.3v-0.324c0-0.404 0.2-0.668 0.612-0.668 0.092 0 0.152 0.012 0.152 0.012z"></path>
</svg>
