<!-- Generated by IcoMoon.io -->
<svg version="1.1" xmlns="http://www.w3.org/2000/svg" width="16" height="16" viewBox="0 0 16 16">
<title>flask</title>
<path d="M4.781 13.77c-0.609-0.48-1.26-0.94-1.704-1.587-0.935-1.141-1.655-2.463-2.147-3.851-0.297-0.903-0.4-1.872-0.783-2.74-0.401-0.629 0.069-1.319 0.759-1.519 0.307-0.059 0.848-0.349 0.195-0.141-0.585 0.429-0.642-0.39-0.042-0.441 0.41-0.055 0.56-0.39 0.42-0.691-0.439-0.287 1.067-0.602 0.309-1.029-0.788-0.852 1.105-1.016 0.638-0.049-0.111 0.743 1.323-0.136 0.99 0.722 0.338 0.413 1.267 0.094 1.243 0.673 0.493 0.033 0.662 0.448 1.125 0.48 0.48 0.217 1.349 0.387 1.511 0.927-0.475 0.377-1.577-0.777-1.629 0.265 0.143 1.54 0.107 3.126 0.67 4.592 0.267 0.888 0.913 1.587 1.496 2.279 0.558 0.677 1.314 1.153 2.085 1.555 0.676 0.319 1.405 0.53 2.142 0.663 0.299-0.229 0.827-1.078 1.292-0.72 0.022 0.403-0.925 0.842-0.045 0.797 0.517-0.156 0.876 0.4 1.302-0.101 0.392 0.465 1.631-0.297 1.351 0.653-0.377 0.243-0.928 0.096-1.306 0.431-0.623-0.311-1.12 0.279-1.81 0.204-0.767 0.137-1.546 0.193-2.323 0.194-1.275-0.101-2.577-0.143-3.789-0.587-0.683-0.199-1.349-0.588-1.951-0.977zM5.858 14.237c0.667 0.288 1.319 0.592 2.050 0.684 1.16 0.161 2.358 0.409 3.522 0.183-0.527-0.238-1.072 0.093-1.597-0.17-0.629 0.135-1.305-0.035-1.945-0.118-0.728-0.324-1.513-0.547-2.195-0.968-0.851-0.311 0.44 0.399 0.671 0.457 0.532 0.302-0.585-0.155-0.743-0.281-0.445-0.25-0.503-0.198-0.044 0.056 0.093 0.054 0.184 0.111 0.281 0.157zM4.589 13.339c0.647 0.239-0.003-0.455-0.299-0.415-0.131-0.227-0.501-0.371-0.24-0.493-0.47 0.163-0.492-0.62-0.713-0.509-0.497-0.157-0.193-0.713-0.785-1.053-0.054-0.36-0.588-0.672-0.759-1.215-0.075-0.277-0.603-1.075-0.279-0.333 0.276 0.715 0.762 1.327 1.167 1.938 0.313 0.582 0.685 1.191 1.257 1.553 0.193 0.185 0.379 0.469 0.651 0.527zM2.727 11.295c0.022-0.097 0.118 0.211 0 0zM5.363 13.626c0.143-0.064-0.206-0.080 0 0zM5.713 13.754c-0.036-0.177-0.16 0.099 0 0zM6.153 13.937c0.209-0.199-0.323-0.125 0 0zM6.905 14.357c0.127-0.188-0.407-0.071 0 0zM5.46 13.349c0.325-0.21-0.42-0.003 0 0zM5.789 13.513c-0.009-0.111-0.117 0.050 0 0zM7.436 14.541c0.265 0.167 1.547 0.367 0.744 0.069-0.134 0.028-1.487-0.383-0.744-0.069zM4.822 12.505c-0.026-0.111-0.411-0.123 0 0zM5.589 12.951c0.2-0.139-0.414-0.107 0 0zM6.233 13.347c0.287-0.108-0.465-0.109 0 0zM4.51 12.165c0.311 0.239 1.253 0.031 0.476-0.142-0.353-0.189-1.151-0.317-0.608 0.113zM6.67 13.483c0.129-0.22-0.543-0.126 0 0zM6.014 12.961c0.76 0.215-0.639-0.48-0.187-0.079l0.1 0.045zM7.33 13.722c0.719 0.007-0.65-0.099 0 0zM4.233 11.749c-0.028-0.134-0.177 0.011 0 0zM8.547 14.405c0.019-0.242-0.235 0.18 0 0zM5.461 12.501c-0.043-0.127-0.225-0.005 0 0zM4.301 11.665c0.413-0.025-0.565-0.182 0 0zM2.928 10.777c-0.051-0.198-0.449-0.356 0 0zM6.533 13.067c-0.076-0.087-0.036 0.019 0 0zM8.777 14.443c-0.007-0.131-0.122 0.050 0 0zM6.335 12.861c0.040-0.17-0.353-0.051 0 0zM4.663 11.8c0.307-0.033-0.493-0.207 0 0zM7.491 13.558c0.479-0.19-0.467-0.093 0 0zM6.020 12.56c0.552 0.071-0.657-0.375-0.121-0.040zM7.938 13.739c0.515-0.308 0.345 0.721 0.874 0.087 0.521-0.38-0.45 0.471 0.193 0.069 0.465-0.311 1.151 0.147 1.585 0.297 0.312-0.015 0.615 0.27 0.935 0.097 0.615-0.167-1.204-0.247-0.727-0.54-0.563 0.163-0.98-0.196-1.257-0.557-0.632-0.146-1.363-0.469-1.678-1.028-0.128-0.21 0.186 0.029-0.111-0.313-0.381-0.339-0.571-0.723-0.827-1.135-0.305-0.163-0.34-0.642-0.371-0.016 0.003-0.395-0.369-0.661-0.459-0.551-0.001-0.381 0.397-0.19 0.118-0.471-0.060-0.395-0.258-0.806-0.317-1.251-0.092-0.215-0.013-0.674-0.315-0.188-0.11 0.513-0.037-0.631 0.135-0.253 0.225-0.386-0.080-0.34-0.093-0.287 0.147-0.325 0.093-0.787-0.038-0.611 0.078-0.345 0.123-1.268-0.117-1.104 0.145-0.36 0.276-1.649-0.356-1.157-0.256 0.003-0.699 0.093-0.909 0.197 0.657 0.362-0.066 0.131-0.333 0.073-0.035 0.335-0.3 0.19-0.631 0.193 0.529 0.065-0.257 0.54-0.561 0.356-0.393 0.188 0.34 0.658 0.008 0.803 0.041 0.219-0.603-0.079-0.553 0.427-0.382-0.161-0.052 0.6 0.139 0.343 0.65 0.176 0.457 0.577 0.474 0.958-0.106 0.222-0.523-0.522-0.093-0.487-0.339-0.551-0.375-0.199-0.657 0.057-0.066 0.019 0.719 0.365 0.227 0.535 0.433 0.067 0.445 0.447 0.533 0.687 0.261 0.271 0.207-0.3 0.519 0.027-0.197-0.291-1.045-0.819-0.363-0.649-0.003-0.293-0.123-0.529 0.086-0.523 0.207-0.375-0.217 0.925 0.25 0.448 0.129-0.057 0.161-0.375 0.393 0.030 0.337 0.332 0.121 0.572-0.354 0.269 0.085 0.289 0.636 0.391 0.533 0.843 0.11 0.397 0.263 0.251 0.397 0.228 0.105 0.385 0.165 0.102 0.17-0.082 0.481 0.103 0.368 0.387 0.519 0.587 0.331 0.149-0.475-1.015 0.095-0.351 0.599 0.541 0.225 0.767-0.313 0.68 0.34-0.027 0.45 0.46 0.875 0.443 0.388 0.185 0.651 0.893-0.018 0.598-0.232-0.209-1.053-0.467-0.382-0.069 0.619 0.287 1.111 0.459 1.708 0.818 0.427 0.305 0.612 0.655 0.773 0.724-0.359 0.171-1.082-0.137-0.545-0.232-0.335-0.061-0.712-0.23-0.391 0.187 0.273 0.229 0.967 0.204 1.091 0.23-0.106 0.232-0.287 0.251 0.004 0.269-0.324 0.173 0.104 0.2 0.134 0.298zM7.275 11.867c-0.197-0.207-0.249-0.593-0.035-0.257 0.109 0.044 0.35 0.631 0.035 0.257zM9.434 13.238c0.123-0.007 0.004 0.093 0 0zM6.963 11.361c-0.007-0.312 0.071 0.241 0 0zM6.749 11.072c-0.248-0.479 0.313 0.136 0 0zM4.149 9.277c0.145-0.039 0.071 0.249 0 0zM6.218 10.399c0.089-0.336 0.105 0.283 0 0zM4.756 9.382c-0.103-0.185 0.215 0.174 0 0zM6.011 9.785c-0.235-0.527 0.167-0.288 0.052 0.087zM3.847 8.341c-0.105-0.173-0.279-0.68-0.223-0.835 0.051 0.252 0.536 1.085 0.238 0.345-0.329-0.62 0.393 0.201 0.468 0.356 0.034 0.153-0.203-0.042-0.043 0.319-0.293-0.411-0.173 0.227-0.441-0.185zM3.178 7.881c0.027-0.402 0.153 0.275 0 0zM3.479 7.984c0.143-0.303 0.243 0.423 0 0zM2.755 7.424c-0.249-0.247-0.429-0.475 0.011-0.153 0.17 0.007-0.377-0.519 0.041-0.167 0.44 0.080 0.217 0.721-0.052 0.32zM3.135 7.414c0.145-0.143 0.077 0.141 0 0zM3.369 7.489c-0.219-0.411 0.267 0.172 0 0zM2.904 7.045c-0.724-0.644 0.91 0.337 0.118 0.12zM4.978 8.25c-0.313-0.188-0.083-1.323 0.024-0.547 0.305-0.099-0.017 0.401 0.21 0.396-0.035 0.315-0.137 0.429-0.234 0.151zM5.745 8.703c0.031-0.342 0.065 0.233 0 0zM5.611 8.571c0.035-0.146 0.004 0.172 0 0zM3.047 6.833c-0.465-0.642 1.351 0.649 0.298 0.163-0.11-0.029-0.243-0.039-0.298-0.163zM4.524 7.617c-0.044-0.54 0.098 0.089 0 0zM5.645 8.336c0.087-0.308 0.007 0.203 0 0zM3.117 6.588c0.277-0.059 1.145 0.486 0.347 0.156-0.089-0.099-0.278-0.053-0.347-0.156zM5.491 7.771c0.029-0.553 0.165-0.33 0.001 0.079zM3.323 6.396c0.113-0.165-0.299-0.747 0.059-0.209 0.155 0.123 0.448 0.207 0.189 0.258 0.407 0.359-0.099 0.097-0.248-0.049zM5.373 7.599c0.078-0.629 0.069 0.369 0 0zM3.088 5.815c0.086-0.037 0.045 0.115 0 0zM3.623 6.133c0.137-0.289 0.253 0.322 0 0zM5.131 6.973c-0.001-0.111 0.029 0.161 0 0zM5.044 6.779c-0.209-0.517 0.195 0.273 0 0zM4.915 6.44c-0.035-0.213 0.12 0.269 0 0zM5.125 6.1c-0.144-0.253 0.181-1.116 0.217-0.581-0.151 0.417-0.043 0.65 0.062 0.091 0.195-0.44-0.042 0.869-0.279 0.49zM5.339 4.817c0.063-0.077 0.014 0.093 0 0zM4.981 11.893c-0.085-0.074 0.011 0.047 0 0zM5.721 12.267c0.411 0.106 0.409-0.064 0.037-0.114-0.2-0.187-0.831-0.383-0.266-0.023 0.037 0.095 0.156 0.093 0.229 0.137zM4.259 11.297c0.227 0.169 0.853 0.479 0.323 0.064 0.179-0.208-0.343-0.319-0.169-0.457-0.44-0.269-0.347-0.245-0.039-0.237-0.529-0.236 0.076-0.219 0.047-0.34-0.204-0.040-1.013-0.359-0.537 0.027-0.484-0.247-0.115 0.092-0.261 0.056-0.495-0.135 0.44 0.377-0.079 0.25 0.283 0.225 0.764 0.576 0.12 0.238-0.085 0.122 0.461 0.307 0.595 0.4zM5.033 11.741c0.941 0.303-0.461-0.371 0 0zM8.993 14.14c0.013-0.187-0.128 0.16 0 0zM9.401 14.311c0.217-0.21 0.009 0.335 0.359-0.051 0.004-0.277-0.011-0.44-0.403-0.104-0.108 0.060-0.156 0.315 0.044 0.155zM2.939 10.253c-0.067-0.262-0.467-0.26 0 0zM3.373 10.539c-0.161-0.268-0.576-0.243 0 0zM5.847 12.030c0.241 0.214 1.109 0.157 0.293 0.027-0.121-0.179-0.767-0.136-0.293-0.027zM9.245 14.129c0.372-0.312-0.36 0.139 0 0zM10.019 14.66c0.002-0.1-0.16 0.044 0 0zM10.019 14.52c0.411-0.436-0.399 0.026 0 0zM1.87 9.359c-0.351-0.5-0.218-0.725-0.557-1.133-0.064-0.313-0.58-1.022-0.267-0.271 0.287 0.439 0.372 1.119 0.823 1.404zM9.89 14.381c0.757-0.489-0.31-0.213 0 0zM10.468 14.608c0.38-0.325-0.24-0.068 0 0zM2.81 9.7c0.109-0.161-0.28-0.021 0 0zM10.347 14.453c0.367-0.237-0.084-0.2-0.067 0.021zM5.367 11.313c-0.013-0.16-0.194 0.013 0 0zM5.674 11.491c-0.097-0.198-0.15 0.031 0 0zM10.937 14.613c0.47-0.34-0.285-0.065-0.099 0.064zM10.757 14.527c0.383-0.321-0.405 0.142 0 0zM11.677 15.139c0.257-0.172-0.313-0.055 0 0zM3.046 9.584c0.345 0.077 1.377 0.849 0.768 0.053-0.312-0.092-0.125-0.855-0.443-0.72 0.213 0.357 0.176 0.509-0.273 0.284-0.564-0.275-0.317 0.136-0.207 0.249-0.15 0.035 0.199 0.131 0.155 0.133zM1.475 8.344c0.061-0.255-0.569-1.405-0.297-0.576 0.097 0.173 0.087 0.503 0.297 0.576zM4.358 10.121c-0.177-0.149-0.009-0.021 0 0zM4.795 10.223c0-0.27-0.483-0.109 0 0zM8.583 12.611c-0.072-0.185-0.285-0.004 0 0zM8.765 12.744c-0.027-0.103-0.105 0.020 0 0zM10.267 13.69c0.144-0.107-0.18-0.013 0 0zM2.26 8.544c0.413-0.16-0.443-0.114 0 0zM8.25 12.318c-0.005-0.267-0.263 0.067 0 0zM2.097 8.164c0.265-0.090-0.245-0.059 0 0zM2.867 8.537c-0.005-0.089-0.081 0.033 0 0zM12.26 14.297c0.342-0.069 1.119 0.173 1.245-0.091-0.414-0.010-1.433-0.292-1.481 0.067l0.091 0.015zM3.112 8.599c0.006-0.271-0.211-0.010 0 0zM1.087 7.193c-0.092-0.517-0.35-0.079 0 0zM1.569 7.315c0.006-0.166-0.442-0.149 0 0zM1.845 7.45c-0.080-0.065-0.063 0.081 0 0zM3.582 8.563c0.081-0.075-0.193-0.055 0 0zM1.662 7.145c-0.047-0.39-0.56-0.059 0 0zM0.671 6.502c-0.013-0.18-0.096 0.068 0 0zM0.819 6.391c-0.024-0.213-0.127 0.027 0 0zM1.632 6.877c0.345-0.135-0.627-0.28-0.070-0.026zM12.521 13.603c0.22-0.202-0.28-0.063 0 0zM13.837 14.285c0.088-0.261-0.223 0.034 0 0zM1.715 6.451c0.037-0.253-0.273 0.050 0 0zM0.558 5.675c-0.062-0.357-0.053-0.983 0.541-0.771-0.794 0.157 0.549 0.987 0.38 0.332 0.333 0.016 0.653-0.197 0.477 0.127 0.658-0.073 1.114-0.643 1.749-0.563 0.495-0.065 1.036-0.115 1.569-0.314 0.439-0.032 0.861-0.504 0.62-0.783-0.597-0.051-1.223 0.024-1.885 0.155-0.732 0.152-1.397 0.441-2.137 0.566-0.72 0.097 0.145 0.267-0.061 0.304-0.376 0.131 0.448 0.219-0.049 0.356-0.307-0.059-0.627-0.164-0.495-0.487-0.69 0.089-1.297 0.375-0.751 1.077zM2.221 4.829c0.162-0.596 0.867 0.49 0.265 0.079-0.072-0.053-0.19-0.097-0.265-0.079zM2.252 4.539c0.233-0.173 0.124 0.097 0 0zM2.549 4.545c0.021-0.274 0.679 0.145 0.109 0.099zM2.954 4.381c0.148-0.173 0.043 0.154 0 0zM3.058 4.312c0.247-0.296 1.397-0.189 0.555-0.029-0.225-0.17-0.399 0.1-0.555 0.029zM4.559 4.081c-0.037-0.809 0.745 0.288 0 0zM4.985 4.078c0.155-0.408 0.604-0.163 0.072-0.082 0.011 0.043-0.016 0.211-0.072 0.082zM1.548 6.241c0.465-0.285-0.494-0.247 0 0zM1.891 6.337c0.163-0.173-0.354-0.071 0 0zM0.878 5.617c0.266-0.203-0.314-0.077 0 0zM14.613 14.211c0.008-0.237-0.203 0.107 0 0zM13.218 13.258c0.040-0.273-0.18 0.024 0 0zM14.998 14.303c0.371 0 1.125-0.115 0.317-0.115-0.127 0.020-0.739 0.016-0.317 0.115zM2.193 6.169c0.301-0.020 0.471-0.331-0.058-0.313-0.82-0.085 0.723 0.28-0.105 0.176-0.111 0.073 0.157 0.158 0.163 0.137zM2.459 6.304c-0.032-0.193-0.093 0.103 0 0zM2.772 5.466c0.131-0.162-0.18-0.043 0 0zM1.772 3.794c0.537-0.183 1.271-0.387 1.525 0.090-0.258-0.311-0.104-0.616 0.14-0.162 0.344 0.459 0.517-0.209 0.292-0.363 0.255 0.317 0.546 0.467 0.171 0.020 0.407-0.489-0.815 0.065-1.093 0.059-0.133 0.060-1.381 0.318-1.035 0.357zM2.087 3.192c0.307-0.231 1.059 0.137 0.576-0.23-0.047-0.041-1.057 0.279-0.576 0.23zM3.203 3.238c0.359 0.009-0.154-0.481 0.273-0.259-0.070-0.229-0.497-0.272-0.706-0.363-0.118 0.209 0.24 0.625 0.433 0.623zM2.283 2.225c0.124-0.168-0.217 0.085 0 0zM2.739 2.334c0.577-0.077-0.147-0.249-0.116-0.007zM1.887 1.667c-0.407-0.531 0.764 0.089 0.351-0.467-0.348-0.277-0.682 0.312-0.351 0.467zM7.104 4.477c0.187-0.331-0.77-0.445-0.125-0.117 0.059 0.020 0.046 0.14 0.125 0.117z"></path>
</svg>
