<!-- Generated by IcoMoon.io -->
<svg version="1.1" xmlns="http://www.w3.org/2000/svg" width="16" height="16" viewBox="0 0 16 16">
<title>flattr</title>
<path d="M1.271 8c0-3.712 3.017-6.729 6.729-6.729 0.032 0 2.669 0 3.637 0.001l-1.95 1.951 0.896 0.896 4.019-4.119h-6.602c-4.418 0-8 3.582-8 8v6.221l1.273-1.173v-0.064c-0.001-0.163-0.003-4.936-0.003-4.984zM16 1.779l-1.273 1.173v0.064l0.002 4.984c0 3.712-3.019 6.729-6.729 6.729-0.032 0-2.669 0-3.637-0.001l1.95-1.951-0.896-0.896-4.019 4.119h6.602c4.418 0 8-3.582 8-8z"></path>
</svg>
