<!-- Generated by IcoMoon.io -->
<svg version="1.1" xmlns="http://www.w3.org/2000/svg" width="16" height="16" viewBox="0 0 16 16">
<title>floatplane</title>
<path fill="#00aeef" d="M11.965 13.441c-1.207 1.018-2.719 1.577-4.311 1.577-1.788 0-3.46-0.698-4.725-1.955-1.265-1.265-1.955-2.944-1.955-4.725 0-1.599 0.56-3.111 1.577-4.311l-0.611-0.778c-1.207 1.352-1.941 3.141-1.941 5.096 0 4.231 3.424 7.655 7.655 7.655 1.955 0 3.744-0.734 5.096-1.941zM5.554 1.992c0.669-0.218 1.374-0.335 2.101-0.335 1.788 0 3.46 0.698 4.725 1.955 1.265 1.265 1.955 2.944 1.955 4.725 0 0.727-0.116 1.432-0.335 2.101l0.756 0.756c0.356-0.879 0.553-1.847 0.553-2.857 0-4.231-3.424-7.655-7.655-7.655-1.011 0-1.977 0.196-2.857 0.553zM6.455 4.296l-4.158-4.296-0.647 1.011c-0.059 0.094-0.051 0.218 0.021 0.305l3.605 4.631zM5.103 9.973l-1.672-1.257-0.305 0.516c-0.037 0.058-0.029 0.131 0.022 0.182l1.41 1.527zM8.105 6.005l-0.385-0.4 0.102-0.407c0.043-0.182 0.058-0.327 0.043-0.415-0.058-0.262-0.182-0.458-0.182-0.458l-3.649 3.911c0 0 0.247 0.24 0.603-0.037 0.16-0.123 0.793-0.64 1.469-1.199l0.618 0.793zM11.667 9.509l0.102-0.407c0.037-0.138 0.058-0.255 0.043-0.335-0.043-0.262-0.145-0.458-0.145-0.458l-3.911 3.649c0 0 0.24 0.247 0.611 0 0.182-0.123 0.952-0.661 1.723-1.214l4.594 3.577c0.087 0.073 0.211 0.080 0.305 0.022l1.011-0.647zM6.041 10.926c0.589-0.451 1.41-1.083 2.145-1.65l0.829 0.647 1.359-1.65-0.451-0.436 0.145-0.516c0.073-0.262 0.102-0.465 0.080-0.589-0.073-0.378-0.24-0.654-0.24-0.654l-5.379 5.379c0 0 0.167 0.138 0.516 0l1.519 1.403c0.051 0.043 0.123 0.051 0.182 0.022l0.516-0.305z"></path>
</svg>
