<!-- Generated by IcoMoon.io -->
<svg version="1.1" xmlns="http://www.w3.org/2000/svg" width="16" height="16" viewBox="0 0 16 16">
<title>fnac</title>
<path fill="#e1a925" d="M0.855 10.495h0.951v-2.785h1.672v2.782h0.952v-1.951c0.048-0.33 0.256-0.794 1.001-0.855 0 0 1.085-0.195 1.22 0.855v1.953h0.951v-2.357c-0.219-1.671-2.393-1.16-2.393-1.16-0.512 0.147-0.707 0.367-0.793 0.488v-0.475h-2.625c-0.073-0.915 0.793-0.902 0.793-0.902 0.855-0.025 0.892 0.573 0.892 0.573h0.952c0-1.074-1.367-1.209-1.367-1.209-1.343-0.11-1.806 0.379-1.806 0.379-0.427 0.391-0.415 1.014-0.403 1.16h-0.854v0.709h0.854v2.794zM10.605 9.553c-0.243 0.318-0.524 0.415-0.866 0.427-0.293 0.012-0.928 0.074-0.941-0.451-0.012-0.501 0.769-0.477 1.283-0.514 0 0 0.523 0 0.622-0.157 0 0 0.013-0.012 0.013 0 0.011 0.011 0.097 0.413-0.111 0.695zM10.593 7.003c-1.049-0.195-1.66 0-1.671 0-1.026 0.257-1.039 1.149-1.039 1.149h0.977c0 0 0.013-0.697 1.049-0.611 0 0 0.757 0.036 0.793 0.403 0 0 0.244 0.439-0.793 0.5-1.049 0.061-2.294 0.049-2.159 1.111 0 0-0.025 1.013 1.684 0.989 0 0 0.915 0.023 1.293-0.477v0.012l0.038 0.391h0.951l-0.024-2.099c0.073-1.184-1.099-1.368-1.099-1.368zM15.023 9.359c-0.147 0.328-0.441 0.512-0.965 0.512 0 0-1.183 0.086-1.219-1.087v-0.035c0.036-1.159 1.219-1.087 1.219-1.087 0.539 0 0.819 0.183 0.965 0.514h0.963c-0.010-0.145-0.047-0.286-0.11-0.416-0.232-0.403-0.781-0.866-2.062-0.781-0.355 0.025-0.623 0.061-0.855 0.159-0.427 0.171-1.123 0.647-1.111 1.575v0.109c-0.013 0.927 0.684 1.403 1.111 1.574 0.231 0.097 0.514 0.134 0.855 0.159 0.853 0.048 1.379-0.134 1.708-0.379 0.464-0.366 0.477-0.818 0.477-0.818h-0.977z"></path>
</svg>
