<!-- Generated by IcoMoon.io -->
<svg version="1.1" xmlns="http://www.w3.org/2000/svg" width="16" height="16" viewBox="0 0 16 16">
<title>formstack</title>
<path fill="#21b573" d="M12.667 2.69h0.933c0.221 0 0.4 0.179 0.4 0.4v9.82c0 0.221-0.179 0.4-0.4 0.4h-0.933zM14.667 4.017h0.933c0.221 0 0.4 0.179 0.4 0.4v7.165c0 0.221-0.179 0.4-0.4 0.4h-0.933zM0.4 1.363h11.2c0.221 0 0.4 0.179 0.4 0.4v12.475c0 0.221-0.179 0.4-0.4 0.4h-11.2c-0.221 0-0.4-0.179-0.4-0.4v-12.475c0-0.221 0.179-0.4 0.4-0.4zM2.8 3.487c-0.073 0-0.133 0.060-0.133 0.133v4.9c0 0.030 0.010 0.059 0.029 0.083 0.046 0.057 0.13 0.067 0.187 0.021l6.152-4.9c0.032-0.025 0.050-0.064 0.050-0.104 0-0.073-0.060-0.133-0.133-0.133zM2.667 11.457c0 0.027 0.008 0.053 0.023 0.075 0.041 0.061 0.125 0.076 0.185 0.035l5.051-3.456c0.036-0.025 0.058-0.066 0.058-0.11 0-0.073-0.060-0.133-0.133-0.133h-3.257c-0.030 0-0.059 0.010-0.082 0.028l-1.793 1.401c-0.033 0.025-0.051 0.064-0.051 0.105zM2.724 12.228c-0.036 0.025-0.057 0.066-0.057 0.109v0.058c0 0.071 0.057 0.128 0.128 0.128h1.872c0.073 0 0.133-0.060 0.133-0.133v-1.348c0-0.027-0.008-0.054-0.024-0.076-0.042-0.061-0.125-0.075-0.185-0.033z"></path>
</svg>
