<!-- Generated by IcoMoon.io -->
<svg version="1.1" xmlns="http://www.w3.org/2000/svg" width="16" height="16" viewBox="0 0 16 16">
<title>fossa</title>
<path fill="#90a1b8" d="M2.496 8.544c0 0-0.022-0.061 0.039-0.109 0.079-0.057 0.179-0.113 0.236-0.048l0.009 0.009c0.044 0.048 0.096 0.065 0.149 0.065 0.113 0 0.231-0.079 0.284-0.113 0.127-0.087 0.214-0.161 0.231-0.389v-0.009c0-0.005 0-0.070 0.057-0.083 0.022-0.005 0.044 0.009 0.061 0.022 0.044 0.039 0.096 0.135 0.087 0.275-0.017 0.205-0.118 0.389-0.297 0.546-0.013 0.013-0.026 0.022-0.039 0.035-0.109 0.087-0.214 0.166-0.31 0.231-0.135 0.074-0.258-0.039-0.319-0.113-0.026-0.035-0.048-0.065-0.083-0.118l-0.009-0.017c-0.036-0.063-0.071-0.124-0.097-0.185v0 0zM2.059 9.867c0.013 0.009 0.026 0.017 0.039 0.026 0.017 0.013 0.035 0.022 0.057 0.031 0.048 0.022 0.096 0.013 0.179-0.009 0.022-0.005 0.044-0.009 0.065-0.013-0.105-0.096-0.183-0.209-0.24-0.337-0.005 0.101-0.031 0.206-0.101 0.302v0zM3.3 2.131c0-0.004-0.005-0.004 0 0-0.053-0.065-0.096-0.131-0.131-0.196 0.013 0.118 0.035 0.236 0.057 0.341 0.009 0.039 0.013 0.074 0.022 0.109 0.039-0.044 0.079-0.083 0.113-0.122-0.021-0.088-0.061-0.132-0.061-0.132v0zM1.409 8.885c0.005-0.009 0.005-0.022 0.005-0.039v-0.013c-0.005-0.048 0-0.096 0.005-0.153 0.005-0.070 0.017-0.135 0.035-0.205v0c0-0.005 0-0.009 0.005-0.013 0.005-0.013 0.009-0.044 0.005-0.053v0c-0.053-0.039-0.113-0.074-0.157-0.096 0.009 0.101 0.005 0.209 0 0.271v0.031c-0.005 0.065-0.009 0.14 0.092 0.249-0.001 0.009 0.007 0.014 0.012 0.023v0zM11.127 4.355c0.053 0 0.105-0.005 0.157-0.013 0.083-0.026 0.14-0.039 0.149-0.044 0.459-0.135 0.839-0.428 1.013-0.782 0.122-0.319 0.109-0.563 0.096-0.738-0.005-0.039-0.005-0.079-0.005-0.118-0.005-0.306 0.375-0.839 0.454-0.948 0.275-0.454 0.367-0.843 0.275-1.123-0.083-0.249-0.288-0.332-0.293-0.337v0h-0.005c-0.079-0.035-0.157-0.065-0.24-0.087-0.131-0.033-0.27-0.051-0.415-0.051-0.572 0-1.197 0.293-1.664 0.786 0 0.005-0.005 0.009-0.009 0.013-0.171 0.223-0.441 0.677-0.323 1.214 0.083 0.367 0.284 0.655 0.616 0.887 0.044 0.031 0.065 0.079 0.057 0.131s-0.039 0.092-0.087 0.109c-0.005 0-0.419 0.157-0.507 0.424-0.035 0.105-0.013 0.219 0.070 0.345 0.013 0.004 0.253 0.331 0.659 0.331v0 0zM2.020 7.522c0.061 0 0.144-0.035 0.279-0.118 0.188-0.113 0.375-0.188 0.563-0.219h0.009c0.061-0.013 0.105-0.065 0.105-0.131v-0.013c-0.005-0.048-0.035-0.092-0.083-0.109-0.005 0-0.009-0.005-0.013-0.005-0.048-0.017-0.101-0.026-0.157-0.026h-0.003c-0.074 0-0.118 0.013-0.166 0.031-0.039 0.013-0.074 0.022-0.118 0.022h-0.027c-0.039-0.005-0.079-0.017-0.105-0.031-0.031-0.013-0.057-0.022-0.087-0.022-0.013 0-0.022 0-0.035 0.005-0.083 0.017-0.171 0.092-0.201 0.122 0 0-0.005 0.005-0.009 0.005h-0.005c-0.053 0.044-0.109 0.092-0.166 0.135l-0.026 0.026c0 0-0.005 0.005-0.005 0.009l-0.009 0.013c-0.009 0.017-0.013 0.039-0.013 0.057 0 0.035 0.013 0.070 0.039 0.096 0.005 0.005 0.009 0.009 0.013 0.013v0c0.005 0.005 0.009 0.009 0.013 0.013 0.096 0.088 0.139 0.127 0.205 0.127v0 0zM8.45 15.449c0.005 0 0.009-0.005 0.013-0.005 0.655-0.262 1.297-0.594 1.909-0.991l0.026-0.017c0.035-0.026 0.061-0.065 0.061-0.109v0-0.013c0-0.009 0-0.013-0.005-0.022 0-0.005-0.005-0.009-0.005-0.013l-0.005-0.009c-0.14-0.389-0.337-1.236-0.087-2.516 0.065-0.327 0.101-0.642 0.105-0.935v-0.031c-0.008-0.068-0.065-0.121-0.13-0.121-0.044 0-0.083 0.022-0.105 0.053l-0.005 0.009v0.005l-0.009 0.009c-0.070 0.131-0.157 0.267-0.258 0.411-1.044 1.498-1.83 2.756-1.682 4.189 0.009 0.070 0.065 0.118 0.131 0.118 0.013 0 0.031-0.005 0.044-0.009v0zM6.502 15.991l0.022-0.005c0.245-0.035 0.743-0.127 1.38-0.337v0l0.009-0.005h0.005c0.005 0 0.009-0.005 0.013-0.005v0c0.048-0.022 0.079-0.070 0.079-0.122v0-0.009l-0.005-0.017c-0.214-1.573 0.616-2.909 1.717-4.49 0.703-1.009 0.515-1.498 0.31-1.778-0.201-0.24-0.459-0.358-0.773-0.358-0.144 0-0.301 0.026-0.467 0.079-0.144 0.048-0.293 0.092-0.445 0.131-0.153 0.035-0.315 0.065-0.481 0.092-0.109 0.017-0.219 0.031-0.323 0.044-0.541 0.070-1.057 0.135-1.66 0.45l-0.009 0.009h-0.009c-0.048 0.022-0.092 0.048-0.14 0.070v0h-0.004c-0.005 0.005-0.013 0.005-0.017 0.009h-0.005c-0.013 0.009-0.022 0.017-0.031 0.031 0 0-0.005 0.005-0.005 0.009v0.005l-0.009 0.009c-0.009 0.017-0.013 0.039-0.013 0.057 0 0.039 0.017 0.079 0.048 0.105h0.031v0.022c0.406 0.253 0.699 0.878 0.743 1.59 0.057 0.913-0.026 1.756-0.101 2.494v0.009c-0.079 0.769-0.14 1.371-0.022 1.804v0.009c0 0.009 0.005 0.022 0.009 0.031 0.022 0.047 0.070 0.077 0.123 0.077 0.022-0.009 0.026-0.009 0.031-0.009v0zM2.815 2.817c0.005-0.005 0.005-0.005 0.009-0.009v0-0.005c0.061-0.074 0.118-0.144 0.175-0.205 0.005-0.005 0.005-0.005 0.009-0.009 0.017-0.022 0.031-0.053 0.031-0.083v-0.027c-0.009-0.052-0.017-0.109-0.031-0.157-0.057-0.284-0.122-0.633 0-0.921 0-0.153 0.026-0.31 0.044-0.45v-0.009c0.013-0.083 0.026-0.166 0.035-0.249 0.026-0.262-0.022-0.481-0.131-0.599-0.061-0.065-0.135-0.096-0.227-0.096h-0.013c-0.043 0-0.105 0-0.17 0.061-0.044 0.052-0.079 0.153-0.105 0.279-0.035 0.183-0.035 0.389-0.026 0.507 0.044 0.441 0.035 0.498 0 0.594-0.017 0.044-0.039 0.105-0.048 0.354-0.009 0.188 0.070 0.45 0.149 0.699v0.005c0.026 0.083 0.052 0.17 0.074 0.257v0c0 0.005 0.005 0.013 0.005 0.017v0.005c0.022 0.053 0.070 0.087 0.127 0.087 0.035-0.004 0.069-0.022 0.096-0.048v0zM2.977 4.377c0-0.005 0.005-0.013 0.005-0.017v0-0.005c0.022-0.157 0.039-0.367 0.052-0.681 0.005-0.092 0.017-0.192 0.035-0.293v0l0.013-0.057c0-0.009 0.005-0.017 0.005-0.026v-0.013c-0.009-0.070-0.065-0.122-0.131-0.122-0.039 0-0.079 0.017-0.101 0.048 0 0-0.005 0.005-0.005 0.009v0.005c-0.047 0.061-0.078 0.1-0.087 0.109l-0.004 0.005c-0.044 0.048-0.083 0.109-0.118 0.179-0.083 0.161-0.122 0.323-0.127 0.337v0.005c-0.018 0.069-0.035 0.144-0.053 0.223 0 0.048 0.013 0.092 0.039 0.135 0.048 0.087 0.14 0.166 0.279 0.245l0.005 0.005c0.005 0.005 0.009 0.005 0.013 0.009 0.017 0.009 0.035 0.013 0.057 0.013 0.052-0.009 0.109-0.049 0.122-0.11v0zM3.619 1.948v0l0.009-0.009c0.123-0.105 0.258-0.197 0.411-0.279h0.005c0.044-0.022 0.065-0.070 0.065-0.118v-0.013c-0.005-0.026-0.013-0.053-0.031-0.074-0.144-0.171-0.257-0.402-0.353-0.607l-0.009-0.017c-0.030-0.061-0.061-0.123-0.087-0.179v0 0l-0.013-0.026c-0.021-0.044-0.069-0.074-0.117-0.074-0.044 0-0.083 0.022-0.105 0.053 0 0-0.005 0.005-0.005 0.009v0.005l-0.009 0.008c-0.009 0.017-0.013 0.031-0.013 0.048l-0.004 0.044c-0.009 0.091-0.022 0.179-0.035 0.262-0.021 0.153-0.043 0.297-0.043 0.437 0.004 0.188 0.048 0.341 0.144 0.485v0.005c0 0.005 0.005 0.005 0.009 0.009 0.026 0.035 0.065 0.053 0.109 0.053 0.022 0.013 0.053-0.001 0.074-0.018v0zM3.658 6.993v0c0.166-0.45 0.485-0.895 0.743-1.258 0.105-0.149 0.21-0.289 0.279-0.407 0.559-0.909 0.865-1.76 0.869-1.769 0-0.005 0.005-0.009 0.005-0.013 0.258-0.577 0.577-0.979 0.974-1.232 0.349-0.223 0.755-0.341 1.315-0.38h0.009c0.201-0.013 0.363-0.065 0.481-0.161v-0.003h0.005l0.009-0.009h0.005c0.009-0.009 0.022-0.017 0.026-0.026 0.017-0.022 0.031-0.053 0.031-0.083v-0.014c-0.005-0.061-0.057-0.113-0.118-0.118l-0.039-0.005c-0.161-0.017-0.337-0.026-0.524-0.026-0.385 0-0.817 0.039-1.245 0.113-0.136 0.022-0.28 0.035-0.446 0.035-0.131 0-0.258-0.009-0.385-0.013-0.122-0.005-0.249-0.013-0.371-0.013-0.053 0-0.096 0-0.14 0.005-0.131 0.005-0.262 0.027-0.397 0.061v0l-0.035 0.009h-0.005c-0.498 0.144-0.93 0.585-1.192 1.201 0 0 0 0.005-0.005 0.005-0.113 0.267-0.179 0.546-0.192 0.786-0.031 0.611-0.065 0.878-0.161 1.127v0.009l-0.009 0.009c-0.043 0.109-0.096 0.214-0.161 0.35l-0.013 0.031c-0.092 0.179-0.214 0.389-0.336 0.594l-0.035 0.057c-0.017 0.026-0.031 0.052-0.048 0.079-0.105 0.179-0.209 0.362-0.275 0.502v0.009l-0.009 0.009c0 0.005-0.005 0.009-0.005 0.009v0c-0.004 0.013-0.008 0.031-0.008 0.044 0 0.057 0.035 0.105 0.083 0.122 0.005 0 0.009 0.005 0.013 0.005l0.009 0.005c0.017 0.009 0.035 0.013 0.053 0.022 0.009 0.005 0.022 0.009 0.026 0.009 0.009 0 0.022-0.005 0.031-0.009h0.005c0.053-0.017 0.131-0.039 0.253-0.039h0.005c0.144 0 0.275 0.039 0.389 0.109 0.087 0.057 0.205 0.166 0.319 0.297 0.026 0.031 0.061 0.048 0.105 0.048 0.047 0.008 0.096-0.027 0.117-0.079v0zM4.038 8.395v0c0.009 0 0.013-0.005 0.017-0.005h0.005c0.288-0.070 0.524-0.153 0.673-0.502 0.161-0.375 0.271-0.83 0.375-1.271l0.035-0.14c0.175-0.721 0.349-1.35 0.725-1.782l0.005-0.005c0.013-0.017 0.031-0.035 0.044-0.048v0c0.005-0.005 0.005-0.005 0.009-0.009s0.005-0.005 0.009-0.009c0.17-0.161 0.419-0.249 0.703-0.249 0.14 0 0.284 0.022 0.433 0.061v0h0.005c0.026 0.009 0.053 0.013 0.079 0.022 0.135 0.039 0.293 0.087 0.459 0.087v0c0.149 0 0.284-0.035 0.419-0.113v0h0.005c0.009-0.005 1.022-0.559 1.564-2.237v-0.005c0.005-0.009 0.005-0.022 0.009-0.031v0l0.009-0.022v-0.004l0.005-0.009c0.005-0.013 0.009-0.022 0.013-0.035l0.009-0.022c0.005-0.013 0.005-0.022 0.005-0.035v-0.013c-0.009-0.070-0.065-0.118-0.131-0.118-0.026 0-0.048 0.009-0.070 0.022l-0.009 0.005c-0.363 0.24-0.729 0.262-1.136 0.267-0.153 0-0.288 0.005-0.415 0.013h-0.009c-0.869 0.061-1.555 0.327-2.057 1.446-0.023 0.055-0.333 0.907-0.893 1.816-0.074 0.122-0.179 0.267-0.284 0.415l-0.022 0.009c-0.393 0.546-0.926 1.297-0.782 1.869v0.009c0.039 0.14 0.053 0.275 0.044 0.402v0 0.009c0 0.022-0.005 0.039-0.009 0.061v0 0.018c0 0.074 0.061 0.135 0.135 0.135 0.009-0.005 0.017-0.005 0.026-0.005v0zM10.044 4.892v0l0.009-0.005h0.009c0.122-0.079 0.258-0.153 0.411-0.227v0c0.005 0 0.009-0.005 0.017-0.009 0.044-0.022 0.065-0.070 0.065-0.118v-0.013c-0.005-0.035-0.022-0.070-0.053-0.092v0c-0.153-0.109-0.24-0.227-0.258-0.253-0.131-0.201-0.166-0.397-0.105-0.585 0.048-0.144 0.153-0.279 0.315-0.397h0.005c0.005 0 0.005-0.005 0.009-0.005v0c0.031-0.026 0.048-0.061 0.048-0.101v-0.012c-0.005-0.035-0.017-0.061-0.044-0.087l-0.035-0.031 0.005-0.005c-0.153-0.166-0.262-0.345-0.332-0.541v0l-0.013-0.053c-0.017-0.057-0.070-0.096-0.127-0.096-0.044 0-0.083 0.022-0.105 0.053-0.005 0.005-0.009 0.013-0.013 0.022-0.005 0.005-0.005 0.013-0.009 0.017 0 0.005 0 0.005-0.005 0.009v0.009c-0.113 0.445-0.070 0.939-0.031 1.463v0.005c0.026 0.306 0.053 0.625 0.044 0.935v0.018c0 0.074 0.061 0.131 0.135 0.131 0.013-0.015 0.039-0.024 0.057-0.033v0zM3.383 10.776c0.485 0 0.734-0.205 1.109-0.511l0.017-0.013c0.053-0.044 0.105-0.087 0.161-0.131h0.005c0.022-0.017 0.039-0.031 0.061-0.048l0.005-0.005h0.005c0.227-0.179 0.555-0.415 1.031-0.651 0.293-0.153 0.581-0.262 0.909-0.341 0.284-0.070 0.551-0.105 0.839-0.14l0.017-0.005c0.101-0.013 0.205-0.026 0.31-0.044 0.31-0.044 0.607-0.113 0.878-0.209 1.092-0.38 1.787-1.149 1.953-2.167 0.13-0.807 0.34-1.178 0.659-1.553 0.026-0.031 0.057-0.065 0.096-0.109 0.022-0.026 0.035-0.057 0.035-0.092v-0.013c-0.009-0.070-0.065-0.122-0.131-0.122-0.017 0-0.031 0.005-0.048 0.009l-0.061 0.022v-0.005c-0.433 0.144-1.315 0.493-1.52 0.983-0.005 0.017-0.013 0.031-0.017 0.048-0.092 0.231-0.219 0.437-0.389 0.62-0.541 0.585-1.075 0.725-1.594 0.861-0.498 0.131-0.965 0.253-1.429 0.786l-0.005 0.005c-0.005 0.005-0.284 0.297-0.765 1.136-0.271 0.476-0.729 0.847-1.297 1.044-0.267 0.096-0.551 0.144-0.821 0.144-0.24 0-0.472-0.039-0.659-0.118v0h-0.012l-0.009-0.009c-0.053-0.022-0.105-0.035-0.157-0.035-0.057 0-0.109 0.013-0.157 0.022-0.048 0.013-0.105 0.026-0.161 0.026h-0.044c-0.039 0.005-0.074 0.022-0.096 0.053 0 0-0.005 0.005-0.005 0.009v0.005l-0.009 0.009c-0.009 0.017-0.013 0.039-0.013 0.057 0 0.039 0.017 0.079 0.048 0.105l0.005 0.004c0.031 0.026 0.065 0.048 0.101 0.070 0.305 0.197 0.694 0.293 1.144 0.297h0.013v0.009zM9.039 1.677c-0.074-0.035-0.157-0.070-0.249-0.096-0.013-0.005-0.026-0.009-0.044-0.013-0.009 0.031-0.039 0.096-0.039 0.096-0.009 0.022-0.017 0.048-0.017 0.074 0 0.101 0.079 0.179 0.179 0.179 0.013 0 0.022 0 0.035-0.005 0.009 0 0.013-0.005 0.022-0.005 0.101-0.026 0.197-0.065 0.293-0.118-0.053-0.039-0.109-0.078-0.179-0.113v0zM10.857 14.122v0c0.005-0.005 0.009-0.009 0.013-0.009l0.009-0.005c0.223-0.161 0.445-0.337 0.655-0.515 0.883-0.747 1.643-1.612 2.263-2.573v-0.005c0.005-0.005 0.009-0.013 0.013-0.017 0.009-0.017 0.017-0.039 0.017-0.061v-0.013c-0.005-0.044-0.031-0.083-0.070-0.105h-0.005c-0.131-0.065-0.258-0.153-0.371-0.267-0.467-0.459-0.76-1.263-0.865-2.385l-0.009-0.074c-0.035-0.393-0.109-1.21-0.498-1.821v0c-0.171-0.249-0.337-0.511-0.485-0.782l-0.005-0.009c-0.026-0.039-0.065-0.061-0.113-0.061-0.044 0-0.083 0.022-0.105 0.053v0c0 0.005-0.005 0.005-0.005 0.009l-0.009 0.013c-0.157 0.275-0.262 0.603-0.341 1.061-0.127 0.777-0.537 1.433-1.179 1.896-0.005 0-0.005 0.005-0.009 0.005l-0.005 0.005c-0.009 0.009-0.017 0.013-0.026 0.026 0 0-0.005 0.005-0.005 0.009v0.005l-0.009 0.009c-0.009 0.017-0.013 0.039-0.013 0.057 0 0.053 0.031 0.101 0.083 0.122l0.026 0.013c0.171 0.079 0.323 0.192 0.45 0.345 0.472 0.559 0.607 1.568 0.371 2.765-0.171 0.865-0.118 1.516-0.044 1.909 0.022 0.113 0.048 0.223 0.079 0.323 0 0.005 0 0.005 0.005 0.009 0.017 0.057 0.070 0.092 0.127 0.092 0.013-0.006 0.035-0.011 0.057-0.023v0zM14.085 10.545l0.009-0.017c0.406-0.712 0.633-1.297 0.734-1.585 0-0.005 0.005-0.009 0.005-0.009 0.005-0.013 0.005-0.026 0.005-0.039v-0.014c-0.005-0.044-0.031-0.083-0.070-0.105-0.642-0.306-1.253-0.76-1.817-1.341 0 0-0.013-0.013-0.017-0.017-0.022-0.022-0.057-0.031-0.087-0.031-0.044 0-0.083 0.022-0.105 0.053 0 0-0.005 0.005-0.005 0.009v0.005l-0.009 0.009c-0.009 0.017-0.013 0.039-0.013 0.057v0.018l0.005 0.013c0.031 0.205 0.048 0.389 0.061 0.52l0.009 0.074c0.065 0.721 0.253 1.686 0.769 2.201 0.105 0.105 0.219 0.188 0.332 0.24l0.039 0.017c0.017 0.009 0.035 0.009 0.053 0.009 0.038-0.009 0.077-0.031 0.103-0.066v0zM1.977 9.509v0-0.018c-0.009-0.070-0.057-0.131-0.127-0.153-0.005 0-0.009 0-0.013-0.005-0.048-0.013-0.101-0.031-0.157-0.057h-0.004c-0.065-0.031-0.135-0.070-0.205-0.113-0.031-0.017-0.065-0.044-0.105-0.074l-0.005-0.005c-0.022-0.013-0.048-0.026-0.074-0.026-0.039 0-0.079 0.022-0.101 0.053v0c-0.005 0.005-0.005 0.009-0.009 0.013v0c-0.009 0.017-0.013 0.039-0.013 0.061 0 0.013 0 0.022 0.005 0.031 0 0.005 0 0.005 0.005 0.009 0.005 0.013 0.009 0.031 0.013 0.044 0.065 0.183 0.171 0.341 0.297 0.445v0c0.101 0.083 0.205 0.127 0.293 0.122 0.009 0 0.017-0.005 0.026-0.005 0.039-0.009 0.074-0.026 0.101-0.061 0.065-0.079 0.077-0.175 0.073-0.262v0zM3.392 7.591v-0.009c-0.005-0.053-0.039-0.096-0.092-0.113h-0.005c-0.065-0.017-0.14-0.026-0.223-0.026-0.026 0-0.057 0-0.083 0.005-0.175 0.013-0.358 0.079-0.546 0.192-0.175 0.109-0.315 0.157-0.433 0.157-0.157 0-0.262-0.092-0.385-0.209-0.053-0.053-0.109-0.079-0.175-0.079-0.044 0-0.087 0.013-0.135 0.035-0.009 0.005-0.035 0.026-0.057 0.044-0.009 0.009-0.013 0.017-0.022 0.026v0l-0.005 0.005c0 0-0.005 0.005-0.005 0.009v0.005l-0.009 0.009c-0.009 0.017-0.013 0.039-0.013 0.057 0 0.070 0.053 0.127 0.118 0.131h0.009c0.065 0.005 0.131 0.035 0.197 0.083 0.262 0.197 0.209 0.363 0.166 0.529-0.009 0.026-0.013 0.053-0.022 0.083l-0.005 0.013c-0.013 0.057-0.022 0.109-0.026 0.161-0.003 0.047-0.003 0.091-0.003 0.131 0.009 0.157 0.079 0.205 0.14 0.24 0.009 0.005 0.017 0.009 0.026 0.013s0.022 0.009 0.035 0.009c0.035 0 0.065-0.022 0.079-0.053 0-0.005 0.005-0.009 0.005-0.013s0.005-0.009 0.009-0.013v-0.004c0-0.005 0.005-0.005 0.005-0.009l0.009-0.009c0.005-0.005 0.009-0.009 0.013-0.009 0.005-0.005 0.009-0.005 0.013-0.009 0.005 0 0.005-0.005 0.009-0.005s0.005-0.005 0.009-0.005h0.005c0.005 0 0.005-0.005 0.009-0.005v0h0.070c0.005 0 0.009 0 0.013 0.005h0.005l0.009 0.005c0.005 0 0.009 0.005 0.017 0.009 0.005 0 0.005 0.005 0.009 0.005 0.005 0.005 0.009 0.005 0.013 0.009l0.017 0.017c0.005 0.005 0.009 0.009 0.009 0.013v0c0 0.005 0.005 0.005 0.005 0.009v0.005c0 0.005 0.005 0.005 0.005 0.009l0.005 0.005c0 0.005 0.005 0.005 0.005 0.009 0.013 0.039 0.035 0.065 0.070 0.087 0.039 0.022 0.087 0.035 0.149 0.035 0.035 0 0.074-0.005 0.113-0.013 0.044-0.013 0.065-0.035 0.065-0.048 0.005-0.017-0.009-0.048-0.031-0.074l-0.005-0.005c-0.009-0.009-0.013-0.017-0.022-0.031-0.026-0.039-0.053-0.070-0.087-0.122l-0.013-0.022c-0.048-0.070-0.087-0.14-0.118-0.214l-0.013-0.031c-0.087-0.219-0.083-0.428 0.013-0.577 0.074-0.113 0.192-0.175 0.337-0.179h0.005c0.175 0 0.24 0.149 0.271 0.249v0c0.013 0.048 0.057 0.079 0.109 0.079 0.022 0 0.039-0.005 0.053-0.013 0.005-0.005 0.009-0.005 0.013-0.009s0.009-0.005 0.013-0.009c0.096-0.065 0.122-0.083 0.131-0.214 0-0.074 0.031-0.175 0.109-0.24 0.005-0.005 0.009-0.005 0.013-0.009 0.031-0.026 0.048-0.061 0.048-0.101-0.016 0.001-0.016 0.001-0.016-0.004v0zM9.529 3.848c-0.005-0.079-0.013-0.157-0.017-0.236v-0.009c-0.009-0.070-0.065-0.122-0.131-0.122-0.044 0-0.083 0.022-0.105 0.053 0 0-0.005 0.005-0.005 0.009v0.004l-0.009 0.009c-0.433 0.668-0.887 0.983-1.039 1.079-0.039 0.179-0.192 0.686-0.755 1.057-0.013 0.009-0.026 0.017-0.039 0.026-0.009 0.005-0.017 0.009-0.026 0.017-0.581 0.354-1.193 0.284-1.193 0.284v0c-0.577-0.083-0.738 0.288-0.799 0.52l-0.035 0.14c-0.109 0.454-0.219 0.921-0.393 1.319-0.219 0.507-0.603 0.599-0.939 0.677-0.197 0.048-0.38 0.092-0.529 0.209-0.013 0.013-0.026 0.026-0.044 0.035-0.109 0.087-0.214 0.166-0.315 0.231l-0.031 0.022c-0.197 0.127-0.38 0.209-0.541 0.245l-0.022 0.005c-0.005 0-0.009 0-0.013 0.005h-0.008c-0.061 0.013-0.101 0.070-0.101 0.131 0 0.026 0.009 0.053 0.022 0.074v0c0.005 0.005 0.009 0.009 0.013 0.017 0 0 0 0.005 0.005 0.005 0.083 0.105 0.197 0.188 0.341 0.249l0.009 0.005c0.161 0.065 0.354 0.101 0.559 0.101 0.616 0 1.467-0.327 1.883-1.053 0.485-0.843 0.773-1.157 0.804-1.188 0.515-0.594 1.048-0.734 1.564-0.869 0.502-0.131 0.974-0.253 1.463-0.782 0.149-0.157 0.258-0.332 0.332-0.533 0.005-0.017 0.013-0.035 0.017-0.048 0.173-0.512 0.125-1.111 0.077-1.687v0zM2.313 5.866c0-0.005 0-0.013-0.005-0.017v-0.004c-0.030-0.061-0.065-0.145-0.091-0.249v-0.009c-0.013-0.035-0.048-0.065-0.087-0.065-0.031 0-0.057 0.013-0.074 0.035v0c0 0.005-0.005 0.009-0.005 0.009v0c0 0 0 0.005-0.005 0.005-0.004 0.004-0.004 0.013-0.004 0.017-0.043 0.131-0.087 0.249-0.135 0.354-0.031 0.065-0.061 0.122-0.092 0.179v0 0c0 0 0 0.005-0.005 0.005v0c0 0 0 0 0 0.005v0c0 0.005-0.005 0.009-0.005 0.017s0 0.013 0.005 0.022c0 0 0 0.005 0.005 0.005 0.009 0.009 0.013 0.017 0.022 0.031v0c0.031 0.051 0.083 0.104 0.144 0.104 0.065 0 0.131-0.057 0.161-0.113 0-0.005 0.005-0.005 0.005-0.009 0.048-0.092 0.105-0.193 0.162-0.289 0-0.005 0.005-0.009 0.005-0.009v0c0.005-0.009 0.005-0.013 0.005-0.022-0.005 0.005-0.005 0.005-0.005 0v0 0zM1.749 6.434c0-0.005-0.005-0.005-0.005-0.009 0 0 0-0.005-0.005-0.005-0.013-0.017-0.035-0.031-0.057-0.031s-0.044 0.009-0.057 0.026v0c0 0 0 0.005-0.005 0.005 0 0 0 0 0 0.005v0c0 0 0 0.005-0.005 0.005v0c-0.109 0.219-0.131 0.402-0.14 0.546v0.009c0 0.039 0.031 0.070 0.070 0.070 0.013 0 0.026-0.005 0.039-0.013l0.005-0.005c0.017-0.013 0.035-0.026 0.048-0.039l0.005-0.005c0.022-0.017 0.070-0.057 0.122-0.113 0 0 0 0 0.005-0.005v0l0.005-0.005c0.114-0.104 0.066-0.265-0.026-0.436v0z"></path>
</svg>
