<!-- Generated by IcoMoon.io -->
<svg version="1.1" xmlns="http://www.w3.org/2000/svg" width="16" height="16" viewBox="0 0 16 16">
<title>fossilscm</title>
<path fill="#548294" d="M8.381 0c-0.466 0.015-1.361 0.37-2.305 0.946-1.099 0.667-1.903 1.413-1.969 1.793-0.005 0.006-0.013 0.009-0.017 0.015-0.375 0.497 0.135 1.518 1.141 2.276 0.939 0.709 1.972 0.931 2.411 0.555 0.345-0.060 0.818-1.184 1.085-2.627 0.255-1.369 0.233-2.541-0.030-2.809-0.004-0.013 0.001-0.032-0.007-0.044-0.046-0.075-0.153-0.109-0.309-0.105zM6.863 1.957c-0.109 0.129-0.219 0.255-0.328 0.403-0.145 0.197-0.269 0.391-0.379 0.577-0.171-0.103-0.371-0.2-0.579-0.279l-0.026-0.009c0.466-0.199 0.857-0.403 1.231-0.633l-0.041 0.023c0.045-0.027 0.079-0.056 0.122-0.083zM7.471 2.68c-0.003 0.016-0.007 0.029-0.010 0.044-0.065 0.331-0.119 0.738-0.149 1.151l-0.002 0.036c-0.136-0.163-0.279-0.31-0.432-0.446l-0.004-0.004c0.143-0.161 0.291-0.338 0.435-0.534 0.062-0.085 0.107-0.164 0.163-0.247zM5.377 5.348c-0.273-0.050-0.645 0.76-0.831 1.804-0.184 1.044-0.109 1.931 0.164 1.979s0.648-0.761 0.832-1.805 0.109-1.931-0.165-1.979zM1.671 7.153c-0.048 0.021-0.017 0.209 0.069 0.417 0.088 0.208 0.198 0.359 0.247 0.34 0.049-0.021 0.017-0.207-0.069-0.415s-0.197-0.36-0.246-0.341zM1.269 7.491c-0.023-0.003-0.041 0-0.051 0.012-0.041 0.045 0.055 0.199 0.215 0.341s0.322 0.221 0.363 0.177c0.040-0.047-0.056-0.199-0.216-0.342-0.12-0.107-0.241-0.178-0.311-0.188zM1.12 7.947c-0.079 0-0.131 0.013-0.137 0.039-0.011 0.051 0.165 0.137 0.391 0.188 0.229 0.052 0.424 0.052 0.435 0.001 0.011-0.053-0.165-0.136-0.392-0.189-0.089-0.022-0.191-0.036-0.296-0.039l-0.002-0zM1.984 8.043c-0.167 0.045-0.157 0.636 0.024 1.32 0.18 0.687 0.463 1.207 0.63 1.163 0.167-0.045 0.156-0.636-0.025-1.32-0.181-0.687-0.463-1.208-0.629-1.163zM8.913 8.167c-0.048-0.021-0.158 0.132-0.246 0.34-0.087 0.207-0.119 0.393-0.069 0.413 0.048 0.021 0.16-0.131 0.246-0.34 0.087-0.207 0.119-0.394 0.069-0.413zM9.32 8.503c-0.070 0.010-0.19 0.080-0.309 0.187-0.159 0.142-0.255 0.297-0.215 0.341 0.039 0.043 0.203-0.038 0.361-0.18s0.253-0.295 0.213-0.339c-0.009-0.011-0.027-0.013-0.050-0.010zM4.237 8.898c-0.227 0.023-0.573 0.246-0.884 0.589-0.414 0.457-0.609 0.958-0.435 1.115 0.174 0.158 0.652-0.083 1.067-0.54 0.414-0.459 0.608-0.958 0.433-1.116-0.043-0.039-0.107-0.055-0.182-0.047zM9.47 8.959c-0.079 0-0.184 0.012-0.297 0.038-0.229 0.051-0.405 0.135-0.393 0.187 0.011 0.051 0.207 0.051 0.435 0 0.227-0.051 0.405-0.135 0.392-0.187-0.005-0.025-0.058-0.038-0.136-0.039zM5.383 9.071c-0.002-0-0.005-0-0.007-0-0.022 0-0.042 0.007-0.059 0.019l0-0c-0.14 0.109 0.095 0.652 0.529 1.213 0.431 0.561 0.897 0.929 1.038 0.82 0.14-0.107-0.099-0.651-0.53-1.212-0.378-0.491-0.781-0.834-0.971-0.84zM8.421 9.1c-0.178-0.020-0.562 0.24-0.925 0.64-0.413 0.457-0.644 0.924-0.511 1.042 0.131 0.12 0.574-0.155 0.988-0.611s0.643-0.923 0.512-1.043c-0.017-0.015-0.039-0.025-0.064-0.027l-0-0zM4.686 9.189c-0.257 0.055-0.32 0.8-0.137 1.661 0.182 0.861 0.543 1.517 0.8 1.462 0.258-0.054 0.321-0.8 0.139-1.66-0.184-0.861-0.543-1.519-0.802-1.463zM14.985 10.828c-0.087-0.037-0.32 0.314-0.52 0.783-0.198 0.47-0.288 0.882-0.2 0.919 0.087 0.037 0.32-0.313 0.518-0.782 0.198-0.47 0.289-0.883 0.202-0.919zM8.649 11.103c-0.047 0.021-0.016 0.207 0.070 0.414 0.088 0.208 0.199 0.361 0.245 0.343 0.048-0.021 0.018-0.207-0.070-0.414-0.087-0.208-0.197-0.362-0.245-0.343zM8.249 11.44c-0.023-0.003-0.041 0-0.052 0.011-0.040 0.047 0.058 0.198 0.216 0.34s0.321 0.22 0.361 0.176c0.040-0.045-0.055-0.198-0.213-0.34-0.119-0.105-0.24-0.177-0.311-0.187zM8.1 11.894c-0.079 0-0.13 0.013-0.135 0.038-0.011 0.053 0.163 0.136 0.39 0.189 0.229 0.051 0.424 0.051 0.435 0s-0.164-0.136-0.391-0.187c-0.089-0.022-0.192-0.037-0.298-0.039l-0.002-0zM9.013 12.034c-0.173 0-0.317 0.5-0.317 1.117s0.143 1.117 0.318 1.117c0.173 0 0.319-0.5 0.319-1.117s-0.145-1.117-0.319-1.117zM5.563 12.256c-0.033 0.001-0.064 0.012-0.089 0.030l0-0c-0.196 0.144 0.027 0.78 0.496 1.42 0.469 0.641 1.009 1.043 1.205 0.9 0.197-0.143-0.023-0.781-0.493-1.42-0.411-0.561-0.877-0.94-1.119-0.93zM14.243 12.604c-0.070-0.063-0.401 0.198-0.737 0.582s-0.549 0.746-0.479 0.809c0.072 0.062 0.402-0.199 0.738-0.582s0.55-0.747 0.477-0.809zM6.901 12.899c-0.075-0.003-0.129 0.013-0.153 0.049-0.096 0.149 0.307 0.583 0.902 0.969 0.593 0.387 1.153 0.581 1.25 0.433s-0.307-0.585-0.9-0.971c-0.445-0.289-0.872-0.469-1.099-0.479zM5.82 13.634c-0.177 0-0.32 0.5-0.32 1.117s0.143 1.117 0.32 1.117 0.321-0.5 0.321-1.117c0-0.617-0.144-1.117-0.321-1.117zM3.391 13.674c-0.048 0.021-0.017 0.209 0.069 0.417 0.088 0.208 0.198 0.359 0.247 0.34 0.049-0.021 0.017-0.208-0.069-0.415s-0.197-0.36-0.246-0.341zM12.921 13.992c-0.245-0.027-0.751 0.085-1.307 0.302-0.738 0.289-1.286 0.656-1.222 0.819 0.064 0.161 0.716 0.062 1.454-0.228 0.74-0.289 1.288-0.657 1.224-0.82-0.016-0.040-0.068-0.064-0.149-0.073zM2.989 14.011c-0.023-0.003-0.041 0-0.051 0.012-0.041 0.045 0.055 0.199 0.215 0.341 0.16 0.144 0.322 0.222 0.363 0.177 0.040-0.047-0.056-0.199-0.216-0.343-0.12-0.107-0.241-0.178-0.311-0.187zM2.841 14.468c-0.079 0-0.131 0.013-0.137 0.038-0.011 0.053 0.165 0.136 0.392 0.189 0.229 0.051 0.424 0.051 0.435 0s-0.165-0.136-0.392-0.187c-0.089-0.023-0.191-0.037-0.297-0.039l-0.002-0zM3.701 14.499c-0.076-0.003-0.129 0.013-0.154 0.050-0.096 0.149 0.307 0.583 0.902 0.969 0.593 0.387 1.154 0.581 1.25 0.432 0.098-0.149-0.307-0.585-0.9-0.971-0.444-0.289-0.871-0.469-1.098-0.479zM8.119 14.559c-0.577-0.024-0.995 0.054-1.018 0.213-0.031 0.211 0.653 0.487 1.526 0.613 0.874 0.127 1.61 0.058 1.64-0.155 0.031-0.211-0.653-0.487-1.528-0.613-0.176-0.027-0.39-0.048-0.607-0.058l-0.013-0z"></path>
</svg>
