<!-- Generated by IcoMoon.io -->
<svg version="1.1" xmlns="http://www.w3.org/2000/svg" width="16" height="16" viewBox="0 0 16 16">
<title>foursquare</title>
<path fill="#f94877" d="M11.818 2.31l-0.357 1.866c-0.043 0.202-0.297 0.415-0.534 0.415h-3.321c-0.375 0-0.642 0.261-0.642 0.63v0.409c0 0.379 0.27 0.64 0.644 0.64h2.82c0.263 0 0.523 0.291 0.465 0.57l-0.357 1.84c-0.034 0.16-0.209 0.42-0.523 0.42h-2.305c-0.42 0-0.545 0.061-0.826 0.401-0.28 0.349-2.804 3.379-2.804 3.379-0.025 0.030-0.049 0.019-0.049-0.010v-10.591c0-0.239 0.207-0.52 0.517-0.52h6.849c0.25 0 0.487 0.237 0.422 0.547zM12.119 9.63c0.097-0.385 1.164-5.856 1.521-7.59zM12.324 0h-8.535c-1.177 0-1.522 0.885-1.522 1.443v13.56c0 0.627 0.336 0.861 0.526 0.937 0.189 0.078 0.713 0.143 1.027-0.219 0 0 4.029-4.676 4.097-4.745 0.11-0.105 0.11-0.105 0.21-0.105h2.609c1.1 0 1.271-0.78 1.391-1.24 0.1-0.379 1.169-5.849 1.519-7.59 0.27-1.321-0.070-2.041-1.32-2.041z"></path>
</svg>
