<!-- Generated by IcoMoon.io -->
<svg version="1.1" xmlns="http://www.w3.org/2000/svg" width="16" height="16" viewBox="0 0 16 16">
<title>freecodecamp</title>
<path fill="#006400" d="M15.978 8.211c0 1.667-0.569 3.145-1.732 4.454-0.423 0.486-0.762 0.717-0.992 0.717-0.081 0-0.171-0.022-0.231-0.083-0.061-0.064-0.1-0.149-0.1-0.233 0-0.125 0.15-0.317 0.449-0.593 1.209-1.157 1.818-2.597 1.818-4.304 0-1.897-0.629-3.435-1.877-4.624-0.249-0.228-0.38-0.418-0.38-0.568 0-0.080 0.041-0.171 0.109-0.23 0.070-0.060 0.15-0.099 0.231-0.099 0.279 0 0.699 0.339 1.228 1.018 0.999 1.269 1.499 2.797 1.499 4.564zM0 7.788c0-1.666 0.569-3.146 1.732-4.454 0.423-0.486 0.762-0.717 0.993-0.717 0.079 0 0.169 0.022 0.229 0.083 0.060 0.063 0.1 0.126 0.1 0.209 0 0.125-0.15 0.318-0.449 0.612-1.187 1.163-1.807 2.597-1.807 4.308 0 1.898 0.634 3.439 1.881 4.623 0.253 0.229 0.379 0.422 0.379 0.569 0 0.085-0.041 0.171-0.107 0.232-0.066 0.063-0.15 0.107-0.235 0.107-0.291 0-0.689-0.34-1.219-1.012-1.009-1.246-1.498-2.767-1.498-4.561zM11.799 12.367h-7.323c-0.233 0-0.445-0.191-0.445-0.444 0-0.255 0.19-0.445 0.445-0.445h7.323c0.232 0 0.445 0.19 0.445 0.445-0.004 0.257-0.191 0.444-0.445 0.444zM7.799 6.421c0.131-0.017 0.229 0.41 0.241 0.499 0.031 0.235-0.047 0.462-0.154 0.669-0.398 0.777-1.319 1.403-1.075 2.383 0.111 0.423 0.329 0.717 1.009 1.079-0.23 0.079-0.549-0.074-0.729-0.201-0.799-0.544-1.309-1.437-1.259-2.413 0.020-0.309 0.080-0.613 0.159-0.912 0.25-0.854 0.759-1.601 1.059-2.431 0.15-0.399 0.26-0.883 0.141-1.302-0.060-0.206-0.17-0.399-0.31-0.566-0.041-0.051-0.269-0.31-0.359-0.28 0.4-0.15 0.759-0.011 1.108 0.199 0.269 0.16 0.48 0.39 0.639 0.65 0.299 0.479 0.419 1.028 0.479 1.587 0.021 0.23-0.010 0.789 0.26 0.9 0.279 0.119 0.499-0.35 0.559-0.54 0.13-0.43-0.040-0.839-0.209-1.239 0.041 0.081 0.19 0.17 0.259 0.231l0.24 0.229c0.29 0.299 0.469 0.669 0.589 1.069 0.109 0.359 0.16 0.729 0.18 1.089 0.049 0.749-0.12 1.519-0.419 2.207-0.13 0.309-0.299 0.599-0.519 0.849-0.213 0.249-0.499 0.409-0.729 0.638 0.539-0.539 0.825-1.418 0.749-2.087-0.040-0.369-0.159-0.709-0.439-1.048 0 0 0.030 0.239 0.058 0.389 0.050 0.33-0.17 0.68-0.429 0.639-0.19-0.019-0.091-0.429-0.070-0.559 0.070-0.389-0.020-0.769-0.163-1.129-0.139-0.339-0.4-0.609-0.799-0.549z"></path>
</svg>
