<!-- Generated by IcoMoon.io -->
<svg version="1.1" xmlns="http://www.w3.org/2000/svg" width="16" height="16" viewBox="0 0 16 16">
<title>freebsd</title>
<path fill="#ab2b28" d="M15.817 0.392c0.849 0.848-1.503 4.575-1.9 4.972s-1.407 0.032-2.255-0.816-1.213-1.858-0.816-2.255 4.124-2.749 4.971-1.901zM3.923 1.289c-1.295-0.735-3.137-1.552-3.723-0.966-0.593 0.593 0.253 2.478 0.996 3.775 0.66-1.149 1.6-2.116 2.727-2.809zM14.523 5.072c0.119 0.404 0.098 0.738-0.095 0.931-0.452 0.452-1.672-0.029-2.771-1.076-0.081-0.073-0.156-0.143-0.228-0.215l0 0c-0.398-0.398-0.707-0.821-0.905-1.211-0.385-0.691-0.481-1.301-0.19-1.592 0.159-0.159 0.412-0.202 0.722-0.147 0.202-0.127 0.44-0.27 0.701-0.415-1.027-0.546-2.247-0.867-3.541-0.867-0.004 0-0.009 0-0.013 0h0.001c-4.252 0-7.699 3.447-7.699 7.699s3.447 7.699 7.699 7.699 7.699-3.447 7.699-7.699c0-1.373-0.36-2.661-0.99-3.777-0.162 0.299-0.291 0.518-0.426 0.734l0.036-0.063z"></path>
</svg>
