<!-- Generated by IcoMoon.io -->
<svg version="1.1" xmlns="http://www.w3.org/2000/svg" width="16" height="16" viewBox="0 0 16 16">
<title>fujitsu</title>
<path fill="#f00" d="M11.040 2c-1.607 0-3.013 0.827-3.92 1.98v2.527c1.213-3.367 3.92-3.12 3.92-3.12 1.96 0 3.52 1.533 3.52 3.413 0 1.893-1.56 3.42-3.52 3.42-0.003 0-0.007 0-0.012 0-0.96 0-1.831-0.381-2.469-1.001l0.001 0.001-1.707-1.867c-0.726-0.705-1.719-1.14-2.813-1.14-0.007 0-0.014 0-0.022 0h0.001c-2.22 0-4.020 1.74-4.020 3.893 0 2.16 1.8 3.893 4.020 3.893 1.247 0 2.367-0.54 3.1-1.407v-2.020c-1.2 2.287-3.1 2.040-3.1 2.040-1.42 0-2.573-1.12-2.573-2.507 0-1.373 1.153-2.493 2.573-2.493 0.707 0 1.347 0.28 1.813 0.72l1.707 1.873c0.899 0.874 2.129 1.413 3.484 1.413 0.006 0 0.011-0 0.017-0h-0.001c2.74 0 4.96-2.16 4.96-4.82s-2.22-4.8-4.96-4.8z"></path>
</svg>
