<!-- Generated by IcoMoon.io -->
<svg version="1.1" xmlns="http://www.w3.org/2000/svg" width="16" height="16" viewBox="0 0 16 16">
<title>fujifilm</title>
<path fill="#ed1a3a" d="M0.323 6.669c-0.322 0-0.323 0.159-0.323 0.355v2.219h0.524c0.11 0.002 0.16-0.038 0.162-0.138v-1.037h0.963c0.023 0 0.037-0.012 0.037-0.035v-0.26h-0.999v-0.653c0-0.115 0.057-0.17 0.172-0.17h0.848c0.025 0 0.033-0.016 0.033-0.033v-0.248zM5.654 6.669c-0.074 0-0.131 0.035-0.131 0.14v1.769c0 0.251-0.095 0.421-0.382 0.462-0.193 0.027-0.452 0.020-0.565 0.016v0.216c0 0.020 0.009 0.035 0.033 0.040 0.017 0.004 0.139 0.019 0.413 0.019 0.481 0 0.703-0.104 0.83-0.195 0.243-0.175 0.33-0.383 0.33-0.795v-1.673zM2.234 6.669c-0.099 0-0.129 0.047-0.129 0.133v1.772c0 0.359 0.173 0.577 0.543 0.689 0.309 0.093 0.807 0.091 1.134 0.002 0.247-0.067 0.525-0.249 0.525-0.691v-1.904h-0.513c-0.115 0-0.146 0.049-0.146 0.131v1.832c0 0.196-0.042 0.295-0.153 0.357-0.161 0.090-0.43 0.089-0.589-0.003-0.118-0.069-0.142-0.187-0.142-0.355v-1.962zM8.439 6.669c-0.322 0-0.322 0.159-0.322 0.355v0.663c0 0.013-0.007 0.019-0.012 0.025l-0.451 0.355h0.463v1.175h0.524c0.109 0.002 0.16-0.038 0.161-0.138v-1.037h0.963c0.023 0 0.037-0.012 0.037-0.035v-0.26h-0.999v-0.653c0-0.115 0.058-0.17 0.172-0.17h0.849c0.024 0 0.033-0.016 0.033-0.033v-0.248zM10.907 6.669h-0.512c-0.117 0-0.148 0.055-0.148 0.135v2.44h0.522c0.092 0 0.138-0.028 0.138-0.136zM12.188 6.669h-0.507c-0.115-0.002-0.153 0.044-0.153 0.142v2.072c0 0.172 0.051 0.361 0.394 0.361h1.112c0.029 0 0.043-0.018 0.043-0.044v-0.234h-0.687c-0.137-0.007-0.203-0.077-0.203-0.212zM16 6.669h-0.763c-0.13 0-0.204 0.061-0.233 0.177l-0.42 1.775h-0.012l-0.433-1.952h-0.593c-0.115 0-0.151 0.059-0.151 0.149v2.425h0.251c0.040 0 0.057-0.020 0.057-0.061v-2.033h0.039l0.536 2.094h0.351c0.133 0 0.182-0.054 0.215-0.185l0.481-1.909h0.039v2.094h0.469c0.115 0 0.167-0.045 0.167-0.158zM6.928 6.669c-0.115 0-0.147 0.056-0.147 0.137v1.247l0.62-0.487c0.024-0.019 0.037-0.033 0.039-0.073v-0.823zM6.781 8.068v1.175h0.521c0.092 0 0.139-0.027 0.139-0.135v-1.040z"></path>
</svg>
