<!-- Generated by IcoMoon.io -->
<svg version="1.1" xmlns="http://www.w3.org/2000/svg" width="16" height="16" viewBox="0 0 16 16">
<title>furaffinity</title>
<path fill="#faaf3a" d="M11.214 3.422l-0.173 1.328 1.623 0.478 0.021 1.435 1.487 0.027-0.037 1.503 1.447-0.094c0.002-0.506 0.033-3.363 0.417-4.677zM7.571 12.16c0.037-0.142 0-0.604 0-0.764l-0.033-0.975c-1.347-0.057-2.8 0.215-2.8 1.458 0 0.269 0.113 0.512 0.284 0.699h2.208c0.165-0.095 0.289-0.223 0.341-0.418zM13.593 8.711l0.035-1.498-1.468-0.027-0.023-1.617-1.685-0.574 0.225-1.573h-6.287c-2.545 0-4.39 2.168-4.39 4.545v4.611h2.744c-0.012-0.108-0.018-0.233-0.018-0.36 0-0.050 0.001-0.1 0.003-0.149l-0 0.007c0.099-2.443 2.799-2.863 4.827-2.803v-0.704c-0.033-0.568-0.493-1.070-1.827-1.070-0.889 0-1.943 0.114-2.626 0.361l0.181-1.589c0.652-0.185 1.387-0.363 2.969-0.363 3.048 0 3.385 1.353 3.36 2.922l-0.014 3.749h1.717c2.202 0 4.014-1.795 4.241-3.943z"></path>
</svg>
