<!-- Generated by IcoMoon.io -->
<svg version="1.1" xmlns="http://www.w3.org/2000/svg" width="16" height="16" viewBox="0 0 16 16">
<title>furrynetwork</title>
<path fill="#2e75b4" d="M10.607 0c-2.080 0-4.147 0-6.207 0.020 0 0.033-0.040 0.033-0.060 0.053-0.959 0.409-1.772 0.989-2.436 1.709l-0.004 0.005c-0.56 0.58-1.013 1.267-1.373 2-0.133 0.253-0.253 0.527-0.367 0.8-0.013 0.053-0.033 0.133-0.087 0.167v4.147c0.033 0.053 0.033 0.133 0.053 0.2 0.375 1.34 1.183 2.453 2.261 3.208l0.019 0.012c0.020 0.020 0.033 0.060 0.073 0.040-0.020-0.020-0.020-0.040-0.040-0.053-0.16-0.24-0.307-0.46-0.447-0.693-0.553-0.897-0.88-1.984-0.88-3.147 0-0.2 0.010-0.397 0.028-0.591l-0.002 0.025c0.14-1.142 0.546-2.168 1.155-3.042l-0.014 0.022c0.719-1.051 1.518-1.965 2.413-2.775l0.013-0.012c0.624-0.567 1.341-1.048 2.12-1.417l0.053-0.023c0.722-0.341 1.569-0.54 2.462-0.54 0.171 0 0.34 0.007 0.507 0.022l-0.022-0.002c0.467 0.040 0.927 0.113 1.38 0.18l0.127 0.020c0.053 0.020 0.087 0.020 0.14 0.020-0.253-0.107-0.507-0.22-0.76-0.293-0.033-0.013-0.067-0.013-0.107-0.060zM9.5 0.44c-0.287 0.013-0.56 0.033-0.847 0.087-0.493 0.093-0.96 0.24-1.433 0.387-0.368 0.116-0.686 0.256-0.985 0.426l0.025-0.013c-0.013 0-0.053 0-0.053 0.040h0.033c0.576-0.1 1.276-0.179 1.985-0.218l0.048-0.002c0.34-0.020 0.707 0 1.047 0.053 0.507 0.073 0.98 0.26 1.413 0.513 1.274 0.732 2.281 1.803 2.915 3.091l0.019 0.042c0.504 1.058 0.834 2.291 0.918 3.59l0.002 0.030c0.040 0.433 0.040 0.893 0.020 1.347l-0.053 0.76c-0.020 0.22-0.053 0.44-0.093 0.66-0.038 0.293-0.101 0.556-0.189 0.809l0.009-0.029c-0.283 0.695-0.63 1.295-1.047 1.839l0.014-0.019c-0.327 0.44-0.7 0.84-1.067 1.24-0.053 0.053-0.087 0.087-0.127 0.147 0.040 0 0.040-0.020 0.053-0.020 0.584-0.34 1.087-0.695 1.558-1.088l-0.018 0.014c0.937-0.781 1.667-1.779 2.116-2.918l0.017-0.049 0.113-0.273h0.020v3.913c0 0.013 0-6.113 0.013-10 0 0.013 0 0.033-0.013 0.047l-0.020-0.060c-0.267-0.695-0.609-1.297-1.026-1.837l0.012 0.017c-0.56-0.723-1.253-1.313-2.046-1.743l-0.034-0.017c-0.889-0.485-1.947-0.771-3.072-0.771-0.080 0-0.16 0.001-0.24 0.004l0.012-0zM15.92 4.8l0.007-0.013v-3.62zM7.253 2.58c-0.267-0.027-0.533 0.060-0.793 0.28-0.18 0.162-0.321 0.362-0.41 0.589l-0.004 0.011c-0.22 0.533-0.253 1.053-0.147 1.6 0.073 0.42 0.267 0.787 0.613 1.053 0.347 0.293 0.747 0.333 1.107 0.133 0.22-0.133 0.38-0.293 0.507-0.513 0.22-0.38 0.307-0.8 0.307-1.233 0-0.2-0.013-0.387-0.053-0.587-0.052-0.36-0.199-0.678-0.416-0.936l0.002 0.003c-0.175-0.212-0.424-0.358-0.707-0.399l-0.006-0.001zM10.667 3.433c-0.459 0.017-0.866 0.227-1.145 0.551l-0.002 0.002c-0.2 0.18-0.307 0.42-0.433 0.653-0.16 0.283-0.254 0.621-0.254 0.982 0 0.013 0 0.027 0 0.040l-0-0.002c0 0.253 0.033 0.493 0.14 0.733 0.187 0.433 0.533 0.667 0.96 0.667 0.313 0 0.567-0.107 0.8-0.287 0.542-0.402 0.912-1.007 0.999-1.701l0.001-0.012c0.033-0.307 0-0.62-0.113-0.933-0.107-0.267-0.267-0.5-0.547-0.613-0.12-0.051-0.26-0.080-0.407-0.080-0 0-0 0-0 0v0zM4.253 5.040c-0.293 0.020-0.56 0.133-0.74 0.4-0.24 0.333-0.313 0.713-0.333 1.093-0.013 0.4 0.080 0.767 0.26 1.113 0.147 0.287 0.34 0.547 0.613 0.733 0.347 0.227 0.78 0.227 1.087 0.013 0.18-0.133 0.307-0.313 0.4-0.513 0.18-0.42 0.213-0.867 0.107-1.327-0.097-0.497-0.349-0.924-0.704-1.238l-0.002-0.002c-0.2-0.16-0.413-0.267-0.687-0.273zM12.16 6.8c-0.013-0-0.027-0.001-0.042-0.001-0.204 0-0.395 0.050-0.564 0.137l0.007-0.003c-0.559 0.265-0.988 0.728-1.201 1.297l-0.005 0.016c-0.081 0.187-0.128 0.405-0.128 0.634 0 0.149 0.020 0.294 0.058 0.431l-0.003-0.011c0.093 0.333 0.267 0.567 0.6 0.66 0.127 0.033 0.267 0.053 0.4 0.053 0.213 0 0.36-0.020 0.533-0.113 0.353-0.16 0.62-0.4 0.853-0.687 0.286-0.335 0.46-0.773 0.46-1.251 0-0.138-0.014-0.272-0.042-0.401l0.002 0.013c-0.050-0.384-0.346-0.686-0.722-0.746l-0.005-0.001c-0.058-0.013-0.127-0.023-0.197-0.027l-0.003-0zM7.42 7.9c-0.053 0-0.147 0-0.233 0.020-0.368 0.016-0.71 0.113-1.013 0.273l0.013-0.006c-0.4 0.227-0.733 0.513-1.047 0.84-0.344 0.359-0.65 0.758-0.91 1.19l-0.017 0.030c-0.14 0.253-0.233 0.533-0.213 0.82 0.020 0.167 0.020 0.313 0.093 0.453 0.2 0.26 0.467 0.44 0.793 0.513 0.307 0.053 0.613 0.020 0.92-0.020 0.347-0.033 0.667-0.067 1-0.053 0.52 0.033 1 0.2 1.413 0.527 0.16 0.133 0.307 0.273 0.487 0.4 0.34 0.24 0.707 0.347 1.12 0.253 0.347-0.067 0.58-0.287 0.653-0.633 0.067-0.293 0.053-0.567 0.013-0.86-0.063-0.383-0.148-0.72-0.26-1.044l0.013 0.044c-0.175-0.574-0.402-1.074-0.683-1.536l0.017 0.029c-0.2-0.333-0.44-0.62-0.767-0.84-0.379-0.251-0.844-0.401-1.343-0.401-0.018 0-0.035 0-0.053 0.001l0.003-0zM0.073 9.76v1.42c0.067 0.087 0.107 0.2 0.147 0.307 0.378 1.074 0.924 2 1.616 2.797l-0.009-0.011c0.686 0.751 1.543 1.335 2.509 1.692l0.044 0.014c0.020 0 0.033 0.020 0.053 0.020h5.34c0.020-0.020 0.020-0.020 0.033-0.020 0.506-0.158 0.945-0.362 1.351-0.614l-0.025 0.014c1.23-0.779 2.201-1.866 2.82-3.154l0.020-0.046c0.287-0.673 0.433-1.387 0.467-2.133 0.008-0.024 0.012-0.051 0.012-0.080s-0.004-0.056-0.013-0.082l0.001 0.002c-0.013 0.013-0.033 0.033-0.033 0.053l-0.147 0.467c-0.265 0.831-0.693 1.545-1.249 2.136l0.003-0.003c-0.523 0.542-1.156 0.974-1.864 1.26l-0.036 0.013c-0.633 0.26-1.3 0.367-1.993 0.4-0.507 0.020-0.993 0-1.48-0.033-0.776-0.061-1.483-0.165-2.173-0.312l0.107 0.019c-0.946-0.214-1.78-0.526-2.557-0.934l0.057 0.027c-0.875-0.465-1.608-1.083-2.189-1.825l-0.011-0.015c-0.325-0.395-0.595-0.851-0.788-1.346l-0.012-0.034z"></path>
</svg>
