<!-- Generated by IcoMoon.io -->
<svg version="1.1" xmlns="http://www.w3.org/2000/svg" width="16" height="16" viewBox="0 0 16 16">
<title>gatsby</title>
<path fill="#639" d="M8.001 0.005c-4.45 0-7.996 3.546-7.996 7.995s3.546 7.997 7.995 7.997 7.996-3.546 7.996-7.996-3.545-7.996-7.995-7.996zM1.743 8.070l6.189 6.189c-3.407 0-6.189-2.781-6.189-6.189zM9.391 14.119l-7.509-7.509c0.625-2.781 3.129-4.867 6.118-4.867 2.075 0.004 3.915 1.008 5.064 2.556l0.012 0.017-0.903 0.764c-0.932-1.351-2.471-2.225-4.215-2.225-0.009 0-0.019 0-0.028 0h0.001c-0.010-0-0.021-0-0.032-0-2.198 0-4.067 1.408-4.755 3.371l-0.011 0.035 6.536 6.537c1.6-0.557 2.851-1.947 3.199-3.616h-2.712v-1.182h4.103c0 2.99-2.086 5.493-4.867 6.119z"></path>
</svg>
