<!-- Generated by IcoMoon.io -->
<svg version="1.1" xmlns="http://www.w3.org/2000/svg" width="16" height="16" viewBox="0 0 16 16">
<title>gauges</title>
<path fill="#2fa66a" d="M8.4 8.423l-0.75-0.035c-0.63-0.022-0.798-0.055-0.798-0.29 0-0.090 0.067-0.212 0.202-0.28 0.111 0.024 0.225 0.035 0.338 0.035 1.61 0 2.42-0.78 2.42-1.987 0-0.2-0.049-0.38-0.15-0.49h0.64v-1.34h-1.902c-0.315-0.077-0.595-0.133-0.977-0.133-1.695 0-2.536 0.983-2.536 2.12 0 0.713 0.337 1.227 0.84 1.495-0.389 0.156-0.681 0.58-0.681 1.027 0 0.391 0.215 0.703 0.54 0.858-0.427 0.224-0.81 0.77-0.81 1.293 0 1.107 0.9 1.651 2.427 1.651 1.915 0 3.13-1.069 3.13-2.273h-0.012c0-1.116-0.719-1.607-1.921-1.65zM7.425 5.237c0.597 0 0.895 0.32 0.895 0.795 0 0.473-0.333 0.76-0.883 0.76-0.595 0-0.895-0.297-0.895-0.782 0-0.453 0.322-0.773 0.883-0.773zM8.764 10.273c0 0.42-0.408 0.742-1.213 0.742-0.629 0-1-0.27-1-0.668 0-0.235 0.151-0.472 0.4-0.665 0.060 0.010 0.151 0 0.22 0.010l0.9 0.021c0.531 0.022 0.72 0.259 0.72 0.56zM11.758 7.236v0.001c-0.66 0-1.216 0.556-1.216 1.23s0.556 1.215 1.216 1.215c0.673 0 1.231-0.543 1.231-1.216s-0.558-1.231-1.231-1.231zM8 0c-4.418 0-8 3.582-8 8s3.582 8 8 8 8-3.582 8-8-3.582-8-8-8zM8 14.89c-3.805 0-6.89-3.085-6.89-6.89s3.085-6.89 6.89-6.89c3.805 0 6.89 3.085 6.89 6.89s-3.085 6.89-6.89 6.89z"></path>
</svg>
