<!-- Generated by IcoMoon.io -->
<svg version="1.1" xmlns="http://www.w3.org/2000/svg" width="16" height="16" viewBox="0 0 16 16">
<title>genius</title>
<path fill="#ffff64" d="M8.598 0.823c-0.24 0.001-0.481 0.009-0.72 0.011-0.145-0.019-0.247 0.15-0.235 0.277-0.023 0.675 0.015 1.35-0.011 2.024-0.025 0.561-0.37 1.064-0.816 1.387-0.333 0.23-0.745 0.29-1.114 0.442 0.081 0.52 0.289 1.037 0.705 1.38 0.793 0.702 2.149 0.573 2.78-0.284 0.63-0.714 0.302-1.715 0.402-2.569 0.191-0.32 0.625-0.088 0.878-0.327-0.227-0.833-0.54-1.686-1.15-2.315-0.19-0.017-0.411-0.027-0.634-0.027-0.030 0-0.060 0-0.090 0.001l0.005-0zM1.651 0.827c-1.298 1.167-1.909 3.037-1.549 4.747 0.256 1.368 1.121 2.595 2.3 3.331 0.089-0.153 0.153-0.317 0.060-0.487-0.633-1.876-0.092-4.079 1.324-5.46 0.009-0.657 0.029-1.317-0.002-1.974l-0.125-0.143c-0.669-0.034-1.339 0-2.008-0.015zM13.571 0.864l-0.137 0.237c0.177 0.625 0.4 1.241 0.48 1.889 0.387 2.364-0.268 4.875-1.743 6.76-1.211 1.569-2.961 2.716-4.889 3.182-1.773 0.44-3.676 0.3-5.376-0.362-0.045 0.053-0.138 0.158-0.183 0.212 1.776 1.753 4.362 2.646 6.839 2.332 2.050-0.218 3.997-1.243 5.349-2.797 1.29-1.458 2.055-3.38 2.083-5.328 0.081-2.256-0.805-4.546-2.423-6.126z"></path>
</svg>
