<!-- Generated by IcoMoon.io -->
<svg version="1.1" xmlns="http://www.w3.org/2000/svg" width="16" height="16" viewBox="0 0 16 16">
<title>gentoo</title>
<path fill="#54487a" d="M6.637 0.065c-0.296 0.002-0.584 0.029-0.863 0.081l0.030-0.005c-2.873 0.525-4.894 3.012-5.066 4.649-0.083 0.803 0.35 1.405 0.589 1.671 0.646 0.717 1.933 1.265 2.761 1.72-1.197 1.020-1.745 1.518-2.286 2.085-0.809 0.849-1.378 1.784-1.38 2.453 0 0.215-0.035 0.903 0.245 1.447 0.105 0.204 0.405 0.885 1.309 1.395 0.578 0.327 1.401 0.447 2.207 0.331 2.495-0.356 5.835-2.471 8.219-4.441 1.519-1.256 2.63-2.473 2.951-3.071 0.259-0.483 0.287-1.351 0.137-1.895-0.427-1.545-3.893-4.711-6.727-5.985-0.611-0.275-1.325-0.435-2.076-0.435-0.017 0-0.034 0-0.051 0l0.003-0zM6.633 0.109c0.017-0 0.037-0 0.057-0 0.784 0 1.526 0.184 2.183 0.512l-0.028-0.013c2.289 1.125 6.155 4.287 6.441 5.876 0.353 1.965-6.568 7.286-10.778 8.116-1.633 0.321-3.026 0.409-3.661-1.317-0.551-1.495 0.517-2.589 2.090-4.027 0.653-0.597 1.173-1.043 1.957-1.704 0.043-0.045-3.773-1.361-3.895-2.872-0.126-1.553 2.333-4.419 5.48-4.567 0.052-0.003 0.103-0.005 0.155-0.005zM6.559 0.453c-0.121 0.002-0.237 0.010-0.351 0.022l0.017-0.002c-1.546 0.163-1.842 0.362-3.243 1.421-0.469 0.355-1.333 1.219-1.554 2.244-0.085 0.391 0.015 0.727 0.296 0.964 0.9 0.757 2.407 1.371 3.643 1.965 0.362 0.173 0.123 0.489-0.461 0.995-1.473 1.275-3.465 2.828-3.605 4.011-0.065 0.557 0.125 1.315 0.802 1.703 0.791 0.453 2.431 0.157 3.527-0.251 1.601-0.597 3.705-1.913 5.375-3.206 1.736-1.345 3.351-3.053 3.431-3.332 0.098-0.342 0.088-0.659-0.101-1.022-0.297-0.57-0.694-0.994-1.121-1.469-1.145-1.207-2.356-2.267-3.805-3.080-0.949-0.532-1.793-0.98-2.849-0.964zM7.269 2.849c0.361 0 0.778 0.114 1.225 0.331 1.117 0.54 2.263 1.958-0.010 2.774-0.618 0.222-2.579-0.545-2.519-1.592 0.059-1.039 0.565-1.513 1.304-1.513zM7.458 3.753c-0.21-0.001-0.381 0.052-0.459 0.173-0.368 0.57-0.2 0.974 0.141 1.232 0.127-0.303 1.425 0.028 1.42 0.312 0.013-0.007 0.027-0.013 0.037-0.021 1.127-0.848-0.312-1.691-1.138-1.696z"></path>
</svg>
