<!-- Generated by IcoMoon.io -->
<svg version="1.1" xmlns="http://www.w3.org/2000/svg" width="16" height="16" viewBox="0 0 16 16">
<title>geocaching</title>
<path fill="#00874d" d="M8.827 0.002v1.548c0.86 0.107 1.959 0.415 2.985 1.197l-0.791 1.072-0.011-0.010c0 0-0.819-0.701-2.18-0.92v4.279h4.22c-0.080-0.609-0.291-1.34-0.769-2.079l1.13-0.75c0 0 0.84 1.14 1.020 2.829h1.569v-7.168h-7.173zM11.717 15.471l-0.4 0.065-0.871-5.363 0.233-0.037 4.37-0.010-3.77 2.709 0.421 2.636zM8.825 8.826v7.174h7.172v-7.173l-7.172-0.003zM4.303 13.328l0.789-1.070h0.013c0 0 0.775 0.658 2.069 0.895v-4.327h-4.114c0.073 0.622 0.28 1.384 0.783 2.157l-1.123 0.746c0 0-0.864-1.174-1.019-2.903h-1.701v7.173h7.173v-1.487c-0.843-0.119-1.89-0.431-2.87-1.18zM3.318 1.312c-0.113 0-0.206 0.070-0.206 0.156s0.093 0.155 0.206 0.155 0.205-0.069 0.207-0.155c-0.001-0.086-0.094-0.156-0.207-0.156zM3.337 1.74c-0.335 0-0.604-0.27-0.604-0.6s0.269-0.597 0.604-0.597c0.333 0 0.603 0.269 0.603 0.599s-0.27 0.598-0.599 0.598zM2.447 1.78l-0.691 0.349c-0.063-0.075-0.11-0.137-0.16-0.206l-0.873 0.326-0.184-0.289 2.158-0.447-0.413 0.154c0.053 0.040 0.097 0.073 0.163 0.114zM1.117 0.51c0.252 0.383 0.549 0.698 0.933 0.988l-0.67 0.12c-0.251-0.358-0.471-0.706-0.671-1.133l0.406 0.023zM0 0v7.173h1.605c-0.068-0.655-0.14-2.537 0.987-4.097 0 0-0.25-0.239-0.587-0.634l-0.735 0.629-0.318-0.27 1.913-1.090-0.225 0.191c0.269 0.16 0.54 0.28 0.81 0.37 0 0 0.93-0.52 1.849-1.77l0.22 0.011c-0.17 0.56-0.7 1.52-1.529 2.29 0 0 2.199 0.96 2.699 2.591-0.14-0.080-0.93-0.25-1.319-0.16-0.070-0.11-0.81-1.621-1.931-1.6 0 0-0.25 0.3-0.489 1.080-0.209 0.69-0.12 2.14-0.091 2.48h4.3v-7.193z"></path>
</svg>
