<!-- Generated by IcoMoon.io -->
<svg version="1.1" xmlns="http://www.w3.org/2000/svg" width="16" height="16" viewBox="0 0 16 16">
<title>gerrit</title>
<path fill="#eee" d="M8.432 1.785l-0.163-0.177c0.003-0.003 0.193-0.179 0.275-0.273 0.081-0.097 0.228-0.323 0.231-0.324l0.201 0.13c-0.009 0.011-0.156 0.239-0.25 0.348-0.091 0.11-0.285 0.288-0.293 0.297zM9.483 8.85c-0.008-0.003-0.16-0.103-0.243-0.147-0.078-0.039-0.213-0.097-0.281-0.127l0.142-0.408-0.599-0.296-0.191 0.581c-0.116 0.003-0.475 0.035-1.007 0.259-0.639 0.267-1.125 0.683-1.13 0.686l-0.095 0.083 0.427 0.017 0.013-0.011c0.004-0.004 0.481-0.357 0.746-0.47 0.059-0.025 0.138-0.049 0.22-0.070-0.139 0.070-0.293 0.151-0.4 0.213-0.133 0.079-0.38 0.254-0.391 0.262l-0.124 0.086 0.455 0.011 0.012-0.007c0.008-0.005 0.776-0.415 1.193-0.507l0.131-0.031c0.097-0.025 0.164-0.043 0.281-0.043 0.104 0 0.246 0.014 0.459 0.047 0.265 0.039 0.44 0.105 0.443 0.107l0.16 0.063-0.215-0.291-0.008-0.005zM3.497 3.985h-0.019l-0.671 0.611v0.020c-0.011 0.177 0.052 0.347 0.172 0.477 0.121 0.131 0.28 0.206 0.457 0.213h0.029c0.354 0 0.643-0.275 0.661-0.627 0.015-0.363-0.266-0.673-0.629-0.694zM3.467 5.205h-0.027c-0.078-0.003-0.153-0.021-0.22-0.057 0.030 0.005 0.065 0.007 0.099 0.001 0.189-0.023 0.321-0.194 0.299-0.383-0.023-0.186-0.195-0.32-0.384-0.295-0.176 0.023-0.305 0.178-0.297 0.354-0.021-0.060-0.030-0.122-0.030-0.187l0.608-0.555c0.297 0.028 0.527 0.287 0.512 0.588s-0.261 0.533-0.561 0.533zM9.686 2.722l-0.195-0.13-0.273 0.177-0.263-0.19-0.201 0.12 0.269 0.194-0.277 0.18 0.198 0.12 0.267-0.169 0.258 0.187 0.206-0.113-0.271-0.197zM16 13.017c-0.142-0.139-0.279-0.277-0.419-0.418-0.32-0.325-0.638-0.656-0.945-0.991-0.365-0.399-0.721-0.805-1.055-1.229-0.15-0.189-0.294-0.387-0.431-0.587-0.169-0.258-0.313-0.53-0.445-0.81-0.141-0.297-0.265-0.6-0.384-0.904 0.16 0.14 0.309 0.296 0.443 0.461 0.014-0.143 0.027-0.287 0.039-0.432l0.015-0.215c0-0.022 0.008-0.044-0.005-0.064-0.011-0.019-0.022-0.034-0.035-0.050-0.081-0.099-0.176-0.188-0.271-0.275-0.126-0.121-0.258-0.24-0.389-0.355l-0.12-0.104c-0.018-0.018-0.038-0.034-0.057-0.049-0.021-0.020-0.027-0.064-0.037-0.091l-0.103-0.319c0.405 0.19 0.739 0.494 1.052 0.81 0.003-0.146 0.003-0.291 0-0.435 0-0.076-0.001-0.153-0.005-0.231 0-0.019 0.004-0.067-0.011-0.085-0.008-0.013-0.021-0.024-0.029-0.037-0.073-0.078-0.156-0.145-0.238-0.209-0.115-0.095-0.233-0.185-0.351-0.272-0.104-0.078-0.212-0.155-0.318-0.23-0.012-0.011-0.051-0.026-0.043-0.040l0.026-0.053c0.013-0.023 0.009-0.030 0.035-0.019l0.113 0.039c0.271 0.104 0.519 0.245 0.762 0.405-0.082-0.3-0.207-0.59-0.35-0.864-0.259-0.508-0.595-0.979-0.975-1.403-0.253-0.284-0.523-0.549-0.813-0.795-0.149-0.127-0.305-0.246-0.466-0.355-0.075-0.049-0.15-0.099-0.231-0.145-0.033-0.020-0.070-0.037-0.1-0.063-0.12-0.096-0.243-0.189-0.366-0.286 0.159 0.065 0.313 0.14 0.459 0.225-0.085-0.129-0.228-0.221-0.363-0.291-0.205-0.106-0.425-0.184-0.645-0.252 0.075-0.080 0.156-0.152 0.231-0.232s0.149-0.164 0.22-0.248c0.085-0.1 0.168-0.2 0.25-0.303l-1.091-0.686c-0.082 0.164-0.185 0.317-0.305 0.453s-0.261 0.246-0.4 0.359c-0.127 0.104-0.253 0.211-0.377 0.315-0.031 0.027-0.061 0.057-0.097 0.080-0.017 0.014-0.064 0.003-0.085 0.003h-0.158c-0.198 0.004-0.397 0.019-0.594 0.045-0.039 0.005-0.075 0.009-0.117 0.005l-0.119-0.007c-0.091-0.005-0.181-0.011-0.272-0.011-0.193-0.003-0.387 0-0.581 0.017-0.163 0.015-0.326 0.037-0.486 0.075-0.159 0.037-0.307 0.115-0.44 0.208-0.129 0.094-0.258 0.213-0.336 0.353s-0.113 0.304-0.142 0.459c-0.090 0.009-0.179 0.007-0.267 0.011-0.094 0.005-0.185 0.014-0.277 0.026-0.18 0.025-0.357 0.064-0.53 0.12-0.331 0.103-0.63 0.27-0.891 0.5-0.13 0.121-0.251 0.253-0.359 0.397-0.013 0.017-0.025 0.034-0.042 0.045-0.007 0.006-0.018 0.011-0.022 0.018-0.010 0.018-0.022 0.035-0.034 0.051l-0.089 0.141c-0.112 0.19-0.184 0.397-0.255 0.604l-0.030 0.082 0.022-0.014c-0.007 0.045-0.013 0.090-0.017 0.135l-0.005 0.070v0.035l-0.044 0.009c-0.090 0.017-0.181 0.040-0.267 0.067-0.080 0.026-0.155 0.057-0.225 0.1-0.070 0.044-0.13 0.102-0.19 0.159-0.212 0.207-0.375 0.465-0.458 0.752-0.067 0.232-0.091 0.49-0.039 0.728 0.014 0.060 0.033 0.125 0.071 0.175 0.049 0.060 0.133 0.084 0.209 0.063 0.087-0.024 0.165-0.083 0.247-0.125l0.209-0.105c0.303-0.151 0.62-0.297 0.959-0.35 0.023-0.003 0.067 0.045 0.087 0.061 0.033 0.025 0.067 0.049 0.099 0.069 0.073 0.046 0.147 0.086 0.223 0.121 0.175 0.076 0.361 0.116 0.545 0.154 0.335 0.070 0.676 0.114 1.019 0.12 0.138 0.003 0.277 0 0.417-0.012 0.15-0.013 0.301-0.033 0.452-0.034 0.167-0.003 0.331 0.017 0.493 0.037 0.169 0.021 0.34 0.045 0.509 0.070 0.345 0.053 0.687 0.113 1.029 0.186-0.077 0.12-0.151 0.241-0.225 0.363-0.005 0.009-0.048 0-0.059 0-0.027-0.001-0.057-0.001-0.085 0-0.049 0-0.1 0.005-0.15 0.013-0.141 0.020-0.277 0.055-0.41 0.104-0.327 0.121-0.625 0.322-0.884 0.555-0.147 0.13-0.287 0.272-0.406 0.427-0.033 0.043-0.063 0.086-0.093 0.129 0.070-0.015 0.141-0.030 0.212-0.047 0.041-0.011 0.078-0.018 0.117-0.026 0.014-0.005 0.019-0.011 0.033-0.018 0.146-0.135 0.301-0.262 0.463-0.375 0.074-0.053 0.15-0.103 0.232-0.143 0.111-0.055 0.236-0.087 0.355-0.116-0.22 0.12-0.452 0.233-0.651 0.389-0.115 0.093-0.219 0.194-0.327 0.293l0.436-0.069c0.007 0 0.009-0.003 0.015-0.007l0.113-0.063c0.075-0.043 0.153-0.083 0.231-0.124 0.16-0.082 0.321-0.16 0.488-0.227 0.157-0.063 0.32-0.119 0.488-0.15 0.147-0.031 0.285-0.035 0.432 0 0.228 0.049 0.447 0.155 0.646 0.276 0.014 0.009 0.023 0.022 0.037 0.009 0.011-0.009 0.065-0.049 0.060-0.061l-0.12-0.223c-0.011-0.019-0.015-0.033-0.034-0.044l-0.087-0.051c-0.117-0.069-0.232-0.14-0.34-0.221-0.025-0.015-0.052-0.026-0.055-0.059-0.003-0.031 0.009-0.062 0.019-0.091 0.022-0.060 0.053-0.113 0.087-0.165 0.022-0.039 0.048-0.074 0.073-0.111 0.009-0.012 0.007-0.014 0.021-0.009l0.079 0.023c0.157 0.051 0.313 0.106 0.474 0.147 0.18 0.045 0.363 0.082 0.547 0.117l0.032 0.007c-0.037-0.020-0.061-0.060-0.088-0.091-0.015-0.020-0.023-0.033-0.049-0.040l-0.070-0.013c-0.049-0.011-0.099-0.020-0.15-0.033-0.175-0.038-0.35-0.079-0.518-0.139-0.25-0.087-0.505-0.155-0.763-0.215-0.324-0.071-0.651-0.129-0.977-0.183-0.167-0.027-0.332-0.049-0.5-0.073-0.164-0.023-0.331-0.047-0.497-0.058-0.359-0.023-0.716 0.058-1.077 0.054-0.243-0.003-0.489-0.037-0.731-0.070l-0.045-0.006c0.168-0.062 0.333-0.125 0.5-0.19 0.157-0.063 0.314-0.128 0.47-0.193 0.085-0.035 0.167-0.070 0.249-0.105 0.075-0.034 0.15-0.067 0.219-0.113 0.272-0.186 0.451-0.485 0.65-0.739 0.182-0.241 0.391-0.467 0.66-0.605 0.086-0.044 0.175-0.078 0.267-0.104-0.189-0.293-0.366-0.62-0.415-0.97 0.019 0.008 0.041 0.017 0.063 0.025 0.023 0.008 0.043 0.011 0.048 0.030l0.019 0.090c0.017 0.061 0.035 0.117 0.057 0.175 0.048 0.127 0.107 0.25 0.173 0.367 0.146 0.264 0.323 0.511 0.511 0.747 0.359 0.457 0.763 0.87 1.157 1.294 0.097 0.105 0.183 0.216 0.273 0.328 0.1 0.125 0.202 0.25 0.305 0.374 0.081 0.094 0.156 0.19 0.237 0.284l0.063 0.075c0.011 0.012 0.025 0.017 0.041 0.024 0.403 0.2 0.809 0.4 1.215 0.597 0.289 0.139 0.579 0.28 0.873 0.415 0.157 0.073 0.314 0.146 0.474 0.213 0.019 0.009 0.044 0.019 0.065 0.026 0.011 0.007 0.019 0.011 0.031 0.015l0.011 0.033c0.018 0.048 0.034 0.097 0.051 0.145 0.033 0.094 0.065 0.186 0.099 0.277 0.22 0.608 0.463 1.209 0.763 1.784 0.231 0.437 0.477 0.867 0.727 1.293 0.267 0.453 0.541 0.903 0.817 1.35 0.221 0.357 0.444 0.715 0.672 1.070 0.097 0.151 0.193 0.306 0.293 0.459l0.042 0.063 0.517-0.761 0.127-0.189c0.005-0.004 0.055-0.068 0.051-0.073l-0.104-0.16c-0.194-0.301-0.389-0.599-0.581-0.9l-0.552-0.855-0.070-0.111 0.437 0.533 0.743 0.9c0.081 0.097 0.157 0.193 0.236 0.292 0.146-0.268 0.293-0.534 0.441-0.801 0.057-0.109 0.117-0.22 0.177-0.328zM8.087 1.277c0.206-0.164 0.375-0.375 0.505-0.604l0.785 0.495 0.12 0.075c-0.164 0.2-0.331 0.403-0.517 0.582-0.023 0.023-0.049 0.046-0.071 0.069-0.014 0.017-0.031 0.034-0.047 0.050l-0.022 0.025c-0.015-0.005-0.030-0.011-0.045-0.013-0.097-0.027-0.193-0.053-0.291-0.074-0.195-0.044-0.393-0.078-0.591-0.101-0.127-0.014-0.257-0.027-0.385-0.039 0.183-0.156 0.371-0.311 0.559-0.465zM6.917 2.19c0.155-0.064 0.321-0.1 0.487-0.127 0.327-0.055 0.663-0.063 0.993-0.027 0.236 0.025 0.467 0.072 0.694 0.14l-0.094 0.077-0.15-0.041c-0.094-0.019-0.187-0.040-0.281-0.055-0.164-0.025-0.331-0.040-0.499-0.043-0.307-0.005-0.617 0.028-0.914 0.106-0.201 0.052-0.403 0.125-0.586 0.221-0.191 0.103-0.37 0.231-0.52 0.388-0.089 0.091-0.171 0.193-0.239 0.303-0.038 0.060-0.070 0.12-0.1 0.183-0.016 0.031-0.029 0.064-0.041 0.096l-0.019 0.050c-0.003 0.010-0.005 0.017-0.008 0.025l-0.045-0.007-0.055-0.007c0.156-0.479 0.509-0.857 0.945-1.099 0.138-0.076 0.284-0.145 0.433-0.186zM4.297 2.437c0.177-0.254 0.457-0.433 0.759-0.495 0.335-0.067 0.677-0.079 1.017-0.071-0.35 0.087-0.7 0.217-0.992 0.435-0.227 0.050-0.443 0.16-0.623 0.306-0.060 0.047-0.113 0.1-0.164 0.157-0.023 0.025-0.044 0.050-0.065 0.077-0.009 0.010-0.018 0.020-0.025 0.033h-0.056c0.015-0.090 0.037-0.18 0.065-0.267 0.019-0.060 0.043-0.12 0.079-0.173zM4.882 2.475c-0.097 0.095-0.18 0.202-0.261 0.313-0.031 0.046-0.065 0.102-0.12 0.127-0.057 0.026-0.129-0.003-0.187-0.021 0.149-0.186 0.347-0.329 0.567-0.419zM1.539 4.39c0.053-0.107 0.121-0.21 0.183-0.31 0.011-0.018 0.035-0.031 0.049-0.042 0.033-0.023 0.064-0.046 0.095-0.071 0.206-0.15 0.414-0.297 0.626-0.437 0.111-0.071 0.22-0.142 0.335-0.205 0.121-0.067 0.246-0.12 0.377-0.163 0.231-0.075 0.471-0.126 0.712-0.163 0.116-0.017 0.241-0.038 0.354-0.010-0.22 0.125-0.439 0.25-0.66 0.372-0.228 0.127-0.459 0.245-0.69 0.368-0.221 0.12-0.44 0.25-0.654 0.385-0.224 0.137-0.447 0.279-0.668 0.419-0.053 0.034-0.107 0.070-0.16 0.103 0.030-0.083 0.060-0.167 0.101-0.247zM2.211 6.427c-0.019 0.037-0.089 0.028-0.125 0.028-0.063 0-0.124 0-0.186 0.004-0.172 0.010-0.34 0.040-0.505 0.092-0.317 0.098-0.615 0.25-0.91 0.403-0.067 0.037-0.135 0.090-0.211 0.108-0.041 0.010-0.087-0.005-0.111-0.042-0.023-0.041-0.035-0.087-0.043-0.132-0.018-0.080-0.023-0.163-0.022-0.245 0-0.22 0.051-0.44 0.143-0.64 0.064-0.14 0.147-0.267 0.247-0.383 0.1-0.117 0.217-0.234 0.359-0.3 0.237-0.108 0.517-0.142 0.776-0.157 0.048-0.003 0.097-0.005 0.145-0.005 0.067 0 0.145-0.011 0.207 0.013 0.049 0.018 0.081 0.070 0.1 0.115 0.030 0.070 0.049 0.15 0.067 0.224 0.041 0.173 0.082 0.35 0.097 0.527 0.007 0.079 0.011 0.159 0.003 0.239-0.006 0.049-0.009 0.104-0.033 0.149zM4.096 5.111c-0.129 0.082-0.269 0.145-0.411 0.199-0.143 0.051-0.291 0.096-0.44 0.121-0.065 0.009-0.13 0.017-0.195 0.014-0.067-0.002-0.129-0.024-0.195-0.045-0.13-0.042-0.262-0.087-0.38-0.155-0.043-0.026-0.090-0.056-0.116-0.1-0.019-0.035-0.019-0.077-0.015-0.116 0.008-0.154 0.063-0.305 0.135-0.44 0.125-0.229 0.321-0.408 0.56-0.517 0.586-0.264 1.243-0.019 1.741 0.327l0.053 0.041c-0.103 0.11-0.207 0.214-0.315 0.318-0.133 0.126-0.269 0.254-0.423 0.354zM5.54 3.826c-0.317-0.135-0.617-0.305-0.904-0.492 0.299 0.125 0.623 0.2 0.943 0.247 0.172 0.025 0.347 0.048 0.521 0.053 0.187 0.005 0.376-0.014 0.56-0.050 0.363-0.069 0.712-0.203 1.044-0.367 0.329-0.163 0.643-0.358 0.942-0.573 0.145-0.103 0.287-0.21 0.422-0.325 0.014-0.011 0.116-0.107 0.123-0.103l0.027 0.021 0.358 0.277c0.219 0.169 0.439 0.34 0.659 0.508-0.604 0.217-1.217 0.419-1.835 0.603-0.346 0.104-0.692 0.201-1.043 0.28-0.275 0.065-0.556 0.126-0.837 0.14-0.338 0.015-0.671-0.090-0.98-0.22zM11.439 6.453c0.051 0.014 0.097 0.030 0.143 0.045l0.063 0.022c0.011 0.004 0.021 0.010 0.030 0.013l0.014 0.040c0.030 0.097 0.060 0.193 0.093 0.288-0.1-0.085-0.201-0.169-0.301-0.253l-0.060-0.049c-0.014-0.011-0.030-0.014-0.019-0.031l0.039-0.076zM10.993 7.415l0.023-0.042 0.018-0.031c0.008-0.012 0.005-0.015 0.019-0.008 0.086 0.036 0.172 0.074 0.257 0.113 0.16 0.073 0.317 0.153 0.469 0.243 0.071 0.043 0.145 0.090 0.215 0.137l0.1 0.070 0.049 0.038c0.022 0.018 0.027 0.042 0.038 0.068 0.069 0.188 0.146 0.376 0.225 0.563 0.052 0.126 0.108 0.253 0.165 0.377-0.195-0.247-0.414-0.477-0.638-0.697-0.231-0.231-0.47-0.447-0.719-0.654l-0.215-0.176zM13.497 11.697l-0.081 0.060 0.005 0.011 0.042 0.063 0.783 1.215c0.207 0.32 0.414 0.642 0.621 0.963l0.206 0.32 0.056 0.089c0.003 0.003 0.019 0.027 0.019 0.030-0.173 0.257-0.349 0.513-0.522 0.769-0.018 0.025-0.034 0.051-0.049 0.074-0.16-0.249-0.319-0.496-0.477-0.745-0.267-0.423-0.53-0.851-0.789-1.277-0.289-0.473-0.57-0.945-0.843-1.427-0.255-0.449-0.5-0.907-0.706-1.384-0.201-0.465-0.375-0.939-0.541-1.414 0.324 0.129 0.653 0.245 0.987 0.347 0.097 0.030 0.193 0.060 0.291 0.085l0.042 0.012c0.005 0 0.009-0.026 0.012-0.033 0.012-0.043 0.021-0.086 0.030-0.13 0.021-0.083 0.034-0.169 0.049-0.254 0.137 0.285 0.291 0.563 0.467 0.824 0.143 0.209 0.297 0.414 0.457 0.613 0.347 0.437 0.716 0.855 1.095 1.265 0.309 0.329 0.623 0.656 0.939 0.977l0.259 0.259c0.004 0.004 0.026 0.021 0.025 0.027l-0.021 0.035-0.099 0.183-0.392 0.712c-0.12-0.146-0.241-0.291-0.361-0.439l-0.75-0.907c-0.209-0.258-0.425-0.515-0.635-0.773l-0.124-0.15z"></path>
</svg>
