<!-- Generated by IcoMoon.io -->
<svg version="1.1" xmlns="http://www.w3.org/2000/svg" width="16" height="16" viewBox="0 0 16 16">
<title>gimp</title>
<path fill="#5c5543" d="M15.72 1.6c-0.642 0.804-1.7 4.317-7.64 4.473-2.835 0.075-4.24-3.154-4.24-3.154l-0.223 5.181c-0.554-0.695-1.297-1.137-2.009-1.16-0.021-0.001-0.046-0.002-0.071-0.002-0.335 0-0.645 0.111-0.894 0.298l0.004-0.003c-0.442 0.335-0.651 0.897-0.647 1.52s0.22 1.31 0.647 1.931 0.984 1.058 1.549 1.26c0.304 0.109 0.611 0.143 0.9 0.105 4.019 3.205 14.768 5.655 12.623-10.449zM5.603 5.9c0.843 0 1.543 0.627 1.743 1.464 0.323-0.793 1.076-1.351 1.954-1.351 1.172 0 2.119 0.993 2.119 2.215s-0.947 2.223-2.119 2.223c-1.021 0-1.873-0.76-2.077-1.763-0.291 0.652-0.902 1.111-1.62 1.111-0.61 0-1.144-0.331-1.469-0.831-0.067-0.152-0.132-0.276-0.202-0.396l0.010 0.018c-0.087-0.22-0.137-0.475-0.137-0.741 0-0 0-0 0-0.001v0c0-1.069 0.799-1.948 1.798-1.947zM5.603 6.14c-0.856 0-1.553 0.759-1.553 1.707s0.697 1.706 1.553 1.706c0.143 0 0.278-0.029 0.409-0.068-0.599-0.024-1.075-0.539-1.076-1.171v-0c0-0.647 0.5-1.172 1.117-1.172v0c0.53 0 0.974 0.388 1.089 0.907l0.001 0.008c0.008-0.070 0.019-0.138 0.019-0.211 0-0.949-0.704-1.707-1.56-1.707zM9.299 6.227c-1.051 0-1.907 0.889-1.907 2s0.856 2.005 1.907 2.005c0.394 0 0.76-0.125 1.064-0.341-0.168 0.080-0.365 0.126-0.572 0.127h-0c-0.79-0.001-1.429-0.673-1.429-1.501v0c0-0.829 0.64-1.501 1.429-1.501h0c0 0 0.001 0 0.001 0 0.699 0 1.28 0.526 1.406 1.221l0.001 0.009 0.002-0.017c0-1.111-0.851-2-1.902-2.001zM1.603 7.154c0.692 0.023 1.471 0.513 2.005 1.291 0.404 0.588 0.609 1.244 0.613 1.818s-0.188 1.059-0.564 1.344c-0.376 0.284-0.873 0.32-1.388 0.137-0.515-0.185-1.043-0.589-1.447-1.176s-0.607-1.245-0.611-1.819c-0.005-0.575 0.188-1.059 0.563-1.344 0.21-0.158 0.476-0.252 0.763-0.252 0.023 0 0.046 0.001 0.068 0.002l-0.003-0zM9.396 7.317c0 0 0 0 0 0-0.37 0-0.671 0.315-0.671 0.704 0 0.001 0 0.001 0 0.002v-0c0.001 0.388 0.301 0.703 0.671 0.703 0 0 0 0 0 0v0c0.37-0 0.669-0.315 0.67-0.703v-0c0-0.001 0-0.001 0-0.002 0-0.389-0.3-0.704-0.67-0.704h-0zM5.633 7.464c0 0 0 0 0 0-0.244 0-0.441 0.207-0.441 0.463v0c0 0 0 0.001 0 0.001 0 0.256 0.198 0.463 0.441 0.463 0 0 0 0 0 0v0c0 0 0 0 0 0 0.244 0 0.441-0.207 0.441-0.463 0-0 0-0.001 0-0.001v0c-0-0.256-0.198-0.463-0.441-0.463v0zM1.357 7.613c-0 0-0 0-0.001 0-0.411 0-0.745 0.42-0.745 0.938v0c0 0 0 0 0 0 0 0.518 0.334 0.939 0.745 0.939 0 0 0.001 0 0.001 0h-0c0.411-0.001 0.744-0.421 0.744-0.939 0 0 0 0 0 0v0c-0-0.518-0.333-0.938-0.745-0.938h-0zM10.807 10.278c0 0 0.991 0.29 1.341 0.763 0.349 0.472 0.129 0.763 0.038 1.367-0.135-0.352-0.271-0.628-0.414-0.789-0.54 0.839-2.069 1.239-4.12 1.039 0.92-0.048 1.634-0.192 2.201-0.389-0.933 0.060-2.143-0.18-3.577-0.711 2.841 0.597 4.289 0.042 5.135-0.644-0.223-0.303-0.604-0.636-0.604-0.636z"></path>
</svg>
