<!-- Generated by IcoMoon.io -->
<svg version="1.1" xmlns="http://www.w3.org/2000/svg" width="16" height="16" viewBox="0 0 16 16">
<title>git</title>
<path fill="#f05032" d="M15.697 7.287l-6.986-6.985c-0.403-0.402-1.055-0.402-1.459 0l-1.447 1.45 1.84 1.84c0.43-0.143 0.919-0.047 1.259 0.294 0.344 0.343 0.439 0.839 0.292 1.267l1.772 1.773c0.43-0.149 0.925-0.052 1.267 0.29 0.481 0.48 0.481 1.256 0 1.736-0.479 0.479-1.254 0.479-1.733 0-0.359-0.361-0.449-0.891-0.269-1.331l-1.659-1.651v4.35c0.117 0.057 0.228 0.135 0.325 0.232 0.475 0.481 0.475 1.255 0 1.733-0.479 0.481-1.259 0.481-1.739 0-0.479-0.479-0.479-1.253 0-1.732 0.121-0.12 0.258-0.211 0.403-0.271v-4.393c-0.145-0.061-0.283-0.148-0.4-0.267-0.363-0.363-0.451-0.895-0.264-1.339l-1.808-1.817-4.791 4.787c-0.4 0.403-0.4 1.056 0 1.459l6.987 6.985c0.403 0.403 1.055 0.403 1.457 0l6.953-6.953c0.403-0.402 0.403-1.055 0-1.458z"></path>
</svg>
