<!-- Generated by IcoMoon.io -->
<svg version="1.1" xmlns="http://www.w3.org/2000/svg" width="16" height="16" viewBox="0 0 16 16">
<title>gitea</title>
<path fill="#609926" d="M2.791 3.614c-1.23-0.003-2.877 0.779-2.787 2.74 0.142 3.063 3.28 3.347 4.534 3.371 0.137 0.575 1.613 2.556 2.706 2.66h4.787c2.871-0.191 5.020-8.681 3.427-8.713-2.635 0.124-4.197 0.187-5.537 0.197v2.65l-0.417-0.185-0.003-2.464c-1.537-0.001-2.891-0.072-5.459-0.199-0.321-0.002-0.769-0.057-1.251-0.058zM2.965 4.697h0.147c0.175 1.57 0.459 2.488 1.033 3.891-1.467-0.173-2.715-0.599-2.944-2.19-0.119-0.823 0.281-1.683 1.764-1.701zM8.669 6.241c0.1 0.001 0.202 0.020 0.298 0.064l0.499 0.215-0.358 0.653c-0.001 0-0.002-0-0.003-0-0.057 0-0.111 0.009-0.16 0.026l0.003-0.001c-0.174 0.057-0.296 0.203-0.296 0.375 0 0.048 0.010 0.095 0.027 0.138l-0.001-0.003c0.019 0.045 0.044 0.083 0.075 0.117l-0.001-0.001-0.617 1.124c-0.053 0.001-0.104 0.010-0.151 0.026l0.003-0.001c-0.174 0.057-0.296 0.203-0.296 0.375 0 0.048 0.010 0.095 0.027 0.138l-0.001-0.003c0.064 0.155 0.229 0.264 0.422 0.264 0.054 0 0.107-0.009 0.155-0.024l-0.003 0.001c0.174-0.057 0.296-0.203 0.296-0.374 0-0.049-0.010-0.095-0.028-0.138l0.001 0.003c-0.024-0.057-0.060-0.106-0.105-0.147l-0-0 0.601-1.095c0.014 0.001 0.031 0.002 0.048 0.002 0.053 0 0.104-0.008 0.151-0.023l-0.003 0.001c0.055-0.018 0.102-0.043 0.143-0.075l-0.001 0c0.232 0.097 0.422 0.177 0.559 0.244 0.205 0.101 0.278 0.169 0.3 0.243 0.022 0.073-0.002 0.215-0.118 0.463-0.087 0.185-0.23 0.447-0.399 0.755-0.003-0-0.006-0-0.010-0-0.057 0-0.111 0.009-0.161 0.026l0.003-0.001c-0.174 0.057-0.296 0.203-0.296 0.375 0 0.048 0.010 0.095 0.027 0.138l-0.001-0.003c0.064 0.155 0.229 0.264 0.422 0.264 0.054 0 0.107-0.009 0.155-0.024l-0.003 0.001c0.174-0.057 0.296-0.203 0.296-0.374 0-0.048-0.010-0.095-0.028-0.138l0.001 0.003c-0.021-0.052-0.052-0.097-0.092-0.135l0 0c0.167-0.305 0.311-0.568 0.404-0.765 0.125-0.268 0.191-0.467 0.133-0.66s-0.233-0.318-0.467-0.433c-0.153-0.075-0.345-0.155-0.573-0.251 0.001-0.008 0.001-0.016 0.001-0.025 0-0.048-0.010-0.094-0.027-0.137l0.001 0.003c-0.022-0.054-0.055-0.101-0.097-0.139l0 0 0.352-0.642 1.949 0.842c0.352 0.153 0.497 0.527 0.327 0.84l-1.34 2.453c-0.171 0.313-0.592 0.442-0.944 0.29l-2.758-1.192c-0.352-0.152-0.498-0.527-0.327-0.84l1.34-2.453c0.117-0.215 0.353-0.343 0.603-0.353z"></path>
</svg>
