<!-- Generated by IcoMoon.io -->
<svg version="1.1" xmlns="http://www.w3.org/2000/svg" width="16" height="16" viewBox="0 0 16 16">
<title>gitlab</title>
<path fill="#fca121" d="M3.229 0.603c-0.295 0-0.546 0.191-0.635 0.457l-0.001 0.005-1.687 5.189c0 0.005-0.003 0.008-0.005 0.013l-0.855 2.624c-0.030 0.088-0.047 0.19-0.047 0.296 0 0.317 0.154 0.599 0.392 0.773l0.003 0.002 7.381 5.363c0.061 0.045 0.138 0.072 0.222 0.072 0.085 0 0.163-0.028 0.226-0.075l-0.001 0.001 7.383-5.36c0.241-0.176 0.396-0.458 0.396-0.775 0-0.107-0.017-0.209-0.050-0.305l0.002 0.007-0.84-2.578c-0.005-0.026-0.012-0.050-0.022-0.072l0.001 0.002-1.684-5.183c-0.092-0.267-0.341-0.456-0.634-0.456-0.001 0-0.003 0-0.004 0h0c-0.002-0-0.003-0-0.005-0-0.293 0-0.541 0.191-0.626 0.455l-0.001 0.005-1.604 4.939h-5.065l-1.607-4.939c-0.087-0.269-0.335-0.46-0.627-0.46-0 0-0.001 0-0.001 0h0zM3.225 1.549l1.449 4.452h-2.892zM12.777 1.549l1.445 4.452h-2.895zM5.715 6.756h4.575l-1.433 4.412-0.856 2.627zM2.038 6.759h2.881l2.057 6.333zM11.083 6.759h2.884l-4.941 6.335 1.973-6.072zM1.4 7.175l4.652 5.965-5.212-3.788c-0.051-0.037-0.084-0.097-0.084-0.165 0-0.022 0.004-0.044 0.010-0.064l-0 0.001zM14.6 7.175l0.635 1.948c0.006 0.019 0.010 0.041 0.010 0.063 0 0.067-0.033 0.127-0.083 0.164l-0.001 0v0.001l-5.213 3.787 0.017-0.023z"></path>
</svg>
