<!-- Generated by IcoMoon.io -->
<svg version="1.1" xmlns="http://www.w3.org/2000/svg" width="16" height="16" viewBox="0 0 16 16">
<title>glassdoor</title>
<path fill="#0caa41" d="M11.429 13.715h-9.143c0 1.262 1.022 2.285 2.284 2.285h6.857c1.262 0 2.285-1.023 2.285-2.285v-9.387c0-0.047-0.036-0.083-0.083-0.083h-2.12c-0.045 0-0.082 0.037-0.082 0.084zM11.429 0c1.261 0 2.285 1.023 2.285 2.287h-9.142v9.385c0 0.045-0.037 0.083-0.083 0.083h-2.119c-0.047 0-0.083-0.038-0.083-0.083v-9.387c0.001-1.261 1.023-2.285 2.285-2.285h6.858z"></path>
</svg>
