<!-- Generated by IcoMoon.io -->
<svg version="1.1" xmlns="http://www.w3.org/2000/svg" width="16" height="16" viewBox="0 0 16 16">
<title>glitch</title>
<path fill="#33f" d="M15.867 8.38c-0.193-0.1-2.267 0.933-2.713 0.847-1.12-0.2-0.913-0.333-2.42-0.68-0.6-0.133-0.513-0.053-0.647-0.153-0.087-0.067-0.173-0.080-0.3-0.2 2-0.36 3.013-0.847 3.367-0.92 0.38-0.073 2.58 0.98 2.713 0.733s-0.48-0.787-0.2-1.513c0.293-0.733-0.347-1.213 0.007-1.793 0.36-0.58 0.287-1.467 0.2-1.513-0.2-0.1-2.267 0.933-2.72 0.847-1.12-0.207-0.913-0.34-2.42-0.68-0.6-0.133-0.513-0.060-0.647-0.16s-0.26-0.067-0.52-0.487-3.253-1.067-3.453-1.067c-0.413 0-1.187 1.067-1.187 1.067s-0.3 0-1.2 0.047-1.687 0.447-2.747 1.28c-1.067 0.833-0.913 1.673-0.913 1.673s0.987 0.333 0.987 0.52c0 0.18-0.867 0.4-0.867 0.4 0.56 0.707 2.293 1.373 2.733 1.373h0.347c-0.72 0.14-1.413 0.533-2.293 1.22-1.060 0.847-0.907 1.687-0.907 1.687s0.987 0.333 0.987 0.513-0.867 0.4-0.867 0.4c0.56 0.713 2.293 1.38 2.733 1.38 0.42 0 0.713 0.013 1.247-0.087 0.040 0.087 0.453 0.967 1.3 1.147 0.893 0.193 1.387 0.040 1.387 0.040s0.047-0.393-0.16-0.787c0.773 0.080 1.653 0.1 2.513-0.033 2.38-0.36 3.56-0.933 3.947-1.007 0.38-0.080 2.58 0.973 2.713 0.733 0.133-0.253-0.48-0.793-0.193-1.52 0.287-0.733-0.353-1.207 0-1.793 0.36-0.58 0.287-1.467 0.193-1.513zM2.307 5.913c-0.053-0.001-0.103-0.008-0.151-0.021l0.004 0.001h-0.027c-0.023-0.011-0.036-0.018-0.050-0.025l0.010 0.005-0.027-0.007-0.040-0.020h-0.027c-0.013-0.007-0.024-0.014-0.035-0.021l0.001 0.001-0.033-0.027-0.033-0.020-0.027-0.020c-0.013-0.010-0.024-0.018-0.034-0.028l0.001 0.001-0.020-0.020c-0.011-0.012-0.022-0.025-0.032-0.038l-0.001-0.002-0.013-0.013c-0.015-0.016-0.030-0.033-0.045-0.051l-0.002-0.002-0.013-0.013c-0.008-0.013-0.016-0.031-0.025-0.049l-0.002-0.005-0.040-0.060c-0.005-0.015-0.010-0.026-0.015-0.037l0.001 0.003-0.013-0.040-0.013-0.027c-0.002-0.009-0.004-0.025-0.006-0.041l-0.001-0.005-0.007-0.033c-0.004-0.010-0.008-0.023-0.012-0.036l-0.001-0.004v-0.033c0.047 0.287 0.28 0.507 0.553 0.507 0.313 0 0.573-0.287 0.573-0.647s-0.253-0.653-0.573-0.653c-0.313 0-0.567 0.287-0.573 0.64 0-0.467 0.333-0.847 0.747-0.847s0.74 0.373 0.74 0.84-0.333 0.847-0.74 0.847zM1.807 5.28c0-0.1 0.067-0.18 0.16-0.18s0.153 0.080 0.153 0.18-0.067 0.173-0.153 0.173-0.16-0.080-0.16-0.173zM2.307 11.107c-0.011 0.001-0.024 0.001-0.037 0.001s-0.026-0-0.038-0.001l0.002 0-0.027-0.007c-0.019-0.002-0.035-0.004-0.050-0.007l0.004 0.001-0.027-0.007-0.040-0.013-0.027-0.013c-0.016-0.004-0.030-0.009-0.043-0.014l0.003 0.001-0.027-0.013c-0.014-0.007-0.025-0.014-0.035-0.021l0.002 0.001-0.027-0.013-0.033-0.027-0.027-0.020c-0.013-0.009-0.023-0.018-0.034-0.027l0.001 0-0.020-0.020c-0.016-0.015-0.032-0.030-0.046-0.046l-0-0.001c-0.015-0.018-0.030-0.037-0.045-0.057l-0.002-0.003-0.013-0.013c-0.008-0.012-0.016-0.027-0.025-0.043l-0.002-0.004-0.013-0.027c-0.007-0.010-0.016-0.023-0.025-0.036l-0.002-0.004-0.013-0.027-0.013-0.047-0.013-0.027c0.002 0.008-0.003-0.007-0.008-0.023l-0.006-0.024-0.007-0.027c-0.004-0.012-0.009-0.027-0.013-0.043l-0.001-0.003v-0.033c0.047 0.287 0.28 0.507 0.553 0.507 0.313 0 0.573-0.287 0.573-0.647s-0.253-0.647-0.573-0.647c-0.313 0-0.567 0.28-0.573 0.633 0-0.467 0.333-0.847 0.747-0.847s0.74 0.38 0.74 0.84-0.333 0.847-0.74 0.847zM1.807 10.473c0-0.093 0.067-0.173 0.16-0.173s0.153 0.080 0.153 0.173-0.067 0.173-0.153 0.173-0.16-0.073-0.16-0.173zM5.193 6.807v-0.020l0.020-0.040 0.040-0.147c0.069-0.204 0.151-0.501 0.223-0.802l0.017-0.085c0.080-0.353 0.113-0.64 0.1-0.8-0.007-0.071-0.017-0.132-0.029-0.193l0.002 0.013c-0.038-0.206-0.084-0.383-0.141-0.554l0.008 0.028c-0.051-0.15-0.094-0.26-0.14-0.368l0.013 0.035-0.040-0.087-0.013-0.033c-0.060-0.133 0.027-0.287 0.16-0.28h0.093l0.267 0.020 1.053 0.053 0.573 0.040c1.947 0.131 3.747 0.639 5.368 1.45l-0.081-0.037 0.447 0.2c0.087 0.040 0.133 0.153 0.093 0.253-0.033 0.093-0.133 0.147-0.22 0.107l-0.447-0.2c-1.509-0.761-3.272-1.261-5.137-1.391l-0.043-0.002-0.573-0.033-0.253-0.013-0.8-0.047h-0.080c0.082 0.213 0.16 0.474 0.219 0.741l0.007 0.039 0.033 0.213c0.020 0.227-0.020 0.54-0.113 0.94l-0.1 0.413c-0.084 0.322-0.15 0.542-0.222 0.76l0.028-0.1-0.013 0.040c-0 0.003-0 0.006-0 0.010s0 0.007 0 0.010l-0-0c-0.033 0.093-0.133 0.147-0.22 0.107-0.087-0.033-0.133-0.147-0.1-0.24zM4.193 3.633c0.028-0.032 0.069-0.052 0.115-0.052 0.052 0 0.097 0.025 0.125 0.064l0 0c0.098 0.121 0.19 0.256 0.272 0.398l0.008 0.015c0.147 0.267 0.247 0.533 0.273 0.807 0.013 0.153 0 0.327-0.027 0.513-0.037 0.215-0.083 0.402-0.141 0.583l0.008-0.029c-0.061 0.195-0.117 0.347-0.18 0.496l0.014-0.036c-0.040 0.093-0.14 0.133-0.227 0.087s-0.12-0.16-0.080-0.26l0.013-0.027 0.033-0.087c0.027-0.063 0.063-0.163 0.096-0.263l0.010-0.037c0.046-0.138 0.087-0.306 0.117-0.479l0.003-0.021c0.027-0.153 0.033-0.287 0.027-0.4-0.035-0.243-0.114-0.461-0.231-0.654l0.004 0.008c-0.072-0.128-0.145-0.236-0.225-0.34l0.005 0.006-0.020-0.020c-0.029-0.036-0.046-0.082-0.046-0.133 0-0.054 0.020-0.103 0.053-0.141l-0 0zM4.96 10.567c-0.036 0.22-0.082 0.411-0.141 0.596l0.008-0.029c-0.061 0.192-0.118 0.342-0.18 0.489l0.014-0.036c-0.040 0.093-0.14 0.133-0.227 0.087s-0.12-0.16-0.080-0.26l0.013-0.027 0.033-0.087c0.027-0.063 0.063-0.163 0.096-0.263l0.010-0.037c0.046-0.138 0.087-0.306 0.117-0.479l0.003-0.021c0.027-0.153 0.033-0.287 0.020-0.4-0.033-0.24-0.111-0.456-0.224-0.648l0.004 0.008c-0.072-0.128-0.145-0.236-0.225-0.34l0.005 0.006-0.020-0.027c-0.025-0.035-0.040-0.078-0.040-0.125 0-0.054 0.020-0.104 0.054-0.142l-0 0c0.028-0.033 0.070-0.054 0.117-0.054s0.088 0.021 0.117 0.054l0 0c0.098 0.123 0.19 0.26 0.272 0.404l0.008 0.016c0.147 0.267 0.247 0.54 0.273 0.807 0.013 0.153 0 0.327-0.027 0.507zM13.227 10.647c-0.033 0.093-0.133 0.147-0.22 0.107l-0.447-0.2c-1.509-0.761-3.272-1.261-5.137-1.391l-0.043-0.002-0.567-0.033h-0.033l-0.227-0.013c1.271 0.053 0.965 0.036 0.659 0.020l-1.539-0.066 0.020 0.040c0.108 0.276 0.192 0.597 0.238 0.931l0.002 0.022c0.020 0.227-0.020 0.54-0.113 0.94l-0.1 0.413c-0.084 0.324-0.15 0.547-0.222 0.767l0.028-0.1-0.013 0.033c-0 0.003-0 0.006-0 0.010s0 0.007 0 0.010l-0-0c-0.033 0.1-0.133 0.147-0.22 0.113-0.087-0.040-0.133-0.153-0.1-0.253v-0.013l0.020-0.040 0.040-0.147c0.069-0.204 0.151-0.501 0.223-0.802l0.017-0.085c0.080-0.353 0.113-0.64 0.1-0.8-0.007-0.071-0.017-0.132-0.029-0.193l0.002 0.013c-0.038-0.206-0.084-0.383-0.141-0.555l0.008 0.028c-0.051-0.147-0.094-0.255-0.14-0.361l0.013 0.035-0.027-0.060-0.027-0.067c-0.060-0.133 0.027-0.287 0.16-0.28h0.093l0.267 0.020 1.060 0.053 0.567 0.040c1.947 0.131 3.747 0.638 5.368 1.45l-0.081-0.037 0.447 0.2c0.087 0.040 0.133 0.153 0.093 0.253z"></path>
</svg>
