<!-- Generated by IcoMoon.io -->
<svg version="1.1" xmlns="http://www.w3.org/2000/svg" width="16" height="16" viewBox="0 0 16 16">
<title>gnome</title>
<path fill="#4a86cf" d="M11.91 0c-2.533 0-3.009 3.609-1.583 3.609s4.117-3.609 1.583-3.609zM7.995 0.443c-0.040 0-0.083 0.002-0.127 0.008-1.427 0.185-0.923 2.665-0.164 2.711 0.735 0.045 1.539-2.714 0.291-2.719zM5.525 1.423c-0.075 0.002-0.158 0.021-0.247 0.058-1.147 0.473-0.175 2.424 0.467 2.293 0.593-0.121 0.669-2.371-0.22-2.351zM3.698 2.953c-0.122 0-0.234 0.041-0.323 0.11l0.001-0.001c-0.917 0.633 0.308 2.166 0.848 1.928 0.472-0.208 0.171-2.014-0.526-2.037zM8.789 4.125c-1.947 0.017-4.424 1.004-4.856 2.936-0.479 2.145 1.973 5.12 4.531 5.12 1.259 0 2.711-1.137 2.982-2.577 0.207-1.098-2.441-0.657-2.347 0.069 0.114 0.871-0.639 1.3-1.376 0.738-2.347-1.787 3.887-2.677 3.475-5.119-0.133-0.791-1.163-1.179-2.41-1.167zM3.512 13.46c-0.357 0-0.639 0.113-0.844 0.34s-0.309 0.537-0.309 0.931c0 0.39 0.102 0.699 0.303 0.927s0.475 0.341 0.82 0.341c0.172 0 0.582 0.003 0.859-0.229v-1.177h-0.832v0.423h0.429v0.423c-0.065 0.053-0.188 0.103-0.387 0.103-0.195 0-0.363-0.071-0.473-0.212s-0.167-0.34-0.167-0.599c0-0.261 0.058-0.462 0.173-0.602s0.279-0.212 0.492-0.212c0.201 0 0.389 0.056 0.549 0.153l-0.005-0.003 0.144-0.425c-0.103-0.057-0.222-0.103-0.348-0.135l-0.010-0.002c-0.117-0.029-0.251-0.046-0.389-0.046-0.002 0-0.004 0-0.006 0h0zM7.887 13.46c-0.313 0.009-0.561 0.121-0.743 0.337-0.189 0.225-0.284 0.537-0.284 0.933s0.095 0.707 0.284 0.931c0.189 0.225 0.45 0.337 0.783 0.337s0.593-0.112 0.783-0.337c0.189-0.225 0.282-0.535 0.282-0.931 0-0.397-0.093-0.709-0.283-0.933s-0.449-0.338-0.782-0.338zM4.707 13.505v2.447h0.455v-1.47l1.065 1.47h0.337v-2.447h-0.455v1.471l-1.065-1.471zM9.445 13.505l-0.259 2.447h0.507l0.156-1.582 0.477 1.589h0.339l0.478-1.537 0.156 1.53h0.505l-0.26-2.447h-0.575l-0.475 1.527-0.471-1.527zM12.168 13.505v2.447h1.473v-0.477h-0.939v-0.56h0.698v-0.426h-0.698v-0.507h0.907v-0.477zM7.91 13.917h0.016c0.163 0 0.29 0.071 0.38 0.213s0.134 0.343 0.134 0.6-0.044 0.456-0.134 0.598c-0.075 0.129-0.212 0.213-0.369 0.213-0.004 0-0.008-0-0.011-0l0.001 0c-0.003 0-0.007 0-0.011 0-0.157 0-0.294-0.085-0.367-0.211l-0.001-0.002c-0.089-0.142-0.135-0.341-0.135-0.597 0-0.258 0.046-0.459 0.135-0.6 0.073-0.127 0.208-0.212 0.363-0.214h0z"></path>
</svg>
