<!-- Generated by IcoMoon.io -->
<svg version="1.1" xmlns="http://www.w3.org/2000/svg" width="16" height="16" viewBox="0 0 16 16">
<title>gnu</title>
<path fill="#a42e2b" d="M3.381 9.288c-0.147 0.008-0.279 0.094-0.346 0.225-0.077 0.141-0.259 0.161-0.345 0.134-0.14-0.047-0.321-0.079-0.496 0.045s-0.364 0.030-0.33-0.198c0.033-0.227 0.115-0.43 0.333-0.553 0.476-0.273 0.145-0.463 0.405-0.739 0.263-0.275 0.205-0.358 0.195-0.733-0.884-0.133-1.385-0.388-1.944-1.087-0.559-0.698-0.777-1.273-0.834-2.149-0.059-0.878-0.007-1.446 0.371-2.174 0.379-0.725 0.779-1.075 1.468-1.439 0.69-0.365 1.367-0.451 1.993-0.441s1.043 0.055 1.396 0.258c0.354 0.202 0.677 0.456 0.883 0.457 0.16 0.010 0.318-0.035 0.449-0.128 0.027 0.68-0.585 0.739-1.132 0.753s-0.883-0.211-1.387-0.128c-0.503 0.085-1.328 0.314-1.73 1.013s-0.416 0.947-0.382 1.534c0.033 0.585 0.537 1.023 0.823 1.028s0.349-0.078 0.599-0.24c0.249-0.164 1.523-1.74 1.956-2.093 0.435-0.354 0.864-0.464 1.327-0.47s0.581 0.010 0.955 0.164c0.373 0.153 0.603 0.435 0.904 0.607 0.153-0.090 0.25-0.226 0.389-0.33 0.507-0.368 0.768-0.468 1.369-0.41 0.345 0.035 0.779 0.231 1.040 0.457 0.462 0.403 0.844 0.961 1.152 1.386 0.24 0.331 0.523 0.727 0.928 0.851 0.439 0.134 0.771-0.435 0.82-0.753 0.029-0.18 0.065-0.337 0.065-0.534 0-0.198-0.020-0.437-0.077-0.643-0.060-0.205-0.148-0.399-0.261-0.579-0.172-0.277-0.453-0.567-0.744-0.715-0.164-0.083-0.551-0.235-0.794-0.241-0.299-0.007-0.526 0.094-0.801 0.113-0.333 0.023-0.931 0.097-1.191-0.16-0.167-0.164-0.189-0.274-0.216-0.487 0.073 0.061 0.176 0.1 0.267 0.109 0.209 0.017 0.403-0.153 0.573-0.252 0.14-0.082 0.336-0.227 0.519-0.3 0.469-0.19 1.045-0.185 1.54-0.133 0.397 0.040 0.912 0.216 1.26 0.414 0.351 0.197 0.687 0.531 0.933 0.845 0.311 0.396 0.481 0.736 0.593 1.229 0.144 0.63 0.185 1.577 0.010 2.199-0.137 0.489-0.591 1.241-0.978 1.609-0.382 0.365-0.823 0.541-1.324 0.637 0.020 0.099 0.022 0.194 0.047 0.277 0.037 0.119 0.109 0.25 0.253 0.209 0.057-0.017 0.089-0.031 0.164 0.035 0.077 0.067 0.037 0.323-0.177 0.44-0.109 0.057-0.223 0.070-0.397 0.075-0.213 0.008-0.426-0.003-0.635-0.031-0.189-0.031-0.301-0.182-0.51-0.206-0.323-0.037-0.57-0.27-0.83-0.436-0.108-0.069-0.145-0.069-0.207-0.105 0.034 0.103 0.079 0.209 0.101 0.31 0.023 0.097 0.013 0.19 0.025 0.269 0.013 0.079 0.035 0.141 0.047 0.206 0.051 0.045 0.069 0.115 0.155 0.138s0.223-0.012 0.312-0.025c0.090-0.012 0.149-0.060 0.219-0.047s0.136 0.064 0.195 0.111 0.109 0.053 0.156 0.169c0.047 0.119 0.090 0.358 0.097 0.518 0.006 0.16-0.012 0.303-0.059 0.432-0.047 0.126-0.090 0.182-0.218 0.309s-0.337 0.31-0.546 0.44c0.039 0.056 0.055 0.108 0.115 0.169 0.060 0.063 0.185 0.131 0.239 0.197 0.057 0.065 0.085 0.112 0.085 0.185 0.008 0.087-0.014 0.175-0.062 0.249-0.149 0.199-0.322 0.235-0.535 0.328 0.036 0.223 0.065 0.381 0.013 0.604-0.020 0.091-0.068 0.297-0.18 0.35s-0.328 0.027-0.465 0.049c-0.137 0.021-0.213 0.042-0.319 0.063-0.065 0.094-0.161 0.198-0.194 0.281-0.033 0.085-0.023 0.115 0.004 0.199 0.028 0.086 0.123 0.211 0.15 0.313 0.026 0.1 0.033 0.207 0.007 0.309-0.025 0.1-0.078 0.191-0.153 0.264-0.086 0.090-0.255 0.16-0.339 0.231-0.083 0.074-0.168 0.082-0.145 0.202 0.031 0.165 0.273 0.431 0.447 0.496 0.123 0.037 0.255 0.026 0.371-0.027-0.009 0.139-0.13 0.236-0.21 0.329 0.215-0.063 0.424-0.18 0.569-0.336-0.045 0.135-0.2 0.353-0.43 0.544s-0.229 0.153-0.345 0.229c0.209 0.041 0.404 0.030 0.567 0.001-0.131 0.074-0.277 0.121-0.427 0.138-0.193 0.021-0.312 0.005-0.486-0.037s-0.333-0.201-0.543-0.31c0.020 0.079 0.035 0.173 0.123 0.254 0.091 0.079 0.223 0.121 0.366 0.189-0.181-0.019-0.372-0.025-0.549-0.064-0.133-0.031-0.221-0.061-0.319-0.109-0.096-0.047-0.17-0.117-0.256-0.176 0.041 0.078 0.053 0.171 0.123 0.235 0.069 0.065 0.183 0.090 0.275 0.133-0.095-0.003-0.187 0.019-0.287-0.007-0.107-0.025-0.208-0.073-0.295-0.139-0.107-0.079-0.207-0.167-0.297-0.264-0.088-0.097-0.197-0.221-0.23-0.309-0.032-0.089 0.020-0.15 0.029-0.225-0.060 0.041-0.134 0.063-0.181 0.12-0.047 0.059-0.088 0.111-0.067 0.212 0.020 0.1 0.115 0.225 0.181 0.337-0.197-0.161-0.307-0.224-0.354-0.417-0.043-0.182 0.069-0.347 0.155-0.483 0.043-0.069 0.108-0.133 0.147-0.199-0.090-0.086-0.19-0.16-0.267-0.259-0.075-0.1-0.108-0.235-0.185-0.328-0.078-0.095-0.183-0.155-0.273-0.232 0.079 0.171 0.211 0.381 0.239 0.514 0.029 0.133-0.032 0.215-0.079 0.287s-0.123 0.089-0.195 0.131c-0.073 0.045-0.185 0.011-0.228 0.075s-0.055 0.164-0.014 0.229l0.171 0.265c-0.084-0.048-0.157-0.112-0.218-0.187-0.049-0.064-0.124-0.125-0.133-0.211-0.011-0.087-0.015-0.164 0.042-0.242 0.056-0.078 0.212-0.104 0.281-0.164s0.108-0.099 0.104-0.176c-0.004-0.078-0.079-0.133-0.145-0.182-0.199-0.15-0.453-0.287-0.623-0.466-0.073-0.070-0.127-0.156-0.159-0.253-0.020-0.070 0.001-0.125 0.047-0.209 0.048-0.087 0.21-0.203 0.231-0.295 0.019-0.094-0.063-0.115-0.137-0.147s-0.215 0.017-0.283-0.041 0.020-0.177-0.057-0.243-0.254-0.030-0.346-0.1c-0.081-0.068-0.137-0.16-0.16-0.263-0.031-0.094-0.035-0.194-0.014-0.291 0.021-0.075 0.085-0.089 0.125-0.127s0.072-0.069 0.020-0.127c-0.049-0.059-0.22 0.003-0.317-0.070-0.099-0.075-0.040-0.254-0.109-0.329-0.069-0.073-0.191-0.044-0.257-0.069-0.065-0.023-0.090 0.060-0.129-0.073-0.041-0.133-0.042-0.531-0.095-0.68s-0.159-0.011-0.207-0.157c-0.050-0.147-0.003-0.383-0.025-0.605l-0.1-0.607c-0.347 0.235-0.578 0.309-0.952 0.374-0.031 0.915-0.117 1.455 0.194 2.47 0.31 1.014 0.939 1.613 1.787 2.471-1.12-0.837-1.653-1.519-1.987-2.392-0.334-0.874-0.271-1.605-0.237-2.444zM9.327 8.919c0.086 0.004 0.19 0.026 0.251 0.065 0.061 0.041 0.125 0.071 0.18 0.126 0.137 0.141 0.24 0.309 0.285 0.501 0.029 0.124 0.033 0.281 0.043 0.426-0.041-0.133-0.069-0.272-0.128-0.392-0.093-0.19-0.251-0.374-0.448-0.459-0.044-0.021-0.094-0.027-0.143-0.018 0.015 0.027 0.042 0.051 0.043 0.089 0 0.039-0.008 0.116-0.075 0.149-0.107 0.052-0.226 0.014-0.309-0.057-0.085-0.078-0.111-0.201-0.068-0.306 0.053-0.129 0.25-0.129 0.369-0.124zM8.247 8.738c0.011-0.221 0.090-0.406 0.289-0.514 0.125-0.071 0.261-0.12 0.403-0.143 0.138-0.017 0.475-0.005 0.679 0.087 0.155 0.070 0.261 0.181 0.398 0.263 0.137 0.081 0.234 0.134 0.364 0.225 0.2 0.141 0.317 0.293 0.455 0.384 0.067 0.044 0.16 0.038 0.249 0.065-0.069 0.019-0.159 0.043-0.233 0.019-0.106-0.043-0.205-0.101-0.292-0.176-0.103-0.091-0.213-0.172-0.331-0.239-0.083-0.048-0.219-0.105-0.311-0.164-0.090-0.060-0.247-0.189-0.335-0.233-0.138-0.057-0.285-0.086-0.433-0.083-0.171 0.005-0.417 0.033-0.548 0.152-0.131 0.12-0.181 0.224-0.151 0.377 0.049-0.056 0.082-0.127 0.13-0.169 0.103-0.089 0.219-0.093 0.347-0.075 0.143 0.018 0.215 0.1 0.262 0.236-0.031-0.022-0.090-0.073-0.136-0.090-0.096-0.037-0.204-0.026-0.292 0.029-0.119 0.065-0.087 0.16-0.103 0.264-0.009 0.051-0.027 0.089-0.041 0.133-0.045-0.011-0.086-0.033-0.12-0.065 0.001 0.051-0.007 0.094 0.004 0.149 0.009 0.056 0.037 0.123 0.056 0.182-0.084-0.083-0.171-0.16-0.223-0.268-0.057-0.105-0.087-0.225-0.086-0.345zM8.393 7.138c0.061-0.091 0.079-0.23 0.116-0.345-0.014 0.145 0.014 0.302-0.055 0.406-0.070 0.105-0.195 0.086-0.295 0.117 0.079-0.060 0.172-0.087 0.235-0.179zM6.921 9.273c0.079-0.064 0.292-0.013 0.451-0.001l-0.343 0.089c-0.011 0.039-0.007 0.082-0.032 0.116-0.027 0.034-0.076 0.045-0.114 0.069 0.004-0.103-0.041-0.209 0.038-0.273zM8.043 4.839c0.095 0.050 0.214 0.119 0.299 0.12 0.083 0.003 0.105-0.053 0.155-0.087 0.077 0.253 0.167 0.531 0.299 0.761 0.055 0.097 0.091 0.053 0.133 0.149s0.060 0.293 0.1 0.417c0.039 0.125 0.091 0.214 0.138 0.322-0.116-0.167-0.267-0.377-0.333-0.515s-0.023-0.15-0.077-0.281c-0.052-0.132-0.159-0.336-0.238-0.504-0.057 0.007-0.127 0.017-0.17 0.004s-0.036-0.061-0.075-0.089c-0.039-0.030-0.105-0.018-0.16-0.067-0.054-0.047-0.067-0.145-0.071-0.231zM7.532 6.089c0.090-0.008 0.199 0.015 0.283 0.011s0.144-0.026 0.217-0.040c-0.014-0.126-0.001-0.358-0.117-0.443-0.077-0.053-0.385-0.013-0.467 0.004-0.186 0.041-0.403 0.151-0.582 0.22 0.172-0.12 0.321-0.231 0.527-0.293 0.125-0.037 0.414-0.086 0.542-0.051 0.059 0.015 0.070 0.041 0.106 0.090 0.122 0.17 0.122 0.317 0.153 0.515 0.031 0.047 0.064 0.079 0.090 0.129 0.025 0.062 0.041 0.127 0.045 0.193-0.032-0.046-0.012-0.103-0.099-0.137-0.090-0.035-0.225-0.003-0.345 0.009 0.087 0.064 0.13 0.124 0.134 0.256 0.004 0.155-0.127 0.267-0.265 0.278-0.19 0.015-0.289-0.027-0.366-0.19-0.034-0.071-0.011-0.157-0.012-0.227-0.231 0.016-0.227 0.009-0.395 0.148 0.093 0.134 0.149 0.21 0.301 0.291 0.083 0.044 0.18 0.089 0.283 0.107 0.105 0.018 0.277 0.035 0.387 0.018 0.097-0.012 0.185-0.055 0.253-0.125 0.082-0.075 0.090-0.183 0.121-0.269-0.003 0.085-0.018 0.168-0.047 0.247-0.093 0.18-0.253 0.235-0.445 0.235-0.183 0-0.411-0.042-0.582-0.113-0.137-0.057-0.363-0.217-0.417-0.356-0.037-0.095-0.008-0.212-0.012-0.318 0.19-0.126 0.236-0.095 0.459-0.132 0.094-0.017 0.159-0.051 0.249-0.059zM6.429 5.236c0.005-0.076 0.014-0.074 0.020-0.111-0.173-0.046-0.241 0.066-0.343 0.274-0.038 0.077 0 0.124-0.041 0.175-0.039 0.051-0.106 0.043-0.171 0.093s-0.131 0.143-0.193 0.195c-0.126 0.104-0.298 0.167-0.445 0.239 0.1-0.074 0.295-0.186 0.359-0.293 0.033-0.057 0.028-0.165 0.080-0.217 0.052-0.050 0.070-0.087 0.137-0.099s0.041-0.091 0.062-0.153c0.021-0.061 0.065-0.105 0.11-0.167s0.104-0.153 0.194-0.188c0.090-0.033 0.231 0.003 0.3-0.015s0.029-0.070 0.079-0.1 0.146-0.015 0.213-0.048c0.117-0.056 0.173-0.151 0.245-0.251 0.010 0.217 0.007 0.374-0.071 0.579-0.087 0.231-0.177 0.367-0.427 0.509-0.085 0.048-0.171 0.065-0.243 0.091 0.041-0.057 0.101-0.082 0.125-0.171 0.023-0.091 0.006-0.267 0.011-0.341zM10.468 6.297c-0.118 0.009-0.146-0.008-0.242 0.061l0.155 0.24c-0.004-0.158 0.012-0.19 0.089-0.301zM10.158 6.183c0.164-0.069 0.307-0.126 0.487-0.138 0.071-0.005 0.183 0.006 0.255 0.011 0.063-0.091 0.141-0.163 0.171-0.267 0.019-0.069 0.010-0.389-0.025-0.473-0.097-0.241-0.193-0.251-0.33-0.39-0.097-0.099-0.101-0.253-0.131-0.425-0.010-0.063-0.041-0.142-0.056-0.207-0.189-0.031-0.38-0.041-0.571-0.030 0.099-0.095 0.194-0.181 0.223-0.324 0.030-0.153 0.003-0.311-0.075-0.445-0.081-0.127-0.21-0.24-0.329-0.345-0.119-0.103-0.291-0.189-0.403-0.275 0.147-0.051 0.296-0.129 0.44-0.157 0.374-0.072 0.695 0.038 1.056 0.256 0.21 0.127 0.382 0.247 0.601 0.477 0.219 0.229 0.49 0.65 0.703 0.899 0.211 0.25 0.383 0.447 0.569 0.595 0.184 0.151 0.352 0.193 0.528 0.287l0.275 0.292 0.223-0.275 0.357 0.040 0.074-0.401 0.327-0.091-0.053-0.541 0.236-0.168-0.178-0.336 0.18-0.369-0.235-0.42 0.090-0.405-0.271-0.232-0.035-0.431-0.379-0.145-0.151-0.374-0.427-0.005-0.21-0.278-0.287 0.020-0.319-0.035-0.18-0.133-0.264 0.173-0.318-0.165-0.631 0.239 0.412-0.358 0.427-0.068 0.327-0.084 0.442 0.145 0.388-0.098 0.375 0.221 0.397-0.021 0.195 0.35 0.394 0.045 0.213 0.387 0.248 0.137 0.067 0.497 0.222 0.21-0.099 0.435 0.26 0.329-0.242 0.353 0.26 0.221-0.333 0.295 0.337 0.353-0.409 0.133 0.265 0.377-0.334 0.059 0.219 0.415-0.375-0.005 0.19 0.311-0.414-0.049 0.099 0.448-0.312-0.274-0.106 0.543-0.215-0.39-0.117 0.487-0.265-0.358 0.007 0.51-0.293-0.459c0.061 0.261 0.049 0.545 0.219 0.79 0.529-0.071 0.875-0.205 1.281-0.595 0.368-0.355 0.809-1.096 0.929-1.567 0.136-0.535 0.14-1.521 0.006-2.067-0.129-0.525-0.297-0.775-0.597-1.205-0.287-0.303-0.569-0.626-0.933-0.843-0.535-0.32-1.219-0.405-1.828-0.397-0.262 0.001-0.521 0.049-0.765 0.143-0.351 0.127-0.633 0.407-0.991 0.545-0.117 0.045-0.21 0.045-0.303-0.003 0.090 0.18 0.187 0.261 0.413 0.326 0.163 0.047 0.55 0.017 0.818-0.007 0.287-0.026 0.436-0.111 0.826-0.107 0.38 0.007 0.683 0.15 0.848 0.245 0.341 0.195 0.585 0.409 0.797 0.753 0.117 0.188 0.199 0.401 0.255 0.617s0.083 0.459 0.087 0.671-0.013 0.401-0.065 0.592c-0.121 0.446-0.389 0.9-0.938 0.83-0.336-0.042-0.842-0.673-1.012-0.905-0.343-0.467-0.695-0.985-1.125-1.373-0.271-0.244-0.613-0.396-0.975-0.433-0.661-0.060-0.858 0.065-1.355 0.477 0.101 0.031 0.199 0.049 0.303 0.097 0.231 0.104 0.441 0.238 0.625 0.41 0.193 0.18 0.28 0.295 0.287 0.553 0.005 0.173-0.136 0.31-0.266 0.433-0.079 0.076-0.183 0.145-0.248 0.205-0.085 0.078-0.19 0.164-0.083 0.288 0.040 0.047 0.11 0.082 0.168 0.126 0.094 0.069 0.050 0.325-0.072 0.395-0.151 0.091-0.342 0.074-0.475-0.041 0.164-0.023 0.268-0.045 0.263-0.18-0.001-0.077-0.099-0.142-0.198-0.186-0.233-0.107-0.409-0.090-0.642-0.258-0.235-0.169-0.239-0.262-0.303-0.527-0.113 0.011-0.218 0.014-0.37 0.065-0.151 0.049-0.319 0.169-0.456 0.199-0.347 0.074-0.415 0.052-0.605 0.004-0.334-0.088-0.767 0.060-1.2 0.199-0.071 0.022-0.362 0-0.557 0.068-0.352 0.139-0.679 0.331-0.971 0.569-0.371 0.313-0.857 1.246-1.132 2.318-0.030 0.327 0.063 0.545-0.142 0.705s-0.2 0.567-0.27 0.682c-0.069 0.113-0.15 0.063-0.3 0.224-0.149 0.16-0.225 0.134-0.221 0.436 0.13-0.083 0.318-0.182 0.483-0.19 0.147-0.004 0.148 0.189 0.523-0.182 0.201-0.199 0.587-0.206 0.855-0.293s0.75-0.268 1.234-0.808c0.483-0.54 0.714-1.109 0.808-1.931 0.013 0.143 0.040 0.309-0.022 0.71-0.063 0.403-0.197 0.853 0.086 1.396l0.177 0.336c-0.105-0.143-0.31-0.377-0.373-0.544l-0.141-0.385c-0.32 0.502-0.393 0.591-0.837 0.95-0.017 0.223-0.022 0.455 0.051 0.668s-0.043 0.459 0.013 0.6c0.055 0.139 0.182 0.060 0.224 0.202s-0.021 0.423 0.043 0.561c0.066 0.138 0.225 0.055 0.302 0.1 0.077 0.044 0.103 0.105 0.143 0.164 0.042 0.059-0.015 0.198 0.069 0.243 0.084 0.044 0.213 0.007 0.302 0.049 0.087 0.044 0.099 0.149 0.079 0.241-0.021 0.094-0.115 0.137-0.155 0.232-0.041 0.079-0.037 0.175 0.013 0.249 0.049 0.087 0.157 0.134 0.267 0.18 0.108 0.043 0.261 0.018 0.373 0.079 0.113 0.060 0.213 0.182 0.272 0.271 0.059 0.087 0.075 0.15 0.073 0.242-0.009 0.103-0.039 0.201-0.091 0.289-0.049 0.090-0.157 0.199 0.013 0.37 0.169 0.169 0.164 0.097 0.262 0.209-0.011-0.193-0.090-0.347-0.033-0.492 0.059-0.145 0.233-0.171 0.323-0.235 0.093-0.067 0.146-0.155 0.217-0.232 0 0.099 0.010 0.206-0.001 0.28-0.022 0.151-0.068 0.288 0.158 0.311 0.102 0.011 0.199-0.055 0.306-0.094-0.056 0.099-0.153 0.18-0.169 0.301-0.019 0.13 0.012 0.263 0.087 0.373 0.083 0.12 0.227 0.209 0.333 0.277 0.105 0.070 0.163 0.077 0.243 0.116 0.004 0.117-0.020 0.242-0.006 0.354 0.013 0.112 0.049 0.209 0.113 0.302 0.065 0.094 0.168 0.146 0.265 0.213-0.053-0.125-0.161-0.243-0.16-0.374s0.040-0.223 0.168-0.34c0.127-0.116 0.426-0.216 0.567-0.329 0.104-0.073 0.186-0.173 0.237-0.291 0.050-0.109 0.037-0.287 0.046-0.384 0.046 0.137 0.053 0.18 0.069 0.324 0.014 0.145-0.085 0.347-0.126 0.453 0.152-0.070 0.273-0.195 0.34-0.35 0.038 0.023 0.019 0.083 0.033 0.201 0.063-0.061 0.133-0.108 0.195-0.167s0.13-0.109 0.162-0.191c0.031-0.081 0.018-0.168-0.005-0.262-0.023-0.095-0.129-0.205-0.186-0.309-0.056-0.101 0.011-0.203 0.007-0.328-0.113-0.019-0.209-0.078-0.341-0.059-0.13 0.019-0.28 0.165-0.414 0.168-0.133 0-0.209-0.125-0.319-0.159-0.11-0.035-0.22-0.030-0.33-0.047 0.139-0.133 0.681-0.197 1.051-0.257 0.324-0.055 0.652-0.083 0.98-0.089 0.147-0.004 0.337 0.045 0.441 0.017 0.101-0.030 0.079-0.1 0.109-0.176 0.086-0.212 0.044-0.403-0.003-0.616-0.296-0.035-0.605-0.077-0.904-0.055-0.292 0.022-0.637 0.161-0.939 0.171-0.261 0.009-0.651-0.049-0.875-0.187-0.275-0.167-0.487-0.526-0.563-0.643-0.123-0.187-0.277-0.557-0.373-0.725-0.094-0.169-0.115-0.216-0.193-0.287s-0.185-0.075-0.279-0.113c0.107 0.009 0.224-0.023 0.321 0.031 0.147 0.085 0.31 0.432 0.401 0.585 0.097-0.324 0.074-0.451 0.353-0.634-0.224 0.253-0.231 0.444-0.285 0.741 0.187 0.306 0.447 0.795 0.787 0.931 0.124 0.049 0.335 0.079 0.467 0.097 0.414 0.051 0.813-0.079 1.219-0.18 0.297-0.074 0.598-0.044 0.959-0.023 0.122 0.008 0.411-0.067 0.471-0.189 0.035-0.071 0.028-0.155-0.016-0.22-0.047-0.070-0.17-0.105-0.237-0.169-0.066-0.065-0.104-0.141-0.157-0.209-0.233 0.045-0.469 0.070-0.708 0.077 0.147-0.060 0.289-0.094 0.44-0.153 0.158-0.065 0.309-0.146 0.451-0.239 0.124-0.082 0.202-0.129 0.292-0.223 0.089-0.095 0.203-0.193 0.269-0.309s0.076-0.246 0.080-0.389c0.003-0.143-0.003-0.344-0.059-0.461-0.056-0.115-0.162-0.15-0.248-0.176-0.085-0.027-0.144 0.042-0.233 0.051s-0.172 0.064-0.301 0.004c-0.165-0.086-0.307-0.212-0.411-0.366-0.131-0.183-0.223-0.482-0.356-0.712-0.229-0.397-0.514-0.766-0.786-1.135-0.023-0.090-0.056-0.216-0.068-0.339-0.021-0.215-0.023-0.437 0.043-0.646 0.050-0.16 0.125-0.329 0.292-0.395 0.067-0.029 0.141-0.034 0.211-0.015 0.060 0.021 0.119 0.090 0.095 0.168-0.026 0.086-0.085 0.089-0.125 0.132-0.061 0.061-0.102 0.137-0.122 0.22 0.074-0.003 0.175-0.007 0.236 0.009 0.080 0.020 0.153 0.073 0.194 0.186-0.095-0.084-0.142-0.123-0.26-0.125-0.055-0.001-0.121 0.017-0.181 0.027-0.023 0.072-0.036 0.162-0.067 0.219-0.033 0.056-0.094 0.042-0.117 0.107-0.022 0.085-0.026 0.174-0.013 0.261zM10.986 6.083c0.037 0.014 0.050 0.018 0.097 0.053 0.046 0.035 0.11 0.069 0.147 0.153 0.029 0.086 0.039 0.177 0.027 0.267-0.032-0.010-0.075-0.003-0.109-0.031s-0.053-0.093-0.095-0.12c-0.043-0.029-0.078-0.023-0.125-0.029 0.025 0.064 0.033 0.133 0.024 0.201-0.024 0.135-0.104 0.205-0.235 0.22-0.056 0.008-0.146-0.011-0.195-0.019 0.023 0.050 0.061 0.095 0.084 0.146 0.109-0.015 0.19-0.013 0.25-0.041 0.059-0.027 0.122-0.090 0.197-0.115s0.143-0.026 0.225-0.039c-0.065 0.056-0.108 0.111-0.173 0.169l0.143 0.415c0.101 0.064 0.196 0.097 0.323 0.175s0.28 0.218 0.447 0.293c0.166 0.075 0.264 0.118 0.438 0.15 0.173 0.033 0.311 0.175 0.481 0.197 0.17 0.021 0.49 0.027 0.621 0.014 0.15-0.014 0.344-0.091 0.361-0.255-0.125 0.030-0.317 0.003-0.413-0.233-0.043-0.105-0.023-0.298-0.088-0.421-0.066-0.125-0.157-0.164-0.267-0.317s-0.287-0.393-0.387-0.597c-0.1-0.205-0.125-0.436-0.209-0.619-0.085-0.183-0.213-0.33-0.313-0.472-0.216-0.309-0.39-0.518-0.747-0.674-0.172-0.075-0.367-0.095-0.549-0.142-0.075 0.033-0.179 0.069-0.197 0.158-0.014 0.1 0.014 0.203 0.080 0.281 0.106 0.11 0.263 0.228 0.325 0.402 0.041 0.112 0.051 0.487 0.017 0.589-0.036 0.107-0.119 0.171-0.188 0.241zM11.021 6.971c-0.033 0.029-0.058 0.058-0.111 0.081s-0.126 0.030-0.197 0.047c0.099 0.154 0.203 0.311 0.298 0.473s0.177 0.34 0.267 0.51c-0.005-0.098 0.001-0.201-0.013-0.292s-0.055-0.169-0.097-0.307c-0.040-0.137-0.090-0.323-0.148-0.512zM8.355 3.579c-0.014 0.151 0.013 0.387 0.043 0.537 0.039 0.178 0.074 0.269 0.219 0.376 0.264 0.197 0.432 0.163 0.637 0.277 0.097 0.054 0.219 0.145 0.255 0.239 0.035 0.097-0.024 0.201-0.097 0.242 0.128 0.019 0.272-0.126 0.212-0.273-0.030-0.073-0.17-0.107-0.213-0.181-0.039-0.068-0.047-0.149-0.022-0.223 0.035-0.135 0.303-0.259 0.398-0.364 0.145-0.165 0.2-0.302 0.118-0.513-0.115-0.297-0.561-0.536-0.828-0.653-0.122-0.053-0.191-0.056-0.286-0.086 0.195 0.116 0.401 0.207 0.5 0.461 0.082 0.214 0.010 0.295 0.014 0.481 0.001 0.087 0.115 0.13 0.165 0.183 0.043 0.048 0.040 0.083 0.005 0.149-0.003-0.053-0.030-0.103-0.074-0.133-0.075-0.053-0.156-0.042-0.196-0.15-0.060-0.165 0.061-0.323-0.075-0.508-0.1-0.139-0.235-0.294-0.417-0.298-0.082-0.001-0.163 0.012-0.24 0.039l-0.122-0.147-0.003-0.002c-0.248-0.226-0.418-0.413-0.765-0.568-0.348-0.156-0.52-0.18-0.919-0.171-0.398 0.009-0.793 0.042-1.255 0.44-0.463 0.4-1.654 1.925-1.943 2.118-0.287 0.193-0.351 0.259-0.712 0.259s-0.925-0.511-0.947-1.149c-0.021-0.637-0.030-0.865 0.413-1.633 0.444-0.768 1.246-1.004 1.843-1.083 0.597-0.081 0.955 0.129 1.395 0.13s0.876-0.074 1.005-0.425c-0.063 0.037-0.147 0.080-0.385 0.067s-0.566-0.287-0.935-0.471c-0.37-0.184-0.78-0.206-1.308-0.215-0.527-0.010-1.185 0.030-1.837 0.383-0.652 0.35-1.097 0.723-1.475 1.413-0.379 0.689-0.435 1.25-0.373 2.085 0.060 0.833 0.318 1.454 0.813 2.065 0.496 0.609 0.991 0.909 1.883 1.019l0.189-0.828-0.336 0.481 0.009-0.535-0.303 0.377-0.135-0.511-0.245 0.41-0.122-0.57-0.357 0.288 0.113-0.47-0.471 0.052 0.216-0.327-0.429 0.004 0.25-0.435-0.38-0.061 0.303-0.397-0.465-0.137 0.385-0.37-0.382-0.311 0.299-0.232-0.28-0.373 0.299-0.347-0.111-0.457 0.253-0.219 0.075-0.524 0.284-0.143 0.244-0.407 0.451-0.048 0.223-0.369 0.453 0.023 0.428-0.232 0.444 0.103 0.504-0.152 0.375 0.087 0.487 0.072 0.47 0.376-0.721-0.251-0.363 0.173-0.301-0.182-0.207 0.139-0.367 0.038-0.327-0.020-0.239 0.291-0.488 0.005-0.173 0.393-0.433 0.152-0.041 0.452-0.311 0.244 0.103 0.425-0.268 0.443 0.207 0.387-0.203 0.353 0.269 0.176-0.060 0.569 0.375 0.094 0.083 0.422 0.409-0.042 0.254 0.289 0.313-0.307c0.572-0.285 0.808-0.445 1.255-0.927 0.506-0.549 0.797-1.056 1.472-1.431 0.486-0.27 0.881-0.367 1.426-0.272 0.511 0.088 0.683 0.395 1.060 0.718 0.041-0.073 0.047-0.093 0.113-0.145-0.020 0.095-0.053 0.191-0.062 0.282z"></path>
</svg>
