<!-- Generated by IcoMoon.io -->
<svg version="1.1" xmlns="http://www.w3.org/2000/svg" width="16" height="16" viewBox="0 0 16 16">
<title>gnuicecat</title>
<path fill="#002f5b" d="M6.957-0.037c-0.244 0.004-0.496 0.020-0.759 0.050-3.197 0.361-5.075 3.024-5.183 6.253-0.749 1.467-0.969 3.194-0.483 4.883 0.931 3.235 4.144 5.19 7.446 4.803l0.606-0.071c3.304 0.218 4.009-0.683 4.799-2.879 0.083-0.181 0.204-0.513 0.379-1.049 0.005-0.025 0.011-0.051 0.014-0.064 0.526-1.435 0.603-3.055 0.16-4.594-0.053-0.185-0.114-0.365-0.182-0.541-0.020-0.127-0.016-0.28 0.006-0.4 0.193-0.317 0.433-0.555 0.719-0.733l0.182-1.251c0.191-0.215 0.118-0.401 0.127-0.707 0.111-0.053 0.173-0.143 0.219-0.287 0.051-0.159 0.299-0.459 0.575-0.691 0.043-0.126 0.149-0.383 0.148-0.597-1.325 0.151-2.158 0.406-2.823-0.408l-0.355-0.139c-0.16-0.248-0.448-0.39-0.654-0.634l-0.233 0.809c-0.287-0.178-1.833-1.797-4.708-1.751zM7.051 0.494c1.73 0.025 3.315 0.898 4.147 1.523l-0.634 0.237-0.399-0.255-0.18 0.525v0.217l-0.489 1.178-0.053-0.018 0.253-1.051 0.381-1.013-0.128-0.109-0.561 0.615c-0.119 0.654-0.060 1.576-0.361 1.958 0.094-0.768 0.227-1.439 0.235-2.337l-0.326-0.109c-0.075 0.397-0.177 0.852-0.255 1.105l0.109-1.14-0.416 0.27v0.652l-0.109-0.361-0.037-0.652-0.144-0.019-0.109 0.417c0.019 0.181-0.010 0.362 0.144 0.543l0.037 1.377 0.089 0.164-0.162 0.779 0.018-0.761-0.053-0.053-0.109-1.342-0.182-0.725-0.29-0.18-0.109-0.308-0.308-0.019 0.689 2.465 0.053 0.741c-0.079-0.351-0.075-0.735-0.379-0.996 0.030-0.369-0.024-0.73-0.472-1.051l-0.652-1.339c-0.023-0.159-0.245-0.185-0.399-0.255-0.047 0.213-0.087 0.429 0.055 0.689 0.326 0.518 0.652 1.039 0.978 1.322l0.018 0.634c-0.107-0.585-0.402-0.9-0.508-0.815-0.003-0.477-0.528-0.655-0.832-0.96l-0.037-0.525-0.18-0.037c0.113 0.355-0.146 0.381 0.361 1.087l0.018 0.255c-0.193-0.131-0.386-0.377-0.579-0.652l-0.235-0.417c0.025 0.285-0.117 0.349 0.089 0.851 0.304 0.264 0.577 0.651 0.925 0.743 0 0 0.073 0.127 0 0.127s-0.217-0.055-0.217-0.055c-0.2-0.091-0.391-0.173-0.779-0.453l-0.399-1.177-0.182-0.035 0.037 0.634 0.162 0.071 0.018 0.417c0.071 0.247 0.152 0.345 0.273 0.308-0.068 0.083-0.147 0.101-0.308 0.091-0.135-0.252-0.217-0.498-0.49-0.797l-0.18-0.525-0.109 0.109c-0.039 0.197-0.057 0.407 0 0.652-0.177-0.105-0.439-0.395-0.75-0.547 1.023-1.187 2.603-1.641 3.844-1.664 0.056-0.001 0.112-0.003 0.167-0.002zM12.098 1.957l0.345 0.114 1.012 0.577 1.434 0.013c-0.411 0.161-0.918 0.351-1.241 0.449l-0.41-0.013c-0.324-0.276-0.584-0.409-0.875-0.584-0.352 0.369-0.559 0.69-0.675 1.16l0.101-0.795 0.347-0.782zM3.026 2.177l0.365 0.729 0.018 0.162-0.2-0.071-0.18-0.417-0.199 0.145-0.145-0.086c0.104-0.164 0.219-0.318 0.341-0.461zM5.377 3.72c1.078-0.025 1.249 0.871 1.421 1.699v1.486c0.124 0.012 0.379 0.759 0.326 0.996-0.030 0.136 0.326 0.95 0.301 0.953 0.192 0.185 0.157 0.165 0.31 0.283 0.211 0.163 0.403 0.757 0.285 0.845-0.112 0.083 0.147 0.268 0.209 0.401 0.379 0.338 0.659 0.677 0.654 1.015l0.18 0.326 0.344 0.053 0.091 0.128 0.435 0.053c0.25-0.054 0.213-0.324 0.291-0.508 0.015-0.186-0.039-0.4-0.308-0.634 0.014-0.281 0.049-0.559-0.217-0.887 0.038-0.336-0.207-0.615-0.399-0.905-0.023-0.249-0.131-0.59-0.214-0.921-0.041-0.163-0.060-0.332-0.093-0.493-0.121-1.118 0.039-1.244 0.089-1.847 0.413-0.621 0.63-0.919 0.997-1.051l0.47 0.581c0.232 0.422 0.133 0.963 0.707 1.069l0.014 0.014c0.293-0.265 0.682-0.256 0.998-0.264l-0.038 0.125c-0.381-0.040-0.692-0.049-0.949 0.144l0.257 0.249c0.275-0.357 0.655-0.333 1.028-0.347l0.004 0.138c-0.403-0.053-0.789 0.014-0.998 0.241l0.082 0.079h0.003c0.311-0.243 0.683-0.256 1.035-0.26l-0.069 0.123c-0.353 0.029-0.597 0.005-0.849 0.153 0.195 0.021 0.392 0.038 0.588 0.057l0.073 0.162 0.453 0.037c0.079 0.020 0.144 0.029 0.201 0.030 0.055 0.147 0.105 0.297 0.149 0.451 0.336 1.167 0.335 2.392 0.039 3.522-0.906 2.432-1.869 3.083-3.828 2.952-2.045-0.137-3.695-2.409-5.15-5.522-0.317-0.863-1.094-1.411-1.545-0.949-2.053 2.042 0.263 5.673 1.403 6.55 0.638 0.461 1.283 0.83 1.919 1.115-2.259-0.376-4.189-1.947-4.842-4.215-0.788-2.735 0.513-5.597 2.997-6.966 0.003-0.001 0.007-0.003 0.009-0.003 0.465-0.173 0.837-0.251 1.139-0.259zM12.207 5.083c0.196 0.030 0.56 0.244 0.759 0.443 0.060 0.163-0.091 0.236-0.080 0.331 0.005 0.016 0.003 0.021 0.002 0.021-0.001-0.007-0.001-0.014-0.002-0.021-0.016-0.048-0.281-0.373-0.679-0.775zM13.412 6.541c-0.001 0.169-0.055 0.227-0.128 0.317-0.074 0.006-0.26-0.050-0.342-0.167 0.123-0.142 0.313-0.141 0.47-0.15zM11.518 6.655c-0.039 0.047-0.057 0.105-0.104 0.204 0.061-0.093 0.097-0.134 0.138-0.163zM11.613 6.773c-0.15 0.042-0.258 0.279-0.409 0.615 0.161-0.198 0.271-0.479 0.497-0.568zM3.701 8.717l0.035 0.705-1.105 0.634-0.018-0.525c0.461 0.119 0.767-0.374 1.087-0.814zM4.191 10.221l0.162 0.417-1.395 0.761-0.199-0.472c1.397-0.511 1.157-0.507 1.432-0.705zM4.697 11.181l0.182 0.308c-0.525 0.259-0.959 0.609-1.339 1.013l-0.291-0.579c0.527-0.159 1.022-0.381 1.448-0.743zM5.368 12.050l0.308 0.291c-0.241 0.541-0.74 0.877-1.215 1.231l-0.488-0.561c0.479-0.313 1.087-0.561 1.395-0.96zM6.397 13.055c0.049 0.289-0.148 0.717-0.811 1.351-0.258-0.116-0.525-0.225-0.689-0.435 1.073-0.544 1.349-0.837 1.429-0.981 0.028-0.004 0.075 0.021 0.071 0.065zM7.071 13.5c0.025 0.255-0.027 0.554 0.127 0.723l0.144 0.037c-0.076 0.314-0.227 0.549-0.217 0.863-0.573-0.139-0.636-0.198-0.851-0.337 0.665-1.035 0.793-1.278 0.798-1.286zM8.012 14.024l0.707 0.816c-0.071 0.39-0.065 0.623 0.199 0.725-0.4-0.022-0.792-0.027-1.122-0.23 0.287-0.426 0.282-0.807 0.215-1.311zM11.57 14.341c0.205 0.313 0.233 0.471 0.438 0.543-0.271 0.263-0.393 0.314-0.711 0.435 0.1-0.203 0.001-0.487-0.089-0.832-0.067-0.128 0.267-0.117 0.362-0.146zM9.571 14.531c1.193 0.356 0.789 0.583 1.155 0.939-0.315 0.066-0.603 0.137-1.106 0.109 0.371-0.275 0.201-0.581-0.049-1.047z"></path>
</svg>
