<!-- Generated by IcoMoon.io -->
<svg version="1.1" xmlns="http://www.w3.org/2000/svg" width="16" height="16" viewBox="0 0 16 16">
<title>gnuprivacyguard</title>
<path fill="#0093dd" d="M1.979 7.722h0.849v-2.547c0-0.001 0-0.001 0-0.002 0-2.857 2.316-5.173 5.173-5.173 0.001 0 0.001 0 0.002 0h-0c0 0 0.001 0 0.001 0 2.857 0 5.173 2.316 5.173 5.173 0 0.001 0 0.001 0 0.002v-0 2.522c-0.012 0.007-0.025 0.019-0.037 0.025l-0.007 0.007-0.005 0.006h-0.007l-0.013 0.013h-0.019l-0.012 0.012h-0.013l-0.012 0.007h-0.007l-0.006 0.007-0.006 0.006h-0.007l-0.006 0.006-0.006 0.007-0.007 0.006-0.006 0.006-0.019 0.013-0.013 0.007-0.019 0.012-0.012 0.007-0.013 0.006-0.018 0.012-0.013 0.007-0.007 0.006-0.018 0.013-0.013 0.007-0.031 0.018-0.013 0.007-0.025 0.013h-0.005l-0.038 0.018h-0.013c-0.012 0.007-0.025 0.013-0.043 0.025h-0.007l-0.006 0.007-0.019 0.012-0.012 0.007-0.019 0.012-0.012 0.007h-0.007l-0.019 0.012-0.012 0.007-0.013 0.006c-0.012 0.007-0.031 0.013-0.043 0.019l-0.012 0.007-0.013 0.006-0.025 0.012-0.025 0.013-0.031 0.012-0.031 0.013-0.013 0.006-0.025 0.013-0.013 0.007c-1.030 0.493-2.678 1.011-5.805 1.235-2.241 0.163-3.602 1.149-4.483 2.335zM5.207 7.722h5.581v-2.547c0-0 0-0.001 0-0.001 0-1.54-1.249-2.789-2.789-2.789-0 0-0.001 0-0.001 0h0c-0 0-0 0-0.001 0-1.54 0-2.789 1.249-2.789 2.789 0 0 0 0.001 0 0.001v-0zM14.021 8.696v7.304h-10.307c1.136-0.631 1.979-0.568 3.383-0.525 1.91 0.063 4.020-0.737 5.057-1.797s-0.093-0.25-1.267 0.049c-1.173 0.3-3.447 0.331-4.969-0.069 4.782 0.063 6.649-1.479 7.703-2.871 1.055-1.386-0.455-0.243-1.435 0.237s-2.691 0.818-4.576 0.568c2.847-0.007 5.013-1.429 6.411-2.897z"></path>
</svg>
