<!-- Generated by IcoMoon.io -->
<svg version="1.1" xmlns="http://www.w3.org/2000/svg" width="16" height="16" viewBox="0 0 16 16">
<title>gnusocial</title>
<path fill="#a22430" d="M2.811 0c-1.162 0-2.105 0.942-2.105 2.104v8.409c0 1.163 0.943 2.105 2.105 2.105h6.245c-0.011 2.38-3.219 3.381-3.219 3.381s5.425-0.025 6.203-3.381h1.147c1.163 0 2.105-0.943 2.105-2.105v-8.409c0-1.163-0.943-2.105-2.104-2.105zM5.829 1.687c0.049-0.009 0.088-0.002 0.116 0.023 0.223 0.2-0.371 0.395-0.323 1.375 0.021 0.431-0.107 0.764 0.717 0.764 0.551 0 0.322-0.489 1.015-0.489 0.437 0 0.573 0.29 0.623 0.511 0.048-0.22 0.183-0.512 0.62-0.512 0.693 0 0.467 0.489 1.017 0.489 0.825 0 0.696-0.333 0.717-0.764 0.048-0.98-0.547-1.176-0.323-1.375 0.028-0.025 0.067-0.028 0.115-0.013 0.333 0.095 1.071 1.039 1.092 1.437 0.025 0.473 0.027 1.217-0.677 1.605 0.793 0.778 0.901 1.813 0.901 1.813l-1.363-0.023c0 0-0.309-1.412-1.96-1.34-1.649 0.072-1.864 0.359-1.864 2.104s0.765 2.345 1.937 2.39c1.84 0.072 1.673-0.955 1.673-0.955l-0.86 0.048-0.479-1.291h2.94c0 1.411-0.598 3.609-3.395 3.467-2.797-0.144-3.419-2.343-3.443-3.827-0.012-0.817 0.125-1.735 0.8-2.383-0.701-0.387-0.689-1.133-0.689-1.609 0-0.587 0.753-1.389 1.091-1.443z"></path>
</svg>
