<!-- Generated by IcoMoon.io -->
<svg version="1.1" xmlns="http://www.w3.org/2000/svg" width="16" height="16" viewBox="0 0 16 16">
<title>go</title>
<path fill="#00add8" d="M1.207 7.143c-0.031 0-0.039-0.015-0.023-0.039l0.164-0.21c0.015-0.023 0.054-0.039 0.085-0.039h2.781c0.031 0 0.039 0.023 0.023 0.047l-0.133 0.202c-0.015 0.024-0.055 0.047-0.078 0.047zM0.031 7.86c-0.031 0-0.039-0.015-0.023-0.039l0.163-0.211c0.015-0.023 0.055-0.039 0.086-0.039h3.552c0.031 0 0.047 0.023 0.039 0.047l-0.062 0.187c-0.008 0.031-0.039 0.047-0.070 0.047zM1.917 8.577c-0.031 0-0.039-0.023-0.023-0.047l0.109-0.195c0.015-0.023 0.047-0.047 0.078-0.047h1.558c0.031 0 0.047 0.023 0.047 0.055l-0.015 0.187c0 0.031-0.031 0.055-0.055 0.055zM10.003 7.003c-0.491 0.125-0.826 0.218-1.309 0.343-0.117 0.031-0.125 0.039-0.227-0.078-0.116-0.133-0.202-0.218-0.365-0.296-0.491-0.241-0.967-0.171-1.41 0.117-0.53 0.343-0.803 0.849-0.795 1.48 0.007 0.623 0.436 1.137 1.051 1.223 0.53 0.070 0.973-0.117 1.325-0.514 0.070-0.086 0.132-0.179 0.21-0.289h-1.503c-0.163 0-0.203-0.101-0.148-0.233 0.101-0.241 0.288-0.647 0.397-0.849 0.034-0.074 0.107-0.125 0.192-0.125 0.001 0 0.002 0 0.003 0h2.835c-0.015 0.211-0.015 0.421-0.047 0.631-0.087 0.583-0.313 1.101-0.645 1.535l0.006-0.008c-0.561 0.74-1.293 1.2-2.22 1.324-0.763 0.101-1.473-0.047-2.095-0.513-0.577-0.437-0.904-1.013-0.989-1.73-0.101-0.849 0.148-1.613 0.662-2.283 0.553-0.724 1.285-1.184 2.181-1.347 0.732-0.133 1.433-0.047 2.064 0.381 0.413 0.273 0.709 0.647 0.904 1.099 0.047 0.070 0.015 0.109-0.078 0.133zM12.581 11.311c-0.709-0.016-1.356-0.219-1.901-0.686-0.442-0.374-0.747-0.896-0.84-1.49l-0.002-0.014c-0.14-0.88 0.101-1.659 0.631-2.353 0.569-0.748 1.254-1.137 2.181-1.301 0.795-0.14 1.543-0.063 2.22 0.397 0.615 0.42 0.997 0.989 1.099 1.737 0.132 1.052-0.171 1.909-0.896 2.641-0.514 0.522-1.145 0.849-1.87 0.997-0.21 0.039-0.42 0.047-0.623 0.071zM14.435 8.164c-0.007-0.101-0.007-0.179-0.023-0.257-0.14-0.771-0.849-1.207-1.589-1.036-0.725 0.163-1.192 0.623-1.363 1.355-0.14 0.608 0.156 1.223 0.717 1.473 0.429 0.187 0.857 0.163 1.27-0.047 0.615-0.32 0.95-0.818 0.989-1.488z"></path>
</svg>
