<!-- Generated by IcoMoon.io -->
<svg version="1.1" xmlns="http://www.w3.org/2000/svg" width="16" height="16" viewBox="0 0 16 16">
<title>godotengine</title>
<path fill="#478cbf" d="M6.373 0.459c-0.731 0.163-1.454 0.389-2.132 0.73 0.015 0.599 0.054 1.172 0.133 1.755-0.263 0.169-0.54 0.313-0.785 0.511-0.25 0.192-0.505 0.376-0.731 0.601-0.452-0.299-0.931-0.579-1.423-0.827-0.531 0.571-1.028 1.188-1.433 1.879 0.305 0.494 0.624 0.957 0.968 1.396h0.009v4.237c0.008 0 0.015 0 0.023 0.002l2.597 0.251c0.136 0.013 0.243 0.123 0.252 0.259l0.080 1.147 2.266 0.161 0.156-1.058c0.020-0.137 0.138-0.239 0.277-0.239h2.741c0.139 0 0.257 0.101 0.277 0.239l0.156 1.058 2.266-0.161 0.080-1.147c0.009-0.137 0.116-0.246 0.252-0.259l2.597-0.251c0.008 0 0.015-0.002 0.023-0.002v-0.338h0.001v-3.899h0.009c0.344-0.439 0.663-0.902 0.968-1.396-0.405-0.691-0.903-1.307-1.434-1.879-0.493 0.248-0.971 0.529-1.423 0.827-0.226-0.225-0.481-0.409-0.731-0.601-0.246-0.197-0.523-0.342-0.785-0.511 0.078-0.583 0.117-1.156 0.133-1.755-0.678-0.341-1.401-0.567-2.132-0.73-0.292 0.491-0.559 1.022-0.791 1.541-0.276-0.046-0.553-0.063-0.831-0.066h-0.011c-0.278 0.003-0.555 0.020-0.831 0.066-0.233-0.519-0.499-1.051-0.792-1.541zM4.317 6.663c0.865 0 1.566 0.701 1.566 1.565s-0.701 1.565-1.566 1.565c-0.864 0-1.565-0.701-1.565-1.565s0.701-1.565 1.565-1.565zM11.683 6.663c0.864 0 1.565 0.701 1.565 1.565s-0.701 1.565-1.565 1.565-1.566-0.701-1.566-1.565 0.701-1.565 1.566-1.565zM4.467 7.283c-0.574 0-1.039 0.465-1.039 1.039s0.465 1.039 1.039 1.039 1.039-0.465 1.039-1.039-0.465-1.039-1.039-1.039zM11.532 7.283c-0.574 0-1.039 0.465-1.039 1.039s0.465 1.039 1.039 1.039 1.039-0.465 1.039-1.039-0.465-1.039-1.039-1.039zM8 7.585c0.278 0 0.505 0.205 0.505 0.458v1.441c0 0.253-0.226 0.458-0.505 0.458s-0.504-0.205-0.504-0.458v-1.441c0-0.253 0.226-0.458 0.504-0.458zM0.973 11.301c0.001 0.251 0.004 0.526 0.004 0.581 0 2.467 3.129 3.653 7.017 3.667h0.009c3.888-0.013 7.017-1.199 7.017-3.667 0-0.056 0.003-0.33 0.005-0.581l-2.335 0.225-0.081 1.153c-0.010 0.139-0.12 0.25-0.259 0.26l-2.787 0.197c-0.137 0-0.256-0.101-0.277-0.239l-0.159-1.076h-2.257l-0.159 1.076c-0.021 0.145-0.151 0.249-0.297 0.238l-2.767-0.197c-0.139-0.010-0.25-0.121-0.259-0.259l-0.080-1.153z"></path>
</svg>
