<!-- Generated by IcoMoon.io -->
<svg version="1.1" xmlns="http://www.w3.org/2000/svg" width="16" height="16" viewBox="0 0 16 16">
<title>gog-dot-com</title>
<path fill="#86328a" d="M4.767 10.16h-1.86c-0.147 0-0.267 0.119-0.267 0.267v0 1.333c0 0.14 0.12 0.267 0.267 0.267h1.867v0.88h-2.333c-0.373 0-0.68-0.307-0.68-0.687v-2.26c0-0.373 0.307-0.68 0.687-0.68h2.32zM5.44 7.693c0 0.387-0.313 0.7-0.7 0.7h-2.987v-0.9h2.52c0.147 0 0.267-0.119 0.267-0.267v0-2.967c0-0.147-0.119-0.267-0.267-0.267v0h-1.347c-0.002-0-0.004-0-0.007-0-0.147 0-0.267 0.119-0.267 0.267 0 0 0 0 0 0v0 1.347c0 0.153 0.12 0.267 0.267 0.267h1.080v0.9h-1.547c-0.387 0-0.7-0.307-0.7-0.693v-2.293c0-0.38 0.313-0.693 0.7-0.693h2.28c0.387 0 0.7 0.313 0.7 0.693zM14.24 12.907h-0.88v-2.747h-0.62c-0.147 0-0.267 0.119-0.267 0.267v2.48h-0.887v-2.747h-0.62c-0.147 0-0.267 0.119-0.267 0.267v2.48h-0.887v-2.947c0-0.373 0.307-0.68 0.687-0.68h3.74zM14.247 7.693c0 0.387-0.313 0.7-0.7 0.7h-2.987v-0.9h2.52c0.147 0 0.267-0.119 0.267-0.267v0-2.967c0-0.147-0.119-0.267-0.267-0.267v0h-1.353c-0.147 0-0.267 0.119-0.267 0.267v0 1.347c0 0.153 0.12 0.267 0.267 0.267h1.080v0.9h-1.54c-0.387 0-0.7-0.307-0.7-0.693v-2.293c0-0.38 0.313-0.693 0.7-0.693h2.287c0.387 0 0.7 0.313 0.7 0.693zM9.147 3.093h-2.293c-0.387 0-0.693 0.313-0.693 0.693v2.293c0 0.387 0.307 0.693 0.693 0.693h2.293c0.38 0 0.693-0.307 0.693-0.693v-2.293c0-0.38-0.313-0.693-0.693-0.693zM8.947 4.26v1.347c0 0.147-0.119 0.267-0.267 0.267v0h-1.353c-0.147 0-0.267-0.119-0.267-0.267v0-1.34c0-0.147 0.113-0.267 0.267-0.267h1.34c0.153 0 0.267 0.12 0.28 0.26zM8.42 9.28h-2.26c-0.38 0-0.687 0.307-0.687 0.68v2.26c0 0.38 0.307 0.687 0.687 0.687h2.26c0.38 0 0.687-0.307 0.687-0.687v-2.26c0-0.373-0.307-0.68-0.687-0.68zM8.22 10.427v1.333c0 0.147-0.119 0.267-0.267 0.267v0-0.007h-1.327c-0.147 0-0.267-0.119-0.267-0.267v0-1.327c0-0.147 0.12-0.267 0.267-0.267h1.333c0.147 0 0.267 0.12 0.26 0.267zM15.66 0.733c-0.21-0.214-0.503-0.347-0.827-0.347h-13.667c-0.002-0-0.004-0-0.007-0-0.641 0-1.16 0.519-1.16 1.16 0 0.002 0 0.005 0 0.007v-0 12.893c-0 0.002-0 0.004-0 0.007 0 0.641 0.519 1.16 1.16 1.16 0.002 0 0.005 0 0.007-0h13.666c0.002 0 0.004 0 0.007 0 0.641 0 1.16-0.519 1.16-1.16 0-0.002 0-0.005-0-0.007v0-12.893c0-0.32-0.133-0.613-0.34-0.827zM15.66 14.447c0 0.002 0 0.004 0 0.007 0 0.453-0.367 0.82-0.82 0.82-0.002 0-0.005-0-0.007-0h-13.666c-0.004 0-0.009 0-0.013 0-0.453 0-0.82-0.367-0.82-0.82 0-0.002 0-0.005 0-0.007v0-12.893c-0-0.002-0-0.004-0-0.007 0-0.453 0.367-0.82 0.82-0.82 0.002 0 0.005 0 0.007 0h13.666c0.457 0 0.827 0.37 0.827 0.827v0z"></path>
</svg>
