<!-- Generated by IcoMoon.io -->
<svg version="1.1" xmlns="http://www.w3.org/2000/svg" width="16" height="16" viewBox="0 0 16 16">
<title>goldenline</title>
<path fill="#f1b92b" d="M10.918 14.439c0 0.817-0.659 1.477-1.475 1.477s-1.478-0.66-1.478-1.477c0-0.815 0.662-1.477 1.478-1.477s1.475 0.662 1.475 1.477zM7.775 14.324l-3.461 0.809c0 0-0.191 0.053-0.261-0.143-0.040-0.121 0.061-0.265 0.061-0.265l3.475-5.676c0 0 0.178-0.268 0.513-0.366 0.279-0.081 0.581 0.107 0.581 0.107l5.567 3.502c0 0 0.241 0.098 0.232 0.292-0.010 0.195-0.222 0.229-0.222 0.229l-3.36 0.785c-0.284-0.496-0.82-0.829-1.437-0.829-0.88 0-1.609 0.688-1.669 1.557zM2.599 4.865l1.009-3.509c0 0 0.048-0.202 0.254-0.161 0.124 0.021 0.202 0.182 0.202 0.182l3.259 5.799c0 0 0.149 0.283 0.071 0.627-0.066 0.283-0.378 0.455-0.378 0.455l-5.773 3.149c0 0-0.205 0.162-0.365 0.056-0.161-0.109-0.091-0.309-0.091-0.309l0.981-3.411c0.785-0.137 1.381-0.822 1.381-1.647 0-0.492-0.213-0.931-0.551-1.239zM2.953 6.103c0 0.817-0.659 1.479-1.476 1.479-0.814 0-1.477-0.662-1.477-1.479 0-0.814 0.663-1.475 1.477-1.475 0.817 0 1.478 0.661 1.478 1.475zM13.397 4.947l2.54 2.787c0 0 0.141 0.141 0.002 0.297-0.083 0.094-0.263 0.074-0.263 0.074l-6.649-0.263c0 0-0.319-0.023-0.569-0.268-0.207-0.202-0.188-0.559-0.188-0.559l0.34-6.568c0 0-0.033-0.259 0.141-0.341 0.18-0.081 0.311 0.086 0.311 0.086l2.212 2.419c-0.125 0.233-0.195 0.496-0.195 0.78 0 0.921 0.749 1.669 1.673 1.669 0.227 0 0.445-0.050 0.643-0.131zM14.231 3.403c0 0.819-0.657 1.478-1.475 1.478-0.816 0-1.478-0.658-1.478-1.478 0-0.81 0.662-1.467 1.478-1.467s1.475 0.668 1.475 1.478z"></path>
</svg>
