<!-- Generated by IcoMoon.io -->
<svg version="1.1" xmlns="http://www.w3.org/2000/svg" width="16" height="16" viewBox="0 0 16 16">
<title>goodreads</title>
<path fill="#630" d="M13.017 10.651v-10.325h-1.373v1.937h-0.043c-0.141-0.303-0.321-0.594-0.561-0.871-0.24-0.275-0.511-0.518-0.821-0.729-0.311-0.209-0.641-0.374-1.013-0.491-0.369-0.113-0.76-0.173-1.181-0.173-0.807 0-1.533 0.15-2.164 0.447-0.631 0.298-1.162 0.705-1.59 1.22s-0.755 1.117-0.98 1.807c-0.224 0.691-0.337 1.419-0.337 2.189 0 0.799 0.094 1.551 0.283 2.255 0.191 0.705 0.491 1.317 0.912 1.841 0.421 0.52 0.941 0.931 1.583 1.222 0.641 0.291 1.413 0.441 2.314 0.441 0.832 0 1.553-0.21 2.175-0.631s1.092-0.982 1.413-1.683h0.041v1.523c0 1.363-0.281 2.405-0.843 3.137-0.56 0.721-1.483 1.092-2.764 1.092-0.381 0-0.752-0.041-1.113-0.121s-0.691-0.21-0.991-0.38c-0.291-0.181-0.551-0.401-0.762-0.692-0.211-0.29-0.351-0.641-0.421-1.062h-1.405c0.045 0.591 0.21 1.103 0.491 1.533 0.283 0.431 0.641 0.781 1.068 1.062 0.427 0.271 0.911 0.471 1.448 0.601 0.541 0.129 1.093 0.2 1.663 0.2 0.922 0 1.694-0.13 2.324-0.37 0.631-0.251 1.143-0.601 1.534-1.072 0.401-0.472 0.681-1.033 0.862-1.704 0.18-0.671 0.28-1.423 0.28-2.245zM8.027 10.28c-0.637 0-1.189-0.126-1.653-0.381-0.465-0.253-0.851-0.588-1.155-1.002-0.311-0.414-0.531-0.888-0.681-1.426s-0.221-1.089-0.221-1.656c0-0.581 0.070-1.15 0.201-1.709 0.14-0.56 0.36-1.058 0.661-1.493s0.691-0.788 1.152-1.056 1.022-0.403 1.673-0.403 1.202 0.139 1.663 0.414c0.451 0.277 0.831 0.639 1.122 1.089 0.291 0.451 0.501 0.953 0.631 1.503s0.19 1.104 0.19 1.655c0 0.568-0.080 1.119-0.23 1.656s-0.381 1.012-0.692 1.426c-0.31 0.414-0.681 0.749-1.132 1.002-0.451 0.255-0.972 0.381-1.573 0.381z"></path>
</svg>
