<!-- Generated by IcoMoon.io -->
<svg version="1.1" xmlns="http://www.w3.org/2000/svg" width="16" height="16" viewBox="0 0 16 16">
<title>googlecloud</title>
<path fill="#4285f4" d="M8.127 1.587c-0.043-0.001-0.094-0.002-0.144-0.002-2.86 0-5.269 1.927-6.001 4.553l-0.010 0.044c0.035-0.013-0.037 0.009 0 0-2.583 1.701-2.615 5.407-0.165 7.294l0.004-0.005-0.005 0.020c0.741 0.564 1.68 0.904 2.698 0.904 0.007 0 0.014-0 0.021-0h3.448l0.020 0.020h3.461c4.458 0.035 6.251-5.737 2.557-8.233-0.336-1.213-0.993-2.244-1.874-3.029l-0.006-0.005-0.029 0.029 0.004-0.033c-1.058-0.936-2.446-1.52-3.971-1.556l-0.007-0zM7.888 4.351c0.829-0.027 1.679 0.245 2.324 0.767 0.761 0.639 1.242 1.59 1.242 2.654 0 0.023-0 0.045-0.001 0.068l0-0.003v0.345c2.353-0.047 2.353 3.508 0 3.462h-3.462l-0.005 0.006v-0.027h-3.463c-0.258 0-0.502-0.056-0.722-0.158l0.011 0.004h0.001c-0.605-0.279-1.017-0.88-1.017-1.577 0-0.956 0.775-1.731 1.731-1.731 0.697 0 1.298 0.412 1.573 1.006l0.004 0.011 2.009-2.008c-0.657-0.851-1.597-1.455-2.677-1.672l-0.029-0.005c0.012-0.007 0.027-0.017 0.036-0.015 0.61-0.668 1.475-1.095 2.44-1.127l0.006-0z"></path>
</svg>
