<!-- Generated by IcoMoon.io -->
<svg version="1.1" xmlns="http://www.w3.org/2000/svg" width="16" height="16" viewBox="0 0 16 16">
<title>googlehangoutschat</title>
<path fill="#00897b" d="M8 0c-0.001 0-0.003 0-0.004 0-3.813 0-6.905 3.091-6.905 6.905 0 0.001 0 0.003 0 0.004v-0c0 3.618 3.299 6.545 6.909 6.545v2.545c4.2-2.127 6.909-5.555 6.909-9.091 0-0.001 0-0.002 0-0.003 0-3.814-3.092-6.905-6.905-6.905-0.001 0-0.002 0-0.004 0h0zM8.018 2.818c0.582 0 1.109 0.101 1.6 0.31s0.909 0.481 1.263 0.836c0.355 0.355 0.627 0.763 0.827 1.237s0.301 0.973 0.301 1.5c0 0.3-0.037 0.573-0.1 0.828s-0.164 0.481-0.301 0.672-0.3 0.345-0.5 0.455-0.427 0.164-0.69 0.164c-0.255 0-0.49-0.064-0.69-0.191s-0.365-0.309-0.483-0.555c-0.152 0.229-0.35 0.416-0.582 0.55l-0.008 0.004c-0.237 0.127-0.51 0.191-0.828 0.191-0.003 0-0.007 0-0.010 0-0.544 0-1.035-0.223-1.389-0.582l-0-0c-0.178-0.183-0.323-0.401-0.422-0.641l-0.005-0.014c-0.098-0.243-0.155-0.525-0.155-0.82 0-0.006 0-0.012 0-0.018v0.001c0-0.3 0.055-0.581 0.155-0.836 0.109-0.255 0.245-0.473 0.427-0.655 0.173-0.182 0.383-0.327 0.619-0.427s0.482-0.155 0.737-0.155 0.49 0.055 0.69 0.155 0.373 0.237 0.509 0.4h0.064v-0.409h0.863v2.555c0 0.163 0.045 0.309 0.137 0.445s0.237 0.208 0.427 0.208c0.127 0 0.236-0.036 0.327-0.117s0.155-0.191 0.209-0.318 0.091-0.283 0.109-0.437c0.017-0.144 0.027-0.312 0.027-0.481v-0.001c0-0.409-0.082-0.801-0.237-1.173-0.166-0.376-0.386-0.698-0.654-0.973l0.001 0.001c-0.282-0.282-0.609-0.499-0.991-0.663s-0.791-0.245-1.246-0.245c-0.437 0-0.845 0.081-1.227 0.236s-0.709 0.373-0.991 0.646c-0.282 0.273-0.501 0.6-0.664 0.973-0.163 0.382-0.245 0.791-0.245 1.237s0.081 0.855 0.245 1.237 0.391 0.7 0.682 0.973c0.568 0.545 1.34 0.881 2.191 0.881h0c0.5 0 0.936-0.109 1.327-0.318l0.318 0.799c-0.472 0.218-1.025 0.345-1.607 0.345-0.011 0-0.021-0-0.032-0l0.002 0c-0.582 0-1.109-0.099-1.609-0.309-0.491-0.209-0.917-0.483-1.272-0.837s-0.637-0.763-0.837-1.237c-0.2-0.473-0.299-0.981-0.299-1.517s0.099-1.037 0.299-1.518c0.403-0.952 1.151-1.691 2.084-2.073l0.026-0.009c0.482-0.209 1.018-0.31 1.608-0.31zM7.891 5.6c-0.145 0-0.291 0.027-0.427 0.082s-0.255 0.127-0.363 0.227c-0.108 0.101-0.192 0.227-0.244 0.367l-0.002 0.007c-0.063 0.145-0.090 0.308-0.090 0.489s0.027 0.345 0.090 0.491 0.146 0.273 0.246 0.373c0.109 0.1 0.227 0.183 0.363 0.228 0.127 0.052 0.273 0.082 0.427 0.082s0.301-0.030 0.435-0.085l-0.008 0.003c0.137-0.055 0.255-0.128 0.363-0.228s0.191-0.218 0.246-0.363c0.063-0.145 0.090-0.309 0.090-0.5s-0.027-0.355-0.090-0.5c-0.061-0.141-0.144-0.262-0.246-0.363v0c-0.207-0.191-0.485-0.308-0.791-0.309h-0z"></path>
</svg>
