<!-- Generated by IcoMoon.io -->
<svg version="1.1" xmlns="http://www.w3.org/2000/svg" width="16" height="16" viewBox="0 0 16 16">
<title>googlechrome</title>
<path fill="#4285f4" d="M10.809 5.793l4.477-1.119c0.451 0.971 0.714 2.109 0.714 3.307v0c0 4.399-3.621 8.019-8.021 8.019-0.201 0-0.403-0.007-0.605-0.023l3.27-5.565c0.237-0.251 0.437-0.535 0.587-0.847 0.22-0.455 0.349-0.989 0.349-1.553 0-0.587-0.139-1.142-0.387-1.633l0.010 0.021c-0.118-0.231-0.249-0.43-0.398-0.613l0.005 0.006zM8.649 11.51l-1.414 4.455c-4.077-0.401-7.235-3.871-7.235-7.98 0-1.59 0.473-3.145 1.359-4.465l3.223 5.585c0.12 0.359 0.746 1.721 2.045 2.218 0.665 0.255 1.361 0.321 2.023 0.188zM7.982 5.080c-1.337 0.013-2.585 1.029-2.854 2.341-0.035 0.172-0.055 0.369-0.055 0.572 0 0.827 0.336 1.576 0.88 2.116l0 0c0.809 0.791 2.093 1.052 3.156 0.618 0.939-0.384 1.647-1.285 1.794-2.287 0.181-1.237-0.525-2.555-1.663-3.086-0.364-0.173-0.79-0.274-1.24-0.274-0.006 0-0.012 0-0.018 0h0.001zM4.697 6.641l-3.191-3.333c1.476-2.014 3.833-3.308 6.492-3.309h0c3.040 0 5.829 1.728 7.183 4.45h-6.809c-1.207-0.083-2.192 0.347-2.843 0.969-0.351 0.337-0.633 0.744-0.823 1.199l-0.009 0.024z"></path>
</svg>
