<!-- Generated by IcoMoon.io -->
<svg version="1.1" xmlns="http://www.w3.org/2000/svg" width="16" height="16" viewBox="0 0 16 16">
<title>googlepodcasts</title>
<path fill="#4285f4" d="M1 6.453c-0.553 0-1 0.447-1 1v1.087c0 0.552 0.448 1 1 1s1-0.448 1-1v0-1.087c0-0.553-0.447-1-1-1zM15 6.453c-0.553 0-1 0.447-1 1v1.087c0 0.552 0.448 1 1 1s1-0.448 1-1v0-1.087c0-0.553-0.447-1-1-1zM4.453 9.727c-0.553 0-1 0.447-1 1v1.087c0 0.552 0.448 1 1 1s1-0.448 1-1v0-1.080c0-0.553-0.447-1-1-1.007zM4.453 3.18c-0.553 0-1 0.447-1 1v3.573c0 0.552 0.448 1 1 1s1-0.448 1-1v0-3.58c0-0.553-0.447-1-1-0.993zM11.547 3.18c-0.553 0-1 0.447-1 1v1.093c0 0.552 0.448 1 1 1s1-0.448 1-1v0-1.093c0-0.553-0.447-1-1-1zM8 0c-0.553 0-1 0.447-1 1v1.087c0 0.552 0.448 1 1 1s1-0.448 1-1v0-1.087c0-0.553-0.447-1-1-1zM8 12.907c-0.553 0-1 0.447-1 1v1.093c0 0.001 0 0.002 0 0.003 0 0.552 0.448 1 1 1 0.551 0 0.998-0.446 1-0.996v-1.094c0-0.547-0.447-1-1-1.007zM11.547 7.267c-0.553 0-1 0.453-1 1v3.553c0 0.552 0.448 1 1 1s1-0.448 1-1v0-3.553c0-0.553-0.447-1-1-1zM8 4.087c-0.553 0-1 0.453-1 1v5.82c0 0.552 0.448 1 1 1s1-0.448 1-1v0-5.813c0-0.553-0.447-1-1-1.007z"></path>
</svg>
