<!-- Generated by IcoMoon.io -->
<svg version="1.1" xmlns="http://www.w3.org/2000/svg" width="16" height="16" viewBox="0 0 16 16">
<title>googlekeep</title>
<path fill="#fb0" d="M13.33 5.33c0-2.93-2.399-5.33-5.33-5.33s-5.33 2.4-5.33 5.33c0 1.7 0.8 3.26 2.129 4.27v5.319h1.081v1.081h4.239v-1.080h1.081v-5.32c1.341-1 2.13-2.58 2.13-4.27zM5.87 13.849v-1.050h4.261v1.050zM5.87 11.72v-1.050h4.261v1.050zM10.37 8.879l-0.239 0.16v0.561h-4.261v-0.56l-0.23-0.16c-1.2-0.799-1.9-2.12-1.9-3.549 0-2.35 1.9-4.261 4.26-4.261s4.26 1.901 4.26 4.261c0 1.43-0.7 2.76-1.9 3.549z"></path>
</svg>
