<!-- Generated by IcoMoon.io -->
<svg version="1.1" xmlns="http://www.w3.org/2000/svg" width="16" height="16" viewBox="0 0 16 16">
<title>googlepay</title>
<path fill="#5f6368" d="M16 6.667l-2.089 4.667h-0.645l0.775-1.633-1.374-3.033h0.68l0.993 2.327h0.013l0.965-2.327zM7.322 8.111v1.889h-0.655v-4.667h1.738c0.012-0 0.027-0.001 0.041-0.001 0.415 0 0.795 0.153 1.085 0.406l-0.002-0.002c0.305 0.251 0.477 0.61 0.471 0.985 0 0.005 0 0.010 0 0.015 0 0.394-0.183 0.745-0.468 0.973l-0.002 0.002c-0.303 0.265-0.679 0.397-1.125 0.397zM7.321 5.908v1.629h1.099c0.243 0.007 0.479-0.081 0.649-0.241 0.168-0.15 0.263-0.355 0.263-0.571s-0.095-0.42-0.263-0.57c-0.16-0.153-0.378-0.248-0.618-0.248-0.011 0-0.021 0-0.032 0.001l0.002-0zM11.315 6.667c0.418 0 0.748 0.116 0.99 0.348s0.362 0.551 0.362 0.955v1.929h-0.541v-0.435h-0.025c-0.234 0.358-0.545 0.537-0.933 0.537-0.332 0-0.609-0.102-0.833-0.307-0.206-0.183-0.335-0.449-0.335-0.745 0-0.008 0-0.015 0-0.023l-0 0.001c0-0.323 0.118-0.581 0.353-0.772s0.55-0.287 0.943-0.287c0.335 0 0.612 0.064 0.829 0.191v-0.134c0-0.002 0-0.005 0-0.007 0-0.204-0.090-0.387-0.233-0.512l-0.001-0.001c-0.14-0.133-0.33-0.215-0.539-0.215-0.002 0-0.005 0-0.007 0h0c-0.316 0-0.566 0.139-0.749 0.415l-0.498-0.325c0.273-0.409 0.679-0.613 1.215-0.613zM10.583 8.94c-0 0.001-0 0.003-0 0.005 0 0.154 0.073 0.291 0.187 0.378l0.001 0.001c0.125 0.102 0.28 0.156 0.439 0.153 0.238-0.001 0.467-0.1 0.635-0.275 0.173-0.16 0.281-0.388 0.281-0.642 0-0.001 0-0.002 0-0.003v0c-0.177-0.147-0.422-0.219-0.737-0.219-0.23 0-0.421 0.058-0.575 0.173-0.155 0.116-0.232 0.258-0.232 0.429zM2.721 5.333c0.010-0 0.022-0 0.033-0 0.69 0 1.318 0.264 1.788 0.697l-0.002-0.002-0.776 0.761c-0.266-0.248-0.624-0.4-1.017-0.4-0.009 0-0.019 0-0.028 0l0.001-0c-0.705 0.004-1.304 0.458-1.524 1.089l-0.003 0.011c-0.054 0.152-0.086 0.328-0.086 0.511s0.031 0.358 0.089 0.522l-0.003-0.011c0.224 0.642 0.822 1.096 1.527 1.1h0.001c0.367 0 0.682-0.092 0.927-0.254 0.286-0.187 0.482-0.48 0.543-0.811h-1.469v-1.027h2.566c0.031 0.179 0.047 0.36 0.047 0.542 0 0.811-0.296 1.498-0.809 1.962-0.451 0.408-1.069 0.644-1.803 0.644-0.003 0-0.007 0-0.011 0-1.046 0-1.955-0.589-2.412-1.455l-0.007-0.015c-0.183-0.348-0.29-0.76-0.29-1.197s0.107-0.849 0.297-1.212l-0.007 0.014c0.464-0.88 1.373-1.469 2.419-1.469 0.004 0 0.008 0 0.012 0h-0.001z"></path>
</svg>
