<!-- Generated by IcoMoon.io -->
<svg version="1.1" xmlns="http://www.w3.org/2000/svg" width="16" height="16" viewBox="0 0 16 16">
<title>googleads</title>
<path fill="#4285f4" d="M7.996 0.697h0.015c0.599 0.001 1.153 0.201 1.599 0.537l0.002 0.001 0.001 0.001c0.306 0.232 0.556 0.521 0.737 0.852l0.007 0.014 2.978 5.179 0.017 0.043 2.279 3.951c0.232 0.386 0.37 0.853 0.37 1.352 0 0.002 0 0.004 0 0.005v-0c0 0.377-0.078 0.736-0.219 1.061l0.004 0.011c-0.114 0.254-0.256 0.472-0.425 0.665l0.003-0.003c-0.196 0.229-0.426 0.422-0.684 0.572l-0.013 0.007c-0.372 0.219-0.819 0.352-1.295 0.358l-0.002 0h-0.045c-0.603-0.001-1.159-0.202-1.605-0.541l0.007 0.005-0.002-0.001v-0.001h-0.001c-0.306-0.232-0.556-0.521-0.737-0.852l-0.007-0.014-2.978-5.179-0.017-0.043-2.29-3.97c-0.226-0.382-0.359-0.842-0.359-1.333 0-0.002 0-0.003 0-0.005v0c0-0.283 0.044-0.555 0.125-0.81v-0.001l0.005-0.017 0.007-0.020c0.035-0.105 0.078-0.225 0.078-0.225 0.105-0.239 0.247-0.459 0.417-0.656l0.042-0.048 0.009-0.010 0.001-0.002 0.002-0.002 0.006-0.007 0.004-0.005c0.18-0.197 0.393-0.371 0.637-0.511 0.372-0.219 0.819-0.352 1.295-0.358l0.002-0zM2.671 15.303h-0.039c-0.479-0.006-0.925-0.139-1.31-0.365l0.012 0.007c-0.27-0.157-0.501-0.35-0.694-0.575l-0.003-0.004c-0.167-0.19-0.309-0.408-0.416-0.646l-0.007-0.016 0.004-0.011c-0.139-0.312-0.219-0.675-0.219-1.057 0-0.001 0-0.003 0-0.004v0c0-0.495 0.135-0.959 0.37-1.357l2.279-3.951 0.017-0.043 2.026-3.524c0.051 0.432 0.184 0.854 0.397 1.237l0.038 0.067 2.251 3.903-0.002-0.007 0.045 0.095 0.194 0.338-2.593 4.509c-0.188 0.345-0.438 0.634-0.737 0.861l-0.007 0.005h-0.001v0.001l-0.002 0.001c-0.439 0.335-0.995 0.536-1.599 0.537h-0z"></path>
</svg>
