<!-- Generated by IcoMoon.io -->
<svg version="1.1" xmlns="http://www.w3.org/2000/svg" width="16" height="16" viewBox="0 0 16 16">
<title>googlescholar</title>
<path fill="#4885ed" d="M7.287 1.363c-0.365 0.244-2.147 1.427-3.959 2.63-1.813 1.203-3.295 2.197-3.295 2.209s0.091 0.073 0.203 0.133c0.111 0.064 1.9 1.055 3.977 2.207l3.771 2.095 0.096-0.049c0.055-0.027 1.446-0.821 3.095-1.761l2.995-1.712 0.018 5.298h1.779v-6.201l-2.307-1.547c-3.109-2.083-5.595-3.724-5.656-3.737-0.030-0.005-0.351 0.191-0.717 0.435zM3.57 11.089l0.009 1.337 4.413 2.646 2.225-1.333 2.221-1.337v-1.321c0-0.728-0.009-1.322-0.018-1.322s-0.879 0.521-1.933 1.161l-2.204 1.331-0.287 0.171-0.88-0.527c-2.51-1.443-3.225-1.88-3.938-2.319l1.748 0.999-1.337-0.807c-0.016-0.005-0.021 0.589-0.018 1.322z"></path>
</svg>
