<!-- Generated by IcoMoon.io -->
<svg version="1.1" xmlns="http://www.w3.org/2000/svg" width="16" height="16" viewBox="0 0 16 16">
<title>googlesearchconsole</title>
<path fill="#458cf5" d="M5.699 0.771l-1.144 1.144v1.121h1.144zM5.699 3.036v0.023h-1.144v-0.023h-2.297l-2.257 2.193v2.385h1.884v-1.654c0-0.35 0.286-0.636 0.636-0.636h10.984c0.35 0 0.636 0.287 0.636 0.636v1.653h1.836v-2.384l-2.257-2.193h-2.185v0.023h-1.145v-0.023zM10.389 3.036h1.145v-1.121l-1.145-1.144zM5.786 0.792v1.101h4.515v-1.101zM13.433 5.505c-0.001 0-0.001 0-0.002 0-0.030 0-0.060 0.002-0.089 0.007l0.003-0-0.362 0.001c-3.477 0.009-6.955-0.005-10.432 0.007-0.29-0.042-0.529 0.291-0.477 0.589v1.509h11.875c-0.011-0.592 0.030-1.188-0.023-1.777-0.069-0.228-0.285-0.335-0.493-0.335zM3.152 5.928c0.254 0 0.459 0.208 0.459 0.465v0c-0 0.257-0.206 0.465-0.459 0.465 0 0 0 0 0 0v0c-0.253-0-0.458-0.208-0.459-0.465v-0c0 0 0 0 0 0 0-0.257 0.205-0.465 0.459-0.465h0zM4.575 5.928c0.254 0 0.459 0.208 0.459 0.465v0c-0 0.257-0.206 0.465-0.459 0.465 0 0 0 0 0 0v0c-0.253-0-0.458-0.208-0.459-0.465v-0c0 0 0 0 0 0 0-0.257 0.205-0.465 0.459-0.465h0zM0.024 7.763v6.104c0 0.7 0.572 1.272 1.271 1.272h0.589v-7.376zM14.14 7.763v7.376h0.588c0.7 0 1.272-0.572 1.272-1.272v-6.104zM2.705 8.755v4.567h4.091v-4.567zM11.533 8.769v2.518l-1.139 0.651-1.139-0.651v-2.505c-0.906 0.44-1.52 1.353-1.52 2.41s0.614 1.97 1.504 2.403l0.016 0.007v1.627h2.305v-1.628c0.906-0.44 1.519-1.353 1.519-2.41 0-1.067-0.626-1.988-1.53-2.416l-0.016-0.007zM2.705 14.276v0.953h5.283v-0.953z"></path>
</svg>
