<!-- Generated by IcoMoon.io -->
<svg version="1.1" xmlns="http://www.w3.org/2000/svg" width="16" height="16" viewBox="0 0 16 16">
<title>gov-dot-uk</title>
<path fill="#005ea5" d="M1.6 8.687c0.174-0.427-0.027-0.916-0.455-1.092-0.421-0.175-0.908 0.033-1.082 0.459-0.177 0.425 0.025 0.909 0.445 1.082 0.421 0.178 0.912-0.025 1.082-0.449zM2.163 6.525c0.171-0.424-0.030-0.913-0.461-1.093-0.421-0.172-0.911 0.035-1.093 0.458-0.18 0.425 0.020 0.913 0.441 1.086 0.431 0.177 0.911-0.026 1.093-0.451zM2.955 5.795c0.43 0.176 0.911-0.027 1.091-0.45 0.171-0.426-0.030-0.917-0.451-1.093-0.421-0.173-0.912 0.033-1.093 0.457s0.031 0.911 0.452 1.084zM5.059 6.495c0.431 0.171 0.912-0.030 1.093-0.451 0.17-0.431-0.031-0.922-0.461-1.093-0.423-0.181-0.913 0.031-1.084 0.451-0.18 0.421 0.030 0.912 0.451 1.083zM14.4 8.671c0.181 0.421 0.662 0.622 1.093 0.441 0.421-0.18 0.622-0.661 0.441-1.093s-0.672-0.631-1.093-0.451c-0.431 0.171-0.63 0.661-0.451 1.093zM14.891 6.947c0.421-0.171 0.621-0.662 0.451-1.093-0.181-0.421-0.672-0.631-1.093-0.451-0.431 0.181-0.631 0.661-0.451 1.093 0.171 0.421 0.662 0.622 1.083 0.452zM13.028 5.795c0.421-0.173 0.621-0.661 0.448-1.087-0.18-0.431-0.667-0.631-1.093-0.457-0.421 0.181-0.625 0.661-0.447 1.093 0.18 0.421 0.671 0.621 1.092 0.451zM10.754 6.365c0.421-0.181 0.621-0.671 0.451-1.093-0.181-0.431-0.662-0.631-1.093-0.461-0.421 0.181-0.621 0.672-0.441 1.093s0.662 0.621 1.093 0.441zM6.283 3.29l0.062 1.599 1.168-0.615c0.023 0.026 0.053 0.052 0.080 0.071-0.121 0.479-0.414 1.276-0.597 1.717-0.223 0.541 0.034 1.163 0.575 1.385 0.541 0.221 1.165-0.040 1.389-0.581 0.161-0.38 0.081-0.792-0.16-1.082-0.261-0.452-0.521-1.022-0.661-1.463 0.041-0.030 0.070-0.070 0.1-0.1l1.263 0.651 0.060-1.593-1.313 0.421c-0.011-0.021-0.021-0.041-0.030-0.050l0.511-1.454-1.553-0.049 0.471 1.432c-0.041 0.021-0.070 0.051-0.1 0.091zM14.214 9.363c0.107 0.589 0.125 0.856-0.010 1.239-0.19-0.191-0.36-0.538-0.499-1.063l-0.581 1.86c0.347-0.231 0.61-0.377 0.909-0.381-0.543 1.142-1.213 1.431-1.641 1.347-0.525-0.105-0.767-0.578-0.675-0.977 0.117-0.561 0.701-0.701 0.965-0.045 0.528-1.044-0.347-1.385-0.912-1.083 0.875-0.853 0.979-1.617 0.284-2.557-0.976 0.737-0.993 1.473-0.567 2.515-0.561-0.657-1.453-0.311-1.142 0.742 0.418-0.633 0.955-0.231 0.865 0.377-0.073 0.531-0.775 0.942-1.641 0.861-1.243-0.11-1.303-0.971-1.322-1.683 0.301-0.049 0.851 0.241 1.322 0.903l0.191-1.975c-0.511 0.521-0.983 0.631-1.493 0.641 0.181-0.521 0.973-1.393 0.973-1.393l-2.486-0.030c0 0 0.792 0.882 0.962 1.413-0.512-0.009-0.973-0.109-1.483-0.641l0.17 1.974c0.471-0.661 1.023-0.941 1.323-0.892-0.030 0.702-0.1 1.564-1.343 1.674-0.862 0.070-1.563-0.351-1.633-0.882-0.081-0.601 0.461-1.002 0.871-0.361 0.321-1.052-0.571-1.403-1.133-0.751 0.441-1.043 0.431-1.784-0.541-2.526-0.702 0.932-0.601 1.694 0.27 2.567-0.561-0.311-1.443 0.019-0.922 1.071 0.27-0.661 0.852-0.511 0.972 0.051 0.080 0.401-0.16 0.872-0.681 0.971-0.431 0.081-1.093-0.21-1.634-1.363 0.301 0.011 0.561 0.161 0.903 0.391l-0.573-1.855c-0.139 0.521-0.32 0.863-0.511 1.052-0.124-0.38-0.111-0.651 0.009-1.239l-1.202 0.409c0.615 0.843 1.238 2.014 1.727 4.069 1.517-0.251 4.105-0.402 5.673-0.402 1.563 0.010 4.153 0.19 5.663 0.461 0.511-2.054 1.142-3.217 1.764-4.049l-1.182-0.431z"></path>
</svg>
