<!-- Generated by IcoMoon.io -->
<svg version="1.1" xmlns="http://www.w3.org/2000/svg" width="16" height="16" viewBox="0 0 16 16">
<title>gradle</title>
<path d="M15.133 2.867c-1-1-2.533-1-3.533-0.067-0.067 0.067-0.067 0.133-0.067 0.2s0 0.133 0.067 0.2l0.333 0.333c0.067 0.067 0.2 0.067 0.333 0 0.267-0.2 0.533-0.267 0.867-0.267 0.8 0 1.467 0.667 1.467 1.467 0 0.4-0.133 0.733-0.4 1-2 2-4.733-3.6-10.8-0.733-0.4 0.2-0.6 0.667-0.4 1.067v0.067l1 1.8c0.2 0.4 0.733 0.533 1.133 0.333l0.467-0.267c0.533-0.333 1-0.667 1.467-1.067 0.067-0.067 0.267-0.067 0.333 0 0.133 0.067 0.133 0.2 0.067 0.333l-0.067 0.067c-0.467 0.4-1 0.8-1.533 1.133l-0.467 0.2c-0.2 0.133-0.4 0.2-0.667 0.2-0.467 0-0.933-0.267-1.133-0.667l-1-1.733c-1.867 1.333-3.067 3.933-2.4 7.2 0 0.133 0.133 0.2 0.267 0.2h1.133c0.133 0 0.2-0.067 0.267-0.2 0.133-0.933 0.933-1.533 1.867-1.4 0.733 0.067 1.333 0.667 1.4 1.4 0 0.133 0.133 0.2 0.267 0.2h1.067c0.133 0 0.2-0.067 0.267-0.2 0.133-0.933 0.933-1.533 1.867-1.4 0.733 0.067 1.333 0.667 1.4 1.4 0 0.133 0.133 0.2 0.267 0.2h1.067c0.133 0 0.267-0.133 0.267-0.267 0-1.533 0.467-3.267 1.6-4.133 3.933-3.067 2.867-5.667 1.933-6.6zM11 7.467l-0.8-0.4c0-0.267 0.2-0.467 0.467-0.467s0.467 0.2 0.467 0.467c0.067 0.2 0 0.333-0.133 0.4z"></path>
</svg>
