<!-- Generated by IcoMoon.io -->
<svg version="1.1" xmlns="http://www.w3.org/2000/svg" width="16" height="16" viewBox="0 0 16 16">
<title>grafana</title>
<path fill="#f46800" d="M15.333 7.084c-0.029-0.27-0.071-0.582-0.156-0.923s-0.227-0.71-0.412-1.107c-0.199-0.383-0.44-0.795-0.767-1.179-0.128-0.156-0.27-0.298-0.412-0.454 0.227-0.895-0.27-1.675-0.27-1.675-0.866-0.057-1.405 0.27-1.604 0.412-0.029-0.014-0.071-0.029-0.099-0.043-0.142-0.057-0.298-0.113-0.454-0.171-0.156-0.043-0.313-0.099-0.469-0.128-0.156-0.043-0.327-0.071-0.497-0.099-0.029 0-0.057-0.014-0.085-0.014-0.369-1.193-1.448-1.703-1.448-1.703-1.235 0.795-1.477 1.86-1.477 1.86s0 0.029-0.014 0.057c-0.071 0.014-0.128 0.043-0.199 0.057-0.085 0.029-0.185 0.057-0.27 0.099s-0.185 0.071-0.27 0.113c-0.185 0.085-0.355 0.171-0.539 0.27-0.196 0.11-0.358 0.213-0.514 0.324l0.018-0.012c-0.029-0.014-0.043-0.029-0.043-0.029-1.661-0.639-3.137 0.128-3.137 0.128-0.128 1.775 0.667 2.882 0.823 3.081-0.043 0.113-0.071 0.213-0.113 0.327-0.115 0.352-0.21 0.77-0.266 1.199l-0.004 0.036c-0.014 0.057-0.014 0.128-0.029 0.185-1.533 0.753-1.987 2.314-1.987 2.314 1.278 1.477 2.783 1.562 2.783 1.562 0.204 0.367 0.42 0.682 0.662 0.976l-0.009-0.011c0.099 0.128 0.213 0.241 0.327 0.369-0.469 1.335 0.071 2.456 0.071 2.456 1.434 0.057 2.371-0.625 2.569-0.781l0.426 0.128c0.44 0.113 0.895 0.185 1.335 0.199h0.582c0.667 0.965 1.86 1.093 1.86 1.093 0.837-0.895 0.895-1.761 0.895-1.959v-0.085c0.171-0.128 0.341-0.255 0.511-0.397 0.341-0.298 0.625-0.653 0.88-1.022 0.029-0.029 0.043-0.071 0.071-0.099 0.951 0.057 1.619-0.596 1.619-0.596-0.156-0.994-0.724-1.477-0.837-1.562l-0.042-0.042c0-0.057 0.014-0.113 0.014-0.185 0.014-0.113 0.014-0.213 0.014-0.327v-0.412c0-0.029 0-0.057-0.014-0.085l-0.029-0.171c-0.014-0.113-0.043-0.213-0.057-0.327-0.108-0.451-0.274-0.849-0.493-1.212l0.011 0.019c-0.231-0.369-0.499-0.686-0.805-0.962l-0.004-0.004c-0.293-0.26-0.63-0.479-0.997-0.643l-0.025-0.010c-0.327-0.156-0.706-0.266-1.105-0.311l-0.016-0.001c-0.185-0.029-0.383-0.029-0.568-0.029h-0.284c-0.099 0.014-0.199 0.029-0.284 0.043-0.383 0.071-0.738 0.213-1.051 0.397s-0.582 0.426-0.809 0.695c-0.212 0.246-0.385 0.533-0.505 0.846l-0.007 0.020c-0.113 0.298-0.185 0.625-0.199 0.923v0.341c0 0.043 0 0.071 0.014 0.113 0.048 0.459 0.216 0.871 0.473 1.213l-0.005-0.006c0.171 0.227 0.355 0.397 0.568 0.539s0.426 0.241 0.653 0.313 0.44 0.099 0.639 0.085h0.297c0.029 0 0.057-0.014 0.071-0.014 0.029 0 0.043-0.014 0.071-0.014 0.043-0.014 0.099-0.029 0.142-0.043 0.085-0.029 0.171-0.071 0.255-0.099 0.085-0.043 0.156-0.085 0.213-0.128 0.014-0.014 0.043-0.029 0.057-0.043 0.039-0.030 0.064-0.076 0.064-0.128 0-0.038-0.013-0.073-0.035-0.1l0 0c-0.036-0.035-0.085-0.057-0.139-0.057-0.027 0-0.052 0.005-0.075 0.015l0.001-0c-0.014 0.014-0.029 0.014-0.057 0.029-0.053 0.027-0.114 0.052-0.178 0.069l-0.007 0.002c-0.071 0.014-0.142 0.043-0.213 0.057-0.043 0-0.071 0.014-0.113 0.014h-0.241c0 0-0.014 0 0 0h-0.057c-0.015 0-0.043 0-0.057-0.014-0.156-0.029-0.327-0.071-0.483-0.142s-0.313-0.171-0.44-0.298c-0.142-0.128-0.255-0.27-0.355-0.44s-0.156-0.355-0.185-0.539c-0.014-0.099-0.029-0.199-0.014-0.298v-0.085c0 0.014 0 0 0 0v-0.071c0-0.057 0.014-0.099 0.029-0.156 0.080-0.456 0.298-0.851 0.61-1.149l0.001-0.001c0.085-0.085 0.171-0.156 0.27-0.213 0.099-0.071 0.199-0.128 0.298-0.171s0.213-0.085 0.327-0.113c0.113-0.029 0.227-0.057 0.341-0.057 0.057 0 0.113-0.014 0.171-0.014h0.113c0.014 0 0 0 0 0h0.057c0.401 0.034 0.768 0.151 1.093 0.334l-0.014-0.007c0.454 0.255 0.837 0.639 1.065 1.107 0.113 0.227 0.199 0.483 0.241 0.753 0.014 0.071 0.014 0.128 0.029 0.199v0.369c0 0.071-0.014 0.142-0.014 0.213-0.014 0.071-0.014 0.142-0.029 0.213l-0.043 0.213c-0.014 0.071-0.085 0.27-0.128 0.412s-0.241 0.525-0.412 0.753c-0.345 0.468-0.793 0.839-1.314 1.084l-0.021 0.009c-0.27 0.113-0.539 0.213-0.823 0.255-0.128 0.027-0.275 0.043-0.426 0.043-0 0-0 0-0 0h-0.213c0.014 0 0 0 0 0h-0.014c-0.071 0-0.156 0-0.227-0.014-0.313-0.029-0.611-0.085-0.909-0.171s-0.582-0.199-0.852-0.341c-0.553-0.302-1.020-0.691-1.399-1.156l-0.007-0.008c-0.185-0.241-0.355-0.497-0.497-0.767s-0.241-0.554-0.327-0.837c-0.079-0.261-0.13-0.562-0.142-0.873l-0-0.007v-0.44c0-0.142 0.014-0.298 0.043-0.454 0.014-0.156 0.043-0.298 0.071-0.454s0.071-0.298 0.113-0.454 0.185-0.582 0.313-0.852c0.255-0.539 0.582-1.022 0.965-1.405 0.099-0.099 0.199-0.185 0.313-0.27 0.043-0.043 0.142-0.128 0.255-0.199s0.227-0.142 0.355-0.199c0.057-0.029 0.113-0.057 0.185-0.085 0.029-0.014 0.057-0.029 0.099-0.043 0.029-0.014 0.057-0.029 0.099-0.043 0.128-0.057 0.255-0.099 0.383-0.142 0.029-0.014 0.071-0.014 0.099-0.029s0.071-0.014 0.099-0.029 0.128-0.029 0.199-0.057c0.029-0.014 0.071-0.014 0.099-0.029 0.029 0 0.071-0.014 0.099-0.014s0.071-0.014 0.099-0.014l0.113-0.029c0.029 0 0.071-0.014 0.099-0.014 0.043 0 0.071-0.014 0.113-0.014 0.029 0 0.085-0.014 0.113-0.014s0.043 0 0.071-0.014h0.099c0.043 0 0.071 0 0.113-0.014h0.057c0 0 0.014 0 0 0h0.525c0.255 0.014 0.511 0.043 0.753 0.085 0.511 0.091 0.969 0.249 1.39 0.467l-0.027-0.013c0.422 0.206 0.786 0.447 1.114 0.73l-0.007-0.006c0.014 0.014 0.043 0.029 0.057 0.057 0.014 0.014 0.043 0.029 0.057 0.057 0.043 0.029 0.071 0.071 0.113 0.099s0.071 0.071 0.113 0.099c0.029 0.043 0.071 0.071 0.099 0.113 0.369 0.378 0.681 0.813 0.924 1.29l0.014 0.030c0.014 0.014 0.014 0.029 0.029 0.057 0.014 0.014 0.014 0.029 0.029 0.057s0.029 0.071 0.057 0.099c0.014 0.029 0.029 0.071 0.043 0.099s0.029 0.071 0.043 0.099c0.057 0.128 0.099 0.255 0.142 0.383 0.071 0.199 0.113 0.369 0.156 0.511 0.016 0.057 0.067 0.098 0.128 0.099h0c0.071 0 0.113-0.057 0.113-0.128-0.014-0.171-0.014-0.355-0.027-0.568z"></path>
</svg>
