<!-- Generated by IcoMoon.io -->
<svg version="1.1" xmlns="http://www.w3.org/2000/svg" width="16" height="16" viewBox="0 0 16 16">
<title>graphql</title>
<path fill="#e10098" d="M9.367 1.834l3.29 1.9c0.544-0.573 1.449-0.595 2.021-0.051 0.099 0.093 0.183 0.201 0.251 0.318 0.393 0.685 0.155 1.559-0.531 1.952-0.116 0.067-0.241 0.117-0.372 0.149v3.799c0.764 0.182 1.236 0.949 1.053 1.713-0.032 0.136-0.085 0.267-0.155 0.387-0.395 0.682-1.267 0.916-1.951 0.521-0.131-0.075-0.25-0.173-0.351-0.286l-3.27 1.888c0.248 0.749-0.159 1.557-0.907 1.804-0.145 0.047-0.295 0.072-0.447 0.072-0.787 0.001-1.426-0.637-1.427-1.424 0-0.137 0.019-0.273 0.059-0.406l-3.291-1.898c-0.544 0.569-1.447 0.591-2.017 0.047s-0.591-1.447-0.047-2.017c0.189-0.198 0.431-0.337 0.696-0.402l0.001-3.799c-0.767-0.184-1.239-0.955-1.054-1.723 0.031-0.132 0.082-0.259 0.149-0.377 0.395-0.683 1.268-0.916 1.951-0.521 0.118 0.067 0.226 0.152 0.32 0.251l3.292-1.9c-0.224-0.755 0.207-1.548 0.961-1.771 0.131-0.039 0.269-0.059 0.407-0.059 0.787-0.001 1.426 0.636 1.427 1.423 0.001 0.139-0.020 0.279-0.059 0.411zM9.024 2.419c-0.013 0.014-0.025 0.026-0.039 0.039l4.307 7.46c0.017-0.006 0.037-0.011 0.055-0.015v-3.805c-0.763-0.189-1.228-0.961-1.039-1.725 0.004-0.016 0.008-0.033 0.013-0.048zM7.014 2.458l-0.040-0.040-3.297 1.901c0.218 0.757-0.218 1.545-0.974 1.763-0.017 0.005-0.034 0.009-0.051 0.014v3.805l0.056 0.015 4.307-7.46zM8.398 2.796c-0.26 0.075-0.535 0.075-0.795 0l-4.307 7.459c0.196 0.189 0.335 0.43 0.4 0.694h8.607c0.065-0.265 0.205-0.507 0.402-0.696zM9.055 13.614l3.275-1.892c-0.010-0.031-0.018-0.063-0.025-0.095h-8.611l-0.014 0.055 3.293 1.901c0.259-0.269 0.623-0.435 1.027-0.435 0.418 0 0.793 0.179 1.055 0.465z"></path>
</svg>
