<!-- Generated by IcoMoon.io -->
<svg version="1.1" xmlns="http://www.w3.org/2000/svg" width="16" height="16" viewBox="0 0 16 16">
<title>graphcool</title>
<path fill="#27ae60" d="M14.092 5.286c-0.778-0.438-1.755 0.133-1.912 0.232l-3.358 1.905c-0.496-0.394-1.203-0.377-1.679 0.040s-0.587 1.114-0.263 1.659 0.991 0.779 1.584 0.557 0.944-0.835 0.833-1.458l3.37-1.913c0.22-0.139 0.731-0.347 0.969-0.213 0.172 0.097 0.27 0.422 0.278 0.9h-0.004v4.201c-0.001 0.392-0.209 0.754-0.549 0.951l-4.815 2.781c-0.34 0.195-0.758 0.195-1.097 0l-4.815-2.781c-0.339-0.197-0.548-0.559-0.549-0.951v-5.56c0.001-0.392 0.209-0.754 0.549-0.95l4.357-2.515c0.414 0.475 1.109 0.588 1.653 0.267 0.543-0.32 0.781-0.983 0.565-1.575-0.216-0.593-0.824-0.947-1.446-0.844s-1.082 0.637-1.094 1.267l-4.495 2.597c-0.628 0.361-1.015 1.029-1.016 1.753v5.559c0.001 0.724 0.386 1.392 1.013 1.754l4.814 2.781c0.627 0.361 1.398 0.361 2.025 0l4.815-2.781c0.625-0.362 1.011-1.030 1.013-1.753v-4.041h0.003c0.023-0.948-0.231-1.575-0.749-1.868z"></path>
</svg>
