<!-- Generated by IcoMoon.io -->
<svg version="1.1" xmlns="http://www.w3.org/2000/svg" width="16" height="16" viewBox="0 0 16 16">
<title>grav</title>
<path d="M8 0c-4.418 0-8 3.582-8 8s3.582 8 8 8 8-3.582 8-8-3.582-8-8-8zM12.326 9.31c-0.834-0.55-1.31-1.015-1.726-1.851-0.285 0.573-0.947 1.423-2.065 2.093-0.56 1.74-3.215 5.070-4.075 4.59-0.254-0.13-0.301-0.32-0.245-0.51 0.062-0.469 1.044-1.56 1.044-1.56s0.019 0.23 0.329 0.71c-0.419-1.291 0.681-2.87 0.971-3.421 0.459-0.139 0.489-0.73 0.489-0.73 0.031-0.909-0.379-1.56-0.77-1.96 0.281 0.35 0.371 0.871 0.38 1.35v0.17c-0.019 0.401-0.14 0.94-0.39 0.94v0.011c-0.26-0.011-0.59 0.049-0.879 0.14l-0.641 0.159c0 0 0.34-0.010 0.52 0.151-0.209 0.34-0.67 0.75-1.181 0.989-0.739 0.35-0.959-0.34-0.579-0.78 0.090-0.11 0.19-0.2 0.269-0.269-0.060-0.060-0.090-0.14-0.099-0.24-0.050-0.23-0.030-0.52 0.3-0.99 0.060-0.099 0.14-0.2 0.23-0.299l0.010-0.011 0.011-0.010v-0.010c0.019-0.031 0.049-0.051 0.069-0.080 0.38-0.39 0.99-0.8 1.941-1.16 1.129-1.66 1.539-1.971 1.539-1.971 0.121-0.119 0.341-0.279 0.41-0.319-0.58-1.010-0.699-2.431-0.549-2.81-0.020 0.020-0.031 0.040-0.041 0.070 0.060-0.13 0.090-0.17 0.15-0.24 0.16-0.18 0.69-0.28 0.891 0.12 0.1 0.21 0.12 0.49 0.12 0.69-0.43-0.019-0.81 0.46-0.81 0.46s0.349-0.16 0.791-0.17c0 0 0.119 0.109 0.259 0.299-0.189 0.371-0.519 1.15-0.28 1.981 0.041 0.16 0.1 0.3 0.171 0.419 0.010 0.011 0.010 0.011 0.010 0.021l0.020 0.019c0.39 0.591 1.099 0.651 1.099 0.651-0.33-0.16-0.61-0.431-0.779-0.75-0.091-0.17-0.151-0.32-0.181-0.431-0.19-0.72 0.090-1.15 0.25-1.43 0.36-0.56 1.029-0.901 1.739-0.82 1 0.11 1.721 1.020 1.599 2.020-0.069 0.61-0.439 1.121-0.939 1.39 0.121 0.329-0.010 0.72-0.010 0.72 0.299 0.38 0.319 0.6 0.31 0.81-0.39-0.060-0.761 0.201-0.761 0.201s0.741-0.171 1.171 0.209c0.28 0.299 0.469 0.58 0.579 0.78 0.16 0.29 0.9 0.31 0.819 0.82-0.090 0.519-0.659 0.519-1.54-0.060zM9.11 6.237c-0.147-0.146-0.383-0.146-0.53 0l-0.31 0.312c-0.148 0.14-0.148 0.38 0 0.531l0.34 0.34c0.148 0.15 0.385 0.14 0.53 0l0.313-0.311c0.147-0.15 0.147-0.39 0-0.529l-0.343-0.35zM7.64 6.113c-0.093 0.093-0.093 0.245 0 0.341 0.094 0.092 0.245 0.092 0.34 0 0.093-0.095 0.093-0.247 0-0.341-0.095-0.094-0.246-0.094-0.34 0zM8.486 5.945c0.095-0.093 0.095-0.244 0-0.34-0.094-0.092-0.245-0.092-0.34 0-0.093 0.096-0.093 0.247 0 0.34 0.095 0.095 0.246 0.095 0.34 0zM12.076 5.075c0.394-0.754-0.165-1.194-0.55-1.555-0.616-0.58-1.231-0.83-1.933-0.019-0.701 0.799-0.255 1.739 0.387 2.189 0.64 0.46 1.69 0.151 2.090-0.61zM11.013 4.767c-0.248-0.297 0.215-0.835 0.505-0.513 0.533 0.593-0.258 0.811-0.505 0.513z"></path>
</svg>
