<!-- Generated by IcoMoon.io -->
<svg version="1.1" xmlns="http://www.w3.org/2000/svg" width="16" height="16" viewBox="0 0 16 16">
<title>gravatar</title>
<path fill="#1e8cbe" d="M8 0c-0.884 0-1.6 0.716-1.6 1.6v5.6c0 0.883 0.716 1.599 1.6 1.599s1.6-0.716 1.6-1.599v-3.727c1.863 0.66 3.199 2.436 3.199 4.526 0 2.65-2.15 4.799-4.799 4.799s-4.799-2.149-4.799-4.799c0-1.326 0.537-2.526 1.405-3.394 0.625-0.625 0.625-1.639 0-2.264s-1.639-0.625-2.264 0c-1.446 1.449-2.342 3.449-2.342 5.658 0 4.418 3.582 8 8 8s8-3.582 8-8-3.582-8-8-8z"></path>
</svg>
