<!-- Generated by IcoMoon.io -->
<svg version="1.1" xmlns="http://www.w3.org/2000/svg" width="16" height="16" viewBox="0 0 16 16">
<title>greensock</title>
<path fill="#88ce02" d="M8.982 15.965c-0.207-0.035-0.426-0.133-0.547-0.243-0.081-0.084-0.132-0.198-0.132-0.325v-0c0-0.12 0.060-0.293 0.161-0.464 0.054-0.089 0.101-0.192 0.136-0.3l0.003-0.010c0.020-0.075 0.064-0.2 0.098-0.278l0.061-0.141 0.016-0.957c0.009-0.527 0.025-1.017 0.035-1.092 0.039-0.242 0.097-0.458 0.176-0.664l-0.008 0.023 0.056-0.139-0.082-0.049c-0.077-0.046-0.14-0.112-0.387-0.405-0.305-0.36-0.705-0.557-1.272-0.627-0.149-0.015-0.343-0.029-0.538-0.037l-0.022-0.001c-0.835-0.039-1.311-0.213-1.74-0.635-0.32-0.316-0.487-0.683-0.555-1.224-0.092-0.732-0.193-1.109-0.38-1.413-0.049-0.079-0.101-0.148-0.159-0.211l0.001 0.001-0.076-0.075-0.167 0.107c-0.093 0.059-0.219 0.135-0.282 0.17-0.231 0.128-0.426 0.254-0.613 0.391l0.015-0.011c-0.464 0.338-0.973 0.761-1.251 1.041-0.125 0.125-0.191 0.178-0.218 0.175-0.192-0.029-0.044-0.853 0.264-1.473 0.397-0.798 1.062-1.535 1.835-2.034 0.633-0.409 1.657-0.971 2.131-1.169 0.84-0.351 1.928-0.732 2.673-0.935 0.157-0.043 0.254-0.081 0.318-0.127 0.147-0.102 0.289-0.15 0.454-0.153 0.137-0.002 0.151-0.007 0.283-0.093 0.157-0.101 0.201-0.108 0.359-0.053l0.103 0.037 0.125-0.085 0.125-0.085 0.18 0.004c0.137 0.003 0.199-0.005 0.258-0.031 0.076-0.033 0.079-0.037 0.1-0.163 0.048-0.271 0.053-0.407 0.025-0.569-0.039-0.216-0.042-1.056-0.005-1.219 0.039-0.177 0.065-0.213 0.197-0.278 0.198-0.098 0.346-0.125 0.688-0.125 0.416 0 0.627 0.056 0.783 0.207 0.141 0.137 0.165 0.453 0.091 1.2-0.043 0.428-0.048 0.549-0.037 0.829 0.007 0.181 0.018 0.349 0.025 0.374 0.011 0.043 0.021 0.046 0.173 0.049 0.147 0.003 0.173 0.009 0.314 0.083 0.136 0.071 0.237 0.156 0.257 0.217 0.004 0.013 0.027 0.014 0.069 0.002 0.079-0.023 0.15 0.002 0.206 0.073 0.034 0.043 0.055 0.052 0.135 0.052 0.107 0 0.144 0.025 0.233 0.156 0.042 0.058 0.097 0.103 0.161 0.132l0.003 0.001c0.147 0.073 0.343 0.276 0.42 0.436 0.117 0.241 0.141 0.518 0.067 0.769-0.027 0.093-0.027 0.097 0.028 0.188 0.116 0.193 0.158 0.433 0.111 0.636l-0.027 0.12 0.079 0.078c0.389 0.389 0.331 1.021-0.143 1.587-0.051 0.060-0.11 0.155-0.132 0.212-0.093 0.242-0.196 0.412-0.333 0.552l-0.136 0.14h-0.143c-0.14 0-0.337-0.047-0.457-0.11-0.050-0.026-0.053-0.025-0.043 0.007 0.033 0.115 0.109 0.58 0.137 0.837 0.042 0.396 0.029 0.972-0.027 1.219-0.044 0.198-0.112 0.372-0.203 0.533l0.005-0.009c-0.051 0.084-0.055 0.103-0.044 0.203 0.016 0.145-0.018 0.384-0.077 0.542-0.069 0.185-0.095 0.271-0.111 0.364-0.013 0.081-0.013 0.082 0.044 0.082 0.077 0 0.117 0.045 0.117 0.133 0 0.040-0.033 0.249-0.075 0.467-0.114 0.605-0.121 0.675-0.123 1.263-0.002 0.606-0.003 0.601 0.136 0.691l0.309 0.201c0.245 0.166 0.525 0.313 0.822 0.427l0.029 0.010c0.435 0.172 0.495 0.216 0.495 0.363 0 0.063-0.013 0.089-0.067 0.141-0.168 0.162-0.496 0.198-1.158 0.128-0.309-0.031-0.669-0.049-1.032-0.050h-0.001c-0.91-0.013-1.045-0.045-1.163-0.272-0.068-0.13-0.056-0.3 0.039-0.579 0.035-0.095 0.072-0.219 0.103-0.347l0.006-0.027c0.062-0.303 0.020-0.662-0.125-1.069l-0.123-0.345c-0.124-0.352-0.191-0.996-0.117-1.141 0.013-0.027 0.036-0.033 0.097-0.029l0.079 0.007 0.064-0.136c0.050-0.105 0.105-0.176 0.253-0.325l0.19-0.191-0.009-0.121c-0.009-0.116-0.162-0.685-0.184-0.683-0.006 0-0.049 0.059-0.096 0.13-0.113 0.172-0.368 0.439-0.511 0.535-0.063 0.043-0.115 0.091-0.115 0.108-0.001 0.069-0.063 0.207-0.134 0.303-0.071 0.095-0.075 0.109-0.065 0.193 0.016 0.122-0.022 0.515-0.069 0.72-0.047 0.17-0.105 0.317-0.177 0.456l0.006-0.013c-0.18 0.373-0.315 0.705-0.35 0.86-0.022 0.13-0.039 0.284-0.045 0.441l-0 0.007c-0.009 0.176-0.027 0.349-0.040 0.385-0.017 0.050-0.018 0.088-0.001 0.164 0.012 0.055 0.020 0.177 0.018 0.273-0.003 0.133 0.008 0.22 0.047 0.376 0.067 0.265 0.081 0.431 0.049 0.531-0.020 0.061-0.043 0.086-0.111 0.12-0.158 0.080-0.599 0.123-0.839 0.082zM9.615 15.753c0.091-0.026 0.168-0.106 0.168-0.175 0-0.030-0.027-0.122-0.058-0.204-0.060-0.153-0.169-0.558-0.169-0.625 0-0.036 0.003-0.037 0.057-0.008l0.057 0.030-0.001-0.073c-0.007-0.073-0.022-0.139-0.045-0.203l0.002 0.006c-0.049-0.149-0.056-0.152-0.369-0.169l-0.215-0.011-0.077 0.075c-0.043 0.043-0.080 0.091-0.111 0.143l-0.002 0.003c-0.035 0.069-0.048 0.17-0.025 0.193 0.005 0.006 0.057 0 0.113-0.013 0.030-0.009 0.065-0.016 0.102-0.019l0.002-0c0 0.003-0.057 0.049-0.128 0.101-0.313 0.232-0.422 0.376-0.422 0.558 0 0.191 0.177 0.339 0.459 0.383 0.193 0.031 0.569 0.036 0.663 0.009zM13.851 15.443c0.078-0.095 0.069-0.19-0.031-0.3-0.056-0.057-0.12-0.106-0.19-0.145l-0.004-0.002c-0.087-0.046-0.158-0.089-0.227-0.136l0.009 0.006c-0.057-0.040-0.241-0.147-0.408-0.24-0.148-0.079-0.262-0.146-0.375-0.218l0.023 0.014-0.047-0.037v-0.717c0-0.707-0.001-0.715-0.039-0.705-0.182 0.050-0.484 0.073-0.868 0.065l-0.413-0.007 0.059 0.145c0.111 0.277 0.169 0.647 0.169 1.071 0 0.159-0.009 0.217-0.049 0.328-0.007 0.014-0.027 0.069-0.046 0.125l-0.012 0.041c-0.007 0.023 0.021 0.040 0.129 0.072 0.077 0.023 0.193 0.047 0.258 0.055l0.119 0.012-0.012 0.121c-0.013 0.137 0.002 0.279 0.036 0.324 0.019 0.025 0.099 0.035 0.46 0.052 0.275 0.013 0.572 0.041 0.806 0.076 0.203 0.030 0.422 0.056 0.487 0.057 0.108 0.002 0.12-0.002 0.166-0.057zM9.683 14.223c0.010-0.007 0.025-0.148 0.031-0.314 0.021-0.467 0.038-0.533 0.273-1.059 0.191-0.429 0.294-0.83 0.285-1.115l-0.005-0.169-0.071 0.071c-0.151 0.15-0.047-0.087 0.131-0.298 0.135-0.16 0.182-0.25 0.205-0.391 0.009-0.057 0.031-0.087 0.12-0.153 0.335-0.257 0.578-0.58 0.735-0.975 0.037-0.094 0.132-0.413 0.21-0.711 0.145-0.551 0.223-0.786 0.293-0.889 0.027-0.039 0.037-0.045 0.030-0.019-0.040 0.157-0.053 0.22-0.087 0.425-0.021 0.127-0.060 0.376-0.085 0.552-0.052 0.355-0.104 0.584-0.174 0.763l-0.047 0.119 0.126 0.323c0.129 0.331 0.189 0.57 0.201 0.803l0.007 0.128-0.103 0.021c-0.137 0.025-0.253 0.102-0.33 0.208l-0.001 0.002c-0.091 0.127-0.139 0.232-0.115 0.256 0.010 0.010 0.138 0.033 0.283 0.050 0.228 0.027 0.313 0.028 0.613 0.009 0.143-0.007 0.276-0.020 0.407-0.040l-0.021 0.003c0.028-0.010 0.055-0.067 0.103-0.215 0.108-0.34 0.129-0.462 0.116-0.7l-0.011-0.211 0.055-0.070c0.128-0.163 0.227-0.455 0.267-0.793 0.050-0.417-0.040-1.291-0.21-2.041-0.080-0.355-0.113-0.569-0.113-0.727v-0.138l-0.129 0.013c-0.458 0.051-1.012 0.037-1.352-0.033-0.184-0.037-0.651-0.173-0.753-0.219l-0.079-0.035-0.011 0.090c-0.007 0.059-0.017 0.11-0.029 0.16l0.002-0.010c-0.015 0.057-0.009 0.068 0.087 0.164 0.12 0.12 0.157 0.184 0.157 0.268 0 0.050-0.030 0.092-0.175 0.245-0.107 0.112-0.243 0.23-0.347 0.299l-0.171 0.115-0.071 0.251c-0.263 0.927-0.312 1.766-0.14 2.369l0.043 0.151-0.083 0.103c-0.313 0.395-0.497 0.694-0.525 0.86-0.005 0.033-0.032 0.143-0.059 0.245-0.067 0.257-0.119 0.635-0.141 1.044-0.021 0.428-0.046 0.783-0.077 1.137l0.008-0.111-0.011 0.101 0.13 0.040c0.072 0.022 0.182 0.049 0.245 0.058 0.116 0.019 0.333 0.015 0.365-0.005zM12.212 12.791c0.202-0.012 0.387-0.044 0.423-0.073 0.015-0.012 0.033-0.067 0.040-0.12l0.011-0.099-0.16 0.035c-0.107 0.022-0.239 0.040-0.373 0.051l-0.012 0.001c-0.083 0.004-0.181 0.006-0.278 0.006-0.226 0-0.45-0.012-0.67-0.035l0.027 0.002c-0.101-0.015-0.102-0.015-0.069 0.118 0.025 0.1 0.030 0.103 0.297 0.123 0.177 0.013 0.423 0.011 0.763-0.010zM12.042 12.337c0.264-0.022 0.596-0.079 0.66-0.113 0.021-0.011 0.041-0.049 0.048-0.093l0.024-0.139 0.012-0.066-0.064 0.013c-0.289 0.061-0.508 0.079-0.947 0.079-0.426 0-0.475-0.004-0.587-0.042-0.040-0.018-0.087-0.029-0.136-0.032l-0.001-0c-0.019 0.011-0.020 0.16-0.003 0.263 0.010 0.063 0.020 0.074 0.083 0.092 0.198 0.053 0.531 0.067 0.911 0.037zM7.209 9.989c0.667-0.191 1.539-0.758 2.251-1.465 0.233-0.232 0.26-0.265 0.291-0.367l0.043-0.133c0.005-0.011-0.037-0.030-0.092-0.043-0.144-0.035-0.251-0.116-0.253-0.192 0-0.044-0.027-0.088-0.1-0.17-0.125-0.139-0.155-0.199-0.169-0.331l-0.011-0.105-0.144-0.105c-0.083-0.060-0.376-0.221-0.685-0.377-0.289-0.141-0.516-0.266-0.737-0.399l0.044 0.025c-0.26-0.176-0.435-0.384-0.533-0.631-0.019-0.051-0.042-0.092-0.050-0.092-0.022 0-0.607 0.567-0.857 0.831-0.616 0.651-1.042 1.217-1.309 1.74-0.067 0.13-0.14 0.283-0.161 0.341l-0.040 0.105 0.049 0.173c0.027 0.095 0.087 0.249 0.133 0.34 0.164 0.323 0.361 0.518 0.683 0.677 0.347 0.171 0.653 0.231 1.167 0.225 0.277-0.003 0.357-0.011 0.481-0.046zM1.947 7.707c0.438-0.388 1.042-0.813 1.783-1.255 0.485-0.289 2.355-1.225 3.217-1.609 0.156-0.070 0.297-0.134 0.313-0.143s0.061-0.12 0.101-0.246c0.184-0.579 0.275-0.694 0.605-0.769 0.042-0.009 0.052-0.023 0.052-0.066 0-0.073 0.052-0.249 0.097-0.327 0.033-0.060 0.034-0.063 0.003-0.055-0.018 0.006-0.127 0.037-0.242 0.071-1.587 0.458-2.975 1.067-4.173 1.828-1.28 0.813-2.015 1.787-2.229 2.953l-0.016 0.087 0.155-0.154c0.085-0.085 0.235-0.226 0.334-0.314zM13.732 7.927c0.127-0.065 0.325-0.365 0.398-0.601 0.023-0.088 0.065-0.163 0.122-0.226l-0 0c0.195-0.213 0.354-0.603 0.355-0.869 0-0.413-0.233-0.573-0.575-0.395-0.043 0.022-0.081 0.037-0.085 0.032-0.019-0.019 0.078-0.113 0.193-0.187 0.155-0.1 0.185-0.16 0.185-0.377 0-0.181-0.046-0.329-0.15-0.489-0.047-0.070-0.065-0.118-0.058-0.145l0.048-0.176c0.064-0.231 0.041-0.496-0.059-0.665-0.151-0.257-0.337-0.382-0.596-0.401l-0.15-0.011 0.089 0.098c0.261 0.286 0.389 0.642 0.339 0.947-0.026 0.155-0.051 0.187-0.202 0.248l-0.087 0.035 0.010 0.119c0.017 0.197-0.016 0.339-0.141 0.603-0.062 0.132-0.109 0.251-0.105 0.263 0.017 0.045 0.187 0.13 0.322 0.163l0.133 0.032-0.083 0.027c-0.107 0.035-0.132 0.084-0.133 0.265 0 0.163 0.023 0.231 0.145 0.411 0.053 0.079 0.090 0.158 0.096 0.205 0.010 0.074 0.007 0.079-0.053 0.101-0.061 0.017-0.131 0.029-0.204 0.033l-0.003 0c-0.245 0.015-0.263 0.022-0.372 0.127-0.1 0.095-0.102 0.101-0.102 0.205 0 0.143 0.053 0.43 0.088 0.469 0.043 0.049 0.291 0.17 0.387 0.189 0.025 0.006 0.054 0.010 0.084 0.010 0.060 0 0.116-0.015 0.166-0.040l-0.002 0.001zM10.125 7.731c0.159-0.125 0.283-0.249 0.355-0.357 0.043-0.065 0.046-0.078 0.024-0.131-0.035-0.085-0.274-0.3-0.407-0.365-0.081-0.038-0.175-0.066-0.274-0.079l-0.005-0.001-0.164-0.023-0.103-0.128c-0.209-0.26-0.327-0.462-0.495-0.855-0.144-0.335-0.273-0.53-0.475-0.721-0.083-0.079-0.145-0.143-0.137-0.143s0.107 0.049 0.222 0.109c0.192 0.101 0.214 0.108 0.301 0.097 0.31-0.037 0.582-0.394 0.683-0.893 0.029-0.143 0.085-0.286 0.145-0.371 0.003-0.003 0.121 0.077 0.263 0.178 0.356 0.253 0.435 0.291 0.637 0.299 0.135 0.005 0.209-0.005 0.448-0.063 0.51-0.124 1.063-0.175 1.4-0.129 0.19 0.026 0.461 0.109 0.667 0.204 0.201 0.093 0.239 0.099 0.305 0.041 0.053-0.047 0.054-0.053 0.053-0.228-0.001-0.257-0.096-0.536-0.24-0.702-0.073-0.086-0.277-0.227-0.48-0.334-0.116-0.060-0.187-0.099-0.258-0.14l0.040 0.021c-0.095-0.055-0.206-0.049-0.501 0.029-0.343 0.090-0.435 0.089-0.829-0.012-0.333-0.085-0.355-0.087-0.681-0.035-0.174 0.027-0.612 0.011-0.759-0.027-0.093-0.026-0.165-0.049-0.236-0.076l0.019 0.006c-0.127-0.047-0.348-0.055-0.548-0.020-0.4 0.071-0.703 0.287-0.812 0.58-0.056 0.149-0.049 0.219 0.028 0.267 0.118 0.075 0.277 0.281 0.277 0.36 0 0.007-0.037-0.027-0.083-0.075-0.111-0.116-0.213-0.167-0.333-0.167-0.162 0.004-0.301 0.1-0.366 0.239l-0.001 0.003c-0.029 0.073-0.060 0.167-0.085 0.262l-0.004 0.018c-0.073 0.268-0.137 0.408-0.275 0.595-0.124 0.169-0.141 0.244-0.097 0.434 0.109 0.479 0.299 0.674 1.093 1.124 0.417 0.236 0.632 0.369 0.788 0.486 0.119 0.089 0.123 0.093 0.112 0.162-0.025 0.155 0.075 0.327 0.271 0.463 0.050 0.035 0.081 0.071 0.081 0.095 0 0.048 0.131 0.113 0.229 0.113 0.053 0 0.097-0.023 0.208-0.111zM13.335 6.855c0.303 0.009 0.319-0.013 0.157-0.201-0.169-0.197-0.215-0.355-0.153-0.529l0.025-0.068-0.106-0.052c-0.030-0.017-0.066-0.033-0.103-0.046l-0.005-0.002c-0.010 0.031-0.029 0.101-0.045 0.17l-0.007 0.036c-0.039 0.16-0.087 0.571-0.087 0.747 0 0.015 0.025 0.009 0.070-0.019 0.061-0.037 0.093-0.041 0.257-0.037zM12.323 6.838c0.182-0.010 0.371-0.024 0.42-0.031l0.089-0.012 0.011-0.301c0.015-0.427 0.077-0.679 0.262-1.081 0.132-0.287 0.187-0.538 0.16-0.724-0.012-0.081-0.017-0.087-0.125-0.134-0.179-0.074-0.389-0.132-0.606-0.167l-0.016-0.002c-0.207-0.030-0.809-0.013-1.037 0.030-0.093 0.017-0.265 0.053-0.38 0.081-0.284 0.067-0.435 0.058-0.651-0.037-0.213-0.094-0.349-0.179-0.478-0.299-0.101-0.094-0.11-0.099-0.137-0.067-0.020 0.023-0.031 0.093-0.038 0.245-0.009 0.231-0.044 0.353-0.147 0.518-0.021 0.031-0.041 0.066-0.056 0.103l-0.001 0.004c0 0.008 0.079 0.097 0.176 0.197 0.333 0.347 0.496 0.436 0.759 0.416 0.087-0.007 0.147-0.004 0.147 0.007 0 0.019-0.169 0.153-0.241 0.191-0.032 0.017-0.040 0.035-0.035 0.075l0.040 0.272c0.024 0.157 0.043 0.229 0.067 0.25 0.062 0.053 0.385 0.22 0.587 0.301 0.267 0.109 0.411 0.147 0.616 0.165 0.249 0.021 0.254 0.021 0.615 0zM10.17 6.553c0.005-0.010-0.015-0.16-0.047-0.335-0.042-0.237-0.065-0.323-0.091-0.345-0.020-0.016-0.115-0.085-0.213-0.154-0.132-0.098-0.249-0.197-0.359-0.303l0.001 0.001-0.181-0.176-0.095 0.050-0.103 0.055c0.010 0.044 0.025 0.084 0.044 0.12l-0.001-0.003c0.027 0.062 0.084 0.215 0.127 0.34 0.11 0.326 0.194 0.482 0.411 0.765l0.083 0.107 0.153 0.024c0.084 0.013 0.171 0.031 0.194 0.039 0.037 0.014 0.042 0.008 0.053-0.077 0.004-0.041 0.012-0.078 0.024-0.114l-0.001 0.004zM13.469 3.313c0.133-0.013 0.156-0.033 0.098-0.092-0.035-0.035-0.119-0.039-0.187-0.008-0.045 0.021-0.055 0.016-0.125-0.060-0.073-0.081-0.077-0.083-0.169-0.072-0.083 0.010-0.096 0.007-0.107-0.027-0.035-0.057-0.074-0.107-0.12-0.15l-0-0c-0.058-0.066-0.131-0.119-0.213-0.152l-0.004-0.001c-0.162-0.061-0.252-0.055-0.406 0.030-0.445 0.243-0.427 0.241-0.855 0.131-0.402-0.103-0.703-0.205-0.798-0.271-0.080-0.055-0.253-0.113-0.395-0.133-0.107-0.015-0.176 0.009-0.277 0.093l-0.053 0.044 0.048 0.085c0.068 0.121 0.061 0.127-0.041 0.040-0.109-0.093-0.238-0.156-0.323-0.157-0.059 0-0.237 0.077-0.258 0.112-0.006 0.009 0.049 0.022 0.121 0.029 0.077 0.007 0.181 0.032 0.251 0.062 0.181 0.077 0.276 0.103 0.443 0.12 0.182 0.017 0.514-0.003 0.552-0.035 0.019-0.017 0.077-0.019 0.197-0.010 0.159 0.012 0.225 0.027 0.602 0.129 0.219 0.060 0.372 0.055 0.633-0.017 0.12-0.033 0.271-0.067 0.334-0.073 0.107-0.011 0.128-0.007 0.293 0.069 0.267 0.12 0.407 0.197 0.485 0.267 0.078 0.067 0.087 0.069 0.275 0.050zM11.983 2.857l0.159-0.083-0.003-0.163c-0.003-0.125-0.008-0.24-0.016-0.354l0.001 0.024-0.011-0.167-0.159 0.123c-0.094 0.073-0.185 0.128-0.226 0.135-0.114 0.022-0.677 0-0.731-0.028-0.072-0.054-0.135-0.111-0.193-0.172l-0.001-0.001-0.147-0.147-0.002 0.087c0 0.047-0.007 0.128-0.016 0.179-0.015 0.092-0.013 0.095 0.087 0.222 0.056 0.071 0.101 0.135 0.101 0.141 0 0.051 0.752 0.284 0.921 0.287 0.054 0 0.123-0.024 0.235-0.083zM11.682 2.265c0.188-0.036 0.28-0.172 0.349-0.515 0.073-0.369 0.111-0.95 0.075-1.198-0.031-0.223-0.279-0.323-0.757-0.307-0.296 0.010-0.419 0.039-0.519 0.125-0.063 0.053-0.064 0.058-0.091 0.305-0.053 0.474 0.024 1.149 0.16 1.403 0.065 0.122 0.123 0.167 0.243 0.187 0.135 0.023 0.423 0.024 0.541 0.001z"></path>
</svg>
