<!-- Generated by IcoMoon.io -->
<svg version="1.1" xmlns="http://www.w3.org/2000/svg" width="16" height="16" viewBox="0 0 16 16">
<title>greenkeeper</title>
<path fill="#00c775" d="M8.027 15.031c-0 0-0 0-0.001 0-0.812 0-1.471-0.658-1.471-1.471 0-0.218 0.047-0.425 0.132-0.611l-0.004 0.009-1.799-1.2c-0.268 0.28-0.644 0.453-1.061 0.453-0.81 0-1.467-0.657-1.467-1.467s0.657-1.467 1.467-1.467c0.81 0 1.467 0.657 1.467 1.467 0 0.216-0.047 0.421-0.131 0.606l0.004-0.009 1.801 1.2c0.055-0.057 0.115-0.109 0.178-0.157l-2.887-5.773c-0.13 0.042-0.28 0.066-0.436 0.066-0.813 0-1.473-0.659-1.473-1.473s0.659-1.473 1.473-1.473c0.813 0 1.473 0.659 1.473 1.473 0 0.48-0.23 0.907-0.585 1.175l-0.004 0.003 2.887 5.773c0.051-0.016 0.104-0.029 0.157-0.039v-2.752c-0.684-0.135-1.194-0.73-1.194-1.444s0.509-1.31 1.184-1.443l0.009-0.002v-2.593c-0.684-0.135-1.192-0.73-1.192-1.444 0-0.812 0.658-1.471 1.471-1.471s1.471 0.658 1.471 1.471c0 0.733-0.536 1.341-1.237 1.452l-0.008 0.001v2.577c0.71 0.112 1.247 0.72 1.247 1.453s-0.537 1.341-1.239 1.452l-0.008 0.001v2.731c0.055 0.009 0.109 0.020 0.163 0.035l2.88-5.759c-0.357-0.271-0.585-0.695-0.585-1.173 0-0.811 0.657-1.468 1.468-1.468s1.468 0.657 1.468 1.468c0 0.811-0.657 1.468-1.468 1.468-0.155 0-0.305-0.024-0.445-0.069l0.010 0.003-2.873 5.745c0.067 0.047 0.129 0.099 0.187 0.155l1.744-1.184c-0.093-0.188-0.147-0.408-0.147-0.642 0-0.813 0.659-1.473 1.473-1.473s1.473 0.659 1.473 1.473c0 0.813-0.659 1.473-1.473 1.473-0.402 0-0.767-0.161-1.032-0.422l0 0-1.743 1.185c0.092 0.187 0.146 0.407 0.146 0.639 0 0.812-0.658 1.47-1.47 1.471h-0zM8 16c-4.418 0-8-3.581-8-8 0-2.209 0.896-4.209 2.343-5.657v0c3.124-3.124 8.189-3.124 11.313 0s3.125 8.189 0 11.313c-1.44 1.448-3.433 2.343-5.635 2.343-0.008 0-0.015-0-0.023-0h0.001zM8 0.503c-4.14 0-7.497 3.357-7.497 7.497 0 1.988 0.79 3.895 2.196 5.301 2.917 2.938 7.663 2.955 10.601 0.038s2.955-7.664 0.038-10.602c-1.353-1.379-3.236-2.233-5.318-2.233-0.007 0-0.014 0-0.022 0h0.001z"></path>
</svg>
