<!-- Generated by IcoMoon.io -->
<svg version="1.1" xmlns="http://www.w3.org/2000/svg" width="16" height="16" viewBox="0 0 16 16">
<title>groovy</title>
<path fill="#4298b8" d="M7.998 4.008c0 0-1.121 1.859-1.654 2.762-0.103 0.039-0.115 0.027-0.227 0.138-0.273-0.313-0.598-0.027-0.685 0.147-0.038-0.377-0.101-0.378-0.186-0.463 0.049-0.331 0.211-0.87-0.161-1.256-0.719-0.485-1.551 0.7-2.014 1.321l-0.25 0.415c-1.031-0.021-1.842 0.005-2.821-0.014 1.193 0.447 1.243 0.457 2.684 1.004 0 0.044 0.107 0.248 0.227 0.368 0.098 0.1 0.205 0.156 0.259 0.189-0.071 0.036-0.213 0.092-0.257 0.172-0.195 0.364 0.093 0.448 0.279 0.738 0.21 0.379 0.255 0.629 0.751 0.417 0.169-0.073 0.375-0.099 0.505-0.14-0.462 0.729-0.58 0.928-1.389 2.183l0.008 0.003c3.233-1.262 3.316-1.295 4.915-1.927 2.299 0.892 2.431 0.965 4.955 1.927-0.353-0.551-0.593-0.895-0.849-1.33 0.101-0.009 0.322-0.031 0.518-0.155 0.142-0.090 0.309-0.192 0.459-0.383 0.295-0.377 0.367-0.851 0.26-1.444-0.052-0.282-0.157-0.556-0.142-0.567 1.374-0.519 1.536-0.575 2.817-1.058-1.54 0.023-1.615 0.007-3.061 0.011-0.024-0.276-0.163-0.418-0.588-0.404-0.159 0.026-0.259 0.080-0.333 0.297-0.238-0.438-0.567-0.309-0.707-0.093-0.183-0.188-0.611-0.251-0.827-0.113-0.159-0.075-0.343-0.075-0.505 0.118-0.117-0.097-0.153-0.125-0.409-0.228-0.591-0.998-1.081-1.795-1.573-2.634zM8.006 4.543c0.233 0.357 1.035 1.74 1.233 2.049-0.225 0.015-0.445 0.135-0.612 0.375-0.145-0.149-0.313-0.297-0.611-0.309-0.363-0.062-0.556 0.099-0.8 0.379-0.072-0.243-0.353-0.3-0.597-0.187 0.218-0.346 1.248-2.081 1.388-2.307zM4.967 6.085c-0.033 0.956-0.712 1.808-1.199 1.497-0.367-0.299 0.099-1.056 0.393-1.323-0.022 0.205 0.164 0.332 0.015 0.513-0.297 0.362-0.18 0.624-0.052 0.664 0.342 0.108 0.669-0.818 0.669-1.467 0-0.417-0.244-0.409-0.724 0.091-0.655 0.681-1.009 1.341-0.773 1.793 0.131 0.253 0.323 0.434 0.639 0.396 0.617-0.073 0.989-0.836 1.029-1.325 0.099-0.002 0.073 0.007 0.099-0.013 0 0.086 0.118 0.503 0.211 0.777 0.122 0.468 0.643 1.407-0.913 1.772-0.293 0.073-0.409 0.099-0.7 0.213-0.142-0.295-0.175-0.39-0.465-0.675 0.392-0.137 0.395-0.123 0.648-0.211 0.978-0.34 1.272-0.631 1.238-1.047 0 0 0.012-0.213-0.123-0.392-0.050 0.164-0.116 0.306-0.2 0.437l0.004-0.007c-0.291 0.453-0.864 0.734-1.373 0.555-0.278-0.097-0.397-0.311-0.397-0.677 0-0.469 1.067-1.823 1.591-2.053 0.37-0.11 0.386 0.195 0.381 0.483zM9.301 6.952c0.173 0.004 0.362 0.089 0.49 0.227 0.396 0.427 0.353 0.945 0.109 1.27-0.29 0.387-1.021 0.216-1.194-0.325-0.080-0.252 0.063-0.875 0.317-1.083 0.070-0.056 0.16-0.089 0.258-0.089 0.007 0 0.014 0 0.021 0.001l-0.001-0zM7.893 6.996c0.028 0.001 0.055 0.005 0.080 0.012l-0.002-0.001c0.335 0.020 0.407 0.209 0.467 0.373 0.154 0.417 0.115 0.808-0.201 1.127-0.474 0.479-1.027 0.267-1.024-0.378 0.009-0.46 0.295-1.143 0.679-1.134zM9.138 7.021c-0.255 0.191-0.288 0.682-0.053 0.864 0.092 0.087 0.143 0.147 0.409 0.171 0.182 0.016 0.469-0.169 0.483-0.351 0.007-0.083-0.009-0.222-0.208-0.447-0.168-0.189-0.386-0.233-0.441-0.2-0.177 0.104 0.014 0.187 0.083 0.255 0.108 0.109 0.133 0.156 0.083 0.188-0.046 0.031-0.103 0.050-0.165 0.050-0.030 0-0.058-0.004-0.085-0.012l0.002 0.001c-0.070-0.033-0.304-0.164-0.109-0.518zM11.644 7.023c0.111 0.173 0.143 0.211 0.268 0.643 0.16 0.559 0.364 0.775 0.544 0.673 0.493-0.279 0.099-0.984-0.075-1.316 0.111-0.001 0.089 0.005 0.191 0.003 0.080 0.314 0.057 0.258 0.271 1.209 0.257 1.137 0.295 1.44-0.352 1.951-0.297 0.235-0.735 0.247-1.111 0.227l-0.424-0.063c0.292-0.191 0.363-0.371 0.361-0.744 0.852 0.357 1.306 0.088 1.487-0.351 0.088-0.211 0.057-0.49-0.027-0.981 0.005 0.4-0.003 0.473-0.056 0.671-0.105 0.397-0.365 0.507-0.541 0.227-0.068-0.109-0.23-0.468-0.28-0.855s-0.088-0.93-0.333-1.157c0.027-0.053 0.055-0.113 0.078-0.137zM10.813 7.030c0.172 0.045 0.381 0.136 0.493 0.347 0.156 0.291 0.259 0.445 0.251 0.965-0.009 0.555-0.227 0.703-0.371 0.724-0.185 0.027-0.508 0.023-0.699-1.065-0.063-0.361-0.179-0.704-0.3-0.816 0.060-0.073 0.065-0.064 0.11-0.136 0.061 0.067 0.113 0.18 0.199 0.518 0.135 0.539 0.258 0.65 0.497 0.68 0.372 0.048 0.519-0.52 0.212-0.927-0.067-0.089-0.243-0.205-0.335-0.157 0.005 0.157 0.075 0.108 0.076 0.212-0.017 0.123-0.035 0.146-0.075 0.213-0.095-0.037-0.14-0.052-0.223-0.194-0.105-0.207-0.037-0.4 0.167-0.363zM7.748 7.081c-0.175 0.123-0.396 0.533-0.203 0.9 0.095 0.137 0.198 0.248 0.425 0.2 0.163-0.034 0.447-0.227 0.487-0.499 0.035-0.233-0.304-0.685-0.492-0.58-0.218 0.122-0.085 0.209 0.049 0.341 0.123 0.12 0.035 0.193-0.051 0.228-0.172 0.071-0.269 0.002-0.311-0.135s-0.007-0.253 0.096-0.454zM5.837 7.123c0.037 0.115 0.067 0.268 0.145 0.416 0.019 0.015 0.088 0 0.179-0.105 0.057-0.067 0.123-0.159 0.238-0.309 0.069 0.063 0.075 0.111 0.095 0.146 0.049 0.087 0.15 0.080 0.182 0.071 0.112-0.111 0.13-0.183 0.204-0.193 0.007 0.144 0.014 0.233-0.171 0.451-0.066 0.074-0.161 0.121-0.268 0.121-0.023 0-0.046-0.002-0.069-0.007l0.002 0c-0.080-0.023-0.133-0.072-0.259-0.137-0.172 0.027-0.127 0.21-0.095 0.364 0.080 0.407 0.333 0.57 0.555 0.45 0.077-0.041 0.060-0.041 0.208-0.102-0.025 0.259-0.040 0.309 0.007 0.597-0.361 0.201-0.655 0.167-0.735-0.337-0.061-0.421-0.174-0.933-0.277-1.037-0.097-0.098-0.137-0.13-0.137-0.13zM1.094 7.178c0.502 0.007 1.068 0.007 1.671 0.011-0.087 0.212-0.117 0.36-0.129 0.569-0.281-0.109-1.251-0.456-1.542-0.581zM14.909 7.185c-0.665 0.239-1.143 0.425-1.785 0.669-0.070-0.3-0.083-0.392-0.146-0.663 1.067-0.003 1.085-0.001 1.931-0.007zM10.257 8.545c0.070 0.287 0.169 0.427 0.169 0.427 0.135 0.232 0.303 0.363 0.56 0.43 0.057 0.091 0.077 0.109 0.099 0.157 0.025 0.305 0.007 0.343-0.229 0.516-0.139 0.136-0.145 0.331-0.002 0.513 0.154 0.147 0.316 0.199 0.917 0.043 0.116 0.2 0.279 0.435 0.517 0.811-0.804-0.303-1.912-0.735-4.287-1.66 0 0-2.779 1.080-4.269 1.661 0.623-0.983 0.675-1.066 1.118-1.753 0.15-0.059 0.099-0.035 0.233-0.103 0.306-0.163 0.551-0.407 0.685-0.763 0.245 0.553 0.519 0.617 1.091 0.437 0.118-0.055 0.253-0.133 0.283-0.345 0.307 0.275 0.955 0.327 1.428-0.255 0.408 0.478 1.334 0.523 1.689-0.115zM11.695 9.121c0 0 0.027 0.086 0.043 0.113-0.067 0.002-0.142 0-0.142 0 0.037-0.033 0.070-0.070 0.098-0.111l0.001-0.002z"></path>
</svg>
