<!-- Generated by IcoMoon.io -->
<svg version="1.1" xmlns="http://www.w3.org/2000/svg" width="16" height="16" viewBox="0 0 16 16">
<title>groupon</title>
<path fill="#53a318" d="M2.211 13.556c1.535 1.601 3.492 2.444 5.797 2.444 2.659 0 5.159-1.3 6.652-3.442 0.902-1.3 1.34-2.772 1.34-4.503 0-0.323-0.021-0.671-0.042-1.019h-8.895v3.073h4.458c-0.77 1.341-2.063 2.080-3.513 2.080-2.153 0-4.083-1.883-4.083-4.331 0-2.21 1.799-4.046 4.083-4.046 1.229 0 2.237 0.499 3.207 1.493h4.347c-1.25-3.291-4.173-5.304-7.507-5.304-2.215 0-4.147 0.78-5.687 2.273-1.535 1.492-2.369 3.442-2.369 5.563-0.005 2.278 0.739 4.181 2.211 5.72z"></path>
</svg>
