<!-- Generated by IcoMoon.io -->
<svg version="1.1" xmlns="http://www.w3.org/2000/svg" width="16" height="16" viewBox="0 0 16 16">
<title>gulp</title>
<path fill="#da4648" d="M10.104 12.955l0.424-0.723c0 0-0.963 0.394-2.573 0.394-1.612 0-2.56-0.379-2.56-0.379l0.474 0.789 0.168 2.486c0 0.269 0.876 0.479 1.957 0.479s1.959-0.209 1.959-0.479l0.153-2.557zM10.514 8.257c-0.513 0.031-0.769 0.602-1.026 1.203-0.095 0.22-0.42 1.158-0.632 1.042s0.275-0.886 0.413-1.345c-0.158 0.116-0.737 0.566-0.886 0.143-0.239 0.209-0.753 0.32-0.695-0.219-0.127 0.23-0.414 0.549-0.759 0.409-0.449-0.17 0.263-1.607 0.44-1.538 0.177 0.081-0.035 0.4-0.091 0.529-0.124 0.279-0.265 0.639-0.17 0.709 0.16 0.129 0.603-0.469 0.613-0.479 0.083-0.11 0.319-0.819 0.509-0.738 0.19 0.089-0.474 1.027-0.227 1.217 0.051 0.040 0.255-0.020 0.379-0.159 0.080-0.080 0.052-0.28 0.319-0.919 0.269-0.639 0.509-1.437 0.693-1.377s0.033 0.469-0.034 0.629c-0.309 0.719-0.845 1.896-0.593 1.807 0.249-0.090 0.379-0.090 0.629-0.379s0.23-0.768 0.399-0.758c0.16 0.009 0.14 0.169 0.1 0.279 0.16-0.18 0.768-0.579 0.909-0.189 0.169 0.459-0.869 1.128-0.609 1.088 0.25-0.030 0.659-0.289 0.839-0.529l0.479-4.333c0 0-0.489 0.4-3.574 0.4s-3.523-0.389-3.523-0.389l0.409 3.953c0.22-0.619 0.739-1.876 1.548-1.827 0.369 0.020 0.869 0.739 0.439 0.759-0.18 0.010-0.2-0.359-0.409-0.409-0.159-0.031-0.369 0.090-0.509 0.23-0.269 0.269-0.869 1.337-0.789 1.867 0.1 0.679 0.938-0.231 1.078-0.5 0.099-0.189 0.169-0.759 0.379-0.699 0.22 0.060-0.019 0.649-0.18 1.158-0.18 0.579-0.269 1.187-0.488 1.117-0.22-0.069 0.139-0.818 0.119-0.948-0.209 0.199-0.589 0.68-1.087 0.439l0.249 2.466c0 0 0.679 0.529 2.715 0.529s2.745-0.529 2.745-0.529l0.319-2.855c-0.259 0.26-1.078 0.709-1.128 0.2-0.039-0.409 0.889-0.999 0.649-1.009zM11.564 0.446l-1.773 1.867-0.324 1.267c1.254 0.080 2.126 0.257 2.126 0.463 0 0.279-1.609 0.505-3.594 0.505s-3.593-0.229-3.593-0.509c0-0.279 1.609-0.509 3.594-0.509 0.282 0 0.563 0 0.843 0.011l0.374-1.517 1.883-1.997c0.045-0.060 0.187-0.010 0.316 0.1 0.129 0.099 0.199 0.229 0.159 0.289v0.020zM9.008 4.309c0 0-0.349 0-0.407-0.053-0.015-0.017-0.024-0.039-0.024-0.060 0-0.039 0.026-0.061 0.060-0.073l0.029 0.050c-0.014 0.004-0.019 0.010-0.022 0.015 0 0.027 0.209 0.046 0.37 0.044 0.159-0.002 0.354-0.015 0.355-0.043 0-0.008-0.015-0.015-0.041-0.022l0.030-0.048c0.042 0.013 0.078 0.039 0.078 0.081 0 0.073-0.094 0.085-0.153 0.094-0.071 0.010-0.275 0.015-0.275 0.015z"></path>
</svg>
