<!-- Generated by IcoMoon.io -->
<svg version="1.1" xmlns="http://www.w3.org/2000/svg" width="16" height="16" viewBox="0 0 16 16">
<title>gumroad</title>
<path fill="#36a9ae" d="M10.551 10.046c0.375 0 0.678 0.304 0.678 0.679s-0.304 0.679-0.679 0.679c-0 0-0 0-0 0h0c-0.375-0-0.678-0.304-0.678-0.679s0.304-0.679 0.679-0.679c0 0 0 0 0 0h-0zM14.218 0.74c0 0 0 0 0 0 0.375 0 0.679 0.304 0.679 0.679s-0.304 0.678-0.678 0.679h-0c-0 0-0 0-0 0-0.375 0-0.679-0.304-0.679-0.679s0.304-0.678 0.678-0.679h0zM2.215 2.071h10.744c0.241 0.459 0.715 0.767 1.26 0.767h0c0.783 0 1.419-0.637 1.419-1.42-0.001-0.784-0.636-1.418-1.42-1.419h-0c-0.593 0-1.103 0.367-1.313 0.886h-10.691c-1.038 0-1.852 0.787-1.852 1.793v11.437c0 1.021 0.849 1.883 1.853 1.883h11.437c1.007 0 1.825-0.845 1.825-1.883v-6.785c0-1.021-0.819-1.853-1.825-1.853h-6.785c-1.035 0-1.911 0.849-1.911 1.853v2.132c0 0.989 0.857 1.794 1.911 1.794h2.369c0.217 0.523 0.723 0.885 1.315 0.886h0c0.783 0 1.419-0.637 1.419-1.42s-0.637-1.419-1.42-1.419c-0.545 0.001-1.018 0.309-1.256 0.76l-0.004 0.008h-2.424c-0.349 0-0.725-0.233-0.725-0.609v-2.132c0-0.349 0.346-0.667 0.725-0.667h6.785c0.359 0 0.64 0.293 0.64 0.667v6.785c0 0.378-0.293 0.698-0.64 0.698h-11.437c-0.355 0-0.667-0.327-0.667-0.698v-11.437c0-0.347 0.287-0.608 0.667-0.608z"></path>
</svg>
