<!-- Generated by IcoMoon.io -->
<svg version="1.1" xmlns="http://www.w3.org/2000/svg" width="16" height="16" viewBox="0 0 16 16">
<title>gumtree</title>
<path fill="#72ef36" d="M12.553 4.347c-0.126-0.085-0.21-0.21-0.21-0.38-0.211-2.236-2.068-3.967-4.347-3.967s-4.135 1.729-4.347 3.966c0 0.17-0.084 0.295-0.209 0.38-1.141 0.801-1.857 2.11-1.857 3.585 0 2.025 1.391 3.715 3.248 4.221 0.338 0.085 0.633 0.126 0.76 0.041 0.253-0.125 0.507-1.221 0.38-1.475-0.085-0.126-0.38-0.253-0.676-0.337-1.097-0.295-1.899-1.307-1.899-2.488 0-0.677 0.253-1.267 0.676-1.733 0.168-0.21 0.42-0.378 0.632-0.505 0.464-0.253 0.76-0.761 0.76-1.309 0-0.3 0.042-0.551 0.126-0.801 0.337-1.021 1.307-1.773 2.447-1.773 1.141 0 2.111 0.751 2.448 1.773 0.084 0.25 0.126 0.501 0.126 0.801 0 0.541 0.254 1.052 0.761 1.302 0.253 0.12 0.463 0.291 0.631 0.501 0.423 0.46 0.676 1.051 0.676 1.732 0 1.432-1.139 2.574-2.573 2.574-1.645 0-2.954 1.342-2.954 2.944v1.682c0 0.331 0.043 0.671 0.127 0.761 0.21 0.211 1.308 0.211 1.519 0 0.091-0.091 0.13-0.421 0.13-0.761v-1.722c0-0.631 0.511-1.142 1.142-1.142 2.403 0 4.347-1.943 4.347-4.347 0-1.442-0.711-2.744-1.853-3.545z"></path>
</svg>
