<!-- Generated by IcoMoon.io -->
<svg version="1.1" xmlns="http://www.w3.org/2000/svg" width="16" height="16" viewBox="0 0 16 16">
<title>gutenberg</title>
<path d="M9.626 7.572c-0.056-0.038-0.133-0.023-0.171 0.034-0.223 0.335-0.695 0.353-0.72 0.353-0.005 0-0.007 0-0.011 0-0.583 0-0.805 0.497-0.814 0.517-0.027 0.063 0.002 0.135 0.063 0.162 0.016 0.007 0.034 0.011 0.049 0.011 0.047 0 0.092-0.027 0.113-0.074 0.002-0.005 0.155-0.347 0.549-0.369v0.637c-0.016 0.137-0.081 0.245-0.196 0.326-0.119 0.083-0.279 0.126-0.475 0.126-0.234 0-0.425-0.081-0.567-0.241-0.144-0.16-0.216-0.387-0.216-0.679l0.002-0.702c0.011-0.259 0.081-0.463 0.214-0.609 0.144-0.16 0.333-0.241 0.567-0.241 0.196 0 0.355 0.043 0.475 0.126s0.187 0.198 0.198 0.347v0c0 0.005 0 0.011 0 0.016 0 0.085 0.070 0.155 0.155 0.155s0.155-0.070 0.155-0.155c0-0.005 0-0.011 0-0.016v0c-0.023-0.223-0.124-0.398-0.306-0.531-0.182-0.134-0.409-0.199-0.683-0.199-0.326 0-0.589 0.108-0.789 0.321-0.189 0.2-0.288 0.463-0.299 0.787v0 0c0 0.023-0.002 0.045-0.002 0.067l0.002 0.632h-0.002c0 0.357 0.101 0.643 0.301 0.857s0.463 0.321 0.789 0.321c0.275 0 0.501-0.065 0.684-0.198 0.167-0.121 0.265-0.281 0.299-0.479l0.007-0.706c0.205-0.049 0.483-0.162 0.659-0.427 0.044-0.055 0.029-0.132-0.030-0.17zM11.792 0.341h1.725c0.077 0 0.139-0.063 0.139-0.139s-0.063-0.139-0.139-0.139h-1.725c-0.077 0-0.139 0.063-0.139 0.139s0.063 0.139 0.139 0.139zM2.55 0.341h1.725c0.077 0 0.139-0.063 0.139-0.139s-0.063-0.139-0.139-0.139h-1.725c-0.077 0-0.139 0.063-0.139 0.139s0.061 0.139 0.139 0.139zM13.605 1.461c0.077 0 0.139 0.063 0.139 0.139s-0.063 0.139-0.139 0.139c-0.077 0-0.139-0.063-0.139-0.139s0.062-0.139 0.139-0.139zM7.993 1.022c0.077 0 0.139 0.063 0.139 0.139s-0.063 0.139-0.139 0.139-0.139-0.063-0.139-0.139 0.062-0.139 0.139-0.139zM5.407 1.603c0.002 0 0.005 0 0.007 0 0.524 0 0.758-0.329 0.936-0.634 0.059-0.101 0.275-0.439 0.58-0.526 0.378-0.11 0.781 0.065 0.938 0.409 0.023 0.049 0.072 0.079 0.121 0.081 0.002 0 0.005 0 0.007 0s0.005 0 0.009 0c0.049-0.002 0.099-0.031 0.121-0.081 0.157-0.344 0.56-0.519 0.938-0.409 0.306 0.090 0.522 0.425 0.58 0.526 0.178 0.308 0.411 0.634 0.943 0.634v0c0.319 0 0.697-0.239 0.803-0.695 0.088-0.378-0.074-0.72-0.427-0.893-0.070-0.034-0.153-0.007-0.187 0.063s-0.007 0.153 0.063 0.187c0.335 0.167 0.306 0.461 0.279 0.58-0.054 0.234-0.261 0.481-0.533 0.481-0.349 0-0.515-0.175-0.702-0.497-0.092-0.157-0.349-0.54-0.742-0.655-0.429-0.126-0.884 0.025-1.145 0.355-0.261-0.331-0.715-0.481-1.145-0.355-0.393 0.115-0.65 0.497-0.742 0.655-0.187 0.321-0.353 0.497-0.695 0.497-0.002 0-0.005 0-0.005 0-0.297-0.002-0.486-0.209-0.54-0.414-0.027-0.097-0.083-0.427 0.295-0.652 0.065-0.038 0.088-0.124 0.047-0.191-0.039-0.065-0.122-0.087-0.19-0.047-0.434 0.259-0.501 0.668-0.421 0.965 0.099 0.367 0.425 0.614 0.808 0.617zM7.997 14.733h0.003zM2.332 1.461c0.077 0 0.139 0.063 0.139 0.139s-0.063 0.139-0.139 0.139-0.14-0.062-0.14-0.139c0-0.077 0.063-0.139 0.14-0.139zM1.941 0.064c0.077 0 0.139 0.063 0.139 0.139s-0.063 0.139-0.139 0.139-0.14-0.062-0.14-0.139 0.063-0.139 0.14-0.139zM14.1 0.064c0.077 0 0.139 0.063 0.139 0.139s-0.063 0.139-0.139 0.139-0.139-0.063-0.139-0.139 0.062-0.139 0.139-0.139zM14.847 9c0.077 0 0.139 0.063 0.139 0.139s-0.063 0.139-0.139 0.139c-0.077 0-0.139-0.063-0.139-0.139s0.062-0.139 0.139-0.139zM14.287 12.19c0.077 0 0.139 0.063 0.139 0.139s-0.063 0.139-0.139 0.139-0.139-0.063-0.139-0.139c0-0.077 0.062-0.139 0.139-0.139zM13.391 12.588c0.077 0 0.139 0.063 0.139 0.139s-0.063 0.139-0.139 0.139c-0.077 0-0.139-0.063-0.139-0.139s0.063-0.139 0.139-0.139zM5.116 0.725c0 0.207 0.169 0.375 0.375 0.375s0.375-0.169 0.375-0.375-0.168-0.376-0.375-0.376c-0.207-0.002-0.376 0.167-0.376 0.376zM5.492 0.626c0.054 0 0.099 0.045 0.099 0.099s-0.045 0.099-0.099 0.099-0.099-0.045-0.099-0.099c-0.001-0.053 0.045-0.099 0.099-0.099zM10.553 1.101c0.207 0 0.375-0.169 0.375-0.375s-0.169-0.375-0.375-0.375-0.375 0.169-0.375 0.375 0.169 0.375 0.375 0.375zM10.553 0.626c0.054 0 0.099 0.045 0.099 0.099s-0.045 0.099-0.099 0.099-0.099-0.045-0.099-0.099c0-0.053 0.045-0.099 0.099-0.099zM8.373 0.959c-0.072 0.027-0.108 0.106-0.081 0.178s0.106 0.108 0.178 0.083c0.023-0.009 0.562-0.189 0.976 0.455 0.027 0.041 0.072 0.063 0.117 0.063 0.025 0 0.052-0.007 0.074-0.023 0.065-0.041 0.083-0.128 0.043-0.191-0.432-0.668-1.043-0.661-1.307-0.565zM7.622 0.959c-0.020-0.007-0.205-0.072-0.457-0.034-0.234 0.034-0.569 0.167-0.848 0.601-0.041 0.065-0.023 0.151 0.043 0.191 0.023 0.016 0.049 0.023 0.074 0.023 0.045 0 0.090-0.023 0.117-0.063 0.411-0.643 0.951-0.463 0.976-0.455 0.072 0.027 0.151-0.011 0.178-0.083s-0.011-0.153-0.083-0.18zM14.021 1.339l0.677-0.769v1.109c0 0.077 0.063 0.139 0.139 0.139s0.139-0.063 0.139-0.139v-1.475c0-0.059-0.036-0.11-0.090-0.131s-0.115-0.005-0.153 0.038l-0.92 1.046c-0.052 0.059-0.045 0.146 0.013 0.196 0.054 0.052 0.141 0.045 0.193-0.013zM1.178 1.821c0.077 0 0.139-0.063 0.139-0.139v-1.109l0.677 0.769c0.051 0.059 0.139 0.063 0.195 0.014 0.059-0.052 0.063-0.139 0.013-0.196l-0.92-1.048c-0.038-0.043-0.099-0.059-0.153-0.039s-0.090 0.072-0.090 0.131v1.478c0 0.076 0.061 0.139 0.137 0.139zM10.998 1.958c-0.065-0.005-0.126 0.041-0.142 0.103-0.016 0.065 0.016 0.133 0.074 0.16 0.221 0.103 0.421 0.144 0.601 0.144 0.344 0 0.619-0.151 0.81-0.308 0.306-0.252 0.463-0.569 0.47-0.583 0.031-0.065 0.009-0.144-0.054-0.18-0.142-0.083-0.387-0.135-0.76 0.092-0.187 0.115-0.331 0.252-0.355 0.277-0.342 0.301-0.627 0.295-0.643 0.295zM11.828 1.87c0.002-0.002 0.005-0.005 0.007-0.007 0.106-0.106 0.405-0.351 0.639-0.362-0.067 0.097-0.169 0.227-0.306 0.342-0.203 0.167-0.419 0.247-0.648 0.243 0.095-0.049 0.201-0.121 0.309-0.216zM3.305 1.294c-0.063 0.036-0.085 0.115-0.053 0.18 0.007 0.013 0.164 0.331 0.47 0.583 0.191 0.157 0.463 0.308 0.81 0.308 0.182 0 0.383-0.041 0.601-0.144 0.061-0.029 0.090-0.095 0.074-0.16s-0.075-0.107-0.142-0.105c-0.011 0-0.299 0.009-0.641-0.293-0.025-0.024-0.169-0.161-0.355-0.276-0.373-0.225-0.621-0.173-0.763-0.093zM4.237 1.87c0.106 0.095 0.211 0.164 0.308 0.216-0.486 0.005-0.807-0.367-0.954-0.585 0.234 0.011 0.533 0.257 0.639 0.362 0.003 0.002 0.005 0.005 0.007 0.007zM15.011 13.173c-0.139-0.117-0.293-0.185-0.434-0.223 0.054-0.041 0.106-0.088 0.151-0.139 0.344-0.405 0.347-1.001 0.005-1.388-0.052-0.059-0.139-0.063-0.196-0.011-0.059 0.052-0.063 0.139-0.011 0.196 0.25 0.283 0.245 0.722-0.009 1.023-0.207 0.243-0.601 0.301-0.717 0.315-0.353 0.038-0.749 0.119-0.963 0.603-0.034 0.074-0.054 0.157-0.059 0.247-0.049-0.016-0.103-0.025-0.157-0.025-0.281 0-0.511 0.229-0.511 0.511 0 0.193 0.108 0.362 0.267 0.447-0.047 0.043-0.092 0.090-0.133 0.144-0.473-0.637-1.228-1.037-2.060-1.037-0.119 0-0.239 0.009-0.353 0.025 0.684-0.209 1.32-0.535 1.901-0.967v0c0.749-0.56 1.372-1.291 1.799-2.112 0.45-0.864 0.677-1.797 0.677-2.769 0-0.007 0-0.011 0-0.018 0-0.002 0-0.002 0-0.005s0-0.005 0-0.007c-0.005-0.789-0.18-1.5-0.429-2.112 0.092 0.018 0.18 0.025 0.259 0.025 0.583 0 0.839-0.401 0.866-0.447v0c0.126-0.211 0.146-0.468 0.074-0.699 0.002-0.007 0.002-0.016 0.002-0.025v-2.535c0-0.077-0.063-0.139-0.139-0.139s-0.139 0.063-0.139 0.139v2.13c-0.236-0.205-0.578-0.227-0.72-0.227-0.275 0.002-0.445-0.041-0.571-0.257-0.106-0.182-0.045-0.371 0.061-0.479 0.133-0.135 0.321-0.153 0.506-0.052 0.067 0.036 0.153 0.013 0.189-0.054s0.013-0.153-0.054-0.189c-0.293-0.162-0.621-0.121-0.839 0.099-0.216 0.221-0.257 0.547-0.103 0.812 0.2 0.344 0.504 0.393 0.803 0.393 0.005 0 0.007 0 0.011 0 0.090 0 0.38 0.013 0.547 0.171 0.216 0.205 0.272 0.526 0.131 0.765 0 0-0.002 0.002-0.002 0.005-0.011 0.020-0.279 0.475-1.025 0.236-0.225-0.477-0.486-0.882-0.729-1.205l-0.111 0.085 0.11-0.085-0.045-0.059c-0.479-0.803 0.074-1.658 0.362-2.020l0.162-0.185c0.049-0.059 0.045-0.146-0.013-0.196-0.056-0.047-0.137-0.045-0.189 0.007v0c-0.005 0.005-0.029 0.029-0.067 0.072-0.25 0.254-1.226 1.154-2.173 0.684l-0.027-0.018-0.013-0.009c-0.848-0.457-1.685-0.72-2.483-0.787-0.103-0.236-0.241-0.416-0.414-0.416-0.175 0-0.313 0.182-0.419 0.423-1.118 0.049-2.508 0.771-2.567 0.801-0.952 0.48-1.933-0.425-2.183-0.679-0.038-0.043-0.065-0.067-0.067-0.072v0c-0.052-0.052-0.133-0.054-0.189-0.007-0.059 0.049-0.063 0.137-0.013 0.196v0 0 0l0.173 0.196c0.101 0.125 0.229 0.307 0.337 0.525 0.27 0.547 0.275 1.043 0.016 1.48-0.322 0.401-0.583 0.821-0.783 1.265-0.753 0.245-1.023-0.214-1.035-0.234 0-0.002-0.002-0.002-0.002-0.005-0.142-0.239-0.086-0.56 0.13-0.765 0.167-0.157 0.457-0.171 0.547-0.171h0.002c0.301 0 0.612-0.047 0.812-0.393 0.153-0.266 0.113-0.595-0.103-0.813-0.218-0.223-0.547-0.261-0.839-0.099-0.068 0.036-0.093 0.121-0.054 0.189 0.036 0.067 0.121 0.092 0.189 0.054 0.187-0.101 0.375-0.083 0.506 0.052 0.106 0.108 0.165 0.297 0.061 0.479-0.123 0.214-0.292 0.257-0.562 0.257-0.002 0-0.005 0-0.009 0-0.124 0-0.411 0.018-0.641 0.167v-2.031c0-0.077-0.063-0.139-0.139-0.139s-0.139 0.063-0.139 0.139v2.339c-0.153 0.274-0.162 0.609-0.005 0.879 0.015 0.029 0.112 0.191 0.328 0.313 0.124 0.069 0.301 0.135 0.538 0.135 0.085 0 0.18-0.009 0.281-0.029-0.243 0.652-0.365 1.354-0.369 2.119 0 0.002 0 0.002 0 0.005v0.002c0 0.007 0 0.013 0 0.018 0 1.381 0.486 2.737 1.367 3.819 0.781 0.958 1.842 1.669 3.019 2.031-0.124-0.018-0.25-0.027-0.375-0.027-0.825 0-1.575 0.393-2.047 1.021-0.038-0.049-0.081-0.097-0.128-0.137 0.149-0.090 0.25-0.252 0.25-0.439 0-0.281-0.229-0.511-0.511-0.511-0.052 0-0.101 0.009-0.149 0.023-0.007-0.088-0.027-0.171-0.059-0.245-0.216-0.483-0.609-0.565-0.963-0.603-0.117-0.013-0.511-0.072-0.717-0.315-0.261-0.295-0.265-0.733-0.016-1.017 0.052-0.059 0.045-0.146-0.011-0.196-0.059-0.052-0.146-0.045-0.196 0.011-0.339 0.387-0.337 0.983 0.005 1.388 0.045 0.054 0.097 0.099 0.151 0.139-0.142 0.038-0.295 0.108-0.434 0.223-0.331 0.272-0.499 0.727-0.504 1.345-0.011 0.056 0.013 0.115 0.063 0.146 0.023 0.013 0.047 0.020 0.072 0.020 0.009 0 0.020-0.002 0.029-0.005h0.002c0.005 0 0.007-0.002 0.011-0.005 0.007-0.002 0.016-0.005 0.023-0.009 0.002 0 0.002-0.002 0.005-0.002 0.023-0.013 0.043-0.031 0.056-0.054 0.054-0.070 0.277-0.157 0.461-0.196 0.722-0.157 0.873-0.645 0.85-0.879-0.007-0.077-0.074-0.133-0.151-0.126s-0.133 0.074-0.126 0.151c0 0.002 0.002 0.043-0.011 0.103-0.034 0.139-0.157 0.38-0.621 0.481-0.002 0-0.002 0-0.005 0-0.054 0.011-0.216 0.049-0.367 0.119 0.041-0.401 0.169-0.693 0.387-0.875 0.335-0.279 0.778-0.2 0.783-0.198 0.016 0.002 0.029 0.002 0.043 0 0.074 0.016 0.137 0.025 0.185 0.029 0.371 0.041 0.598 0.121 0.74 0.439 0.11 0.25-0.031 0.537-0.223 0.681-0.097 0.074-0.355 0.221-0.645-0.018-0.059-0.049-0.146-0.041-0.196 0.018s-0.041 0.146 0.018 0.196c0.131 0.108 0.277 0.171 0.427 0.189-0.193 0.157-0.324 0.355-0.383 0.459-0.189 0.326-0.342 0.501-0.596 0.504v-0.974c0-0.077-0.063-0.139-0.139-0.139s-0.139 0.063-0.139 0.139v1.129c0 0.056 0.034 0.103 0.081 0.126 0.025 0.018 0.054 0.031 0.085 0.031h3.239c0.049 0 0.090-0.025 0.117-0.063 0.018-0.018 0.034-0.041 0.041-0.067 0.128-0.497 0.576-0.843 1.089-0.843 0.459 0 0.866 0.279 1.039 0.695h-0.296c-0.121-0.299-0.414-0.499-0.745-0.499-0.362 0-0.681 0.245-0.778 0.594-0.020 0.074 0.025 0.151 0.097 0.171 0.074 0.020 0.151-0.025 0.171-0.097 0.063-0.229 0.272-0.389 0.509-0.389 0.175 0 0.333 0.085 0.429 0.221h-0.081c-0.077 0-0.139 0.063-0.139 0.139s0.063 0.139 0.139 0.139h0.281c0.005-0.001 0.011 0.001 0.016 0.001 0.007 0 0.013 0 0.018-0.002h0.558c0.077 0 0.139-0.063 0.139-0.139 0-0.007 0-0.013-0.002-0.020 0.002-0.018 0.002-0.038-0.002-0.059-0.164-0.609-0.722-1.035-1.354-1.035-0.612 0-1.149 0.396-1.336 0.974h-0.727c0.059-0.187 0.137-0.36 0.236-0.522 0.007-0.009 0.011-0.018 0.018-0.027 0.411-0.645 1.131-1.059 1.93-1.059 0.473 0 0.927 0.144 1.311 0.414 0.011 0.007 0.023 0.013 0.034 0.016 0.059 0.070 0.117 0.144 0.173 0.221 0.013 0.018 0.025 0.036 0.038 0.054-0.013 0.285 0.142 0.585 0.463 0.891 0.011 0.034 0.023 0.063 0.029 0.085v0.029c0 0.077 0.063 0.139 0.139 0.139 0.065 0 0.117-0.043 0.133-0.103v0c0-0.002 0.020-0.070 0.061-0.182 0.29-0.283 0.434-0.56 0.432-0.828 0.018-0.027 0.038-0.056 0.059-0.083 0.063-0.085 0.128-0.169 0.196-0.247 0.383-0.265 0.83-0.405 1.298-0.405 1.008 0 1.889 0.657 2.182 1.608h-0.727c-0.185-0.578-0.722-0.974-1.336-0.974-0.632 0-1.187 0.425-1.354 1.035-0.007 0.023-0.007 0.045 0 0.067 0 0.005 0 0.007 0 0.011 0 0.077 0.063 0.139 0.139 0.139h1.219c0.077 0 0.139-0.063 0.139-0.139s-0.063-0.139-0.139-0.139h-0.443c0.097-0.135 0.254-0.221 0.429-0.221 0.241 0 0.45 0.162 0.511 0.396 0.016 0.063 0.072 0.103 0.135 0.103 0.011 0 0.023-0.002 0.034-0.005 0.074-0.018 0.119-0.095 0.101-0.169-0.092-0.355-0.411-0.605-0.781-0.605-0.329 0-0.621 0.2-0.745 0.499h-0.281c0.171-0.416 0.58-0.695 1.039-0.695 0.513 0 0.961 0.347 1.089 0.843 0.002 0.011 0.009 0.023 0.013 0.034 0.018 0.056 0.070 0.097 0.133 0.097h3.3c0.077 0 0.139-0.063 0.139-0.139 0-0.002 0-0.007 0-0.009s0-0.007 0-0.009v-0.027c0.002-0.013 0.002-0.027 0.002-0.041 0-0.002 0-0.005-0.002-0.007v-1.055c0-0.077-0.063-0.139-0.139-0.139s-0.139 0.063-0.139 0.139v0.945c-0.234-0.018-0.38-0.191-0.56-0.501-0.059-0.099-0.18-0.285-0.36-0.439 0.124-0.027 0.243-0.085 0.353-0.178 0.059-0.049 0.067-0.137 0.018-0.196s-0.137-0.067-0.196-0.018c-0.288 0.239-0.547 0.092-0.645 0.018-0.191-0.144-0.333-0.434-0.223-0.681 0.142-0.317 0.369-0.401 0.74-0.439 0.047-0.005 0.11-0.013 0.185-0.029 0.013 0.002 0.029 0.002 0.045 0 0.005 0 0.443-0.081 0.781 0.198 0.221 0.182 0.351 0.475 0.389 0.877-0.153-0.072-0.317-0.11-0.369-0.121-0.002 0-0.002 0-0.005 0-0.461-0.101-0.587-0.339-0.621-0.479-0.013-0.059-0.013-0.099-0.011-0.103 0.007-0.077-0.049-0.144-0.126-0.151s-0.144 0.049-0.151 0.126c-0.023 0.236 0.128 0.722 0.853 0.879 0.187 0.041 0.423 0.133 0.465 0.203 0 0 0 0.002 0.002 0.002 0.007 0.009 0.013 0.018 0.020 0.025 0.002 0.002 0.005 0.002 0.007 0.005 0.007 0.005 0.013 0.011 0.020 0.013 0.002 0.002 0.007 0.005 0.009 0.005 0.007 0.005 0.013 0.007 0.020 0.009 0.002 0 0.007 0.002 0.009 0.002 0.009 0.002 0.020 0.005 0.031 0.005v0c0.009 0 0.016 0 0.025-0.002 0.002 0 0.005 0 0.007-0.002 0.007-0.002 0.013-0.005 0.023-0.007h0.002c0.007-0.002 0.011-0.007 0.018-0.009l0.002-0.002c0.005-0.002 0.009-0.007 0.011-0.009s0.007-0.005 0.009-0.009c0.002-0.002 0.007-0.007 0.009-0.009 0.002-0.005 0.007-0.007 0.009-0.011s0.005-0.007 0.007-0.011 0.005-0.007 0.007-0.011 0.002-0.009 0.005-0.013c0.002-0.005 0.002-0.009 0.005-0.013 0-0.005 0.002-0.009 0.002-0.011 0-0.005 0.002-0.009 0.002-0.016v-0.005c-0.001-0.636-0.171-1.097-0.507-1.374zM3.339 15.717h-1.464c0.124-0.126 0.211-0.277 0.279-0.393 0.059-0.101 0.275-0.439 0.58-0.526 0.36-0.106 0.697 0.018 0.864 0.303-0.11 0.191-0.198 0.398-0.259 0.616zM3.377 14.509c-0.128 0-0.232-0.103-0.232-0.232s0.103-0.232 0.232-0.232c0.128 0 0.232 0.103 0.232 0.232s-0.106 0.232-0.232 0.232zM11.623 12.752v0l0.020 0.025zM11.628 12.613c-1.313-0.153-2.263 0.411-2.829 0.911-0.245 0.216-0.439 0.439-0.585 0.627-0.027-0.018-0.052-0.036-0.074-0.047v-0.396c1.064-1.069 2.121-1.388 2.823-1.467 0.465-0.052 0.841-0.009 1.066 0.034-0.129 0.12-0.261 0.232-0.401 0.338zM13.277 10.651c-0.135 0.259-0.29 0.506-0.461 0.745-0.178-0.056-0.401-0.108-0.668-0.133 0.596-0.756 0.974-1.658 1.095-2.609 0.193-0.023 0.461-0.106 0.666-0.239-0.054 0.781-0.265 1.532-0.632 2.236zM12.33 8.141l0.162-0.007c0.054 0.241 0.236 0.434 0.475 0.499-0.126 0.963-0.526 1.871-1.165 2.613-0.308 0-0.666 0.036-1.071 0.124 0.945-0.769 1.561-1.928 1.599-3.23zM9.687 11.695c-0.090 0.036-0.153 0.065-0.185 0.079-0.373 0.149-0.774 0.245-1.192 0.277l3.731-3.731c-0.112 1.503-1.048 2.776-2.355 3.376zM13.922 7.991c-0.005 0.126-0.349 0.331-0.652 0.38-0.043 0.007-0.085 0.011-0.126 0.011-0.054 0-0.106-0.011-0.153-0.031-0.142-0.061-0.241-0.2-0.241-0.362s0.099-0.301 0.241-0.362c0.047-0.020 0.099-0.031 0.153-0.031 0.041 0 0.083 0.005 0.126 0.011 0.303 0.049 0.645 0.254 0.652 0.378 0 0.001 0 0.003 0 0.006zM12.62 4.432l0.059 0.079c0.511 0.681 1.109 1.737 1.223 3.050-0.203-0.131-0.468-0.214-0.659-0.236-0.144-1.138-0.65-2.166-1.399-2.96 0.031-0.065 0.049-0.139 0.049-0.216 0-0.103-0.031-0.2-0.083-0.279l0.639-0.729c-0.121 0.463-0.062 0.901 0.172 1.291zM10.755 2.855l0.029 0.020 0.015 0.009c0.223 0.113 0.461 0.169 0.709 0.169 0.261 0 0.533-0.063 0.807-0.189l-0.72 0.821c-0.065-0.031-0.137-0.047-0.216-0.047-0.101 0-0.193 0.029-0.272 0.079-0.709-0.517-1.547-0.861-2.461-0.974-0.023-0.164-0.067-0.398-0.135-0.627 0.722 0.081 1.475 0.329 2.243 0.74zM11.615 4.149c0 0.101-0.067 0.189-0.16 0.221-0.023 0.007-0.047 0.011-0.072 0.011-0.007 0-0.016 0-0.023 0-0.103-0.009-0.187-0.088-0.205-0.187-0.002-0.013-0.005-0.029-0.005-0.043 0-0.016 0.002-0.029 0.005-0.045 0.020-0.101 0.106-0.18 0.211-0.187 0.005 0 0.011 0 0.016 0s0.009 0 0.013 0c0.103 0.007 0.191 0.081 0.214 0.18 0.002 0.013 0.005 0.025 0.005 0.038-0.003 0.001 0 0.006 0 0.011zM8.659 3.026c0.837 0.11 1.611 0.429 2.265 0.902-0.034 0.067-0.052 0.142-0.052 0.223 0 0.101 0.029 0.193 0.081 0.275l-1.12 1.277c-0.052 0.059-0.045 0.146 0.013 0.196 0.027 0.023 0.059 0.034 0.092 0.034 0.038 0 0.077-0.016 0.106-0.047l1.118-1.275c0.067 0.034 0.142 0.052 0.223 0.052 0.103 0 0.198-0.031 0.277-0.083 0.697 0.747 1.167 1.705 1.307 2.767-0.241 0.067-0.427 0.265-0.477 0.513l-0.16 0.007c-0.034-1.028-0.432-2.009-1.127-2.771-0.052-0.056-0.139-0.061-0.196-0.009s-0.061 0.139-0.009 0.196c0.612 0.67 0.976 1.521 1.046 2.42l-1.496-1.491c-0.054-0.054-0.142-0.054-0.196 0s-0.054 0.142 0 0.196l1.606 1.606-3.959 3.959-3.959-3.959 1.593-1.593c0.054-0.054 0.054-0.142 0-0.196s-0.142-0.054-0.196 0l-1.477 1.477c0.079-1.023 0.537-1.943 1.237-2.613l0.697 0.796c0.027 0.031 0.065 0.047 0.106 0.047 0.031 0 0.065-0.011 0.092-0.034 0.059-0.052 0.063-0.139 0.013-0.196l-0.7-0.798c0.63-0.526 1.419-0.866 2.285-0.931l-1.187 1.177c-0.054 0.054-0.054 0.142 0 0.196 0.027 0.027 0.063 0.041 0.099 0.041s0.070-0.013 0.099-0.041l1.305-1.291 1.267 1.267c0.054 0.054 0.142 0.054 0.196 0s0.054-0.142 0-0.196l-1.151-1.151c0.713 0.054 1.392 0.293 1.984 0.699 0.063 0.043 0.151 0.027 0.193-0.036s0.027-0.151-0.036-0.193c-0.684-0.47-1.48-0.731-2.312-0.756v-0.099c0.26-0.063 0.469-0.285 0.509-0.56zM4.595 4.697c0.079 0 0.153-0.018 0.218-0.049l0.2 0.229c-0.794 0.758-1.3 1.813-1.341 2.985l-0.113-0.007c-0.054-0.263-0.259-0.47-0.522-0.524 0.137-1.041 0.596-1.981 1.271-2.719 0.084 0.054 0.181 0.085 0.287 0.085zM4.363 4.189c0-0.011 0-0.020 0.002-0.031 0-0.007 0.002-0.011 0.002-0.018 0.020-0.099 0.106-0.175 0.209-0.182 0.005 0 0.009 0 0.011 0s0.002 0 0.005 0c0.106 0 0.196 0.072 0.223 0.171 0.005 0.020 0.009 0.041 0.009 0.061 0 0.016-0.002 0.031-0.005 0.047-0.020 0.099-0.106 0.175-0.209 0.182-0.007 0-0.011 0-0.018 0-0.029 0-0.059-0.007-0.083-0.016-0.082-0.031-0.145-0.117-0.145-0.213zM3.557 8.134l0.115 0.007c0.038 1.305 0.657 2.465 1.604 3.235-0.407-0.090-0.765-0.126-1.075-0.128-0.634-0.74-1.037-1.644-1.163-2.603 0.259-0.054 0.463-0.254 0.519-0.511zM3.96 8.319l3.731 3.731c-1.988-0.151-3.581-1.743-3.731-3.731zM7.62 2.718c0.061-0.421 0.267-0.983 0.375-1.028 0.124 0.047 0.315 0.63 0.373 1.025 0.011 0.079 0.018 0.151 0.018 0.21 0 0.025-0.002 0.047-0.007 0.070-0.034 0.182-0.193 0.321-0.387 0.321s-0.353-0.139-0.387-0.321c-0.005-0.023-0.007-0.047-0.007-0.070 0.002-0.061 0.009-0.131 0.020-0.207zM7.863 3.584v0.097c-1.003 0.031-1.921 0.407-2.641 1.010l-0.198-0.227c0.052-0.079 0.083-0.175 0.083-0.277 0-0.085-0.023-0.167-0.059-0.236 0.659-0.483 1.439-0.81 2.287-0.925 0.039 0.279 0.252 0.504 0.527 0.558zM4.428 3.053c0.247 0 0.486-0.056 0.711-0.169 0.013-0.007 1.298-0.675 2.337-0.765-0.067 0.227-0.113 0.463-0.135 0.625-0.924 0.115-1.777 0.472-2.49 1.003-0.076-0.045-0.162-0.069-0.256-0.069-0.079 0-0.153 0.018-0.218 0.049l-0.756-0.861c0.277 0.123 0.547 0.187 0.807 0.187zM3.305 4.445l0.011-0.016c0.234-0.387 0.293-0.828 0.175-1.291l0.675 0.771c-0.051 0.079-0.083 0.176-0.083 0.277 0 0.074 0.016 0.144 0.045 0.209-0.735 0.792-1.231 1.809-1.372 2.933-0.2 0.031-0.465 0.117-0.666 0.245 0.079-1.188 0.477-2.216 1.215-3.129zM2.080 7.986c0.005-0.131 0.367-0.311 0.652-0.369 0.063-0.013 0.121-0.020 0.171-0.020 0.038 0 0.072 0.005 0.108 0.016 0.164 0.047 0.285 0.198 0.285 0.378s-0.121 0.331-0.285 0.378c-0.034 0.009-0.070 0.016-0.108 0.016-0.052 0-0.11-0.007-0.171-0.020-0.285-0.061-0.648-0.241-0.652-0.371 0-0.006 0-0.006 0-0.008zM2.093 8.4c0.2 0.131 0.468 0.216 0.666 0.247 0.119 0.954 0.497 1.858 1.095 2.613-0.267 0.025-0.491 0.074-0.67 0.131-0.646-0.886-1.019-1.91-1.091-2.991zM3.385 11.652c-0.007-0.009-0.013-0.016-0.020-0.025 0.677-0.187 1.417-0.088 1.937 0.036 0.627 0.151 1.087 0.369 1.091 0.371l0.002-0.005c0.497 0.198 1.039 0.308 1.606 0.308 0.565 0 1.105-0.108 1.599-0.306v0c0 0 0.005-0.002 0.013-0.007 0.059-0.025 0.119-0.049 0.175-0.077 0.191-0.079 0.513-0.196 0.9-0.288 0.524-0.126 1.267-0.225 1.943-0.036-0.117 0.144-0.239 0.281-0.369 0.414-0.189-0.052-0.67-0.151-1.32-0.081-0.706 0.077-1.745 0.378-2.807 1.359v-0.245c0-0.077-0.063-0.139-0.139-0.139s-0.139 0.063-0.139 0.139v0.232c-1.055-0.969-2.089-1.269-2.791-1.345-0.666-0.072-1.154 0.036-1.331 0.085-0.118-0.121-0.237-0.254-0.349-0.391zM3.976 12.277c0.225-0.045 0.605-0.090 1.079-0.036 1.249 0.139 2.207 0.853 2.807 1.451v0.407c-0.020 0.011-0.043 0.025-0.067 0.043-0.146-0.187-0.337-0.405-0.578-0.616-0.567-0.501-1.521-1.069-2.839-0.911v0.002c-0.139-0.108-0.275-0.221-0.403-0.34zM7.469 14.482c-0.263-0.337-0.551-0.591-0.839-0.783l0.002-0.007c-0.007-0.002-0.013-0.005-0.020-0.005-0.479-0.313-0.961-0.45-1.347-0.506-0.182-0.095-0.362-0.2-0.535-0.315 0.848-0.025 1.617 0.263 2.297 0.859 0.234 0.205 0.419 0.416 0.558 0.598-0.043 0.047-0.082 0.099-0.115 0.157zM8.141 15.325c-0.034 0.041-0.070 0.081-0.11 0.121-0.009 0.009-0.020 0.020-0.031 0.029l-0.004 0.004v-0.005c-0.005-0.005-0.011-0.009-0.016-0.016-0.045-0.043-0.083-0.085-0.119-0.128-0.164-0.196-0.236-0.378-0.211-0.544 0.002-0.013 0.005-0.027 0.009-0.041 0.018-0.072 0.052-0.135 0.092-0.189 0.034-0.045 0.072-0.083 0.11-0.117 0.034-0.029 0.067-0.054 0.097-0.074 0.013-0.009 0.025-0.016 0.036-0.023 0 0 0.002 0 0.002-0.002h0.002c0.016 0.009 0.031 0.020 0.052 0.034 0.027 0.018 0.059 0.043 0.090 0.070 0.041 0.036 0.081 0.079 0.115 0.126 0.041 0.059 0.074 0.124 0.088 0.198 0 0.005 0.002 0.011 0.005 0.016 0.025 0.163-0.045 0.343-0.205 0.539zM8.691 14.311c-0.005 0.005-0.009 0.009-0.011 0.013-0.052 0.059-0.099 0.117-0.142 0.173-0.034-0.059-0.072-0.113-0.113-0.16 0.139-0.182 0.329-0.401 0.567-0.609 0.675-0.594 1.442-0.882 2.283-0.861-0.175 0.115-0.355 0.223-0.54 0.317-0.963 0.146-1.621 0.645-2.044 1.127zM12.615 14.045c0.128 0 0.232 0.103 0.232 0.232s-0.103 0.232-0.232 0.232-0.232-0.103-0.232-0.232c0.001-0.126 0.104-0.232 0.232-0.232zM13.317 14.767c0.306 0.090 0.522 0.425 0.58 0.526 0.072 0.126 0.169 0.293 0.311 0.423h-1.555c-0.059-0.211-0.142-0.411-0.247-0.596 0.171-0.305 0.553-0.458 0.911-0.353zM1.466 4.997c0 0.227 0.185 0.414 0.414 0.414s0.413-0.185 0.413-0.414c0-0.227-0.185-0.414-0.414-0.414s-0.413 0.187-0.413 0.414zM2.015 4.997c0 0.074-0.061 0.135-0.135 0.135s-0.135-0.061-0.135-0.135 0.061-0.135 0.135-0.135c0.074-0.001 0.135 0.061 0.135 0.135zM14.491 4.997c0-0.227-0.185-0.414-0.414-0.414-0.227 0-0.414 0.185-0.414 0.414 0 0.227 0.185 0.414 0.414 0.414s0.414-0.185 0.414-0.414zM13.943 4.997c0-0.074 0.061-0.135 0.135-0.135s0.135 0.061 0.135 0.135-0.061 0.135-0.135 0.135c-0.074 0.003-0.135-0.058-0.135-0.135zM14.889 6.027c-0.052-0.020-0.113-0.009-0.153 0.031-0.182 0.187-0.481 0.18-0.486 0.18-0.002 0-0.005 0-0.005 0-0.074 0-0.135 0.059-0.139 0.133-0.002 0.077 0.056 0.142 0.133 0.144 0.013 0 0.234 0.007 0.459-0.097v2.269c0 0.077 0.063 0.139 0.139 0.139s0.139-0.063 0.139-0.139v-2.533c-0.002-0.056-0.035-0.108-0.087-0.128zM1.153 8.827c0.077 0 0.139-0.063 0.139-0.139v-2.27c0.225 0.103 0.445 0.097 0.459 0.097 0.077-0.002 0.137-0.067 0.133-0.144-0.002-0.076-0.067-0.137-0.144-0.133-0.002 0-0.303 0.007-0.486-0.18-0.040-0.040-0.099-0.051-0.153-0.031-0.052 0.020-0.085 0.072-0.085 0.128v2.535c-0.003 0.077 0.061 0.138 0.137 0.138zM14.999 11.141c0-0.077-0.063-0.139-0.139-0.139h-0.9c-0.077 0-0.139 0.063-0.139 0.139s0.063 0.139 0.139 0.139h0.9c0.077 0.001 0.139-0.061 0.139-0.139zM14.066 11.675c0.077 0 0.139-0.063 0.139-0.139s-0.063-0.139-0.139-0.139h-0.347c-0.077 0-0.139 0.063-0.139 0.139s0.063 0.139 0.139 0.139zM14.403 11.931c0-0.077-0.063-0.139-0.139-0.139h-0.859c-0.077 0-0.139 0.063-0.139 0.139s0.063 0.139 0.139 0.139h0.859c0.077 0 0.139-0.061 0.139-0.139zM13.859 12.329c0-0.077-0.063-0.139-0.139-0.139h-0.673c-0.077 0-0.139 0.063-0.139 0.139s0.063 0.139 0.139 0.139h0.673c0.076 0 0.139-0.063 0.139-0.139zM12.611 12.588c-0.077 0-0.139 0.063-0.139 0.139s0.063 0.139 0.139 0.139h0.383c0.077 0 0.139-0.063 0.139-0.139s-0.063-0.139-0.139-0.139zM14.86 10.208h-0.501c-0.077 0-0.139 0.063-0.139 0.139s0.063 0.139 0.139 0.139h0.501c0.077 0 0.139-0.063 0.139-0.139s-0.063-0.139-0.139-0.139zM14.86 10.606h-0.699c-0.077 0-0.139 0.063-0.139 0.139s0.063 0.139 0.139 0.139h0.699c0.077 0 0.139-0.063 0.139-0.139s-0.063-0.139-0.139-0.139zM14.86 9.414h-0.223c-0.077 0-0.139 0.063-0.139 0.139s0.063 0.139 0.139 0.139h0.223c0.077 0 0.139-0.063 0.139-0.139s-0.063-0.139-0.139-0.139zM14.86 9.812h-0.342c-0.077 0-0.139 0.063-0.139 0.139s0.063 0.139 0.139 0.139h0.342c0.077 0 0.139-0.063 0.139-0.139s-0.063-0.139-0.139-0.139zM1.149 9.007c0.077 0 0.139 0.063 0.139 0.139s-0.063 0.139-0.139 0.139c-0.077 0-0.139-0.063-0.139-0.139s0.062-0.139 0.139-0.139zM1.711 12.194c0.077 0 0.139 0.063 0.139 0.139s-0.063 0.139-0.139 0.139c-0.077 0-0.139-0.063-0.139-0.139s0.063-0.139 0.139-0.139zM2.606 12.593c0.077 0 0.139 0.063 0.139 0.139s-0.063 0.139-0.139 0.139-0.139-0.063-0.139-0.139c0-0.077 0.063-0.139 0.139-0.139zM1.135 11.285h0.9c0.077 0 0.139-0.063 0.139-0.139s-0.063-0.139-0.14-0.139h-0.9c-0.077 0-0.139 0.063-0.139 0.139 0 0.079 0.063 0.139 0.14 0.139zM2.275 11.403h-0.347c-0.077 0-0.139 0.063-0.139 0.139s0.063 0.139 0.139 0.139h0.347c0.077 0 0.139-0.063 0.139-0.139s-0.063-0.139-0.139-0.139zM2.591 11.799h-0.859c-0.077 0-0.139 0.063-0.139 0.139s0.063 0.139 0.139 0.139h0.859c0.077 0 0.139-0.063 0.139-0.139 0-0.079-0.063-0.139-0.139-0.139zM2.948 12.194h-0.673c-0.077 0-0.139 0.063-0.139 0.139s0.063 0.139 0.139 0.139h0.673c0.077 0 0.139-0.063 0.139-0.139s-0.063-0.139-0.139-0.139zM2.863 12.732c0 0.077 0.063 0.139 0.139 0.139h0.383c0.077 0 0.139-0.063 0.139-0.139s-0.063-0.139-0.139-0.139h-0.383c-0.077 0-0.139 0.063-0.139 0.139zM1.135 10.491h0.501c0.077 0 0.139-0.063 0.139-0.139s-0.063-0.139-0.139-0.139h-0.501c-0.077 0-0.139 0.063-0.139 0.139s0.063 0.139 0.139 0.139zM1.135 10.89h0.699c0.077 0 0.139-0.063 0.139-0.139s-0.063-0.139-0.139-0.139h-0.699c-0.077 0-0.139 0.063-0.139 0.139s0.063 0.139 0.139 0.139zM1.135 9.697h0.223c0.077 0 0.139-0.063 0.139-0.139s-0.063-0.139-0.139-0.139h-0.223c-0.077 0-0.139 0.063-0.139 0.139s0.063 0.139 0.139 0.139zM1.135 10.093h0.342c0.077 0 0.139-0.063 0.139-0.139s-0.063-0.139-0.139-0.139h-0.342c-0.077 0-0.139 0.063-0.139 0.139-0.001 0.079 0.063 0.139 0.139 0.139zM7.997 15.478v0c0.002-0.002 0-0.002 0-0.005zM14.323 2.783c0.002 0 0.002 0 0 0 0.063 0 0.119-0.043 0.135-0.106 0.049-0.198 0.029-0.367-0.065-0.506-0.151-0.225-0.427-0.267-0.459-0.272-0.072-0.009-0.139 0.036-0.155 0.108-0.052 0.236-0.023 0.425 0.090 0.565 0.167 0.202 0.427 0.209 0.455 0.211zM14.165 2.329c0.027 0.043 0.043 0.092 0.043 0.151-0.041-0.016-0.085-0.041-0.117-0.081-0.036-0.045-0.054-0.103-0.054-0.178 0.045 0.023 0.094 0.059 0.128 0.108zM13.419 0.773c-0.151-0.225-0.427-0.267-0.459-0.272-0.072-0.009-0.139 0.036-0.155 0.108-0.052 0.236-0.023 0.425 0.090 0.565 0.162 0.203 0.423 0.209 0.452 0.209v0c0.063 0 0.119-0.043 0.135-0.106 0.052-0.194 0.031-0.365-0.063-0.504zM13.115 0.999c-0.036-0.045-0.054-0.103-0.054-0.178 0.047 0.023 0.097 0.059 0.128 0.108 0.027 0.043 0.043 0.092 0.043 0.151-0.040-0.015-0.085-0.040-0.117-0.081zM2.089 1.899c-0.031 0.005-0.306 0.047-0.459 0.272-0.092 0.139-0.115 0.308-0.065 0.506 0.016 0.061 0.072 0.106 0.135 0.106v0c0.029 0 0.29-0.007 0.452-0.209 0.112-0.139 0.141-0.331 0.090-0.565-0.014-0.072-0.081-0.119-0.153-0.11zM1.938 2.399c-0.031 0.041-0.077 0.065-0.119 0.081 0-0.059 0.016-0.11 0.043-0.151 0.034-0.049 0.083-0.085 0.128-0.108 0.001 0.075-0.017 0.133-0.051 0.178zM3.043 0.5c-0.031 0.005-0.306 0.047-0.459 0.273-0.092 0.139-0.115 0.308-0.065 0.506 0.015 0.061 0.072 0.105 0.135 0.105v0c0.029 0 0.29-0.007 0.452-0.209 0.113-0.139 0.142-0.331 0.090-0.565-0.015-0.071-0.081-0.119-0.153-0.11zM2.889 0.999c-0.031 0.041-0.076 0.065-0.119 0.081 0-0.059 0.016-0.11 0.043-0.151 0.033-0.049 0.083-0.085 0.128-0.108 0 0.074-0.016 0.133-0.052 0.177zM12.386 7.041c0.009 0.072 0.067 0.124 0.137 0.124 0.005 0 0.011 0 0.016 0 0.077-0.009 0.131-0.079 0.121-0.155-0.139-1.215-0.969-2.074-1.005-2.11-0.054-0.054-0.142-0.056-0.196-0.002s-0.056 0.142-0.002 0.196c0.009 0.008 0.801 0.829 0.929 1.947zM3.479 7.163c0.005 0 0.011 0 0.016 0 0.070 0 0.131-0.052 0.137-0.124 0.128-1.117 0.92-1.939 0.927-1.945 0.054-0.054 0.052-0.144-0.002-0.196-0.055-0.054-0.145-0.054-0.196 0.003-0.036 0.036-0.864 0.895-1.005 2.11-0.007 0.076 0.047 0.143 0.123 0.153z"></path>
</svg>
