<!-- Generated by IcoMoon.io -->
<svg version="1.1" xmlns="http://www.w3.org/2000/svg" width="16" height="16" viewBox="0 0 16 16">
<title>habr</title>
<path fill="#77a2b6" d="M0 0v16h16v-16zM4.683 2.667h1.089c0.813 0 1.093 0.019 1.112 0.075 0.013 0.044 0.019 0.913 0.019 1.931l-0.005 1.855 0.317-0.281c0.438-0.387 0.808-0.525 1.508-0.549 0.463-0.013 0.649 0.006 0.973 0.119 0.707 0.237 1.207 0.725 1.469 1.444 0.1 0.281 0.113 0.575 0.131 2.857l0.020 2.549h-2.225v-2.081c0-2.050-0.007-2.075-0.145-2.325-0.193-0.331-0.406-0.481-0.737-0.519-0.569-0.062-0.962 0.131-1.187 0.593-0.107 0.213-0.119 0.437-0.125 2.237-0.007 1.1-0.020 2.020-0.020 2.045-0.005 0.031-0.5 0.049-1.1 0.049h-1.093v-5z"></path>
</svg>
