<!-- Generated by IcoMoon.io -->
<svg version="1.1" xmlns="http://www.w3.org/2000/svg" width="16" height="16" viewBox="0 0 16 16">
<title>hackerearth</title>
<path fill="#323754" d="M13.989 0.001h-7.65v4.329h0.073c0.447-0.57 1.135-0.933 1.909-0.933 0.164 0 0.324 0.016 0.478 0.047l-0.015-0.003-0.015-0.003c1.311 0.096 2.607 0.891 2.68 3.439v5.036c-0.004 0.104-0.087 0.187-0.191 0.191l-0 0h-1.407c-0.106 0-0.191-0.086-0.191-0.191v0-4.881c0-1.185-0.39-2.076-1.561-2.076h-0.025c-0.959 0-1.737 0.778-1.737 1.737 0 0.041 0.001 0.081 0.004 0.121l-0-0.005v-0.005 5.11c0 0.106-0.086 0.191-0.191 0.191v0h-1.399c-0.106 0-0.191-0.086-0.191-0.191v0-11.913l-2.474-0.001c-0.549 0-0.995 0.435-1.015 0.979v13.991c0.020 0.571 0.487 1.027 1.060 1.031h11.861c0.525-0.016 0.944-0.445 0.944-0.972 0-0.022-0.001-0.043-0.002-0.065l0 0.003v0.003-13.989c0.001-0.018 0.002-0.038 0.002-0.059 0-0.508-0.412-0.92-0.92-0.92v0l-0.025 0.001zM12.295 13.99h-8.592v-0.883h8.592z"></path>
</svg>
