<!-- Generated by IcoMoon.io -->
<svg version="1.1" xmlns="http://www.w3.org/2000/svg" width="16" height="16" viewBox="0 0 16 16">
<title>hackster</title>
<path fill="#1bacf7" d="M12.283 6.899c0.175 0 0.32 0.139 0.32 0.319v1.437c0 0.213 0.173 0.388 0.387 0.388h2.84c0.197 0 0.237 0.284 0.045 0.336l-5.712 1.645c-0.165 0.049-0.339-0.045-0.387-0.211-0.009-0.029-0.014-0.059-0.013-0.089v-1.501c-0.001-0.077-0.063-0.139-0.139-0.14h-6.263c-0.076-0.001-0.138-0.062-0.139-0.138v-1.687c0.001-0.235-0.187-0.429-0.423-0.433l-2.665-0.047c-0.157-0.007-0.185-0.227-0.035-0.272l5.84-1.686c0.074-0.019 0.15 0.025 0.169 0.097 0.003 0.011 0.005 0.022 0.005 0.035v1.627c0 0.173 0.145 0.319 0.319 0.319zM5.859 3.029c0.203-0.035 0.25 0.232 0.25 0.232s0.017 0.631 0 0.892c-0.018 0.26-0.255 0.25-0.255 0.25h-2.317c0 0-0.21-0.075-0.238-0.348-0.035-0.272 0.289-0.424 0.289-0.424s2.069-0.567 2.27-0.602zM9.782 2.293c0 0-0.030-0.307 0.314-0.44 0.341-0.127 2.179-0.603 2.179-0.603s0.341-0.133 0.365 0.314c0.023 0.445 0 4.119 0 4.119s0.012 0.301-0.313 0.324c-0.325 0.023-2.15 0-2.15 0s-0.395 0.035-0.395-0.278zM9.834 11.847c0.017-0.261 0.255-0.25 0.25-0.256h2.317c0 0 0.203 0.075 0.238 0.348s-0.291 0.423-0.291 0.423-2.068 0.567-2.271 0.601c-0.203 0.041-0.243-0.226-0.243-0.226s-0.017-0.63 0-0.891zM6.155 13.707c0 0 0.034 0.307-0.314 0.44-0.342 0.127-2.179 0.602-2.179 0.602s-0.343 0.134-0.365-0.313c-0.023-0.445 0-4.119 0-4.119s-0.012-0.301 0.313-0.324 2.15 0 2.15 0 0.353-0.035 0.395 0.278c0.039 0.307 0 0.527 0 0.527z"></path>
</svg>
