<!-- Generated by IcoMoon.io -->
<svg version="1.1" xmlns="http://www.w3.org/2000/svg" width="16" height="16" viewBox="0 0 16 16">
<title>hackerone</title>
<path fill="#494649" d="M4.805 0c-0.322 0-0.585 0.068-0.788 0.2-0.203 0.134-0.306 0.308-0.306 0.52v14.539c0 0.184 0.105 0.352 0.317 0.507 0.21 0.156 0.469 0.233 0.778 0.233 0.295 0 0.554-0.078 0.779-0.233 0.223-0.154 0.337-0.323 0.337-0.507v-14.538c0-0.213-0.108-0.385-0.326-0.521-0.218-0.132-0.481-0.2-0.79-0.2zM11.154 5.775c-0.322 0-0.581 0.065-0.779 0.2l-2.959 1.855c-0.133 0.124-0.189 0.312-0.165 0.57 0.023 0.255 0.141 0.498 0.349 0.727 0.21 0.231 0.444 0.375 0.712 0.436 0.264 0.060 0.465 0.027 0.597-0.095l1.17-0.73v6.521c0 0.184 0.101 0.352 0.307 0.507 0.2 0.156 0.458 0.233 0.767 0.233s0.575-0.078 0.799-0.233c0.225-0.155 0.337-0.323 0.337-0.507v-8.767c0-0.213-0.11-0.385-0.327-0.517-0.217-0.135-0.486-0.2-0.81-0.2z"></path>
</svg>
