<!-- Generated by IcoMoon.io -->
<svg version="1.1" xmlns="http://www.w3.org/2000/svg" width="16" height="16" viewBox="0 0 16 16">
<title>hackaday</title>
<path d="M0 2.749c0-0.136 0.014-0.267 0.040-0.397l1.304 1.156 1.429-1.587-1.276-1.135c0.173-0.048 0.353-0.076 0.541-0.076 1.12 0.001 2.029 0.905 2.039 2.024v0.015c0 0.101-0.008 0.203-0.022 0.3l1.59 1.408c-0.572 0.444-1.028 1.012-1.33 1.666l-0.012 0.028-1.649-1.459c-0.184 0.061-0.396 0.096-0.616 0.097h-0c-1.126-0.001-2.038-0.913-2.039-2.039v-0zM13.961 11.212c-0.204 0-0.401 0.030-0.587 0.086l-1.539-1.363c-0.267 0.714-0.681 1.318-1.209 1.801l-0.004 0.003 1.329 1.177c-0.018 0.1-0.029 0.216-0.029 0.334v0.001c0.001 1.126 0.914 2.038 2.040 2.038 0.208 0 0.409-0.031 0.598-0.089l-0.014 0.004-1.328-1.18 1.427-1.577 1.321 1.173c0.023-0.121 0.035-0.243 0.035-0.369v-0.017c-0.009-1.118-0.918-2.021-2.038-2.021-0 0-0.001 0-0.001 0h0zM11.697 6.151l1.649-1.459c0.195 0.062 0.401 0.097 0.616 0.097 1.125-0.002 2.037-0.914 2.037-2.040 0-0.14-0.014-0.276-0.041-0.408l0.002 0.013-1.304 1.156-1.429-1.587 1.276-1.135c-0.162-0.047-0.348-0.075-0.541-0.076h-0.001c-1.12 0.001-2.029 0.905-2.039 2.024v0.015c0 0.101 0.008 0.203 0.022 0.3l-1.59 1.408c0.572 0.444 1.028 1.012 1.33 1.665l0.012 0.028zM4.163 9.935l-1.538 1.363c-0.176-0.055-0.378-0.086-0.587-0.086-1.12 0-2.029 0.903-2.038 2.021v0.018c0 0.127 0.012 0.249 0.035 0.369l1.321-1.173 1.427 1.577-1.329 1.18c0.175 0.054 0.375 0.085 0.583 0.085 1.126 0 2.039-0.912 2.040-2.038v-0c-0.001-0.119-0.011-0.234-0.031-0.347l0.002 0.012 1.329-1.177c-0.532-0.486-0.947-1.090-1.203-1.772l-0.010-0.032zM10.144 11.707c0.074 0.111 0.118 0.248 0.118 0.395 0 0.396-0.321 0.717-0.717 0.717s-0.717-0.321-0.717-0.717c0-0.040 0.003-0.079 0.009-0.116l-0.001 0.004h-0.128c0.005 0.033 0.008 0.071 0.008 0.109 0 0.396-0.321 0.717-0.717 0.717s-0.717-0.321-0.717-0.717c0-0.038 0.003-0.076 0.009-0.113l-0.001 0.004h-0.1c0.004 0.028 0.006 0.061 0.006 0.094 0 0.405-0.326 0.733-0.73 0.737h-0c-0.403 0-0.729-0.333-0.729-0.743 0-0.14 0.038-0.27 0.104-0.381-0.995-0.761-1.649-2.034-1.649-3.475 0-2.331 1.706-4.221 3.809-4.221s3.809 1.89 3.809 4.221c0 1.449-0.661 2.727-1.665 3.487zM7.348 7.764c-0.094-0.176-0.219-0.322-0.369-0.438l-0.003-0.002c-0.174-0.108-0.385-0.173-0.611-0.176h-0.001c-0.075 0-0.149 0.009-0.219 0.025l0.007-0.001c-0.27 0.033-0.498 0.218-0.655 0.431-0.138 0.171-0.245 0.379-0.248 0.603-0.021 0.185 0.016 0.371 0.050 0.552 0.044 0.215 0.195 0.389 0.367 0.516 0.079 0.063 0.193 0.151 0.293 0.077 0.067-0.089 0.011-0.22 0.071-0.319 0.024-0.095 0.087-0.173 0.17-0.216l0.002-0.001c0.175-0.088 0.351-0.175 0.539-0.237 0.152-0.045 0.277-0.146 0.407-0.233 0.17-0.131 0.283-0.372 0.202-0.583zM8.012 9.314c-0.186-0.005-0.42 0.825-0.383 1.187 0.117 0.48 0.158-0.337 0.383-0.337 0.215 0.009 0.183 0.837 0.353 0.336 0.052-0.333-0.149-1.18-0.353-1.185zM10.703 8.759c0.034-0.181 0.071-0.367 0.050-0.552-0.003-0.224-0.11-0.432-0.248-0.603-0.157-0.213-0.385-0.397-0.655-0.431-0.064-0.015-0.137-0.024-0.213-0.024h-0c-0.213-0.001-0.429 0.067-0.612 0.176-0.157 0.114-0.28 0.271-0.373 0.44-0.081 0.211 0.032 0.451 0.202 0.583 0.129 0.087 0.255 0.188 0.407 0.233 0.187 0.061 0.363 0.148 0.539 0.236 0.085 0.044 0.148 0.122 0.172 0.215l0 0.002c0.061 0.098 0.005 0.229 0.071 0.319 0.101 0.073 0.215-0.014 0.293-0.077 0.172-0.127 0.323-0.301 0.367-0.516z"></path>
</svg>
