<!-- Generated by IcoMoon.io -->
<svg version="1.1" xmlns="http://www.w3.org/2000/svg" width="16" height="16" viewBox="0 0 16 16">
<title>hackhands</title>
<path fill="#00acbd" d="M3.533 11.753h4.233c0.333 0 0.593-0.267 0.593-0.6s-0.267-0.593-0.6-0.593h-4.227c-0.333 0-0.593 0.267-0.593 0.593 0 0.333 0.267 0.6 0.593 0.6zM11.053 9.18c0-0.333-0.267-0.6-0.6-0.6h-6.093c-0.333 0-0.593 0.267-0.593 0.6s0.267 0.6 0.6 0.6h6.1c0.333 0 0.6-0.267 0.587-0.6zM12.293 7.2c-0.011-0.322-0.271-0.58-0.593-0.587l-0.001-0h-7.347c-0.333 0-0.593 0.26-0.593 0.593s0.267 0.593 0.6 0.593h7.34c0.333 0 0.593-0.267 0.593-0.6zM3.76 5.213c0 0.333 0.267 0.593 0.6 0.593h6.333c0.327 0 0.587-0.267 0.587-0.6 0-0.327-0.267-0.587-0.593-0.587h-6.333c-0.333 0-0.593 0.26-0.593 0.593zM5.28 2.64h-1.747c-0.333 0-0.593 0.267-0.593 0.6s0.267 0.593 0.6 0.593h1.76c0.333 0 0.6-0.267 0.6-0.6-0.015-0.331-0.286-0.593-0.619-0.593-0 0-0 0-0.001 0h0zM15.247 13.867c0-0.002 0-0.004 0-0.007 0-0.342-0.278-0.62-0.62-0.62-0.002 0-0.005 0-0.007 0h-11.486c-0.633 0-1.153-0.533-1.153-1.16v-9.7c0-0.633 0.52-1.153 1.153-1.153h9.7c0.633 0 1.16 0.507 1.16 1.153v7.867c0 0.333 0.28 0.613 0.6 0.613 0.34 0 0.62-0.28 0.62-0.613v-7.867c0-1.313-1.067-2.38-2.38-2.38h-9.7c-1.314 0-2.38 1.066-2.38 2.38v0 9.7c0 1.313 1.067 2.38 2.38 2.38h10.467l1.647 1.54z"></path>
</svg>
