<!-- Generated by IcoMoon.io -->
<svg version="1.1" xmlns="http://www.w3.org/2000/svg" width="16" height="16" viewBox="0 0 16 16">
<title>hackerrank</title>
<path fill="#2ec866" d="M8 0c0.857 0 6.5 3.257 6.928 4 0.43 0.743 0.43 7.257 0 8s-6.070 4-6.928 4-6.5-3.257-6.93-4c-0.427-0.743-0.427-7.257 0-8 0.43-0.743 6.073-4 6.93-4zM9.53 4.533c-0.094 0-0.172 0.077-0.172 0.172v2.583h-2.716v-2.683h0.467c0.094 0 0.169-0.077 0.169-0.172 0-0.063-0.033-0.117-0.082-0.147l-1.048-1.006c-0.033-0.042-0.094-0.073-0.151-0.073s-0.107 0.030-0.138 0.071l-1.12 1.008c-0.048 0.030-0.080 0.084-0.080 0.145 0 0.095 0.075 0.172 0.17 0.172h0.469l0.005 6.69c0 0.097 0.074 0.172 0.169 0.172h0.995c0.095 0 0.173-0.077 0.173-0.171v-2.669h2.715v2.768h-0.466c-0.095 0-0.171 0.077-0.171 0.172 0 0.061 0.032 0.116 0.079 0.146l1.053 1.007c0.029 0.041 0.094 0.073 0.15 0.073s0.106-0.030 0.139-0.073l1.119-1.007c0.048-0.030 0.080-0.085 0.080-0.146 0-0.095-0.077-0.172-0.17-0.172h-0.469l-0.005-6.689c0-0.097-0.076-0.173-0.17-0.173h-0.996z"></path>
</svg>
