<!-- Generated by IcoMoon.io -->
<svg version="1.1" xmlns="http://www.w3.org/2000/svg" width="16" height="16" viewBox="0 0 16 16">
<title>happycow</title>
<path fill="#7c4ec4" d="M5.773 0.82c-0.283 0.003-0.616 0.104-0.753 0.157-1.127 0.452-1.853 2.060-1.467 3.68-0.213-0.093-0.409-0.171-0.451-0.187-0.272-0.109-0.596-0.203-0.931-0.269l-0.036-0.006c-0.566-0.104-1.2-0.126-1.687 0.314-0.462 0.42-0.642 1.247-0.181 1.733 0.499 0.522 1.533 0.425 2.18 0.365 0.067-0.007 0.371-0.027 0.667-0.071-0.049 0.301-0.078 0.648-0.078 1.002 0 0.020 0 0.041 0 0.061l-0-0.003c-2.487 0.88-2.287 6.733 3.393 7.467 7.2 0.927 7.733-4.54 6.047-6.093 0.061-0.345 0.096-0.666 0.11-0.967 0.289 0.135 0.622 0.257 0.693 0.284 0.602 0.235 1.56 0.611 2.193 0.308 0.583-0.28 0.657-1.040 0.34-1.527-0.331-0.512-0.947-0.673-1.513-0.747-0.226-0.029-0.488-0.046-0.754-0.046-0.089 0-0.177 0.002-0.265 0.006l0.013-0c-0.033 0.001-0.168 0.008-0.331 0.020 0.887-1.22 0.933-2.793 0.213-3.653-0.167-0.199-0.813-0.82-1.1-0.495-0.186 0.261 0.151 0.773 0.124 1.16-0.061 0.601-0.57 1.080-0.907 1.34-0.478-0.38-0.907-0.497-0.907-0.497l-0.215-0.041c-0.429-0.333-1.020-0.375-1.020-0.375 0.242-0.293 1.040-0.067 1.040-0.067-0.707-0.707-1.54-0.219-1.54-0.219 0-0.345-0.254-0.554-0.254-0.554-0.265 0.204-0.277 0.476-0.277 0.476-0.673-0.707-1.413-0.529-1.413-0.529s0.653 0.207 0.78 0.72c-0.102-0.021-0.218-0.033-0.338-0.033-0.006 0-0.012 0-0.018 0h0.001l-0.231-0.044c-0.134-0.014-0.29-0.022-0.448-0.022-0.268 0-0.531 0.023-0.786 0.067l0.027-0.004c-0.163-0.395-0.34-1-0.127-1.52 0.158-0.351 0.693-0.644 0.655-0.96-0.042-0.185-0.231-0.242-0.45-0.233zM7.127 2.96c0.408 0.043 0.793 0.341 1.067 0.662 0.003-0.199 0.030-0.417 0.179-0.562 0.151 0.126 0.177 0.38 0.167 0.578 0.352-0.229 0.82-0.32 1.213-0.135-0.31-0.042-0.659 0.039-0.827 0.332 0.512 0.029 1.087 0.173 1.4 0.613-0.461-0.257-1.093-0.584-1.613-0.243 0.361 0.093 0.753 0.327 0.78 0.74-0.295-0.404-0.743-0.681-1.258-0.746l-0.009-0.001c-0.46 0.018-0.947 0.228-1.227 0.603-0.071 0.116-0.125 0.235-0.116 0.007-0.029-0.449 0.491-0.605 0.84-0.665-0.408-0.2-0.873-0.343-1.327-0.25 0.341-0.276 0.813-0.287 1.22-0.187-0.051-0.315-0.232-0.581-0.486-0.743l-0.004-0.003zM1.507 4.613c0.125 0.001 0.246 0.014 0.363 0.038l-0.012-0.002c0.189 0.033 0.584 0.14 0.753 0.331 0.167 0.191 0.649 0.907-0.501 1.080-0.375 0.040-0.973 0.106-1.26-0.199-0.263-0.281-0.153-0.773 0.117-1.027 0.177-0.165 0.353-0.219 0.54-0.222zM5.353 5.28c0.006-0 0.013-0 0.020-0 0.055 0 0.109 0.005 0.161 0.014l-0.005-0.001c1.767 0.288 0.76 3.207 0.76 3.207l-0.196-0.135c0.136-0.322 0.285-0.833 0.277-1.34-0.011-0.713-0.42-1.293-0.913-1.28-0.493 0.007-0.887 0.595-0.873 1.313 0.003 0.186 0.031 0.523 0.081 0.7-0.003-0.010-0.003-0.089-0.007-0.1l-0.452-0.142c0 0 0.009-2.213 1.147-2.236zM10.427 6.087c0.104 0.001 0.215 0.015 0.332 0.042 1.293 0.307 0.442 2.38 0.442 2.38l-0.405 0.067v0.002c-0.437 0.069-0.927 0.142-1.42 0.233-0.015-0.019 0.013 0.020 0 0l-0.577 0.095c0 0 0.070-2.833 1.627-2.819zM9.373 8.853l1.473-0.21c0.078-0.111 0.121-0.295 0.15-0.443 0.135-0.7 0.105-1.353-0.353-1.533-0.066-0.027-0.142-0.043-0.222-0.044h-0.001c-0.411-0.008-0.86 0.36-1.087 0.92-0.137 0.345-0.261 1.087-0.172 1.333 0.033 0.093 0.341 0.079 0.279 0.011zM5.513 6.38c0.151 0 0.273 0.122 0.273 0.273s-0.122 0.273-0.273 0.273v0c-0.151 0-0.273-0.122-0.273-0.273s0.122-0.273 0.273-0.273v0zM14.247 6.747c0.111 0.001 0.213 0.010 0.285 0.020 0.328 0.044 0.603 0.106 0.793 0.411 0.183 0.291 0.142 0.74-0.193 0.907-0.362 0.179-0.913-0.047-1.26-0.187-1.047-0.473-0.373-0.947-0.158-1.060 0.135-0.073 0.345-0.091 0.533-0.091zM10.3 7.177c0.003-0 0.006-0 0.009-0 0.151 0 0.273 0.122 0.273 0.273 0 0.148-0.117 0.268-0.264 0.273l-0 0c-0.003 0-0.006 0-0.009 0-0.151 0-0.273-0.122-0.273-0.273 0-0.148 0.117-0.268 0.264-0.273l0-0zM3.733 7.671c0.967-0.009 1.76 0.633 2.587 1.040 1.133 0.607 2.48 0.531 3.687 0.232 0.733-0.223 1.66-0.359 2.287 0.156 0.84 0.833 0.94 2.14 0.56 3.193-0.465 1.36-1.8 2.22-3.16 2.5-1.7 0.3-3.527 0.24-5.133-0.442-1.833-0.707-3.133-2.727-2.807-4.707 0.097-0.98 0.94-1.947 1.98-1.973zM4.913 8.837c-0.039 0.001-0.077 0.007-0.112 0.017l0.003-0.001c-0.279 0.083-0.338 0.449-0.132 0.82 0.206 0.368 0.599 0.6 0.88 0.515 0.279-0.083 0.338-0.449 0.132-0.82-0.18-0.323-0.503-0.539-0.771-0.532zM3.213 9.467c-0.009-0-0.019-0.001-0.030-0.001-0.142 0-0.273 0.044-0.382 0.118l0.002-0.001c-0.357 0.256-0.366 0.947 0.049 1.527 0.415 0.579 1.1 0.827 1.453 0.571 0.357-0.256 0.356-1.027-0.059-1.607-0.285-0.398-0.693-0.602-1.035-0.607zM10.347 9.582c-0.148 0-0.287 0.036-0.41 0.098l0.005-0.002c-0.381 0.181-0.637 0.558-0.572 0.84 0.065 0.283 0.427 0.366 0.807 0.185 0.381-0.181 0.637-0.558 0.572-0.84-0.041-0.177-0.197-0.276-0.401-0.281zM3.147 9.675c0.422-0.013 0.787 0.274 1 0.621 0.2 0.356 0.377 0.94-0.003 1.233-0.585 0.137-1.107-0.383-1.307-0.887-0.163-0.316-0.139-0.94 0.309-0.967zM11.747 10.662c-0.010-0-0.022-0.001-0.035-0.001s-0.024 0-0.036 0.001l0.002-0c-0.313 0.015-0.687 0.193-1.007 0.509-0.504 0.503-0.661 1.167-0.35 1.473 0.31 0.311 0.973 0.153 1.473-0.349 0.504-0.504 0.661-1.167 0.35-1.473-0.103-0.099-0.243-0.159-0.397-0.16h-0zM11.756 10.868c0.116 0.007 0.233 0.061 0.293 0.162 0.155 0.523-0.237 1.053-0.657 1.327-0.282 0.203-0.807 0.412-1.007 0.008-0.060-0.74 0.61-1.413 1.32-1.5 0.018 0 0.035 0.001 0.052 0.004l-0.002-0zM4.889 11.835c-0.029 0.001-0.055 0.017-0.068 0.041l-0 0c-0.007 0.009-0.127 0.208-0.365 0.206-0.001-0-0.001-0-0.002-0-0.046 0-0.083 0.037-0.083 0.083 0 0.001 0 0.002 0 0.003v-0c0.001 0.043 0.035 0.080 0.077 0.086l0.012 0.001c0.002 0 0.004 0 0.007 0 0.073 0 0.144-0.014 0.208-0.039l-0.004 0.001c0.144 0.287 0.733 1.267 2.187 1.5 1.473 0.235 2.58-0.493 2.867-0.7 0.064 0.049 0.14 0.085 0.222 0.104l0.004 0.001 0.011 0.002c0.002 0 0.005 0 0.008 0 0.041 0 0.075-0.028 0.084-0.066l0-0.001c0.001-0.005 0.002-0.011 0.002-0.017 0-0.042-0.030-0.077-0.069-0.086l-0.001-0c-0.233-0.052-0.316-0.274-0.32-0.285-0.013-0.035-0.046-0.059-0.085-0.059-0.009 0-0.018 0.001-0.027 0.004l0.001-0c-0.034 0.011-0.059 0.043-0.059 0.080 0 0.010 0.002 0.020 0.005 0.029l-0-0.001c0.002 0.007 0.030 0.084 0.097 0.171-0.291 0.2-1.347 0.84-2.727 0.645-1.287-0.181-1.887-1.127-2.040-1.407 0.092-0.074 0.139-0.153 0.143-0.159 0.007-0.012 0.011-0.027 0.011-0.043 0-0.032-0.018-0.061-0.044-0.076l-0-0c-0.014-0.011-0.032-0.018-0.051-0.019l-0-0z"></path>
</svg>
