<!-- Generated by IcoMoon.io -->
<svg version="1.1" xmlns="http://www.w3.org/2000/svg" width="16" height="16" viewBox="0 0 16 16">
<title>hashnode</title>
<path fill="#2962ff" d="M2.56 0h10.88c1.414 0 2.56 1.146 2.56 2.56v0 10.88c0 1.414-1.146 2.56-2.56 2.56v0h-10.88c-1.414 0-2.56-1.146-2.56-2.56v0-10.88c0-1.414 1.146-2.56 2.56-2.56v0zM12.010 14.425l-0.003-0.001c0.931-0.023 1.677-0.783 1.677-1.717 0-0.885-0.67-1.614-1.53-1.708l-0.008-0.001-3.278-5.788c-0.479-0.861-1.405-0.824-1.739 0.399-0.287 1.157-0.213 2.248-0.296 3.565-0.001 0.009-0.007 0.016-0.015 0.018s-0.017-0.001-0.022-0.009l-2.927-5.834c0.239-0.187 0.379-0.474 0.379-0.778 0-0.537-0.435-0.973-0.973-0.973s-0.973 0.435-0.973 0.973c0 0.537 0.435 0.973 0.973 0.973v0c0.046 0 0.083-0.009 0.12-0.009 1.232 3.167 2.603 6.862 3.093 7.714 0.333 0.815 1.473 0.555 1.501-0.324l0.12-4.621c0-0.028 0.037-0.028 0.047-0.009l2.351 5.593c-0.132 0.238-0.21 0.521-0.21 0.823 0 0.946 0.767 1.714 1.713 1.715h0z"></path>
</svg>
