<!-- Generated by IcoMoon.io -->
<svg version="1.1" xmlns="http://www.w3.org/2000/svg" width="16" height="16" viewBox="0 0 16 16">
<title>hatenabookmark</title>
<path fill="#00a4de" d="M13.647 0c1.3 0 2.353 1.053 2.353 2.353v11.293c0 1.3-1.053 2.353-2.353 2.353h-11.293c-1.3 0-2.353-1.053-2.353-2.353v-11.293c0-1.3 1.053-2.353 2.353-2.353zM11.177 9.647c-0.52 0-0.94 0.42-0.94 0.94s0.42 0.943 0.94 0.943 0.94-0.43 0.94-0.95-0.42-0.94-0.94-0.933zM5.74 11.498c0.8 0 1.371-0.028 1.72-0.080 0.351-0.056 0.651-0.148 0.88-0.275 0.3-0.155 0.52-0.376 0.68-0.66s0.24-0.61 0.24-0.987c0-0.52-0.14-0.935-0.42-1.247-0.28-0.32-0.66-0.489-1.16-0.529 0.44-0.12 0.771-0.3 0.971-0.54 0.21-0.229 0.31-0.549 0.31-0.949 0-0.32-0.069-0.59-0.2-0.84-0.14-0.24-0.329-0.43-0.589-0.58-0.23-0.13-0.49-0.21-0.81-0.27-0.309-0.049-0.86-0.080-1.649-0.080h-1.943v6.991h1.971zM6.231 8.708c0.47 0 0.79 0.059 0.96 0.175 0.18 0.12 0.26 0.33 0.26 0.62 0 0.27-0.090 0.46-0.28 0.57-0.18 0.12-0.51 0.169-0.96 0.169h-0.671v-1.531zM12.001 9.179v-4.707h-1.64v4.707zM5.95 6.053c0.473 0 0.79 0.053 0.955 0.16 0.163 0.107 0.245 0.29 0.245 0.553 0 0.253-0.087 0.431-0.26 0.536-0.177 0.103-0.498 0.155-0.968 0.155h-0.38v-1.404z"></path>
</svg>
