<!-- Generated by IcoMoon.io -->
<svg version="1.1" xmlns="http://www.w3.org/2000/svg" width="16" height="16" viewBox="0 0 16 16">
<title>haxe</title>
<path fill="#ea8220" d="M15.856 0c-0.001-0-0.003-0-0.004-0-0.009 0-0.017 0.001-0.025 0.002l0.001-0h-3.902c-0 0-0.001 0-0.001 0-0.024 0-0.046 0.006-0.066 0.016l0.001-0-3.859 1.928-3.86-1.928c-0.019-0.010-0.042-0.015-0.065-0.015h-3.916c-0.003-0-0.006-0-0.009-0s-0.006 0-0.009 0l0-0c-0.079 0.003-0.142 0.068-0.142 0.147 0 0.008 0.001 0.016 0.002 0.024l-0-0.001v3.902c0 0.024 0.006 0.047 0.016 0.067l-0-0.001 1.929 3.857-1.929 3.862c-0.010 0.019-0.016 0.042-0.016 0.066v3.893c-0.001 0.007-0.002 0.014-0.002 0.022 0 0.011 0.001 0.021 0.003 0.031l-0-0.001c0.010 0.073 0.071 0.128 0.146 0.128 0.008 0 0.016-0.001 0.023-0.002l-0.001 0h3.903c0 0 0 0 0.001 0 0.024 0 0.046-0.006 0.066-0.016l-0.001 0 3.859-1.932 3.859 1.932c0.019 0.010 0.042 0.015 0.065 0.015 0 0 0 0 0.001 0h3.918c0.003 0 0.006 0 0.009 0 0.081 0 0.147-0.066 0.147-0.147 0-0.009-0.001-0.017-0.002-0.025l0 0.001v-3.9c0-0 0-0.001 0-0.001 0-0.024-0.006-0.046-0.016-0.066l0 0.001-1.93-3.861 1.93-3.857c0.010-0.019 0.015-0.042 0.015-0.065 0-0 0-0 0-0.001v0-3.897c0.001-0.008 0.002-0.016 0.002-0.025 0-0.014-0.002-0.028-0.006-0.041l0 0.001c-0.016-0.064-0.071-0.111-0.138-0.113h-0zM1.348 0.297h2.692l2.692 1.345zM11.96 0.297h2.692l-5.383 1.345zM0.352 0.352l7.359 1.84-5.52 5.517-0.159-0.635zM15.647 0.357l-1.84 7.354-5.518-5.519zM15.703 1.348v2.692l-1.346 2.69zM0.296 1.35l1.347 5.382-1.347-2.692zM8 2.32l5.68 5.68-5.678 5.677-5.682-5.677zM13.808 8.288l0.059 0.234 1.781 7.125-7.36-1.84zM2.192 8.288l5.516 5.516-7.354 1.836 0.177-0.71zM14.357 9.265l1.347 2.695v2.685zM1.643 9.265l-1.347 5.387v-2.692zM6.727 14.357l-2.688 1.345h-2.693zM9.273 14.357l5.381 1.345h-2.693z"></path>
</svg>
