<!-- Generated by IcoMoon.io -->
<svg version="1.1" xmlns="http://www.w3.org/2000/svg" width="16" height="16" viewBox="0 0 16 16">
<title>helm</title>
<path fill="#277a9f" d="M11.125 11.979c0.259-0.181 0.849 0.217 1.32 0.888s0.642 1.363 0.383 1.544c-0.259 0.181-0.85-0.217-1.32-0.888s-0.642-1.363-0.383-1.544zM4.936 11.979c-0.259-0.181-0.849 0.217-1.32 0.888s-0.642 1.363-0.383 1.544c0.259 0.181 0.85-0.217 1.32-0.888s0.642-1.363 0.383-1.544zM8.027 13.031c-0.316 0-0.572 0.665-0.572 1.485s0.256 1.485 0.572 1.485 0.572-0.665 0.572-1.485-0.256-1.485-0.572-1.485zM11.125 4.021c0.259 0.181 0.849-0.217 1.32-0.888s0.642-1.363 0.383-1.544c-0.259-0.181-0.85 0.217-1.32 0.888s-0.642 1.363-0.383 1.544zM4.936 4.021c-0.259 0.181-0.849-0.217-1.32-0.888s-0.642-1.363-0.383-1.544c0.259-0.181 0.85 0.217 1.32 0.888s0.642 1.363 0.383 1.544zM8.027 2.969c-0.316 0-0.572-0.665-0.572-1.485s0.256-1.485 0.572-1.485 0.572 0.665 0.572 1.485-0.256 1.485-0.572 1.485zM0.314 6.044h1.102v1.55h1.243v-1.55h1.102v4.163h-1.102v-1.653h-1.243v1.653h-1.102zM4.682 6.044h2.69v0.923h-1.589v0.653h1.358v0.923h-1.358v0.743h1.653v0.923h-2.754zM8.243 6.044h1.102v3.241h1.576v0.923h-2.677zM11.638 6.044h1.14l0.653 1.729 0.231 0.679h0.025l0.231-0.679 0.628-1.729h1.14v4.163h-1.025v-1.23c0-0.107 0.005-0.224 0.016-0.352s0.023-0.259 0.035-0.394 0.028-0.266 0.045-0.394c0.017-0.128 0.032-0.243 0.045-0.346h-0.025l-0.346 0.973-0.577 1.403h-0.41l-0.577-1.403-0.333-0.973h-0.025l0.045 0.346c0.017 0.128 0.032 0.259 0.045 0.394s0.025 0.266 0.035 0.394 0.016 0.245 0.016 0.352v1.23h-1.012z"></path>
</svg>
