<!-- Generated by IcoMoon.io -->
<svg version="1.1" xmlns="http://www.w3.org/2000/svg" width="16" height="16" viewBox="0 0 16 16">
<title>here</title>
<path fill="#48dad0" d="M4.437 13.087l-2.203 2.197-2.205-2.197zM7.66 8.072c-0.46-0.547-0.437-0.843-0.153-1.127 0.346-0.347 0.698-0.204 1.093 0.183zM12.38 2.077c0.345-0.346 0.697-0.203 1.092 0.183l-0.94 0.94c-0.461-0.545-0.439-0.839-0.152-1.123zM15.227 3.037c-0.429 0.641-1.161 1.68-1.953 0.895l1.98-1.98c-0.177-0.189-0.313-0.349-0.407-0.451-1.076-1.067-2.279-1.080-3.223-0.143-0.629 0.629-0.793 1.347-0.61 2.034l-0.611-0.71c-0.351 0.234-0.579 0.629-0.579 1.076 0 0.262 0.078 0.505 0.212 0.709l-0.003-0.005-0.71-0.589-0.954 0.937 1.271 1.271c-0.983-0.779-2.034-0.703-2.893 0.145-0.909 0.907-0.846 2.008-0.164 2.913l-0.139-0.137c-0.899-0.899-1.875-0.581-2.36-0.097-0.374 0.374-0.61 0.887-0.508 1.245l-1.945-1.947-1.037 1.037 3.843 3.845h2.063l-1.385-1.393c-0.729-0.741-0.741-1.131-0.387-1.483s0.736-0.128 1.434 0.567l1.369 1.367 1.041-1.029-1.3-1.298c0.936 0.708 2.059 0.747 3.051-0.252l0.019-0.019c0.342-0.301 0.612-0.675 0.786-1.099l0.007-0.020-0.779-0.523c-0.431 0.64-1.173 1.682-1.953 0.909l1.984-1.984 1.237 1.227 1.079-1.078-1.547-1.546c-0.722-0.722-0.295-1.4 0-1.656 0.161 0.327 0.366 0.607 0.61 0.846l0.001 0.001c1.001 1.003 2.293 1.204 3.43 0.071l0.018-0.018c0.342-0.301 0.612-0.675 0.786-1.099l0.007-0.020z"></path>
</svg>
