<!-- Generated by IcoMoon.io -->
<svg version="1.1" xmlns="http://www.w3.org/2000/svg" width="16" height="16" viewBox="0 0 16 16">
<title>heroku</title>
<path fill="#430098" d="M13.74 0h-11.48c-0.801 0-1.44 0.64-1.44 1.44v13.121c0 0.799 0.639 1.439 1.44 1.439h11.48c0.8 0 1.439-0.641 1.439-1.439v-13.121c0.001-0.8-0.639-1.44-1.439-1.44zM14.38 14.561c0 0.359-0.281 0.64-0.64 0.64h-11.48c-0.36 0-0.64-0.281-0.64-0.64v-13.121c0-0.36 0.28-0.641 0.64-0.641h11.48c0.359 0 0.64 0.281 0.64 0.641zM4.42 13.599l1.8-1.599-1.8-1.6zM10.9 7.12c-0.319-0.32-0.919-0.72-1.919-0.72-1.081 0-2.201 0.281-3 0.56v-4.56h-1.6v6.92l1.12-0.52c0 0 1.84-0.84 3.44-0.84 0.8 0 1 0.44 1 0.84v4.8h1.6v-4.8c0.039-0.119 0.039-1.001-0.641-1.68zM8.78 5h1.6c0.72-0.84 1.080-1.681 1.2-2.6h-1.599c-0.161 0.919-0.561 1.76-1.201 2.6z"></path>
</svg>
