<!-- Generated by IcoMoon.io -->
<svg version="1.1" xmlns="http://www.w3.org/2000/svg" width="16" height="16" viewBox="0 0 16 16">
<title>hipchat</title>
<path fill="#0052cc" d="M13.157 12.704c0 0 0.069-0.049 0.178-0.132 1.638-1.267 2.665-3.103 2.665-5.146 0-3.81-3.582-6.901-7.998-6.901-4.417 0-8.002 3.091-8.002 6.901 0 3.811 3.581 6.904 7.999 6.904 0.565 0 1.129-0.049 1.683-0.152l0.175-0.030c1.122 0.728 2.759 1.327 4.192 1.327 0.443 0 0.652-0.364 0.368-0.736-0.432-0.53-1.027-1.379-1.259-2.035zM12.183 9.687c-0.477 0.713-1.956 1.926-4.169 1.926h-0.031c-2.219 0-3.695-1.221-4.169-1.926-0.093-0.104-0.157-0.234-0.181-0.378l-0.001-0.004c-0.001-0.008-0.001-0.016-0.001-0.025 0-0.171 0.131-0.311 0.298-0.325l0.001-0c0.005-0.002 0.009-0.002 0.014-0.002 0.078 0.004 0.153 0.029 0.219 0.074 1.037 0.851 2.376 1.367 3.835 1.371h0.001c0.020 0 0.044 0 0.067 0 1.441 0 2.76-0.519 3.782-1.38l-0.009 0.007c0.055-0.050 0.128-0.081 0.208-0.081 0 0 0 0 0 0h-0c0.178 0 0.319 0.142 0.322 0.317-0.022 0.164-0.085 0.31-0.18 0.431l0.001-0.002z"></path>
</svg>
