<!-- Generated by IcoMoon.io -->
<svg version="1.1" xmlns="http://www.w3.org/2000/svg" width="16" height="16" viewBox="0 0 16 16">
<title>hitachi</title>
<path fill="#e60027" d="M11.858 7.607h-0.684c-0.001-0.068-0.013-0.133-0.036-0.193l0.001 0.004c-0.054-0.137-0.165-0.241-0.303-0.284l-0.003-0.001c-0.085-0.028-0.184-0.044-0.286-0.044-0.116 0-0.227 0.021-0.329 0.059l0.007-0.002c-0.167 0.062-0.297 0.193-0.355 0.357l-0.001 0.004c-0.056 0.154-0.089 0.331-0.089 0.516 0 0.155 0.023 0.304 0.065 0.445l-0.003-0.011c0.052 0.18 0.183 0.322 0.353 0.388l0.004 0.001c0.104 0.041 0.225 0.064 0.352 0.064 0.107 0 0.21-0.017 0.307-0.048l-0.007 0.002c0.128-0.042 0.23-0.134 0.284-0.253l0.001-0.003c0.034-0.076 0.053-0.165 0.053-0.258 0-0.002-0-0.004-0-0.006v0h0.687c-0.005 0.086-0.017 0.166-0.035 0.244l0.002-0.010c-0.060 0.243-0.231 0.448-0.456 0.543-0.249 0.108-0.539 0.171-0.844 0.171-0.234 0-0.46-0.037-0.672-0.106l0.015 0.004c-0.318-0.1-0.593-0.329-0.703-0.64-0.056-0.156-0.089-0.335-0.089-0.522 0-0.001 0-0.002 0-0.003v0c0-0.259 0.045-0.509 0.169-0.718 0.128-0.214 0.324-0.379 0.561-0.467 0.214-0.083 0.462-0.132 0.721-0.132 0.298 0 0.582 0.064 0.837 0.179l-0.013-0.005c0.236 0.104 0.409 0.311 0.464 0.563l0.001 0.005c0.011 0.051 0.019 0.104 0.022 0.157zM9.205 9.231h-0.725l-0.213-0.529h-1.223c-0.001 0.001-0.21 0.529-0.213 0.529h-0.727l1.151-2.462c0 0.001 0.799 0 0.799 0zM12.861 9.231h-0.651c0 0 0.003-2.462 0-2.462h0.651v0.985h1.317c0 0.003-0.001-0.985 0-0.985h0.653c0 0 0.002 2.457 0 2.462h-0.653v-1.084c0 0.003-1.317 0-1.317 0 0.001 0.005 0 1.083 0 1.084zM0.653 9.231h-0.653c0 0 0.003-2.462 0-2.462h0.653c0 0-0.001 0.991 0 0.985h1.317c0 0.003-0.003-0.985 0-0.985h0.652c0 0 0.003 2.457 0 2.462h-0.652v-1.084c0 0.003-1.317 0-1.317 0 0 0.005-0.001 1.083 0 1.084zM5.673 9.231h-0.651v-2.043h-0.998c0 0 0.001-0.417 0-0.418 0.001 0.001 2.647 0 2.647 0v0.418h-0.998zM3.139 6.769h0.651v2.461h-0.651zM15.347 6.769h0.653v2.461h-0.653zM7.656 7.187l-0.454 1.12h0.907z"></path>
</svg>
