<!-- Generated by IcoMoon.io -->
<svg version="1.1" xmlns="http://www.w3.org/2000/svg" width="16" height="16" viewBox="0 0 16 16">
<title>hockeyapp</title>
<path fill="#009ee1" d="M14.529 10.001c0.050-0.038 0.121-0.005 0.129 0.055 0.004 0.038 0.008 0.076 0.008 0.114 0 1.057-2.221 2.496-6.667 2.496s-6.667-1.439-6.667-2.491c0-0.038 0.004-0.077 0.009-0.111 0.004-0.040 0.038-0.072 0.080-0.072 0.019 0 0.036 0.006 0.049 0.017l-0-0c1.104 0.793 3.279 1.473 6.529 1.473 3.254 0 5.429-0.679 6.529-1.481zM8 9.445c-3.604 0-5.992-0.819-7.159-1.766-0.014-0.012-0.032-0.019-0.052-0.019-0.032 0-0.059 0.018-0.072 0.044l-0 0c-0.063 0.119-0.091 0.246-0.091 0.373 0 1.167 2.458 2.725 7.375 2.725s7.375-1.553 7.375-2.725c0-0.132-0.029-0.255-0.092-0.373-0.014-0.027-0.041-0.045-0.073-0.045-0.020 0-0.038 0.007-0.053 0.019l0-0c-1.167 0.947-3.553 1.766-7.158 1.766zM16 5.625c0 1.345-2.667 3.141-8 3.141s-8-1.795-8-3.141 2.667-2.292 8-2.292 8 0.947 8 2.292zM13.667 5.413c0-0.675-1.887-1.061-5.667-1.061s-5.667 0.387-5.667 1.061 1.887 1.655 5.667 1.655 5.667-0.981 5.667-1.655z"></path>
</svg>
