<!-- Generated by IcoMoon.io -->
<svg version="1.1" xmlns="http://www.w3.org/2000/svg" width="16" height="16" viewBox="0 0 16 16">
<title>homeassistant</title>
<path fill="#41bdf5" d="M7.995 0.93c-0.13 0.001-0.247 0.055-0.332 0.141l-0 0-7.555 7.661c-0.067 0.068-0.108 0.161-0.108 0.264 0 0 0 0 0 0.001v-0c0 0.208 0.169 0.377 0.378 0.378h1.402v5.383c0 0.174 0.14 0.314 0.314 0.314h5.298v-2.456l-2.034-2.036c-0.186 0.081-0.403 0.129-0.632 0.129h-0c-0.892 0-1.615-0.725-1.615-1.617s0.723-1.616 1.615-1.616c0.892 0 1.615 0.723 1.615 1.616 0 0.224-0.045 0.438-0.128 0.631l1.178 1.178v-3.583c-0.592-0.24-1.010-0.82-1.010-1.499 0-0.893 0.724-1.617 1.616-1.617s1.615 0.725 1.615 1.617c0 0.678-0.417 1.259-1.009 1.499v3.583l1.177-1.178c-0.081-0.186-0.128-0.402-0.128-0.629 0-0.001 0-0.002 0-0.003v0c0-0.893 0.724-1.616 1.616-1.616s1.615 0.723 1.615 1.616-0.723 1.617-1.615 1.617c-0.228-0-0.445-0.047-0.642-0.133l0.010 0.004-2.034 2.036v2.456h5.298c0 0 0 0 0 0 0.173 0 0.313-0.14 0.313-0.313 0-0 0-0 0-0v0-5.383h1.408c0.103-0 0.196-0.041 0.264-0.108l-0 0c0.149-0.146 0.151-0.385 0.005-0.534l-1.677-1.715v-2.703c0-0.174-0.14-0.315-0.314-0.315h-1.31c-0.174 0-0.314 0.142-0.314 0.315v0.736l-3.944-3.98c-0.085-0.086-0.204-0.139-0.334-0.139-0.002 0-0.003 0-0.005 0h0zM7.997 5.171c-0.357 0-0.646 0.29-0.646 0.647s0.289 0.646 0.646 0.646c0 0 0 0 0 0 0.357 0 0.646-0.289 0.646-0.646 0-0 0-0 0-0v0c0-0.357-0.289-0.647-0.646-0.647zM4.727 8.444c-0 0-0 0-0 0-0.357 0-0.646 0.289-0.646 0.646 0 0 0 0 0 0v-0c0 0.357 0.289 0.647 0.646 0.647s0.646-0.29 0.646-0.647c0-0 0-0 0-0 0-0.357-0.289-0.646-0.646-0.646-0 0-0 0-0 0h0zM11.268 8.444c-0.357 0-0.647 0.289-0.647 0.646s0.29 0.647 0.647 0.647c0.357 0 0.646-0.29 0.646-0.647 0-0 0-0 0-0 0-0.357-0.289-0.646-0.646-0.646-0 0-0 0-0 0h0z"></path>
</svg>
