<!-- Generated by IcoMoon.io -->
<svg version="1.1" xmlns="http://www.w3.org/2000/svg" width="16" height="16" viewBox="0 0 16 16">
<title>homify</title>
<path fill="#7dcda3" d="M13.667 7.041v0.035l-0.003 0.033c-0.060 1.552-0.039 7.571-0.038 7.881 0.001 0.719-0.56 1.295-1.080 0.855l-4.717-3.687c-1.483 1.535-2.905 2.997-3.205 3.283-0.661 0.631-1.207-0.885-0.707-1.205 0.045-0.028 1.503-1.3 3.116-2.7l-3.493-2.73c-0.303-0.237-0.419-0.63-0.245-0.84 0.060-0.057 0.14-0.087 0.221-0.085 0.037 0.001 0.075 0.009 0.11 0.025 1.080 0.48 2.677 1.661 4.267 2.885 1.657-1.433 3.249-2.793 3.457-2.909 0.259-0.143 0.327 0.235 0.24 0.344-0.088 0.111-1.467 1.551-2.978 3.12 1.489 1.153 2.901 2.257 3.793 2.757l0.147-7.080c-0.116-0.138-3.604-4.775-3.982-5.165-0.603 0.521-3.763 4.076-3.923 4.229 0.721 0.072 3.784 0.255 5.713 0.455 0.487 0.047 0.811 0.404-0.233 0.395l-7.507-0.011c-0.117-0.004-0.222-0.073-0.265-0.178s-0.019-0.224 0.064-0.304c0.040-0.039 5.435-5.949 5.888-6.325 0.103-0.085 0.211-0.125 0.325-0.122 0.153 0.005 0.277 0.096 0.328 0.151 0.056 0.051 2.9 3.96 4.288 5.867 0.332 0.452 0.416 0.758 0.419 1.001z"></path>
</svg>
