<!-- Generated by IcoMoon.io -->
<svg version="1.1" xmlns="http://www.w3.org/2000/svg" width="16" height="16" viewBox="0 0 16 16">
<title>hootsuite</title>
<path d="M8.001 0h0.015c0.874 0.003 1.735 0.215 2.511 0.619 0.771-0.397 1.626-0.604 2.494-0.604h0.451v15.985l-0.437-0.001c-2.789 0.001-5.464-1.108-7.435-3.083-1.98-1.962-3.087-4.639-3.073-7.429v-5.473h0.451c0.867 0 1.724 0.207 2.494 0.604 0.781-0.406 1.649-0.618 2.529-0.618zM8.001 0.436c-0.921 0-1.784 0.249-2.527 0.681-0.759-0.437-1.619-0.667-2.495-0.667h-0.015v5.037c-0.017 5.567 4.509 10.060 10.071 10.075v-15.112h-0.015c-0.875-0.001-1.736 0.229-2.495 0.666-0.763-0.444-1.629-0.679-2.511-0.68zM10.169 2.272c1.193 0.001 2.159 0.969 2.158 2.161-0.002 1.194-0.969 2.159-2.163 2.157-0.411 0-0.813-0.117-1.159-0.339l-1.011 1.005-1.005-1.011c-1.009 0.635-2.343 0.33-2.977-0.68-0.635-1.011-0.33-2.344 0.681-2.978s2.344-0.329 2.978 0.681c0.182 0.291 0.293 0.622 0.322 0.964l0.011-0.013 0.010 0.012c0.103-1.111 1.037-1.963 2.155-1.961zM5.84 5.859c0.795 0.004 1.442-0.639 1.445-1.433 0.001-0.146-0.021-0.291-0.064-0.429-0.162 0.363-0.588 0.525-0.951 0.364-0.363-0.163-0.527-0.589-0.364-0.952 0.073-0.162 0.203-0.291 0.365-0.365-0.758-0.237-1.565 0.184-1.803 0.943-0.044 0.138-0.066 0.283-0.067 0.428-0.002 0.795 0.64 1.442 1.435 1.445zM10.159 5.872c0.795 0.002 1.442-0.641 1.444-1.437s-0.642-1.441-1.437-1.443c-0.144-0.001-0.287 0.020-0.425 0.063 0.363 0.163 0.526 0.589 0.365 0.952-0.163 0.362-0.589 0.525-0.952 0.363-0.163-0.073-0.293-0.205-0.366-0.369-0.237 0.759 0.186 1.568 0.945 1.805 0.139 0.042 0.282 0.065 0.427 0.065z"></path>
</svg>
