<!-- Generated by IcoMoon.io -->
<svg version="1.1" xmlns="http://www.w3.org/2000/svg" width="16" height="16" viewBox="0 0 16 16">
<title>hp</title>
<path fill="#0096d6" d="M8 16h-0.267l1.667-4.467h2.267c0.4 0 0.8-0.333 0.933-0.667l1.8-4.867c0.267-0.8-0.2-1.467-1-1.467h-3.133l-2.6 7.2-1.467 4.067c-3.6-0.867-6.2-4-6.2-7.8 0-3.667 2.467-6.733 5.867-7.733l-1.533 4.267-2.6 7h1.667l2.133-5.933h1.267l-2.133 5.933h1.667l2-5.533c0.267-0.8-0.133-1.467-1-1.467h-1.333l1.667-4.533h0.333c4.4 0 8 3.6 8 8s-3.6 8-8 8zM12.867 5.533h-1.267l-1.8 4.867h1.267z"></path>
</svg>
