<!-- Generated by IcoMoon.io -->
<svg version="1.1" xmlns="http://www.w3.org/2000/svg" width="16" height="16" viewBox="0 0 16 16">
<title>htmlacademy</title>
<path fill="#302683" d="M8 0l-6.317 0.663v11.579l6.317 3.759 6.317-3.759v-11.579l-6.251-0.656zM13.491 11.771l-5.491 3.267-5.491-3.267v-4.746l5.467 3.254 0.009 0.59-3.751-2.233-0.005 0.573 3.765 2.263 0.010 0.605-3.765-2.24-0.005 0.573 3.765 2.262 3.802-2.275v-0.575l-0.005 0.003v-1.87l1.693-1.011zM13.487 6.33l-2.196 1.294-3.307-1.967-0.006 0.572 2.827 1.681-0.025 0.015-0.061 0.036-0.401 0.237-2.333-1.389-0.006 0.573 1.842 1.095-0.445 0.297-1.392-0.82-0.005 0.572 0.913 0.538-0.93 0.558-5.44-3.233 5.448-3.274zM13.491 5.754l-5.521-3.255-5.46 3.251v-4.344l5.491-0.576 5.491 0.576z"></path>
</svg>
