<!-- Generated by IcoMoon.io -->
<svg version="1.1" xmlns="http://www.w3.org/2000/svg" width="16" height="16" viewBox="0 0 16 16">
<title>huawei</title>
<path fill="#f00" d="M2.447 4.093c0 0-1.233 1.18-1.3 2.427v0.233c0.053 1.007 0.813 1.6 0.813 1.6 1.22 1.193 4.173 2.693 4.867 3.033 0 0 0.040 0.020 0.067-0.007l0.013-0.027v-0.027c-1.893-4.127-4.46-7.233-4.46-7.233zM6.433 12.4c-0.013-0.053-0.067-0.053-0.067-0.053l-4.92 0.173c0.533 0.953 1.433 1.687 2.373 1.467 0.64-0.167 2.107-1.187 2.587-1.533 0.040-0.033 0.027-0.060 0.027-0.053zM6.487 11.88c-2.16-1.46-6.347-3.693-6.347-3.693-0.1 0.307-0.133 0.6-0.14 0.867v0.047c0 0.713 0.267 1.213 0.267 1.213 0.533 1.127 1.56 1.467 1.56 1.467 0.467 0.2 0.933 0.207 0.933 0.207 0.080 0.013 2.933 0 3.693 0 0.033 0 0.053-0.033 0.053-0.033v-0.040c0-0.020-0.020-0.033-0.020-0.033zM6.040 2.127c-0.959 0.251-1.663 1.087-1.713 2.095l-0 0.005v0.273c0.020 0.4 0.107 0.7 0.107 0.7 0.44 1.933 2.573 5.1 3.033 5.767 0.033 0.033 0.067 0.020 0.067 0.020 0.024-0.011 0.040-0.034 0.040-0.061 0-0.002-0-0.004-0-0.006l0 0c0.707-7.067-0.74-8.947-0.74-8.947-0.213 0.013-0.793 0.153-0.793 0.153zM11.573 3.64c0 0-0.327-1.2-1.627-1.52 0 0-0.38-0.093-0.78-0.147 0 0-1.453 1.873-0.747 8.953 0.007 0.047 0.040 0.053 0.040 0.053 0.047 0.020 0.067-0.020 0.067-0.020 0.48-0.687 2.6-3.84 3.033-5.76 0 0 0.24-0.933 0.013-1.56zM9.627 12.353c0 0-0.047 0-0.060 0.033 0 0-0.007 0.047 0.020 0.067 0.467 0.34 1.9 1.333 2.587 1.533 0 0 0.107 0.033 0.287 0.040h0.093c0.46-0.013 1.267-0.247 2-1.507zM14.847 6.747c0.093-1.373-1.293-2.647-1.293-2.653 0 0-2.567 3.107-4.447 7.2 0 0-0.020 0.053 0.013 0.087l0.027 0.007h0.040c0.707-0.353 3.64-1.847 4.853-3.027 0 0 0.767-0.62 0.807-1.613zM15.86 8.173c0 0-4.187 2.247-6.347 3.7 0 0-0.033 0.027-0.020 0.073 0 0 0.020 0.040 0.047 0.040 0.773 0 3.707 0 3.78-0.013 0 0 0.38-0.013 0.847-0.193 0 0 1.040-0.333 1.58-1.513 0 0 0.487-0.967 0.113-2.093z"></path>
</svg>
