<!-- Generated by IcoMoon.io -->
<svg version="1.1" xmlns="http://www.w3.org/2000/svg" width="16" height="16" viewBox="0 0 16 16">
<title>hubspot</title>
<path fill="#ff7a59" d="M12.109 5.287v-1.897c0.5-0.238 0.841-0.738 0.844-1.318v-0.045c-0.002-0.806-0.655-1.459-1.461-1.462h-0.045c-0.806 0.002-1.459 0.655-1.462 1.461v0.045c0.003 0.577 0.339 1.075 0.826 1.312l0.009 0.004 0.009 0.004v1.901c-0.76 0.119-1.433 0.429-1.987 0.879l0.008-0.006 0.008-0.006-5.219-4.064c0.036-0.129 0.056-0.276 0.056-0.429 0-0.919-0.745-1.665-1.665-1.665s-1.665 0.745-1.665 1.665c0 0.919 0.745 1.665 1.665 1.665 0.308 0 0.597-0.084 0.845-0.23l-0.008 0.004-0.008 0.004 5.131 3.994c-0.434 0.642-0.692 1.433-0.692 2.285 0 0.004 0 0.009 0 0.013v-0.001c0 0.895 0.283 1.725 0.765 2.404l-0.009-0.013-1.561 1.561c-0.115-0.039-0.248-0.062-0.386-0.063l-0.001-0h-0.001c-0.749 0-1.355 0.607-1.355 1.355s0.607 1.355 1.355 1.355c0.749 0 1.355-0.607 1.355-1.355v0c-0.002-0.142-0.026-0.279-0.069-0.406l0.003 0.009 0.003 0.009 1.545-1.545c0.693 0.533 1.573 0.855 2.527 0.855 2.3 0 4.165-1.865 4.165-4.165 0-2.067-1.506-3.782-3.48-4.109l-0.024-0.003zM11.467 11.539c-1.178-0.003-2.132-0.959-2.132-2.137 0-1.18 0.957-2.137 2.137-2.137s2.137 0.957 2.137 2.137v0 0.001c-0.001 1.18-0.957 2.136-2.137 2.136-0.002 0-0.004 0-0.006 0h0z"></path>
</svg>
