<!-- Generated by IcoMoon.io -->
<svg version="1.1" xmlns="http://www.w3.org/2000/svg" width="16" height="16" viewBox="0 0 16 16">
<title>humblebundle</title>
<path fill="#cc2929" d="M2.763 15.997c0.080-0.309 0.153-0.6 0.229-0.892 0.461-1.809 0.881-3.627 1.213-5.465 0.163-0.9 0.297-1.807 0.422-2.716 0.095-0.685 0.145-1.376 0.132-2.070-0.007-0.371-0.023-0.744-0.129-1.103-0.047-0.16-0.116-0.315-0.2-0.457-0.11-0.182-0.287-0.252-0.5-0.245-0.589 0.017-1.089 0.242-1.515 0.64-0.485 0.453-0.801 1.018-1.035 1.63-0.111 0.29-0.189 0.591-0.281 0.887-0.013 0.044-0.017 0.082-0.077 0.081-0.329-0.004-0.659-0.003-0.989-0.004-0.009 0-0.016-0.005-0.024-0.007 0-0.129-0.013-0.257 0.002-0.381 0.231-1.902 1.047-3.511 2.445-4.817 0.523-0.489 1.143-0.829 1.851-0.983 1.037-0.225 1.864 0.172 2.356 1.12 0.25 0.48 0.385 0.997 0.473 1.529 0.14 0.858 0.145 1.724 0.117 2.59-0.009 0.28-0.027 0.56-0.041 0.84-0.001 0.036 0 0.072 0 0.117 0.038 0.002 0.070 0.005 0.103 0.005 0.603 0 1.207-0.001 1.811 0.003 0.083 0 0.107-0.031 0.12-0.107 0.383-2.075 0.911-4.113 1.593-6.111 0.016-0.049 0.033-0.083 0.098-0.083 0.747 0.003 1.493 0.003 2.241 0.003 0.011 0 0.023 0.003 0.047 0.005l-0.129 0.502c-0.504 1.957-0.957 3.924-1.324 5.909-0.192 1.031-0.355 2.067-0.46 3.109-0.057 0.583-0.093 1.168-0.075 1.753 0.011 0.353 0.036 0.708 0.147 1.047 0.043 0.135 0.107 0.267 0.182 0.387 0.111 0.173 0.284 0.244 0.493 0.237 0.773-0.022 1.361-0.393 1.831-0.98 0.471-0.587 0.755-1.267 0.956-1.987 0.019-0.067 0.040-0.135 0.051-0.204 0.009-0.055 0.036-0.069 0.087-0.069 0.311 0.001 0.622 0.003 0.933 0 0.068-0.001 0.080 0.029 0.078 0.087-0.009 0.536-0.105 1.055-0.26 1.565-0.393 1.285-1.038 2.423-1.995 3.373-0.542 0.54-1.175 0.938-1.92 1.137-0.451 0.122-0.903 0.141-1.35-0.019-0.507-0.18-0.851-0.544-1.107-1.003-0.268-0.483-0.409-1.008-0.5-1.548-0.16-0.937-0.16-1.883-0.115-2.828 0.028-0.593 0.085-1.185 0.129-1.777 0.009-0.127 0.011-0.127-0.116-0.127-0.57 0-1.14 0.001-1.711-0.001-0.069 0-0.102 0.016-0.113 0.091-0.18 1.209-0.425 2.405-0.716 3.591-0.302 1.228-0.649 2.443-1.058 3.64-0.029 0.085-0.069 0.107-0.155 0.107-0.71-0.004-1.42-0.003-2.131-0.003z"></path>
</svg>
