<!-- Generated by IcoMoon.io -->
<svg version="1.1" xmlns="http://www.w3.org/2000/svg" width="16" height="16" viewBox="0 0 16 16">
<title>hypothesis</title>
<path fill="#bd1c2b" d="M2.287 0c-0.62 0-1.14 0.512-1.14 1.147v11.427c0 0.627 0.52 1.14 1.14 1.14h3.967l1.747 2.287 1.747-2.287h3.967c0.62 0 1.147-0.513 1.147-1.14v-11.427c0-0.633-0.527-1.147-1.147-1.147h-11.427zM3.427 2.287h1.72v4c0 0 0.573-1.14 1.707-1.14 1.147 0 2.307 0.567 2.307 2.347v3.933h-1.72v-3.427c0-0.927-0.587-1.287-1.153-1.14-0.573 0.14-1.14 0.747-1.14 2v2.567h-1.72v-9.14zM12 9.147c0.633 0 1.147 0.52 1.147 1.133 0 0 0 0 0 0 0 0.63-0.51 1.14-1.14 1.14-0.002 0-0.005 0-0.007-0h0c-0.63 0-1.14-0.51-1.14-1.14v0c0-0.613 0.507-1.14 1.14-1.133z"></path>
</svg>
