<!-- Generated by IcoMoon.io -->
<svg version="1.1" xmlns="http://www.w3.org/2000/svg" width="16" height="16" viewBox="0 0 16 16">
<title>iata</title>
<path fill="#004e81" d="M2.279 13.153l0.653-3.257h1.061l-0.649 3.256zM5.483 12.087h0.675l-0.173-1.195zM3.993 13.153l1.608-3.257h1.047l0.66 3.256h-0.983l-0.059-0.387h-1.048l-0.167 0.387zM8.286 13.153l0.365-2.449h-0.929l0.159-0.822h2.854l-0.158 0.822h-0.885l-0.357 2.449zM11.855 12.087h0.675l-0.173-1.195zM10.369 13.153l1.605-3.257h1.047l0.66 3.256h-0.991l-0.048-0.387h-1.047l-0.167 0.387zM16 6.216h-4.997c-0.184 0.915-0.819 1.678-2.083 2.205 0.144 0.435 0.634 0.837 1.143 0.837h2.71c0.413 0 0.741-0.347 0.874-0.627h-2.754c-0.169-0.029-0.177-0.167-0.007-0.181h2.707c0.35 0 0.667-0.299 0.851-0.623h-3.153c-0.158-0.026-0.158-0.159 0-0.185h3.179c0.32 0 0.612-0.372 0.733-0.623h-3.488c-0.173-0.022-0.173-0.185 0-0.188h3.551c0.277 0 0.546-0.303 0.733-0.616zM0 6.216h4.997c0.18 0.915 0.819 1.678 2.080 2.205-0.144 0.435-0.635 0.837-1.143 0.837h-2.707c-0.413 0-0.741-0.347-0.874-0.627h2.754c0.166-0.029 0.177-0.167 0.007-0.181h-2.709c-0.35 0-0.667-0.299-0.848-0.623h3.157c0.159-0.026 0.159-0.159 0-0.185h-3.18c-0.321 0-0.612-0.372-0.733-0.623h3.488c0.173-0.022 0.173-0.185 0-0.188h-3.551c-0.28 0-0.549-0.303-0.737-0.616zM6.379 3.473c0.185 0.159 0.391 0.299 0.612 0.387 0.188-0.369 0.45-0.685 0.753-0.966-0.524 0.067-0.99 0.274-1.37 0.583l0.005-0.004zM5.495 5.291h1.113c0.024-0.465 0.133-0.899 0.312-1.295l-0.009 0.022c-0.256-0.114-0.476-0.254-0.671-0.423l0.003 0.003c-0.437 0.436-0.717 1.029-0.748 1.687l-0 0.006zM7.913 4.247v1.044h-1.113c0.010-0.44 0.11-0.855 0.284-1.229l-0.008 0.019c0.266 0.096 0.553 0.159 0.837 0.166zM9.621 3.473c-0.175 0.156-0.377 0.286-0.598 0.381l-0.014 0.006c-0.202-0.374-0.454-0.692-0.753-0.959l-0.003-0.003c0.525 0.063 0.992 0.269 1.373 0.579l-0.005-0.004zM10.502 5.291h-1.11c-0.016-0.464-0.123-0.899-0.303-1.294l0.009 0.021c0.236-0.111 0.46-0.251 0.656-0.42 0.443 0.432 0.725 1.027 0.749 1.688l0 0.004zM8.093 4.247v1.044h1.107c0-0.421-0.103-0.823-0.277-1.21-0.245 0.094-0.529 0.154-0.825 0.166l-0.005 0zM6.379 7.293c0.185-0.144 0.398-0.303 0.612-0.38 0.199 0.373 0.447 0.679 0.753 0.955-0.523-0.065-0.989-0.272-1.37-0.579l0.005 0.004zM5.495 5.472h1.113c0.026 0.461 0.121 0.867 0.303 1.283-0.255 0.114-0.475 0.254-0.672 0.42l0.004-0.003c-0.437-0.438-0.716-1.033-0.748-1.694l-0-0.006zM7.913 6.519v-1.047h-1.113c0.007 0.42 0.103 0.837 0.276 1.209 0.266-0.096 0.553-0.155 0.837-0.163zM9.621 7.293c-0.175-0.153-0.377-0.28-0.597-0.374l-0.015-0.006c-0.201 0.372-0.453 0.688-0.752 0.952l-0.004 0.003c0.524-0.066 0.991-0.272 1.373-0.579l-0.005 0.004zM10.502 5.472h-1.11c-0.014 0.467-0.122 0.906-0.303 1.304l0.009-0.021c0.236 0.111 0.449 0.244 0.656 0.417 0.44-0.436 0.721-1.033 0.748-1.694l0-0.005zM8.094 6.519v-1.047h1.107c0 0.42-0.103 0.829-0.277 1.209-0.245-0.093-0.529-0.152-0.825-0.163l-0.005-0zM7.913 3.001c-0.307 0.251-0.558 0.558-0.741 0.905l-0.008 0.016c0.24 0.081 0.494 0.148 0.749 0.148zM8.094 3.001c0.295 0.243 0.564 0.564 0.741 0.921-0.219 0.088-0.473 0.142-0.739 0.148l-0.003 0zM7.913 7.765c-0.309-0.25-0.561-0.559-0.741-0.909l-0.007-0.016c0.24-0.085 0.494-0.133 0.749-0.133zM8.094 7.773c0.295-0.247 0.564-0.579 0.741-0.933-0.22-0.078-0.474-0.125-0.738-0.132l-0.003-0z"></path>
</svg>
