<!-- Generated by IcoMoon.io -->
<svg version="1.1" xmlns="http://www.w3.org/2000/svg" width="16" height="16" viewBox="0 0 16 16">
<title>ibm</title>
<path fill="#054ada" d="M0 10.763h3.111v0.445h-3.111zM0 9.908h3.111v0.447h-3.111zM0.887 9.055h1.335v0.447h-1.335zM0.887 8.203h1.335v0.447h-1.335zM0.887 7.35h1.335v0.447h-1.335zM0.887 6.496h1.335v0.447h-1.335zM0 5.644h3.111v0.447h-3.111zM0 4.791h3.111v0.447h-3.111zM3.555 10.355h4.785c0.080-0.137 0.141-0.289 0.178-0.447h-4.962zM7.967 8.203h-3.522v0.447h3.895c-0.103-0.173-0.227-0.32-0.371-0.445l-0.002-0.002zM4.444 7.35v0.447h3.523c0.149-0.125 0.273-0.276 0.373-0.447zM8.339 5.644h-4.785v0.447h4.962c-0.045-0.17-0.105-0.318-0.182-0.456l0.005 0.010zM6.869 4.791h-3.314v0.447h4.457c-0.299-0.277-0.7-0.447-1.141-0.447-0 0-0.001 0-0.001 0h0zM4.444 6.496h1.333v0.447h-1.333zM7.111 6.943h1.395c0.039-0.143 0.060-0.293 0.060-0.447h-1.455zM4.444 9.055h1.333v0.447h-1.333zM7.111 9.055v0.447h1.455c0-0.153-0.021-0.305-0.060-0.447zM3.555 11.205l3.313 0.005c0.445 0 0.845-0.171 1.145-0.447h-4.458zM8.889 10.763h2.221v0.445h-2.221zM8.889 9.908h2.221v0.447h-2.221zM9.777 9.055h1.333v0.447h-1.333zM9.777 8.203h1.333v0.447h-1.333zM11.729 5.644h-2.84v0.447h2.993zM11.435 4.791h-2.545v0.446h2.699zM13.777 10.763h2.223v0.445h-2.223zM13.777 9.908h2.223v0.447h-2.223zM13.777 9.055h1.333v0.447h-1.333zM13.777 8.203h1.333v0.447h-1.333zM13.777 7.797h1.333v-0.447h-2.541l-0.125 0.361-0.125-0.361h-2.542v0.447h1.333v-0.411l0.142 0.411h2.383l0.141-0.411zM15.111 6.496h-2.247l-0.153 0.447h2.4zM13.455 4.791l-0.154 0.446h2.699v-0.446zM12.444 11.205l0.153-0.442h-0.307zM12.149 10.355h0.589l0.159-0.447h-0.905zM11.85 9.503h1.188l0.157-0.447h-1.502zM11.551 8.65h1.786l0.153-0.447h-2.092zM9.777 6.943h2.401l-0.154-0.447h-2.247zM13.007 6.091h2.993v-0.447h-2.841z"></path>
</svg>
