<!-- Generated by IcoMoon.io -->
<svg version="1.1" xmlns="http://www.w3.org/2000/svg" width="16" height="16" viewBox="0 0 16 16">
<title>icloud</title>
<path fill="#3693f3" d="M13.342 7.151l0.001-0.019c0-0 0-0.001 0-0.001 0-2.337-1.894-4.231-4.231-4.231-1.597 0-2.988 0.885-3.708 2.191l-0.011 0.022c-0.306-0.163-0.669-0.259-1.054-0.259-1.211 0-2.201 0.945-2.272 2.138l-0 0.006c-1.216 0.453-2.066 1.604-2.067 2.953v0c0 1.737 1.409 3.146 3.146 3.146h9.871c1.644-0.005 2.975-1.339 2.975-2.983 0-1.53-1.152-2.791-2.636-2.963l-0.014-0.001z"></path>
</svg>
