<!-- Generated by IcoMoon.io -->
<svg version="1.1" xmlns="http://www.w3.org/2000/svg" width="16" height="16" viewBox="0 0 16 16">
<title>icomoon</title>
<path fill="#825794" d="M8 0c-1.107 0-2.14 0.209-3.107 0.625-0.995 0.421-1.845 0.997-2.56 1.708l0-0c-0.711 0.715-1.288 1.565-1.689 2.508l-0.020 0.052c-0.416 0.967-0.625 2-0.625 3.107s0.209 2.14 0.625 3.107c0.421 0.995 0.997 1.845 1.708 2.56l-0-0c0.716 0.71 1.565 1.286 2.508 1.687l0.052 0.020c0.967 0.42 2 0.627 3.107 0.627s2.14-0.207 3.107-0.627c0.995-0.42 1.844-0.996 2.561-1.707l-0.001 0.001c0.71-0.716 1.286-1.565 1.687-2.508l0.020-0.052c0.42-0.967 0.627-2 0.627-3.107s-0.207-2.14-0.627-3.107c-0.42-0.995-0.996-1.844-1.707-2.561l0.001 0.001c-0.715-0.711-1.565-1.288-2.508-1.689l-0.052-0.020c-0.967-0.416-2-0.625-3.107-0.625zM5.92 1c0.633 0.367 1.178 0.792 1.659 1.279l0.001 0.001c0.478 0.477 0.897 1.013 1.246 1.596l0.021 0.037c0.353 0.6 0.62 1.24 0.82 1.933 0.187 0.687 0.287 1.407 0.287 2.153s-0.1 1.467-0.287 2.153c-0.203 0.735-0.483 1.377-0.84 1.968l0.020-0.035c-0.37 0.62-0.789 1.156-1.267 1.633l-0 0c-0.5 0.5-1.053 0.92-1.66 1.28-0.624-0.37-1.162-0.794-1.639-1.279l-0.001-0.001c-0.483-0.477-0.907-1.013-1.259-1.597l-0.021-0.037c-0.327-0.556-0.599-1.199-0.781-1.879l-0.012-0.055c-0.19-0.64-0.3-1.375-0.3-2.136 0-0.006 0-0.012 0-0.018v0.001c0-0.747 0.093-1.467 0.3-2.153 0.194-0.734 0.466-1.377 0.813-1.97l-0.020 0.037c0.373-0.62 0.797-1.156 1.279-1.633l0.001-0.001c0.5-0.5 1.053-0.92 1.64-1.28zM5.907 6.153c-0.513 0-0.947 0.18-1.307 0.54-0.333 0.324-0.54 0.776-0.54 1.277 0 0.010 0 0.021 0 0.031l-0-0.002c0 0.513 0.18 0.947 0.54 1.307s0.793 0.54 1.307 0.54 0.947-0.18 1.307-0.54 0.54-0.793 0.54-1.307-0.18-0.947-0.54-1.307c-0.324-0.333-0.776-0.54-1.277-0.54-0.010 0-0.021 0-0.031 0l0.002-0z"></path>
</svg>
