<!-- Generated by IcoMoon.io -->
<svg version="1.1" xmlns="http://www.w3.org/2000/svg" width="16" height="16" viewBox="0 0 16 16">
<title>icon</title>
<path fill="#31b8bb" d="M14.403 0.014c-0.882 0.001-1.596 0.716-1.596 1.598 0 0.771 0.546 1.415 1.273 1.565l0.010 0.002c0.095 0.020 0.203 0.031 0.315 0.031 0.883 0 1.598-0.715 1.598-1.598s-0.715-1.598-1.598-1.598c-0.001 0-0.001 0-0.002 0h0zM8.014 1.611c-3.527 0-6.389 2.861-6.389 6.389 0 1.428 0.469 2.747 1.261 3.811l1.724-1.724c-0.37-0.594-0.589-1.315-0.589-2.087 0-2.205 1.788-3.993 3.993-3.993 0.772 0 1.492 0.219 2.103 0.598l-0.017-0.010 1.724-1.724c-1.047-0.787-2.368-1.261-3.8-1.261-0.003 0-0.007 0-0.010 0h0.001zM13.142 4.189l-1.724 1.725c0.37 0.594 0.59 1.316 0.59 2.089 0 2.205-1.788 3.993-3.993 3.993-0.773 0-1.494-0.219-2.105-0.599l0.017 0.010-1.724 1.723c1.047 0.788 2.37 1.262 3.803 1.262 0.003 0 0.005 0 0.008 0h-0c3.529 0 6.389-2.86 6.389-6.389 0-1.428-0.469-2.747-1.261-3.812zM1.597 12.791c-0.882 0.001-1.597 0.716-1.597 1.599 0 0.771 0.546 1.415 1.273 1.566l0.010 0.002c0.093 0.019 0.201 0.030 0.31 0.030 0.884 0 1.601-0.717 1.601-1.601 0-0.11-0.011-0.218-0.032-0.321l0.002 0.010c-0.152-0.737-0.796-1.284-1.568-1.284-0 0-0 0-0 0v0z"></path>
</svg>
