<!-- Generated by IcoMoon.io -->
<svg version="1.1" xmlns="http://www.w3.org/2000/svg" width="16" height="16" viewBox="0 0 16 16">
<title>iconjar</title>
<path fill="#16a5f3" d="M3.671 3.917c-0.328 0-0.624-0.302-0.624-0.636 0-0.77 1.905-1.34 4.073-1.34 0.197 0 0.328 0 0.328-0.167 0-0.301-0.657-0.401-0.657-0.903 0-0.536 0.624-0.871 1.412-0.871s1.413 0.335 1.413 0.871c0 0.502-0.657 0.569-0.657 0.903 0 0.101 0.099 0.167 0.328 0.167 2.168 0 4.107 0.535 4.107 1.339 0 0.002 0 0.004 0 0.006 0 0.346-0.279 0.627-0.624 0.629h-0zM13.492 6.962c0.789 0.502 1.084 1.406 0.953 2.243l-0.92 5.053c-0.197 1.006-1.052 1.741-2.071 1.741h-6.437c-1.017 0-1.872-0.736-2.069-1.741l-0.92-5.054c-0.018-0.106-0.029-0.229-0.029-0.354 0-0.776 0.401-1.458 1.006-1.851l0.009-0.005c0.46-0.334 0.558-0.903 0-1.104-0.789-0.301-0.625-1.272 0.164-1.272h4.795c0.755 0 1.676 0.569 1.676 2.41s-0.855 1.673-0.855 2.979c0 0.569 0.46 1.172 1.018 1.239 0.953 0.1 1.511-0.268 1.511-1.607 0-1.373-0.788-2.009-0.788-3.147 0-1.373 0.853-1.909 1.412-1.909h1.38c0.788 0 0.953 0.971 0.164 1.273-0.558 0.233-0.46 0.803 0 1.104z"></path>
</svg>
