<!-- Generated by IcoMoon.io -->
<svg version="1.1" xmlns="http://www.w3.org/2000/svg" width="16" height="16" viewBox="0 0 16 16">
<title>icq</title>
<path fill="#7ebd00" d="M10.271 0.089c-0.504-0.042-0.984 0.060-1.453 0.311-0.627 0.335-1.073 0.85-1.275 1.52v0.045l-0.023 0.157-0.089-0.157-0.223-0.402c-0.357-0.558-0.804-0.893-1.363-1.049-0.491-0.111-0.893-0.065-1.317 0.16-0.47 0.291-0.737 0.737-0.849 1.363-0.112 0.648 0 1.273 0.335 1.898l0.157 0.224-0.538-0.178c-0.67-0.157-1.296-0.069-1.922 0.267-0.648 0.333-1.049 0.803-1.317 1.453-0.247 0.625-0.224 1.229 0.089 1.787 0.135 0.247 0.336 0.447 0.515 0.581 0.268 0.268 0.603 0.424 1.005 0.491l0.156 0.044-0.335 0.292c-0.313 0.268-0.492 0.602-0.604 0.937-0.112 0.402-0.067 0.805 0.157 1.185 0.113 0.179 0.223 0.335 0.401 0.447 0.179 0.157 0.403 0.269 0.671 0.291 0.492 0.113 1.005 0.112 1.564-0.067l-0.403 0.67-0.112 0.291c-0.223 0.716-0.155 1.34 0.18 1.989 0.157 0.247 0.333 0.47 0.513 0.671 0.267 0.245 0.604 0.401 1.007 0.513 0.669 0.179 1.34 0.157 1.987-0.178 0.627-0.335 1.029-0.873 1.23-1.543l0.021-0.133c0.425 0.469 0.827 0.782 1.275 0.893 0.447 0.135 0.893 0.113 1.296-0.155 0.38-0.223 0.649-0.604 0.783-1.073 0.112-0.492 0.112-0.983 0-1.541 0.223 0.157 0.447 0.267 0.715 0.335 0.715 0.223 1.34 0.2 1.967-0.133 0.603-0.336 1.005-0.872 1.207-1.565 0.179-0.67 0.135-1.318-0.2-1.944l-0.113-0.18c-0.178-0.268-0.358-0.536-0.627-0.715-0.223-0.157-0.49-0.268-0.736-0.38 0.693-0.335 1.184-0.805 1.407-1.408 0.157-0.492 0.113-0.895-0.111-1.297v-0.044c-0.268-0.447-0.625-0.737-1.183-0.893-0.335-0.067-0.715-0.068-1.049-0.045l-0.739 0.157 0.247-0.559c0.223-0.715 0.157-1.408-0.223-2.056l-0.067-0.113c-0.335-0.559-0.827-0.893-1.497-1.071-0.173-0.045-0.344-0.075-0.513-0.089zM9.891 1.031c0.215-0.020 0.433 0.008 0.645 0.087 0.469 0.111 0.805 0.356 1.007 0.736v0.002c0.112 0.223 0.178 0.491 0.178 0.781l-0.067 0.492c-0.089 0.247-0.201 0.469-0.335 0.669l-2.011 2.46c-0.2-0.157-0.425-0.269-0.648-0.38l-0.224-2.527-0.022-0.893 0.021-0.223c0.112-0.447 0.425-0.782 0.827-1.005 0.201-0.112 0.413-0.179 0.629-0.199zM5.302 1.389c0.089-0.003 0.184 0.020 0.273 0.064 0.402 0.112 0.737 0.402 1.005 0.96 0.113 0.224 0.224 0.447 0.269 0.715l0.447 2.638-0.336 0.112-1.989-2.168-0.112-0.223c-0.18-0.403-0.29-0.782-0.245-1.185v-0.001c0.023-0.402 0.179-0.669 0.447-0.825 0.067-0.056 0.151-0.085 0.241-0.087zM13.389 4.745c0.1 0 0.198 0.005 0.299 0.016 0.38 0.045 0.648 0.225 0.782 0.493l0.090 0.289-0.045 0.223c-0.156 0.402-0.492 0.716-1.050 0.961-0.223 0.112-0.469 0.157-0.737 0.2l-2.749 0.335-0.045-0.157-0.045-0.067 0.090-0.111 2.258-1.877 0.267-0.111 0.001-0.001c0.3-0.133 0.59-0.191 0.883-0.194zM3.081 4.867c0.107 0.005 0.216 0.022 0.327 0.050v0.001l0.605 0.245 1.967 1.431c-0.18 0.224-0.29 0.447-0.357 0.67l-3.219 0.402-0.223-0.044c-0.402-0.067-0.671-0.247-0.851-0.58-0.18-0.335-0.178-0.671-0.044-1.007 0.157-0.424 0.447-0.76 0.871-0.938 0.302-0.168 0.604-0.249 0.924-0.231zM7.855 6.66c0.403 0 0.783 0.157 1.029 0.403 0.313 0.313 0.447 0.649 0.447 1.051s-0.133 0.781-0.447 1.049c-0.291 0.291-0.627 0.447-1.029 0.447-0.424 0-0.78-0.157-1.049-0.447-0.291-0.268-0.447-0.647-0.447-1.049s0.156-0.738 0.447-1.051c0.268-0.247 0.625-0.403 1.048-0.403zM13.465 8.38l0.224 0.023c0.336 0.112 0.649 0.312 0.827 0.647 0.224 0.247 0.335 0.582 0.335 0.962l-0.067 0.447c-0.111 0.447-0.38 0.782-0.76 0.96-0.402 0.224-0.805 0.269-1.251 0.113-0.268-0.067-0.447-0.179-0.603-0.357l-2.347-1.945 0.157-0.335 0.067-0.269 2.525-0.223zM9.041 10.012l0.938 0.96 0.58 0.715 0.113 0.225c0.2 0.38 0.312 0.737 0.267 1.161-0.044 0.401-0.178 0.692-0.447 0.804-0.156 0.112-0.335 0.113-0.513 0.090-0.425-0.111-0.76-0.445-1.005-0.982l-0.269-0.739-0.335-1.945 0.379-0.133zM6.627 10.057c0.223 0.111 0.447 0.223 0.693 0.245 0.044 0.76 0.11 1.565 0.221 2.436v0.895l-0.022 0.222c-0.157 0.402-0.425 0.738-0.827 0.917-0.403 0.223-0.827 0.268-1.23 0.157-0.447-0.111-0.782-0.38-0.96-0.737-0.113-0.223-0.203-0.493-0.203-0.76l0.113-0.513c0.044-0.223 0.157-0.447 0.335-0.627z"></path>
</svg>
