<!-- Generated by IcoMoon.io -->
<svg version="1.1" xmlns="http://www.w3.org/2000/svg" width="16" height="16" viewBox="0 0 16 16">
<title>ideal</title>
<path fill="#c06" d="M0.65 1.74v12.521h7.607c4.593 0 7.093-2.14 7.093-6.277 0-4.251-2.709-6.245-7.093-6.245zM8.257 1.090c6.737 0 7.743 4.32 7.743 6.895 0 4.467-2.749 6.927-7.743 6.927h-8.257v-13.821zM1.671 8.905h2.435v4.335h-2.435zM4.401 6.721c0 0.836-0.678 1.513-1.513 1.513s-1.513-0.678-1.513-1.513v0c0-0.836 0.678-1.513 1.513-1.513s1.513 0.678 1.513 1.513v0zM5.332 6.017v1.413h0.433c0.3 0 0.578-0.087 0.578-0.718 0-0.616-0.309-0.695-0.578-0.695zM12.565 5.314h0.702v2.116h1.040c-0.285-3.839-3.305-4.668-6.049-4.668h-2.925v2.553h0.433c0.789 0 1.28 0.535 1.28 1.397 0 0.889-0.479 1.419-1.28 1.419h-0.433v5.11h2.925c4.461 0 6.014-2.071 6.069-5.11h-1.76zM10.612 6.886h0.507l-0.232-0.797h-0.042zM9.517 8.133l0.849-2.819h0.998l0.849 2.818h-0.73l-0.159-0.545h-0.917l-0.16 0.545zM9.18 7.43v0.701h-1.735v-2.816h1.679v0.701h-0.978v0.327h0.925v0.7h-0.924v0.387z"></path>
</svg>
