<!-- Generated by IcoMoon.io -->
<svg version="1.1" xmlns="http://www.w3.org/2000/svg" width="16" height="16" viewBox="0 0 16 16">
<title>ifixit</title>
<path fill="#0071ce" d="M10.23 8.337l1.58 2.087c0.132 0.174 0.141 0.46 0.017 0.641l-0.079 0.118c-0.121 0.18-0.367 0.43-0.543 0.554l-0.19 0.134c-0.177 0.13-0.465 0.13-0.637-0.011l-2.090-1.579c-0.17-0.13-0.454-0.13-0.627 0l-2.091 1.579c-0.172 0.141-0.459 0.141-0.637 0.020l-0.138-0.090c-0.18-0.121-0.427-0.371-0.55-0.54l-0.121-0.171c-0.124-0.18-0.12-0.459 0.012-0.64l1.585-2.099c0.13-0.171 0.13-0.45 0-0.63l-1.589-2.091c-0.129-0.175-0.135-0.46-0.009-0.638l0.133-0.19c0.125-0.176 0.373-0.419 0.552-0.543l0.117-0.079c0.18-0.131 0.469-0.121 0.641 0.009l2.090 1.58c0.173 0.13 0.456 0.13 0.628 0l2.090-1.59c0.172-0.13 0.465-0.151 0.653-0.041l0.22 0.13c0.187 0.11 0.426 0.349 0.53 0.54l0.080 0.14c0.103 0.19 0.082 0.481-0.050 0.66l-1.58 2.090c-0.129 0.17-0.129 0.451 0 0.63zM8 0c-4.42 0-8 3.582-8 8s3.58 8 8 8c4.418 0 8-3.582 8-8s-3.582-8-8-8z"></path>
</svg>
