<!-- Generated by IcoMoon.io -->
<svg version="1.1" xmlns="http://www.w3.org/2000/svg" width="16" height="16" viewBox="0 0 16 16">
<title>imdb</title>
<path fill="#e6b91e" d="M9.54 6.392v0.003c-0.051-0.032-0.151-0.047-0.28-0.047v3.21c0.18 0 0.293-0.040 0.333-0.11 0.041-0.069 0.063-0.27 0.063-0.59v-1.911c0-0.22-0.003-0.36-0.022-0.42-0.015-0.064-0.045-0.109-0.095-0.136zM14.944 0h-13.864c-0.585 0.040-1.040 0.496-1.080 1.064v13.856c0.040 0.583 0.475 1.028 1.037 1.078 0.010 0.002 0.020 0.002 0.030 0.002h13.897c0.587-0.059 1.033-0.551 1.037-1.14v-13.72c0-0.593-0.463-1.093-1.056-1.14zM3.195 10.417h-1.27v-4.911h1.27zM7.555 10.416h-1.108v-3.313l-0.447 3.313h-0.792l-0.465-3.24-0.005 3.24h-1.111v-4.909h1.645c0.055 0.349 0.107 0.699 0.153 1.049l0.18 1.247 0.295-2.296h1.655zM10.873 8.963c0 0.437-0.029 0.729-0.069 0.88-0.041 0.147-0.113 0.267-0.217 0.347-0.1 0.087-0.227 0.145-0.38 0.177-0.149 0.030-0.38 0.050-0.68 0.050l-0.003-0.001h-1.537v-4.909h0.951c0.609 0 0.967 0.031 1.18 0.085 0.217 0.060 0.383 0.15 0.497 0.28 0.11 0.12 0.182 0.269 0.209 0.43 0.033 0.157 0.051 0.47 0.051 0.935zM14.169 9.279c0 0.3-0.030 0.509-0.060 0.66-0.040 0.149-0.13 0.269-0.27 0.379-0.151 0.111-0.32 0.16-0.52 0.16-0.147 0-0.333-0.040-0.453-0.091-0.127-0.063-0.239-0.158-0.343-0.285l-0.077 0.313h-1.145v-4.909l-0.013-0.002h1.2v1.6c0.1-0.117 0.21-0.207 0.34-0.267 0.131-0.055 0.311-0.085 0.46-0.085 0.151-0.002 0.3 0.024 0.44 0.077 0.113 0.047 0.213 0.123 0.291 0.22 0.060 0.083 0.1 0.18 0.12 0.28 0.020 0.092 0.029 0.287 0.029 0.58zM12.72 7.47c-0.080 0-0.129 0.027-0.15 0.080s-0.040 0.193-0.040 0.416v1.297c0 0.216 0.020 0.355 0.040 0.415 0.027 0.057 0.087 0.093 0.151 0.089 0.080 0 0.181-0.031 0.2-0.093 0.020-0.065 0.031-0.213 0.031-0.449l0.020-0.001v-1.26c0-0.202-0.010-0.339-0.040-0.402-0.029-0.067-0.13-0.093-0.211-0.092z"></path>
</svg>
