<!-- Generated by IcoMoon.io -->
<svg version="1.1" xmlns="http://www.w3.org/2000/svg" width="16" height="16" viewBox="0 0 16 16">
<title>imgur</title>
<path fill="#1bb76e" d="M14.098 2.029c-0.001-0.075-0.046-0.121-0.126-0.127-0.074-0.009-0.192-0.020-0.31-0.028l-0.030-0.002-0.108-0.007c-0.204-0.015-0.456-0.026-0.71-0.030l-0.014-0-0.145-0.003c-0.115-0.002-0.233-0.003-0.355-0.003l-0.126-0.001c-0.197 0-0.401 0.002-0.613 0.007l-0.071 0.002c-0.246 0.005-0.448 0.012-0.65 0.020l0.070-0.002-0.158 0.006c-0.223 0.009-0.451 0.019-0.685 0.033l-0.008 0.001c-0.238 0.014-0.483 0.030-0.73 0.047l-0.183 0.014c-0.203 0.015-0.406 0.032-0.613 0.051l-0.167 0.014c-0.253 0.023-0.511 0.049-0.771 0.077-0.053 0.006-0.107 0.013-0.161 0.018-0.213 0.023-0.427 0.049-0.643 0.075l-0.22 0.028c-0.269 0.034-0.537 0.070-0.808 0.109-0.038 0.005-0.073 0.016-0.105 0.031l0.002-0.001c-0.025 0.012-0.047 0.029-0.064 0.049l-0 0-0.002 0.001c-0.030 0.037-0.031 0.080 0.003 0.119 0.002 0.003 0.001 0.005 0.003 0.008l2.325 2.304-4.419 4.397c-0.046 0.045-0.045 0.11 0 0.167 0.571 0.729 0.96 1.195 1.429 1.661 0.466 0.469 0.932 0.857 1.662 1.429 0.024 0.020 0.054 0.033 0.088 0.034h0c0.031-0 0.059-0.013 0.079-0.034l0-0 4.398-4.419 2.303 2.325c0.017 0.018 0.041 0.030 0.067 0.031h0c0.064 0 0.125-0.079 0.141-0.195 0.497-3.427 0.588-6.701 0.423-8.207zM10.58 16l4.359-4.359-0.004-0.004c0.286-0.304 0.483-0.695 0.547-1.129l0.001-0.011c0.536-3.687 0.602-7.061 0.436-8.635-0.039-0.474-0.244-0.894-0.556-1.208l0 0c-0.314-0.315-0.735-0.524-1.203-0.569l-0.008-0.001c-0.513-0.056-1.168-0.084-1.94-0.084-1.999 0-4.445 0.189-6.709 0.518-0.502 0.071-0.937 0.311-1.257 0.659l-0.001 0.002-4.245 4.246v10.575zM11.599 11.529c-0.101 0-0.375 0.27-0.375 0.409 0 0 0 0 0 0 0 0.037-0.029 0.066-0.066 0.067h-0c-0.037-0-0.066-0.030-0.066-0.067 0 0 0 0 0 0v0c0-0.139-0.274-0.409-0.375-0.409-0.037-0-0.066-0.030-0.066-0.067 0 0 0 0 0 0v0c0-0.036 0.029-0.065 0.066-0.065 0.101 0 0.375-0.269 0.375-0.409 0-0.037 0.029-0.065 0.066-0.065s0.066 0.029 0.066 0.065c0 0.14 0.275 0.409 0.375 0.409 0.033 0.005 0.057 0.033 0.057 0.066s-0.025 0.061-0.057 0.066l-0 0zM3.6 4.697c0.131 0 0.49-0.352 0.49-0.534 0-0.047 0.038-0.085 0.085-0.086h0c0.047 0 0.085 0.039 0.085 0.086 0 0.181 0.359 0.534 0.49 0.534 0.047 0 0.085 0.038 0.085 0.085s-0.038 0.085-0.085 0.085v0c-0.131 0-0.49 0.352-0.49 0.534 0 0.047-0.038 0.085-0.085 0.085v0c-0.047 0-0.085-0.038-0.085-0.085v0c0-0.182-0.359-0.534-0.49-0.534-0.047 0-0.085-0.038-0.085-0.085s0.038-0.085 0.085-0.085v0zM0.94 6.87c0-0.043 0.038-0.065 0.079-0.079 0.46-0.152 0.846-0.533 0.935-1.036 0.007-0.043 0.035-0.079 0.079-0.079s0.071 0.036 0.079 0.079c0.089 0.503 0.474 0.884 0.934 1.036 0.041 0.013 0.079 0.035 0.079 0.079s-0.037 0.065-0.079 0.079c-0.46 0.151-0.846 0.533-0.935 1.035-0.007 0.043-0.035 0.079-0.079 0.079s-0.071-0.036-0.079-0.079c-0.089-0.503-0.475-0.884-0.935-1.035-0.041-0.015-0.078-0.036-0.078-0.079zM1.983 13.075c-0.075 0-0.28 0.201-0.28 0.306 0 0.027-0.023 0.049-0.049 0.049 0 0 0 0 0 0-0.027 0-0.049-0.022-0.049-0.049v-0c0-0.105-0.205-0.306-0.28-0.306 0 0 0 0 0 0-0.027 0-0.049-0.022-0.049-0.049v-0c0-0.026 0.023-0.049 0.049-0.049 0.075 0 0.28-0.201 0.28-0.305 0-0.028 0.022-0.049 0.049-0.049s0.049 0.021 0.049 0.049c0 0.103 0.205 0.305 0.28 0.305 0.027 0 0.049 0.023 0.049 0.049s-0.022 0.049-0.049 0.049v0zM2.362 11.043c-0.093 0-0.347 0.25-0.347 0.379 0 0.002 0 0.004 0 0.006 0 0.034-0.027 0.061-0.061 0.061s-0.061-0.027-0.061-0.061c0-0.002 0-0.004 0-0.007l-0 0c0-0.129-0.254-0.379-0.347-0.379-0 0-0 0-0.001 0-0.033 0-0.060-0.027-0.060-0.060 0 0 0 0 0 0v0c0-0.034 0.027-0.061 0.061-0.061 0.093 0 0.347-0.25 0.347-0.379 0 0 0-0 0-0 0-0.033 0.027-0.060 0.060-0.060 0 0 0.001 0 0.001 0h-0c0 0 0 0 0.001 0 0.033 0 0.060 0.027 0.060 0.060 0 0 0 0 0 0v0c0 0.129 0.254 0.379 0.347 0.379 0.034 0 0.061 0.027 0.061 0.061s-0.027 0.061-0.061 0.061v0zM4.585 13.965c-0.135 0-0.505 0.364-0.505 0.551 0 0.049-0.040 0.089-0.088 0.089s-0.089-0.040-0.089-0.089v0c0-0.187-0.37-0.551-0.505-0.551-0.049-0-0.088-0.040-0.089-0.089v-0c0-0.049 0.039-0.088 0.089-0.088 0.136 0 0.505-0.363 0.505-0.552 0-0.047 0.040-0.088 0.089-0.088s0.088 0.041 0.088 0.088c0 0.189 0.37 0.552 0.505 0.552 0.049 0 0.089 0.039 0.089 0.088s-0.040 0.089-0.089 0.089v0zM5.866 13.427c-0.724-0.567-1.246-0.999-1.769-1.525-0.526-0.523-0.957-1.044-1.525-1.769-0.417-0.533-0.377-1.265 0.096-1.738l0.001-0.001 0.001-0.001 3.572-3.554-1.48-1.467c-0.347-0.347-0.467-0.847-0.315-1.305 0.099-0.298 0.309-0.535 0.578-0.699 0.071-0.047 0.152-0.090 0.238-0.124l0.009-0.003c0.090-0.038 0.195-0.068 0.304-0.086l0.008-0.001c0.003 0 0.006-0.002 0.009-0.003 2.236-0.325 4.647-0.512 6.617-0.512h0.001c0.75 0 1.381 0.027 1.879 0.081 0.313 0.031 0.602 0.166 0.819 0.384 0.219 0.221 0.35 0.511 0.375 0.825 0.162 1.541 0.096 4.835-0.434 8.476-0.001 0.007-0.004 0.011-0.005 0.017-0.024 0.146-0.066 0.278-0.124 0.4l0.004-0.009c-0.004 0.009-0.007 0.019-0.012 0.028-0.222 0.466-0.667 0.775-1.181 0.775-0.34 0-0.661-0.133-0.905-0.378l-0.002-0.001-0.003-0.003-1.461-1.477-3.557 3.574c-0.234 0.236-0.559 0.382-0.918 0.382-0 0-0.001 0-0.001 0h0c-0.293 0-0.585-0.101-0.821-0.286zM7.583 14.821c-0.093 0-0.345 0.249-0.345 0.377 0 0 0 0 0 0 0 0.033-0.027 0.060-0.060 0.060-0 0-0 0-0.001 0h0c-0.033 0-0.060-0.027-0.060-0.060v0c0-0.129-0.253-0.377-0.346-0.377-0.033 0-0.060-0.027-0.060-0.060s0.027-0.060 0.060-0.060v0c0.093 0 0.346-0.249 0.346-0.377 0-0.033 0.027-0.060 0.060-0.060v0c0.033 0 0.061 0.027 0.061 0.060 0 0.129 0.253 0.377 0.345 0.377 0.033 0 0.061 0.026 0.061 0.060s-0.027 0.060-0.061 0.060zM8.993 13.196c0.165 0 0.615-0.441 0.615-0.669 0-0.059 0.048-0.107 0.107-0.107s0.107 0.049 0.107 0.107c0 0.227 0.449 0.669 0.614 0.669 0.059 0 0.107 0.049 0.107 0.107 0 0 0 0 0 0.001 0 0.059-0.048 0.107-0.107 0.107-0 0-0 0-0.001 0h0c-0.165 0-0.614 0.441-0.614 0.67 0 0 0 0 0 0 0 0.059-0.048 0.108-0.107 0.108h-0c-0.059-0-0.107-0.049-0.107-0.108 0 0 0 0 0 0v0c0-0.229-0.449-0.67-0.615-0.67-0.059 0-0.107-0.048-0.107-0.107s0.048-0.107 0.107-0.107v0z"></path>
</svg>
