<!-- Generated by IcoMoon.io -->
<svg version="1.1" xmlns="http://www.w3.org/2000/svg" width="16" height="16" viewBox="0 0 16 16">
<title>indeed</title>
<path fill="#2164f3" d="M9.881 6.872c-0.267 0.14-0.583 0.222-0.919 0.222-1.111 0-2.012-0.901-2.012-2.012s0.901-2.012 2.012-2.012c0.782 0 1.46 0.447 1.793 1.099l0.005 0.011c0.136 0.263 0.216 0.575 0.216 0.905 0 0.776-0.441 1.448-1.085 1.781l-0.011 0.005zM7.733 0.381c1.647-0.601 3.529-0.568 4.939 0.655 0.293 0.243 0.525 0.549 0.676 0.898l0.006 0.016c0.142 0.46-0.499-0.047-0.587-0.112-0.413-0.286-0.886-0.532-1.39-0.716l-0.044-0.014c-2.776-0.85-5.403 0.697-7.025 3.103-0.623 0.983-1.135 2.119-1.476 3.326l-0.022 0.092c-0.034 0.162-0.083 0.305-0.147 0.44l0.005-0.012c-0.071 0.136-0.033-0.365-0.033-0.381 0.068-0.569 0.169-1.075 0.304-1.567l-0.017 0.074c0.752-2.622 2.418-4.805 4.811-5.801zM7.758 14.377v-5.842c0.166 0.017 0.324 0.025 0.491 0.025 0.004 0 0.008 0 0.013 0 0.789 0 1.525-0.222 2.151-0.607l-0.018 0.010v6.413c0 0.548-0.1 0.953-0.347 1.217-0.229 0.251-0.558 0.407-0.923 0.407-0.016 0-0.032-0-0.047-0.001l0.002 0c-0.013 0.001-0.028 0.001-0.043 0.001-0.36 0-0.684-0.157-0.907-0.406l-0.001-0.001c-0.245-0.269-0.373-0.675-0.371-1.217z"></path>
</svg>
