<!-- Generated by IcoMoon.io -->
<svg version="1.1" xmlns="http://www.w3.org/2000/svg" width="16" height="16" viewBox="0 0 16 16">
<title>influxdb</title>
<path fill="#22adf6" d="M15.85 9.629l-1.529-6.629c-0.085-0.357-0.414-0.729-0.785-0.829l-6.957-2.143c-0.086-0.029-0.186-0.029-0.3-0.029-0.3 0-0.6 0.114-0.815 0.3l-4.985 4.643c-0.272 0.244-0.415 0.729-0.329 1.071l1.629 7.1c0.085 0.357 0.414 0.729 0.785 0.829l6.515 2.029c0.085 0.029 0.185 0.029 0.3 0.029 0.3 0 0.6-0.114 0.814-0.3l5.329-4.957c0.271-0.285 0.415-0.743 0.329-1.114zM7.307 1.6l4.785 1.471c0.186 0.057 0.186 0.143 0 0.186l-2.514 0.571c-0.186 0.057-0.457-0.029-0.586-0.171l-1.743-1.886c-0.157-0.157-0.129-0.229 0.057-0.171zM10.293 10.171c0.057 0.186-0.071 0.3-0.257 0.243l-5.157-1.6c-0.186-0.057-0.229-0.214-0.086-0.343l3.943-3.671c0.143-0.143 0.3-0.086 0.343 0.1zM1.793 5.5l4.185-3.9c0.143-0.143 0.357-0.114 0.5 0.014l2.1 2.272c0.143 0.143 0.114 0.357-0.015 0.5l-4.185 3.9c-0.143 0.143-0.357 0.114-0.5-0.015l-2.1-2.271c-0.143-0.157-0.129-0.386 0.015-0.5zM2.808 11.671l-1.1-4.857c-0.057-0.185 0.029-0.228 0.157-0.085l1.743 1.885c0.143 0.143 0.185 0.415 0.143 0.6l-0.757 2.457c-0.057 0.2-0.143 0.2-0.185 0zM8.937 14.529l-5.472-1.7c-0.151-0.049-0.258-0.188-0.258-0.353 0-0.037 0.006-0.073 0.016-0.107l-0.001 0.003 0.915-2.943c0.049-0.151 0.188-0.258 0.353-0.258 0.037 0 0.073 0.005 0.107 0.016l-0.003-0.001 5.471 1.685c0.186 0.057 0.3 0.257 0.243 0.457l-0.915 2.943c-0.056 0.156-0.203 0.266-0.376 0.266-0.029 0-0.057-0.003-0.083-0.009l0.003 0zM13.793 10.543l-3.657 3.4c-0.143 0.143-0.215 0.086-0.157-0.1l0.757-2.457c0.057-0.186 0.257-0.386 0.457-0.415l2.515-0.571c0.185-0.071 0.214 0.014 0.085 0.143zM14.193 9.8l-3.014 0.686c-0.186 0.057-0.386-0.072-0.429-0.257l-1.286-5.571c-0.057-0.186 0.072-0.386 0.257-0.429l3.015-0.686c0.185-0.057 0.385 0.071 0.428 0.257l1.286 5.571c0.043 0.215-0.071 0.4-0.257 0.429z"></path>
</svg>
