<!-- Generated by IcoMoon.io -->
<svg version="1.1" xmlns="http://www.w3.org/2000/svg" width="16" height="16" viewBox="0 0 16 16">
<title>inkscape</title>
<path d="M7.915 0.127c-0.497-0.007-0.976 0.185-1.329 0.536l-5.883 6.025c-2.229 2.227 1.443 2.041 2.769 2.883 0.615 0.401-1.97 0.914-1.443 1.443 0.514 0.529 3.1 1.014 3.615 1.529 0.514 0.527-1.043 1.085-0.529 1.612 0.5 0.529 1.699 0.029 1.913 1.228 0.157 0.885 2.2 0.444 3.115-0.314 0.569-0.486-0.986-0.486-0.472-1.014 1.286-1.299 2.428-0.583 2.899-1.784 0.258-0.642-1.942-1.1-1.356-1.514 1.401-0.985 6.541-1.485 4.17-3.855l-6.098-6.239c-0.373-0.347-0.863-0.538-1.372-0.536zM7.965 0.7c0.353 0.002 0.707 0.134 0.963 0.389l2.328 2.371c0.215 0.214 0.215 0.657 0.086 0.785l-1.156-0.941-0.229 1.385-0.957-0.515-1.557 0.985-0.514-2.070-0.828 1.799-2.071-0.015c-0.4 0-0.343-0.414 0.071-0.828 0.814-0.9 2.4-2.427 2.9-2.955 0.257-0.264 0.61-0.393 0.963-0.389zM14.468 11.551c-0.493 0.017-0.997 0.263-1.126 0.72 0 0.299 2.328 0.471 2.201-0.071-0.094-0.457-0.58-0.668-1.074-0.65zM4.237 12.847c-0.672 0.039-1.392 0.527-0.821 1.008 0.527 0.457 1.328-0.1 1.585-0.742-0.16-0.211-0.457-0.284-0.762-0.265zM13.057 12.899c-0.657 0.6 0.113 1.228 0.756 0.814 0.172-0.115-0.014-0.67-0.756-0.814z"></path>
</svg>
