<!-- Generated by IcoMoon.io -->
<svg version="1.1" xmlns="http://www.w3.org/2000/svg" width="16" height="16" viewBox="0 0 16 16">
<title>instacart</title>
<path fill="#43b02a" d="M10.419 6.413c0.947 0.953 1.72 2.511 1.278 3.435-1.185 2.477-10.027 6.817-10.779 6.067-0.75-0.75 3.594-9.597 6.069-10.783 0.925-0.44 2.483 0.34 3.435 1.28l-0.003 0.009zM15.105 5.369c-0.154-0.57-0.547-1.145-1.133-1.213-1.073-0.124-2.767 1.775-2.647 2.226 0.121 0.46 2.511 1.25 3.4 0.61 0.461-0.329 0.521-1.040 0.371-1.609zM11.777 0.105c0.799 0.216 1.605 0.765 1.701 1.588 0.174 1.506-2.488 3.879-3.12 3.709-0.632-0.167-1.745-3.523-0.846-4.775 0.463-0.648 1.467-0.737 2.266-0.525v0.003z"></path>
</svg>
