<!-- Generated by IcoMoon.io -->
<svg version="1.1" xmlns="http://www.w3.org/2000/svg" width="16" height="16" viewBox="0 0 16 16">
<title>instagram</title>
<path fill="#e4405f" d="M8 0c-2.173 0-2.445 0.010-3.298 0.048-0.852 0.040-1.432 0.174-1.942 0.372-0.526 0.204-0.973 0.478-1.417 0.923s-0.719 0.891-0.923 1.417c-0.198 0.51-0.333 1.090-0.372 1.942-0.040 0.853-0.048 1.125-0.048 3.298s0.010 2.445 0.048 3.298c0.040 0.851 0.174 1.432 0.372 1.942 0.204 0.525 0.478 0.973 0.923 1.417s0.891 0.719 1.417 0.923c0.511 0.197 1.091 0.333 1.942 0.372 0.853 0.040 1.125 0.048 3.298 0.048s2.445-0.010 3.298-0.048c0.851-0.040 1.432-0.175 1.942-0.372 0.525-0.204 0.973-0.479 1.417-0.923s0.719-0.89 0.923-1.417c0.197-0.51 0.333-1.091 0.372-1.942 0.040-0.853 0.048-1.125 0.048-3.298s-0.010-2.445-0.048-3.298c-0.040-0.851-0.175-1.433-0.372-1.942-0.204-0.526-0.479-0.973-0.923-1.417s-0.89-0.719-1.417-0.923c-0.51-0.198-1.091-0.333-1.942-0.372-0.853-0.040-1.125-0.048-3.298-0.048zM8 1.44c2.135 0 2.39 0.011 3.233 0.047 0.78 0.037 1.203 0.166 1.485 0.277 0.375 0.145 0.64 0.318 0.921 0.597 0.279 0.28 0.453 0.546 0.597 0.921 0.109 0.281 0.24 0.705 0.275 1.485 0.038 0.844 0.047 1.097 0.047 3.233s-0.010 2.39-0.049 3.233c-0.041 0.78-0.171 1.203-0.281 1.485-0.149 0.375-0.319 0.64-0.599 0.921-0.279 0.279-0.549 0.453-0.92 0.597-0.28 0.109-0.71 0.24-1.49 0.275-0.849 0.038-1.099 0.047-3.239 0.047s-2.391-0.010-3.239-0.049c-0.781-0.041-1.211-0.171-1.491-0.281-0.379-0.149-0.64-0.319-0.919-0.599-0.281-0.279-0.46-0.549-0.6-0.92-0.11-0.28-0.239-0.71-0.28-1.49-0.030-0.84-0.041-1.099-0.041-3.229s0.011-2.391 0.041-3.241c0.041-0.78 0.17-1.209 0.28-1.489 0.14-0.38 0.319-0.64 0.6-0.921 0.279-0.279 0.54-0.459 0.919-0.599 0.28-0.111 0.701-0.241 1.481-0.281 0.85-0.030 1.1-0.040 3.239-0.040zM8 3.892c-2.27 0-4.108 1.84-4.108 4.108 0 2.27 1.84 4.108 4.108 4.108 2.27 0 4.108-1.84 4.108-4.108 0-2.27-1.84-4.108-4.108-4.108zM8 10.667c-1.473 0-2.667-1.193-2.667-2.667s1.193-2.667 2.667-2.667 2.667 1.193 2.667 2.667-1.193 2.667-2.667 2.667zM13.231 3.73c0 0.53-0.431 0.96-0.96 0.96s-0.96-0.431-0.96-0.96 0.431-0.959 0.96-0.959c0.529-0.001 0.96 0.43 0.96 0.959z"></path>
</svg>
