<!-- Generated by IcoMoon.io -->
<svg version="1.1" xmlns="http://www.w3.org/2000/svg" width="16" height="16" viewBox="0 0 16 16">
<title>intellijidea</title>
<path d="M0 0v16h16v-16zM2.482 2.074h3.333v1.223h-0.927v4.185h0.927v1.223h-3.333v-1.223h0.963v-4.185h-0.963zM9.852 2.074h1.481v4.333c0 0.408-0.037 0.741-0.148 1.037s-0.26 0.518-0.482 0.74c-0.185 0.186-0.444 0.371-0.74 0.445-0.285 0.117-0.616 0.185-0.963 0.185h-0c-0.519 0-0.963-0.111-1.296-0.297-0.331-0.19-0.613-0.425-0.849-0.7l-0.004-0.004 0.927-1.037c0.185 0.223 0.37 0.37 0.555 0.481s0.407 0.185 0.63 0.185c0.259 0 0.481-0.074 0.667-0.259 0.147-0.185 0.222-0.445 0.222-0.852zM1.481 13h6v1h-6z"></path>
</svg>
