<!-- Generated by IcoMoon.io -->
<svg version="1.1" xmlns="http://www.w3.org/2000/svg" width="16" height="16" viewBox="0 0 16 16">
<title>intercom</title>
<path fill="#1f8ded" d="M14 0h-12c-1.105 0-2 0.895-2 2v12c0 1.105 0.895 2 2 2h12c1.105 0 2-0.895 2-2v-12c0-1.105-0.895-2-2-2zM10.133 2.933c0-0.293 0.24-0.533 0.535-0.533 0.293 0 0.533 0.24 0.533 0.533v7.125c0 0.295-0.24 0.534-0.533 0.534-0.295 0-0.535-0.239-0.535-0.534zM7.467 2.663c0-0.293 0.238-0.533 0.533-0.533s0.533 0.239 0.533 0.533v7.735c0 0.293-0.238 0.533-0.533 0.533s-0.533-0.24-0.533-0.533zM4.8 2.933c0-0.293 0.239-0.533 0.533-0.533 0.295 0 0.535 0.24 0.535 0.533v7.125c0 0.295-0.24 0.534-0.535 0.534-0.293 0-0.533-0.239-0.533-0.534zM2.133 4c0-0.295 0.24-0.533 0.535-0.533 0.293 0 0.533 0.239 0.533 0.533v4.797c0 0.294-0.239 0.533-0.533 0.533-0.295 0-0.535-0.24-0.535-0.533zM13.68 12.135c-0.082 0.070-2.057 1.729-5.68 1.729s-5.598-1.657-5.681-1.729c-0.223-0.192-0.25-0.528-0.057-0.752 0.19-0.223 0.527-0.25 0.75-0.060 0.031 0.027 1.795 1.474 4.987 1.474 3.232 0 4.971-1.457 4.986-1.471 0.223-0.193 0.559-0.167 0.752 0.057s0.167 0.56-0.057 0.752zM13.867 8.797c0 0.294-0.24 0.533-0.534 0.533s-0.534-0.24-0.534-0.533v-4.797c0-0.295 0.241-0.533 0.534-0.533s0.534 0.238 0.534 0.533z"></path>
</svg>
