<!-- Generated by IcoMoon.io -->
<svg version="1.1" xmlns="http://www.w3.org/2000/svg" width="16" height="16" viewBox="0 0 16 16">
<title>intel</title>
<path fill="#0071c5" d="M4.713 7.2v2.585h-0.822v-3.249l1.698 0.001c0.72 0 0.966 0.509 0.966 0.971v2.277h-0.82v-2.272c0-0.194-0.099-0.313-0.342-0.313zM10.306 7.161c-0.281 0-0.499 0.144-0.59 0.34-0.051 0.111-0.078 0.231-0.079 0.353h1.265c-0.015-0.353-0.175-0.693-0.597-0.693zM9.637 8.415c0 0.419 0.262 0.73 0.729 0.73 0.363 0 0.543-0.1 0.754-0.311l0.508 0.486c-0.325 0.321-0.667 0.515-1.268 0.515-0.787 0-1.54-0.429-1.54-1.68 0-1.070 0.657-1.675 1.521-1.675 0.877 0 1.383 0.709 1.383 1.637v0.295h-2.087zM8.125 9.779c-0.669 0-0.955-0.466-0.955-0.927v-3.2h0.821v0.885h0.619v0.664h-0.619v1.6c0 0.189 0.090 0.293 0.286 0.293h0.333v0.685zM3.159 6.087h-0.828v-0.787h0.828zM3.161 9.817c-0.62-0.059-0.831-0.434-0.831-0.87v-2.41h0.829v3.283zM13.031 9.748c-0.619-0.060-0.829-0.435-0.829-0.869v-3.69h0.829v4.56zM15.929 5.723c-0.75-3.662-7.861-3.894-12.443-1.105v0.308c4.577-2.352 11.069-2.339 11.661 1.033 0.197 1.117-0.431 2.279-1.553 2.948v0.874c1.35-0.495 2.737-2.098 2.335-4.059zM7.599 12.129c-3.161 0.292-6.457-0.167-6.918-2.638-0.225-1.218 0.331-2.51 1.065-3.311v-0.429c-1.325 1.162-2.043 2.633-1.629 4.371 0.528 2.23 3.357 3.493 7.673 3.073 1.709-0.166 3.944-0.716 5.498-1.569v-1.211c-1.411 0.841-3.745 1.535-5.689 1.714zM13.989 5.433c0-0.040-0.025-0.053-0.077-0.053h-0.051v0.113l0.051 0.001c0.053 0 0.077-0.017 0.077-0.056zM14.069 5.715h-0.061c-0.006 0-0.012-0.003-0.014-0.008l-0.083-0.142c-0.002-0.003-0.009-0.007-0.013-0.007h-0.037v0.141c0 0.008-0.006 0.017-0.015 0.017h-0.055c-0.007 0-0.014-0.009-0.014-0.017v-0.355c0-0.019 0.008-0.030 0.025-0.032 0.033-0.003 0.067-0.004 0.101-0.004 0.101 0 0.164 0.031 0.164 0.125v0.007c0 0.060-0.031 0.090-0.076 0.105l0.087 0.146c0 0.004 0.003 0.008 0.003 0.012 0.001 0.005-0.003 0.011-0.013 0.011v0.001zM13.924 5.243c-0.151 0-0.272 0.123-0.272 0.273s0.124 0.273 0.274 0.272c0.15 0 0.271-0.121 0.273-0.271-0.001-0.151-0.123-0.274-0.275-0.275zM13.924 5.847c-0.182 0-0.33-0.148-0.33-0.33s0.148-0.33 0.329-0.33h0.001c0.181 0 0.33 0.149 0.33 0.33 0 0.183-0.149 0.33-0.33 0.33z"></path>
</svg>
