<!-- Generated by IcoMoon.io -->
<svg version="1.1" xmlns="http://www.w3.org/2000/svg" width="16" height="16" viewBox="0 0 16 16">
<title>internetarchive</title>
<path d="M15.073 16h-14.147v-0.727h14.147zM14.54 13.88h-13.053v1.007h13.053zM14.387 2.44h-12.987v1.393h12.987zM7.893 0l-6.8 1.593 0.393 0.407h12.82l0.36-0.407zM2.473 13.473c0.012 0 0.026 0 0.041 0 0.223 0 0.438-0.032 0.642-0.091l-0.016 0.004c0.107-1.16 0.167-3.267 0.167-4.58s-0.060-3.333-0.16-4.507c-0.006-0.048-0.041-0.087-0.086-0.1l-0.001-0c-0.168-0.042-0.36-0.067-0.559-0.067-0.001 0-0.001 0-0.002 0h0c-0.197 0.001-0.388 0.026-0.57 0.070l0.017-0.003c-0.046 0.013-0.080 0.052-0.087 0.099l-0 0.001c-0.107 1.173-0.16 3.213-0.16 4.507s0.060 3.42 0.167 4.58c0.182 0.054 0.39 0.086 0.606 0.087h0zM6.013 13.473c0.014 0 0.030 0 0.047 0 0.221 0 0.434-0.032 0.636-0.091l-0.016 0.004c0.107-1.16 0.167-3.267 0.167-4.58s-0.060-3.333-0.16-4.507c-0.006-0.048-0.041-0.087-0.086-0.1l-0.001-0c-0.168-0.043-0.36-0.067-0.558-0.067-0.015 0-0.029 0-0.044 0l0.002-0c-0.199 0.001-0.392 0.026-0.577 0.070l0.017-0.004c-0.046 0.013-0.080 0.052-0.087 0.099l-0 0.001c-0.1 1.173-0.16 3.213-0.16 4.507s0.060 3.42 0.167 4.58c0.185 0.055 0.398 0.087 0.618 0.087 0.012 0 0.025-0 0.037-0l-0.002 0zM10.113 13.473c0.014 0 0.030 0 0.047 0 0.221 0 0.434-0.032 0.636-0.091l-0.016 0.004c0.107-1.16 0.167-3.267 0.167-4.58s-0.053-3.333-0.16-4.507c-0.007-0.057-0.055-0.1-0.113-0.1-0.003 0-0.005 0-0.008 0l0-0c-0.166-0.042-0.357-0.066-0.553-0.067h-0c-0.197 0.001-0.387 0.025-0.57 0.070l0.017-0.003c-0.049 0.011-0.086 0.050-0.093 0.099l-0 0.001c-0.1 1.173-0.16 3.213-0.16 4.507s0.060 3.42 0.173 4.58c0.183 0.055 0.393 0.087 0.61 0.087 0.008 0 0.016-0 0.025-0l-0.001 0zM13.567 13.473c0.005 0 0.010 0 0.015 0 0.22 0 0.433-0.032 0.634-0.091l-0.016 0.004c0.107-1.16 0.167-3.267 0.167-4.58s-0.053-3.333-0.16-4.507c-0.006-0.048-0.041-0.087-0.086-0.1l-0.001-0c-0.166-0.042-0.357-0.066-0.553-0.067h-0c-0.199 0.001-0.392 0.026-0.577 0.070l0.017-0.004c-0.046 0.013-0.080 0.052-0.087 0.099l-0 0.001c-0.1 1.173-0.16 3.213-0.16 4.507s0.060 3.42 0.167 4.58c0.185 0.055 0.398 0.087 0.617 0.087 0.008 0 0.016-0 0.024-0l-0.001 0z"></path>
</svg>
