<!-- Generated by IcoMoon.io -->
<svg version="1.1" xmlns="http://www.w3.org/2000/svg" width="16" height="16" viewBox="0 0 16 16">
<title>internetexplorer</title>
<path fill="#0076d6" d="M15.2 4.921c0.75-1.8 0.8-3.3-0.1-4.2-1-0.999-3.4-0.7-5.949 0.5h-0.3c-1.8 0-3.549 0.651-4.849 1.8-1.1 1-1.9 2.3-2.25 3.75 0.25-0.3 1.65-1.95 3.25-2.85 0.050 0 0.45-0.25 0.45-0.25-0.050 0-0.8 0.75-0.95 0.9-3.5 3.6-5.549 9.049-3.949 10.649 1.049 1.050 2.949 0.8 5.149-0.4 0.95 0.45 2 0.65 3.149 0.65 1.5 0 2.9-0.4 4.1-1.2 1.249-0.8 2.149-2.049 2.7-3.499h-3.9c-0.5 0.95-1.65 1.6-2.85 1.6-1.7 0-3.1-1.4-3.149-3v-0.15h10.199v-0.15c0-0.25 0.050-0.55 0.050-0.749 0-1.2-0.3-2.35-0.8-3.4zM1.651 14.92c-0.8-0.8-0.549-2.349 0.4-4.199 0.45 1.25 1.2 2.35 2.15 3.15 0.3 0.25 0.65 0.5 1 0.7-1.6 0.849-2.9 1-3.55 0.349zM11.901 7.321h-6.099v-0.050c0.1-1.55 1.549-2.9 3.249-2.9 1.6 0 2.9 1.25 3 2.9v0.050zM14.95 4.521c-0.3-0.5-0.7-1-1.15-1.4-0.674-0.628-1.471-1.136-2.349-1.482l-0.051-0.018c1.6-0.749 2.95-0.849 3.65-0.149 0.55 0.65 0.5 1.749-0.1 3.049 0 0.050 0 0.050 0 0 0 0.050 0 0.050 0 0z"></path>
</svg>
