<!-- Generated by IcoMoon.io -->
<svg version="1.1" xmlns="http://www.w3.org/2000/svg" width="16" height="16" viewBox="0 0 16 16">
<title>invision</title>
<path fill="#f36" d="M14.55 0h-13.1c-0.8 0-1.45 0.65-1.45 1.45v13.1c0 0.8 0.65 1.45 1.45 1.45h13.1c0.8 0 1.45-0.65 1.45-1.45v-13.1c0-0.8-0.65-1.45-1.45-1.45zM5.347 3.111c0.532 0 0.979 0.42 0.979 0.96 0 0.547-0.447 0.963-0.979 0.963v0.018c-0.535 0-0.969-0.433-0.969-0.97s0.433-0.97 0.969-0.971zM11.891 12.321c-0.989 0-1.469-0.59-1.469-1.393 0-0.231 0.029-0.475 0.1-0.72l0.473-1.697c0.059-0.187 0.073-0.36 0.073-0.517 0-0.547-0.333-0.877-0.864-0.877-0.675 0-1.12 0.485-1.35 1.42l-0.92 3.69h-1.609l0.288-1.16c-0.472 0.777-1.13 1.257-1.94 1.257-0.978 0-1.438-0.561-1.438-1.409 0.003-0.243 0.031-0.487 0.087-0.723v0.001l0.733-2.993h-1.138l0.345-1.27h2.733l-1.080 4.27c-0.070 0.273-0.1 0.5-0.1 0.657 0 0.273 0.135 0.353 0.345 0.403 0.13 0.027 1.15 0.008 1.707-1.227l0.707-2.833h-1.149l0.347-1.25h2.48l-0.32 1.44c0.431-0.8 1.291-1.57 2.141-1.57 0.9 0 1.65 0.65 1.65 1.88 0 0.356-0.053 0.71-0.16 1.050l-0.46 1.651c-0.040 0.169-0.069 0.31-0.069 0.44 0 0.289 0.12 0.43 0.329 0.43s0.49-0.16 0.8-1.040l0.629 0.24c-0.37 1.309-1.051 1.849-1.901 1.85z"></path>
</svg>
