<!-- Generated by IcoMoon.io -->
<svg version="1.1" xmlns="http://www.w3.org/2000/svg" width="16" height="16" viewBox="0 0 16 16">
<title>invoiceninja</title>
<path d="M10.831 6.884c0 0.429-0.347 0.776-0.776 0.776s-0.776-0.347-0.776-0.776v0c0-0.429 0.347-0.776 0.776-0.776s0.776 0.347 0.776 0.776v0zM6.639 6.884c0 0.429-0.348 0.776-0.776 0.776s-0.776-0.348-0.776-0.776v0c0-0.429 0.348-0.776 0.776-0.776s0.776 0.348 0.776 0.776v0zM6.546 15.897c-3.141-0.653-5.485-2.838-6.321-5.895-0.281-1.025-0.281-2.993 0-4.018 0.779-2.845 2.929-4.995 5.773-5.774 1.025-0.281 2.993-0.281 4.019 0 2.845 0.779 4.995 2.929 5.773 5.773 0.16 0.583 0.196 0.953 0.196 2.009s-0.036 1.427-0.195 2.009c-0.78 2.847-2.959 5.024-5.774 5.767-0.927 0.245-2.611 0.307-3.471 0.128zM10.973 9.687c-2.031-0.899-2.703-1.158-3-1.158s-0.955 0.253-2.92 1.123c-1.394 0.617-2.552 1.173-2.573 1.193h11.109zM4.391 9.447c1.081-0.486 2.040-0.925 2.131-0.976 0.172-0.097 0.225-0.060-3.523-2.455-0.373-0.239-0.682-0.465-0.683-0.433v4.793c3.99-1.654 4.673-1.965 5.355-2.279l-3.279 1.349zM13.776 7.984v-2.373c0-0.073-1.117 0.662-2.331 1.413-2 1.236-2.187 1.373-2.003 1.457 0.897 0.407 4.28 1.908 4.333 1.915zM8.33 8.057c0.363 0.083 0.429 0.069 0.817-0.175 0.233-0.147 0.437-0.279 0.454-0.295s-0.033-0.121-0.111-0.233c-0.079-0.112-0.143-0.333-0.143-0.493v-0.288l-0.379 0.14c-0.484 0.178-1.52 0.18-2 0.003l-0.371-0.137 0.009 0.301c0.005 0.173-0.059 0.375-0.15 0.477-0.155 0.171-0.147 0.184 0.3 0.484 0.427 0.288 0.483 0.303 0.82 0.218 0.115-0.030 0.247-0.047 0.383-0.047 0.132 0 0.26 0.016 0.383 0.047l-0.011-0.002zM5.51 6.291c-0.070-0.075-1.98-0.636-2.022-0.594-0.020 0.020 0.336 0.276 0.791 0.569l0.827 0.533 0.227-0.229c0.124-0.125 0.205-0.251 0.178-0.279zM12.017 6.042c0.315-0.204 0.533-0.37 0.485-0.37-0.103 0-1.918 0.536-2.018 0.596-0.038 0.023 0.022 0.153 0.133 0.289l0.203 0.247 0.313-0.195c0.171-0.108 0.569-0.363 0.883-0.566zM10.926 5.672c1.407-0.393 2.578-0.735 2.603-0.759h-11.135c0.125 0.125 5.186 1.463 5.549 1.468 0.273 0.003 1.343-0.251 2.984-0.709z"></path>
</svg>
