<!-- Generated by IcoMoon.io -->
<svg version="1.1" xmlns="http://www.w3.org/2000/svg" width="16" height="16" viewBox="0 0 16 16">
<title>ionic</title>
<path fill="#3880ff" d="M15.281 4.685l-0.069-0.153-0.113 0.125c-0.272 0.309-0.619 0.547-1.003 0.691l-0.106 0.041 0.044 0.103c0.316 0.738 0.5 1.597 0.5 2.499 0 0.002 0 0.005 0 0.007v-0c0 3.603-2.931 6.537-6.537 6.537s-6.535-2.931-6.535-6.535 2.935-6.537 6.537-6.537c0.978 0 1.922 0.213 2.8 0.631l0.103 0.050 0.044-0.103c0.169-0.388 0.42-0.713 0.733-0.965l0.005-0.004 0.131-0.106-0.15-0.078c-1.059-0.559-2.314-0.887-3.647-0.887-0.007 0-0.013 0-0.020 0h0.001c-4.413 0-8 3.587-8 8s3.587 8 8 8 8-3.587 8-8c0-1.153-0.241-2.269-0.719-3.316zM8 4.353c-2.013 0.002-3.644 1.634-3.647 3.646v0c0.002 2.013 1.634 3.644 3.646 3.647h0c2.013-0.002 3.644-1.634 3.647-3.646v-0c-0.003-2.013-1.634-3.643-3.646-3.647h-0zM14.897 3.015c0 0.918-0.744 1.663-1.663 1.663s-1.663-0.744-1.663-1.663v0c0-0.918 0.744-1.663 1.663-1.663s1.663 0.744 1.663 1.663v0z"></path>
</svg>
