<!-- Generated by IcoMoon.io -->
<svg version="1.1" xmlns="http://www.w3.org/2000/svg" width="16" height="16" viewBox="0 0 16 16">
<title>ios</title>
<path d="M0.733 4.033c-0.409 0-0.733 0.32-0.733 0.72 0 0 0 0 0 0 0 0.398 0.322 0.72 0.72 0.72 0.005 0 0.009-0 0.014-0l-0.001 0c0.413 0 0.74-0.32 0.74-0.72s-0.327-0.72-0.74-0.72zM5.807 4.047c-2.24 0-3.64 1.527-3.64 3.953 0 2.447 1.4 3.967 3.64 3.967 2.227 0 3.633-1.52 3.633-3.967 0-2.427-1.407-3.953-3.633-3.953zM13.033 4.047c-1.667 0-2.853 0.92-2.853 2.287 0 1.087 0.673 1.767 2.087 2.093l0.993 0.24c0.967 0.22 1.36 0.54 1.36 1.093 0 0.64-0.647 1.093-1.567 1.093-0.94 0-1.647-0.46-1.72-1.167h-1.333c0.053 1.413 1.213 2.28 2.973 2.28 1.86 0 3.027-0.913 3.027-2.367 0-1.14-0.667-1.787-2.213-2.14l-0.887-0.2c-0.94-0.227-1.327-0.527-1.327-1.033 0-0.64 0.587-1.067 1.453-1.067 0.873 0 1.473 0.433 1.54 1.147h1.307c-0.033-1.347-1.147-2.26-2.84-2.26zM5.807 5.213c1.36 0 2.233 1.087 2.233 2.787 0 1.713-0.873 2.8-2.233 2.8-1.373 0-2.24-1.087-2.24-2.8 0-1.7 0.867-2.787 2.24-2.787zM0.074 6.207v5.633h1.326v-5.633z"></path>
</svg>
