<!-- Generated by IcoMoon.io -->
<svg version="1.1" xmlns="http://www.w3.org/2000/svg" width="16" height="16" viewBox="0 0 16 16">
<title>ipfs</title>
<path fill="#65c2cb" d="M8 0l-6.928 4v8l6.928 4 6.928-4v-8zM7.285 0.963h0.001c0.197 0.146 0.444 0.235 0.713 0.235s0.516-0.088 0.716-0.237l-0.003 0.002 5.023 2.9c-0.005 0.040-0.008 0.087-0.008 0.134s0.003 0.094 0.008 0.14l-0.001-0.006-5.023 2.9c-0.197-0.146-0.444-0.234-0.712-0.234s-0.516 0.088-0.716 0.237l0.003-0.002-5.024-2.9c0.005-0.040 0.008-0.087 0.008-0.134s-0.003-0.094-0.008-0.14l0.001 0.006zM14.216 4.933c0.073 0.053 0.151 0.098 0.233 0.134v5.8c-0.428 0.19-0.72 0.611-0.72 1.1 0 0.047 0.003 0.094 0.008 0.14l-0.001-0.006-5.023 2.9c-0.067-0.050-0.144-0.094-0.225-0.13l-0.008-0.003-0.006-5.769c0.428-0.19 0.721-0.611 0.721-1.1 0-0.047-0.003-0.094-0.008-0.139l0.001 0.006zM1.784 4.965l5.023 2.9c-0.005 0.040-0.008 0.087-0.008 0.135 0 0.489 0.293 0.91 0.713 1.097l0.008 0.003v5.8c-0.083 0.036-0.16 0.081-0.233 0.135l-5.023-2.9c0.005-0.040 0.008-0.087 0.008-0.135 0-0.489-0.293-0.91-0.713-1.097l-0.008-0.003v-5.8c0.083-0.036 0.16-0.081 0.233-0.135z"></path>
</svg>
