<!-- Generated by IcoMoon.io -->
<svg version="1.1" xmlns="http://www.w3.org/2000/svg" width="16" height="16" viewBox="0 0 16 16">
<title>issuu</title>
<path fill="#f36d5d" d="M0.664 0c-0.366 0.001-0.663 0.298-0.664 0.664v7.336c0 4.419 3.581 8 8 8s8-3.581 8-8-3.581-8-8-8zM8.111 2.388c3.046 0.030 5.503 2.505 5.503 5.555 0 0.018-0 0.036-0 0.054l0-0.003c-0.030 3.045-2.506 5.502-5.555 5.502-0.018 0-0.036-0-0.054-0l0.003 0c-3.065-0.030-5.531-2.54-5.503-5.607 0.030-3.067 2.54-5.531 5.607-5.501zM8.090 3.901c-0.010-0-0.021-0-0.032-0-2.234 0-4.048 1.8-4.071 4.029l-0 0.002c-0 0.011-0 0.023-0 0.036 0 2.236 1.801 4.050 4.031 4.072l0.002 0c0.011 0 0.024 0 0.037 0 2.233 0 4.046-1.801 4.066-4.030l0-0.002c0-0.011 0-0.024 0-0.037 0-2.233-1.798-4.046-4.025-4.071l-0.002-0zM8.077 5.91c1.131 0.013 2.042 0.933 2.042 2.065 0 0.006-0 0.012-0 0.018v-0.001c-0.011 1.129-0.928 2.040-2.059 2.040-0.008 0-0.016-0-0.023-0l0.001 0 0.001-0.001c-1.13-0.011-2.042-0.929-2.042-2.061 0-1.138 0.923-2.061 2.061-2.061 0.007 0 0.013 0 0.020 0h-0.001z"></path>
</svg>
