<!-- Generated by IcoMoon.io -->
<svg version="1.1" xmlns="http://www.w3.org/2000/svg" width="16" height="16" viewBox="0 0 16 16">
<title>itunes</title>
<path fill="#fb5bc5" d="M7.986 16c-1.655 0-3.265-0.518-4.636-1.508v0c-1.727-1.248-2.867-3.096-3.209-5.205s0.152-4.224 1.394-5.958c1.243-1.736 3.085-2.881 5.187-3.223 2.099-0.343 4.205 0.155 5.931 1.403s2.867 3.096 3.21 5.205c0.343 2.108-0.152 4.224-1.394 5.959-1.243 1.736-3.085 2.881-5.187 3.223-0.433 0.070-0.866 0.105-1.295 0.105zM3.67 14.049c1.607 1.161 3.569 1.625 5.523 1.307 1.957-0.319 3.673-1.386 4.831-3.003 2.389-3.336 1.63-8.003-1.692-10.403-1.607-1.161-3.569-1.625-5.523-1.307-1.957 0.32-3.673 1.386-4.83 3.003-2.389 3.336-1.63 8.003 1.691 10.403zM10.741 11.681c0.487-0.143 0.831-0.489 0.972-0.979l0.041-0.144 0.005-3.858c0.004-2.889 0-3.876-0.016-3.93-0.017-0.057-0.044-0.105-0.079-0.143-0.051-0.032-0.113-0.049-0.184-0.049-0.049 0-0.217 0.023-0.373 0.052-0.694 0.127-4.784 0.941-4.854 0.967-0.108 0.041-0.215 0.135-0.266 0.236l-0.043 0.085c0 0-0.021 6.047-0.052 6.115-0.047 0.103-0.153 0.202-0.251 0.233-0.046 0.015-0.229 0.056-0.406 0.091-0.821 0.163-1.125 0.281-1.383 0.534-0.147 0.144-0.255 0.34-0.302 0.546-0.045 0.197-0.030 0.491 0.034 0.671 0.067 0.187 0.175 0.347 0.315 0.473 0.128 0.099 0.279 0.172 0.449 0.216 0.375 0.096 1.079-0.011 1.439-0.219 0.151-0.087 0.344-0.269 0.445-0.419 0.040-0.059 0.1-0.179 0.133-0.266 0.117-0.304 0.121-5.721 0.136-5.789 0.025-0.116 0.105-0.201 0.213-0.229 0.098-0.026 4.037-0.805 4.148-0.82 0.097-0.013 0.189 0.018 0.24 0.080 0.030 0.016 0.055 0.037 0.073 0.064 0.032 0.047 0.034 0.142 0.039 1.857 0.005 1.974 0.008 1.928-0.099 2.053-0.078 0.091-0.175 0.126-0.576 0.207-0.609 0.125-0.817 0.183-1.051 0.297-0.291 0.142-0.453 0.298-0.578 0.557-0.089 0.183-0.121 0.321-0.121 0.503 0.001 0.326 0.113 0.581 0.367 0.83 0.023 0.023 0.046 0.044 0.069 0.065 0.128 0.099 0.258 0.159 0.422 0.196 0.247 0.055 0.749 0.017 1.094-0.084z"></path>
</svg>
