<!-- Generated by IcoMoon.io -->
<svg version="1.1" xmlns="http://www.w3.org/2000/svg" width="16" height="16" viewBox="0 0 16 16">
<title>jabber</title>
<path fill="#c00" d="M6.398 7.825c0-0.233-0.043-0.488-0.179-0.683-0.272-0.392-0.855-0.517-1.261-0.27-0.205 0.125-0.32 0.343-0.384 0.567-0.127 0.445-0.069 0.953 0.020 1.4 0.029 0.143 0.059 0.285 0.099 0.426 0.014 0.051 0.021 0.124 0.053 0.167 0.058 0.073 0.198 0.094 0.284 0.080 0.258-0.043 0.194-0.469 0.185-0.649-0.020-0.423-0.145-0.833-0.024-1.254 0.051-0.179 0.15-0.379 0.329-0.456 0.163-0.070 0.327 0.015 0.391 0.174 0.104 0.257 0.078 0.553 0.143 0.82 0.022 0.091 0.047 0.181 0.087 0.266 0.012 0.025 0.029 0.075 0.063 0.072 0.084-0.007 0.203-0.147 0.265-0.199 0.203-0.167 0.411-0.347 0.643-0.47 0.11-0.059 0.29-0.153 0.402-0.053 0.028 0.025 0.051 0.054 0.071 0.085l0.001 0.002c0.132 0.207 0.001 0.367-0.085 0.563-0.111 0.253-0.224 0.505-0.385 0.732-0.138 0.195-0.327 0.366-0.437 0.579-0.071 0.137-0.111 0.287-0.082 0.442 0.024 0.125 0.121 0.201 0.249 0.171 0.095-0.022 0.16-0.104 0.215-0.179 0.097-0.135 0.187-0.275 0.284-0.41 0.187-0.262 0.407-0.507 0.564-0.789 0.176-0.315 0.28-0.692 0.28-1.093 0-0.006-0-0.011-0-0.017v0.001c0-0.316-0.114-0.799-0.482-0.865-0.027-0.004-0.058-0.006-0.089-0.006-0.045 0-0.090 0.005-0.133 0.014l0.004-0.001c-0.094 0.017-0.177 0.044-0.255 0.082l0.006-0.002c-0.213 0.11-0.394 0.252-0.544 0.423l-0.002 0.002c-0.097 0.107-0.184 0.242-0.299 0.33zM6.052 0.011c-0.29 0.039-0.585 0.035-0.877 0.080-0.559 0.086-1.093 0.259-1.617 0.469-0.191 0.076-0.379 0.161-0.563 0.251-0.069 0.033-0.173 0.060-0.229 0.113-0.029 0.027-0.026 0.093-0.029 0.13-0.009 0.104-0.023 0.209-0.033 0.313-0.039 0.403-0.067 0.819-0.009 1.223 0.019 0.13 0.060 0.367 0.22 0.391 0.246 0.039 0.437-0.265 0.558-0.432 0.283-0.391 0.603-0.755 1.067-0.929 0.545-0.205 1.169-0.254 1.745-0.293 1.617-0.111 3.385 0.185 4.577 1.376 0.169 0.169 0.33 0.349 0.467 0.547 0.533 0.773 0.815 1.651 0.951 2.573 0.064 0.433 0.107 0.872 0.009 1.303-0.171 0.748-0.621 1.4-1.137 1.954-0.353 0.38-0.752 0.723-1.166 1.035-0.231 0.174-0.491 0.322-0.708 0.512-0.25 0.219-0.459 0.493-0.617 0.786-0.426 0.787-0.54 1.735-0.415 2.613 0.025 0.18 0.049 0.361 0.089 0.539 0.012 0.053 0.015 0.145 0.049 0.188 0.065 0.081 0.24 0.126 0.339 0.131 0.103 0.005 0.171-0.073 0.196-0.166 0.043-0.157 0.017-0.332-0.008-0.491-0.051-0.325-0.098-0.651-0.083-0.981 0.024-0.63 0.28-1.195 0.685-1.618l-0.001 0.001c0.429-0.449 1.008-0.707 1.495-1.083 0.983-0.757 1.863-1.779 2.201-2.995 0.082-0.281 0.13-0.605 0.13-0.939 0-0.143-0.009-0.283-0.025-0.421l0.002 0.017c-0.070-0.566-0.277-1.131-0.472-1.665-0.595-1.625-1.615-3.17-3.234-3.913-0.643-0.295-1.315-0.43-2.011-0.527-0.327-0.045-0.653-0.073-0.981-0.088-0.183-0.008-0.381-0.028-0.563-0.004zM3.518 10.531c-0.315 0.045-0.407 0.298-0.349 0.584 0.075 0.365 0.362 0.643 0.647 0.863 0.669 0.517 1.52 0.828 2.444 0.828 0.051 0 0.102-0.001 0.153-0.003l-0.007 0c0.359-0.015 0.749-0.075 1.078-0.227 0.177-0.081 0.361-0.375 0.121-0.501-0.033-0.016-0.071-0.028-0.111-0.034l-0.002-0c-0.105-0.017-0.222 0.027-0.321 0.056-0.175 0.050-0.351 0.102-0.531 0.131-0.539 0.087-1.122-0.037-1.568-0.356-0.361-0.258-0.653-0.599-0.929-0.943-0.169-0.211-0.321-0.442-0.624-0.399zM3.108 12.316c-0.080 0.011-0.173 0.007-0.241 0.058-0.143 0.105 0.015 0.317 0.090 0.413 0.219 0.278 0.507 0.509 0.795 0.712 0.75 0.542 1.672 0.891 2.67 0.96l0.016 0.001c0.281 0.020 0.567 0 0.845-0.047 0.101-0.017 0.228-0.025 0.321-0.069 0.266-0.124 0.189-0.626-0.048-0.737-0.103-0.049-0.269 0.015-0.378 0.031-0.257 0.036-0.514 0.040-0.772 0.033-0.677-0.017-1.397-0.225-1.987-0.554-0.244-0.14-0.455-0.292-0.648-0.465l0.004 0.003c-0.121-0.107-0.245-0.28-0.402-0.335-0.073-0.025-0.189-0.015-0.265-0.005zM3.269 13.82c-0.112 0.016-0.209 0.074-0.275 0.156l-0.001 0.001c-0.052 0.059-0.101 0.111-0.131 0.185-0.164 0.406 0.273 0.789 0.576 0.98 0.336 0.213 0.703 0.372 1.077 0.505 0.844 0.3 1.835 0.493 2.711 0.224 0.261-0.080 0.519-0.225 0.708-0.423 0.107-0.111 0.18-0.279-0.016-0.351-0.116-0.042-0.257 0.065-0.362 0.108-0.224 0.096-0.484 0.169-0.756 0.206l-0.016 0.002c-0.351 0.043-0.667-0.035-1.005-0.119-0.289-0.072-0.581-0.145-0.861-0.249-0.261-0.092-0.487-0.208-0.694-0.349l0.010 0.007c-0.063-0.044-0.137-0.083-0.188-0.141-0.167-0.188-0.293-0.408-0.471-0.587-0.077-0.077-0.187-0.171-0.306-0.157z"></path>
</svg>
