<!-- Generated by IcoMoon.io -->
<svg version="1.1" xmlns="http://www.w3.org/2000/svg" width="16" height="16" viewBox="0 0 16 16">
<title>java</title>
<path fill="#007396" d="M5.901 12.373c0 0-0.611 0.356 0.435 0.476 1.268 0.145 1.916 0.125 3.313-0.141 0 0 0.368 0.231 0.881 0.431-3.133 1.342-7.089-0.079-4.629-0.766zM5.517 10.622c0 0-0.685 0.507 0.361 0.616 1.355 0.139 2.424 0.151 4.275-0.205 0 0 0.256 0.259 0.658 0.401-3.786 1.107-8.005 0.087-5.295-0.812zM8.744 7.65c0.772 0.889-0.203 1.689-0.203 1.689s1.959-1.012 1.059-2.279c-0.841-1.181-1.485-1.768 2.005-3.792 0-0.001-5.477 1.367-2.861 4.382zM12.887 13.669c0 0 0.453 0.373-0.498 0.661-1.808 0.548-7.525 0.713-9.113 0.022-0.571-0.249 0.5-0.593 0.836-0.665 0.351-0.076 0.552-0.062 0.552-0.062-0.635-0.447-4.104 0.878-1.762 1.258 6.387 1.035 11.641-0.467 9.985-1.213zM6.195 8.807c0 0-2.908 0.691-1.029 0.941 0.793 0.106 2.374 0.082 3.847-0.041 1.204-0.101 2.412-0.318 2.412-0.318s-0.425 0.181-0.732 0.391c-2.953 0.777-8.657 0.415-7.015-0.379 1.388-0.671 2.517-0.595 2.517-0.595zM11.411 11.723c3.002-1.56 1.614-3.059 0.645-2.857-0.237 0.049-0.343 0.092-0.343 0.092s0.088-0.138 0.257-0.198c1.917-0.674 3.391 1.987-0.619 3.041 0-0.001 0.047-0.041 0.060-0.079zM9.601 0c0 0 1.663 1.663-1.577 4.22-2.597 2.051-0.592 3.221-0.001 4.557-1.516-1.369-2.629-2.572-1.883-3.693 1.096-1.646 4.131-2.443 3.46-5.085zM6.489 15.949c2.881 0.185 7.306-0.102 7.411-1.465 0 0-0.201 0.517-2.381 0.927-2.459 0.463-5.493 0.409-7.291 0.112 0-0.001 0.369 0.305 2.262 0.426z"></path>
</svg>
