<!-- Generated by IcoMoon.io -->
<svg version="1.1" xmlns="http://www.w3.org/2000/svg" width="16" height="16" viewBox="0 0 16 16">
<title>jekyll</title>
<path fill="#c00" d="M5.382 16c-0.232 0-0.459-0.042-0.68-0.126-0.917-0.35-1.403-1.347-1.151-2.268l-0.010-0.004 0.060-0.151 4.665-12.111c0.070-0.18 0.038-0.607 0.004-0.845-0.011-0.057-0.011-0.107 0.005-0.16l0.005-0.015 0.004-0.010v-0.005l0.006-0.013c0.072-0.195 0.3-0.293 0.672-0.293 0.449 0 1.068 0.14 1.701 0.382 0.531 0.205 1.015 0.459 1.355 0.717 0.401 0.3 0.561 0.569 0.471 0.8l-0.021 0.030-0.011 0.010c-0.030 0.041-0.060 0.080-0.1 0.11-0.209 0.181-0.509 0.49-0.56 0.63l-4.709 12.281-0.011-0.004c-0.329 0.632-0.971 1.038-1.695 1.041h-0.004zM3.924 13.521l-0.013 0.033c-0.298 0.801 0.108 1.705 0.909 2.012 0.181 0.070 0.367 0.103 0.558 0.103 0.647 0 1.22-0.39 1.459-1l0.018-0.041 4.639-12.060c0.097-0.26 0.56-0.68 0.653-0.76l0.011-0.011c0.008-0.010 0.013-0.010 0.013-0.020 0-0.040-0.041-0.18-0.371-0.43-0.319-0.24-0.769-0.48-1.269-0.67-0.579-0.219-1.179-0.359-1.579-0.359-0.26 0-0.349 0.055-0.363 0.084v0.027c0.011 0.069 0.098 0.69-0.023 1.010l-4.641 12.080zM9.891 5.85c0 0-0.643 0.739-1.229 1.006-0.587 0.265-1.019 0.195-1.547 0.504-0.526 0.307-0.792 0.735-0.792 0.735l-2.143 5.575c-0.232 0.629 0.112 1.367 0.75 1.613 0.64 0.246 1.36-0.080 1.608-0.704zM6.603 12.507c0.069-0.027 0.15 0 0.177 0.070s0 0.148-0.070 0.176c-0.069 0.029-0.15 0-0.177-0.069-0.028-0.065 0-0.144 0.070-0.177zM5.927 11.305c-0.101 0.045-0.223 0-0.265-0.103-0.047-0.101 0-0.223 0.103-0.265 0.103-0.047 0.223 0 0.265 0.102 0.049 0.1 0.005 0.209-0.103 0.26zM6.118 10.575c-0.082-0.192 0-0.415 0.191-0.505 0.19-0.083 0.41 0 0.5 0.19 0.081 0.193 0 0.416-0.19 0.505-0.2 0.084-0.419 0-0.51-0.19zM7.735 9.069c0.102-0.049 0.223 0 0.265 0.1 0.047 0.103 0 0.224-0.102 0.266-0.103 0.047-0.225 0-0.266-0.103-0.049-0.101 0-0.223 0.103-0.265zM6.873 8.15c0.070-0.028 0.151 0 0.177 0.070 0.029 0.069 0 0.151-0.069 0.177-0.069 0.028-0.151 0-0.177-0.069-0.029-0.071 0.004-0.151 0.069-0.178zM9.121 0.76c0.067-0.174 0.662-0.108 1.33 0.151 0.666 0.256 1.153 0.606 1.087 0.78-0.069 0.176-0.665 0.109-1.331-0.147-0.67-0.257-1.156-0.607-1.088-0.784z"></path>
</svg>
