<!-- Generated by IcoMoon.io -->
<svg version="1.1" xmlns="http://www.w3.org/2000/svg" width="16" height="16" viewBox="0 0 16 16">
<title>jenkins</title>
<path fill="#d24939" d="M1.915 16h-0.65c-0.017-0.044-0.033-0.087-0.047-0.131-0.143-0.444-0.396-0.993-0.461-1.436-0.097-0.656 0.52-0.693 0.916-0.977 0.61-0.44 1.090-0.683 1.751-1.081 0.197-0.119 0.788-0.415 0.854-0.552 0.134-0.272-0.23-0.655-0.327-0.867-0.15-0.337-0.23-0.624-0.251-0.956-0.549-0.087-0.97-0.418-1.229-0.79-0.42-0.617-0.711-1.757-0.35-2.624 0.030-0.069 0.169-0.203 0.19-0.309 0.040-0.206-0.070-0.48-0.081-0.699-0.040-1.128 0.19-2.1 0.951-2.44 0.309-1.227 1.409-1.635 2.449-2.245 0.387-0.228 0.816-0.375 1.26-0.538 1.581-0.585 4.019-0.475 5.33 0.522 0.557 0.422 1.451 1.314 1.771 1.959 0.841 1.703 0.78 4.551 0.191 6.623-0.081 0.281-0.194 0.688-0.355 1.022-0.112 0.233-0.459 0.7-0.417 0.907 0.043 0.209 0.793 0.78 0.955 0.93 0.289 0.281 0.84 0.65 0.883 1 0.047 0.371-0.165 0.891-0.273 1.25-0.145 0.481-0.291 0.961-0.436 1.421h-12.625zM9.318 13.639c-0.363-0.199-0.907-0.414-1.377-0.504-0.579-0.109-0.519 0.792-0.5 1.329 0.020 0.429 0.241 0.877 0.341 1.163 0.050 0.131 0.059 0.273 0.17 0.299 0.2 0.045 0.86-0.217 1.050-0.319 0.4-0.219 0.709-0.563 1.049-0.793 0.011-0.113 0.011-0.227 0.021-0.339-0.201-0.099-0.43-0.172-0.731-0.185 0.209-0.1 0.5-0.1 0.69-0.221l0.011-0.129c-0.331-0.021-0.459-0.169-0.681-0.291zM14.288 15.597c0.129-0.413 0.239-0.814 0.31-1.168 0.039-0.191 0.143-0.612 0.119-0.784-0.039-0.306-0.456-0.533-0.669-0.724-0.389-0.35-0.634-0.65-1.041-0.979-0.165 0.25-0.519 0.41-0.655 0.609 0.965-0.459 1.139 1.75 0.761 2.459 0.060 0.22 0.261 0.301 0.343 0.491l-0.057 0.111h0.859c0.009 0 0.021 0 0.030 0.009zM9.865 15.589c-0.033-0.049-0.067-0.090-0.1-0.139l-0.201 0.13h0.301zM11.712 15.589c0.005-0.139 0.012-0.269 0.019-0.399-0.353 0.019-0.549-0.32-0.797-0.351-0.216-0.030-0.4 0.241-0.68 0.13-0.064 0.070-0.123 0.151-0.19 0.211 0.103 0.12 0.197 0.25 0.283 0.389h0.544c0.009-0.109 0.090-0.19 0.199-0.19 0.111 0 0.19 0.081 0.19 0.18h0.44zM13.123 15.589c-0.209-0.319-0.631-0.599-1.12-0.37l-0.021 0.361h1.141zM7.449 15.589l-0.070-0.229c-0.15-0.481-0.239-0.84-0.27-1.12-0.609-0.291-1.25-0.581-1.769-0.951-0.1-0.070-0.739-0.9-0.82-0.87-1.159 0.451-2.239 1.239-3.209 1.989 0.171 0.371 0.32 0.761 0.46 1.16h5.67zM12.959 14.18c-0.019-0.341-0.109-1.041-0.32-1.16-0.44-0.261-1.231 0.519-1.56 0.629 0.030 0.1 0.090 0.181 0.1 0.32 0.19-0.049 0.43-0.019 0.599 0.061-0.199 0.019-0.419 0.019-0.549 0.109-0.049 0.13 0.011 0.32-0.019 0.509 0.459 0.131 1 0.202 1.59 0.221 0.109-0.151 0.15-0.43 0.141-0.721zM10.239 13.94c-0.030 0.25 0.030 0.34 0.079 0.629 0.84 0.261 0.69-1.16-0.090-0.639zM5.841 13c-0.3 0.305 0.847 0.721 1.209 0.743 0-0.194 0.11-0.376 0.090-0.514-0.433-0.078-1.001-0.027-1.297-0.231zM9.551 13.143c0 0.029-0.041 0.019-0.045 0.043 0.387 0.301 0.676 0.363 1.202 0.34 0.236-0.175 0.447-0.375 0.695-0.538-0.57 0.049-1.288 0.405-1.85 0.153zM11.831 1.325c-1.070-0.604-2.9-1.061-4.051-0.487-0.92 0.461-2.18 1.227-2.599 2.195 0.4 0.935-0.111 1.791-0.151 2.739-0.012 0.505 0.24 0.947 0.261 1.495-0.133 0.225-0.55 0.253-0.84 0.237-0.097-0.486-0.267-1.033-0.77-1.087-0.709-0.077-1.23 0.51-1.261 1.123-0.040 0.719 0.556 1.909 1.391 1.83 0.325-0.031 0.405-0.361 0.759-0.361 0.19 0.38-0.297 0.5-0.349 0.77-0.011 0.070 0.039 0.341 0.069 0.47 0.155 0.629 0.496 1.439 0.83 1.92 0.423 0.6 1.256 0.701 2.153 0.761 0.16-0.35 0.75-0.32 1.137-0.231-0.461-0.18-0.891-0.63-1.25-1.019-0.41-0.451-0.82-0.94-0.841-1.52 0.77 1.069 1.4 1.999 2.801 2.469 1.060 0.35 2.299-0.169 3.109-0.739 0.34-0.239 0.541-0.62 0.78-0.959 0.9-1.291 1.32-3.14 1.231-4.93-0.041-0.741-0.041-1.481-0.291-1.97-0.259-0.521-1.13-0.981-1.65-0.521-0.1-0.509 0.419-0.819 1.030-0.639-0.44-0.57-0.891-1.239-1.511-1.59zM9.055 9.931c0.41 1.029 1.817 0.909 3.004 0.882-0.056 0.129-0.171 0.29-0.31 0.343-0.38 0.155-1.431 0.272-1.959-0.008-0.337-0.181-0.549-0.582-0.735-0.818-0.091-0.115-0.53-0.405-0.008-0.406zM9.164 9.35c0.595 0.31 1.68 0.345 2.488 0.32 0.044 0.179 0.044 0.396 0.045 0.609-1.034 0.053-2.258-0.203-2.53-0.93zM13.615 8.96c-0.315 0.6-0.763 1.265-1.693 1.285-0.015-0.189-0.030-0.49 0-0.603 0.709-0.069 1.151-0.431 1.695-0.678zM13.182 8.515c-0.68 0.44-1.436 0.917-2.549 0.807-0.235-0.207-0.324-0.667-0.094-0.972 0.121 0.209 0.041 0.59 0.38 0.646 0.63 0.111 1.359-0.385 1.82-0.56 0.28-0.475-0.030-0.65-0.28-0.955-0.521-0.621-1.22-1.4-1.201-2.34 0.209-0.15 0.231 0.23 0.261 0.299 0.269 0.641 0.949 1.451 1.449 2 0.12 0.141 0.32 0.261 0.34 0.35 0.061 0.259-0.169 0.569-0.139 0.739zM4.222 8.065c-0.209-0.123-0.262-0.66-0.512-0.673-0.357-0.020-0.292 0.699-0.291 1.119-0.247-0.219-0.29-0.909-0.109-1.26-0.205-0.1-0.297 0.11-0.412 0.19 0.147-1.060 1.56-0.489 1.326 0.64zM3.143 3.996c-0.457 0.504-0.36 1.449-0.306 2.125 0.829-0.523 1.932 0.040 1.922 0.93 0.397-0.011 0.149-0.496 0.077-0.81-0.235-1.019 0.395-2.125 0.027-3.060-0.709 0.055-1.293 0.346-1.719 0.809zM9.223 4.738c0.205 0.375 0.269 0.765 0.56 1.047 0.13 0.127 0.383 0.283 0.258 0.634-0.030 0.081-0.243 0.261-0.367 0.3-0.449 0.13-1.503 0.020-1.147-0.54 0.375 0.010 0.876 0.239 1.155-0.030-0.209-0.35-0.59-1.020-0.449-1.42zM13.355 4.729h0.045c0.22 0.445 0.4 0.917 0.669 1.31-0.18 0.419-1.369 0.793-1.349 0.038 0.259-0.113 0.699-0.023 0.93-0.167-0.129-0.371-0.32-0.671-0.289-1.181zM8.737 3.651c-0.948-0.22-1.421 0.395-1.707 1.035-0.256-0.063-0.154-0.41-0.090-0.589 0.17-0.467 0.853-1.089 1.413-1.004 0.239 0.038 0.565 0.257 0.384 0.556zM6.429 1.061c-1.040 0.293-2.373 1.049-2.8 1.983 0.33-0.047 0.56-0.214 0.887-0.234 0.124-0.011 0.285 0.049 0.427 0.010 0.283-0.069 0.52-0.71 0.735-0.939 0.207-0.231 0.457-0.331 0.627-0.541 0.111-0.060 0.272-0.049 0.28-0.22-0.049-0.050-0.1-0.090-0.155-0.070z"></path>
</svg>
