<!-- Generated by IcoMoon.io -->
<svg version="1.1" xmlns="http://www.w3.org/2000/svg" width="16" height="16" viewBox="0 0 16 16">
<title>jest</title>
<path fill="#c21325" d="M14.834 7.88c-0.002-0.959-0.653-1.766-1.537-2.003l-0.015-0.003 1.992-5.873h-9.871l1.997 5.892c-0.871 0.26-1.495 1.053-1.496 1.992v0c0 0.695 0.347 1.311 0.875 1.691-0.221 0.309-0.458 0.581-0.72 0.827l-0.003 0.003c-0.478 0.456-1.042 0.827-1.664 1.085l-0.036 0.013c-0.556-0.375-0.797-1.037-0.579-1.631 0.852-0.271 1.458-1.054 1.458-1.98 0-1.142-0.924-2.069-2.065-2.073h-0c-1.146 0.002-2.074 0.93-2.075 2.075v0c0 0.565 0.231 1.084 0.602 1.455-0.032 0.065-0.065 0.13-0.097 0.199-0.31 0.639-0.662 1.362-0.797 2.173-0.269 1.621 0.171 2.923 1.233 3.659 0.545 0.388 1.224 0.621 1.957 0.621 0.002 0 0.005 0 0.007 0h-0c1.218 0 2.455-0.611 3.65-1.205 0.853-0.421 1.733-0.861 2.599-1.075 0.32-0.079 0.653-0.125 1.005-0.176 0.713-0.102 1.45-0.208 2.112-0.593 0.753-0.437 1.29-1.174 1.452-2.042l0.003-0.018c0.116-0.663 0-1.329-0.296-1.913 0.199-0.32 0.31-0.695 0.31-1.097zM13.931 7.88c0 0.643-0.523 1.167-1.167 1.167-0.644-0.002-1.165-0.524-1.165-1.169 0-0.37 0.172-0.699 0.44-0.914l0.002-0.002 0.005-0.005c0.037-0.028 0.079-0.056 0.12-0.083 0 0 0.005 0 0.005-0.005 0.019-0.009 0.037-0.023 0.055-0.033 0.005 0 0.009-0.004 0.014-0.004 0.019-0.009 0.042-0.019 0.065-0.028s0.047-0.018 0.065-0.027c0.005 0 0.009-0.005 0.013-0.005 0.019-0.005 0.037-0.014 0.056-0.019 0.005 0 0.013-0.005 0.019-0.005 0.023-0.005 0.041-0.009 0.065-0.013h0.005l0.069-0.015c0.005 0 0.013 0 0.019-0.005 0.019 0 0.037-0.005 0.055-0.005h0.023c0.023 0 0.047-0.005 0.074-0.005h0.060c0.019 0 0.033 0 0.051 0.005h0.009c0.037 0.005 0.074 0.009 0.111 0.019 0.535 0.118 0.93 0.587 0.931 1.149v0zM6.695 0.927h7.287l-1.673 4.933c-0.069 0.013-0.139 0.037-0.208 0.060l-1.76-3.59-1.765 3.567c-0.069-0.023-0.144-0.037-0.218-0.051zM10.007 7.477c-0.090-0.443-0.313-0.824-0.624-1.111l-0.001-0.001 0.959-1.936 0.968 1.978c-0.287 0.287-0.495 0.653-0.579 1.070zM7.687 6.745c0.023-0.005 0.041-0.009 0.065-0.013h0.013c0.019-0.005 0.037-0.005 0.056-0.010h0.019c0.019 0 0.033-0.005 0.051-0.005h0.181c0.019 0 0.033 0.005 0.047 0.005 0.009 0 0.013 0 0.023 0.005 0.018 0.005 0.032 0.005 0.051 0.009 0.005 0 0.009 0 0.019 0.005l0.065 0.013h0.005c0.019 0.005 0.037 0.010 0.055 0.019 0.005 0 0.009 0.005 0.019 0.005 0.014 0.005 0.033 0.009 0.047 0.018 0.005 0 0.009 0.005 0.013 0.005 0.019 0.009 0.037 0.014 0.056 0.023h0.005c0.023 0.009 0.043 0.020 0.061 0.033l-0.001-0h0.005c0.019 0.009 0.037 0.023 0.056 0.032 0.005 0 0.005 0.005 0.009 0.005 0.019 0.009 0.033 0.023 0.051 0.033l0.005 0.005c0.055 0.041 0.107 0.088 0.157 0.134l0.005 0.005c0.198 0.208 0.32 0.491 0.32 0.802 0 0.001 0 0.003-0 0.004v-0c-0.022 0.628-0.536 1.129-1.167 1.129s-1.145-0.501-1.167-1.127l-0-0.002c0-0.001 0-0.002 0-0.003 0-0.541 0.371-0.996 0.872-1.125l0.008-0.002zM3.128 6.712c0.644 0 1.167 0.524 1.167 1.167s-0.523 1.167-1.167 1.167-1.168-0.523-1.168-1.167 0.524-1.168 1.167-1.168zM13.903 10.729c-0.112 0.613-0.484 1.122-0.995 1.417l-0.010 0.005c-0.505 0.292-1.126 0.385-1.779 0.477-0.435 0.056-0.807 0.124-1.171 0.209l0.078-0.015c-0.963 0.237-1.889 0.7-2.788 1.145-1.149 0.569-2.233 1.107-3.238 1.107-0.004 0-0.010 0-0.015 0-0.534 0-1.027-0.172-1.428-0.464l0.007 0.005c-1.019-0.704-0.969-2.024-0.848-2.747 0.111-0.677 0.421-1.311 0.718-1.918 0.019-0.037 0.033-0.069 0.051-0.107 0.101 0.037 0.208 0.065 0.319 0.084-0.176 0.982 0.324 1.996 1.297 2.497l0.176 0.093 0.189-0.069c0.811-0.287 1.561-0.755 2.224-1.381 0.361-0.337 0.678-0.712 0.949-1.121l0.014-0.023c0.107 0.018 0.213 0.023 0.32 0.023 0.958-0.002 1.764-0.653 2.002-1.537l0.003-0.015h0.778c0.239 0.899 1.047 1.551 2.006 1.551 0 0 0 0 0.001 0h-0c0.384 0 0.74-0.107 1.047-0.287 0.12 0.347 0.157 0.709 0.093 1.070z"></path>
</svg>
