<!-- Generated by IcoMoon.io -->
<svg version="1.1" xmlns="http://www.w3.org/2000/svg" width="16" height="16" viewBox="0 0 16 16">
<title>jet</title>
<path fill="#fbba00" d="M10.519 12.696c2.032-0.332 3.17-0.487 5.479-1.597l0.002-1.893c-2.152 2.15-6.166 3.431-10.047 3.399-0.5-0.007-1.299 0.011-1.497-0.016 2.067 0.327 4.12 0.371 6.063 0.106zM2.557 10.509c0.5 0.002 1.203-0.009 1.602-0.263 0.357-0.311 0.62-0.737 0.831-1.219l1.030-3.131-1.438 0.009-0.799 2.443c-0.15 0.774-0.629 1.044-0.989 0.989l-0.903-0.065-0.343 1.117 1.009 0.12zM11.417 10.44l1.115-3.383h1.627l0.362-1.11-3.938-0.007-0.371 1.108h0.855l-1.153 3.385 1.505 0.007zM8.845 10.424l0.376-1.145h-2.136l0.198-0.606h1.779l0.362-1.094h-1.774l0.175-0.54h2.053l0.38-1.142-3.511 0.018-1.47 4.505 3.569 0.005zM9.675 3.885c1.255-0.048 2.495 0.055 3.979 0.185-1.461-0.539-3.8-0.938-5.563-0.938-2.896 0-5.763 0.703-8.078 1.783l-0.014 2.465c2.214-2.258 6.076-3.532 9.675-3.495z"></path>
</svg>
