<!-- Generated by IcoMoon.io -->
<svg version="1.1" xmlns="http://www.w3.org/2000/svg" width="16" height="16" viewBox="0 0 16 16">
<title>jetbrains</title>
<path d="M0 0h16v16h-16zM1.4 14h6v-1h-6zM2.2 4.6h0.2c0.467-0.067 0.8-0.467 0.8-1v-1.6h-0.733v1.667c0 0.267-0.067 0.333-0.267 0.333s-0.333-0.067-0.4-0.2l-0.467 0.4c0.2 0.333 0.533 0.467 0.867 0.4zM5.533 4.6v-0.6h-1.4v-0.4h1.2v-0.6h-1.2v-0.4h1.4v-0.6h-2.133v2.667h2.133zM6.4 4.6h0.733v-2h0.8v-0.6h-2.267v0.6h0.8v2zM3.733 7.133c0-0.333-0.2-0.6-0.533-0.6 0.267-0.067 0.4-0.333 0.4-0.6 0-0.133-0.067-0.333-0.133-0.467-0.2-0.2-0.467-0.267-0.733-0.267h-1.333v2.6h1.333c0.6 0 1-0.267 1-0.667zM2.067 5.8h0.467c0.2 0 0.333 0.067 0.333 0.2 0 0.2-0.133 0.267-0.333 0.267h-0.467zM2.067 7.2v-0.467h0.533c0.267 0 0.4 0.067 0.333 0.2 0 0.133-0.133 0.267-0.333 0.267zM7 5.2l-1 2.333-0.4-0.6c0.333-0.133 0.533-0.467 0.533-0.8 0-0.2-0.067-0.467-0.2-0.6-0.267-0.267-0.6-0.333-0.867-0.333h-1.267v2.6h0.733v-0.8h0.333l0.533 0.8h1.2l0.2-0.467h1l0.2 0.467h0.8l-1.067-2.667h-0.733zM5 6.467h-0.467v-0.6h0.467c0.2 0 0.4 0.067 0.4 0.333 0 0.133-0.133 0.267-0.4 0.267zM7.6 6.8h-0.533l0.267-0.733zM8.867 7.8h0.733v-2.6h-0.733zM11.533 6.6l-1.067-1.4h-0.667v2.6h0.733v-1.4l1.133 1.467h0.6v-2.667h-0.733zM13.6 6.2c-0.333-0.067-0.467-0.133-0.467-0.267 0-0.067 0.067-0.133 0.267-0.133 0.267 0 0.533 0.133 0.733 0.267l0.4-0.533c-0.333-0.267-0.667-0.333-1.067-0.333-0.6 0-1 0.4-1 0.867 0 0.533 0.4 0.667 1 0.8 0.333 0.067 0.467 0.133 0.467 0.267s-0.133 0.2-0.333 0.2c-0.333 0-0.6-0.133-0.867-0.333l-0.4 0.467c0.333 0.267 0.8 0.4 1.2 0.4 0.667 0 1.067-0.333 1.067-0.867 0-0.467-0.4-0.667-1-0.8z"></path>
</svg>
