<!-- Generated by IcoMoon.io -->
<svg version="1.1" xmlns="http://www.w3.org/2000/svg" width="16" height="16" viewBox="0 0 16 16">
<title>jinja</title>
<path fill="#b41717" d="M15.813 0.445l-0.053 0.026c0 0-3.042 1.45-5.496 1.768-1.236 0.16-3.037 0.321-4.643 0.413-0.626 0.041-1.382 0.069-2.144 0.078l-0.026 0c-0.611 0.003-1.087-0.021-1.3-0.073-0.639-0.153-1.174-0.32-1.692-0.519l0.092 0.031-0.168-0.067 0.231 0.781-0.613 0.539 0.165 0.291 0.293 0.022 0.701 0.087 0.108 0.343 0.423 0.038 0.212 0.719 0.061 0.004c0 0 0.892 0.077 1.175 0.077 0.243 0 0.62-0.027 0.715-0.033l0.016 0.264 0.191 0.036v0.21l-0.533 0.473 0.104 0.019c-0.093 0.007-0.151 0.012-0.333 0.020-0.286 0.011-0.623 0.013-0.802-0.012-0.391-0.057-0.473-0.057-0.473-0.057h-0.038l-0.081 0.087-0.031 0.297h0.101l0.037 0.741 1.955-0.075-0.137 2.455-0.013 0.231-1.495-0.085-0.013-0.507h0.359l0.038-0.28 0.309-0.071 0.149-0.208-1.407-0.34-1.137 0.337 0.31 0.259h0.111l0.017 0.223 0.329 0.019v0.509l-0.407 0.105 0.127 0.269 0.070 0.045v0.55h0.229v2.197l-0.377 0.057 0.065 0.831 0.223 0.037-0.037 1.561 1.202 0.022-0.213-1.535 1.321-0.032-0.093 0.725-0.167 0.688 1.739 0.022 0.018-1.52 0.881-0.079-0.048 0.862-0.042 0.66h1.089l-0.035-1.533 0.117 0.018 0.045-0.928h-0.162l-0.039-0.227-0.087-0.86 0.033-0.909h0.197v-0.788l-0.243 0.018 0.027-0.537 0.287-0.029 0.015-0.235 0.115-0.017 0.34-0.259-1.218-0.25-1.139 0.253 0.19 0.313 0.159-0.013 0.036-0.003 0.023 0.295 0.273-0.013 0.003 0.449-1.017-0.023 0.035-0.585 0.039-0.617v-0.809l0.032-0.768 2.323-0.119 2.771-0.16 0.022 0.449-0.101 1.299-0.042 1.129-0.88-0.015-0.004-0.679 0.383-0.014 0.019-0.249 0.18-0.027-0.008-0.038 0.101-0.007 0.193-0.259-1.34-0.314-1.325 0.284 0.172 0.3 0.093-0.007v0.059h0.164v0.268l0.349 0.005-0.004 0.571h-0.351l-0.009 0.337 0.125 0.015-0.014 0.652 0.263 0.013-0.029 2.41-0.349 0.072 0.011 0.282h0.117v0.657h0.193l-0.047 0.803-0.075 0.876 1.447 0.038-0.046-0.781-0.092-0.565-0.015-0.395 0.883-0.016-0.027 0.668-0.005 0.887 0.689 0.055 0.835-0.033 0.355-0.105-0.167-0.507-0.035-0.667-0.053-0.389 0.822-0.030-0.038 0.495-0.004 1.010 0.492 0.046 0.421-0.011 0.277-0.087-0.125-0.949-0.033-0.575 0.167-0.018 0.004-0.597 0.053-0.011-0.018-0.287h-0.202l-0.033-0.351-0.015-1.795 0.148-0.004v-0.601l0.064 0.009v-0.307l-0.223-0.018 0.004-0.557 0.38-0.034-0.022-0.241 0.173-0.014-0.016-0.078 0.387-0.193-1.371-0.275-1.254 0.253 0.155 0.288 0.149-0.013 0.009 0.051h0.135l0.007 0.284 0.365-0.004 0.023 0.515-1.114-0.008-0.141-0.971-0.119-0.551-0.097-0.979 0.050-0.497 2.565-0.195 0.008-0.877 0.134-0.033-0.015-0.253-0.159-0.092h-0.025l-0.238 0.033-0.529 0.077c-0.14 0.027-0.511 0.078-0.882 0.124l-0.201 0.020-0.127 0.013-0.009-0.119-0.523-0.273 0.004-0.183 0.181-0.005 0.013-0.448c0.060-0.004 0.235-0.016 0.514-0.041 0.323-0.030 0.693-0.070 0.907-0.12 0.398-0.093 0.968-0.187 0.968-0.187l0.051-0.008 0.272-0.739 0.537-0.156 0.044-0.123 1.187-0.328 0.204-0.168-0.478-1.043 0.031-0.157 0.229-0.12 0.198-0.604zM9.884 4.487l-0.007 0.351 0.271 0.011-0.011 0.213-0.526 0.345-0.057 0.172-1.24 0.060 0.007-0.123 0.075-0.121 0.007-0.102 0.001-0.152 0.045-0.104 0.021-0.107v-0.061l0.053-0.215zM6.43 4.794l-0.029 0.176 0.133 0.156-0.009 0.258 0.117 0.18-0.031 0.219 0.017 0.023-1.231 0.049 0.013-0.101-0.435-0.236-0.015-0.23 0.194-0.009 0.019-0.399zM9.107 10.461l0.839 0.055-0.033 1.292 0.122 1.027-0.893-0.031zM2.289 10.517l1.44 0.075-0.129 0.855v0.813l0.091 0.349-1.393 0.065zM12.541 10.523v2.171l-0.861 0.063-0.034-1.149-0.105-1.061zM4.877 10.574l1.025 0.004 0.011 1.997-0.953 0.017-0.051-0.619-0.004-0.698z"></path>
</svg>
