<!-- Generated by IcoMoon.io -->
<svg version="1.1" xmlns="http://www.w3.org/2000/svg" width="16" height="16" viewBox="0 0 16 16">
<title>joomla</title>
<path fill="#5091cd" d="M11.146 9.839l-3.554 3.558c-0.912 0.91-2.198 1.22-3.365 0.931-0.218 0.949-1.069 1.66-2.087 1.66-1.182 0-2.141-0.957-2.141-2.141 0-1.012 0.703-1.859 1.646-2.082-0.297-1.173 0.011-2.47 0.931-3.387l0.119-0.12 1.58 1.58-0.123 0.121c-0.513 0.519-0.513 1.349 0 1.859 0.514 0.52 1.348 0.52 1.858 0l0.31-0.31 3.246-3.251zM11.762 14.274c-1.215 0.375-2.59 0.080-3.552-0.879l-0.12-0.123 1.577-1.579 0.12 0.123c0.514 0.512 1.345 0.512 1.858 0 0.51-0.51 0.513-1.34-0.003-1.854l-0.311-0.31-3.245-3.249 1.58-1.579 3.553 3.559c0.91 0.907 1.231 2.185 0.941 3.347 1.040 0.149 1.839 1.040 1.839 2.12 0 1.189-0.959 2.14-2.139 2.14-1.030 0-1.901-0.731-2.090-1.71zM4.65 6.307l3.56-3.557c0.95-0.951 2.305-1.25 3.51-0.891 0.141-1.041 1.037-1.85 2.119-1.85 1.181 0 2.141 0.958 2.141 2.139 0 1.087-0.811 1.985-1.86 2.124 0.346 1.199 0.045 2.544-0.9 3.489l-0.121 0.123-1.579-1.579 0.123-0.123c0.513-0.513 0.513-1.344 0-1.855-0.511-0.511-1.341-0.512-1.854 0.002l-0.308 0.307-3.25 3.247zM2.881 8.072l-0.307-0.308c-0.954-0.954-1.25-2.317-0.888-3.525-0.953-0.219-1.666-1.069-1.666-2.089 0-1.18 0.96-2.139 2.14-2.139 1.064 0 1.947 0.777 2.113 1.794 1.153-0.27 2.417 0.043 3.319 0.943l0.123 0.123-1.58 1.58-0.122-0.121c-0.513-0.51-1.344-0.51-1.857 0-0.514 0.521-0.513 1.35-0.003 1.86l0.31 0.311 3.25 3.249-1.578 1.58-3.254-3.25z"></path>
</svg>
