<!-- Generated by IcoMoon.io -->
<svg version="1.1" xmlns="http://www.w3.org/2000/svg" width="16" height="16" viewBox="0 0 16 16">
<title>jquery</title>
<path fill="#0769ad" d="M1.023 3.916c-1.415 2.033-1.24 4.678-0.158 6.837 0.025 0.053 0.052 0.103 0.079 0.153 0.015 0.035 0.033 0.067 0.051 0.099 0.009 0.019 0.021 0.038 0.031 0.055 0.017 0.035 0.036 0.068 0.054 0.101l0.105 0.177c0.019 0.033 0.038 0.065 0.060 0.097 0.037 0.063 0.080 0.125 0.118 0.187 0.017 0.026 0.033 0.052 0.053 0.078 0.074 0.116 0.142 0.213 0.214 0.306l-0.007-0.010c0.052 0.071 0.104 0.141 0.16 0.21 0.018 0.025 0.038 0.051 0.057 0.076l0.147 0.179c0.018 0.021 0.036 0.045 0.055 0.066 0.065 0.079 0.135 0.155 0.204 0.233 0 0.001 0.002 0.003 0.003 0.005 0.086 0.108 0.179 0.204 0.28 0.291l0.003 0.002c0.053 0.055 0.107 0.109 0.163 0.163l0.067 0.065c0.074 0.069 0.148 0.139 0.226 0.205 0.001 0 0.002 0.001 0.003 0.002l0.038 0.033c0.068 0.059 0.137 0.119 0.207 0.173l0.083 0.070c0.057 0.045 0.115 0.089 0.173 0.133l0.091 0.069c0.062 0.047 0.128 0.093 0.191 0.138 0.023 0.017 0.047 0.033 0.071 0.049l0.019 0.015 0.187 0.123 0.080 0.053c0.098 0.063 0.195 0.122 0.292 0.181 0.028 0.014 0.056 0.029 0.082 0.045 0.072 0.041 0.147 0.083 0.219 0.122 0.040 0.023 0.081 0.042 0.123 0.063 0.050 0.028 0.102 0.055 0.155 0.083 0.014 0.004 0.027 0.010 0.038 0.016l-0.001-0.001c0.022 0.010 0.043 0.021 0.064 0.031 0.080 0.040 0.163 0.078 0.25 0.116 0.016 0.007 0.033 0.013 0.051 0.023 0.096 0.042 0.192 0.082 0.291 0.121 0.023 0.007 0.047 0.018 0.070 0.027 0.090 0.034 0.183 0.069 0.274 0.101l0.033 0.012c0.102 0.035 0.203 0.068 0.306 0.1 0.024 0.007 0.049 0.015 0.074 0.022 0.106 0.032 0.209 0.070 0.315 0.091 6.84 1.247 8.828-4.113 8.828-4.113-1.67 2.175-4.633 2.748-7.44 2.11-0.104-0.024-0.208-0.057-0.313-0.088-0.191-0.055-0.317-0.096-0.441-0.14l0.063 0.019-0.041-0.016c-0.091-0.031-0.178-0.065-0.267-0.099-0.017-0.007-0.041-0.017-0.066-0.025l-0.008-0.002c-0.098-0.039-0.193-0.080-0.288-0.122-0.021-0.007-0.038-0.016-0.059-0.024-0.175-0.078-0.254-0.115-0.333-0.154l0.092 0.041c-0.025-0.011-0.047-0.022-0.071-0.035-0.063-0.029-0.125-0.063-0.187-0.095-0.057-0.027-0.098-0.048-0.138-0.071l0.013 0.007c-0.075-0.040-0.151-0.083-0.226-0.125-0.023-0.016-0.049-0.029-0.075-0.044-0.144-0.085-0.24-0.144-0.334-0.205l0.042 0.025c-0.032-0.020-0.058-0.037-0.083-0.055l0.004 0.003c-0.086-0.053-0.154-0.098-0.22-0.146l0.012 0.008c-0.023-0.015-0.045-0.032-0.069-0.049-0.085-0.059-0.149-0.105-0.212-0.153l0.016 0.012c-0.028-0.023-0.058-0.044-0.088-0.067-0.059-0.046-0.118-0.090-0.177-0.139l-0.079-0.063c-0.087-0.070-0.159-0.131-0.23-0.194l0.008 0.007c-0.007-0.007-0.015-0.014-0.024-0.020l-0.001-0-0.231-0.211-0.067-0.063c-0.055-0.055-0.111-0.109-0.167-0.163l-0.065-0.067c-0.069-0.069-0.136-0.139-0.202-0.211l-0.004-0.005-0.010-0.011c-0.071-0.077-0.139-0.156-0.209-0.236-0.018-0.021-0.035-0.043-0.053-0.065l-0.151-0.185c-0.052-0.066-0.127-0.163-0.2-0.261l-0.027-0.038c-1.557-2.125-2.12-5.059-0.874-7.465zM5.414 2.203c-1.026 1.473-0.968 3.442-0.169 4.999 0.148 0.292 0.298 0.539 0.464 0.774l-0.013-0.019c0.153 0.22 0.323 0.48 0.528 0.657 0.071 0.081 0.149 0.16 0.229 0.239l0.060 0.060c0.076 0.073 0.154 0.145 0.233 0.217l0.010 0.009c0.080 0.070 0.17 0.145 0.262 0.217l0.014 0.011c0.023 0.015 0.042 0.033 0.064 0.049 0.093 0.072 0.187 0.141 0.285 0.21l0.010 0.006c0.041 0.030 0.085 0.057 0.132 0.087 0.019 0.012 0.040 0.028 0.060 0.040 0.071 0.045 0.14 0.088 0.211 0.131 0.011 0.005 0.021 0.011 0.032 0.015 0.060 0.037 0.125 0.072 0.188 0.105 0.022 0.013 0.043 0.023 0.066 0.036 0.045 0.022 0.089 0.045 0.131 0.068l0.021 0.009c0.090 0.044 0.182 0.085 0.272 0.127 0.023 0.009 0.042 0.016 0.061 0.025 0.074 0.032 0.149 0.063 0.223 0.091 0.033 0.011 0.065 0.025 0.096 0.035 0.068 0.025 0.139 0.049 0.207 0.072l0.093 0.030c0.097 0.030 0.196 0.069 0.299 0.086 5.28 0.875 6.503-3.191 6.503-3.191-1.101 1.584-3.231 2.339-5.501 1.749-0.138-0.035-0.238-0.065-0.336-0.097l0.038 0.011c-0.032-0.009-0.060-0.019-0.091-0.028-0.069-0.024-0.141-0.047-0.208-0.073l-0.096-0.036c-0.075-0.030-0.151-0.058-0.223-0.090-0.023-0.010-0.043-0.017-0.061-0.027-0.093-0.042-0.187-0.083-0.278-0.128l-0.137-0.071-0.079-0.040c-0.061-0.032-0.118-0.065-0.177-0.1-0.016-0.008-0.030-0.015-0.043-0.024l0.002 0.001c-0.071-0.044-0.144-0.087-0.211-0.132-0.023-0.013-0.043-0.028-0.065-0.041l-0.139-0.091c-0.096-0.067-0.19-0.139-0.285-0.208-0.021-0.019-0.042-0.035-0.063-0.053-0.998-0.785-1.785-1.857-2.159-3.072-0.393-1.263-0.307-2.679 0.373-3.828zM9.107 0.923c-0.605 0.888-0.663 1.991-0.247 2.97 0.443 1.040 1.348 1.857 2.403 2.243 0.043 0.017 0.085 0.031 0.13 0.047l0.059 0.018c0.061 0.019 0.123 0.042 0.187 0.056 2.917 0.563 3.707-1.498 3.919-1.801-0.695 0.997-1.859 1.237-3.288 0.889-0.14-0.035-0.254-0.072-0.366-0.114l0.022 0.007c-0.169-0.059-0.305-0.117-0.437-0.18l0.025 0.011c-0.275-0.135-0.511-0.281-0.731-0.448l0.011 0.008c-1.28-0.969-2.073-2.82-1.238-4.327z"></path>
</svg>
