<!-- Generated by IcoMoon.io -->
<svg version="1.1" xmlns="http://www.w3.org/2000/svg" width="16" height="16" viewBox="0 0 16 16">
<title>jsdelivr</title>
<path fill="#e84d3d" d="M7.901 0l-7.36 2.68 1.040 9.8 6.319 3.52 6.4-3.52 1.16-9.84zM7.942 3.081c0.644 0.002 1.254 0.142 1.805 0.393l-0.028-0.011c-0.657 0.376-1.224 0.807-1.728 1.301l0.001-0.001c-0.030-0.013-0.061-0.021-0.092-0.030-0.069-0.023-0.148-0.036-0.23-0.037h-0c-0.047 0-0.094 0.007-0.14 0.014-0.193-0.449-0.337-0.971-0.407-1.516l-0.003-0.030c0.233-0.048 0.502-0.077 0.777-0.081l0.003-0c0.006-0 0.021-0.001 0.035-0.001l0.006-0zM6.615 3.289c0.087 0.622 0.248 1.185 0.476 1.711l-0.016-0.042c-0.135 0.144-0.218 0.337-0.219 0.55v0c0 0.156 0.045 0.301 0.122 0.423l-0.002-0.003c-0.625 0.863-1.104 1.869-1.27 2.873-0.007 0.037-0.009 0.073-0.013 0.111-0.188 0.060-0.343 0.189-0.437 0.36-0.658-0.222-1.257-0.645-1.743-1.348-0.009-0.1-0.016-0.22-0.017-0.34l-0-0.003c0.002-2.005 1.298-3.703 3.089-4.283l0.031-0.009zM10.287 3.762c0.734 0.468 1.312 1.125 1.675 1.906l0.011 0.027c-0.251 0.635-0.699 1.261-1.262 1.818-0.122-0.076-0.27-0.122-0.429-0.123h-0c-0.194 0.001-0.373 0.069-0.514 0.181l0.002-0.001c-0.308-0.236-0.607-0.491-0.879-0.779-0.222-0.233-0.425-0.487-0.614-0.749 0.127-0.143 0.207-0.329 0.207-0.535 0-0.141-0.041-0.273-0.106-0.391 0.705-0.672 1.408-1.113 1.909-1.356zM7.67 5.083c0.087 0.002 0.166 0.030 0.232 0.077l-0.001-0.001c0.117 0.074 0.194 0.203 0.195 0.349v0c-0.001 0.147-0.078 0.275-0.193 0.348l-0.002 0.001c-0.064 0.046-0.144 0.073-0.23 0.075h-0c-0.001 0-0.002 0-0.003 0-0.233 0-0.423-0.189-0.423-0.423 0-0.001 0-0.001 0-0.002v0c0-0.237 0.189-0.425 0.425-0.425zM7.376 6.264c0.088 0.036 0.189 0.056 0.296 0.056 0.055 0 0.108-0.005 0.16-0.016l-0.005 0.001c0.024 0.033 0.050 0.065 0.075 0.099 0.201 0.277 0.402 0.52 0.618 0.75l-0.004-0.004c0.294 0.304 0.609 0.583 0.944 0.837l0.020 0.015c-0.021 0.073-0.036 0.149-0.036 0.228 0.001 0.091 0.017 0.178 0.046 0.259l-0.002-0.006c-0.406 0.268-0.872 0.503-1.366 0.68l-0.046 0.014c-0.058 0.019-0.115 0.035-0.174 0.052-0.368 0.118-0.793 0.197-1.234 0.221l-0.013 0.001c-0.061-0.233-0.223-0.42-0.435-0.513l-0.005-0.002c0.003-0.016 0.003-0.033 0.007-0.049 0.146-0.889 0.582-1.82 1.155-2.623zM12.224 6.391c0.102 0.356 0.162 0.766 0.163 1.19v0.001c-0 0.441-0.063 0.867-0.181 1.269l0.008-0.032c-0.43-0.121-0.799-0.264-1.15-0.437l0.039 0.017c0.011-0.050 0.017-0.107 0.017-0.166 0-0.112-0.022-0.218-0.062-0.315l0.002 0.006c0.454-0.439 0.841-0.944 1.147-1.5l0.016-0.033zM10.282 7.791c0.245 0 0.438 0.194 0.438 0.439s-0.194 0.438-0.438 0.438c-0.245 0-0.439-0.193-0.439-0.438s0.193-0.439 0.439-0.439zM10.84 8.851c0.338 0.17 0.736 0.326 1.151 0.446l0.051 0.013c-0.687 1.64-2.262 2.769-4.099 2.771h-0c-0.027-0.002-0.041-0.002-0.055-0.003l0.014 0.001c-0.004 0-0.009 0-0.014 0s-0.010-0-0.015-0h0.001c-0.058-0.028-0.112-0.053-0.177-0.086-0.208-0.103-0.445-0.235-0.564-0.333-0.418-0.34-0.722-0.804-0.859-1.336l-0.004-0.018c0.14-0.074 0.253-0.189 0.325-0.33 0.472-0.018 0.92-0.091 1.346-0.214l-0.040 0.010c0.158-0.042 0.272-0.077 0.385-0.115l-0.043 0.013c0.597-0.208 1.112-0.463 1.59-0.771l-0.029 0.018c0.137 0.095 0.301 0.153 0.479 0.153 0.215-0.001 0.411-0.084 0.559-0.219l-0.001 0.001zM3.702 8.929c0.407 0.384 0.9 0.68 1.447 0.858l0.027 0.008c0.065 0.288 0.285 0.511 0.566 0.579l0.005 0.001c0.139 0.584 0.429 1.087 0.826 1.481l0 0c-1.371-0.458-2.429-1.535-2.864-2.895l-0.009-0.032zM5.92 9.238c0.221 0 0.397 0.175 0.397 0.397s-0.176 0.397-0.397 0.397c-0.001 0-0.003 0-0.004 0-0.217 0-0.393-0.176-0.393-0.393 0-0.001 0-0.002 0-0.004v0c-0-0.001-0-0.002-0-0.003 0-0.218 0.176-0.394 0.394-0.394 0.001 0 0.002 0 0.004 0h-0z"></path>
</svg>
