<!-- Generated by IcoMoon.io -->
<svg version="1.1" xmlns="http://www.w3.org/2000/svg" width="16" height="16" viewBox="0 0 16 16">
<title>jsfiddle</title>
<path fill="#4679a4" d="M14.052 7.501c0.007-0.094 0.014-0.185 0.014-0.279 0-2.589-2.129-4.687-4.757-4.687-1.825-0.007-3.493 1.032-4.294 2.673-0.383-0.295-0.853-0.454-1.338-0.454-1.213 0-2.197 0.967-2.197 2.16 0 0.225 0.035 0.442 0.1 0.645-0.975 0.563-1.578 1.602-1.581 2.729 0 1.735 1.416 3.145 3.173 3.17h9.5c0.060 0 0.12 0.010 0.18 0.010 1.739 0 3.149-1.389 3.149-3.108-0.008-1.257-0.773-2.386-1.94-2.857zM4.293 11.068c-0.319-0.289-0.519-0.639-0.599-1.053-0.027-0.144-0.041-0.289-0.041-0.435 0-0.59 0.215-1.075 0.645-1.459s0.975-0.576 1.637-0.576c0.68 0 1.319 0.255 1.887 0.764 0.14 0.126 0.278 0.269 0.409 0.427l0.727 0.856c0.125 0.173 0.259 0.32 0.4 0.447 0.375 0.336 0.78 0.504 1.124 0.504 0.292 0 0.534-0.090 0.729-0.268 0.165-0.153 0.268-0.359 0.289-0.583l0.005-0.099c0.001-0.094-0.014-0.187-0.043-0.277-0.151-0.413-0.549-0.682-0.989-0.667-0.362 0-0.721 0.122-1.115 0.503l-0.645-0.759-0.070-0.086c0.57-0.553 1.13-0.759 1.889-0.759 0.669 0 1.219 0.189 1.627 0.569l0.011 0.010c0.431 0.379 0.639 0.87 0.639 1.472 0 0.14-0.011 0.29-0.039 0.42-0.081 0.409-0.28 0.749-0.59 1.039-0.318 0.29-0.713 0.478-1.139 0.54-0.15 0.020-0.299 0.030-0.47 0.030-0.689 0-1.339-0.25-1.888-0.749-0.156-0.141-0.299-0.295-0.43-0.459l-0.729-0.85c-0.114-0.163-0.244-0.314-0.39-0.449-0.37-0.34-0.78-0.5-1.139-0.5-0.104 0-0.209 0.014-0.31 0.041-0.157 0.040-0.301 0.119-0.419 0.23-0.186 0.173-0.292 0.415-0.291 0.67 0 0.259 0.090 0.479 0.28 0.659l0.011 0.011c0.2 0.18 0.45 0.269 0.739 0.269 0.37 0 0.729-0.129 1.119-0.509l0.64 0.749 0.069 0.079c-0.579 0.56-1.139 0.769-1.869 0.769-0.669 0-1.219-0.189-1.639-0.569z"></path>
</svg>
