<!-- Generated by IcoMoon.io -->
<svg version="1.1" xmlns="http://www.w3.org/2000/svg" width="16" height="16" viewBox="0 0 16 16">
<title>json</title>
<path d="M8.029 15.979c0.319-0.003 0.635-0.019 0.951-0.063 0.72-0.092 1.429-0.289 2.097-0.575 0.939-0.401 1.799-0.981 2.529-1.695 0.669-0.659 1.228-1.434 1.627-2.285 0.339-0.731 0.579-1.516 0.68-2.317 0.099-0.773 0.090-1.564-0.030-2.333-0.099-0.64-0.279-1.264-0.529-1.859-0.16-0.374-0.35-0.734-0.569-1.078-0.779-1.225-1.907-2.209-3.207-2.867-0.462-0.237-0.949-0.43-1.448-0.579h-0.003c0.079 0.042 0.16 0.088 0.23 0.134 0.080 0.049 0.159 0.097 0.234 0.15 0.379 0.257 0.729 0.551 1.039 0.887 0.709 0.763 1.198 1.699 1.479 2.694 0.189 0.655 0.289 1.332 0.33 2.011 0.029 0.495 0.029 0.994-0.031 1.486-0.099 0.847-0.369 1.673-0.819 2.397-0.33 0.535-0.76 1.013-1.269 1.389-0.829 0.619-1.918 0.988-2.957 0.743-0.169-0.041-0.34-0.097-0.499-0.172-0.181-0.083-0.36-0.185-0.519-0.299-0.31-0.207-0.59-0.457-0.829-0.737-0.29-0.347-0.529-0.741-0.699-1.165-0.209-0.537-0.319-1.115-0.329-1.693-0.020-0.849 0.15-1.702 0.569-2.447 0.28-0.496 0.659-0.931 1.109-1.279 0.15-0.119 0.309-0.222 0.469-0.319l0.011-0.005c-0.311-0.070-0.64-0.101-0.961-0.080-0.279 0.019-0.549 0.070-0.819 0.159-0.239 0.080-0.469 0.181-0.679 0.3-0.17 0.099-0.339 0.21-0.489 0.33-0.141 0.12-0.28 0.239-0.41 0.37-0.749 0.769-1.179 1.788-1.348 2.837-0.1 0.649-0.1 1.307-0.061 1.967 0.070 0.929 0.261 1.857 0.63 2.707 0.229 0.529 0.529 1.018 0.899 1.449 0.569 0.658 1.289 1.169 2.088 1.487 0.45 0.181 0.929 0.31 1.409 0.36 0.049 0.010 0.099 0.010 0.139 0.010zM6.073 15.713c-0.109-0.047-0.209-0.099-0.3-0.152-0.099-0.055-0.2-0.112-0.299-0.173-0.39-0.241-0.739-0.525-1.059-0.85-0.729-0.759-1.218-1.711-1.498-2.721-0.189-0.689-0.29-1.401-0.33-2.115-0.029-0.469-0.019-0.929 0.031-1.388 0.090-0.838 0.33-1.667 0.749-2.387 0.299-0.529 0.709-0.999 1.189-1.369 0.329-0.249 0.699-0.46 1.089-0.6 0.549-0.199 1.139-0.259 1.709-0.18 0.22 0.030 0.439 0.081 0.639 0.15 0.019 0 0.019 0 0.030 0.020 0.010 0.010 0.030 0.010 0.040 0.020 0.030 0.011 0.069 0.030 0.11 0.049 0.159 0.080 0.319 0.181 0.469 0.28 0.599 0.419 1.089 0.999 1.398 1.668 0.28 0.609 0.41 1.289 0.421 1.959 0.009 0.719-0.12 1.438-0.43 2.097-0.37 0.789-0.999 1.459-1.759 1.888 0.060 0.020 0.12 0.030 0.181 0.050 0.15 0.029 0.299 0.049 0.459 0.049 0.979 0.030 1.928-0.439 2.627-1.098 0.13-0.12 0.25-0.25 0.36-0.39 0.15-0.18 0.29-0.359 0.409-0.549 0.159-0.25 0.29-0.5 0.409-0.769 0.151-0.359 0.269-0.729 0.339-1.109 0.131-0.669 0.141-1.348 0.099-2.017-0.090-1.348-0.449-2.697-1.228-3.816-0.12-0.169-0.239-0.329-0.37-0.479-0.219-0.25-0.459-0.479-0.709-0.689-0.28-0.23-0.59-0.439-0.909-0.61-0.329-0.149-0.719-0.298-1.128-0.399l-0.2-0.040c-0.139-0.020-0.28-0.029-0.423-0.040-0.217-0.010-0.446-0.007-0.677 0.011-0.469 0.030-0.941 0.107-1.408 0.225-2.237 0.577-4.195 2.137-5.237 4.205-0.334 0.659-0.57 1.364-0.708 2.088-0.159 0.829-0.18 1.682-0.069 2.517 0.080 0.68 0.249 1.349 0.519 1.985 0.151 0.38 0.341 0.749 0.55 1.099 0.729 1.189 1.789 2.157 3.007 2.827 0.459 0.261 0.939 0.46 1.438 0.63 0.151 0.049 0.3 0.099 0.459 0.139z"></path>
</svg>
