<!-- Generated by IcoMoon.io -->
<svg version="1.1" xmlns="http://www.w3.org/2000/svg" width="16" height="16" viewBox="0 0 16 16">
<title>jupyter</title>
<path fill="#f37626" d="M8.133 12.067c-2.533 0-4.8-0.933-6-2.267 0.467 1.2 1.267 2.267 2.333 3s2.333 1.133 3.667 1.133 2.6-0.4 3.667-1.133 1.867-1.8 2.333-3c-1.2 1.333-3.467 2.267-6 2.267zM8.133 3.267c2.533 0 4.8 0.933 6 2.267-0.467-1.2-1.267-2.267-2.333-3-1.133-0.8-2.4-1.2-3.667-1.2-1.333 0-2.6 0.4-3.667 1.133-1.067 0.8-1.867 1.8-2.333 3.067 1.2-1.4 3.4-2.267 6-2.267zM12.8 0.067c-0.515 0-0.933 0.418-0.933 0.933s0.418 0.933 0.933 0.933v0c0.515 0 0.933-0.418 0.933-0.933s-0.418-0.933-0.933-0.933v0zM3.4 13.533c-0.663 0-1.2 0.537-1.2 1.2s0.537 1.2 1.2 1.2v0c0.663 0 1.2-0.537 1.2-1.2s-0.537-1.2-1.2-1.2v0zM2.4 1.533c-0.368 0-0.667 0.298-0.667 0.667s0.298 0.667 0.667 0.667v0c0.368 0 0.667-0.298 0.667-0.667s-0.298-0.667-0.667-0.667v0z"></path>
</svg>
