<!-- Generated by IcoMoon.io -->
<svg version="1.1" xmlns="http://www.w3.org/2000/svg" width="16" height="16" viewBox="0 0 16 16">
<title>kaios</title>
<path fill="#6f02b5" d="M2.98 0c-0.006-0-0.013-0-0.020-0-1.028 0-1.862 0.827-1.873 1.852l-0 0.001v12.287c0.004 1.028 0.838 1.86 1.867 1.86 0.009 0 0.019-0 0.028-0l-0.001 0c0.010 0 0.022 0 0.033 0 1.026 0 1.859-0.828 1.867-1.853v-12.294c-0.019-1.028-0.856-1.853-1.886-1.853-0.005 0-0.010 0-0.014 0h0.001zM9.247 5.693c-0.343-0.475-0.895-0.781-1.518-0.781-0.403 0-0.776 0.128-1.081 0.345l0.006-0.004c-0.481 0.325-0.793 0.869-0.793 1.485 0 0.394 0.127 0.758 0.343 1.053l-0.004-0.005 5.333 7.433c0.344 0.472 0.896 0.775 1.518 0.775 0.4 0 0.771-0.125 1.075-0.339l-0.006 0.004c0.482-0.325 0.795-0.869 0.795-1.486 0-0.37-0.113-0.715-0.306-1l0.004 0.006-0.040-0.060zM11.68 4.907c0.006 0 0.013 0 0.020 0 1.357 0 2.458-1.092 2.473-2.445l0-0.001c-0.015-1.355-1.117-2.447-2.473-2.447-0.007 0-0.014 0-0.021 0h0.001c-0.008-0-0.017-0-0.027-0-1.357 0-2.458 1.092-2.473 2.445l-0 0.001c0.015 1.355 1.117 2.447 2.473 2.447 0.009 0 0.019-0 0.028-0l-0.001 0z"></path>
</svg>
