<!-- Generated by IcoMoon.io -->
<svg version="1.1" xmlns="http://www.w3.org/2000/svg" width="16" height="16" viewBox="0 0 16 16">
<title>kaspersky</title>
<path fill="#009982" d="M7.208 8.007c0 0.606-0.37 0.893-0.833 0.893h-0.281v-0.367h0.261c0.28 0 0.467-0.149 0.467-0.53 0-0.375-0.177-0.561-0.475-0.561-0.287 0-0.491 0.176-0.491 0.553v1.523h-0.389v-2.391h0.386v0.207h0.053c0.116-0.153 0.297-0.252 0.502-0.252 0.006 0 0.011 0 0.017 0l-0.001-0c0.427 0 0.784 0.311 0.784 0.925zM4.672 7.849l-0.256-0.026c-0.202-0.018-0.308-0.073-0.308-0.191 0-0.14 0.137-0.22 0.331-0.22 0.201 0 0.331 0.096 0.341 0.23h0.37c-0.015-0.347-0.282-0.559-0.709-0.559-0.43 0-0.72 0.228-0.72 0.562 0 0.28 0.176 0.461 0.577 0.5l0.261 0.025c0.158 0.015 0.264 0.047 0.264 0.199 0 0.137-0.098 0.236-0.36 0.236-0.24 0-0.359-0.109-0.401-0.257h-0.401c0.038 0.333 0.32 0.593 0.801 0.593 0.453 0 0.746-0.239 0.746-0.593-0.003-0.307-0.207-0.468-0.539-0.499zM8.701 8.351c-0.059 0.14-0.204 0.244-0.411 0.244-0.281 0-0.491-0.185-0.491-0.581 0-0.377 0.193-0.588 0.497-0.588 0.269 0 0.422 0.16 0.437 0.404h-0.693v0.28h1.074v-0.183c0-0.511-0.339-0.842-0.82-0.842-0.448 0-0.878 0.307-0.878 0.929 0 0.624 0.43 0.929 0.877 0.929 0.409 0 0.704-0.253 0.795-0.593zM2.617 7.082c-0.422 0-0.738 0.221-0.777 0.559h0.414c0.029-0.124 0.142-0.217 0.36-0.217 0.279 0 0.37 0.147 0.37 0.327v0.605c-0.158 0.181-0.342 0.264-0.525 0.264-0.192 0-0.323-0.093-0.323-0.256 0-0.159 0.103-0.257 0.3-0.257h0.307v-0.277h-0.32c-0.441 0-0.689 0.221-0.689 0.559 0 0.316 0.237 0.554 0.631 0.554 0.22 0 0.414-0.088 0.56-0.193h0.053v0.149h0.386v-1.183c0.011-0.437-0.287-0.635-0.747-0.635zM0 8.899h0.386v-2.424h-0.386zM1.62 7.127h-0.471l-0.561 0.74v0.231l0.576 0.801h0.479l-0.677-0.918zM15.573 7.127l-0.315 0.701c-0.078 0.169-0.15 0.334-0.173 0.446h-0.055c-0.023-0.112-0.099-0.272-0.176-0.44l-0.316-0.707h-0.427l0.743 1.592-0.367 0.801h0.411l1.102-2.393zM14.026 7.127h-0.471l-0.561 0.738v0.23l0.577 0.802h0.479l-0.676-0.919zM11.608 7.849l-0.255-0.026c-0.203-0.018-0.308-0.073-0.308-0.191 0-0.14 0.137-0.22 0.331-0.22 0.201 0 0.331 0.096 0.341 0.231h0.37c-0.015-0.347-0.281-0.56-0.709-0.56-0.43 0-0.72 0.228-0.72 0.562 0 0.28 0.177 0.461 0.577 0.5l0.262 0.025c0.157 0.015 0.264 0.047 0.264 0.199 0 0.137-0.099 0.236-0.36 0.236-0.241 0-0.36-0.109-0.401-0.257h-0.402c0.039 0.333 0.321 0.593 0.803 0.593 0.453 0 0.745-0.239 0.745-0.593 0-0.307-0.207-0.468-0.539-0.499zM12.405 8.899h0.385v-2.425h-0.385zM9.859 7.333h-0.055v-0.207h-0.385v1.773h0.385v-0.927c0-0.315 0.145-0.499 0.435-0.499h0.243v-0.391h-0.142c-0.267 0-0.381 0.102-0.482 0.251z"></path>
</svg>
