<!-- Generated by IcoMoon.io -->
<svg version="1.1" xmlns="http://www.w3.org/2000/svg" width="16" height="16" viewBox="0 0 16 16">
<title>kentico</title>
<path fill="#f05a22" d="M0 0v16.667h16.667v-16.667zM9.667 5.867l2-2c0 0 1.467 0.867 0.6 1.733l-1.4 1.4c-0.8 0.733-1.933-0.4-1.2-1.133zM9.133 3.667v2c0 1-1.667 1-1.667 0v-2.8c0 0 1.667-0.4 1.667 0.8zM5.6 4.467l1.4 1.4c0.733 0.733-0.4 1.867-1.133 1.133l-2-2c0 0 0.867-1.4 1.733-0.533zM3.667 7.533h2c1 0 1 1.667 0 1.667h-2.8c0-0.067-0.4-1.667 0.8-1.667zM7 10.8l-2 2c0 0-1.467-0.867-0.6-1.733l1.4-1.4c0.8-0.733 1.933 0.4 1.2 1.133zM9.133 13.8c0 0-1.667 0.4-1.667-0.8v-2c0-1 1.667-1 1.667 0zM8.333 9.533c-0.667 0-1.2-0.533-1.2-1.2s0.533-1.2 1.2-1.2 1.2 0.533 1.2 1.2-0.533 1.2-1.2 1.2zM11.067 12.2l-1.4-1.4c-0.733-0.733 0.4-1.867 1.133-1.133l2 2c0 0-0.867 1.4-1.733 0.533zM13 9.133h-2c-1 0-1-1.667 0-1.667h2.8c0 0.067 0.4 1.667-0.8 1.667z"></path>
</svg>
