<!-- Generated by IcoMoon.io -->
<svg version="1.1" xmlns="http://www.w3.org/2000/svg" width="16" height="16" viewBox="0 0 16 16">
<title>keybase</title>
<path fill="#33a0ff" d="M6.964 14.247c0 0.352-0.285 0.635-0.636 0.635s-0.636-0.283-0.636-0.635c0-0.351 0.285-0.636 0.635-0.636s0.634 0.287 0.634 0.637zM10.909 14.247c0 0.352-0.285 0.635-0.637 0.635s-0.635-0.283-0.635-0.635c0-0.351 0.282-0.636 0.633-0.636s0.636 0.287 0.636 0.637zM13.936 8.142l-0.104-0.136c-0.031-0.040-0.064-0.077-0.095-0.117-0.030-0.041-0.063-0.075-0.094-0.113-0.069-0.080-0.139-0.159-0.213-0.239l-0.051-0.053-0.061-0.066-0.090-0.087c-0.010-0.012-0.021-0.023-0.033-0.035-0.773-0.759-1.67-1.324-2.637-1.669l-0.153-0.052c0.008-0.018 0.016-0.037 0.023-0.055 0.273-0.709 0.245-1.482-0.080-2.17-0.327-0.69-0.904-1.2-1.625-1.44-0.437-0.144-0.82-0.213-1.141-0.203-0.022-0.070-0.067-0.385 0.331-1.232l-0.805-0.473-0.191 0.266c-0.22 0.303-0.432 0.597-0.63 0.885-0.219-0.23-0.511-0.368-0.83-0.387l-0.939-0.057c-0.022-0.002-0.047-0.002-0.069-0.002-0.66 0-1.207 0.514-1.247 1.17l-0.059 0.935v0.002c-0.041 0.686 0.485 1.277 1.17 1.319l0.668 0.041c-0.043 0.56 0.049 1.080 0.27 1.537-0.897 0.375-1.724 0.934-2.44 1.656-2.203 2.229-2.203 4.669-2.203 6.631v1.183l0.87-0.925c0.177 0.62 0.435 1.205 0.763 1.743h1.131c-0.555-0.743-0.946-1.617-1.12-2.565l1.275-1.353-0.657 2.061 1.16-0.845c2.050-1.489 4.496-1.833 7.273-1.019 1.203 0.355 2.373 0.026 2.982-0.838l0.069-0.11c0.061 0.332 0.094 0.665 0.094 0.997 0 1.042-0.17 2.458-0.92 3.675h1.074c0.517-1.042 0.787-2.288 0.787-3.675-0.001-1.466-0.524-2.947-1.456-4.183zM5.929 4.127c0.082-0.668 0.385-1.299 0.82-1.98 0.017 0.033 0.036 0.065 0.056 0.096 0.176 0.265 0.475 0.417 0.799 0.403 0.145-0.005 0.403 0.017 0.822 0.155 0.476 0.157 0.857 0.496 1.072 0.95s0.233 0.961 0.053 1.433c-0.115 0.297-0.303 0.547-0.537 0.739l-0.272-0.335-0.001-0.002c-0.186-0.227-0.463-0.357-0.756-0.357-0.223 0-0.443 0.078-0.617 0.22-0.223 0.18-0.343 0.44-0.356 0.705-0.8-0.361-1.2-1.095-1.085-2.027zM8.799 7.534l-0.346 0.283c-0.031 0.024-0.063 0.035-0.097 0.035-0.044 0-0.089-0.020-0.118-0.057l-0.074-0.090c-0.055-0.067-0.045-0.167 0.023-0.223l0.34-0.28-0.703-0.866c-0.073-0.089-0.061-0.22 0.029-0.291 0.039-0.032 0.084-0.048 0.129-0.048 0.061 0 0.121 0.025 0.16 0.075l1.975 2.43c0.073 0.090 0.060 0.22-0.028 0.291-0.026 0.019-0.055 0.035-0.084 0.042-0.015 0.004-0.030 0.006-0.047 0.006-0.060 0-0.119-0.027-0.16-0.075l-0.197-0.243-0.697 0.569c-0.031 0.025-0.067 0.037-0.103 0.037-0.045 0-0.093-0.020-0.124-0.060l-0.318-0.386c-0.055-0.068-0.045-0.168 0.023-0.224l0.701-0.571-0.284-0.355zM5.169 3.244l-0.797-0.050c-0.17-0.010-0.3-0.157-0.29-0.325l0.060-0.934c0.009-0.163 0.144-0.291 0.307-0.291h0.016l0.934 0.061c0.082 0.004 0.157 0.040 0.211 0.101 0.055 0.063 0.082 0.14 0.077 0.224l-0.005 0.067c-0.213 0.378-0.39 0.756-0.515 1.147zM13.518 10.898c-0.377 0.537-1.125 0.721-1.949 0.479-2.591-0.761-4.931-0.602-6.979 0.467l1.091-3.415-3.527 3.739c0.066-2.508 1.635-4.644 3.839-5.541 0.314 0.249 0.689 0.44 1.115 0.561 0.107 0.029 0.215 0.049 0.32 0.068-0.122 0.305-0.079 0.665 0.14 0.938l0.050 0.060c-0.115 0.3-0.070 0.65 0.147 0.916l0.317 0.388c0.177 0.217 0.439 0.342 0.719 0.342 0.214 0 0.423-0.074 0.591-0.209l0.19-0.155c0.116 0.049 0.245 0.075 0.377 0.075 0.075 0 0.148-0.007 0.22-0.023 0.145-0.033 0.283-0.1 0.399-0.194 0.415-0.34 0.48-0.957 0.139-1.373l-1.113-1.371c0.097-0.078 0.187-0.163 0.272-0.254 0.090 0.025 0.181 0.052 0.267 0.080 0.177 0.065 0.355 0.132 0.53 0.21 0.67 0.297 1.303 0.733 1.847 1.265 0.019 0.020 0.039 0.037 0.057 0.055l0.113 0.117c0.025 0.026 0.051 0.053 0.074 0.080 0.053 0.057 0.107 0.117 0.159 0.178l0.084 0.1c0.030 0.035 0.057 0.069 0.087 0.107l0.076 0.1c0.027 0.034 0.053 0.068 0.078 0.103 0.559 0.766 0.658 1.553 0.269 2.105zM5.146 2.743l-0.557-0.034 0.035-0.557 0.556 0.034z"></path>
</svg>
