<!-- Generated by IcoMoon.io -->
<svg version="1.1" xmlns="http://www.w3.org/2000/svg" width="16" height="16" viewBox="0 0 16 16">
<title>keycdn</title>
<path fill="#3686be" d="M1.537 12.71c0.151 0.007 0.303 0.027 0.445 0.080v-0.002l0.021 0.008 1.873-1.827 0.068 0.091c0.097 0.133 0.2 0.253 0.309 0.373l0.040 0.045c0.029 0.029 0.051 0.057 0.080 0.087l0.217 0.217 0.051 0.047 0.047 0.040c0.87 0.738 1.958 1.156 3.103 1.185 0.945 0.023 1.867-0.217 2.673-0.693l0.144 0.149c0.167 0.177 0.338 0.355 0.504 0.533-0.997 0.64-2.153 0.961-3.345 0.933-1.34-0.035-2.617-0.516-3.642-1.375l0.007-0.011-1.202 1.185c0.045 0.14 0.062 0.287 0.064 0.433 0 0.828-0.671 1.499-1.498 1.499s-1.497-0.673-1.497-1.501c0-0.827 0.67-1.497 1.497-1.497zM12.987 4.985c0.59 0.968 0.882 2.085 0.853 3.219-0.033 1.387-0.555 2.709-1.472 3.745l0.007 0.007 0.738 0.784c0.297-0.040 0.595 0.063 0.801 0.28 0.349 0.372 0.338 0.957-0.035 1.311-0.372 0.349-0.957 0.338-1.311-0.035-0.207-0.217-0.292-0.521-0.235-0.813-0.343-0.367-0.95-1.013-1.3-1.38l-0.073-0.080 0.085-0.069c0.223-0.177 0.429-0.372 0.619-0.59 0.785-0.882 1.225-2.004 1.253-3.184 0.023-0.893-0.189-1.769-0.618-2.542zM2.552 1.484c0.263-0.004 0.51 0.1 0.693 0.288 0.207 0.217 0.293 0.521 0.235 0.813l1.419 1.488-0.085 0.069c-0.223 0.177-0.429 0.372-0.619 0.59-0.785 0.881-1.225 2.003-1.26 3.183-0.023 0.893 0.189 1.769 0.619 2.548l-0.681 0.664c-0.595-0.973-0.893-2.090-0.859-3.235 0.029-1.379 0.567-2.711 1.469-3.748l-0.782-0.815c-0.298 0.040-0.595-0.063-0.802-0.28-0.349-0.373-0.338-0.957 0.035-1.312 0.145-0.136 0.331-0.223 0.529-0.247 0.029-0.004 0.060-0.005 0.088-0.007zM14.502 0.295c0.827 0 1.498 0.671 1.498 1.499s-0.671 1.497-1.498 1.497c-0.16 0.002-0.316-0.027-0.467-0.075l-0.001 0.001-0.022-0.008-2.033 1.93-0.068-0.092c-0.109-0.143-0.229-0.287-0.355-0.418l-0.023-0.029-0.177-0.177-0.080-0.069-0.051-0.047-0.040-0.033-0.051-0.047c-0.865-0.727-1.947-1.14-3.080-1.168-0.945-0.022-1.867 0.213-2.669 0.693l-0.653-0.681c0.997-0.641 2.153-0.962 3.345-0.933 1.34 0.035 2.618 0.515 3.643 1.38h0.011l1.347-1.278c-0.047-0.144-0.067-0.295-0.069-0.447 0-0.828 0.671-1.499 1.495-1.499zM7.973 3.639c0.169 0 0.338 0.013 0.507 0.033 2.416 0.303 4.128 2.508 3.831 4.925-0.303 2.417-2.508 4.129-4.925 3.831-2.417-0.303-4.129-2.508-3.832-4.925 0.288-2.242 2.172-3.857 4.419-3.865zM7.907 5.532c-0.977 0.077-1.685 0.817-1.711 1.8 0.018 0.702 0.377 1.293 1.003 1.617l-0.341 1.6h2.282l-0.34-1.6c0.623-0.338 0.993-0.897 1.003-1.615-0.013-1.015-0.799-1.779-1.804-1.804zM7.941 5.521h-0.007z"></path>
</svg>
