<!-- Generated by IcoMoon.io -->
<svg version="1.1" xmlns="http://www.w3.org/2000/svg" width="16" height="16" viewBox="0 0 16 16">
<title>khanacademy</title>
<path fill="#14bf96" d="M14.483 3.315l-5.537-3.097c-0.275-0.138-0.599-0.218-0.943-0.218s-0.668 0.081-0.955 0.224l0.012-0.006-5.543 3.097c-0.539 0.345-0.902 0.926-0.942 1.593l-0 0.006v6.171c0.040 0.674 0.403 1.255 0.935 1.595l0.008 0.005 5.537 3.097c0.275 0.138 0.599 0.219 0.943 0.219s0.668-0.081 0.955-0.224l-0.012 0.006 5.543-3.097c0.54-0.345 0.902-0.926 0.942-1.594l0-0.006v-6.169c-0.040-0.674-0.403-1.255-0.935-1.595l-0.008-0.005zM8 3.281c0 0 0 0 0 0 0.947 0 1.714 0.768 1.714 1.714s-0.767 1.714-1.714 1.714h-0c-0 0-0 0-0 0-0.947 0-1.714-0.768-1.714-1.714s0.767-1.714 1.714-1.714h0zM10.063 12.365c-0.615 0.231-1.326 0.365-2.068 0.366h-0c-0.736-0.001-1.441-0.136-2.092-0.38l0.041 0.014c-2.156-0.833-3.657-2.889-3.657-5.295 0-0.010 0-0.021 0-0.031v0.002-0.571c3.097 0.011 5.383 2.549 5.383 5.673v0.132h0.617v-0.131c0-3.125 2.297-5.673 5.371-5.673 0.017 0.193 0.029 0.388 0.057 0.571 0 0.008 0 0.018 0 0.028 0 2.405-1.498 4.461-3.613 5.284l-0.039 0.013z"></path>
</svg>
