<!-- Generated by IcoMoon.io -->
<svg version="1.1" xmlns="http://www.w3.org/2000/svg" width="16" height="16" viewBox="0 0 16 16">
<title>kickstarter</title>
<path fill="#2bde73" d="M6.403 5.453l2.933-4.253c0.556-0.8 1.271-1.2 2.151-1.2 0.715 0 1.335 0.254 1.859 0.763 0.522 0.51 0.784 1.117 0.784 1.825 0 0.523-0.138 0.986-0.416 1.386l-2.645 3.846 3.235 4.102c0.323 0.408 0.485 0.887 0.485 1.433 0 0.724-0.254 1.345-0.763 1.865-0.508 0.519-1.124 0.779-1.847 0.779-0.793 0-1.398-0.258-1.814-0.773l-3.962-4.945v2.726c0 0.779-0.135 1.383-0.405 1.815-0.491 0.785-1.202 1.177-2.142 1.177-0.855 0-1.517-0.291-1.986-0.866-0.44-0.533-0.66-1.237-0.66-2.115v-10.109c0-0.83 0.224-1.516 0.669-2.055 0.465-0.569 1.112-0.855 1.937-0.855 0.786 0 1.44 0.285 1.964 0.855 0.292 0.317 0.477 0.635 0.554 0.96 0.047 0.2 0.070 0.572 0.070 1.12v2.519z"></path>
</svg>
