<!-- Generated by IcoMoon.io -->
<svg version="1.1" xmlns="http://www.w3.org/2000/svg" width="16" height="16" viewBox="0 0 16 16">
<title>kik</title>
<path fill="#82bc23" d="M7.655 11.168c-0.007 0.459-0.373 0.828-0.825 0.828-0.459 0-0.82-0.361-0.829-0.82h-0.011v-4.162h0.011v-0.019c0-0.462 0.371-0.837 0.825-0.837s0.824 0.375 0.824 0.839v0.030h0.011v4.15h-0.011zM15.079 7.909c0.5 0 0.921 0.412 0.921 0.918s-0.421 0.917-0.921 0.917c-0.511 0-0.93-0.41-0.93-0.919 0-0.511 0.41-0.921 0.919-0.921zM13.69 10.699c0.081 0.13 0.129 0.288 0.129 0.457 0 0.469-0.369 0.84-0.829 0.84-0.309 0-0.579-0.171-0.72-0.421l-1.369-1.831-0.421 0.391v1.090h-0.009c-0.026 0.435-0.38 0.779-0.817 0.779-0.449 0-0.814-0.369-0.814-0.825v-0.017h-0.011v-6.3h0.018v-0.031c0-0.46 0.367-0.835 0.82-0.835 0.449 0 0.817 0.375 0.817 0.835v0.047h0.011l0.007 3.065 1.541-1.507c0.153-0.17 0.373-0.27 0.619-0.27 0.459 0 0.832 0.38 0.832 0.84 0 0.231-0.089 0.431-0.229 0.581l0.008 0.010-1.081 1.070 1.521 2.041-0.011 0.011zM4.859 10.699c0.080 0.13 0.13 0.288 0.13 0.457 0 0.469-0.37 0.84-0.829 0.84-0.311 0-0.581-0.171-0.721-0.421l-1.369-1.831-0.42 0.391v1.087h-0.010c-0.024 0.436-0.38 0.78-0.814 0.78-0.451 0-0.817-0.37-0.817-0.825v-0.018h-0.009v-6.3h0.021c-0.003-0.010-0.003-0.019-0.003-0.029 0-0.46 0.367-0.835 0.82-0.835 0.45 0 0.817 0.373 0.817 0.833v0.047h0.011l0.007 3.067 1.541-1.507c0.153-0.17 0.375-0.27 0.621-0.27 0.458 0 0.83 0.38 0.83 0.84 0 0.22-0.087 0.431-0.231 0.581l0.011 0.010-1.085 1.070 1.514 2.041-0.011 0.011z"></path>
</svg>
