<!-- Generated by IcoMoon.io -->
<svg version="1.1" xmlns="http://www.w3.org/2000/svg" width="16" height="16" viewBox="0 0 16 16">
<title>known</title>
<path d="M16 8c0 4.4-3.6 8-8 8s-8-3.6-8-8 3.6-8 8-8 8 3.6 8 8zM8 1.2c-3.8 0-6.8 3-6.8 6.8s3 6.8 6.8 6.8 6.8-3 6.8-6.8-3-6.8-6.8-6.8zM11.733 4.8l-0.133 0.133c0.067-0.067 0.2-0.133 0.267-0.133zM11.867 4.8h0.333v-1.267h-3.667v1.267h0.6c0.133 0 0.2 0.067 0.2 0.2 0 0.067 0 0.133-0.067 0.133l-2.533 2.533h-0.067c-0.067 0-0.133-0.067-0.133-0.133v-2.267c0-0.267 0.2-0.467 0.467-0.467h0.533v-1.267h-3.933v1.267h0.467c0.267 0 0.467 0.2 0.467 0.467v5.6c0 0.267-0.2 0.467-0.467 0.467h-0.467v1.333h3.933v-1.333h-0.533c-0.267 0-0.467-0.2-0.467-0.467v-0.933c0-0.067 0-0.133 0.067-0.2l1-1c0 0 0.067-0.067 0.133-0.067s0.133 0 0.133 0.067l1.4 2.2v0.133c0 0.133-0.067 0.2-0.2 0.2h-0.6v1.333h4.2v-1.333h-0.467c-0.133 0-0.267-0.067-0.333-0.2v-0.067l-2.467-3.667c0-0.067-0.067-0.067-0.067-0.133s0-0.133 0.067-0.133l2.133-2.133c0.133-0.133 0.2-0.133 0.333-0.133z"></path>
</svg>
