<!-- Generated by IcoMoon.io -->
<svg version="1.1" xmlns="http://www.w3.org/2000/svg" width="16" height="16" viewBox="0 0 16 16">
<title>ko-fi</title>
<path fill="#f16061" d="M15.921 5.965c-0.515-2.723-3.239-3.062-3.239-3.062h-12.199c-0.403 0-0.453 0.532-0.453 0.532s-0.055 4.883-0.015 7.881c0.109 1.616 1.724 1.781 1.724 1.781s5.511-0.015 7.977-0.033c1.625-0.284 1.789-1.711 1.772-2.489 2.901 0.16 4.948-1.887 4.433-4.611zM8.546 8.306c-0.831 0.969-2.674 2.651-2.674 2.651s-0.081 0.079-0.207 0.015c-0.051-0.038-0.072-0.060-0.072-0.060-0.295-0.294-2.245-2.033-2.689-2.636-0.473-0.643-0.694-1.8-0.061-2.473s2.003-0.724 2.909 0.271c0 0 1.043-1.188 2.312-0.642s1.221 2.007 0.482 2.874zM12.661 8.625c-0.619 0.077-1.121 0.019-1.121 0.019v-3.787h1.18c0 0 1.314 0.367 1.314 1.759 0 1.275-0.657 1.778-1.373 2.010z"></path>
</svg>
