<!-- Generated by IcoMoon.io -->
<svg version="1.1" xmlns="http://www.w3.org/2000/svg" width="16" height="16" viewBox="0 0 16 16">
<title>kodi</title>
<path fill="#17b2e7" d="M8.020 0.031c-0.151 0-0.301 0.071-0.446 0.216-0.615 0.615-1.228 1.23-1.842 1.845-0.155 0.155-0.303 0.32-0.469 0.463-0.207 0.178-0.27 0.389-0.266 0.659 0.013 0.933 0.005 1.866 0.005 2.799 0 0.969-0.001 1.938 0 2.907 0 0.073 0.001 0.149 0.020 0.218 0.058 0.225 0.202 0.262 0.364 0.1 0.873-0.873 1.745-1.748 2.619-2.622l2.966-2.969c0.287-0.287 0.287-0.603 0-0.891l-2.507-2.51c-0.144-0.145-0.295-0.216-0.445-0.215zM12.836 4.851c-0.149 0-0.297 0.069-0.433 0.206l-2.523 2.523c-0.285 0.286-0.285 0.597 0 0.881l2.507 2.511c0.293 0.293 0.605 0.293 0.897 0.001 0.81-0.811 1.618-1.622 2.429-2.431 0.121-0.12 0.235-0.243 0.287-0.41v-0.22c-0.051-0.167-0.164-0.291-0.285-0.411-0.816-0.813-1.629-1.63-2.444-2.445-0.137-0.137-0.286-0.205-0.435-0.204zM2.787 5.074c-0.057 0.009-0.097 0.063-0.138 0.105l-2.509 2.536c-0.187 0.189-0.185 0.451 0.003 0.64l1.362 1.364c0.393 0.393 0.785 0.788 1.178 1.181 0.113 0.112 0.22 0.093 0.277-0.056 0.029-0.076 0.041-0.161 0.042-0.243 0.003-0.855 0.003-1.711 0.003-2.567h-0.001v-2.578c0-0.057-0.007-0.113-0.015-0.168-0.013-0.090-0.048-0.172-0.138-0.206-0.014-0.006-0.030-0.009-0.047-0.009-0.006 0-0.012 0-0.017 0.001l0.001-0zM8.059 9.633c-0.149 0-0.298 0.071-0.437 0.21l-2.515 2.515c-0.289 0.289-0.289 0.599 0.001 0.889 0.81 0.811 1.62 1.62 2.429 2.433 0.12 0.12 0.241 0.236 0.407 0.289h0.22c0.163-0.046 0.282-0.151 0.399-0.268 0.815-0.82 1.633-1.635 2.451-2.453 0.287-0.287 0.285-0.603-0.003-0.892l-2.515-2.515c-0.139-0.139-0.288-0.207-0.437-0.207z"></path>
</svg>
