<!-- Generated by IcoMoon.io -->
<svg version="1.1" xmlns="http://www.w3.org/2000/svg" width="16" height="16" viewBox="0 0 16 16">
<title>krita</title>
<path fill="#3babff" d="M0.435 0.507c-0.001 0-0.001 0-0.002 0-0.135 0-0.254 0.064-0.331 0.163l-0.001 0.001c-0.235 0.299-0.023 0.599 0.241 0.841 0.137 0.126 1.18 1.196 2.285 2.351 0.358-0.498 0.756-0.932 1.2-1.314l0.010-0.008c-1.393-0.865-2.709-1.697-2.864-1.808-0.173-0.124-0.363-0.225-0.539-0.227zM3.838 2.541c1.232 0.765 2.524 1.555 3.129 1.893 0.979 0.547 2.505 1.789 2.728 2.956 0.357 0.311 1.455 1.277 1.731 1.609 0.465-0.141 1.012 0.089 1.373 0.747 0.577 1.055 0.151 2.498-1.312 3.325-0.061 0.060-0.126 0.118-0.192 0.174l-0.005 0.005 0.197-0.178c0.76-0.979-0.476-1.627-0.783-2.576-0.048-0.134-0.075-0.288-0.075-0.448 0-0.025 0.001-0.050 0.002-0.075l-0 0.003c-0.355-0.188-1.407-0.968-1.863-1.31-1.201 0.107-2.805-1.182-3.567-2.053-0.467-0.535-1.547-1.678-2.572-2.749-0.851 1.184-1.362 2.663-1.364 4.262v0c0 4.069 3.299 7.368 7.368 7.368s7.368-3.299 7.368-7.368c0-4.069-3.299-7.368-7.368-7.368v0c-1.76 0.003-3.46 0.636-4.794 1.784zM9.645 7.576c-0.343 0.084-0.645 0.554-0.745 0.871-0.025 0.077-0.027 0.202 0.044 0.228 0.535 0.395 1.037 0.779 1.6 1.133 0.108-0.262 0.497-0.642 0.731-0.8zM1.958 8.669c0.541 1.265 3.865 4.78 8.040 1.797-0 0.007-0 0.016-0 0.024 0 0.162 0.028 0.318 0.079 0.462l-0.003-0.010c0.307 0.947 1.573 1.618 0.825 2.593-1.423 0.909-3.333 0.801-4.659 0.352-2.372-0.803-3.943-2.888-4.282-5.219zM11.146 9.135c-0.016 0.011-0.031 0.022-0.044 0.033l0.001-0.001c-0.003 0.002-0.005 0.005-0.007 0.005 0.002-0.002 0.005-0.005 0.007-0.005 0.016-0.010 0.029-0.023 0.044-0.033z"></path>
</svg>
