<!-- Generated by IcoMoon.io -->
<svg version="1.1" xmlns="http://www.w3.org/2000/svg" width="16" height="16" viewBox="0 0 16 16">
<title>kubernetes</title>
<path fill="#326ce5" d="M6.803 9.567l0.005 0.007-0.666 1.609c-0.633-0.41-1.116-1.005-1.376-1.707l-0.008-0.024 1.719-0.291 0.003 0.003c0.016-0.003 0.035-0.005 0.054-0.005 0.162 0 0.293 0.131 0.293 0.293 0 0.042-0.009 0.082-0.024 0.118l0.001-0.002zM6.247 8.147c0.125-0.035 0.216-0.148 0.216-0.283 0-0.088-0.039-0.167-0.1-0.221l-0-0 0.001-0.007-1.307-1.169c-0.318 0.511-0.507 1.131-0.507 1.795 0 0.132 0.007 0.263 0.022 0.391l-0.001-0.016 1.676-0.483zM7.011 6.827c0.048 0.035 0.108 0.056 0.173 0.056 0.158 0 0.286-0.124 0.293-0.28l0-0.001 0.007-0.003 0.1-1.747c-0.788 0.095-1.481 0.444-2.007 0.962l0-0 1.431 1.015zM7.517 8.661l0.482 0.233 0.481-0.231 0.12-0.52-0.333-0.415h-0.536l-0.333 0.415zM8.517 6.597c0.007 0.157 0.135 0.281 0.293 0.281 0.065 0 0.126-0.021 0.174-0.057l-0.001 0.001 0.005 0.002 1.423-1.009c-0.524-0.513-1.212-0.862-1.977-0.96l-0.017-0.002 0.099 1.743zM15.768 10.577l-3.849 4.787c-0.197 0.242-0.495 0.396-0.829 0.396-0.001 0-0.002 0-0.003 0l-6.174 0.002c-0 0-0.001 0-0.001 0-0.335 0-0.633-0.154-0.829-0.395l-0.002-0.002-3.851-4.787c-0.144-0.179-0.231-0.409-0.231-0.659 0-0.083 0.010-0.164 0.028-0.242l-0.001 0.007 1.373-5.97c0.072-0.313 0.283-0.576 0.575-0.715l5.561-2.658c0.135-0.066 0.294-0.105 0.462-0.105s0.327 0.039 0.468 0.107l-0.006-0.003 5.563 2.657c0.292 0.139 0.503 0.403 0.575 0.715l1.375 5.97c0.072 0.313-0.003 0.642-0.205 0.893zM13.575 9.206c-0.028-0.007-0.069-0.017-0.097-0.023-0.116-0.022-0.21-0.017-0.319-0.025-0.233-0.025-0.425-0.045-0.597-0.099-0.070-0.027-0.12-0.11-0.144-0.144l-0.134-0.039c0.026-0.176 0.040-0.38 0.040-0.587 0-0.343-0.040-0.677-0.116-0.997l0.006 0.029c-0.128-0.548-0.343-1.030-0.634-1.457l0.010 0.015c0.035-0.031 0.1-0.089 0.118-0.106 0.005-0.060 0.001-0.122 0.063-0.188 0.131-0.123 0.296-0.225 0.495-0.348 0.095-0.056 0.182-0.091 0.277-0.161 0.021-0.016 0.051-0.041 0.073-0.059 0.16-0.127 0.197-0.347 0.082-0.491s-0.337-0.157-0.497-0.030c-0.023 0.018-0.053 0.041-0.074 0.059-0.089 0.077-0.145 0.153-0.22 0.233-0.164 0.167-0.3 0.305-0.449 0.406-0.065 0.037-0.159 0.025-0.202 0.022l-0.127 0.090c-0.707-0.741-1.67-1.233-2.747-1.334l-0.017-0.001-0.008-0.149c-0.043-0.041-0.095-0.077-0.109-0.167-0.015-0.179 0.010-0.371 0.038-0.603 0.015-0.109 0.041-0.199 0.045-0.317 0.001-0.027-0.001-0.066-0.001-0.095 0-0.204-0.149-0.37-0.333-0.37s-0.333 0.166-0.333 0.37l0.001 0.009c0 0.027-0.001 0.061 0 0.085 0.004 0.118 0.029 0.208 0.045 0.317 0.028 0.232 0.052 0.425 0.037 0.604-0.020 0.069-0.058 0.127-0.108 0.172l-0 0-0.008 0.141c-1.101 0.091-2.071 0.585-2.775 1.333l-0.002 0.002c-0.058-0.040-0.097-0.068-0.135-0.096l0.015 0.011c-0.060 0.008-0.12 0.027-0.198-0.019-0.149-0.1-0.285-0.239-0.449-0.405-0.075-0.080-0.13-0.156-0.219-0.233-0.020-0.017-0.051-0.041-0.074-0.059-0.063-0.051-0.143-0.084-0.231-0.088l-0.001-0c-0.005-0-0.011-0-0.017-0-0.1 0-0.189 0.046-0.248 0.117l-0 0.001c-0.115 0.144-0.078 0.364 0.082 0.491l0.005 0.003 0.069 0.055c0.095 0.070 0.181 0.106 0.276 0.161 0.199 0.123 0.364 0.225 0.495 0.348 0.051 0.055 0.060 0.151 0.067 0.192l0.107 0.095c-0.454 0.672-0.724 1.499-0.724 2.39 0 0.217 0.016 0.429 0.047 0.637l-0.003-0.024-0.139 0.040c-0.037 0.048-0.089 0.123-0.143 0.145-0.171 0.054-0.364 0.073-0.597 0.098-0.109 0.009-0.203 0.004-0.32 0.026-0.025 0.005-0.060 0.013-0.089 0.020l-0.003 0.001-0.005 0.001c-0.197 0.047-0.323 0.228-0.282 0.405s0.233 0.286 0.43 0.243l0.005-0.001 0.007-0.002 0.086-0.019c0.113-0.031 0.196-0.075 0.299-0.115 0.22-0.079 0.403-0.145 0.58-0.171 0.075-0.006 0.153 0.046 0.192 0.067l0.145-0.025c0.338 1.024 1.017 1.858 1.9 2.386l0.020 0.011-0.060 0.145c0.022 0.056 0.046 0.133 0.029 0.188-0.065 0.168-0.175 0.345-0.301 0.542-0.061 0.091-0.123 0.161-0.179 0.266-0.013 0.025-0.030 0.063-0.043 0.089-0.085 0.183-0.023 0.394 0.142 0.473s0.371-0.005 0.46-0.188v-0.001c0.013-0.026 0.031-0.060 0.041-0.085 0.047-0.108 0.063-0.201 0.096-0.305 0.088-0.221 0.137-0.453 0.258-0.598 0.033-0.040 0.087-0.055 0.143-0.070l0.075-0.137c0.459 0.182 0.99 0.288 1.547 0.288 0.548 0 1.073-0.103 1.555-0.29l-0.029 0.010 0.071 0.128c0.057 0.019 0.12 0.028 0.171 0.103 0.091 0.155 0.153 0.338 0.228 0.56 0.033 0.104 0.049 0.197 0.097 0.305 0.011 0.025 0.029 0.060 0.041 0.086 0.089 0.184 0.295 0.268 0.46 0.188 0.165-0.079 0.227-0.29 0.142-0.473-0.013-0.026-0.030-0.064-0.043-0.089-0.055-0.104-0.118-0.174-0.179-0.265-0.127-0.197-0.231-0.361-0.295-0.529-0.027-0.087 0.005-0.14 0.025-0.196-0.012-0.015-0.039-0.096-0.055-0.135 0.906-0.543 1.586-1.384 1.911-2.384l0.009-0.031c0.043 0.007 0.117 0.020 0.142 0.025 0.050-0.033 0.096-0.076 0.187-0.069 0.177 0.026 0.36 0.092 0.58 0.171 0.103 0.040 0.185 0.085 0.299 0.115 0.024 0.007 0.059 0.013 0.087 0.019l0.006 0.002 0.005 0.001c0.198 0.043 0.389-0.065 0.43-0.243s-0.085-0.358-0.282-0.405zM10.933 6.467l-1.3 1.164v0.003c-0.062 0.054-0.101 0.133-0.101 0.222 0 0.135 0.091 0.248 0.214 0.283l0.002 0 0.002 0.007 1.684 0.485c0.011-0.101 0.017-0.219 0.017-0.338 0-0.276-0.032-0.544-0.093-0.802l0.005 0.024c-0.092-0.397-0.24-0.747-0.438-1.063l0.009 0.015zM8.258 10.017c-0.050-0.093-0.146-0.155-0.257-0.155-0.004 0-0.008 0-0.013 0l0.001-0c-0.107 0.004-0.199 0.065-0.247 0.154l-0.001 0.002h-0.001l-0.845 1.528c0.331 0.117 0.714 0.184 1.112 0.184 0.396 0 0.776-0.067 1.13-0.19l-0.024 0.007-0.847-1.531zM9.517 9.155c-0.016-0.003-0.034-0.005-0.053-0.005-0.046 0-0.090 0.011-0.129 0.030l0.002-0.001c-0.1 0.048-0.167 0.149-0.167 0.265 0 0.042 0.009 0.082 0.025 0.119l-0.001-0.002-0.002 0.003 0.673 1.625c0.637-0.411 1.122-1.011 1.38-1.719l0.008-0.024-1.733-0.293z"></path>
</svg>
