<!-- Generated by IcoMoon.io -->
<svg version="1.1" xmlns="http://www.w3.org/2000/svg" width="16" height="16" viewBox="0 0 16 16">
<title>laravelnova</title>
<path d="M14.222 2.879c-3.182-2.622-7.92-2.458-10.907 0.492-0.932 0.916-1.51 2.191-1.51 3.6s0.578 2.684 1.509 3.599l0.001 0.001c2.012 1.988 5.275 1.988 7.287 0 0.399-0.393 0.647-0.939 0.647-1.543s-0.247-1.15-0.646-1.542l-0-0c-0.402-0.395-0.953-0.639-1.562-0.639s-1.16 0.244-1.562 0.639l0-0c-0.134 0.132-0.318 0.213-0.52 0.213s-0.386-0.081-0.52-0.213l0 0c-0.133-0.131-0.216-0.313-0.216-0.514s0.082-0.383 0.215-0.514l0-0c0.67-0.658 1.589-1.065 2.603-1.065s1.933 0.406 2.603 1.065l-0.001-0c0.666 0.655 1.078 1.565 1.078 2.571s-0.412 1.917-1.078 2.571l-0.001 0c-2.587 2.556-6.783 2.556-9.37 0-1.198-1.178-1.941-2.816-1.941-4.628 0-1.807 0.738-3.441 1.93-4.618l0.001-0.001c1.467-1.453 3.495-2.353 5.736-2.353 2.5 0 4.737 1.12 6.222 2.879zM13.746 13.637c-1.468 1.461-3.493 2.363-5.728 2.363-0.006 0-0.013 0-0.019-0h0.001c-0.006 0-0.013 0-0.020 0-2.482 0-4.703-1.113-6.193-2.868l-0.010-0.012c3.181 2.622 7.92 2.458 10.907-0.492 0.932-0.916 1.51-2.191 1.51-3.6s-0.578-2.684-1.509-3.599l-0.001-0.001c-2.012-1.988-5.275-1.988-7.287 0-0.399 0.393-0.647 0.939-0.647 1.543s0.247 1.15 0.646 1.542l0 0c0.402 0.395 0.953 0.639 1.562 0.639s1.16-0.244 1.562-0.639l-0 0c0.134-0.132 0.318-0.213 0.52-0.213s0.386 0.081 0.52 0.213l-0-0c0.133 0.131 0.216 0.313 0.216 0.514s-0.082 0.383-0.215 0.514l-0 0c-0.67 0.658-1.589 1.065-2.603 1.065s-1.933-0.406-2.603-1.065l0.001 0.001c-0.666-0.655-1.078-1.565-1.078-2.571s0.412-1.917 1.078-2.571l0-0c2.587-2.556 6.783-2.556 9.37 0 1.198 1.178 1.941 2.816 1.941 4.628 0 1.802-0.734 3.432-1.92 4.608l-0 0z"></path>
</svg>
