<!-- Generated by IcoMoon.io -->
<svg version="1.1" xmlns="http://www.w3.org/2000/svg" width="16" height="16" viewBox="0 0 16 16">
<title>laravelhorizon</title>
<path fill="#405263" d="M13.657 2.344c-3.124-3.125-8.189-3.125-11.313-0.002-1.448 1.444-2.344 3.441-2.344 5.647 0 0.003 0 0.006 0 0.010v-0c-0 0.004-0 0.010-0 0.015 0 2.426 1.082 4.599 2.789 6.063l0.011 0.009h0.007c1.388 1.19 3.206 1.915 5.193 1.915 2.209 0 4.209-0.895 5.656-2.343l-0 0c3.125-3.123 3.125-8.189 0.001-11.313zM10.667 9.332c-2.667 0-2.667-2.667-5.333-2.667-1.667 0-2.293 1.043-3.177 1.827h-0.003c-0.013-0.148-0.021-0.32-0.021-0.493 0-3.24 2.627-5.867 5.867-5.867 3.067 0 5.584 2.353 5.845 5.352l0.002 0.022c-0.887 0.783-1.513 1.827-3.18 1.827z"></path>
</svg>
