<!-- Generated by IcoMoon.io -->
<svg version="1.1" xmlns="http://www.w3.org/2000/svg" width="16" height="16" viewBox="0 0 16 16">
<title>laravel</title>
<path fill="#ff2d20" d="M15.763 3.62c0.006 0.021 0.009 0.043 0.009 0.066v3.433c0 0.090-0.049 0.173-0.126 0.217l-2.882 1.66v3.289c0 0.090-0.048 0.172-0.125 0.217l-6.018 3.463c-0.014 0.008-0.029 0.013-0.044 0.018-0.005 0.001-0.011 0.005-0.016 0.007-0.042 0.012-0.087 0.012-0.128 0-0.007-0.001-0.013-0.005-0.019-0.008-0.014-0.005-0.029-0.009-0.042-0.017l-6.015-3.463c-0.078-0.045-0.126-0.127-0.126-0.217v-10.303c0-0.022 0.003-0.044 0.009-0.065 0.002-0.008 0.007-0.014 0.009-0.021 0.004-0.013 0.009-0.027 0.015-0.039 0.003-0.009 0.010-0.015 0.015-0.022 0.008-0.011 0.014-0.021 0.022-0.030 0.008-0.007 0.017-0.012 0.025-0.018 0.009-0.008 0.018-0.016 0.027-0.023h0.001l3.009-1.731c0.077-0.045 0.173-0.045 0.25 0l3.009 1.731c0.010 0.007 0.018 0.014 0.027 0.022 0.008 0.006 0.017 0.012 0.025 0.018 0.009 0.009 0.014 0.019 0.022 0.030 0.005 0.007 0.013 0.014 0.017 0.022 0.007 0.013 0.011 0.025 0.016 0.039 0.002 0.007 0.007 0.014 0.009 0.021 0.007 0.021 0.009 0.043 0.009 0.065v6.435l2.507-1.443v-3.289c0-0.022 0.003-0.044 0.009-0.065 0.002-0.007 0.006-0.014 0.009-0.021 0.005-0.013 0.009-0.026 0.016-0.039 0.005-0.008 0.012-0.014 0.017-0.022 0.008-0.010 0.014-0.020 0.022-0.029s0.017-0.013 0.025-0.019c0.009-0.007 0.017-0.015 0.027-0.021h0.001l3.009-1.732c0.077-0.045 0.173-0.045 0.25 0l3.009 1.732c0.011 0.007 0.018 0.014 0.028 0.021 0.008 0.007 0.017 0.012 0.024 0.019 0.009 0.009 0.015 0.019 0.023 0.029 0.005 0.008 0.013 0.014 0.016 0.022 0.007 0.013 0.012 0.026 0.016 0.039 0.004 0.007 0.008 0.015 0.010 0.022zM15.269 6.975v-2.855l-2.507 1.443v2.855zM12.262 12.141v-2.858l-5.515 3.149v2.884zM0.73 2.416v9.725l5.515 3.175v-2.884l-2.884-1.632c-0.009-0.007-0.017-0.014-0.027-0.021-0.007-0.007-0.016-0.012-0.023-0.018l-0.001-0.001c-0.009-0.008-0.014-0.017-0.021-0.026-0.007-0.008-0.014-0.015-0.019-0.025h-0.001c-0.005-0.009-0.009-0.021-0.013-0.031s-0.009-0.018-0.012-0.029c-0.003-0.012-0.004-0.025-0.005-0.038-0.001-0.009-0.004-0.018-0.004-0.027v-6.725l-1.453-0.838zM3.487 0.54l-2.507 1.443 2.507 1.443 2.505-1.443zM4.791 9.543l1.455-0.837v-6.29l-2.508 1.443v6.29zM12.513 2.243l-2.507 1.443 2.507 1.442 2.506-1.443zM12.262 5.562l-2.507-1.443v2.855l2.507 1.443zM6.495 11.998l5.513-3.147-2.505-1.442-5.51 3.173z"></path>
</svg>
