<!-- Generated by IcoMoon.io -->
<svg version="1.1" xmlns="http://www.w3.org/2000/svg" width="16" height="16" viewBox="0 0 16 16">
<title>lastpass</title>
<path fill="#d32d27" d="M15.086 4.571c0-0.253 0.203-0.457 0.457-0.457 0.252 0 0.457 0.208 0.457 0.457v6.857c0 0.253-0.203 0.457-0.457 0.457-0.253 0-0.457-0.208-0.457-0.457zM1.371 6.857c0.757 0 1.371 0.614 1.371 1.371s-0.614 1.371-1.371 1.371-1.371-0.614-1.371-1.371 0.614-1.371 1.371-1.371zM6.4 6.857c0.757 0 1.371 0.614 1.371 1.371s-0.614 1.371-1.371 1.371-1.371-0.614-1.371-1.371 0.614-1.371 1.371-1.371zM11.429 6.857c0.757 0 1.371 0.614 1.371 1.371s-0.614 1.371-1.371 1.371-1.371-0.614-1.371-1.371 0.614-1.371 1.371-1.371z"></path>
</svg>
