<!-- Generated by IcoMoon.io -->
<svg version="1.1" xmlns="http://www.w3.org/2000/svg" width="16" height="16" viewBox="0 0 16 16">
<title>last-dot-fm</title>
<path fill="#d51007" d="M7.066 11.474l-0.587-1.595c0 0-0.955 1.064-2.386 1.064-1.267 0-2.166-1.101-2.166-2.864 0-2.257 1.139-3.064 2.259-3.064 1.612 0 2.123 1.045 2.563 2.385l0.581 1.834c0.581 1.781 1.682 3.212 4.857 3.212 2.273 0 3.815-0.697 3.815-2.534 0-1.485-0.851-2.255-2.423-2.623l-1.171-0.256c-0.811-0.183-1.051-0.514-1.051-1.065 0-0.624 0.491-0.991 1.301-0.991 0.882 0 1.352 0.33 1.431 1.119l1.833-0.22c-0.15-1.653-1.291-2.329-3.163-2.329-1.653 0-3.265 0.624-3.265 2.623 0 1.249 0.601 2.039 2.123 2.403l1.241 0.295c0.931 0.22 1.242 0.611 1.242 1.142 0 0.681-0.661 0.961-1.913 0.961-1.853 0-2.624-0.971-3.065-2.313l-0.601-1.833c-0.771-2.383-2.003-3.264-4.446-3.264-2.643-0.009-4.075 1.692-4.075 4.596 0 2.786 1.431 4.297 4.002 4.297 2.072 0 3.064-0.971 3.064-0.971z"></path>
</svg>
