<!-- Generated by IcoMoon.io -->
<svg version="1.1" xmlns="http://www.w3.org/2000/svg" width="16" height="16" viewBox="0 0 16 16">
<title>latex</title>
<path fill="#008080" d="M1.451 1.875c0.155 0.28 0.318 0.519 0.487 0.727h-0.001c-0.069-0.011-0.149-0.017-0.231-0.017-0.003 0-0.005 0-0.008 0h0c-0.189 0.003-0.37 0.034-0.54 0.090l0.013-0.004c0.329 0.277 0.608 0.478 0.854 0.633 0.603 0.196 1.275 0.521 1.847 0.885 0.286 0.182 0.541 0.362 0.742 0.52s0.378 0.314 0.414 0.383c0.036 0.068-0.001 0.093-0.055 0.040s-0.201-0.213-0.4-0.369c-0.211-0.165-0.451-0.335-0.7-0.494l-0.038-0.023c-0.517-0.327-1.321-0.64-1.81-0.943-0.38-0.121-0.788-0.138-1.268 0.090 0.351 0.22 0.645 0.379 0.902 0.497 0.736 0.103 1.506 0.463 2.15 0.872 0.322 0.205 0.603 0.411 0.813 0.579 0.105 0.083 0.193 0.158 0.26 0.219 0.065 0.060 0.117 0.103 0.132 0.14 0.020 0.049-0.013 0.069-0.057 0.038-0.021-0.015-0.057-0.068-0.121-0.127-0.077-0.070-0.161-0.141-0.247-0.21l-0.010-0.008c-0.208-0.167-0.487-0.369-0.807-0.572-0.596-0.374-1.489-0.675-2.117-0.931-0.401-0.073-0.815-0.040-1.269 0.259 0.299 0.133 0.558 0.233 0.788 0.309-0.377 0.013-0.752 0.131-1.117 0.478 0.318 0.079 0.59 0.132 0.829 0.167-0.293 0.060-0.58 0.2-0.859 0.48 0.216 0.047 0.411 0.082 0.589 0.109-0.219 0.106-0.427 0.271-0.616 0.522 0.249 0.020 0.469 0.028 0.667 0.029-0.24 0.111-0.464 0.285-0.664 0.567 0.355 0.017 0.653 0.016 0.909 0.001-0.281 0.115-0.541 0.309-0.763 0.646 0.053 0.001 0.115 0.002 0.177 0.002 0.32 0 0.636-0.019 0.946-0.057l-0.037 0.004-0.005 0.001c0.66-0.049 1.533 0.085 1.977 0.565 0.035 0.038-0.016 0.079-0.049 0.049-0.432-0.387-0.996-0.551-1.928-0.615-0.363 0.1-0.698 0.298-0.974 0.717 0.357 0.005 0.654-0.007 0.91-0.031-0.313 0.17-0.581 0.429-0.758 0.869 0.322-0.061 0.592-0.127 0.825-0.195-0.242 0.177-0.446 0.424-0.582 0.796 0.216-0.048 0.407-0.097 0.58-0.147-0.165 0.203-0.285 0.45-0.34 0.72l-0.002 0.011c0.234-0.087 0.437-0.171 0.617-0.253h0.001c0.189-0.153 0.473-0.305 0.859-0.415 0.337-0.097 0.721-0.189 1.101-0.201 0.024-0.001 0.053-0.001 0.081-0.001s0.057 0.001 0.085 0.001l-0.004-0c0.067 0.002 0.042 0.069 0.004 0.069-0.485-0.005-0.868 0.088-1.249 0.197-0.347 0.111-0.637 0.229-0.917 0.368l0.038-0.017c-0.184 0.218-0.314 0.488-0.366 0.784l-0.001 0.010c0.33-0.132 0.599-0.259 0.825-0.379-0.207 0.222-0.362 0.507-0.423 0.905 0.378-0.164 0.693-0.33 0.995-0.516l-0.034 0.020c-0.288 0.241-0.509 0.563-0.586 1.059 0.453-0.195 0.84-0.409 1.203-0.654l-0.025 0.016c-0.123 0.248-0.187 0.538-0.157 0.9 0.508-0.39 0.83-0.704 1.069-0.982-0.004 0.043-0.006 0.094-0.006 0.145 0 0.158 0.021 0.312 0.059 0.458l-0.003-0.012c0.299-0.515 0.598-0.729 0.902-0.905-0.375 0.247-0.309 0.447-0.309 0.676 0.455-0.48 1.091-0.989 1.285-1.307-0.26 0.39-0.365 0.76-0.433 1.086-1.329 0.703-2.14 0.887-3.047 1.168 0.352 0.129 0.73 0.255 0.574 0.435l-0.417 0.415c0.266-0.083 0.537-0.2 0.772-0.039-0.023 0.218-0.299 0.329-0.533 0.455 0.413-0.149 0.504-0.115 0.613-0.080 0.053 0.261-0.135 0.401-0.258 0.573 1.043-0.793 2.404-1.419 3.363-1.681 1.348-0.454 3.088-0.927 3.561-2.078 0.157-0.631 0.319-1.27 0.471-1.895-0.074-0.023-0.163-0.042-0.233-0.089-0.070-0.049-0.124-0.117-0.155-0.196l-0.001-0.003c-0.168 0.044-0.294 0.021-0.373-0.059-0.079-0.078-0.112-0.196-0.135-0.327-0.136 0.028-0.243 0.011-0.313-0.051-0.076-0.068-0.113-0.173-0.132-0.295l-0.004-0.027 0.025-0.009c0.078-0.030 0.145-0.074 0.2-0.13l0-0c0.031-0.031 0.050-0.074 0.050-0.121 0-0.010-0.001-0.021-0.003-0.030l0 0.001-0.004-0.025 0.020-0.011c0.109-0.062 0.231-0.112 0.287-0.186 0.022-0.030 0.036-0.068 0.036-0.109 0-0.011-0.001-0.021-0.003-0.032l0 0.001c-0.017-0.091-0.053-0.172-0.104-0.242l0.001 0.002-0.019-0.027 0.027-0.018c0.079-0.060 0.164-0.117 0.207-0.171 0.021-0.027 0.031-0.051 0.030-0.073s-0.010-0.047-0.043-0.079l-0.065-0.063 0.090 0.004c0.141 0.006 0.264-0.004 0.359-0.035 0.084-0.024 0.153-0.077 0.197-0.148l0.001-0.001c-0.002-0.014-0.003-0.029-0.003-0.045 0-0.002 0-0.003 0-0.005v0c0-0.168 0.136-0.303 0.303-0.303v0c0.168 0 0.303 0.136 0.303 0.303v0c-0.001 0.032-0.006 0.062-0.015 0.090l0.001-0.002c0.123 0.011 0.239 0.005 0.349-0.043l0.025-0.008c0.157-0.056 0.222 0.030 0.48-0.306-1.127-1.461-2.772-0.421-3.319 1.083-0.14 0.385-0.937 0.385-1.168-0.001-0.913-1.967-3.687-4.045-6.048-4.811zM1.939 2.603c0.168-0.006 0.753 0.302 0.873 0.347 0.426 0.241 0.767 0.454 1.099 0.68l-0.055-0.035c0.337 0.224 0.641 0.442 0.849 0.601 0.104 0.080 0.185 0.145 0.234 0.19 0.025 0.023 0.043 0.038 0.053 0.055 0.003 0.004 0.005 0.009 0.007 0.014l0 0c0.001 0.004 0.002 0.008 0.002 0.012 0 0.007-0.002 0.013-0.005 0.018l0-0c-0.007 0.013-0.020 0.020-0.029 0.020-0.003 0.001-0.006 0.001-0.009 0.001s-0.006-0-0.009-0.001l0 0c-0.038 0.001-0.135-0.109-0.331-0.277-0.534-0.414-1.134-0.817-1.762-1.177l-0.076-0.040c-0.336-0.187-0.637-0.36-0.843-0.408zM1.177 4.461c0.541 0 1.26 0.243 1.954 0.613 0.695 0.371 1.362 0.813 1.684 1.186 0.044 0.051-0.013 0.082-0.051 0.045-0.347-0.331-0.975-0.804-1.665-1.172-0.425-0.224-1.432-0.67-1.921-0.673zM0.892 5.105c0.744 0.010 1.565 0.297 2.288 0.664 0.361 0.183 0.683 0.38 0.931 0.555s0.449 0.349 0.489 0.438c0.041 0.089-0.013 0.087-0.057 0.036-0.14-0.154-0.294-0.292-0.461-0.412l-0.009-0.006c-0.263-0.185-0.565-0.368-0.88-0.529l-0.043-0.020c-0.642-0.321-1.523-0.617-2.258-0.725zM1 5.649c0.044-0.002 0.089 0 0.134 0.004 0.548 0.047 1.146 0.244 1.689 0.499 0.725 0.339 1.357 0.771 1.623 1.111 0.023 0.030-0.007 0.089-0.052 0.043-0.285-0.293-0.88-0.755-1.598-1.091-0.609-0.28-1.522-0.58-2.175-0.519 0.125-0.016 0.249-0.041 0.38-0.045zM12.027 5.657c-0.243 0.317-0.353 0.283-0.467 0.31 0.062 0.287 0.233 0.391 0.391 0.515 1.347-0.248 2.86-0.183 4.053-0.15l-3.975-0.673zM11.492 5.987c-0.127 0.051-0.258 0.053-0.389 0.040-0.053 0.090-0.15 0.149-0.26 0.149h-0c-0.122-0-0.227-0.073-0.275-0.177l-0.001-0.002c-0.051 0.065-0.119 0.114-0.198 0.139l-0.003 0.001c-0.083 0.024-0.178 0.037-0.277 0.037-0.018 0-0.036-0-0.054-0.001l0.002 0c0.013 0.023 0.036 0.045 0.036 0.069-0.002 0.045-0.019 0.085-0.047 0.116l0-0c-0.049 0.062-0.125 0.115-0.197 0.167 0.047 0.068 0.082 0.149 0.099 0.237l0.001 0.004c0.002 0.011 0.003 0.024 0.003 0.037 0 0.057-0.019 0.11-0.050 0.153l0.001-0.001c-0.071 0.093-0.191 0.141-0.292 0.197 0 0.004 0 0.009 0 0.014 0 0.063-0.023 0.121-0.062 0.165l0-0c-0.055 0.055-0.121 0.1-0.194 0.13l-0.004 0.001c0.018 0.105 0.049 0.189 0.103 0.236 0.057 0.051 0.141 0.069 0.284 0.033l0.037-0.011 0.007 0.037c0.023 0.138 0.059 0.257 0.125 0.323s0.162 0.090 0.335 0.037l0.033-0.011 0.010 0.033c0.025 0.078 0.074 0.143 0.139 0.187l0.001 0.001c0.058 0.040 0.167 0.075 0.24 0.098 0.532-0.579 1.017-1.181 1.256-1.907-0.15-0.117-0.339-0.223-0.408-0.53zM0.96 6.232c0.672 0.009 1.306 0.165 1.873 0.438l-0.027-0.012c0.613 0.287 1.105 0.626 1.317 0.871 0.049 0.058-0.013 0.081-0.049 0.049-0.374-0.335-0.802-0.622-1.265-0.846l-0.033-0.014c-0.603-0.277-1.464-0.431-2.107-0.479 0.097-0.007 0.193-0.009 0.29-0.009zM1.248 6.776c0.407 0.013 0.827 0.103 1.205 0.235 0.504 0.175 0.947 0.409 1.164 0.653 0.029 0.033-0.003 0.087-0.048 0.047-0.233-0.203-0.641-0.463-1.138-0.635-0.383-0.13-1.077-0.245-1.513-0.264 0.131-0.014 0.195-0.040 0.331-0.035zM1.843 7.963c0.033 0 0.069 0.003 0.104 0.005 0.283 0.023 0.591 0.089 0.895 0.271 0.029 0.017 0.033 0.091-0.033 0.060-0.571-0.268-0.885-0.326-1.639-0.205 0.225-0.075 0.435-0.133 0.673-0.131zM2.121 8.486c0.2 0.003 0.409 0.041 0.665 0.144 0.029 0.012 0.053 0.084-0.022 0.063-0.571-0.162-0.778-0.219-1.525 0.069 0.187-0.153 0.413-0.245 0.681-0.269 0.067-0.006 0.133-0.009 0.201-0.007zM3.093 8.94c0.104 0 0.207 0.006 0.307 0.017 0.035 0.003 0.037 0.068-0.005 0.067-0.086-0.005-0.187-0.008-0.289-0.008-0.331 0-0.655 0.031-0.969 0.089l0.033-0.005c-0.162 0.031-0.281 0.029-0.936 0.307 0.191-0.156 0.53-0.301 0.924-0.373 0.296-0.053 0.623-0.095 0.935-0.093zM3.984 9.544c0.023-0.003 0.070 0.056 0.011 0.067-0.487 0.091-0.829 0.179-1.197 0.303-0.144 0.049-0.386 0.138-0.828 0.392 0.173-0.179 0.437-0.329 0.809-0.456 0.34-0.124 0.745-0.23 1.163-0.3l0.042-0.006zM4.191 9.883c0.050-0.008 0.066 0.058 0.015 0.068-0.811 0.16-1.173 0.371-1.694 0.763 0.335-0.349 0.864-0.7 1.679-0.831zM4.588 10.181c0.003-0.001 0.006-0.001 0.010-0.001s0.007 0 0.010 0.001l-0-0c0.040 0.007 0.046 0.059-0.006 0.067-0.581 0.087-0.986 0.37-1.505 0.888 0.197-0.329 0.671-0.828 1.491-0.955zM4.835 10.441c0.031-0.003 0.077 0.049 0.017 0.067-0.129 0.037-0.289 0.1-0.447 0.2-0.121 0.079-0.201 0.135-0.4 0.339 0.075-0.163 0.199-0.29 0.364-0.394s0.338-0.195 0.466-0.211z"></path>
</svg>
