<!-- Generated by IcoMoon.io -->
<svg version="1.1" xmlns="http://www.w3.org/2000/svg" width="16" height="16" viewBox="0 0 16 16">
<title>leetcode</title>
<path fill="#f89f1b" d="M10.735 11.953l-1.798 1.738c-0.311 0.311-0.741 0.441-1.215 0.441s-0.905-0.13-1.216-0.441l-2.888-2.909c-0.311-0.311-0.468-0.767-0.468-1.242s0.157-0.905 0.468-1.216l2.879-2.92c0.311-0.311 0.75-0.43 1.225-0.43s0.905 0.13 1.215 0.441l1.798 1.737c0.343 0.343 0.91 0.331 1.267-0.025s0.369-0.925 0.026-1.267l-1.739-1.757c-0.436-0.431-0.989-0.744-1.607-0.887l-0.023-0.004 1.645-1.669c0.344-0.343 0.332-0.911-0.025-1.267s-0.925-0.368-1.268-0.025l-6.733 6.734c-0.654 0.655-0.996 1.558-0.996 2.557s0.342 1.93 0.996 2.583l2.898 2.907c0.654 0.653 1.558 0.968 2.556 0.968s1.902-0.341 2.557-0.996l1.739-1.758c0.343-0.343 0.331-0.91-0.026-1.267s-0.924-0.369-1.266-0.026zM13.874 8.673h-6.763c-0.468 0-0.847 0.403-0.847 0.897s0.379 0.897 0.847 0.897h6.763c0.467 0 0.847-0.403 0.847-0.897s-0.379-0.897-0.847-0.897z"></path>
</svg>
