<!-- Generated by IcoMoon.io -->
<svg version="1.1" xmlns="http://www.w3.org/2000/svg" width="16" height="16" viewBox="0 0 16 16">
<title>lenovo</title>
<path fill="#e2231a" d="M13.503 7.614c-0.001-0-0.003-0-0.005-0-0.298 0-0.54 0.242-0.54 0.54 0 0.013 0 0.026 0.001 0.039l-0-0.002c-0 0.006-0 0.012-0 0.019 0 0.306 0.246 0.555 0.551 0.559h0c0 0 0 0 0 0 0.3 0 0.544-0.244 0.544-0.544 0-0.012-0-0.024-0.001-0.036l0 0.002c0-0.006 0-0.012 0-0.019 0-0.306-0.246-0.555-0.551-0.559h-0zM9.163 7.614c-0.001-0-0.003-0-0.005-0-0.298 0-0.54 0.242-0.54 0.54 0 0.013 0 0.026 0.001 0.039l-0-0.002c-0 0.006-0 0.012-0 0.019 0 0.306 0.246 0.555 0.551 0.559h0c0 0 0 0 0 0 0.3 0 0.544-0.244 0.544-0.544 0-0.012-0-0.024-0.001-0.036l0 0.002c0-0.006 0-0.012 0-0.019 0-0.306-0.246-0.555-0.551-0.559h-0zM4.489 7.579c-0.005-0-0.012-0-0.018-0-0.169 0-0.319 0.080-0.415 0.204l-0.001 0.001c-0.077 0.106-0.123 0.239-0.123 0.383 0 0.038 0.003 0.075 0.009 0.112l-0.001-0.004 0.985-0.408c-0.074-0.17-0.241-0.287-0.435-0.287-0.001 0-0.001 0-0.002 0h0zM0 5.333v5.333h16v-5.333zM3.337 9.218h-1.853v-2.667h0.571v2.149h1.281zM4.549 8.804c0.005 0 0.012 0 0.018 0 0.22 0 0.42-0.083 0.572-0.218l-0.001 0.001 0.356 0.274c-0.244 0.242-0.58 0.392-0.951 0.392-0.001 0-0.002 0-0.003 0h0c-0.031 0.003-0.068 0.005-0.104 0.005-0.587 0-1.063-0.476-1.063-1.063s0.476-1.063 1.063-1.063c0.015 0 0.030 0 0.045 0.001l-0.002-0c0.015-0.001 0.033-0.001 0.051-0.001 0.3 0 0.571 0.129 0.759 0.334l0.001 0.001c0.13 0.157 0.219 0.353 0.246 0.568l0.001 0.005-1.441 0.6c0.111 0.102 0.26 0.165 0.423 0.165 0.011 0 0.022-0 0.033-0.001l-0.002 0zM7.804 9.218h-0.563v-1.168c-0.010-0.242-0.209-0.435-0.452-0.435-0.008 0-0.016 0-0.023 0.001l0.001-0c-0.008-0.001-0.017-0.001-0.027-0.001-0.241 0-0.437 0.194-0.44 0.435v1.168h-0.562v-2.053h0.564v0.294c0.156-0.199 0.396-0.327 0.666-0.329h0c0.013-0.001 0.028-0.001 0.044-0.001 0.436 0 0.79 0.354 0.79 0.79 0 0.009-0 0.018-0 0.027l0-0.001zM9.127 9.253c-0.567-0.025-1.017-0.49-1.017-1.061 0-0.587 0.475-1.062 1.062-1.062s1.062 0.475 1.062 1.062v0c-0.003 0.587-0.479 1.062-1.067 1.062-0.014 0-0.028-0-0.042-0.001l0.002 0zM10.993 9.217l-0.845-2.052h0.644l0.509 1.4 0.509-1.4h0.644l-0.845 2.052zM13.467 9.253c-0.567-0.025-1.017-0.49-1.017-1.061 0-0.587 0.475-1.062 1.062-1.062s1.062 0.475 1.062 1.062v0c-0.003 0.587-0.479 1.062-1.067 1.062-0.014 0-0.028-0-0.042-0.001l0.002 0zM14.801 8.974h-0.094v0.244h-0.057v-0.244h-0.091v-0.051h0.241zM15.161 9.218h-0.055v-0.21l-0.091 0.142h-0.009l-0.091-0.142v0.21h-0.055v-0.295h0.060l0.089 0.14 0.089-0.14h0.059z"></path>
</svg>
