<!-- Generated by IcoMoon.io -->
<svg version="1.1" xmlns="http://www.w3.org/2000/svg" width="16" height="16" viewBox="0 0 16 16">
<title>lgtm</title>
<path fill="#fff" d="M8.005 3.244c-1.943 0-3.585 0.453-4.663 1.407-0.033-0.059-0.057-0.109-0.094-0.169-0.113-0.182-0.219-0.389-0.552-0.593-0.193-0.125-0.421-0.215-0.665-0.257l-0.011-0.001c-0.048-0.006-0.103-0.009-0.16-0.009-0.054 0-0.108 0.003-0.16 0.009l0.006-0.001 0.066-0.009c-0.607 0-0.961 0.364-1.192 0.677-0.229 0.313-0.377 0.666-0.473 1.051-0.19 0.77-0.193 1.767 0.54 2.511 0.383 0.392 0.834 0.575 1.242 0.685 0.079 0.021 0.149 0.027 0.224 0.042 0.266 1.261 1.053 2.328 2.105 2.921v0.001h0.001c0.619 0.348 1.207 0.507 1.648 0.676 0.616 0.238 1.267 0.501 2.024 0.567l0.040 0.004h0.1c0.871 0 1.531-0.351 2.101-0.57 0.437-0.167 1.027-0.321 1.651-0.672 0.303-0.172 0.564-0.367 0.799-0.589l-0.002 0.002c0.64-0.602 1.102-1.386 1.305-2.27l0.006-0.030c0.578-0.097 1.080-0.372 1.459-0.766l0.001-0.001c0.732-0.743 0.729-1.741 0.539-2.511-0.096-0.385-0.244-0.737-0.473-1.051s-0.586-0.677-1.192-0.677l0.067 0.009c-0.045-0.005-0.098-0.008-0.151-0.008-0.058 0-0.114 0.003-0.17 0.010l0.007-0.001c-0.254 0.042-0.481 0.132-0.68 0.261l0.007-0.004c-0.333 0.205-0.439 0.411-0.551 0.592-0.037 0.059-0.060 0.109-0.093 0.166-1.078-0.951-2.717-1.402-4.657-1.402zM8.021 4.157c2.371 0 4.009 0.71 4.705 1.98 0.42-0.162 0.729-1.26 1.075-1.473 0.28-0.173 0.443-0.13 0.443-0.13 0.633 0 1.287 1.865 0.475 2.688-0.429 0.438-1.22 0.561-1.615 0.53-0.030 1.271-0.77 2.417-1.749 2.967-0.499 0.28-1.035 0.427-1.531 0.616-0.614 0.235-1.191 0.509-1.775 0.509h-0.061c-0.581-0.051-1.16-0.271-1.775-0.509-0.496-0.19-1.032-0.34-1.531-0.62-0.973-0.549-1.714-1.693-1.744-2.963-0.391 0.033-1.192-0.088-1.624-0.529-0.811-0.823-0.159-2.688 0.475-2.688 0 0 0.164-0.043 0.444 0.13 0.347 0.214 0.658 1.323 1.080 1.476 0.696-1.274 2.334-1.983 4.708-1.983zM5.437 5.711c-0.011-0-0.024-0-0.037-0-1.124 0-2.035 0.911-2.035 2.035s0.911 2.035 2.035 2.035c0.013 0 0.026-0 0.039-0l-0.002 0c1.108-0.021 1.998-0.924 1.998-2.035s-0.89-2.014-1.997-2.035l-0.002-0zM10.604 5.711c-1.124 0-2.035 0.911-2.035 2.035s0.911 2.035 2.035 2.035v0c1.124 0 2.035-0.911 2.035-2.035s-0.911-2.035-2.035-2.035v0zM5.727 6.853c0.489 0.014 0.88 0.413 0.88 0.904s-0.391 0.891-0.879 0.904l-0.001 0c-0.499-0-0.904-0.405-0.904-0.904 0-0.080 0.010-0.158 0.030-0.232l-0.001 0.006c0.058 0.14 0.194 0.237 0.352 0.237 0.21 0 0.38-0.17 0.38-0.38 0-0 0-0.001 0-0.001v0c0-0 0-0 0-0 0-0.204-0.162-0.371-0.364-0.38l-0.001-0c0.142-0.097 0.317-0.155 0.505-0.155 0.001 0 0.002 0 0.003 0h-0zM10.319 6.853c0.489 0.014 0.88 0.413 0.88 0.904s-0.391 0.891-0.879 0.904l-0.001 0c-0 0-0 0-0.001 0-0.499 0-0.904-0.405-0.904-0.904 0-0.080 0.010-0.158 0.030-0.232l-0.001 0.006c0.058 0.14 0.194 0.236 0.352 0.236 0.21 0 0.38-0.17 0.38-0.38 0-0.204-0.161-0.371-0.363-0.38l-0.001-0c0.142-0.098 0.317-0.156 0.506-0.156 0.001 0 0.001 0 0.002 0h-0zM7.68 9.953c-0.159 0.013-0.251 0.097-0.251 0.317 0 0.14 0.092 0.243 0.252 0.243 0.052-0 0.095-0.043 0.095-0.095 0-0.045-0.031-0.082-0.072-0.093l-0.001-0c-0.015-0.003-0.087-0.029-0.087-0.091s0-0.083 0.122-0.1c0.052-0.008 0.077-0.070 0.061-0.12s-0.063-0.067-0.119-0.062zM8.362 9.953c-0.057-0.004-0.104 0.012-0.12 0.062s0.010 0.112 0.062 0.12c0.121 0.017 0.121 0.038 0.121 0.1s-0.071 0.087-0.087 0.091c-0.042 0.010-0.073 0.048-0.073 0.093 0 0.053 0.042 0.095 0.095 0.095h0c0.16 0 0.253-0.103 0.253-0.243 0-0.22-0.093-0.304-0.251-0.317z"></path>
</svg>
