<!-- Generated by IcoMoon.io -->
<svg version="1.1" xmlns="http://www.w3.org/2000/svg" width="16" height="16" viewBox="0 0 16 16">
<title>liberapay</title>
<path fill="#f6c915" d="M1.547 0c-0.854 0-1.546 0.693-1.547 1.547v12.907c0 0.854 0.693 1.546 1.547 1.547h12.907c0.854 0 1.547-0.692 1.547-1.547v0-12.907c0-0.854-0.692-1.547-1.547-1.547v0zM7.685 2.653l-1.513 6.27c-0.026 0.106-0.043 0.229-0.049 0.355l-0 0.004c-0.001 0.010-0.001 0.021-0.001 0.032 0 0.093 0.022 0.181 0.062 0.259l-0.001-0.003c0.051 0.090 0.127 0.159 0.22 0.2l0.003 0.001c0.105 0.051 0.252 0.084 0.441 0.098l-0.327 1.339c-0.515 0-0.92-0.067-1.213-0.2-0.294-0.135-0.505-0.318-0.631-0.551-0.117-0.217-0.186-0.474-0.186-0.748 0-0.018 0-0.037 0.001-0.055l-0 0.003c0.003-0.301 0.045-0.622 0.125-0.963l1.383-5.78zM10.285 5.245c0.407 0 0.757 0.061 1.051 0.185s0.535 0.292 0.723 0.507c0.189 0.213 0.329 0.464 0.419 0.751s0.136 0.593 0.136 0.919v0.001c0 0.529-0.087 1.013-0.261 1.453-0.174 0.441-0.419 0.819-0.725 1.139l0.001-0.001c-0.307 0.315-0.676 0.568-1.089 0.738l-0.021 0.008c-0.432 0.178-0.902 0.267-1.409 0.267-0.247 0-0.493-0.022-0.74-0.065l-0.49 1.971h-1.611l1.807-7.532c0.29-0.087 0.623-0.165 0.996-0.234 0.353-0.066 0.758-0.103 1.173-0.103 0.015 0 0.029 0 0.044 0l-0.002-0zM10.079 6.606c-0.006-0-0.012-0-0.019-0-0.225 0-0.444 0.024-0.655 0.069l0.020-0.004-0.762 3.168c0.123 0.029 0.275 0.043 0.457 0.043 0.283 0 0.541-0.053 0.773-0.158 0.234-0.106 0.432-0.255 0.592-0.439l0.002-0.002c0.163-0.189 0.29-0.415 0.381-0.68 0.086-0.252 0.136-0.542 0.136-0.845 0-0.011-0-0.023-0-0.034l0 0.002c0-0.312-0.069-0.577-0.207-0.795s-0.377-0.327-0.718-0.327z"></path>
</svg>
