<!-- Generated by IcoMoon.io -->
<svg version="1.1" xmlns="http://www.w3.org/2000/svg" width="16" height="16" viewBox="0 0 16 16">
<title>libreoffice</title>
<path fill="#18a303" d="M10.91 0c-0.002-0-0.005-0-0.007-0-0.161 0-0.299 0.095-0.362 0.232l-0.001 0.002c-0.019 0.044-0.029 0.095-0.029 0.148 0 0.108 0.044 0.205 0.115 0.275l0 0 3.323 3.331c0.073 0.071 0.172 0.114 0.281 0.114 0.051 0 0.1-0.009 0.145-0.027l-0.003 0.001c0.14-0.060 0.238-0.195 0.242-0.353l0-0.001v-3.339c-0.010-0.21-0.18-0.378-0.39-0.385l-0.001-0zM1.774 0c-0.215 0.003-0.388 0.178-0.388 0.393 0 0 0 0 0 0v0 15.213c0 0 0 0 0 0 0 0.215 0.173 0.39 0.388 0.393h12.447c0.217 0 0.393-0.176 0.393-0.393v0-9.796c0-0.001 0-0.002 0-0.004 0-0.108-0.043-0.205-0.113-0.276l0 0-5.385-5.409c-0.071-0.074-0.17-0.12-0.28-0.121h-0zM2.167 0.789h6.503l5.155 5.18v9.242h-11.658z"></path>
</svg>
