<!-- Generated by IcoMoon.io -->
<svg version="1.1" xmlns="http://www.w3.org/2000/svg" width="16" height="16" viewBox="0 0 16 16">
<title>librarything</title>
<path d="M6.933 3.187v-0.287l-0.020-0.307c0-0.087-0.033-0.22-0.093-0.4-0.060-0.173-0.087-0.327-0.087-0.46 0-0.001 0-0.001 0-0.002 0-0.090 0.044-0.169 0.113-0.218l0.001-0.001 0.233-0.187c0.102-0.076 0.231-0.121 0.37-0.121 0.013 0 0.026 0 0.038 0.001l-0.002-0c0.107 0 0.273 0.013 0.513 0.047 0.207 0 0.36-0.047 0.467-0.133l0.247-0.173c0.113-0.093 0.173-0.193 0.173-0.307 0-0.193-0.107-0.347-0.32-0.467-0.217-0.11-0.474-0.175-0.746-0.175-0.024 0-0.047 0-0.071 0.001l0.003-0-0.907 0.067c-0.207 0-0.6 0.047-1.18 0.14-0.58 0.1-1.027 0.147-1.353 0.147-0.133 0-0.36-0.027-0.68-0.080-0.227-0.041-0.492-0.068-0.762-0.073l-0.005-0-0.5 0.16c-0.173 0.053-0.253 0.133-0.253 0.233l0.040 0.2c0.093 0.187 0.227 0.333 0.4 0.433l0.18 0.093c0.087 0.027 0.16 0.040 0.22 0.040 0.073 0 0.187 0 0.333-0.020 0.001-0 0.003-0 0.005-0 0.121 0 0.234 0.032 0.332 0.088l-0.003-0.002 0.247 0.22c0.12 0.133 0.2 0.267 0.253 0.387s0.080 0.233 0.080 0.333c0 0.080-0.013 0.2-0.047 0.38-0.027 0.173-0.040 0.313-0.040 0.413 0 0.133 0.033 0.327 0.1 0.573s0.1 0.453 0.1 0.613c-0.020 0.253-0.027 0.5-0.027 0.747v0.747c0 0.193 0.020 0.44 0.047 0.747s0.047 0.553 0.047 0.733l-0.047 0.913-0.020 1.473-0.067 1.207c0 0.167 0.027 0.373 0.087 0.64s0.087 0.473 0.087 0.633c0 0.167-0.020 0.367-0.067 0.62-0.043 0.169-0.068 0.363-0.068 0.563 0 0.112 0.008 0.221 0.023 0.329l-0.001-0.012c0.020 0.113 0.020 0.2 0 0.267-0.019 0.095-0.061 0.179-0.121 0.247l0.001-0.001-0.207 0.253c-0.133 0.16-0.287 0.287-0.447 0.373s-0.393 0.133-0.687 0.153c-0.3 0.013-0.513 0.073-0.647 0.187-0.133 0.107-0.2 0.193-0.2 0.253 0 0.38 0.353 0.567 1.067 0.567l0.153-0.020 1.28-0.133c0.213-0.013 0.467-0.020 0.747-0.020h0.267l0.8 0.020h2.133l0.587-0.053c0.187-0.020 0.353-0.033 0.5-0.033 0.193 0 0.46 0.047 0.8 0.147 0.34 0.093 0.627 0.127 0.867 0.093l0.253-0.067c0.16-0.040 0.307-0.067 0.46-0.067l0.3 0.040c0.18 0.020 0.333 0.033 0.453 0.033 0.060 0 0.16-0.020 0.313-0.047 0.367-0.073 0.627-0.213 0.773-0.42 0.107-0.147 0.16-0.28 0.16-0.413-0.046-0.213-0.072-0.457-0.072-0.707 0-0.068 0.002-0.135 0.006-0.202l-0 0.009c0.067-0.147 0.153-0.293 0.24-0.44 0.073-0.193 0.133-0.453 0.16-0.78 0.027-0.333 0.053-0.553 0.073-0.66 0.027-0.107 0.087-0.28 0.193-0.507 0.1-0.227 0.153-0.42 0.153-0.58 0-0.173-0.040-0.333-0.113-0.467-0.067-0.127-0.167-0.193-0.287-0.193-0.073 0-0.193 0.067-0.353 0.2-0.073 0.060-0.133 0.167-0.193 0.333-0.047 0.153-0.093 0.267-0.12 0.327-0.18 0.267-0.353 0.52-0.533 0.767-0.073 0.115-0.146 0.251-0.211 0.391l-0.009 0.022c-0.153 0.313-0.267 0.52-0.36 0.64-0.108 0.121-0.224 0.23-0.348 0.329l-0.006 0.004c-0.073 0.053-0.147 0.133-0.213 0.227s-0.16 0.247-0.273 0.453l-0.38 0.2-0.267 0.067c-0.087 0.007-0.207 0.047-0.353 0.107-0.153 0.053-0.267 0.093-0.333 0.107-0.073 0.013-0.173 0.020-0.293 0.020-0.133 0-0.333-0.020-0.6-0.067-0.267-0.040-0.48-0.067-0.64-0.067l-0.467 0.027c-0.533 0-0.933-0.287-1.18-0.86-0.248-0.646-0.391-1.394-0.391-2.175 0-0.331 0.026-0.656 0.075-0.974l-0.005 0.035c0.033-0.24 0.053-0.427 0.053-0.573v-1.533l0.020-0.507c0.020-0.207 0.027-0.353 0.027-0.44 0-0.011 0-0.024 0-0.036 0-0.24-0.042-0.471-0.118-0.684l0.004 0.014c-0.047-0.11-0.078-0.237-0.086-0.37l-0-0.004c0-0.067 0.013-0.173 0.040-0.307 0.033-0.133 0.047-0.233 0.047-0.307l-0.020-0.66c-0.020-0.28-0.027-0.5-0.027-0.66 0-0.187 0.033-0.42 0.093-0.7s0.087-0.507 0.087-0.68z"></path>
</svg>
