<!-- Generated by IcoMoon.io -->
<svg version="1.1" xmlns="http://www.w3.org/2000/svg" width="16" height="16" viewBox="0 0 16 16">
<title>linewebtoon</title>
<path fill="#00d564" d="M10.015 10.173c0.463 0 0.676-0.269 0.676-0.701 0-0.367-0.205-0.673-0.656-0.673-0.387 0-0.608 0.269-0.608 0.677 0 0.362 0.213 0.697 0.588 0.697zM6.757 10.298c0.509 0 0.742-0.295 0.742-0.769 0-0.403-0.225-0.739-0.721-0.739-0.425 0-0.668 0.297-0.668 0.743 0 0.398 0.235 0.765 0.647 0.765zM16 6.801l-2.1 0.019 0.553-6.457-13.148 2.041 1.124 4.165h-2.429l2.489 7.659 5.809-0.855v2.264l6.742-3.094zM9.931 4.405c0-0.033 0.026-0.061 0.059-0.063l1.55-0.103c0.349-0.023 1.089 0.042 1.089 0.824 0 0.553-0.413 0.789-0.413 0.789s0.5 0.126 0.471 0.728c0 1.068-1.295 0.926-1.295 0.926l-1.422-0.039c-0.032-0.001-0.057-0.027-0.057-0.059 0-0 0-0 0-0.001v0zM7.481 4.567c0-0.031 0.026-0.060 0.059-0.061l2.043-0.135c0.001-0 0.003-0 0.005-0 0.029 0 0.053 0.024 0.053 0.053 0 0 0 0 0 0v-0 0.629c0 0.033-0.026 0.060-0.058 0.061l-1.267 0.053c-0.032 0.002-0.057 0.028-0.059 0.060v0l-0.003 0.263c0 0 0 0 0 0.001 0 0.031 0.025 0.055 0.055 0.055 0.001 0 0.001-0 0.002-0h-0l1.097-0.044c0.001-0 0.002-0 0.003-0 0.030 0 0.055 0.024 0.055 0.055 0 0 0 0.001-0 0.001v-0l-0.013 0.675c-0.001 0.032-0.027 0.057-0.059 0.057-0 0-0 0-0 0h-1.087c-0.032 0-0.058 0.026-0.059 0.059v0.277c0 0.031 0.026 0.059 0.059 0.059l1.247 0.022c0.032 0.001 0.058 0.028 0.058 0.060 0 0 0 0 0 0v0 0.634c0 0 0 0 0 0 0 0.031-0.025 0.056-0.056 0.056-0.001 0-0.001-0-0.002-0h0l-2.042-0.082c-0.032-0.001-0.058-0.028-0.058-0.060 0-0 0-0 0-0v0zM3.474 4.775l0.65-0.043c0.001-0 0.003-0 0.004-0 0.032 0 0.059 0.023 0.066 0.053l0 0 0.305 1.47c0.007 0.031 0.018 0.031 0.026 0l0.384-1.521c0.011-0.032 0.038-0.055 0.072-0.060l0-0 0.614-0.041c0.001-0 0.002-0 0.003-0 0.033 0 0.060 0.022 0.069 0.052l0 0.001 0.376 1.561c0.008 0.031 0.019 0.031 0.027 0l0.4-1.616c0.010-0.033 0.038-0.057 0.072-0.061l0-0 0.664-0.043c0.032-0.003 0.051 0.021 0.043 0.052l-0.727 2.736c-0.009 0.032-0.038 0.055-0.072 0.055-0 0-0 0-0 0h0l-0.747-0.021c-0.034-0.002-0.063-0.025-0.073-0.057l-0-0.001-0.357-1.31c-0.008-0.031-0.022-0.031-0.030 0l-0.348 1.289c-0.011 0.031-0.039 0.054-0.073 0.055h-0l-0.739-0.021c-0.034-0.003-0.062-0.026-0.072-0.058l-0-0.001-0.582-2.412c-0.007-0.031 0.013-0.059 0.044-0.060zM3.282 11.19v-2.374c-0-0.032-0.026-0.058-0.058-0.059h-0l-0.835-0.019c-0.033-0.001-0.059-0.027-0.061-0.060v-0l-0.031-0.75c-0-0.001-0-0.002-0-0.003 0-0.030 0.024-0.055 0.055-0.055 0 0 0.001 0 0.001 0h-0l2.698 0.064c0.032 0 0.058 0.027 0.057 0.059l-0.015 0.725c-0.002 0.032-0.027 0.057-0.059 0.059h-0l-0.759 0.003c-0.032 0.001-0.057 0.027-0.058 0.059v2.298c0 0.033-0.026 0.060-0.058 0.061l-0.818 0.047c-0.002 0-0.003 0-0.005 0-0.029 0-0.053-0.024-0.053-0.053 0-0.001 0-0.001 0-0.002v0zM5.171 9.604c0-1.279 0.881-1.655 1.611-1.655s1.559 0.487 1.559 1.544c0 1.267-0.922 1.655-1.611 1.655s-1.559-0.483-1.559-1.544zM8.597 9.527c0-1.164 0.777-1.492 1.441-1.492s1.419 0.443 1.419 1.405c0 1.153-0.839 1.507-1.465 1.507s-1.395-0.453-1.395-1.419zM13.437 10.668c-0.001 0-0.002 0-0.002 0-0.036 0-0.069-0.017-0.090-0.043l-0-0-0.791-1.087c-0.019-0.026-0.035-0.021-0.035 0.012v1.113c0 0.031-0.026 0.060-0.057 0.061l-0.701 0.041c-0.001 0-0.002 0-0.003 0-0.030 0-0.055-0.024-0.055-0.055 0-0 0-0 0-0v0l0.026-2.561c0-0.031 0.026-0.057 0.059-0.056l0.587 0.013c0.037 0.004 0.069 0.022 0.091 0.049l0 0 0.862 1.268c0.018 0.027 0.034 0.022 0.034-0.009l0.021-1.231c0-0.032 0.026-0.057 0.058-0.057 0 0 0.001 0 0.001 0h-0l0.642 0.019c0.031 0 0.057 0.027 0.055 0.060l-0.092 2.37c-0.002 0.033-0.028 0.059-0.060 0.061l-0 0zM10.839 5.487l0.483-0.009c0 0 0.313 0.012 0.313-0.289 0-0.238-0.274-0.22-0.274-0.22l-0.521 0.005c-0.032 0.001-0.058 0.027-0.059 0.059v0.399c0 0 0 0 0 0.001 0 0.031 0.025 0.055 0.055 0.055 0.001 0 0.002-0 0.003-0h-0zM10.819 6.794h0.66c0.016 0 0.233-0.034 0.233-0.269 0-0.195-0.153-0.268-0.294-0.265l-0.599 0.019c-0.032 0.001-0.058 0.027-0.058 0.059 0 0 0 0 0 0.001v-0 0.397c0 0 0 0 0 0.001 0 0.032 0.026 0.057 0.057 0.057 0 0 0 0 0 0v0z"></path>
</svg>
