<!-- Generated by IcoMoon.io -->
<svg version="1.1" xmlns="http://www.w3.org/2000/svg" width="16" height="16" viewBox="0 0 16 16">
<title>line</title>
<path fill="#00c300" d="M12.91 6.575c0.233 0 0.42 0.19 0.42 0.421s-0.187 0.42-0.42 0.42h-1.17v0.75h1.17c0.233 0 0.42 0.189 0.42 0.42 0 0.229-0.187 0.419-0.42 0.419h-1.591c-0.23 0-0.418-0.19-0.418-0.419v-3.181c0-0.23 0.188-0.42 0.42-0.42h1.591c0.231 0 0.418 0.19 0.418 0.42 0 0.233-0.187 0.42-0.42 0.42h-1.17v0.75zM10.34 8.586c0 0.18-0.116 0.34-0.288 0.397-0.043 0.014-0.089 0.021-0.133 0.021-0.141 0-0.261-0.060-0.34-0.167l-1.629-2.211v1.96c0 0.229-0.186 0.419-0.421 0.419-0.231 0-0.417-0.19-0.417-0.419v-3.181c0-0.18 0.115-0.34 0.287-0.397 0.040-0.015 0.091-0.022 0.129-0.022 0.13 0 0.25 0.069 0.33 0.169l1.641 2.22v-1.971c0-0.23 0.188-0.42 0.42-0.42 0.23 0 0.42 0.19 0.42 0.42zM6.513 8.586c0 0.229-0.188 0.419-0.421 0.419-0.23 0-0.418-0.19-0.418-0.419v-3.181c0-0.23 0.188-0.42 0.42-0.42 0.231 0 0.419 0.19 0.419 0.42zM4.869 9.005h-1.591c-0.23 0-0.42-0.19-0.42-0.419v-3.181c0-0.23 0.19-0.42 0.42-0.42 0.232 0 0.42 0.19 0.42 0.42v2.761h1.171c0.232 0 0.419 0.189 0.419 0.42 0 0.229-0.188 0.419-0.419 0.419zM16 6.876c0-3.581-3.59-6.495-8-6.495s-8 2.914-8 6.495c0 3.207 2.847 5.895 6.69 6.405 0.261 0.055 0.615 0.172 0.705 0.393 0.080 0.201 0.053 0.511 0.025 0.72l-0.109 0.68c-0.030 0.201-0.16 0.791 0.699 0.43 0.861-0.359 4.611-2.719 6.291-4.65 1.149-1.259 1.699-2.549 1.699-3.979z"></path>
</svg>
