<!-- Generated by IcoMoon.io -->
<svg version="1.1" xmlns="http://www.w3.org/2000/svg" width="16" height="16" viewBox="0 0 16 16">
<title>linkedin</title>
<path fill="#0077b5" d="M13.631 13.635h-2.369v-3.713c0-0.885-0.018-2.025-1.235-2.025-1.235 0-1.424 0.963-1.424 1.959v3.778h-2.369v-7.635h2.276v1.041h0.031c0.318-0.6 1.091-1.233 2.247-1.233 2.401 0 2.845 1.58 2.845 3.637zM3.558 4.955c-0.763 0-1.375-0.617-1.375-1.377s0.613-1.375 1.375-1.375c0.76 0 1.376 0.617 1.376 1.375s-0.617 1.377-1.376 1.377zM4.746 13.635h-2.376v-7.635h2.376zM14.817 0h-13.636c-0.653 0-1.181 0.516-1.181 1.153v13.695c0 0.637 0.528 1.153 1.181 1.153h13.634c0.652 0 1.185-0.515 1.185-1.153v-13.695c0-0.637-0.533-1.153-1.185-1.153z"></path>
</svg>
