<!-- Generated by IcoMoon.io -->
<svg version="1.1" xmlns="http://www.w3.org/2000/svg" width="16" height="16" viewBox="0 0 16 16">
<title>linode</title>
<path fill="#00a95c" d="M14.667 7.12c0.001-0.004 0.001-0.010 0.001-0.015 0-0.036-0.019-0.067-0.047-0.085l-0-0-2.173-1.213c-0.013-0.008-0.029-0.013-0.047-0.013s-0.033 0.005-0.047 0.013l0-0-1.847 1.127c-0.027 0.020-0.045 0.051-0.047 0.086l-0 0v0.967l-0.753-0.493c-0.014-0.009-0.031-0.015-0.050-0.015s-0.036 0.005-0.050 0.015l0-0-1.080 0.667-0.047-1.093c-0.005-0.033-0.022-0.061-0.046-0.080l-0-0-1.1-0.727 1.007-0.52c0.032-0.019 0.053-0.053 0.053-0.092 0-0 0-0.001 0-0.001v0l-0.18-4.18c-0.002-0.037-0.023-0.069-0.053-0.086l-0.001-0-2.827-1.38h-0.067l-3.88 1.207c-0.035 0.018-0.058 0.054-0.058 0.095 0 0.011 0.002 0.022 0.005 0.032l-0-0.001 0.847 4.153c-0.002 0.008-0.002 0.017-0.002 0.027s0.001 0.019 0.003 0.028l-0-0.001 1.22 0.92-0.84 0.4c-0.033 0.019-0.055 0.053-0.055 0.093 0 0.007 0.001 0.014 0.002 0.021l-0-0.001 0.667 3.133c-0.001 0.007-0.002 0.015-0.002 0.023s0.001 0.016 0.002 0.024l-0-0.001 0.827 0.76-0.533 0.327c-0.026 0.018-0.043 0.048-0.043 0.082 0 0.009 0.001 0.017 0.003 0.025l-0-0.001 0.5 2.427c-0.002 0.007-0.004 0.015-0.004 0.023s0.001 0.016 0.004 0.024l-0-0.001 2 2.147c0.017 0.017 0.041 0.028 0.067 0.028s0.050-0.011 0.067-0.028l0-0 2.613-2.080c0.024-0.019 0.039-0.048 0.040-0.080v-0l-0.047-1.413 0.88 0.733c0.016 0.014 0.037 0.022 0.060 0.022s0.044-0.008 0.060-0.022l-0 0 2.093-1.673c0.019-0.020 0.033-0.045 0.040-0.072l0-0.001 0.060-1.047 0.667 0.447c0.016 0.012 0.035 0.019 0.057 0.019s0.041-0.007 0.057-0.019l-0 0 1.713-1.333c0.019-0.016 0.032-0.040 0.033-0.066l0-0zM8.253 7.22l0.047 1.047 0.080 1.853-2.82 1.913-0.44-3.020zM8.020 1.607l0.167 3.94-3.333 1.727-0.6-4.213zM2.36 5.413l-0.807-3.907 2.493 1.547 0.62 4.133-1.053-0.8zM3.333 10.033l-0.587-2.84 2.187 1.827 0.4 2.92-1.12-1.080zM4.093 13.707l-0.433-2.093 1.927 1.9 0.313 2.107zM6.093 15.707l-0.327-2.22 2.667-1.913 0.093 2.187zM8.667 12.133v-0.72c-0.001-0.029-0.014-0.055-0.033-0.073l-0-0-0.753-0.613 0.667-0.467c0.024-0.017 0.040-0.045 0.040-0.077 0-0.001-0-0.002-0-0.004v0-0.173l0.927 0.707v2.14zM11.627 11.333l-1.907 1.52v-2.147l2.047-1.467zM12.487 10.527l-0.6-0.42 0.060-1.060c0.002-0.006 0.003-0.013 0.003-0.020s-0.001-0.014-0.003-0.021l0 0.001c0.001-0.005 0.002-0.011 0.002-0.017s-0.001-0.012-0.002-0.017l0 0-1.287-0.847v-0.927l2 1.26zM14.187 9.287l-1.52 1.207 0.173-2.040 1.62-1.12z"></path>
</svg>
