<!-- Generated by IcoMoon.io -->
<svg version="1.1" xmlns="http://www.w3.org/2000/svg" width="16" height="16" viewBox="0 0 16 16">
<title>linuxmint</title>
<path fill="#87cf3e" d="M0 1.129v2.795h1.219c0.851 0 1.001 0.577 1.001 1.372l0.007 4.941c0 2.56 2.293 4.634 5.12 4.634h6.976c0.895 0 1.677-0.553 1.677-1.405v-7.662c0-2.56-2.293-4.633-5.122-4.633h-2.937v-0.009zM3.815 2.839h1.401v7.041c0 0.942 0.656 1.673 1.426 1.673l4.78 0.020c0.997 0 1.774-0.673 1.774-1.471l-0.008-3.738c0-0.006 0-0.012 0-0.019 0-0.232-0.099-0.441-0.257-0.588l-0.001-0c-0.149-0.158-0.36-0.256-0.594-0.256-0.006 0-0.012 0-0.019 0l0.001-0c-0.249 0-0.433 0.080-0.612 0.256-0.159 0.147-0.258 0.356-0.258 0.588 0 0.007 0 0.013 0 0.020l-0-0.001v3.199h-1.482v-3.198c0-0.243-0.083-0.432-0.259-0.607-0.147-0.158-0.357-0.256-0.589-0.256-0.008 0-0.016 0-0.023 0l0.001-0c-0.244 0-0.431 0.080-0.609 0.256-0.177 0.175-0.26 0.364-0.26 0.607v3.199h-1.482v-3.199c0-0.633 0.24-1.195 0.695-1.644 0.416-0.421 0.994-0.681 1.633-0.681 0.008 0 0.017 0 0.025 0l-0.001-0c0.625 0 1.168 0.23 1.609 0.647 0.413-0.4 0.977-0.647 1.598-0.647 0.005 0 0.010 0 0.016 0h-0.001c0.636 0 1.202 0.232 1.657 0.681 0.428 0.411 0.694 0.989 0.694 1.628 0 0.006-0 0.011-0 0.017v-0.001l0.006 3.994c-0.070 0.669-0.359 1.263-0.853 1.758h-0.001c-0.529 0.541-1.266 0.876-2.082 0.876-0.012 0-0.024-0-0.036-0l0.002 0h-5.323v-0.025c-0.651-0.069-1.231-0.346-1.713-0.811-0.563-0.55-0.854-1.231-0.854-2.007z"></path>
</svg>
