<!-- Generated by IcoMoon.io -->
<svg version="1.1" xmlns="http://www.w3.org/2000/svg" width="16" height="16" viewBox="0 0 16 16">
<title>linux</title>
<path fill="#fcc624" d="M8.335 0c-0.103 0-0.21 0.005-0.319 0.014-2.818 0.222-2.071 3.205-2.113 4.199-0.051 0.729-0.2 1.303-0.701 2.014-0.59 0.701-1.418 1.833-1.811 3.014-0.185 0.555-0.273 1.123-0.191 1.659-0.026 0.023-0.051 0.045-0.074 0.090-0.173 0.179-0.299 0.401-0.441 0.559-0.133 0.133-0.323 0.178-0.531 0.267-0.209 0.091-0.439 0.179-0.576 0.454-0.060 0.125-0.091 0.262-0.088 0.401 0 0.133 0.018 0.267 0.037 0.357 0.039 0.266 0.077 0.486 0.026 0.647-0.165 0.453-0.186 0.764-0.070 0.99 0.116 0.223 0.357 0.313 0.626 0.401 0.541 0.133 1.273 0.090 1.85 0.399 0.617 0.311 1.244 0.447 1.744 0.313 0.351-0.077 0.647-0.309 0.805-0.63 0.391-0.002 0.82-0.179 1.507-0.223 0.466-0.039 1.049 0.178 1.719 0.133 0.017 0.090 0.042 0.133 0.076 0.223l0.002 0.002c0.261 0.519 0.742 0.755 1.256 0.714s1.061-0.357 1.505-0.871c0.421-0.51 1.122-0.723 1.585-1.002 0.232-0.133 0.419-0.313 0.433-0.569 0.015-0.267-0.133-0.541-0.476-0.918v-0.065l-0.002-0.002c-0.113-0.133-0.167-0.357-0.225-0.617-0.057-0.267-0.121-0.524-0.328-0.697h-0.002c-0.039-0.036-0.082-0.045-0.125-0.090-0.037-0.025-0.081-0.041-0.127-0.043 0.287-0.852 0.176-1.7-0.115-2.463-0.355-0.94-0.977-1.759-1.45-2.322-0.531-0.67-1.051-1.305-1.041-2.246 0.018-1.435 0.158-4.089-2.363-4.093zM8.688 2.27h0.009c0.142 0 0.264 0.041 0.389 0.132 0.127 0.090 0.22 0.221 0.293 0.355 0.070 0.173 0.105 0.306 0.111 0.483 0-0.013 0.004-0.027 0.004-0.039v0.069c-0.001-0.005-0.003-0.010-0.003-0.014l-0.003-0.016c-0.001 0.162-0.035 0.322-0.1 0.471-0.031 0.083-0.079 0.16-0.142 0.223-0.019-0.011-0.038-0.020-0.059-0.028-0.070-0.030-0.133-0.043-0.19-0.089-0.047-0.019-0.097-0.034-0.146-0.044 0.033-0.039 0.097-0.089 0.121-0.132 0.035-0.085 0.055-0.176 0.059-0.268v-0.013c0.001-0.090-0.012-0.181-0.041-0.267-0.030-0.090-0.067-0.134-0.122-0.223-0.056-0.044-0.111-0.088-0.178-0.088h-0.011c-0.062 0-0.117 0.020-0.175 0.088-0.063 0.063-0.111 0.138-0.137 0.223-0.035 0.085-0.056 0.176-0.060 0.267v0.013c0.001 0.059 0.005 0.119 0.013 0.178-0.129-0.045-0.292-0.090-0.405-0.135-0.007-0.043-0.011-0.088-0.012-0.133v-0.013c-0.005-0.176 0.029-0.351 0.1-0.513 0.055-0.146 0.155-0.271 0.287-0.355 0.114-0.086 0.253-0.133 0.396-0.133zM6.713 2.309h0.024c0.095 0 0.18 0.032 0.266 0.090 0.097 0.086 0.176 0.192 0.229 0.31 0.060 0.133 0.094 0.267 0.102 0.445v0.003c0.005 0.089 0.004 0.134-0.001 0.177v0.053c-0.020 0.005-0.037 0.012-0.055 0.016-0.101 0.037-0.183 0.090-0.262 0.133 0.008-0.059 0.009-0.119 0.002-0.178v-0.010c-0.008-0.089-0.026-0.133-0.055-0.222-0.021-0.068-0.059-0.129-0.111-0.178-0.033-0.030-0.077-0.045-0.122-0.043h-0.014c-0.047 0.004-0.087 0.027-0.124 0.088-0.043 0.051-0.070 0.114-0.080 0.18-0.018 0.072-0.023 0.146-0.015 0.221v0.009c0.008 0.090 0.025 0.134 0.054 0.223s0.065 0.133 0.11 0.179c0.007 0.006 0.014 0.012 0.023 0.016-0.047 0.038-0.078 0.047-0.117 0.091-0.025 0.019-0.053 0.040-0.087 0.045-0.069-0.083-0.131-0.173-0.183-0.268-0.064-0.14-0.097-0.292-0.103-0.445-0.011-0.151 0.007-0.301 0.053-0.445 0.037-0.131 0.101-0.253 0.189-0.357 0.085-0.089 0.173-0.133 0.279-0.133zM7.627 3.447c0.221 0 0.488 0.043 0.81 0.266 0.195 0.133 0.349 0.179 0.702 0.312h0.002c0.17 0.091 0.27 0.177 0.319 0.266v-0.087c0.049 0.098 0.052 0.212 0.011 0.313-0.082 0.207-0.344 0.429-0.709 0.562v0.001c-0.179 0.090-0.334 0.222-0.517 0.31-0.184 0.090-0.392 0.195-0.675 0.178-0.101 0.005-0.203-0.010-0.299-0.045-0.073-0.040-0.145-0.084-0.215-0.132-0.13-0.090-0.242-0.221-0.408-0.31v-0.003h-0.003c-0.267-0.164-0.411-0.341-0.457-0.474-0.046-0.179-0.003-0.313 0.129-0.4 0.149-0.090 0.253-0.181 0.322-0.224 0.069-0.049 0.095-0.068 0.117-0.087h0.001v-0.002c0.113-0.135 0.291-0.313 0.559-0.401 0.093-0.024 0.196-0.043 0.311-0.043zM9.493 4.875c0.239 0.945 0.798 2.317 1.157 2.982 0.191 0.356 0.57 1.106 0.735 2.016 0.104-0.003 0.219 0.012 0.342 0.043 0.431-1.114-0.364-2.311-0.726-2.644-0.147-0.134-0.155-0.223-0.082-0.223 0.393 0.356 0.91 1.048 1.097 1.838 0.086 0.357 0.106 0.736 0.014 1.113 0.045 0.019 0.090 0.041 0.137 0.045 0.688 0.356 0.942 0.625 0.82 1.025v-0.029c-0.041-0.002-0.080 0-0.121 0h-0.010c0.101-0.311-0.121-0.55-0.71-0.816-0.61-0.267-1.097-0.224-1.181 0.31-0.005 0.029-0.008 0.044-0.011 0.090-0.045 0.015-0.093 0.035-0.139 0.043-0.287 0.179-0.441 0.446-0.529 0.791-0.087 0.355-0.113 0.771-0.137 1.246v0.002c-0.014 0.223-0.114 0.559-0.213 0.901-1 0.715-2.387 1.025-3.566 0.223-0.074-0.129-0.164-0.249-0.268-0.355-0.049-0.083-0.112-0.158-0.183-0.223 0.121 0 0.225-0.019 0.31-0.045 0.097-0.045 0.171-0.125 0.209-0.223 0.072-0.178 0-0.465-0.23-0.775s-0.621-0.663-1.192-1.014c-0.42-0.266-0.657-0.58-0.767-0.931-0.11-0.356-0.095-0.723-0.010-1.097 0.163-0.713 0.582-1.407 0.849-1.842 0.071-0.043 0.025 0.090-0.272 0.649-0.264 0.501-0.761 1.665-0.081 2.569 0.025-0.659 0.172-1.31 0.431-1.917 0.376-0.852 1.162-2.336 1.224-3.512 0.032 0.024 0.145 0.090 0.193 0.135 0.145 0.089 0.253 0.222 0.393 0.31 0.141 0.134 0.318 0.223 0.584 0.223 0.026 0.002 0.050 0.004 0.074 0.004 0.274 0 0.486-0.089 0.664-0.179 0.193-0.089 0.347-0.223 0.493-0.267h0.003c0.311-0.090 0.557-0.268 0.697-0.467zM10.951 10.847c0.025 0.401 0.229 0.83 0.588 0.918 0.392 0.089 0.956-0.222 1.194-0.51l0.141-0.006c0.21-0.005 0.385 0.007 0.565 0.178l0.002 0.002c0.139 0.133 0.203 0.354 0.261 0.584 0.057 0.267 0.103 0.52 0.273 0.711 0.324 0.351 0.43 0.604 0.424 0.76l0.002-0.004v0.012l-0.002-0.008c-0.010 0.175-0.123 0.264-0.332 0.397-0.42 0.267-1.164 0.475-1.638 1.047-0.412 0.491-0.914 0.759-1.357 0.794s-0.825-0.133-1.049-0.599l-0.003-0.002c-0.14-0.267-0.080-0.683 0.037-1.127 0.117-0.445 0.285-0.897 0.309-1.265 0.025-0.476 0.051-0.89 0.13-1.209 0.080-0.31 0.205-0.531 0.427-0.656zM3.741 10.88h0.007c0.035 0 0.070 0.003 0.105 0.009 0.251 0.037 0.471 0.222 0.682 0.501l0.607 1.109 0.002 0.002c0.162 0.355 0.503 0.709 0.793 1.092 0.289 0.399 0.513 0.754 0.486 1.047v0.004c-0.038 0.496-0.319 0.765-0.75 0.863-0.43 0.090-1.013 0.001-1.597-0.309-0.645-0.357-1.412-0.313-1.905-0.401-0.246-0.044-0.407-0.134-0.482-0.267s-0.075-0.401 0.082-0.82v-0.002l0.001-0.002c0.078-0.223 0.020-0.502-0.018-0.746-0.037-0.267-0.055-0.473 0.029-0.627 0.107-0.223 0.264-0.266 0.459-0.355 0.197-0.090 0.427-0.135 0.611-0.313h0.001v-0.002c0.171-0.179 0.297-0.401 0.445-0.559 0.127-0.134 0.253-0.224 0.442-0.224zM8.513 4.831c-0.29 0.134-0.63 0.357-0.992 0.357s-0.647-0.178-0.853-0.311c-0.103-0.089-0.187-0.179-0.249-0.223-0.109-0.089-0.096-0.223-0.049-0.223 0.073 0.011 0.086 0.090 0.133 0.134 0.064 0.044 0.143 0.133 0.241 0.222 0.194 0.133 0.453 0.311 0.777 0.311s0.702-0.178 0.932-0.311c0.13-0.090 0.297-0.223 0.432-0.311 0.104-0.091 0.099-0.179 0.186-0.179 0.086 0.011 0.023 0.089-0.098 0.222-0.121 0.090-0.307 0.223-0.46 0.312zM7.792 3.775v-0.015c-0.004-0.013 0.009-0.028 0.019-0.033 0.049-0.029 0.12-0.018 0.173 0.003 0.042 0 0.107 0.045 0.1 0.090-0.004 0.033-0.057 0.044-0.090 0.044-0.037 0-0.061-0.029-0.094-0.045-0.035-0.012-0.097-0.005-0.109-0.043zM7.425 3.775c-0.013 0.039-0.075 0.033-0.111 0.044-0.031 0.017-0.057 0.045-0.093 0.045-0.034 0-0.087-0.013-0.091-0.045-0.006-0.044 0.059-0.089 0.1-0.089 0.054-0.021 0.123-0.031 0.173-0.003 0.013 0.006 0.024 0.020 0.020 0.033v0.014z"></path>
</svg>
