<!-- Generated by IcoMoon.io -->
<svg version="1.1" xmlns="http://www.w3.org/2000/svg" width="16" height="16" viewBox="0 0 16 16">
<title>livestream</title>
<path fill="#cf202e" d="M13.991 4.165l0.027 0.001 0.026 0.004 0.027 0.007 0.026 0.010 0.025 0.013 0.026 0.015 0.023 0.020 0.023 0.019 0.025 0.030 0.031 0.030 0.020 0.030 0.029 0.030 0.050 0.079 0.019 0.040 0.019 0.050 0.020 0.049 0.021 0.049 0.019 0.049 0.039 0.12 0.020 0.060 0.021 0.059 0.019 0.069 0.019 0.069 0.021 0.070 0.020 0.069 0.039 0.139 0.020 0.080 0.020 0.079 0.019 0.090 0.010 0.080 0.019 0.089 0.020 0.089 0.011 0.090 0.019 0.099 0.010 0.099 0.010 0.099 0.021 0.099 0.010 0.099 0.011 0.099 0.010 0.11 0.010 0.109 0.010 0.109 0.010 0.11 0.010 0.109 0.011 0.119 0.010 0.229 0.011 0.119 0.010 0.119 0.020 0.24 0.030 0.386 0.011 0.13 0.010 0.129v0.259l0.011 0.139 0.010 0.139v0.269l0.010 0.139v0.407l0.010 0.279 0.010 0.417v0.846l0.010 0.249 0.020 0.179 0.031 0.119 0.029 0.079 0.031 0.069 0.039 0.060 0.030 0.029 0.030 0.030 0.029 0.030 0.041 0.019 0.059 0.031 0.059 0.019 0.064 0.020 0.095 0.019 0.129 0.007 0.179-0.011h0.067v1.502l-0.159 0.019-0.377 0.017-0.407-0.019-0.299-0.045-0.229-0.059-0.169-0.059-0.158-0.079-0.157-0.1-0.139-0.123-0.089-0.089-0.091-0.099-0.113-0.179-0.1-0.209-0.079-0.228-0.055-0.269-0.036-0.304-0.010-0.339v-1.292l-0.010-0.279v-0.577l-0.010-0.268v-0.191l-0.011-0.133v-0.265l-0.010-0.129v-0.129l-0.005-0.129-0.010-0.129-0.009-0.119-0.002-0.12-0.010-0.119-0.010-0.122v-0.119l-0.010-0.12-0.011-0.119-0.008-0.119-0.009-0.113-0.011-0.113-0.010-0.109-0.010-0.113-0.010-0.107-0.009-0.109-0.010-0.109-0.011-0.1-0.010-0.099-0.011-0.105-0.010-0.094-0.010-0.090-0.029-0.185-0.011-0.089-0.010-0.090-0.020-0.083-0.017-0.090-0.019-0.079-0.020-0.080-0.021-0.079-0.023-0.069-0.019-0.069-0.017-0.069-0.030-0.060-0.019-0.069-0.019-0.059-0.015-0.060-0.019-0.059-0.021-0.060-0.020-0.049-0.019-0.051-0.019-0.049-0.020-0.039-0.020-0.041-0.019-0.040-0.029-0.040-0.020-0.030-0.024-0.030-0.021-0.029-0.027-0.020-0.019-0.019-0.031-0.020-0.019-0.010-0.031-0.011-0.033-0.008-0.029-0.011-0.020-0.010h1.681zM0.005 2.055l0.779 0.014 0.726 0.017 0.647 0.010 0.567 0.020 0.487 0.019 0.428 0.019 0.378 0.020 0.337 0.019 0.309 0.031 0.279 0.029 0.258 0.031 0.238 0.029 0.428 0.060 0.189 0.041 0.18 0.039 0.168 0.039 0.16 0.040 0.149 0.040 0.139 0.040 0.129 0.050 0.129 0.039 0.119 0.049 0.109 0.051 0.111 0.049 0.099 0.049 0.109 0.049 0.099 0.060 0.18 0.12 0.079 0.059 0.238 0.18 0.069 0.060 0.069 0.069 0.069 0.060 0.070 0.069 0.12 0.139 0.069 0.070 0.12 0.139 0.049 0.069 0.060 0.070 0.049 0.079 0.049 0.069 0.049 0.079 0.050 0.080 0.049 0.079 0.049 0.080 0.040 0.079 0.041 0.079 0.049 0.079 0.12 0.238 0.040 0.080 0.030 0.079 0.032 0.080 0.040 0.090 0.033 0.079 0.040 0.090 0.040 0.079 0.029 0.079 0.041 0.090 0.036 0.090 0.029 0.079 0.034 0.089 0.030 0.080 0.030 0.089 0.060 0.18 0.030 0.089 0.029 0.090 0.020 0.089 0.030 0.090 0.026 0.090 0.019 0.089 0.026 0.090 0.019 0.090 0.027 0.089 0.019 0.089 0.030 0.090 0.019 0.079 0.030 0.090v0.009l0.019 0.080 0.021 0.085 0.019 0.089 0.019 0.090 0.020 0.079 0.020 0.090 0.019 0.089 0.030 0.080 0.019 0.089 0.020 0.079 0.020 0.090 0.039 0.159 0.020 0.080 0.020 0.079 0.019 0.080 0.040 0.159 0.039 0.159 0.040 0.159 0.009 0.080 0.020 0.069 0.031 0.149 0.019 0.070 0.019 0.069 0.020 0.069 0.015 0.069 0.019 0.069 0.011 0.069 0.019 0.069 0.020 0.069 0.010 0.069 0.019 0.070 0.020 0.060 0.020 0.065 0.010 0.059 0.020 0.060 0.010 0.060 0.010 0.059 0.010 0.060 0.010 0.050 0.011 0.060 0.010 0.057 0.011 0.050 0.009 0.049 0.011 0.052 0.016 0.049 0.010 0.049 0.010 0.050 0.010 0.045 0.011 0.040 0.015 0.049 0.015 0.041 0.011 0.043 0.010 0.040 0.011 0.040 0.030 0.12 0.010 0.030 0.020 0.034 0.020 0.060 0.011 0.029 0.019 0.031 0.010 0.029 0.025 0.050 0.010 0.025 0.020 0.041 0.010 0.019 0.010 0.020 0.010 0.019 0.011 0.020 0.030 0.030 0.011 0.010 0.010 0.011 0.019 0.011 0.011 0.003 0.010 0.010h-4.665l-0.034-0.010-0.038-0.011-0.038-0.009-0.040-0.011-0.040-0.010h-0.011l-0.035-0.016-0.037-0.010-0.038-0.021-0.041-0.020-0.029-0.019-0.040-0.020-0.030-0.019-0.041-0.020-0.059-0.060-0.041-0.030-0.030-0.030-0.040-0.029-0.040-0.040-0.040-0.037-0.029-0.040-0.041-0.036-0.040-0.030-0.040-0.040-0.041-0.040-0.029-0.040-0.041-0.003-0.039-0.040-0.030-0.045-0.036-0.043-0.079-0.099-0.039-0.050-0.030-0.049-0.041-0.060-0.039-0.049-0.041-0.060-0.040-0.050-0.040-0.059-0.080-0.12-0.041-0.060-0.039-0.060-0.041-0.060-0.040-0.059-0.040-0.069-0.039-0.060-0.031-0.069-0.040-0.070-0.040-0.069-0.040-0.070-0.041-0.069-0.039-0.069-0.080-0.139-0.041-0.069-0.039-0.069-0.041-0.069-0.039-0.069-0.041-0.079-0.040-0.080-0.040-0.079-0.041-0.080-0.039-0.079-0.041-0.079-0.039-0.079-0.040-0.079-0.090-0.019-0.033-0.084-0.039-0.082-0.041-0.082-0.039-0.083-0.043-0.083-0.040-0.085-0.040-0.079-0.043-0.079-0.040-0.079-0.042-0.079-0.040-0.079-0.040-0.1-0.040-0.089-0.042-0.079-0.042-0.080-0.040-0.089-0.042-0.079-0.041-0.090-0.040-0.079-0.040-0.090-0.080-0.179-0.039-0.089-0.039-0.090-0.041-0.079-0.039-0.089-0.039-0.089-0.039-0.090-0.040-0.090-0.040-0.089-0.079-0.179-0.040-0.099-0.040-0.080-0.039-0.089-0.041-0.080-0.040-0.079-0.049-0.079-0.040-0.090-0.049-0.080-0.040-0.079-0.049-0.080-0.041-0.079-0.039-0.080-0.080-0.159-0.039-0.091-0.080-0.159-0.040-0.079-0.041-0.079-0.099-0.159-0.090-0.153-0.039-0.079-0.049-0.073-0.051-0.080-0.039-0.075-0.041-0.069-0.083-0.139-0.049-0.071-0.041-0.069-0.039-0.070-0.041-0.059-0.040-0.070-0.042-0.069-0.044-0.060-0.039-0.060-0.049-0.060-0.051-0.059-0.039-0.059-0.050-0.060-0.059-0.078-0.045-0.051-0.046-0.052-0.039-0.049-0.039-0.067-0.049-0.049-0.044-0.040-0.050-0.046-0.041-0.043-0.050-0.054-0.087-0.080-0.045-0.039-0.045-0.035-0.046-0.030-0.047-0.030-0.043-0.039-0.050-0.031-0.040-0.029-0.049-0.029-0.045-0.020-0.045-0.020-0.047-0.020-0.047-0.020-0.045-0.021-0.039-0.015-0.040-0.004h0.005z"></path>
</svg>
