<!-- Generated by IcoMoon.io -->
<svg version="1.1" xmlns="http://www.w3.org/2000/svg" width="16" height="16" viewBox="0 0 16 16">
<title>livejournal</title>
<path fill="#00b0ea" d="M12.060 9.797c-1.008 0.443-1.817 1.257-2.254 2.266l2.847 0.589-0.591-2.855zM1.65 5.545l-1.65-1.645c0.75-1.742 2.144-3.14 3.882-3.9h0.004l1.646 1.642c0.912-0.394 1.917-0.614 2.975-0.614 4.137 0 7.493 3.351 7.493 7.486s-3.355 7.486-7.493 7.486c-4.14 0-7.494-3.349-7.494-7.486 0-1.061 0.237-2.054 0.635-2.967l6.095 6.076c0.75-1.742 2.145-3.14 3.882-3.9l-6.095-6.080c-1.737 0.76-3.13 2.16-3.882 3.9z"></path>
</svg>
