<!-- Generated by IcoMoon.io -->
<svg version="1.1" xmlns="http://www.w3.org/2000/svg" width="16" height="16" viewBox="0 0 16 16">
<title>llvm</title>
<path d="M13.887 1.984l-0.057 0.063c-0.269 0.298-0.53 0.621-0.771 0.959l-0.022 0.033c-0.101 0.138-0.2 0.295-0.287 0.459l-0.010 0.021c-0.065 0.114-0.121 0.246-0.163 0.384l-0.003 0.014c-0.014 0.035-0.022 0.076-0.022 0.118v0.003c-0.082 0.026-0.14 0.101-0.14 0.189 0 0.001 0 0.003 0 0.004v-0c-0 0.001-0 0.003-0 0.004 0 0.083 0.051 0.155 0.123 0.185l0.001 0c0.025 0.247 0.053 0.761 0.047 1.467l-0.003 0.095c-0.021 0.562-0.125 1.092-0.301 1.589l0.012-0.037c-0.011-0.007-0.020-0.009-0.027-0.009-0.020 0.002-0.074 0.080-0.127 0.167-0.039 0.060-0.079 0.13-0.103 0.194-0.012 0.027-0.019 0.059-0.020 0.093v0c-0 0.003-0 0.007-0 0.011 0 0.017 0.003 0.033 0.007 0.049l-0-0.001c0.007 0.025 0.015 0.039 0.015 0.039-0.012 0.031-0.013 0.032-0.013 0.034l0.011-0.029c-0.010 0.012-0.016 0.028-0.019 0.044l-0 0.001-0.008 0.019c-0.064 0.147-0.122 0.262-0.184 0.375l0.012-0.023-0.051 0.095c-0.027 0.046-0.042 0.071-0.058 0.096l0.011-0.019c-0.004-0.003-0.009-0.006-0.014-0.009l-0.001-0c-0.005-0.001-0.011-0.001-0.017-0.001-0.022 0-0.042 0.006-0.059 0.018l0-0c-0.031 0.023-0.101 0.129-0.332 0.245-0.079 0.039-0.151 0.062-0.213 0.076 0.083-0.402 0.142-0.876 0.165-1.359l0.001-0.021c0.002-0.045 0.003-0.097 0.003-0.149 0-0.196-0.017-0.389-0.049-0.576l0.003 0.020c0.002-0.007 0.002-0.011 0.002-0.011l-0.003 0.007c-0.021-0.122-0.045-0.225-0.074-0.326l0.005 0.020c-0.097-0.357-0.263-0.666-0.485-0.927l0.003 0.003c-0.421-0.503-0.997-0.76-1.504-0.777l-0.083-0.001c0-0.005 0-0.010 0.001-0.015 0.014-0.065 0.016-0.085-0.058-0.021-0.014 0.012-0.026 0.024-0.038 0.036l-0 0c-0.035 0.001-0.067 0.003-0.097 0.005-0.002-0.015-0.003-0.032-0.003-0.049 0-0.008 0-0.016 0.001-0.024l-0 0.001c0.003-0.051 0.016-0.085-0.058-0.021-0.038 0.030-0.070 0.067-0.094 0.109l-0.001 0.002c-0.033 0.005-0.053 0.010-0.053 0.010l0.030-0.001-0.031 0.005c-0.011-0.028-0.035-0.070-0.032-0.107 0.007-0.079 0.029-0.093-0.025-0.043-0.065 0.060-0.135 0.151-0.147 0.199l-0.064 0.020c-0.012-0.012-0.049-0.047-0.057-0.119-0.009-0.073-0.008-0.111-0.053-0.034-0.039 0.067-0.069 0.145-0.086 0.228l-0.001 0.005c-0.021 0.010-0.042 0.020-0.062 0.031-0.024-0.030-0.038-0.069-0.038-0.111 0-0.002 0-0.003 0-0.005v0c-0.003-0.096 0.027-0.174-0.045-0.045-0.041 0.078-0.075 0.168-0.096 0.263l-0.001 0.007c-0.024 0.017-0.047 0.034-0.070 0.053-0.003-0.033-0.005-0.072-0.005-0.112l-0-0.001c-0.001-0.095 0.014-0.197-0.045-0.017-0.017 0.053-0.035 0.128-0.047 0.214-0.269 0.257-0.433 0.611-0.429 1.048v0.005c-0.001 0.078 0.003 0.152 0.009 0.22 0.013 0.159 0.038 0.292 0.071 0.403-0.063 0.087-0.069 0.459-0.007 0.545 0.049 0.069 0.331 0.233 0.391 0.266 0.025 0.017 0.045 0.038 0.062 0.061l0.001 0.001c0.077 0.125 0.077 0.378 0.018 0.508-0.071 0.159 0.071 0.19 0.19 0.213s0.277-0.015 0.309-0.079c0.031-0.063-0.103-0.206-0.158-0.499s0.087-0.316 0.087-0.316 0.063 0.016 0.158 0.166c0.073 0.117 0.151 0.209 0.224 0.275-0.037 0.046-0.082 0.084-0.132 0.113l-0.002 0.001c0.080 0.003 0.16-0.034 0.203-0.058 0.013 0.010 0.029 0.020 0.045 0.029l0.003 0.001c-0.011 0.012-0.022 0.022-0.033 0.033l-0 0c0.027-0.002 0.051-0.008 0.074-0.015l-0.002 0.001c0.016 0.007 0.035 0.012 0.055 0.015l0.001 0c0.103 0.008 0.38-0.245 0.38-0.293 0-0.012-0.010-0.027-0.025-0.042-0.028-0.030-0.080-0.067-0.138-0.118-0.026-0.024-0.050-0.049-0.072-0.076l-0.001-0.001c-0.052-0.069-0.086-0.155-0.094-0.248l-0-0.002v-0.007l-0.002-0.021c0 0 0.005-0.005 0.011-0.013v0.003l0.003-0.007c0.035-0.053 0.1-0.253-0.313-0.719-0.171-0.192-0.375-0.35-0.604-0.465l-0.012-0.005c-0.028-0.315 0.1-0.609 0.417-0.753l-0.003 0.003 0.005-0.004c0.151-0.068 0.345-0.103 0.585-0.091 0.46 0.024 0.813 0.239 1.060 0.563 0.343 0.475 0.492 1.187 0.383 1.904-0.045 0.043-0.037 0.050-0.009 0.051-0.014 0.081-0.026 0.142-0.041 0.203l0.004-0.021-0.018 0.010c-0.082 0.049-0.047 0.049 0 0.061l-0.004 0.013c-0.013 0.043-0.029 0.087-0.044 0.129-0.024 0.007-0.043 0.014-0.062 0.022l0.004-0.002c-0.090 0.035-0.053 0.040-0.008 0.061l0.029 0.015c-0.021 0.053-0.044 0.107-0.067 0.158-0.021 0.003-0.039 0.007-0.057 0.012l0.004-0.001c-0.095 0.024-0.059 0.033-0.016 0.060 0.010 0.006 0.019 0.012 0.028 0.019l-0.001-0.001c-0.035 0.074-0.059 0.121-0.083 0.167l0.012-0.024c-0.037 0.002-0.072 0.008-0.106 0.018l0.004-0.001c-0.093 0.024-0.058 0.033-0.015 0.060 0.023 0.013 0.040 0.027 0.054 0.039-0.034 0.063-0.055 0.099-0.077 0.134l0.013-0.024-0.015 0.024c-0.007-0-0.015-0.001-0.024-0.001-0.040 0-0.080 0.006-0.116 0.017l0.003-0.001c-0.095 0.024-0.059 0.033-0.016 0.060 0.026 0.016 0.049 0.034 0.070 0.053l-0-0c-0.040 0.059-0.067 0.098-0.095 0.137l0.011-0.017c-0.025-0.007-0.054-0.010-0.084-0.010-0.025 0-0.049 0.003-0.072 0.008l0.002-0c-0.096 0.013-0.061 0.027-0.022 0.057 0.045 0.035 0.067 0.066 0.079 0.079l-0.041 0.056c-0.029-0.039-0.099-0.083-0.164-0.129-0.055-0.039-0.12-0.069-0.189-0.086l-0.004-0.001c-0.032 0-0.133 0.179-0.678 0.131s-0.58-0.1-0.628-0.1c-0.047 0-0.149 0.038-0.152 0.039l-0.023-0.013c-0.25-0.155-0.461-0.303-0.664-0.462l0.016 0.012c-0.309-0.247-0.48-0.431-0.48-0.431s0.091-0.083-0.031-0.189c-0.068-0.064-0.142-0.124-0.219-0.18l-0.007-0.004c-0.047-0.038-0.1-0.074-0.155-0.107l-0.007-0.004c-0.015-0.020-0.035-0.048-0.053-0.076l-0.005-0.009c-0.066-0.102-0.146-0.239-0.222-0.379l-0.020-0.040c-0.041-0.075-0.096-0.19-0.149-0.307l-0.018-0.044c-0.107-0.24-0.18-0.455-0.231-0.643-0.046-0.177-0.081-0.387-0.098-0.602l-0.001-0.013c-0.001-0.017-0.001-0.036-0.001-0.056 0-0.037 0.001-0.074 0.004-0.11l-0 0.005c0.064-0.051 0.105-0.128 0.105-0.215v-0c-0-0.139-0.103-0.253-0.237-0.271l-0.001-0c-0.136-0.285-0.655-0.985-2.588-2.453l-0.085-0.065 0.003 0.003-0.024-0.018c1.969 1.687 2.353 2.346 2.455 2.621-0.006 0.007-0.012 0.014-0.017 0.021l-0.001 0.001c0.032 0.022 0.028 0.019 0.024 0.016l-0.036-0.025c0.012 0 0.017-0.003 0.017-0.003s-0.448-0.364-1.191-0.82c-0.746-0.458-1.166-0.566-1.253-0.585l-0.018-0.004c0 0 0.137 0.127 0.116 0.19-0.007 0.021-0.112 0.015-0.281 0.019-0.171 0.001-0.338 0.018-0.5 0.049l0.017-0.003c-0.396 0.071-0.747 0.218-1.054 0.426l0.010-0.006c-0.87 0.579-1.029 0.991-1.029 0.991s0.367-0.512 1.053-0.87c-0.009 0.225-0.031 1.313 0.297 2.747 0.354 1.547 1.021 2.991 1.076 3.11 0.003 0.119 0.011 0.181 0.011 0.181s0.099-1.193 0.504-2.431c0.117 0.189 0.505 0.745 1.384 1.397 1.085 0.807 1.58 1.024 1.6 1.032 0.001 0.105 0.003 0.16 0.003 0.16s0.003-0.067 0.012-0.175c0.029-0.043 0.199-0.287 0.368-0.447 0.107-0.105 0.225-0.201 0.351-0.284l0.009-0.005c0.021 0.073 0.042 0.136 0.062 0.184-0.013-0.065-0.024-0.127-0.035-0.188 0.071 0.007 0.359 0.044 0.804 0.262 0.229 0.112 0.406 0.263 0.532 0.397-0.004 0.001-0.007 0.003-0.010 0.004l0.001-0c0 0 0.082 0.075 0.179 0.269-0.018-0.001-0.040-0.001-0.061-0.001-0.151 0-0.298 0.021-0.437 0.060l0.011-0.003c-0.025-0.054-0.047-0.095-0.070-0.135l0.005 0.009c-0.005-0.034-0.014-0.064-0.027-0.092l0.001 0.002c-0.018-0.041-0.063-0.067-0.109-0.093-0.020-0.019-0.043-0.036-0.068-0.048l-0.002-0.001c-0.015-0.013-0.028-0.030-0.036-0.048l-0-0.001c-0.056-0.123-0.532 0.008-0.628 0.12-0.117 0.136-0.139 0.309-0.093 0.405 0.014 0.030 0.047 0.055 0.092 0.073 0.001 0.147 0.091 0.5 0.269 0.756-0.031-0.125-0.056-0.277-0.071-0.431l-0.001-0.013c-0.006-0.107 0-0.183 0.010-0.233 0.031 0.219 0.116 0.456 0.385 0.75-0.165-0.36-0.147-0.575-0.13-0.763l0.006-0.029 0.004-0.001c0.024 0.175 0.095 0.356 0.321 0.643-0.003-0.005-0.006-0.011-0.009-0.017l-0.001-0.002 0.009 0.014c-0.080-0.147-0.126-0.322-0.126-0.508 0-0.063 0.005-0.125 0.016-0.185l-0.001 0.006 0.005-0.002c0.031 0.020 0.061 0.047 0.089 0.084 0.085 0.115 0.125 0.233 0.141 0.313-0.005 0.022-0.007 0.046-0.007 0.072 0 0.068 0.019 0.132 0.053 0.186l-0.001-0.002c-0.163 0.119-0.323 0.231-0.48 0.334-0.153 0.099-0.327 0.209-0.505 0.313-0.093 0.053-0.186 0.105-0.276 0.153l-0.090-0.051h0.001l-0.005-0.003c-0.647-0.373-1.127-0.621-1.679-0.721-0.621-0.111-1.191 0.189-1.322 0.721-0.015 0.060-0.024 0.13-0.024 0.201 0 0.3 0.155 0.564 0.389 0.717l0.003 0.002 0.008 0.005c0.009 0.007 0.017 0.011 0.027 0.017l0.040 0.024h0.001c0.128 0.073 0.283 0.127 0.461 0.158l0.019 0.003h0.004c0.079 0.014 0.173 0.024 0.269 0.029l0.005 0c0.65 0.031 1.437-0.272 2.215-0.655 0.067 0.036 0.135 0.072 0.204 0.111 1.698 0.935 2.732 1.057 4.103 0.485-0.335 0.101-0.805 0.237-1.396 0.229-0.004-0.002-0.008-0.004-0.013-0.004l-0-0 0.001 0.004c-0.155-0.003-0.305-0.015-0.451-0.036l0.019 0.002v-0.001l-0.020-0.002v-0.002c0-0.001 0-0-0 0l-0 0.001c-0.388-0.057-0.737-0.159-1.064-0.301l0.027 0.010c-0.202-0.085-0.365-0.166-0.523-0.255l0.026 0.013c-0.412-0.223-0.632-0.348-0.849-0.476l0.179 0.097c0.232-0.119 0.461-0.242 0.684-0.363 0.237-0.126 0.448-0.241 0.612-0.333l0.006-0.003 0.005-0.001c0 0 0.055-0.012 0.107-0.028 0.113-0.035 0.273-0.099 0.463-0.189 0.019 0.078 0.063 0.143 0.13 0.169 0.157 0.061 0.271 0.018 0.348-0.068l0.012-0.007 0.031-0.025c0.033-0.020 0.071-0.045 0.104-0.060 0.007-0.003 0.018-0.008 0.030-0.013l0.005-0.002c0.027-0.007 0.052-0.015 0.077-0.025l0.022-0.007c-0.097 0.198-0.061 0.387-0.061 0.387 0.029-0.247 0.147-0.405 0.261-0.477 0.043-0.018 0.087-0.033 0.133-0.045 0.043 0 0.077 0.015 0.096 0.047 0.047 0.080 0.145 0.129 0.243 0.151 0.016 0.1-0.030 0.269-0.267 0.577l0.060-0.041 0.003-0.002 0.048-0.035c0.095-0.072 0.168-0.14 0.223-0.203 0.053-0.057 0.096-0.125 0.126-0.199l0.002-0.004c0.008 0.133-0.029 0.338-0.207 0.691 0 0 0.211-0.184 0.343-0.42 0.004 0.127-0.007 0.295-0.042 0.523 0.23-0.449 0.217-0.723 0.159-0.884l-0.007-0.024c-0.001-0.016-0.004-0.031-0.007-0.045l0 0.002 0.028-0.038c0.079-0.111-0.032-0.229-0.103-0.277-0.040-0.027-0.133-0.103-0.303-0.105-0.15-0.18-0.34-0.1-0.639 0.097-0.031 0.021-0.068 0.042-0.105 0.060l-0.005 0.002c-0.011-0.030-0.023-0.056-0.038-0.080l0.001 0.002c0.107-0.064 0.217-0.133 0.329-0.205 0.211-0.138 0.369-0.277 0.485-0.41 0.34-0.345 0.46-0.68 0.807-0.964l-0.009 0.001 0.040-0.021c0.569-0.305 0.871-0.365 0.893-0.369l-0.002 0.085 0.012-0.083c0.124 0.061 0.229 0.138 0.321 0.229l0 0c0.093 0.094 0.173 0.2 0.238 0.317l0.004 0.007 0.029 0.201c0 0 0-0.078-0.007-0.22 0.102-0.101 0.68-0.696 1.149-1.645 0.463-0.936 0.629-1.682 0.678-1.949 0.163 0.449 0.316 1.001 0.43 1.566l0.013 0.078c0 0-0.001-0.089-0.021-0.249 0.065-0.224 0.344-1.248 0.418-2.504 0.067-1.121-0.043-1.853-0.093-2.116 0.432 0.358 0.663 0.871 0.663 0.871s-0.027-0.109-0.125-0.291l0.013 0.018c0 0-0.157-0.303-0.429-0.603-0.037-0.043-0.072-0.080-0.106-0.117l0.002 0.002c-0.288-0.306-0.569-0.411-0.78-0.448-0.067-0.013-0.135-0.020-0.205-0.020h-0.013c-0.083-0.002-0.134 0.001-0.138-0.017-0.013-0.063 0.073-0.19 0.073-0.19s-0.118 0.031-0.369 0.22c-0.153 0.111-0.347 0.273-0.569 0.507-0.203 0.205-0.397 0.422-0.58 0.647l-0.063 0.080c-0.005-0.004-0.010-0.008-0.015-0.011l-0.001-0c0.051-0.221 0.241-0.745 1.191-2.071zM7.947 9.393c0.004 0.002 0.007 0.003 0.009 0.005l-0.001-0.001zM7.771 11.131c0.059 0.029 0.127 0.071 0.202 0.129h-0.003c-0.039 0.010-0.074 0.026-0.104 0.047l0.001-0.001c-0.033-0.043-0.061-0.092-0.082-0.145l-0.002-0.004zM4.535 12.177c0.088 0 0.184 0.009 0.288 0.032l0.013 0.003 0.011 0.003c0.073 0.018 0.149 0.041 0.225 0.068l0.038 0.014c0.127 0.049 0.263 0.104 0.407 0.165 0.213 0.093 0.413 0.185 0.559 0.25l0.122 0.059c-0.147 0.071-0.283 0.131-0.385 0.174-0.676 0.277-1.22 0.357-1.559 0.261-0.63-0.179-0.507-1.024 0.28-1.029z"></path>
</svg>
