<!-- Generated by IcoMoon.io -->
<svg version="1.1" xmlns="http://www.w3.org/2000/svg" width="16" height="16" viewBox="0 0 16 16">
<title>loop</title>
<path fill="#f29400" d="M8 0c-4.419 0-8 3.581-8 8s3.581 8 8 8 8-3.581 8-8c0.007-4.419-3.581-8-8-8zM8.467 15.074c-3.909 0-7.074-3.165-7.074-7.074s3.165-7.074 7.074-7.074 7.074 3.165 7.074 7.074-3.165 7.074-7.074 7.074zM4.697 2.275c-3.165 1.823-4.244 5.863-2.421 9.028 1.823 3.158 5.871 4.244 9.028 2.421 3.165-1.823 4.244-5.871 2.421-9.028-1.823-3.165-5.863-4.245-9.028-2.421zM11.245 12.689c-2.72 1.568-6.191 0.635-7.759-2.079-1.568-2.72-0.635-6.191 2.079-7.759 2.72-1.568 6.191-0.635 7.759 2.079s0.641 6.191-2.079 7.759zM3.486 5.389c-1.444 2.494-0.583 5.688 1.911 7.125 2.494 1.444 5.688 0.583 7.132-1.911s0.583-5.688-1.911-7.125c-2.501-1.437-5.695-0.583-7.132 1.911zM12.047 9.801c-1.218 2.107-3.909 2.829-6.017 1.611s-2.829-3.909-1.612-6.017 3.909-2.829 6.017-1.612c2.108 1.211 2.83 3.91 1.612 6.017zM4.062 8c0 2.181 1.765 3.945 3.945 3.945s3.945-1.765 3.945-3.945-1.765-3.945-3.945-3.945-3.945 1.765-3.945 3.945zM11.136 7.533c0 1.729-1.4 3.129-3.129 3.129s-3.129-1.4-3.129-3.129 1.4-3.129 3.129-3.129c1.721 0 3.129 1.4 3.129 3.129z"></path>
</svg>
