<!-- Generated by IcoMoon.io -->
<svg version="1.1" xmlns="http://www.w3.org/2000/svg" width="16" height="16" viewBox="0 0 16 16">
<title>lua</title>
<path fill="#2c2d72" d="M0.253 6.918l-0.181-0.025c-0.032 0.229-0.055 0.463-0.067 0.694l0.183 0.011c0.012-0.227 0.034-0.455 0.065-0.68zM2.757 2.193l-0.123-0.137c-0.172 0.155-0.339 0.32-0.497 0.489l0.135 0.125c0.154-0.165 0.317-0.327 0.485-0.478zM3.846 1.373l-0.097-0.157c-0.197 0.124-0.391 0.257-0.575 0.396l0.111 0.146c0.18-0.135 0.369-0.266 0.562-0.385zM1.216 12.246c0.123 0.198 0.256 0.391 0.395 0.575l0.147-0.109c-0.137-0.181-0.266-0.37-0.387-0.563zM0.751 10.935l-0.17 0.069c0.086 0.212 0.183 0.423 0.287 0.629l0.003 0.007 0.163-0.083-0.003-0.007c-0.102-0.201-0.197-0.407-0.281-0.615zM0.199 6.206l0.179 0.042c0.051-0.221 0.112-0.443 0.181-0.657l-0.174-0.058c-0.072 0.221-0.135 0.448-0.187 0.673zM0.183 8.28l-0.183 0.007c0.008 0.232 0.027 0.466 0.055 0.695l0.182-0.022c-0.028-0.224-0.046-0.453-0.054-0.68zM0.171 9.671c0.049 0.227 0.108 0.455 0.176 0.676l0.175-0.053c-0.067-0.217-0.125-0.439-0.172-0.66zM7.715 0.183l-0.007-0.183c-0.232 0.008-0.466 0.026-0.696 0.055l0.023 0.182c0.225-0.027 0.453-0.045 0.68-0.053zM15.481 5.711c0.067 0.217 0.124 0.44 0.171 0.661l0.18-0.039c-0.048-0.227-0.107-0.455-0.175-0.676zM11.747 0.926c-0.206-0.109-0.418-0.209-0.631-0.299l-0.071 0.168c0.209 0.089 0.417 0.187 0.617 0.293zM10.462 0.381c-0.221-0.070-0.447-0.133-0.673-0.185l-0.042 0.179c0.221 0.051 0.443 0.112 0.659 0.182zM4.449 1.030c0.199-0.1 0.404-0.194 0.611-0.279l-0.069-0.169c-0.211 0.085-0.421 0.181-0.625 0.285l-0.010 0.005 0.083 0.163zM15.818 7.725l0.183-0.007c-0.009-0.257-0.028-0.498-0.059-0.736l0.004 0.039-0.182 0.022c0.027 0.225 0.045 0.455 0.053 0.681zM9.103 0.070c-0.231-0.031-0.464-0.053-0.695-0.065l-0.009 0.182c0.226 0.012 0.455 0.034 0.679 0.065zM6.363 0.351l-0.039-0.18c-0.227 0.048-0.454 0.107-0.676 0.176l0.054 0.175c0.217-0.066 0.439-0.123 0.661-0.171zM1.281 3.646l0.154 0.1c0.123-0.19 0.256-0.377 0.395-0.556l-0.145-0.113c-0.142 0.184-0.278 0.375-0.404 0.569zM0.629 4.879l0.169 0.071c0.088-0.209 0.187-0.417 0.293-0.616l-0.162-0.085c-0.109 0.205-0.209 0.417-0.299 0.63zM12.149 14.629l0.097 0.156c0.197-0.124 0.391-0.257 0.575-0.396l-0.109-0.146c-0.181 0.136-0.371 0.267-0.563 0.386zM14.165 12.813l0.145 0.113c0.143-0.182 0.279-0.374 0.405-0.569l-0.153-0.099c-0.124 0.19-0.257 0.376-0.396 0.555zM13.237 13.81l0.123 0.135c0.172-0.153 0.34-0.319 0.497-0.488l-0.134-0.125c-0.153 0.165-0.318 0.325-0.486 0.478zM14.906 11.669l0.163 0.086c0.108-0.205 0.209-0.417 0.299-0.63l-0.169-0.071c-0.108 0.256-0.206 0.458-0.312 0.655l0.020-0.040zM15.745 9.086l0.182 0.026c0.033-0.231 0.055-0.463 0.068-0.695l-0.183-0.009c-0.012 0.225-0.034 0.455-0.067 0.679zM15.437 10.414l0.176 0.057c0.071-0.221 0.134-0.447 0.186-0.673l-0.179-0.042c-0.051 0.222-0.113 0.443-0.183 0.658zM14.969 4.448c0.103 0.202 0.198 0.411 0.283 0.621l0.171-0.069c-0.087-0.215-0.185-0.429-0.291-0.635zM5.531 15.612c0.221 0.071 0.447 0.134 0.673 0.186l0.041-0.179c-0.221-0.051-0.442-0.112-0.657-0.182zM6.89 15.926c0.23 0.033 0.464 0.055 0.695 0.068l0.009-0.183c-0.226-0.012-0.455-0.034-0.679-0.065zM11.551 14.966c-0.202 0.103-0.409 0.198-0.617 0.283l0.069 0.171c0.212-0.087 0.426-0.183 0.631-0.289l0.003-0.001-0.082-0.164zM3.075 14.311c0.183 0.142 0.375 0.279 0.569 0.403l0.099-0.153c-0.19-0.123-0.377-0.257-0.555-0.395zM8.278 15.817l0.006 0.183c0.232-0.009 0.466-0.027 0.697-0.056l-0.023-0.181c-0.224 0.027-0.453 0.045-0.679 0.053zM4.247 15.069c0.205 0.108 0.417 0.209 0.631 0.299l0.071-0.169c-0.209-0.089-0.416-0.186-0.616-0.293zM2.055 13.361c0.155 0.172 0.32 0.34 0.489 0.497l0.125-0.134c-0.166-0.153-0.327-0.318-0.478-0.486zM9.63 15.65l0.039 0.18c0.227-0.049 0.453-0.108 0.676-0.177l-0.055-0.175c-0.217 0.066-0.439 0.123-0.661 0.172zM14.12 0.086c-0.99 0-1.793 0.803-1.793 1.793s0.803 1.793 1.793 1.793v0c0.99 0 1.793-0.803 1.793-1.793s-0.803-1.793-1.793-1.793v0zM10.216 10.298c0 0.314 0.209 0.44 0.568 0.44 0.447 0 0.865-0.264 0.865-0.677v-0.43c-0.153 0.071-0.253 0.094-0.738 0.16-0.49 0.073-0.695 0.204-0.695 0.507zM8 1.879c-3.38 0-6.12 2.739-6.12 6.12 0 3.379 2.74 6.12 6.12 6.12s6.12-2.741 6.12-6.12c0-3.38-2.74-6.12-6.12-6.12zM6.342 11.059h-2.495v-4.015h0.513v3.564h1.983zM9.095 11.059h-0.413v-0.447c-0.27 0.38-0.541 0.529-0.964 0.529-0.562 0-0.92-0.309-0.92-0.788v-2.181h0.457v2c0 0.347 0.231 0.567 0.595 0.567 0.479 0 0.787-0.385 0.787-0.974v-1.593h0.457zM8.742 5.463c0-0.989 0.803-1.793 1.793-1.793s1.792 0.803 1.792 1.793-0.802 1.792-1.792 1.792-1.793-0.802-1.793-1.792zM12.453 10.701v0.347c-0.149 0.039-0.22 0.049-0.314 0.049-0.227 0-0.425-0.159-0.474-0.38-0.254 0.271-0.612 0.425-0.981 0.425-0.585 0-0.948-0.309-0.948-0.832 0-0.351 0.171-0.611 0.507-0.749 0.177-0.071 0.276-0.094 0.926-0.176 0.363-0.044 0.479-0.127 0.479-0.32v-0.121c0-0.275-0.232-0.43-0.645-0.43-0.43 0-0.638 0.16-0.677 0.513h-0.462c0.027-0.667 0.457-0.936 1.156-0.936 0.711 0 1.085 0.275 1.085 0.788v1.608c0 0.143 0.089 0.225 0.249 0.225 0.027-0.001 0.049-0.001 0.099-0.011z"></path>
</svg>
