<!-- Generated by IcoMoon.io -->
<svg version="1.1" xmlns="http://www.w3.org/2000/svg" width="16" height="16" viewBox="0 0 16 16">
<title>lufthansa</title>
<path fill="#05164d" d="M16 8c0-4.432-3.568-8-8-8-4.416 0-8 3.568-8 8 0 4.416 3.584 8 8 8 4.432 0 8-3.584 8-8zM15.424 8c0 4.080-3.328 7.424-7.424 7.424-4.080 0-7.424-3.343-7.424-7.424 0-4.096 3.344-7.424 7.424-7.424 4.096 0 7.424 3.328 7.424 7.424zM10.832 7.52c-0.176 0-0.4 0-0.688 0.016l0.208-0.352h0.336c1.2 0 2.096 0.064 2.912 0.208l0.368-0.352c-0.912-0.16-2.016-0.256-3.136-0.256h-0.272l0.176-0.336h0.304c1.168 0 2.224 0.096 3.248 0.288l0.384-0.368c-1.152-0.224-2.384-0.335-3.712-0.335-0.566 0.002-1.132 0.029-1.696 0.080-0.64 1.375-1.664 2.176-2.816 2.16-0.448-0.017-1.009-0.208-1.728-0.593l-0.672-0.384 0.208-0.192 1.552 0.672 0.336-0.256-3.136-1.424-0.48 0.368-1.12-0.464 0.016 0.464c1.504 0.688 2.128 1.072 3.712 2.208 2.064 1.472 3.904 2.272 6.464 2.784l0.672-0.64h-0.16c-1.696 0-3.216-0.56-4.096-1.504 0.736-0.448 1.647-0.655 2.912-0.655 0.336 0 0.816 0.031 1.264 0.079l0.384-0.368c-0.6-0.073-1.203-0.111-1.808-0.112-0.406-0.001-0.811 0.015-1.216 0.048l0.288-0.352c0.341-0.020 0.683-0.031 1.024-0.032 0.848 0 1.408 0.032 2.048 0.128l0.368-0.352c-0.672-0.111-1.6-0.176-2.448-0.176z"></path>
</svg>
