<!-- Generated by IcoMoon.io -->
<svg version="1.1" xmlns="http://www.w3.org/2000/svg" width="16" height="16" viewBox="0 0 16 16">
<title>lumen</title>
<path fill="#e74430" d="M7.768 0c-0.004-0-0.009-0-0.014-0-0.078 0-0.151 0.018-0.217 0.049l0.003-0.001-3.252 1.487c-0.174 0.081-0.293 0.254-0.293 0.455 0 0.276 0.224 0.501 0.501 0.501 0.075 0 0.147-0.017 0.211-0.047l-0.003 0.001 3.252-1.487c0.179-0.079 0.301-0.255 0.301-0.459 0-0.272-0.218-0.494-0.489-0.5l-0.001-0zM11.517 0.236c-0.003-0-0.007-0-0.011-0-0.079 0-0.153 0.018-0.22 0.051l0.003-0.001-7.005 3.252c-0.173 0.081-0.29 0.254-0.29 0.454 0 0.276 0.224 0.5 0.501 0.5 0.076 0 0.149-0.017 0.214-0.048l-0.003 0.001 7.004-3.252c0.177-0.080 0.298-0.254 0.298-0.457 0-0.273-0.219-0.495-0.491-0.5h-0zM11.517 2.237c-0.003-0-0.007-0-0.011-0-0.079 0-0.153 0.018-0.22 0.051l0.003-0.001-7.005 3.252c-0.173 0.081-0.29 0.254-0.29 0.454 0 0.276 0.224 0.5 0.501 0.5 0.076 0 0.149-0.017 0.214-0.048l-0.003 0.001 7.004-3.253c0.175-0.080 0.295-0.254 0.295-0.456 0-0.272-0.217-0.493-0.488-0.5l-0.001-0zM11.517 4.239c-0.003-0-0.007-0-0.011-0-0.079 0-0.153 0.018-0.22 0.051l0.003-0.001-7.005 3.252c-0.172 0.081-0.29 0.254-0.29 0.454 0 0.276 0.224 0.5 0.5 0.5 0.076 0 0.149-0.017 0.214-0.048l-0.003 0.001 7.004-3.252c0.176-0.080 0.297-0.254 0.297-0.457 0-0.273-0.218-0.494-0.489-0.5l-0.001-0zM11.523 6.24c-0.005-0-0.011-0-0.017-0-0.077 0-0.15 0.017-0.215 0.048l0.003-0.001-2.502 1.125c-0.175 0.080-0.295 0.254-0.295 0.456 0 0 0 0.001 0 0.001v-0 2.345c-0 0.002-0 0.003-0 0.005 0 0.009 0 0.018 0.001 0.028l-0-0.001h-1.002c0-0.005 0-0.010 0-0.016s-0-0.011-0-0.016l0 0.001v-1.72c0-0.002 0-0.005 0-0.007 0-0.276-0.224-0.5-0.5-0.5-0.003 0-0.005 0-0.008 0h0c-0.273 0.004-0.493 0.226-0.493 0.5 0 0.003 0 0.005 0 0.008v-0 1.72c0 0.011 0.001 0.022 0.001 0.033l-0-0.002h-0.627c-0.004-0-0.008-0-0.013-0-0.17 0-0.307 0.138-0.307 0.307 0 0.022 0.002 0.044 0.007 0.065l-0-0.002 0.127 0.76c0.042 0.209 0.22 0.365 0.437 0.371l0.001 0h1.52l-1.691 0.317c-0.117 0.022-0.205 0.124-0.205 0.246 0 0.138 0.112 0.25 0.25 0.25 0.017 0 0.033-0.002 0.049-0.005l-0.002 0 4.002-0.751c0.118-0.022 0.206-0.124 0.206-0.246 0-0.010-0.001-0.019-0.002-0.028l0 0.001c0.029-0.044 0.051-0.096 0.061-0.152l0-0.003 0.127-0.761c0.004-0.019 0.007-0.041 0.007-0.063 0-0.17-0.138-0.307-0.307-0.307-0.004 0-0.009 0-0.013 0l0.001-0h-0.627c0.001-0.009 0.001-0.020 0.001-0.031v-2.022l2.207-0.993c0.179-0.079 0.302-0.255 0.302-0.459 0-0.271-0.215-0.491-0.483-0.5l-0.001-0zM9.995 12.496c-0.015 0-0.030 0.002-0.044 0.005l0.002-0-4.003 0.751c-0.117 0.022-0.205 0.124-0.205 0.246 0 0.138 0.112 0.25 0.25 0.25 0.017 0 0.033-0.002 0.049-0.005l-0.002 0 4.002-0.75c0.12-0.020 0.211-0.123 0.211-0.247 0-0.138-0.112-0.25-0.25-0.25-0.004 0-0.008 0-0.011 0l0.001-0zM9.995 13.747c-0.015 0.001-0.030 0.003-0.044 0.006l0.002-0-4.003 0.75c-0.117 0.022-0.205 0.124-0.205 0.246 0 0.138 0.112 0.25 0.25 0.25 0.017 0 0.033-0.002 0.049-0.005l-0.002 0 4.002-0.75c0.12-0.020 0.211-0.123 0.211-0.247 0-0.138-0.112-0.25-0.25-0.25-0.004 0-0.008 0-0.011 0l0.001-0zM9.5 14.997c-0.015 0-0.030 0.002-0.044 0.004l0.002-0-2.981 0.501c-0.119 0.021-0.209 0.123-0.209 0.247 0 0.138 0.112 0.25 0.25 0.25 0.015 0 0.029-0.001 0.043-0.004l-0.001 0 2.981-0.5c0.125-0.015 0.22-0.121 0.22-0.248 0-0.138-0.112-0.25-0.25-0.25-0.004 0-0.008 0-0.012 0l0.001-0z"></path>
</svg>
