<!-- Generated by IcoMoon.io -->
<svg version="1.1" xmlns="http://www.w3.org/2000/svg" width="16" height="16" viewBox="0 0 16 16">
<title>lyft</title>
<path fill="#ff00bf" d="M16 7.415v-2.341h-0.835c-0.349-1.84-2.283-3.050-4.227-2.322-1.083 0.404-1.963 1.697-1.963 2.855v5.321h0.093c0.002 0 0.002 0 0.004 0s0.002 0 0.004 0c0.603-0.025 1.167-0.281 1.587-0.718 0.421-0.439 0.654-1.015 0.654-1.621h0.975v-2.343h-0.975v-0.644c0-0.25 0.133-0.484 0.351-0.605 0.599-0.334 1.21 0.095 1.21 0.663v2.147c0 0.849 0.32 1.637 0.901 2.221 0.556 0.556 1.309 0.876 2.119 0.901 0 0 0.002 0 0.002 0s0 0 0.002 0v0h0.095v-2.341c0 0 0 0 0 0-0.437-0.002-0.781-0.353-0.781-0.781v-0.39zM2.341 8.975v-6.244h-2.341v5.853c0 1.608 1.061 2.341 2.049 2.341v0c0.295 0 0.589-0.068 0.853-0.191 0.039-0.017 0.101-0.057 0.101-0.057s-0.059-0.063-0.084-0.090c-0.375-0.427-0.577-0.981-0.577-1.613zM6.049 8.25c0 0.097-0.047 0.191-0.127 0.246-0.314 0.221-0.654-0.002-0.654-0.301v-3.122h-2.341v3.903c0 1.075 0.876 1.951 1.951 1.951 0.465 0 0.915-0.166 1.268-0.468-0.037 0.289-0.195 0.527-0.461 0.693-0.248 0.156-0.572 0.238-0.935 0.238-0.375 0-0.755-0.088-1.101-0.253 0 0-0.063-0.029-0.141-0.074v2.080c0.521 0.211 1.093 0.322 1.645 0.322 0.874 0 1.672-0.273 2.248-0.771 0.646-0.556 0.987-1.37 0.987-2.351v-5.268h-2.341z"></path>
</svg>
