<!-- Generated by IcoMoon.io -->
<svg version="1.1" xmlns="http://www.w3.org/2000/svg" width="16" height="16" viewBox="0 0 16 16">
<title>magisk</title>
<path fill="#00af9c" d="M7.238 9.639c0 0 0.103 0.614-0.023 1.968-0.157 1.697 0.647 4.393 0.647 4.393s1.097-2.701 0.905-4.447c-0.157-1.435 0.071-1.936 0.023-1.869-0.843 1.164-1.552-0.046-1.552-0.046zM9.293 11.095c0.137 1.061-0.015 1.641-0.213 2.776-0.1 0.574 2.045-1.726 2.868-3.097 0.137-0.229-0.787 0.891-1.701 0.091-0.634-0.555-0.743-0.723-1.235-1.205-0.166-0.163 0.185 0.676 0.281 1.435zM6.951 9.745c-0.493 0.482-0.602 0.651-1.235 1.205-0.914 0.8-1.838-0.32-1.701-0.091 0.823 1.371 2.968 3.671 2.868 3.097-0.198-1.135-0.351-1.716-0.213-2.776 0.098-0.758 0.449-1.597 0.281-1.435zM9.062 7.853c1.003 0.289 1.392 1.682 2.404 1.854 0.209 0.035 0.445 0.099 0.719 0.085 0.513-0.025 1.163-0.315 2.030-1.545 0.257-0.364-0.637 2.343-2.875 2.375-1.64 0.024-1.831-1.605-2.925-1.655-0.395-0.018-0.419-0.771-0.419-0.771s0.471-0.516 1.066-0.344zM6.938 7.845c-1.003 0.289-1.392 1.682-2.404 1.854-0.209 0.035-0.445 0.099-0.719 0.085-0.513-0.025-1.163-0.315-2.030-1.545-0.257-0.364 0.637 2.343 2.875 2.375 1.64 0.024 1.831-1.605 2.925-1.655 0.395-0.018 0.419-0.771 0.419-0.771s-0.471-0.516-1.066-0.344zM10.689 7.831c1.009 0.764 0.708 1.605 1.274 1.365 1.906-0.808 1.573-4.956 1.419-4.455-0.869 2.828-2.762 2.987-4.584 1.685-0.356-0.254 1.323 0.973 1.891 1.404zM7.195 6.427c-1.822 1.301-3.715 1.143-4.584-1.685-0.154-0.501-0.487 3.646 1.419 4.455 0.566 0.24 0.265-0.601 1.274-1.365 0.568-0.431 2.247-1.657 1.891-1.404zM10.879 6.817c2.2-0.091 2.606-3.697 2.433-3.257-0.777 1.975-3.716 1.232-3.997 2.479-0.055 0.245 0.498 0.822 1.563 0.778zM6.677 6.039c-0.281-1.247-3.221-0.503-3.997-2.479-0.173-0.44 0.233 3.166 2.433 3.257 1.066 0.044 1.619-0.533 1.563-0.778zM9.179 5.489c0 0 1.196-0.643 2.22-0.923 0.957-0.262 1.675-0.906 1.754-1.587 0.059-0.507-0.74-1.465-0.74-1.465s-0.561 1.556-1.297 2.334c-0.801 0.847-0.497 0.733-1.937 1.64zM4.877 3.849c-0.736-0.778-1.297-2.334-1.297-2.334s-0.799 0.957-0.74 1.465c0.080 0.681 0.797 1.325 1.754 1.587 1.024 0.281 2.22 0.923 2.22 0.923-1.441-0.907-1.137-0.793-1.937-1.64zM9.033 5.391c1.295-1.063 1.984-2.449 3.105-3.966 0.211-0.286-0.946-0.977-1.403-1.022s-0.841 1.635-0.885 2.624c-0.039 0.903-0.991 2.507-0.817 2.364zM6.143 3.026c-0.043-0.989-0.427-2.669-0.885-2.624s-1.615 0.736-1.403 1.022c1.121 1.517 1.809 2.904 3.105 3.966 0.174 0.143-0.777-1.462-0.817-2.364zM9.163 1.958c0.091-0.732 0.421-1.267 1.075-1.716-0.579-0.193-1.061-0.351-1.312-0.145s-0.935 0.895-0.844 2.015 0.005 5.308 0.203 5.231c0.107-2.868 1.015-3.692 0.877-5.385zM7.706 7.343c0.198 0.077 0.111-4.11 0.203-5.231s-0.592-1.809-0.844-2.015c-0.251-0.206-0.733-0.049-1.312 0.145 0.655 0.449 0.984 0.984 1.075 1.716-0.137 1.693 0.771 2.517 0.877 5.385z"></path>
</svg>
