<!-- Generated by IcoMoon.io -->
<svg version="1.1" xmlns="http://www.w3.org/2000/svg" width="16" height="16" viewBox="0 0 16 16">
<title>mail-dot-ru</title>
<path fill="#168de2" d="M7.723 3.511c1.223 0 2.372 0.541 3.216 1.387v0.003c0-0.406 0.273-0.712 0.653-0.712h0.097c0.594 0 0.715 0.561 0.715 0.739l0.003 6.317c-0.042 0.414 0.427 0.627 0.686 0.362 1.014-1.043 2.228-5.359-0.631-7.86-2.664-2.331-6.238-1.947-8.139-0.637-2.021 1.394-3.314 4.479-2.057 7.376 1.369 3.16 5.287 4.101 7.616 3.163 1.179-0.477 1.724 1.117 0.499 1.638-1.851 0.789-7.001 0.709-9.407-3.459-1.626-2.814-1.539-7.766 2.772-10.331 3.298-1.962 7.647-1.419 10.268 1.319 2.741 2.863 2.581 8.223-0.093 10.307-1.211 0.947-3.011 0.025-2.999-1.354l-0.013-0.452c-0.843 0.837-1.965 1.325-3.188 1.325-2.417 0-4.542-2.126-4.542-4.541 0-2.439 2.126-4.59 4.543-4.59zM10.764 7.927c-0.091-1.769-1.404-2.833-2.989-2.833h-0.060c-1.83 0-2.845 1.439-2.845 3.073 0 1.831 1.228 2.987 2.837 2.987 1.795 0 2.976-1.315 3.061-2.871z"></path>
</svg>
