<!-- Generated by IcoMoon.io -->
<svg version="1.1" xmlns="http://www.w3.org/2000/svg" width="16" height="16" viewBox="0 0 16 16">
<title>mailchimp</title>
<path fill="#ffe01b" d="M11.987 7.561c0.11-0.014 0.221-0.014 0.331 0 0.059-0.137 0.069-0.372 0.016-0.628-0.080-0.381-0.187-0.611-0.409-0.575s-0.231 0.312-0.151 0.693c0.045 0.214 0.124 0.397 0.212 0.511zM10.080 7.862c0.159 0.070 0.257 0.116 0.295 0.076 0.025-0.025 0.017-0.073-0.020-0.135-0.079-0.129-0.24-0.259-0.411-0.331-0.127-0.054-0.274-0.085-0.429-0.085-0.249 0-0.478 0.081-0.664 0.218l0.003-0.002c-0.107 0.078-0.207 0.187-0.193 0.252 0.005 0.021 0.021 0.037 0.058 0.043 0.088 0.010 0.394-0.145 0.747-0.167 0.249-0.015 0.456 0.063 0.615 0.132zM9.76 8.045c-0.207 0.033-0.321 0.101-0.394 0.165-0.063 0.055-0.101 0.115-0.101 0.158l0.016 0.038 0.034 0.013c0.047 0 0.152-0.043 0.152-0.043 0.138-0.054 0.298-0.085 0.465-0.085 0.071 0 0.141 0.006 0.209 0.017l-0.008-0.001c0.103 0.012 0.153 0.019 0.175-0.017 0.007-0.010 0.015-0.033-0.005-0.067-0.049-0.079-0.258-0.211-0.543-0.178zM11.343 8.715c0.14 0.069 0.295 0.042 0.345-0.060 0.051-0.103-0.023-0.243-0.163-0.311s-0.295-0.042-0.345 0.060c-0.051 0.103 0.023 0.243 0.163 0.311zM12.247 7.925c-0.114-0.002-0.209 0.123-0.211 0.281s0.087 0.285 0.201 0.287 0.209-0.123 0.212-0.28c0.002-0.157-0.088-0.285-0.202-0.288zM4.577 10.753c-0.028-0.035-0.075-0.025-0.12-0.014-0.032 0.009-0.069 0.014-0.106 0.015h-0c-0.002 0-0.003 0-0.005 0-0.078 0-0.147-0.039-0.189-0.098l-0-0.001c-0.052-0.080-0.049-0.199 0.008-0.336l0.027-0.061c0.092-0.205 0.245-0.55 0.073-0.878-0.129-0.247-0.341-0.401-0.595-0.433-0.029-0.004-0.063-0.006-0.097-0.006-0.22 0-0.419 0.093-0.558 0.242l-0 0c-0.253 0.279-0.292 0.659-0.243 0.793 0.018 0.049 0.046 0.063 0.066 0.065 0.043 0.006 0.107-0.025 0.147-0.133l0.011-0.035c0.017-0.057 0.051-0.162 0.105-0.247 0.083-0.126 0.224-0.208 0.384-0.208 0.093 0 0.18 0.028 0.253 0.076l-0.002-0.001c0.177 0.117 0.245 0.333 0.17 0.541-0.039 0.107-0.103 0.312-0.089 0.48 0.029 0.341 0.238 0.478 0.425 0.493 0.183 0.007 0.311-0.097 0.343-0.172 0.020-0.044 0.003-0.071-0.007-0.083zM15.127 10.129c-0.007-0.025-0.052-0.191-0.115-0.391l-0.127-0.34c0.25-0.375 0.254-0.711 0.221-0.9-0.036-0.235-0.133-0.436-0.331-0.643-0.197-0.208-0.6-0.42-1.167-0.579l-0.297-0.083c-0.001-0.012-0.015-0.702-0.029-0.998-0.009-0.213-0.027-0.548-0.131-0.877-0.123-0.446-0.338-0.835-0.607-1.085 0.74-0.768 1.202-1.615 1.201-2.341-0.002-1.397-1.714-1.82-3.824-0.944l-0.447 0.19c-0.209-0.206-0.476-0.468-0.743-0.73l-0.077-0.075c-2.407-2.103-9.927 6.272-7.523 8.307l0.526 0.445c-0.103 0.269-0.163 0.58-0.163 0.904 0 0.102 0.006 0.204 0.018 0.303l-0.001-0.012c0.057 0.56 0.345 1.096 0.812 1.511 0.443 0.393 1.027 0.643 1.593 0.643 0.935 2.16 3.073 3.485 5.58 3.56 2.689 0.080 4.947-1.184 5.893-3.455 0.062-0.16 0.324-0.878 0.324-1.511 0-0.637-0.359-0.901-0.588-0.901zM4.125 11.829c-0.065 0.012-0.141 0.018-0.217 0.018-0.011 0-0.022-0-0.034-0l0.002 0c-0.812-0.022-1.689-0.754-1.777-1.623-0.097-0.96 0.393-1.699 1.26-1.873 0.087-0.018 0.187-0.029 0.289-0.029 0.026 0 0.053 0.001 0.079 0.002l-0.004-0c0.486 0.027 1.202 0.4 1.365 1.461 0.145 0.939-0.085 1.895-0.964 2.045zM3.219 7.776c-0.54 0.105-1.016 0.411-1.307 0.835-0.174-0.145-0.498-0.427-0.555-0.536-0.465-0.883 0.507-2.601 1.185-3.571 1.678-2.397 4.303-4.212 5.52-3.883 0.197 0.056 0.852 0.816 0.852 0.816s-1.215 0.675-2.343 1.617c-1.519 1.171-2.666 2.874-3.353 4.722zM11.743 11.471c0.017-0.008 0.028-0.024 0.028-0.044 0-0.001-0-0.003-0-0.004l0 0c-0.002-0.023-0.021-0.040-0.044-0.040-0.002 0-0.003 0-0.005 0l0-0c0 0-1.272 0.189-2.474-0.253 0.131-0.426 0.479-0.272 1.005-0.229 0.13 0.008 0.282 0.013 0.434 0.013 0.709 0 1.395-0.101 2.044-0.288l-0.052 0.013c0.544-0.157 1.259-0.465 1.815-0.904 0.187 0.412 0.253 0.865 0.253 0.865s0.145-0.026 0.266 0.049c0.114 0.071 0.198 0.217 0.141 0.597-0.117 0.709-0.417 1.284-0.923 1.813-0.31 0.336-0.677 0.613-1.087 0.819l-0.022 0.010c-0.203 0.11-0.442 0.214-0.69 0.297l-0.033 0.010c-1.905 0.623-3.856-0.062-4.485-1.533-0.045-0.096-0.088-0.212-0.123-0.331l-0.004-0.017c-0.267-0.97-0.040-2.133 0.671-2.866 0.043-0.047 0.088-0.102 0.088-0.171 0-0.058-0.037-0.119-0.068-0.162-0.249-0.361-1.111-0.977-0.937-2.169 0.124-0.857 0.872-1.459 1.569-1.423l0.177 0.010c0.302 0.018 0.565 0.057 0.815 0.067 0.416 0.018 0.79-0.043 1.233-0.413 0.149-0.125 0.269-0.233 0.472-0.267 0.021-0.003 0.074-0.023 0.18-0.017 0.114 0.004 0.218 0.040 0.306 0.099l-0.002-0.001c0.355 0.237 0.405 0.81 0.424 1.23 0.011 0.24 0.039 0.819 0.049 0.985 0.023 0.38 0.122 0.433 0.324 0.5 0.113 0.038 0.219 0.066 0.375 0.109 0.47 0.133 0.749 0.267 0.925 0.439 0.105 0.107 0.153 0.222 0.169 0.331 0.056 0.405-0.313 0.906-1.292 1.361-1.070 0.497-2.367 0.623-3.263 0.523l-0.314-0.035c-0.717-0.097-1.126 0.831-0.696 1.467 0.277 0.41 1.033 0.677 1.789 0.677 1.733 0 3.065-0.741 3.561-1.381l0.040-0.057c0.024-0.037 0.004-0.057-0.027-0.036-0.405 0.277-2.203 1.379-4.127 1.047 0 0-0.233-0.038-0.447-0.121-0.169-0.066-0.524-0.229-0.567-0.594 1.552 0.481 2.529 0.026 2.529 0.025zM9.285 11.18l0.001 0.001zM6.315 4.493c0.597-0.691 1.331-1.291 1.988-1.627 0.023-0.011 0.047 0.013 0.035 0.035-0.053 0.095-0.153 0.298-0.185 0.451-0 0.002-0.001 0.004-0.001 0.006 0 0.015 0.012 0.027 0.027 0.027 0.005 0 0.011-0.002 0.015-0.004l-0 0c0.409-0.279 1.121-0.579 1.745-0.617 0.027-0.002 0.040 0.033 0.018 0.049-0.103 0.079-0.195 0.172-0.274 0.275-0.003 0.004-0.005 0.010-0.005 0.016 0 0.014 0.012 0.026 0.026 0.027h0c0.438 0.003 1.056 0.157 1.459 0.383 0.027 0.015 0.008 0.068-0.023 0.061-0.609-0.14-1.607-0.247-2.643 0.007-0.925 0.226-1.631 0.575-2.145 0.95-0.027 0.019-0.057-0.015-0.037-0.039z"></path>
</svg>
