<!-- Generated by IcoMoon.io -->
<svg version="1.1" xmlns="http://www.w3.org/2000/svg" width="16" height="16" viewBox="0 0 16 16">
<title>makerbot</title>
<path fill="#ff1e0d" d="M15.37 4.885c-0.403-0.952-0.98-1.809-1.713-2.542-0.736-0.734-1.591-1.309-2.543-1.714-0.989-0.419-2.035-0.629-3.115-0.629s-2.127 0.212-3.115 0.63c-0.952 0.403-1.807 0.98-2.542 1.713s-1.309 1.59-1.715 2.542c-0.419 0.988-0.629 2.035-0.629 3.115s0.212 2.126 0.63 3.114c0.403 0.953 0.98 1.809 1.713 2.543 0.735 0.733 1.591 1.309 2.542 1.713 0.989 0.421 2.035 0.63 3.115 0.63s2.126-0.209 3.114-0.629c0.953-0.401 1.807-0.981 2.543-1.709 0.733-0.73 1.309-1.591 1.713-2.541 0.42-0.98 0.629-2.030 0.629-3.11s-0.209-2.12-0.629-3.109zM8 14.89c-3.805 0-6.89-3.085-6.89-6.89s3.085-6.89 6.89-6.89 6.89 3.085 6.89 6.89-3.085 6.89-6.89 6.89zM10.161 2.747h-4.323c-0.615 0-1.133 0.216-1.555 0.65-0.423 0.429-0.635 0.95-0.635 1.556v6.788c0 0.299 0.090 0.54 0.267 0.73 0.178 0.179 0.41 0.28 0.701 0.28 0.297 0 0.537-0.090 0.719-0.27 0.181-0.181 0.273-0.42 0.273-0.72v-7.041h1.427v7.019c0 0.297 0.087 0.537 0.261 0.72s0.407 0.274 0.706 0.274c0.297 0 0.533-0.092 0.706-0.274s0.26-0.423 0.26-0.72v-7.019h1.428v7.019c0 0.297 0.090 0.537 0.272 0.72 0.183 0.182 0.423 0.274 0.72 0.274 0.29 0 0.522-0.094 0.7-0.282 0.179-0.187 0.267-0.425 0.267-0.713v-6.788c0-0.607-0.212-1.125-0.635-1.557-0.422-0.432-0.94-0.65-1.556-0.65z"></path>
</svg>
