<!-- Generated by IcoMoon.io -->
<svg version="1.1" xmlns="http://www.w3.org/2000/svg" width="16" height="16" viewBox="0 0 16 16">
<title>manageiq</title>
<path fill="#ef2929" d="M8.064 0.067l-0.001 0.001c-0.002 0-0.004 0-0.007 0-4.251 0-7.698 3.447-7.698 7.698 0 0.002 0 0.005 0 0.007v-0c0 1.379 0.365 2.67 0.997 3.789l1.913-1.911c-0.227-0.556-0.359-1.201-0.36-1.877v-0c0-2.841 2.313-5.153 5.155-5.153s5.155 2.313 5.155 5.153c0 2.841-2.313 5.155-5.155 5.155-0.622-0.001-1.218-0.113-1.769-0.317l0.035 0.011-1.932 1.933c1.056 0.583 2.315 0.925 3.654 0.925 0.004 0 0.009 0 0.013-0h-0.001c1.544 0 2.979-0.457 4.183-1.237l1.595 1.595 2.157-2.161-1.566-1.566c0.835-1.21 1.333-2.708 1.333-4.323 0-0.005 0-0.010-0-0.015v0.001c0-4.193-3.338-7.599-7.505-7.705-0.053-0.002-0.12 0-0.198 0zM8.063 6.293c-0.817 0-1.477 0.661-1.477 1.478s0.66 1.477 1.477 1.477c0.816 0 1.478-0.662 1.478-1.478s-0.662-1.478-1.478-1.478v0zM5.236 8.539l-5.236 5.236 2.159 2.16 5.237-5.237z"></path>
</svg>
