<!-- Generated by IcoMoon.io -->
<svg version="1.1" xmlns="http://www.w3.org/2000/svg" width="16" height="16" viewBox="0 0 16 16">
<title>markdown</title>
<path d="M14.846 12.923h-13.692c-0.637 0-1.153-0.516-1.153-1.153v0-7.54c0-0.637 0.516-1.153 1.153-1.153h13.692c0.637 0 1.153 0.516 1.153 1.153v7.539c0 0 0 0.001 0 0.001 0 0.637-0.516 1.153-1.153 1.153 0 0 0 0 0 0v0zM3.846 10.615v-3l1.539 1.923 1.538-1.923v3h1.539v-5.23h-1.539l-1.538 1.923-1.539-1.923h-1.539v5.231zM14.154 8h-1.539v-2.615h-1.538v2.615h-1.539l2.307 2.693z"></path>
</svg>
