<!-- Generated by IcoMoon.io -->
<svg version="1.1" xmlns="http://www.w3.org/2000/svg" width="16" height="16" viewBox="0 0 16 16">
<title>mastercard</title>
<path fill="#eb001b" d="M7.562 12.021c0.039 0.033 0.080 0.065 0.121 0.097-0.785 0.522-1.727 0.825-2.738 0.825-2.731 0.001-4.945-2.213-4.945-4.943s2.213-4.944 4.944-4.944c1.012 0 1.954 0.304 2.737 0.825-0.040 0.034-0.080 0.065-0.11 0.1-1.171 1.011-1.841 2.477-1.841 4.019s0.667 3.007 1.832 4.021zM11.056 3.056c-1.013 0-1.954 0.304-2.737 0.825 0.040 0.034 0.080 0.065 0.11 0.1 1.171 1.011 1.841 2.477 1.841 4.019 0 1.54-0.667 3.005-1.832 4.021-0.039 0.033-0.080 0.065-0.121 0.097 0.785 0.522 1.725 0.825 2.738 0.825 2.731 0.001 4.945-2.213 4.945-4.943 0-2.729-2.213-4.944-4.944-4.944zM8 4.116c-0.064 0.050-0.126 0.1-0.187 0.154-1.043 0.906-1.701 2.24-1.701 3.73s0.658 2.824 1.701 3.73c0.060 0.053 0.123 0.105 0.187 0.155 0.064-0.049 0.126-0.101 0.187-0.155 1.042-0.906 1.701-2.239 1.701-3.73s-0.658-2.824-1.701-3.73c-0.060-0.053-0.123-0.104-0.187-0.154z"></path>
</svg>
