<!-- Generated by IcoMoon.io -->
<svg version="1.1" xmlns="http://www.w3.org/2000/svg" width="16" height="16" viewBox="0 0 16 16">
<title>mastodon</title>
<path fill="#3088d4" d="M15.462 5.253c0-3.471-2.274-4.488-2.274-4.488-1.147-0.527-3.116-0.748-5.161-0.765h-0.051c-2.045 0.017-4.013 0.238-5.16 0.765 0 0-2.274 1.017-2.274 4.488 0 0.795-0.015 1.745 0.010 2.753 0.083 3.395 0.623 6.739 3.761 7.57 1.447 0.383 2.689 0.463 3.69 0.408 1.815-0.1 2.833-0.648 2.833-0.648l-0.060-1.317c0 0-1.297 0.409-2.753 0.359-1.443-0.049-2.966-0.155-3.199-1.927-0.020-0.145-0.032-0.313-0.032-0.483 0-0.005 0-0.009 0-0.014v0.001c0 0 1.417 0.347 3.211 0.429 1.097 0.050 2.127-0.065 3.172-0.189 2.005-0.239 3.75-1.475 3.969-2.603 0.345-1.777 0.317-4.338 0.317-4.338zM12.779 9.725h-1.665v-4.079c0-0.86-0.362-1.296-1.085-1.296-0.8 0-1.201 0.517-1.201 1.541v2.233h-1.655v-2.233c0-1.024-0.401-1.541-1.201-1.541-0.723 0-1.085 0.437-1.085 1.296v4.079h-1.665v-4.202c0-0.859 0.219-1.542 0.658-2.047 0.453-0.505 1.046-0.764 1.783-0.764 0.852 0 1.497 0.327 1.924 0.983l0.414 0.695 0.415-0.695c0.427-0.655 1.072-0.983 1.924-0.983 0.736 0 1.329 0.259 1.783 0.764 0.439 0.505 0.657 1.187 0.657 2.047z"></path>
</svg>
