<!-- Generated by IcoMoon.io -->
<svg version="1.1" xmlns="http://www.w3.org/2000/svg" width="16" height="16" viewBox="0 0 16 16">
<title>materialdesign</title>
<path fill="#757575" d="M8 0c-4.415 0-8 3.585-8 8s3.585 8 8 8 8-3.585 8-8-3.585-8-8-8zM8 0.5c1.914 0 3.655 0.721 4.979 1.9h-9.959c1.314-1.179 3.061-1.9 4.976-1.9 0.002 0 0.003 0 0.005 0h-0zM3.209 2.9h9.581l-4.791 9.582zM2.4 3.020v9.96c-1.179-1.314-1.9-3.061-1.9-4.976 0-0.002 0-0.003 0-0.005v0c0-1.913 0.721-3.654 1.9-4.98zM13.6 3.020c1.179 1.314 1.9 3.061 1.9 4.976 0 0.002 0 0.003 0 0.005v-0c0 1.914-0.721 3.655-1.9 4.979zM2.9 3.4l4.85 9.7h-4.85zM13.1 3.4v9.7h-4.85zM3.022 13.6h9.957c-1.314 1.179-3.061 1.9-4.976 1.9-0.001 0-0.003 0-0.004 0h0c-0.001 0-0.002 0-0.002 0-1.915 0-3.661-0.721-4.982-1.906l0.007 0.006z"></path>
</svg>
