<!-- Generated by IcoMoon.io -->
<svg version="1.1" xmlns="http://www.w3.org/2000/svg" width="16" height="16" viewBox="0 0 16 16">
<title>mathworks</title>
<path fill="#0076a8" d="M2.882 10.832c-0.795-0.596-1.789-1.292-2.882-2.087l3.876-1.491 1.59 1.193c-1.193 1.391-1.987 1.888-2.584 2.385zM13.515 6.659c-0.298-0.795-0.497-1.59-0.795-2.385-0.298-0.895-0.596-1.689-1.093-2.385-0.199-0.298-0.596-0.994-1.093-0.994-0.099 0-0.199 0.099-0.298 0.099-0.298 0.099-0.695 0.695-0.795 1.093-0.298 0.497-0.895 1.292-1.292 1.789-0.099 0.199-0.298 0.397-0.397 0.497-0.298 0.199-0.596 0.497-0.994 0.695-0.099 0-0.199 0.099-0.298 0.099-0.298 0-0.497 0.199-0.695 0.298-0.298 0.298-0.596 0.695-0.895 0.994 0 0.099-0.099 0.199-0.199 0.298l1.491 1.093c1.093-1.292 2.385-2.584 3.279-5.068 0 0-0.298 2.683-2.683 5.565-1.491 1.689-2.683 2.584-2.882 2.783 0 0 0.397-0.099 0.795 0.099 0.795 0.298 1.193 1.391 1.491 2.186 0.199 0.596 0.497 1.093 0.695 1.689 0.795-0.199 1.292-0.497 1.789-0.994s0.994-1.093 1.491-1.59c0.895-1.093 1.987-2.485 3.379-1.789 0.199 0.099 0.497 0.298 0.596 0.397 0.298 0.199 0.497 0.397 0.795 0.695 0.497 0.397 0.695 0.695 1.093 0.895-0.994-1.987-1.689-3.975-2.483-6.061z"></path>
</svg>
