<!-- Generated by IcoMoon.io -->
<svg version="1.1" xmlns="http://www.w3.org/2000/svg" width="16" height="16" viewBox="0 0 16 16">
<title>matrix</title>
<path d="M0.421 0.367v15.267h1.099v0.367h-1.52v-16h1.52v0.367zM5.117 5.207v0.771h0.022c0.206-0.295 0.455-0.523 0.745-0.683 0.289-0.163 0.624-0.243 1-0.243 0.36 0 0.689 0.071 0.987 0.209s0.523 0.388 0.68 0.739c0.169-0.249 0.4-0.471 0.689-0.661s0.633-0.287 1.031-0.287c0.302 0 0.581 0.037 0.84 0.111s0.477 0.191 0.662 0.353c0.184 0.163 0.326 0.373 0.431 0.634 0.101 0.261 0.153 0.575 0.153 0.945v3.819h-1.566v-3.234c0-0.191-0.007-0.373-0.021-0.541-0.012-0.162-0.055-0.312-0.123-0.447l0.003 0.007c-0.068-0.126-0.167-0.228-0.288-0.297l-0.004-0.002c-0.129-0.073-0.305-0.111-0.523-0.111-0.221 0-0.4 0.043-0.535 0.126-0.134 0.083-0.242 0.195-0.318 0.328l-0.002 0.005c-0.076 0.134-0.131 0.291-0.153 0.457l-0.001 0.007c-0.024 0.157-0.039 0.338-0.040 0.522v3.18h-1.567v-3.2c0-0.169-0.003-0.335-0.012-0.501-0.006-0.167-0.040-0.323-0.099-0.468l0.003 0.009c-0.056-0.141-0.152-0.255-0.274-0.334l-0.003-0.002c-0.129-0.083-0.317-0.127-0.569-0.127-0.074 0-0.173 0.016-0.293 0.049s-0.24 0.095-0.353 0.188c-0.114 0.092-0.213 0.225-0.293 0.397s-0.12 0.4-0.12 0.68v3.311h-1.566v-5.71zM15.579 15.633v-15.267h-1.099v-0.367h1.52v16h-1.52v-0.367z"></path>
</svg>
