<!-- Generated by IcoMoon.io -->
<svg version="1.1" xmlns="http://www.w3.org/2000/svg" width="16" height="16" viewBox="0 0 16 16">
<title>matternet</title>
<path d="M12.819 2.787l-2.711 1.551v-3.121l-2.113-1.217-2.111 1.22v3.118l-2.698-1.558-2.116 1.22v2.443l2.701 1.557-2.703 1.562v2.438l2.11 1.221 2.696-1.559v3.121l2.114 1.217 2.116-1.221v-3.117l2.701 1.551 2.115-1.219v-2.431l-2.695-1.563 2.705-1.557v-2.443l-2.109-1.213zM13.068 5.073v-1.263l1.093 0.628v1.27l-1.091-0.635zM14.16 11.263l-4.050-2.336 1.1-0.63 2.949 1.703v1.264zM9.609 8.63l-1.1-0.63 4.301-2.484 1.094 0.629-4.297 2.485zM2.089 6.146l1.094-0.629 4.302 2.483-1.093 0.63zM5.883 8.926l-4.050 2.339v-1.265l2.957-1.703 1.094 0.63zM1.833 5.709v-1.269l1.093-0.63v1.265zM8.251 5.709v-4.676l1.094 0.625v3.415l-1.094 0.635zM6.649 5.069v-3.407l1.093-0.629v4.669zM12.56 3.81v1.265l-4.304 2.489v-1.27zM7.741 6.293v1.265l-4.306-2.485v-1.263l4.307 2.481zM6.139 10.635l-2.957 1.703-1.093-0.629 4.049-2.339zM6.649 9.073l1.093-0.63v4.969l-1.093 0.639zM9.087 14.483l-1.093 0.636-1.093-0.634 1.093-0.631 1.093 0.631zM9.349 14.045l-1.099-0.633v-4.961l1.099 0.629v4.972zM13.903 11.709l-1.094 0.629-2.95-1.703v-1.265l4.050 2.339z"></path>
</svg>
