<!-- Generated by IcoMoon.io -->
<svg version="1.1" xmlns="http://www.w3.org/2000/svg" width="16" height="16" viewBox="0 0 16 16">
<title>mattermost</title>
<path fill="#0072c6" d="M8.054 0c-3.355-0.023-6.495 2.083-7.629 5.435-1.417 4.184 0.827 8.724 5.011 10.14s8.724-0.827 10.14-5.011c1.151-3.4-0.115-7.035-2.874-9.038l0.084 1.698c1.377 1.521 1.92 3.675 1.235 5.699-1.023 3.021-4.396 4.61-7.533 3.547-3.139-1.062-4.853-4.373-3.83-7.395 0.687-2.031 2.437-3.414 4.463-3.78l1.095-1.293c-0.044-0.002-0.096-0.003-0.148-0.003-0.004 0-0.009 0-0.013 0h0.001zM10.406 0.729c-0.002-0-0.004-0-0.006-0-0.028 0-0.054 0.006-0.078 0.017l0.001-0-0.003 0.001c-0.028 0.011-0.052 0.027-0.073 0.047l0-0c-0.097 0.095-0.438 0.552-0.438 0.552l-0.744 0.921-0.867 1.057-1.488 1.851c0 0-0.683 0.852-0.532 1.901s0.931 1.56 1.536 1.765c0.605 0.205 1.535 0.272 2.292-0.469s0.732-1.833 0.732-1.833l-0.058-2.373-0.047-1.367-0.031-1.183c0 0 0.007-0.571-0.013-0.705-0.004-0.027-0.012-0.051-0.024-0.073l0.001 0.001-0.004-0.008-0.005-0.007c-0.031-0.054-0.087-0.090-0.152-0.093l-0-0z"></path>
</svg>
