<!-- Generated by IcoMoon.io -->
<svg version="1.1" xmlns="http://www.w3.org/2000/svg" width="16" height="16" viewBox="0 0 16 16">
<title>mdnwebdocs</title>
<path d="M0 0v16h16v-16zM7.043 3.313c0.445-0.031 0.667 0.044 1.060 0.161l0.291 0.087 0.101 0.031 0.371 0.113c0.243 0.066 0.499 0.070 0.743 0.011 0.104-0.029 0.223-0.045 0.346-0.045 0.235 0 0.455 0.060 0.648 0.164l-0.007-0.004c0.273 0.155 0.456 0.432 0.491 0.743 0.032 0.275 0.192 0.52 0.432 0.659 0.358 0.195 0.731 0.359 1.115 0.491 0.271 0.104 0.543 0.221 0.813 0.325 0.133 0.051 0.251 0.135 0.343 0.247 0.074 0.089 0.122 0.201 0.131 0.325l0 0.002c0.017 0.239 0.045 0.481 0.057 0.723h-0.001c0.019 0.333-0.053 0.665-0.211 0.959-0.058 0.11-0.122 0.214-0.175 0.324-0.065 0.147-0.209 0.247-0.377 0.247-0.016 0-0.033-0.001-0.048-0.003l0.002 0c-0.004-0-0.008-0-0.012-0-0.066 0-0.126 0.023-0.173 0.061l0.001-0c-0.164 0.107-0.331 0.213-0.5 0.314-0.233 0.129-0.513 0.144-0.761 0.040-0.377-0.148-0.815-0.234-1.272-0.234-0 0-0 0-0 0v0c-0.013-0-0.028-0.001-0.043-0.001-0.438 0-0.83 0.201-1.088 0.515l-0.002 0.002c-0.107 0.147-0.193 0.318-0.25 0.501l-0.003 0.012c-0.149 0.367-0.276 2.559-0.276 3.117 0 0-2.107-0.41-4.087-2.435l0.516-1.353h-1.616l1.169-1.237h-2.009l1.168-1.239h-1.909l2.125-2.255c0.632-0.628 1.435-1.084 2.333-1.293l0.033-0.007c0.212-0.037 0.384-0.059 0.532-0.069z"></path>
</svg>
