<!-- Generated by IcoMoon.io -->
<svg version="1.1" xmlns="http://www.w3.org/2000/svg" width="16" height="16" viewBox="0 0 16 16">
<title>mediafire</title>
<path fill="#1299f3" d="M7.42 4.781c-0.331 0.28 1.962-0.305 1.733 0.826-0.221 1.089-2.413-0.229-4.815-0.117-1.063 0.049-2.036 0.353-2.657 1.112 0.649-0.739 1.934-0.563 1.599-0.054-0.781 1.184-2.251 0.331-3.28 2.65 0.123-0.267 0.457-0.797 1.895-1.017 1.057-0.161 2.809-0.011 3.369 0.865 0.616 0.963-2.506 0.853-0.778 1.049 2.395 0.271 4.199 2.207 6.542 2.207 3.033 0 4.948-1.549 4.971-4.097 0.042-4.615-6.067-5.545-8.58-3.423zM11.932 9.817c-0.797-0.022-1.603-0.341-2.243-0.653-1.577-0.77-2.225-1.035-2.225-1.072 0-0.045 0.947 0.323 2.542-0.526 0.922-0.49 0.955-0.918 1.927-1.003 1.153-0.101 1.975 0.753 1.975 1.652s-0.815 1.635-1.975 1.603z"></path>
</svg>
