<!-- Generated by IcoMoon.io -->
<svg version="1.1" xmlns="http://www.w3.org/2000/svg" width="16" height="16" viewBox="0 0 16 16">
<title>medium</title>
<path d="M0 0v16h16v-16zM13.292 3.791l-0.858 0.823c-0.060 0.046-0.099 0.118-0.099 0.199 0 0.015 0.001 0.029 0.004 0.043l-0-0.002v6.045c-0.002 0.012-0.003 0.027-0.003 0.041 0 0.081 0.038 0.153 0.098 0.199l0.001 0 0.838 0.823v0.181h-4.215v-0.18l0.868-0.843c0.085-0.085 0.085-0.11 0.085-0.24v-4.887l-2.413 6.13h-0.327l-2.811-6.13v4.109c-0.003 0.023-0.005 0.049-0.005 0.076 0 0.154 0.061 0.293 0.161 0.395l-0-0 1.129 1.369v0.181h-3.201v-0.18l1.13-1.37c0.095-0.098 0.153-0.232 0.153-0.379 0-0.032-0.003-0.064-0.008-0.095l0 0.003v-4.751c0.001-0.013 0.002-0.027 0.002-0.042 0-0.122-0.053-0.233-0.137-0.309l-0-0-1.004-1.209v-0.18h3.116l2.409 5.282 2.117-5.283h2.971z"></path>
</svg>
