<!-- Generated by IcoMoon.io -->
<svg version="1.1" xmlns="http://www.w3.org/2000/svg" width="16" height="16" viewBox="0 0 16 16">
<title>mediatemple</title>
<path d="M3.226 6.763v0.38h0.023c0.681-0.41 1.38-0.444 1.8-0.444 1.13 0 1.52 0.319 1.66 0.44 0.26-0.15 0.819-0.451 1.79-0.451 1.931 0 1.931 0.761 1.931 1.060v1.8h-1.549v-1.589c0-0.329 0-0.697-0.827-0.697-0.408 0-0.828 0.125-0.975 0.307-0.137 0.156-0.194 0.297-0.194 0.643v1.347h-1.55v-1.535c0-0.474 0.010-0.76-0.804-0.76-0.41 0-0.828 0.108-0.987 0.27-0.124 0.123-0.205 0.253-0.205 0.664v1.36h-1.559v-2.8h1.44zM14.18 7.383h-1.127v1.12c0 0.395 0 0.524 0.461 0.524 0.219 0 0.412-0.025 0.619-0.064l0.047-0.006 0.147 0.569c-0.545 0.1-1.141 0.111-1.311 0.111-0.507 0-1.161-0.074-1.403-0.283-0.206-0.17-0.231-0.337-0.231-0.761v-1.213h-0.763v-0.585h0.763v-0.551l1.68-0.433v0.986h1.131v0.585zM1.027 11.14c-0.617-0.931-1.027-2.040-1.027-3.154 0-1.316 0.517-2.386 1.041-3.139h0.624c-0.463 1.027-0.779 1.9-0.779 3.168 0 1.455 0.516 2.577 0.75 3.085 0.008 0 0.023 0.030 0.023 0.041zM14.973 4.86c0.617 0.932 1.027 2.040 1.027 3.154 0 1.314-0.517 2.387-1.041 3.139h-0.624c0.463-1.027 0.78-1.9 0.78-3.168 0-1.456-0.518-2.575-0.753-3.086-0.008-0.007-0.021-0.033-0.021-0.040z"></path>
</svg>
