<!-- Generated by IcoMoon.io -->
<svg version="1.1" xmlns="http://www.w3.org/2000/svg" width="16" height="16" viewBox="0 0 16 16">
<title>meetup</title>
<path fill="#ed1c40" d="M4.654 0.37c-0.025 0-0.049 0.003-0.073 0.008l0.002-0c-0.192 0.041-0.314 0.229-0.272 0.421s0.229 0.313 0.421 0.272c0.161-0.036 0.28-0.178 0.28-0.347 0-0.026-0.003-0.052-0.008-0.077l0 0.002c-0.036-0.167-0.185-0.28-0.35-0.279zM8.957 0.796c-0.001 0-0.002 0-0.002 0-0.126 0-0.243 0.035-0.343 0.097l0.003-0.002c-0.313 0.188-0.416 0.593-0.228 0.906s0.595 0.414 0.908 0.227c0.313-0.188 0.414-0.593 0.227-0.906-0.117-0.193-0.325-0.32-0.564-0.322h-0zM6.938 2.286c-0.65 0.003-1.304 0.195-1.88 0.592-0.583 0.403-0.998 0.957-1.232 1.573-0.339 0.046-0.673 0.159-0.974 0.367-0.995 0.687-1.257 2.026-0.626 3.042-0.856 0.784-1.054 2.090-0.404 3.099 0.386 0.598 0.992 0.958 1.643 1.065 0.012 0.488 0.159 0.977 0.457 1.409 0.816 1.181 2.435 1.477 3.616 0.661 0.045-0.031 0.080-0.071 0.122-0.104 0.658 0.587 1.647 0.684 2.405 0.16 0.404-0.279 0.662-0.686 0.775-1.128 0.593 0.022 1.197-0.129 1.723-0.492 1.261-0.871 1.6-2.574 0.793-3.859 0.648-0.546 0.787-1.501 0.289-2.206-0.222-0.315-0.535-0.52-0.878-0.622 0.050-0.656-0.114-1.332-0.517-1.915-0.786-1.137-2.222-1.554-3.464-1.104-0.519-0.337-1.154-0.538-1.836-0.538-0.004 0-0.009 0-0.013 0h0.001zM3.202 2.831c-0.106 0.001-0.204 0.035-0.284 0.091l0.002-0.001c-0.23 0.159-0.288 0.473-0.129 0.703s0.474 0.288 0.704 0.129c0.133-0.092 0.219-0.244 0.219-0.416 0-0.107-0.034-0.207-0.091-0.289l0.001 0.002c-0.092-0.133-0.244-0.219-0.416-0.219-0.002 0-0.004 0-0.006 0h0zM13.865 4.411c-0.118 0.001-0.226 0.039-0.316 0.102l0.002-0.001c-0.148 0.103-0.243 0.272-0.243 0.464 0 0.311 0.252 0.564 0.564 0.564s0.564-0.252 0.564-0.564c0-0.12-0.037-0.231-0.101-0.322l0.001 0.002c-0.103-0.148-0.272-0.244-0.464-0.244-0.002 0-0.004 0-0.007 0h0zM8.431 5.096c0.042 0 0.083 0.004 0.121 0.009 0.152 0.022 0.244 0.079 0.301 0.125 0.112 0.089 0.182 0.161 0.288 0.262 0.16 0.152 0.275 0.059 0.355 0.013 0.139-0.081 0.246-0.145 0.656-0.138 0.422 0.007 0.908 0.158 1.009 0.878 0.112 0.8-1.31 2.859-1.211 3.815 0.070 0.674 1.21 0.199 1.306 0.814 0.125 0.798-1.424 0.501-1.777 0.328-0.555-0.272-0.891-0.893-0.747-1.506 0.107-0.459 1.133-2.332 1.172-2.62 0.039-0.294-0.118-0.318-0.216-0.323-0.126-0.007-0.226 0.054-0.35 0.241-0.113 0.171-1.388 2.724-1.499 2.932-0.198 0.373-0.447 0.463-0.697 0.449-0.365-0.019-0.532-0.214-0.479-0.565 0.031-0.207 0.84-2.033 0.882-2.318 0.026-0.176-0.009-0.363-0.184-0.453s-0.381 0.047-0.443 0.151c-0.085 0.144-1.232 3.138-1.354 3.359-0.211 0.384-0.434 0.506-0.768 0.522-0.791 0.037-1.377-0.613-1.119-1.41 0.115-0.355 0.877-3.048 1.263-3.733 0.259-0.461 0.979-0.811 1.478-0.595 0.259 0.112 0.617 0.292 0.723 0.339 0.244 0.108 0.506-0.185 0.609-0.275s0.201-0.184 0.327-0.238c0.094-0.040 0.228-0.063 0.354-0.063zM15.685 6.467c-0.022 0.001-0.044 0.003-0.065 0.008l0.002-0c-0.142 0.031-0.247 0.156-0.247 0.305 0 0.023 0.003 0.046 0.007 0.067l-0-0.002c0.032 0.142 0.157 0.246 0.306 0.246 0.023 0 0.046-0.003 0.067-0.007l-0.002 0c0.168-0.036 0.276-0.203 0.24-0.371-0.032-0.142-0.157-0.246-0.306-0.246-0.001 0-0.002 0-0.003 0h0zM0.672 7.008c-0.002-0-0.004-0-0.006-0-0.227 0-0.427 0.114-0.547 0.287l-0.001 0.002c-0.208 0.304-0.132 0.719 0.172 0.927s0.719 0.13 0.927-0.173 0.132-0.718-0.172-0.926c-0.104-0.072-0.233-0.116-0.372-0.117h-0zM14.869 8.404c-0.030 0-0.059 0.003-0.087 0.010l0.003-0.001c-0.19 0.042-0.33 0.209-0.33 0.409 0 0.031 0.003 0.062 0.010 0.092l-0.001-0.003c0.042 0.191 0.209 0.331 0.409 0.331 0.031 0 0.062-0.003 0.091-0.010l-0.003 0.001c0.226-0.049 0.371-0.271 0.322-0.497-0.042-0.19-0.21-0.331-0.41-0.331-0.001 0-0.003 0-0.004 0h0zM2.708 12.469c-0.022 0.001-0.043 0.003-0.063 0.008l0.002-0c-0.167 0.036-0.274 0.201-0.238 0.369s0.201 0.273 0.368 0.237c0.141-0.031 0.244-0.155 0.244-0.303 0-0.023-0.003-0.046-0.007-0.068l0 0.002c-0.031-0.141-0.155-0.245-0.303-0.245-0.001 0-0.002 0-0.003 0h0zM11.825 13.503c-0.146 0.002-0.281 0.048-0.392 0.125l0.002-0.001c-0.317 0.219-0.396 0.654-0.177 0.971s0.654 0.396 0.971 0.177c0.317-0.219 0.396-0.654 0.177-0.971-0.127-0.183-0.336-0.301-0.573-0.301-0.003 0-0.006 0-0.009 0h0zM7.6 14.769c-0.090 0.001-0.173 0.030-0.241 0.078l0.001-0.001c-0.113 0.079-0.186 0.208-0.186 0.354 0 0.092 0.029 0.176 0.077 0.246l-0.001-0.001c0.079 0.113 0.208 0.186 0.354 0.186 0.092 0 0.176-0.029 0.246-0.077l-0.001 0.001c0.113-0.079 0.186-0.208 0.186-0.354 0-0.092-0.029-0.176-0.077-0.246l0.001 0.001c-0.079-0.113-0.208-0.186-0.355-0.186-0.002 0-0.003 0-0.005 0h0z"></path>
</svg>
