<!-- Generated by IcoMoon.io -->
<svg version="1.1" xmlns="http://www.w3.org/2000/svg" width="16" height="16" viewBox="0 0 16 16">
<title>mega</title>
<path fill="#d9272e" d="M8 0c-4.419 0-8 3.581-8 8s3.581 8 8 8 8-3.581 8-8-3.581-8-8-8zM12.153 10.829c0 0 0 0 0 0.001 0 0.137-0.111 0.247-0.247 0.247-0 0-0.001 0-0.001 0h-1.045c-0 0-0 0-0.001 0-0.137 0-0.247-0.111-0.247-0.247 0-0 0-0 0-0.001v0-3.219c0-0.027-0.031-0.040-0.053-0.022l-2.213 2.213c-0.089 0.088-0.212 0.143-0.348 0.143s-0.258-0.055-0.348-0.143l-2.213-2.213c-0.018-0.018-0.053-0.005-0.053 0.022v3.219c0 0 0 0 0 0.001 0 0.137-0.111 0.247-0.247 0.247-0 0-0 0-0.001 0h-1.045c-0 0-0 0-0.001 0-0.137 0-0.247-0.111-0.247-0.247 0-0 0-0 0-0.001v0-5.658c0-0.137 0.111-0.248 0.248-0.248h0.717c0.137 0.001 0.26 0.057 0.35 0.147v0l2.753 2.753c0.022 0.023 0.053 0.037 0.087 0.037s0.065-0.014 0.087-0.037l2.753-2.753c0.093-0.093 0.217-0.147 0.35-0.147h0.717c0.137 0 0.248 0.111 0.248 0.248z"></path>
</svg>
