<!-- Generated by IcoMoon.io -->
<svg version="1.1" xmlns="http://www.w3.org/2000/svg" width="16" height="16" viewBox="0 0 16 16">
<title>mendeley</title>
<path fill="#9d1620" d="M7.982 6.127h0.013c0.864 0.001 1.565 0.702 1.565 1.566 0 0.483-0.219 0.915-0.562 1.202l-0.002 0.002c-0.154 0.145-0.347 0.251-0.561 0.299l-0.008 0.002c-0.129 0.039-0.278 0.061-0.431 0.061h-0.013c-0.149 0-0.294-0.022-0.431-0.061-0.223-0.050-0.416-0.155-0.57-0.301l0.001 0.001c-0.347-0.288-0.566-0.72-0.566-1.202 0-0.001 0-0.001 0-0.002v0c0.001-0.865 0.702-1.566 1.567-1.566h0zM1.35 12.427c0.841 0.105 1.588-0.507 1.667-1.368 0.004-0.043 0.006-0.093 0.006-0.144 0-0.246-0.055-0.479-0.153-0.688l0.004 0.010c-1.179-2.586 4.637-2.645 3.654-0.205l-0.007 0.011c-0.465 0.743-0.213 1.709 0.559 2.155 0.284 0.165 0.599 0.233 0.906 0.22 0.307 0.013 0.622-0.055 0.906-0.22 0.772-0.447 1.024-1.411 0.559-2.155l-0.007-0.011c-0.983-2.441 4.833-2.381 3.653 0.205-0.093 0.199-0.148 0.432-0.148 0.677 0 0.051 0.002 0.101 0.007 0.151l-0-0.006c0.080 0.861 0.826 1.473 1.668 1.368 0.377-0.050 0.706-0.228 0.946-0.489l0.001-0.001c0 0 0.391-0.325 0.385-1.153-0.005-0.675-0.385-1.049-0.385-1.049-0.267-0.27-0.637-0.438-1.047-0.438-0.056 0-0.112 0.003-0.166 0.009l0.007-0.001c-1.079-0.024-1.239-0.869-0.935-2.463 0.112-0.283 0.161-0.585 0.151-0.888 0.001-0.026 0.002-0.056 0.002-0.086 0-0.947-0.579-1.759-1.403-2.1l-0.015-0.006c-0.026-0.011-0.052-0.020-0.079-0.031-0.022-0.009-0.052-0.020-0.082-0.029l-0.007-0.002c-0.216-0.075-0.466-0.119-0.726-0.119-0.816 0-1.531 0.43-1.931 1.075l-0.006 0.010c-0.543 0.597-0.789 0.959-1.348 0.959-0.531 0-0.805-0.362-1.348-0.959-0.405-0.656-1.121-1.087-1.937-1.087-0.293 0-0.573 0.055-0.83 0.156l0.015-0.005c-0.027 0.011-0.053 0.019-0.079 0.031-0.838 0.347-1.418 1.158-1.418 2.105 0 0.030 0.001 0.061 0.002 0.091l-0-0.004c-0.011 0.303 0.039 0.605 0.15 0.888 0.305 1.594 0.145 2.439-0.934 2.463-0.529-0.057-0.923 0.161-1.322 0.561-0.4 0.399-0.367 1.467 0 1.933 0.266 0.339 0.627 0.574 1.063 0.629z"></path>
</svg>
