<!-- Generated by IcoMoon.io -->
<svg version="1.1" xmlns="http://www.w3.org/2000/svg" width="16" height="16" viewBox="0 0 16 16">
<title>mercedes</title>
<path d="M8.003 0c4.415 0 8 3.585 8 8s-3.585 8-8 8-8-3.585-8-8 3.585-8 8-8zM2.167 11.693c1.244 1.944 3.391 3.214 5.836 3.214 0 0 0.001 0 0.001 0h-0c2.454 0 4.611-1.283 5.837-3.214l-5.837-2.224zM9.275 7.265l4.845 3.943c0.498-0.927 0.79-2.029 0.79-3.199 0-0.004 0-0.007-0-0.011v0.001c0-3.718-2.945-6.754-6.627-6.901zM7.723 1.099c-3.682 0.147-6.627 3.183-6.627 6.901 0 1.158 0.285 2.249 0.79 3.209l4.845-3.943z"></path>
</svg>
