<!-- Generated by IcoMoon.io -->
<svg version="1.1" xmlns="http://www.w3.org/2000/svg" width="16" height="16" viewBox="0 0 16 16">
<title>messenger</title>
<path fill="#00b2ff" d="M0 7.76c0-4.46 3.493-7.76 8-7.76s8 3.3 8 7.76-3.493 7.76-8 7.76c-0.807 0-1.587-0.107-2.313-0.307-0.050-0.014-0.107-0.022-0.166-0.022-0.094 0-0.184 0.020-0.264 0.057l0.004-0.002-1.593 0.7c-0.077 0.035-0.166 0.055-0.26 0.055-0.347 0-0.63-0.276-0.64-0.621l-0-0.001-0.047-1.427c-0.008-0.18-0.088-0.34-0.213-0.453l-0.001-0.001c-1.542-1.395-2.507-3.404-2.507-5.638 0-0.036 0-0.071 0.001-0.107l-0 0.005zM5.547 6.3l-2.347 3.733c-0.233 0.353 0.213 0.76 0.547 0.5l2.527-1.913c0.173-0.133 0.4-0.133 0.58 0l1.867 1.4c0.56 0.42 1.36 0.267 1.733-0.32l2.347-3.733c0.233-0.353-0.213-0.753-0.547-0.5l-2.527 1.913c-0.167 0.133-0.4 0.133-0.573 0l-1.867-1.4c-0.199-0.151-0.45-0.243-0.723-0.243-0.426 0-0.801 0.222-1.014 0.558l-0.003 0.005z"></path>
</svg>
