<!-- Generated by IcoMoon.io -->
<svg version="1.1" xmlns="http://www.w3.org/2000/svg" width="16" height="16" viewBox="0 0 16 16">
<title>meteor</title>
<path fill="#de4f4f" d="M0 0.156l14.608 13.691c0 0 0.275 0.383-0.083 0.767s-0.824 0.055-0.824 0.055zM4.339 1.528l11.34 10.425c0 0 0.275 0.384-0.082 0.768-0.356 0.384-0.823 0.055-0.823 0.055zM1.291 4.464l11.34 10.425c0 0 0.275 0.384-0.082 0.768s-0.823 0.055-0.823 0.055zM8.006 2.707l7.924 7.285c0 0 0.191 0.267-0.058 0.537s-0.575 0.039-0.575 0.039zM2.295 7.865l7.924 7.284c0 0 0.19 0.267-0.059 0.535-0.25 0.269-0.575 0.039-0.575 0.039zM11.753 4.409l3.617 3.303c0 0 0.095 0.125-0.029 0.251s-0.285 0.018-0.285 0.018l-3.303-3.572zM4.119 11.487l3.617 3.304c0 0 0.096 0.125-0.028 0.251s-0.285 0.017-0.285 0.017z"></path>
</svg>
