<!-- Generated by IcoMoon.io -->
<svg version="1.1" xmlns="http://www.w3.org/2000/svg" width="16" height="16" viewBox="0 0 16 16">
<title>microsoftteams</title>
<path fill="#6264a7" d="M6.169 3.731h1.576c0.407 0 0.735 0.329 0.735 0.736v1.055c1.268-0.025 2.287-1.059 2.287-2.33 0-1.287-1.043-2.331-2.331-2.331s-2.331 1.043-2.331 2.331c0 0.191 0.023 0.378 0.067 0.556l-0.003-0.016zM13.535 5.523h0.001c0 0 0.001 0 0.001 0 0.885 0 1.603-0.718 1.603-1.603s-0.717-1.602-1.601-1.603h-0c-0.001 0-0.001 0-0.002 0-0.885 0-1.603 0.718-1.603 1.603s0.716 1.602 1.601 1.603h0zM8.145 11.545v-6.798c0-0.375-0.304-0.68-0.679-0.681h-6.799c-0.375 0.001-0.678 0.305-0.679 0.68v6.799c0 0.375 0.304 0.679 0.679 0.679h6.8c0.375-0.001 0.678-0.305 0.678-0.68 0 0 0 0 0 0v0zM5.817 6.551h-1.331v3.795h-0.847v-3.796h-1.324v-0.737h3.501zM15.342 6.397h-6.861v5.427c0 0.407-0.33 0.736-0.736 0.736h-2.812c0.615 1.523 2.082 2.578 3.794 2.578 0.541 0 1.058-0.105 1.53-0.297l-0.027 0.010c0.96-0.388 1.722-1.1 2.163-1.999l0.011-0.024c0.325 0.17 0.711 0.27 1.12 0.27 0.001 0 0.002 0 0.003 0h0.018c1.363 0 2.467-1.105 2.467-2.467v0-3.564c0-0.37-0.3-0.67-0.67-0.67z"></path>
</svg>
