<!-- Generated by IcoMoon.io -->
<svg version="1.1" xmlns="http://www.w3.org/2000/svg" width="16" height="16" viewBox="0 0 16 16">
<title>microsoftonenote</title>
<path fill="#80397b" d="M15.965 6.789v2.395c0 0.093-0.033 0.172-0.099 0.239-0.067 0.065-0.147 0.1-0.238 0.1h-0.519v-3.075h0.519c0.092 0 0.172 0.033 0.238 0.099 0.066 0.068 0.099 0.146 0.099 0.241zM15.627 9.879c0.092 0 0.172 0.033 0.238 0.099s0.099 0.147 0.099 0.238v2.405c0 0.093-0.033 0.172-0.099 0.24-0.067 0.065-0.147 0.097-0.238 0.097h-0.519v-3.081zM15.627 3.019c0.092 0 0.178 0.034 0.256 0.1 0.078 0.068 0.117 0.147 0.117 0.24v2.396c0 0.098-0.041 0.181-0.117 0.243-0.078 0.060-0.164 0.090-0.256 0.090h-0.859v7.389c0 0.090-0.035 0.16-0.105 0.221-0.070 0.050-0.149 0.080-0.243 0.080h-4.469v-1.51h3.471v-0.721h-3.471v-0.849h3.471v-0.681h-3.471v-0.87h3.471v-0.67h-3.471v-0.849h3.471v-0.671h-3.471v-0.87h3.471v-0.68h-3.471v-0.85h3.471v-0.71h-3.471v-1.689h4.591c0.011 0 0.050 0.029 0.113 0.090 0.063 0.063 0.101 0.139 0.113 0.229v0.541zM9.097 0.443v15.115l-9.097-1.571v-11.933l9.098-1.611zM6.502 4.923l-1.067 0.070v1.986c-0.012 1.163-0.012 1.835 0 2.014l-2.127-3.879-1.086 0.043v5.504l0.849 0.069v-4.061l2.293 4.177 1.137 0.069z"></path>
</svg>
