<!-- Generated by IcoMoon.io -->
<svg version="1.1" xmlns="http://www.w3.org/2000/svg" width="16" height="16" viewBox="0 0 16 16">
<title>microsoftoutlook</title>
<path fill="#0072c6" d="M16 4.925v6.985c0 0.153-0.053 0.283-0.159 0.384-0.105 0.103-0.235 0.153-0.387 0.153h-5.698v-4.639l1.067 0.819c0.068 0.057 0.153 0.084 0.253 0.084 0.099 0 0.185-0.027 0.259-0.085zM9.757 3.577h5.698c0.141 0 0.262 0.042 0.362 0.128s0.156 0.2 0.165 0.34l-4.913 3.917-1.313-1.033zM8.936 0.576v14.847l-8.936-1.544v-11.717l8.937-1.587zM6.237 8.029c-0.013-0.755-0.209-1.381-0.586-1.876-0.37-0.493-0.85-0.754-1.421-0.776-0.549 0.022-1.019 0.282-1.4 0.776s-0.57 1.121-0.58 1.876c0.010 0.745 0.21 1.365 0.59 1.861 0.381 0.493 0.849 0.755 1.401 0.784 0.57-0.023 1.049-0.283 1.43-0.78 0.38-0.499 0.58-1.12 0.59-1.865zM4.157 6.375c0.287 0.013 0.529 0.171 0.722 0.478 0.19 0.307 0.29 0.697 0.29 1.168 0 0.481-0.099 0.871-0.29 1.181-0.201 0.309-0.44 0.469-0.731 0.469s-0.53-0.151-0.73-0.46-0.29-0.7-0.29-1.169c0-0.47 0.090-0.861 0.29-1.16 0.189-0.3 0.431-0.46 0.721-0.481z"></path>
</svg>
