<!-- Generated by IcoMoon.io -->
<svg version="1.1" xmlns="http://www.w3.org/2000/svg" width="16" height="16" viewBox="0 0 16 16">
<title>microsoftaccess</title>
<path fill="#ba141a" d="M16 10.013c-0.034 0.361-0.515 0.65-1.443 0.86-0.928 0.213-2.092 0.319-3.493 0.319-0.414 0-0.811-0.005-1.19-0.017v2.189c0.379 0.022 0.776 0.035 1.19 0.035 1.396-0.013 2.56-0.137 3.489-0.375s1.413-0.539 1.447-0.901zM11.045 8.435c-0.402 0-0.799-0.011-1.189-0.034l0.017 2.23c0.38 0.011 0.775 0.020 1.19 0.020 1.4-0.010 2.565-0.13 3.493-0.37 0.928-0.231 1.41-0.53 1.443-0.89v-2.151c-0.034 0.362-0.517 0.652-1.452 0.87-0.933 0.22-2.1 0.33-3.503 0.33zM11.045 5.687c-0.402 0-0.799-0.013-1.189-0.035v2.223c0.39 0.023 0.788 0.035 1.189 0.035 1.401-0.013 2.57-0.135 3.503-0.37 0.934-0.236 1.418-0.535 1.452-0.897v-2.137c-0.034 0.363-0.517 0.651-1.452 0.863-0.933 0.211-2.1 0.319-3.503 0.319zM11.045 2.602c-0.402 0-0.799 0.017-1.189 0.051v2.465c0.39 0.023 0.788 0.033 1.189 0.033 1.401-0.010 2.57-0.133 3.503-0.365 0.935-0.232 1.418-0.533 1.452-0.901-0.034-0.361-0.517-0.663-1.452-0.904-0.933-0.24-2.1-0.36-3.503-0.371zM4.316 6.074c-0.021 0.131-0.114 0.549-0.275 1.25l-0.3 1.223 1.2 0.017-0.28-1.223c-0.171-0.713-0.281-1.139-0.301-1.26h-0.040zM0 2.102v11.839l9.030 1.559v-15zM5.523 10.925l-0.336-1.335-1.663-0.060-0.319 1.257-1.061-0.070 1.613-5.65 1.233-0.069 1.759 5.997-1.23-0.070z"></path>
</svg>
