<!-- Generated by IcoMoon.io -->
<svg version="1.1" xmlns="http://www.w3.org/2000/svg" width="16" height="16" viewBox="0 0 16 16">
<title>microsoftonedrive</title>
<path fill="#094ab2" d="M3.28 11.708c-0.333 0.203-0.706 0.305-1.12 0.305-0.613-0.019-1.12-0.231-1.525-0.634-0.405-0.401-0.615-0.911-0.635-1.521 0.011-0.575 0.194-1.063 0.553-1.461 0.36-0.401 0.817-0.632 1.372-0.7-0.020-0.119-0.028-0.245-0.028-0.377 0.020-0.76 0.28-1.389 0.78-1.879 0.503-0.49 1.133-0.75 1.895-0.77 0.479 0 0.909 0.11 1.289 0.34 0.32-0.511 0.731-0.93 1.241-1.239 0.519-0.31 1.1-0.47 1.739-0.481 0.861 0.020 1.59 0.291 2.209 0.81s1.011 1.19 1.171 2.020h-0.19c-0.31 0-0.579 0.040-0.82 0.129-0.319-0.34-0.69-0.599-1.109-0.779-0.41-0.181-0.86-0.26-1.341-0.26-0.44 0-0.86 0.069-1.26 0.22s-0.76 0.359-1.080 0.639c-0.28 0.24-0.51 0.511-0.7 0.82s-0.32 0.64-0.39 0.99c-0.24 0.050-0.47 0.119-0.681 0.209-0.34 0.159-0.629 0.379-0.859 0.67-0.22 0.25-0.391 0.541-0.5 0.87-0.11 0.331-0.171 0.671-0.171 1.030 0 0.4 0.061 0.771 0.201 1.111zM14.512 9.21c1.051 0.261 1.545 0.88 1.483 1.854-0.061 0.975-0.629 1.525-1.703 1.647h-8.492c-1.403-0.185-2.092-0.91-2.068-2.175 0.023-1.27 0.736-1.969 2.14-2.090 0.183-1.36 0.877-2.2 2.080-2.52 1.204-0.329 2.228 0.041 3.075 1.121 0.291-0.24 0.657-0.341 1.1-0.311 0.445 0.030 0.823 0.121 1.131 0.291 0.4 0.209 0.72 0.51 0.931 0.891 0.209 0.379 0.319 0.81 0.319 1.279z"></path>
</svg>
