<!-- Generated by IcoMoon.io -->
<svg version="1.1" xmlns="http://www.w3.org/2000/svg" width="16" height="16" viewBox="0 0 16 16">
<title>microsoftpowerpoint</title>
<path fill="#d24726" d="M15.656 2.667h-5.695v2.124c0.343-0.26 0.755-0.392 1.237-0.392v2.065h2.049c-0.010 0.579-0.21 1.068-0.601 1.462-0.389 0.395-0.879 0.597-1.459 0.611-0.45-0.013-0.86-0.149-1.219-0.41v1.419h4.479v0.697h-4.481v0.862h4.477v0.688h-4.479v1.56h5.695c0.231 0 0.34-0.121 0.34-0.358v-9.988c0-0.228-0.109-0.34-0.34-0.34zM11.52 6.124v-2.083c0.58 0.013 1.067 0.215 1.459 0.607 0.391 0.392 0.594 0.884 0.604 1.476zM5.504 6.159c-0.035-0.134-0.093-0.238-0.175-0.315-0.080-0.075-0.188-0.129-0.322-0.164-0.15-0.041-0.305-0.060-0.46-0.060l-0.48 0.009v1.999h0.017c0.174 0.011 0.357 0.011 0.55 0 0.19-0.010 0.37-0.060 0.539-0.15 0.209-0.15 0.333-0.35 0.374-0.609 0.040-0.261 0.026-0.511-0.043-0.741zM0 2.039v11.964l9.125 1.577v-15.16zM6.809 7.431c-0.25 0.579-0.623 0.95-1.123 1.11s-1.039 0.221-1.619 0.186v2.281l-1.201-0.139v-6.268l1.906-0.099c0.353-0.022 0.703 0.017 1.044 0.12 0.343 0.101 0.615 0.306 0.815 0.615 0.2 0.307 0.313 0.664 0.34 1.070 0.025 0.406-0.029 0.781-0.163 1.125z"></path>
</svg>
