<!-- Generated by IcoMoon.io -->
<svg version="1.1" xmlns="http://www.w3.org/2000/svg" width="16" height="16" viewBox="0 0 16 16">
<title>micro-dot-blog</title>
<path fill="#fd8308" d="M14.267 11.8c-1.333 1.733-0.667 3.2-0.2 3.933 0.2 0.267-0.067 0.267-0.2 0.267-1.129-0.21-2.073-0.871-2.657-1.784l-0.010-0.016c-0.133-0.067-0.2-0.133-0.333-0.067-0.933 0.267-1.867 0.467-2.867 0.4-4.4 0-8-3.2-8-7.2s3.6-7.333 8-7.333 8 3.267 8 7.333c0 1.667-0.667 3.2-1.733 4.467zM8 9.333l2.133 1.467c0.039 0.023 0.086 0.037 0.136 0.037 0.147 0 0.267-0.119 0.267-0.267 0-0.013-0.001-0.026-0.003-0.039l0 0.001-0.8-2.533 2.067-1.6c0.028-0.042 0.045-0.093 0.045-0.148 0-0.116-0.074-0.214-0.177-0.251l-0.002-0.001h-2.6l-0.867-2.533c-0.049-0.055-0.12-0.090-0.2-0.090s-0.151 0.035-0.2 0.090l-0 0-0.867 2.533h-2.667c-0.104 0.038-0.177 0.136-0.177 0.251 0 0.088 0.043 0.167 0.109 0.215l0.001 0.001 2 1.6-0.667 2.467c-0 0.003-0 0.006-0 0.008 0 0.147 0.119 0.267 0.267 0.267 0.024 0 0.047-0.003 0.069-0.009l-0.002 0z"></path>
</svg>
