<!-- Generated by IcoMoon.io -->
<svg version="1.1" xmlns="http://www.w3.org/2000/svg" width="16" height="16" viewBox="0 0 16 16">
<title>microsoftedge</title>
<path fill="#0078d7" d="M15.439 9.5h-10.225c0 0.385 0.057 0.735 0.175 1.050 0.125 0.31 0.287 0.587 0.495 0.83 0.207 0.243 0.45 0.45 0.735 0.625 0.275 0.175 0.575 0.32 0.895 0.432 0.317 0.115 0.65 0.2 0.987 0.255 0.316 0.053 0.68 0.083 1.052 0.083 0.408 0 0.808-0.036 1.197-0.106l-0.041 0.006c0.376-0.070 0.741-0.163 1.101-0.28s0.707-0.258 1.055-0.418c0.35-0.16 0.705-0.335 1.070-0.53v3.39c-0.408 0.2-0.808 0.368-1.208 0.513-0.4 0.14-0.8 0.263-1.207 0.36-0.408 0.1-0.82 0.175-1.243 0.22-0.391 0.044-0.845 0.070-1.304 0.070h-0c-0.6 0-1.18-0.070-1.737-0.207-0.596-0.147-1.119-0.351-1.606-0.613l0.036 0.018c-0.512-0.274-0.953-0.588-1.351-0.949l0.005 0.005c-0.803-0.728-1.404-1.664-1.719-2.723l-0.011-0.042c-0.151-0.511-0.237-1.098-0.237-1.705 0-0.012 0-0.025 0-0.037l-0 0.002c0-0.657 0.090-1.283 0.27-1.88 0.183-0.6 0.44-1.145 0.78-1.645 0.35-0.513 0.759-0.952 1.225-1.323l0.012-0.009c0.473-0.377 1.016-0.697 1.601-0.934l0.044-0.016c-0.328 0.328-0.591 0.722-0.767 1.159l-0.008 0.023c-0.171 0.399-0.297 0.862-0.355 1.346l-0.002 0.024h5.695c0-0.575-0.057-1.075-0.175-1.505s-0.305-0.787-0.567-1.070c-0.26-0.285-0.595-0.5-1.008-0.64-0.412-0.143-0.91-0.215-1.492-0.215-0.688 0-1.375 0.1-2.063 0.307-0.687 0.2-1.34 0.487-1.96 0.85-0.62 0.367-1.19 0.8-1.71 1.295-0.52 0.5-0.957 1.038-1.313 1.62 0.083-0.723 0.235-1.381 0.452-2.008l-0.020 0.066c0.207-0.617 0.482-1.193 0.813-1.726 0.343-0.542 0.726-1.013 1.158-1.433l0.002-0.002c0.442-0.43 0.932-0.8 1.475-1.1s1.117-0.542 1.743-0.705c0.598-0.143 1.284-0.226 1.989-0.227h0.001c0.41 0 0.817 0.037 1.225 0.11 0.408 0.075 0.805 0.175 1.193 0.305 0.769 0.265 1.457 0.635 2.062 1.105 0.592 0.463 1.097 1.001 1.509 1.608l0.016 0.025c0.413 0.617 0.725 1.3 0.94 2.042s0.325 1.515 0.325 2.318z"></path>
</svg>
