<!-- Generated by IcoMoon.io -->
<svg version="1.1" xmlns="http://www.w3.org/2000/svg" width="16" height="16" viewBox="0 0 16 16">
<title>microsoftword</title>
<path fill="#2b579a" d="M15.999 2.489v11.031c0 0.094-0.033 0.17-0.099 0.231-0.067 0.063-0.147 0.092-0.24 0.092h-5.706v-1.53h4.655v-0.697h-4.659v-0.853h4.655v-0.696h-4.651v-0.86h4.653v-0.688h-4.653v-0.862h4.653v-0.696h-4.653v-0.853h4.653v-0.695h-4.653v-0.87h4.653v-0.663h-4.653v-1.729h5.708c0.099 0 0.18 0.032 0.239 0.099 0.070 0.066 0.1 0.147 0.099 0.237zM9.1 0.427v15.148l-9.1-1.575v-11.956l9.1-1.62zM7.727 4.899l-1.139 0.070-0.731 4.523h-0.017c-0.036-0.214-0.17-0.963-0.41-2.245l-0.426-2.175-1.069 0.053-0.428 2.122c-0.25 1.236-0.389 1.955-0.426 2.157h-0.010l-0.65-4.167-0.98 0.052 1.050 5.255 1.089 0.070 0.41-2.045c0.24-1.2 0.38-1.897 0.41-2.088h0.030c0.041 0.203 0.171 0.916 0.41 2.14l0.41 2.105 1.18 0.070 1.32-5.9z"></path>
</svg>
