<!-- Generated by IcoMoon.io -->
<svg version="1.1" xmlns="http://www.w3.org/2000/svg" width="16" height="16" viewBox="0 0 16 16">
<title>microsoftexcel</title>
<path fill="#217346" d="M15.702 2.068h-5.36v0.992h1.58v1.569h-1.58v0.5h1.58v1.571h-1.58v0.514h1.58v1.486h-1.58v0.595h1.58v1.489h-1.58v0.595h1.58v1.498h-1.58v1.093h5.36c0.085-0.025 0.155-0.125 0.212-0.299 0.057-0.175 0.086-0.317 0.086-0.424v-10.999c0-0.085-0.029-0.137-0.086-0.155s-0.127-0.027-0.212-0.027zM15.007 12.877h-2.571v-1.497h2.571v1.498zM15.007 10.785h-2.571v-1.49h2.571zM15.007 8.7h-2.571v-1.479h2.571v1.481zM15.007 6.7h-2.571v-1.569h2.571v1.57zM15.007 4.621h-2.571v-1.56h2.571v1.57zM0 1.821v12.401l9.44 1.633v-15.708l-9.44 1.68zM5.595 11.201c-0.036-0.097-0.205-0.511-0.505-1.242s-0.48-1.156-0.533-1.277h-0.017l-1.013 2.41-1.353-0.091 1.605-3-1.47-3 1.38-0.073 0.912 2.347h0.018l1.030-2.454 1.426-0.090-1.698 3.247 1.75 3.312-1.533-0.090z"></path>
</svg>
