<!-- Generated by IcoMoon.io -->
<svg version="1.1" xmlns="http://www.w3.org/2000/svg" width="16" height="16" viewBox="0 0 16 16">
<title>minds</title>
<path fill="#fed12f" d="M10.33 12.253c0.010-0.004 0.017-0.012 0.020-0.022l0-0 0.462-1.478 2.128-3.193c0.001-0.001 0.001-0.002 0.002-0.003l0-0c0-0 0-0.001 0.001-0.001l0-0c0-0 0-0.001 0.001-0.001l0-0c0-0.001 0.001-0.002 0.001-0.003l0-0c0-0 0-0.001 0-0.001s0-0.001-0-0.001v0c0-0.001 0.001-0.001 0.001-0.002l0-0c0-0 0-0.001 0-0.001s-0-0.001-0-0.001v0c0-0 0-0.001 0-0.002s-0-0.001-0-0.002v0c0-0 0-0.001 0-0.001s0-0.001-0-0.001v0c0-0 0-0.001 0-0.001s0-0.001-0-0.001v0l-0.277-4.631c0-0 0-0 0-0s0-0 0-0v0c-0-0.001-0-0.002-0.001-0.004l0 0c0-0 0-0 0-0.001s0-0 0-0.001v0c-0.001-0.002-0.001-0.004-0.002-0.006l0 0c-0-0.001-0.001-0.002-0.001-0.004l0 0c-0.001-0.001-0.001-0.002-0.001-0.003l0 0c-0.001-0.001-0.001-0.002-0.002-0.003l0 0c-0.001-0.001-0.001-0.001-0.002-0.002l-0-0c0-0 0-0 0-0s0-0 0-0v0l-2.781-2.873c-0.001-0.001-0.002-0.001-0.003-0.002l-0-0c-0.001-0-0.001-0.001-0.002-0.001l-0-0c-0.001-0-0.001-0.001-0.002-0.001l-0-0c-0-0-0.001-0-0.001-0.001l-0-0c-0-0-0.001-0-0.001-0.001l-0-0c-0-0-0.001-0-0.001-0.001l-0-0c-0 0-0 0-0 0s-0 0-0 0h0c0-0 0-0 0-0s0-0 0-0v0c-0 0-0 0-0.001 0s-0 0-0.001 0h0c-0-0-0.001-0-0.001-0.001l-0-0c-0 0-0 0-0 0s-0 0-0 0h0c-0.001-0-0.002-0.001-0.003-0.001l-0-0c-0-0-0.001-0-0.001-0s-0.001 0-0.001 0h0c-0 0-0 0-0.001 0s-0 0-0.001 0h0c-0 0-0 0-0 0s-0 0-0 0h0c-0 0-0 0-0 0s-0 0-0 0h0c-0-0-0.001-0-0.001-0s-0.001 0-0.001 0h0c-0 0-0 0-0 0s-0 0-0 0h0c-0 0-0 0-0 0s-0 0-0 0h-3.705c-0-0-0.001-0-0.001-0s-0.001 0-0.001 0h0c-0-0-0.001-0-0.001-0s-0.001 0-0.001 0h0c-0-0-0.001-0-0.001-0s-0.001 0-0.001 0h0c-0.001 0-0.002 0.001-0.002 0.001l0-0c-0.001 0-0.002 0.001-0.002 0.001l0-0c-0.001 0-0.002 0.001-0.004 0.001l0-0c-0.001 0.001-0.002 0.001-0.003 0.002l0-0c-0.001 0.001-0.002 0.001-0.003 0.001l0-0c-0 0-0 0-0 0s-0 0-0 0h0c-0.001 0.001-0.001 0.002-0.002 0.003l-0 0c-0 0-0 0-0 0s-0 0-0 0h0c-0.001 0.001-0.001 0.001-0.002 0.002l-0 0-2.78 2.873c-0.001 0.001-0.001 0.002-0.002 0.003l-0 0c-0.001 0.002-0.003 0.004-0.004 0.006l-0 0c-0 0.001-0.001 0.002-0.001 0.003l-0 0c-0.001 0.001-0.001 0.003-0.001 0.005l-0 0c0 0 0 0 0 0.001s0 0 0 0.001v-0c-0 0-0 0.001-0.001 0.002l-0 0c-0 0-0 0.001-0 0.001s0 0.001 0 0.001v-0l-0.278 4.633c0 0 0 0 0 0s0 0 0 0v-0c0 0 0 0 0 0s0 0 0 0v-0c-0 0-0 0.001-0 0.001s0 0.001 0 0.001v-0c-0 0-0 0.001-0 0.001s0 0.001 0 0.001v-0c0 0 0 0 0 0.001s0 0 0 0.001v-0c-0 0-0 0.001-0 0.002s0 0.001 0 0.002v-0c0 0 0 0 0 0s0 0 0 0h-0c-0 0-0 0.001-0 0.001s0 0.001 0 0.001v-0c0 0.001 0.001 0.001 0.001 0.002l-0-0c0 0.001 0.001 0.001 0.001 0.002l-0-0c0 0.001 0.001 0.001 0.001 0.002l-0-0c0 0 0 0 0.001 0.001v0c0.001 0.001 0.001 0.001 0.001 0.002l-0-0c0 0.001 0.001 0.002 0.001 0.002l-0-0 2.129 3.193 0.461 1.476v0.001c0 0 0 0 0 0s0 0 0 0v-0c0 0.001 0.001 0.001 0.001 0.002l-0-0c0 0.001 0.001 0.001 0.001 0.002l-0-0c0 0 0 0 0 0s0 0 0 0v-0c0 0.001 0.001 0.001 0.001 0.002l-0-0c0 0 0 0 0 0s0 0 0 0v-0c0 0 0.001 0 0.001 0.001l0 0c0 0.001 0 0.002 0.001 0.002l-0-0c0 0 0 0 0.001 0.001v0c0 0 0 0 0.001 0.001v0c0 0 0.001 0.001 0.001 0.001l0 0c0.001 0.001 0.001 0.002 0.002 0.003l-0-0c0 0 0.001 0 0.001 0.001l0 0c0 0 0.001 0.001 0.001 0.001l0 0c0 0 0 0 0 0s0 0 0 0h-0c0.001 0.001 0.001 0.001 0.002 0.002l0 0c0 0 0 0 0 0s0 0 0 0h-0c0 0 0.001 0 0.001 0.001l0 0c0 0 0.001 0.001 0.001 0.001l0 0c0 0 0 0 0 0s0 0 0 0h-0c0 0 0 0 0 0s0 0 0 0h-0c0 0 0 0 0.001 0.001v0c0 0 0 0 0.001 0s0 0 0.001 0h-0c0 0 0 0 0.001 0.001v0c0 0 0 0 0 0s0 0 0 0h-0c0 0 0.001 0 0.002 0.001l0 0c0 0 0 0 0.001 0s0 0 0.001 0h-0c0 0 0 0 0 0s0 0 0 0v-0c0 0 0.001 0 0.001 0s0.001 0 0.001-0h-0c0 0 0 0 0.001 0s0 0 0.001 0h-0c0 0 0.001 0 0.002 0.001l0 0c0 0 0 0 0 0s0 0 0 0h-0c0 0 0 0 0.001 0s0 0 0.001 0h4.635c0.005-0.001 0.009-0.002 0.012-0.005l-0 0zM10.291 12.187h-4.365l4.801-1.397zM10.703 10.725l-4.957 1.441 1.802-3.785zM10.749 10.671l-3.155-2.344 3.426-2.749zM10.822 10.613l0.267-5.027 1.779 1.957zM5.689 12.127l-0.431-1.379 2.154-2.24zM5.225 10.683l-2.063-3.093 4.304 0.762zM12.871 7.445l-1.77-1.947 1.504-2.478zM7.555 8.269l-1.355-4.746 4.791 1.989zM7.487 8.285l-4.338-0.768 2.983-3.977zM11.010 5.445l-4.8-1.993 3.622-3.35zM11.073 5.41l-1.16-5.264 2.677 2.766zM3.129 7.427l0.269-4.479 2.687 0.537zM6.111 3.42l-2.676-0.535 2.676-2.765zM6.181 3.383v-3.314h3.584zM5.683 12.287v2.762l1.114-0.935zM5.721 15.109l2.225 0.89-1.113-1.825zM8.054 15.999l2.225-0.89-1.113-0.935zM10.317 15.049v-2.762l-1.113 1.827zM5.745 12.255l2.255 3.698 2.255-3.698z"></path>
</svg>
