<!-- Generated by IcoMoon.io -->
<svg version="1.1" xmlns="http://www.w3.org/2000/svg" width="16" height="16" viewBox="0 0 16 16">
<title>minetest</title>
<path fill="#53ac56" d="M15.793 8.291l-0.271 0.16-1.54 0.903v0.372l-0.725 0.445v0.74l-0.725 0.443v1.905l3.26-1.915v-2.696zM15.431 8.931v2.199l-2.535 1.489v-1.055l0.725-0.444v-0.74l0.724-0.444v-0.367zM12.918 3.695l-0.752 0.528v3.164l0.762 0.438 0.687-0.402v-3.321zM12.935 4.131l0.317 0.185v2.893l-0.327 0.191-0.398-0.229v-2.753zM4.143 0l-2.827 1.661v3.026l2.029 1.192v1.47l0.089 0.053 0.707 0.425 0.797-0.478v-1.471l1.775-1.043v-3.283zM4.141 0.429l2.211 1.333v2.858l-2.21 1.299-2.462-1.447v-2.597zM4.577 6.090v1.047l-0.435 0.26-0.434-0.26v-1.047l0.434 0.255zM10.542 7.473l-5.253 3.027v0.956l0.579 0.333v0.738l2.139 1.254 4.527-2.735v-0.777l0.725-0.444v-0.767zM10.541 7.898l2.355 1.374v0.343l-0.724 0.443v0.776l-4.167 2.518-1.773-1.040v-0.74l-0.58-0.333v-0.523zM8.554 1.878c-0.002-0-0.003-0-0.005-0-0.033 0-0.064 0.009-0.091 0.026l0.001-0-1.744 1.029v0.427l1.835-1.083 2.353 1.378-2.878 1.689c-0.055 0.033-0.091 0.092-0.091 0.16s0.036 0.127 0.089 0.159l0.001 0 2.153 1.28-4.705 2.713-4.711-2.783 2.135-1.26-0.363-0.213-2.225 1.313c-0.055 0.033-0.091 0.092-0.091 0.16s0.036 0.127 0.090 0.16l0.001 0 5.072 2.996c0.055 0.033 0.123 0.033 0.18 0l5.071-2.921c0.056-0.033 0.093-0.093 0.093-0.161s-0.036-0.127-0.090-0.16l-0.001-0-2.157-1.281 2.88-1.69c0.055-0.033 0.091-0.092 0.091-0.16s-0.036-0.127-0.090-0.16l-0.001-0-2.716-1.592c-0.025-0.014-0.054-0.022-0.085-0.024l-0.001-0zM11.447 3.657c-0 0.067-0.036 0.126-0.090 0.158l-0.001 0-0.271 0.16v0.312l-2.343 1.375 0.361 0.215 2.253-1.322c0.055-0.033 0.091-0.092 0.091-0.16 0-0 0-0 0-0v0zM2.029 9.103v0.733l-0.724-0.443v2.652l4.275 2.547v-1.168l-0.616-0.37v-0.741l-0.761-0.444v-1.479zM2.391 9.745l1.449 0.857v1.48l0.761 0.445v0.739l0.617 0.369v0.311l-3.551-2.114v-1.787l0.725 0.444v-0.327zM7.92 2.22l-1.206 0.71v0.002zM2.527 5.397l-2.321 1.368v4.653l7.787 4.583 7.787-4.695v-4.467l-2.167-1.273v0.427l1.805 1.060v4.041l-7.427 4.477-7.425-4.368v-4.018l-0.259-0.153c-0.055-0.033-0.091-0.092-0.091-0.16s0.036-0.127 0.090-0.16l0.001-0zM15.793 8.29l-0.271 0.16-1.54 0.904v0.372l-0.725 0.444v0.74l-0.725 0.443v1.905l3.26-1.915v-2.696zM15.431 8.93v2.2l-2.535 1.489v-1.056l0.724-0.443v-0.74l0.725-0.444v-0.367zM12.918 3.695l-0.753 0.528v3.164l0.093 0.053 0.669 0.385 0.687-0.402v-3.321zM12.935 4.131l0.317 0.185v2.892l-0.327 0.191-0.398-0.229v-2.753zM4.144 0l-2.827 1.661v3.026l0.091 0.053 1.939 1.138v1.47l0.089 0.053 0.707 0.425 0.798-0.478v-1.471l1.775-1.043v-3.283zM4.142 0.429l2.211 1.333v2.858l-2.21 1.299-2.463-1.447v-2.597zM4.578 6.090v1.047l-0.435 0.26-0.434-0.26v-1.047l0.434 0.255zM10.543 7.473l-5.253 3.027v0.956l0.579 0.333v0.738l2.139 1.254 4.527-2.735v-0.777l0.725-0.444v-0.767zM10.541 7.898l2.355 1.374v0.343l-0.725 0.443v0.776l-4.167 2.518-1.774-1.040v-0.74l-0.58-0.333v-0.524zM8.555 1.878c-0.002-0-0.003-0-0.005-0-0.033 0-0.064 0.009-0.091 0.026l0.001-0-1.744 1.029v0.427l1.835-1.083 2.353 1.378-2.879 1.689c-0.055 0.033-0.091 0.092-0.091 0.16s0.036 0.127 0.090 0.16l0.001 0 2.153 1.28-4.706 2.712-4.711-2.783 2.135-1.26-0.363-0.213-2.225 1.313c-0.055 0.033-0.091 0.092-0.091 0.16s0.036 0.127 0.090 0.16l0.001 0 5.071 2.995c0.056 0.033 0.124 0.033 0.18 0.001l5.071-2.921c0.056-0.033 0.093-0.093 0.093-0.161s-0.036-0.127-0.090-0.16l-0.001-0-2.157-1.281 2.88-1.69c0.055-0.033 0.091-0.093 0.091-0.16s-0.036-0.127-0.090-0.16l-0.001-0-2.717-1.59c-0.025-0.014-0.054-0.023-0.085-0.025l-0.001-0zM11.448 3.657c-0 0.067-0.036 0.125-0.090 0.157l-0.001 0-0.271 0.16v0.313l-2.343 1.374 0.361 0.215 2.253-1.322c0.055-0.033 0.091-0.092 0.091-0.16 0-0 0-0 0-0v0zM11.448 4.302v0.091c0 0.067-0.035 0.127-0.091 0.16l-0.104 0.061 0.913 0.533v-0.427zM13.616 5.567v0.427l1.817 1.060v0.341l-1.323 0.797-1.176 0.687-2.211-1.299v-0.633c0-0.065-0.033-0.127-0.090-0.16l-1.53-0.909-0.362 0.213 1.62 0.963v0.633c0 0.067 0.035 0.128 0.091 0.161l2.391 1.405c0.055 0.033 0.124 0.033 0.18 0.001l1.267-0.74h0.003l1.139-0.687v0.601l0.001 0.017c0.001 0.013 0.005 0.025 0.007 0.036 0.002 0.005 0.005 0.013 0.007 0.018s0.005 0.010 0.008 0.017l0.009 0.015c0.015 0.020 0.032 0.037 0.053 0.050l0.015 0.010 0.017 0.007c0.005 0.002 0.011 0.004 0.017 0.005l0 0c0.014 0.004 0.030 0.006 0.046 0.006 0.022 0 0.043-0.004 0.062-0.011l-0.001 0 0.017-0.007c0.010-0.005 0.023-0.013 0.031-0.018 0.005-0.005 0.010-0.007 0.015-0.013 0.005-0.005 0.007-0.010 0.012-0.012l0.013-0.015c0.003-0.005 0.007-0.010 0.010-0.015 0.007-0.009 0.012-0.021 0.015-0.033l0-0.001c0.002-0.005 0.003-0.013 0.005-0.018l0.003-0.018c0-0.004 0.001-0.010 0.001-0.015 0-0.001 0-0.002-0-0.003v0-1.481c0-0.067-0.034-0.128-0.091-0.161zM2.029 9.103v0.733l-0.724-0.443v2.652l4.275 2.546v-1.167l-0.617-0.37v-0.741l-0.76-0.444v-1.479zM2.392 9.745l1.449 0.857v1.48l0.76 0.445v0.738l0.617 0.37v0.311l-3.55-2.113v-1.787l0.725 0.444v-0.327zM7.92 2.22l-1.205 0.71v0.002zM2.528 5.397l-2.323 1.368v4.652l7.789 4.583 7.787-4.695v-4.466l-2.167-1.273v0.427l1.805 1.060v4.041l-7.427 4.477-7.425-4.368v-4.019l-0.259-0.153c-0.055-0.033-0.091-0.092-0.091-0.16s0.036-0.127 0.090-0.16l0.001-0z"></path>
</svg>
