<!-- Generated by IcoMoon.io -->
<svg version="1.1" xmlns="http://www.w3.org/2000/svg" width="16" height="16" viewBox="0 0 16 16">
<title>mix</title>
<path fill="#ff8126" d="M3.2 4.067v10.1c0 0.9-0.7 1.567-1.6 1.567s-1.6-0.7-1.6-1.567v-14.167h16v8.9c0 0.867-0.733 1.567-1.6 1.567-0.9 0-1.633-0.7-1.633-1.567v-0.8c0-0.9-0.7-1.567-1.6-1.567-0.758 0-1.414 0.535-1.567 1.25v2.55c0 0.9-0.733 1.567-1.6 1.567-0.9 0-1.6-0.7-1.6-1.567v-6.167c0-0.867-0.733-1.567-1.6-1.567-0.002 0-0.004-0-0.006-0-0.837 0-1.523 0.642-1.594 1.461l-0 0.006z"></path>
</svg>
