<!-- Generated by IcoMoon.io -->
<svg version="1.1" xmlns="http://www.w3.org/2000/svg" width="16" height="16" viewBox="0 0 16 16">
<title>mixcloud</title>
<path fill="#314359" d="M14.633 12.708c-0.103 0-0.207-0.030-0.297-0.090-0.246-0.167-0.31-0.5-0.15-0.74 0.492-0.729 0.75-1.587 0.75-2.479s-0.258-1.75-0.75-2.481c-0.166-0.245-0.097-0.577 0.144-0.737 0.25-0.166 0.58-0.097 0.739 0.143 0.611 0.91 0.931 1.98 0.931 3.080 0 1.099-0.319 2.169-0.931 3.079-0.090 0.159-0.26 0.239-0.43 0.239zM13.107 11.845c-0.102 0-0.205-0.030-0.297-0.093-0.246-0.159-0.309-0.489-0.143-0.729 0.326-0.481 0.498-1.030 0.498-1.62 0-0.57-0.172-1.13-0.498-1.621-0.165-0.24-0.103-0.569 0.143-0.73s0.571-0.1 0.737 0.15c0.446 0.66 0.681 1.43 0.681 2.209 0 0.801-0.235 1.56-0.681 2.21-0.097 0.16-0.271 0.24-0.441 0.24zM10.62 7.077c-0.209-2.131-2.011-3.799-4.2-3.799-1.814 0-3.42 1.165-3.997 2.855-1.365 0.201-2.423 1.38-2.423 2.801 0 1.563 1.275 2.836 2.84 2.836h7.272c1.309 0 2.377-1.063 2.377-2.371 0-1.137-0.8-2.086-1.87-2.32zM10.112 10.707h-7.27c-0.977 0-1.779-0.794-1.779-1.772 0-0.977 0.795-1.772 1.779-1.772 0.473 0 0.921 0.19 1.257 0.521 0.2 0.209 0.541 0.209 0.75 0 0.2-0.201 0.2-0.541 0-0.75-0.37-0.361-0.821-0.621-1.31-0.741 0.5-1.11 1.62-1.849 2.87-1.849 1.739 0 3.16 1.419 3.16 3.159 0 0.341-0.050 0.671-0.16 0.991-0.090 0.28 0.060 0.579 0.34 0.68 0.049 0.020 0.11 0.030 0.16 0.030 0.22 0 0.43-0.141 0.5-0.36 0.070-0.21 0.12-0.42 0.15-0.64 0.489 0.19 0.84 0.67 0.84 1.22 0 0.731-0.59 1.319-1.31 1.319z"></path>
</svg>
