<!-- Generated by IcoMoon.io -->
<svg version="1.1" xmlns="http://www.w3.org/2000/svg" width="16" height="16" viewBox="0 0 16 16">
<title>mixer</title>
<path fill="#002050" d="M1.637 0.917c-0.424 0.001-0.811 0.164-1.101 0.429l0.001-0.001c-0.627 0.578-0.677 1.554-0.169 2.242l3.278 4.393-3.297 4.433c-0.508 0.688-0.468 1.664 0.169 2.242 0.289 0.265 0.677 0.428 1.102 0.428 0.534 0 1.008-0.256 1.306-0.653l0.003-0.004 4.603-6.187c0.052-0.070 0.082-0.159 0.082-0.254s-0.031-0.184-0.083-0.256l0.001 0.001-4.584-6.157c-0.299-0.401-0.771-0.657-1.304-0.657-0.003 0-0.005 0-0.008 0h0zM14.363 0.917c-0.002-0-0.005-0-0.008-0-0.532 0-1.005 0.257-1.301 0.653l-0.003 0.004-4.573 6.147c-0.051 0.070-0.082 0.159-0.082 0.254s0.031 0.184 0.083 0.255l-0.001-0.001 4.593 6.197c0.301 0.401 0.775 0.657 1.309 0.657 0.425 0 0.813-0.162 1.103-0.429l-0.001 0.001c0.637-0.578 0.677-1.554 0.169-2.242l-3.298-4.433 3.278-4.393c0.508-0.688 0.458-1.664-0.169-2.242-0.289-0.264-0.675-0.427-1.099-0.428h-0z"></path>
</svg>
