<!-- Generated by IcoMoon.io -->
<svg version="1.1" xmlns="http://www.w3.org/2000/svg" width="16" height="16" viewBox="0 0 16 16">
<title>mojang</title>
<path fill="#db1f29" d="M4.608 0c-2.545 0-4.608 2.063-4.608 4.608v11.392h11.392c2.545 0 4.608-2.063 4.608-4.608v0-11.392h-3.328zM11.349 1.729c0.377 0 0.683 1.67 0.683 2.047 0 0.006 0 0.014 0 0.021 0 0.377-0.306 0.683-0.683 0.683s-0.683-0.306-0.683-0.683c0-0.007 0-0.015 0-0.022l-0 0.001c0-0.377 0.306-2.047 0.682-2.047zM9.607 3.665c0.46 0.127 1.388 2.513 2.425 1.477 0.965-0.965 1.366 4.776 1.366 4.776l-1.367-0.681c0 0 0.001-1.365-2.047-2.73-2.539-1.693-5.459-0.578-5.459 2.047 0 5.355 8.873 3.413 8.873 3.413s-0.001 1.364-1.367 1.364h-8.187c-1.365 0-1.367-1.365-1.367-1.365v-6.824c0-1.365 1.367-1.366 1.367-1.366h2.729c1.365 0 2.731 1.366 2.731 1.366 0-0.993 0.078-1.399 0.219-1.47 0.015-0.007 0.033-0.012 0.051-0.012 0.012 0 0.024 0.002 0.035 0.005l-0.001-0z"></path>
</svg>
