<!-- Generated by IcoMoon.io -->
<svg version="1.1" xmlns="http://www.w3.org/2000/svg" width="16" height="16" viewBox="0 0 16 16">
<title>monero</title>
<path fill="#f60" d="M8 0c-4.423 0-8 3.582-8 8.010 0 0.89 0.152 1.738 0.412 2.54h2.385v-6.731l5.203 5.211 5.203-5.21v6.73h2.385c0.259-0.802 0.412-1.65 0.412-2.54 0-4.427-3.577-8.010-8-8.010zM6.808 10.205l-2.278-2.281v4.234h-3.358c1.408 2.301 3.947 3.842 6.828 3.842s5.441-1.541 6.83-3.843h-3.36v-4.234l-2.257 2.281-1.192 1.193-1.209-1.193z"></path>
</svg>
