<!-- Generated by IcoMoon.io -->
<svg version="1.1" xmlns="http://www.w3.org/2000/svg" width="16" height="16" viewBox="0 0 16 16">
<title>mongodb</title>
<path fill="#47a248" d="M11.453 6.345c-0.842-3.707-2.828-4.925-3.041-5.391-0.235-0.329-0.489-0.955-0.489-0.955-0.001 0.013-0.003 0.021-0.003 0.033v0.009h-0.001c-0.001 0.010-0.002 0.017-0.003 0.026v0.010h-0.001c0 0.007-0.001 0.012-0.001 0.017v0.017h-0.002c-0.001 0.005-0.001 0.012-0.002 0.017v0.014h-0.001c0 0.005 0 0.010-0.001 0.014v0.013h-0.001c0 0.007-0.001 0.015-0.001 0.021v0.001c-0.002 0.011-0.004 0.023-0.006 0.033v0.005h-0.001c-0.001 0.003-0.002 0.005-0.002 0.008v0.011h-0.002v0.015h-0.003v0.012h-0.003v0.014h-0.003v0.013h-0.003v0.011h-0.004v0.009h-0.003v0.012h-0.003v0.009h-0.003v0.009h-0.002v0.010h-0.003c-0.001 0.001-0.001 0.002-0.001 0.003v0.007h-0.002c-0.001 0.001-0.001 0.003-0.001 0.004v0.004h-0.001c-0.001 0.002-0.001 0.005-0.001 0.007-0.002 0.005-0.005 0.009-0.007 0.014v0.001c-0.001 0.001-0.003 0.003-0.003 0.005v0.005h-0.003v0.005h-0.003v0.005h-0.002v0.007h-0.004v0.009h-0.003v0.003h-0.003v0.005h-0.003v0.007h-0.003v0.005h-0.004v0.007h-0.003v0.005h-0.003v0.005h-0.002v0.007h-0.003v0.005h-0.003v0.004h-0.003v0.005h-0.004v0.006h-0.003v0.004h-0.003v0.005h-0.003v0.007h-0.003v0.003h-0.002v0.005h-0.004v0.003h-0.003v0.007h-0.003v0.003h-0.003v0.005h-0.003v0.004h-0.002l-0.001 0.003v0.003h-0.001c-0.001 0.001-0.001 0.001-0.001 0.003v0.001h-0.001c-0.001 0.002-0.001 0.003-0.003 0.005v0.002h-0.001c-0.003 0.004-0.005 0.008-0.008 0.012v0.001c-0.001 0.001-0.005 0.004-0.006 0.007v0.001h-0.001c-0.001 0.001-0.002 0.001-0.002 0.002v0.002h-0.001l-0.002 0.002v0.001h-0.001c0 0.001-0.001 0.001-0.002 0.003v0.003h-0.002l-0.001 0.001v0.001h-0.001c0 0.001-0.001 0.001-0.001 0.002v0.002h-0.003c0 0.001-0.001 0.001-0.001 0.002v0.004h-0.002v0.003h-0.003v0.004h-0.003v0.005h-0.003v-0.005h-0.003v0.003h-0.003v0.004h-0.003v0.005h-0.003v0.003h-0.003v0.004h-0.003v0.003h-0.003v0.005h-0.004v0.003h-0.003v0.004h-0.003v0.003h-0.003v0.003h-0.003v0.007h-0.001v0.003h-0.004v0.003h-0.003v0.001h-0.003v0.003h-0.003v0.007h-0.003v0.003h-0.003v0.003h-0.003v0.004h-0.003v0.003h-0.003v0.003h-0.003v0.003h-0.003v0.007h-0.003v0.003h-0.004v0.003h-0.003v0.003h-0.003v0.004h-0.003v0.003h-0.003v0.005h-0.003v0.003h-0.004v0.004h-0.001v0.003h-0.003v0.003h-0.003v0.003h-0.003v0.004h-0.003v0.003h-0.002c-0.001 0.001-0.001 0.001-0.001 0.001v0.001h-0.001l-0.003 0.003c0 0-0.001 0.001-0.003 0.002v0.004h-0.003v0.003h-0.003v0.003h-0.003v0.003h-0.002l-0.002 0.002v0.002h-0.001l-0.001 0.001v0.002h-0.001c-0.003 0.004-0.005 0.007-0.009 0.011-0.001 0.001-0.005 0.005-0.008 0.007-0.008 0.005-0.018 0.014-0.026 0.021-0.005 0.003-0.011 0.008-0.015 0.011v0.001h-0.001c-0.011 0.009-0.021 0.017-0.033 0.026v0.001c-0.016 0.013-0.031 0.026-0.049 0.041v-0.001h-0.001c-0.038 0.031-0.078 0.067-0.124 0.106v0.001h-0.001c-0.113 0.099-0.247 0.225-0.397 0.379l-0.013 0.013c-0.907 0.938-2.335 2.893-2.486 6.051-0.013 0.261-0.011 0.515 0.004 0.763v0.006c0.073 1.245 0.463 2.307 0.952 3.171v0.001c0.195 0.344 0.405 0.657 0.617 0.937v0.001c0.735 0.97 1.485 1.545 1.676 1.684 0.294 0.682 0.267 1.853 0.267 1.853l0.429 0.143c0 0-0.087-1.134 0.035-1.681 0.038-0.171 0.128-0.317 0.233-0.441 0.071-0.050 0.28-0.201 0.531-0.43 0.012-0.013 0.019-0.024 0.029-0.036 1.014-0.945 2.908-3.273 2.259-7.066z"></path>
</svg>
