<!-- Generated by IcoMoon.io -->
<svg version="1.1" xmlns="http://www.w3.org/2000/svg" width="16" height="16" viewBox="0 0 16 16">
<title>monkeytie</title>
<path fill="#ffc619" d="M13.334 0h-10.667c-1.473 0-2.667 1.194-2.667 2.667v10.665c0 1.473 1.194 2.667 2.667 2.667h10.667c1.472 0 2.666-1.194 2.666-2.667v-10.665c0-1.473-1.194-2.667-2.666-2.667zM8.223 10.863l-0.577-4.506-1.719 3.092-1.722-3.082-0.572 4.496h-1.287l0.933-6.724h1.007l1.639 3.061 1.636-3.061h1.009l0.931 6.724zM12.576 7.039h-1.057v2.171c0 0.73 0.058 0.767 0.731 0.767h0.327l-0.114 0.981h-0.862c-0.903 0-1.287-0.633-1.287-1.26v-2.665h-0.685l0.104-0.98h0.57v-1.052l1.193-0.125v1.183h1.059v0.978zM13.694 10.959h-0.989l0.106-0.99h0.991l-0.115 0.986z"></path>
</svg>
