<!-- Generated by IcoMoon.io -->
<svg version="1.1" xmlns="http://www.w3.org/2000/svg" width="16" height="16" viewBox="0 0 16 16">
<title>monzo</title>
<path d="M7.993 11.507h0.007l3.953-3.947v7.36c0 0.002 0 0.004 0 0.006 0.009 0.165 0.151 0.292 0.316 0.283 0.074-0.004 0.141-0.035 0.191-0.083l-0 0 3.32-3.313c0.135-0.138 0.217-0.326 0.213-0.532l-0-0.001v-7.753l0.007-0.007-2.653-2.647c-0.057-0.059-0.138-0.093-0.226-0.088-0.077 0.004-0.145 0.037-0.194 0.088l0-0-4.927 4.92-4.94-4.933c-0.057-0.059-0.138-0.093-0.226-0.088-0.077 0.004-0.145 0.037-0.194 0.088l0-0-2.64 2.66v7.773c-0 0.014 0 0.031 0.001 0.047 0.010 0.188 0.090 0.356 0.213 0.48l-0.001-0.001 3.313 3.32c0.058 0.055 0.137 0.087 0.223 0.082 0.158-0.009 0.281-0.138 0.284-0.294v-0.001l0.007-7.373z"></path>
</svg>
