<!-- Generated by IcoMoon.io -->
<svg version="1.1" xmlns="http://www.w3.org/2000/svg" width="16" height="16" viewBox="0 0 16 16">
<title>moo</title>
<path fill="#00945e" d="M7.976 16c-1.683 0-3.201-0.738-4.227-2.092-0.739-0.945-1.107-2.052-1.107-3.24 0-0.37 0.040-0.739 0.123-1.068 0.199-1.19 1.060-3.119 2.62-5.785 1.151-1.97 2.091-3.445 2.141-3.445 0.082-0.164 0.205-0.369 0.45-0.369 0.248 0 0.37 0.205 0.494 0.37 0 0 0.985 1.477 2.133 3.445 1.561 2.667 2.421 4.595 2.626 5.785 0.087 0.328 0.129 0.697 0.129 1.067 0 1.19-0.37 2.297-1.1 3.241-1.080 1.315-2.641 2.092-4.281 2.092zM7.976 14.605c1.27 0 2.419-0.574 3.201-1.561 0.533-0.696 0.819-1.558 0.819-2.46 0-0.288-0.039-0.534-0.082-0.819-0.164-0.903-0.862-2.461-2.049-4.555-0.905-1.599-1.683-2.747-1.683-2.747l-0.207-0.289-0.169 0.247c0 0-0.781 1.19-1.681 2.75-1.229 2.099-1.929 3.649-2.048 4.559-0.041 0.287-0.082 0.533-0.082 0.819 0 0.903 0.286 1.725 0.819 2.462 0.74 1.025 1.887 1.599 3.16 1.599z"></path>
</svg>
