<!-- Generated by IcoMoon.io -->
<svg version="1.1" xmlns="http://www.w3.org/2000/svg" width="16" height="16" viewBox="0 0 16 16">
<title>mozillafirefox</title>
<path fill="#ff7139" d="M5.903 4.889c0.005 0 0.003 0 0 0zM4.055 3.965c0.005 0 0.003 0 0 0zM15.115 5.391c-0.333-0.802-1.009-1.669-1.54-1.943 0.432 0.847 0.682 1.696 0.777 2.33l0.001 0.013c-0.868-2.164-2.34-3.037-3.543-4.936-0.060-0.097-0.121-0.193-0.18-0.294-0.024-0.040-0.053-0.092-0.079-0.145l-0.006-0.014c-0.046-0.087-0.085-0.188-0.112-0.294l-0.002-0.010c0-0 0-0 0-0 0-0.010-0.008-0.019-0.018-0.020h-0c-0.002-0.001-0.005-0.001-0.007-0.001s-0.005 0-0.007 0.001l0-0-0.004 0.001c-0.002 0.001-0.004 0.002-0.006 0.003l0-0c0.001-0.002 0.002-0.003 0.003-0.005l-0 0c-1.707 1-2.415 2.751-2.596 3.865-0.559 0.033-1.077 0.172-1.546 0.399l0.024-0.011c-0.065 0.033-0.11 0.099-0.11 0.176 0 0.024 0.004 0.048 0.013 0.069l-0-0.001c0.027 0.076 0.099 0.129 0.182 0.129 0.029 0 0.056-0.006 0.080-0.017l-0.001 0c0.387-0.187 0.838-0.311 1.313-0.345l0.012-0.001 0.045-0.003c0.056-0.003 0.122-0.006 0.189-0.006h0.001c0.008-0 0.017-0 0.026-0 0.383 0 0.753 0.056 1.102 0.16l-0.027-0.007 0.063 0.020c0.087 0.026 0.145 0.046 0.203 0.067l-0.027-0.009c0.069 0.025 0.111 0.042 0.153 0.060l-0.026-0.010c0.035 0.013 0.069 0.027 0.103 0.042 0.076 0.033 0.127 0.058 0.178 0.084l-0.021-0.010 0.071 0.036c0.070 0.036 0.119 0.064 0.167 0.092l-0.018-0.010c0.047 0.027 0.077 0.046 0.108 0.066l-0.014-0.008c0.558 0.349 1.011 0.817 1.333 1.37l0.010 0.019c-0.41-0.288-1.144-0.573-1.851-0.449 2.761 1.38 2.020 6.134-1.807 5.955-0.362-0.015-0.703-0.085-1.022-0.201l0.024 0.008c-0.105-0.038-0.179-0.069-0.253-0.102l0.027 0.011c-0.061-0.027-0.104-0.048-0.146-0.070l0.016 0.008c-0.937-0.485-1.711-1.4-1.808-2.512 0 0 0.354-1.321 2.537-1.321 0.236 0 0.911-0.659 0.923-0.849-0.003-0.063-1.339-0.594-1.86-1.107-0.279-0.275-0.411-0.407-0.527-0.507-0.059-0.050-0.124-0.099-0.191-0.145l-0.008-0.005c-0.087-0.293-0.137-0.629-0.137-0.977 0-0.32 0.042-0.629 0.121-0.924l-0.006 0.025c-0.789 0.359-1.402 0.927-1.848 1.428h-0.004c-0.304-0.385-0.283-1.657-0.265-1.923-0.004-0.017-0.227 0.116-0.257 0.136-0.279 0.2-0.524 0.411-0.749 0.642l-0.001 0.001c-0.256 0.259-0.491 0.54-0.703 0.839l-0.014 0.021c-0.472 0.661-0.829 1.439-1.022 2.28l-0.008 0.044c-0.002 0.009-0.073 0.321-0.125 0.708-0.003 0.014-0.012 0.076-0.020 0.137l-0.005 0.043c-0.019 0.121-0.035 0.272-0.045 0.425l-0.001 0.015-0.001 0.023c-0.003 0.030-0.008 0.118-0.013 0.207l-0.002 0.048-0.001 0.040c0 4.239 3.437 7.675 7.677 7.675 3.797 0 6.949-2.757 7.567-6.377 0.013-0.098 0.023-0.197 0.035-0.296 0.153-1.316-0.017-2.7-0.497-3.857z"></path>
</svg>
