<!-- Generated by IcoMoon.io -->
<svg version="1.1" xmlns="http://www.w3.org/2000/svg" width="16" height="16" viewBox="0 0 16 16">
<title>mozilla</title>
<path d="M0 16v-16h16v16zM10.927 4.507l-0.153 0.020-0.147 0.027-0.14 0.040-0.267 0.093-0.127 0.060-0.12 0.067-0.113 0.073-0.113 0.080-0.107 0.087-0.1 0.093-0.093 0.1-0.087 0.107-0.087 0.113-0.073 0.113-0.073 0.127-0.067 0.127-0.060 0.14-0.053-0.147-0.067-0.14-0.067-0.133-0.080-0.127-0.087-0.113-0.093-0.107-0.1-0.1-0.1-0.093-0.113-0.087-0.113-0.073-0.127-0.073-0.12-0.060-0.133-0.053-0.133-0.047-0.133-0.040-0.14-0.033-0.147-0.027-0.293-0.027h-0.287l-0.14 0.013-0.133 0.013-0.133 0.020-0.127 0.033-0.12 0.033-0.12 0.040-0.12 0.047-0.107 0.053-0.113 0.053-0.2 0.133-0.093 0.073-0.093 0.080-0.087 0.087-0.080 0.087-0.080 0.093-0.073 0.1-0.067 0.107-0.060 0.107v-1.033h-2.9v1.48h0.913v3.907h-0.913v1.507h4.22v-1.507h-1.32v-2.54l0.007-0.14 0.020-0.133 0.020-0.127 0.027-0.12 0.033-0.12 0.040-0.107 0.047-0.107 0.053-0.093 0.060-0.093 0.073-0.080 0.073-0.073 0.080-0.067 0.093-0.060 0.1-0.053 0.1-0.040 0.113-0.033 0.127-0.027 0.127-0.013 0.14-0.007h0.113l0.107 0.013 0.107 0.020 0.093 0.027 0.093 0.033 0.087 0.040 0.080 0.047 0.073 0.060 0.067 0.067 0.067 0.073 0.053 0.080 0.053 0.093 0.080 0.213 0.033 0.127 0.027 0.127 0.020 0.14 0.020 0.153 0.007 0.167v4.060h2.867v-1.507h-0.913v-2.4l0.013-0.28 0.013-0.133 0.027-0.127 0.027-0.12 0.033-0.12 0.040-0.107 0.047-0.107 0.053-0.093 0.060-0.093 0.067-0.080 0.080-0.073 0.080-0.067 0.093-0.060 0.093-0.053 0.107-0.040 0.113-0.033 0.127-0.027 0.127-0.013 0.14-0.007h0.113l0.107 0.013 0.107 0.020 0.093 0.027 0.093 0.033 0.087 0.040 0.080 0.047 0.073 0.060 0.067 0.067 0.060 0.073 0.060 0.080 0.053 0.093 0.080 0.213 0.033 0.127 0.027 0.127 0.020 0.14 0.020 0.153 0.007 0.167v4.060h2.867v-1.507h-0.913v-3.147l-0.007-0.24-0.027-0.22-0.040-0.213-0.053-0.2-0.067-0.187-0.080-0.173-0.093-0.16-0.107-0.153-0.12-0.133-0.12-0.127-0.14-0.107-0.14-0.1-0.153-0.087-0.16-0.080-0.167-0.060-0.167-0.053-0.18-0.040-0.173-0.027-0.187-0.020h-0.347z"></path>
</svg>
