<!-- Generated by IcoMoon.io -->
<svg version="1.1" xmlns="http://www.w3.org/2000/svg" width="16" height="16" viewBox="0 0 16 16">
<title>musescore</title>
<path fill="#1a70b8" d="M7.851 15.998c-2.403-0.045-4.541-1.143-5.977-2.852l-0.010-0.012c-0.729-0.867-1.283-1.906-1.591-3.047l-0.013-0.056c-0.166-0.61-0.261-1.311-0.261-2.034 0-0.604 0.066-1.192 0.192-1.757l-0.010 0.054c0.228-1.028 0.625-1.935 1.165-2.738l-0.018 0.029c0.699-1.044 1.606-1.896 2.666-2.512l0.038-0.021c0.794-0.463 1.721-0.799 2.708-0.954l0.045-0.006c0.365-0.058 0.787-0.091 1.216-0.091 0.44 0 0.872 0.035 1.293 0.102l-0.046-0.006c1.139 0.18 2.201 0.593 3.167 1.232 0.582 0.385 1.128 0.86 1.59 1.387 0.844 0.953 1.466 2.12 1.776 3.41l0.011 0.054c0.268 1.145 0.277 2.371 0.026 3.527-0.4 1.789-1.355 3.312-2.67 4.419l-0.012 0.010c-0.867 0.729-1.906 1.284-3.047 1.592l-0.056 0.013c-0.495 0.13-0.999 0.211-1.527 0.245-0.156 0.009-0.344 0.015-0.533 0.017l-0.006 0zM3.235 11.542c0.061-0.016 0.113-0.047 0.153-0.089l0-0c0.042-0.042 0.074-0.094 0.092-0.152l0.001-0.003c0.009-0.029 0.009-0.119 0.012-1.575 0.003-1.413 0.003-1.551 0.012-1.625 0.022-0.199 0.051-0.34 0.097-0.48 0.067-0.202 0.149-0.344 0.271-0.47 0.093-0.096 0.173-0.155 0.289-0.21 0.098-0.047 0.211-0.081 0.33-0.098l0.006-0.001c0.076-0.011 0.255-0.016 0.329-0.008 0.366 0.043 0.679 0.244 0.869 0.534l0.003 0.005c0.111 0.167 0.181 0.352 0.218 0.577l0.011 0.071 0.003 1.625c0.003 1.549 0.003 1.627 0.013 1.657 0.018 0.059 0.049 0.11 0.089 0.151l-0-0c0.036 0.038 0.081 0.067 0.132 0.085l0.002 0.001c0.035 0.013 0.045 0.014 0.111 0.014 0.007 0.001 0.014 0.001 0.022 0.001 0.089 0 0.168-0.037 0.225-0.097l0-0c0.053-0.052 0.089-0.121 0.099-0.198l0-0.002c0.004-0.028 0.005-0.516 0.005-1.605 0-1.028 0.002-1.583 0.005-1.619 0.031-0.32 0.148-0.593 0.349-0.817 0.122-0.136 0.309-0.26 0.487-0.321 0.14-0.049 0.263-0.067 0.417-0.063 0.203 0.007 0.367 0.044 0.533 0.124 0.189 0.091 0.343 0.227 0.445 0.398 0.119 0.196 0.187 0.441 0.199 0.722 0.001 0.035 0.009 0.327 0.015 0.649 0.015 0.668 0.016 0.709 0.027 0.825 0.048 0.525 0.205 0.951 0.474 1.29 0.058 0.073 0.207 0.222 0.278 0.278 0.29 0.229 0.629 0.37 1.021 0.423 0.118 0.016 0.338 0.020 0.453 0.008 0.531-0.055 1.020-0.309 1.343-0.697 0.249-0.3 0.404-0.66 0.469-1.093 0.031-0.201 0.029-0.095 0.031-1.671 0.002-1.611 0.005-1.482-0.036-1.564-0.045-0.085-0.124-0.147-0.219-0.167l-0.002-0c-0.026-0.006-0.056-0.010-0.087-0.010-0.070 0-0.136 0.018-0.192 0.051l0.002-0.001c-0.067 0.040-0.127 0.122-0.147 0.203-0.006 0.021-0.008 0.319-0.011 1.48-0.003 1.61 0 1.487-0.037 1.673-0.12 0.611-0.54 1.015-1.153 1.107-0.044 0.004-0.095 0.007-0.146 0.007-0.069 0-0.136-0.004-0.203-0.013l0.008 0.001c-0.309-0.047-0.56-0.171-0.753-0.371-0.221-0.23-0.353-0.544-0.401-0.955-0.012-0.101-0.017-0.258-0.029-0.808-0.012-0.569-0.017-0.7-0.031-0.827-0.086-0.749-0.453-1.322-1.032-1.611-0.217-0.112-0.473-0.183-0.743-0.196l-0.004-0c-0.367-0.023-0.757 0.080-1.114 0.294-0.212 0.126-0.392 0.283-0.539 0.467l-0.003 0.004-0.025 0.033-0.019-0.025c-0.050-0.064-0.101-0.12-0.156-0.174l-0-0c-0.305-0.289-0.733-0.481-1.187-0.533-0.066-0.006-0.143-0.009-0.221-0.009-0.075 0-0.149 0.003-0.222 0.009l0.010-0.001c-0.423 0.047-0.761 0.191-1.039 0.444-0.32 0.291-0.53 0.735-0.608 1.284-0.037 0.262-0.038 0.291-0.036 1.943l0.001 1.456 0.015 0.043c0.038 0.11 0.126 0.194 0.237 0.225l0.002 0.001c0.052 0.013 0.125 0.013 0.179 0zM11.229 5.633c0.178-0.032 0.318-0.163 0.363-0.333l0.001-0.003c0.007-0.035 0.012-0.074 0.012-0.115 0-0.030-0.002-0.060-0.007-0.088l0 0.003c-0.033-0.162-0.149-0.291-0.3-0.343l-0.003-0.001c-0.043-0.015-0.093-0.024-0.145-0.024-0.25 0-0.452 0.202-0.452 0.452 0 0.002 0 0.003 0 0.005v-0c0 0.037 0.003 0.073 0.008 0.095 0.046 0.207 0.228 0.36 0.446 0.36 0.027 0 0.054-0.002 0.080-0.007l-0.003 0zM9.451 5.541c0.095-0.026 0.171-0.090 0.212-0.175l0.001-0.002c0.031-0.061 0.040-0.105 0.045-0.229 0.009-0.386 0.164-0.735 0.412-0.994l-0.001 0.001c0.197-0.208 0.461-0.349 0.757-0.391l0.007-0.001c0.097-0.015 0.289-0.016 0.387-0.003 0.205 0.029 0.387 0.095 0.548 0.2 0.163 0.107 0.316 0.267 0.423 0.442 0.135 0.222 0.217 0.509 0.218 0.751 0 0.067 0.008 0.123 0.024 0.173 0.045 0.138 0.172 0.236 0.322 0.236 0.133 0 0.248-0.077 0.303-0.189l0.001-0.002c0.035-0.074 0.040-0.1 0.039-0.233 0-0.132-0.007-0.212-0.029-0.343-0.145-0.865-0.777-1.529-1.617-1.697-0.106-0.024-0.227-0.038-0.352-0.038-0.023 0-0.046 0-0.068 0.001l0.003-0c-0.009-0-0.020-0-0.031-0-0.777 0-1.451 0.438-1.789 1.081l-0.005 0.011c-0.146 0.277-0.235 0.604-0.244 0.95l-0 0.003c-0.007 0.177 0.025 0.279 0.111 0.363 0.061 0.058 0.143 0.093 0.234 0.093 0.031 0 0.061-0.004 0.090-0.012l-0.002 0.001z"></path>
</svg>
