<!-- Generated by IcoMoon.io -->
<svg version="1.1" xmlns="http://www.w3.org/2000/svg" width="16" height="16" viewBox="0 0 16 16">
<title>mxlinux</title>
<path d="M8.001 8.867l2.185 2.546-0.5 0.6-2.176-2.573zM16 1.607v12.788c0 0.437-0.354 0.791-0.791 0.791h-14.419c-0.437 0-0.791-0.354-0.791-0.791 0-0 0-0 0-0.001v0-12.788c0-0.437 0.354-0.791 0.791-0.791h14.419c0.437 0 0.791 0.353 0.791 0.791zM14.506 13l-2.821-3.389-0.391 0.469-2.167-2.525 3.275-3.82-0.783-0.672-3.173 3.699-3.162-3.685-1.298 1.113 3.333 3.885-0.487 0.567-0.827-0.977-4.513 5.333z"></path>
</svg>
