<!-- Generated by IcoMoon.io -->
<svg version="1.1" xmlns="http://www.w3.org/2000/svg" width="16" height="16" viewBox="0 0 16 16">
<title>myspace</title>
<path d="M13.202 8.183c1.405 0 2.545-1.135 2.545-2.536s-1.14-2.53-2.545-2.53c-1.406 0-2.545 1.14-2.545 2.54s1.139 2.541 2.545 2.541zM7.467 8.653c1.265 0 2.291-1.022 2.291-2.283s-1.025-2.283-2.291-2.283-2.291 1.031-2.291 2.291c0 1.261 1.023 2.289 2.291 2.289zM2.267 9.076c1.14 0 2.062-0.92 2.062-2.054 0-1.136-0.93-2.056-2.070-2.056-1.138 0-2.059 0.92-2.059 2.060 0 1.133 0.925 2.052 2.063 2.052zM2.267 9.546c-1.307 0-2.267 1.145-2.267 2.33v0.797c0 0.113 0.092 0.207 0.207 0.207h4.12c0.114 0 0.206-0.093 0.206-0.207v-0.797c0-1.186-0.958-2.333-2.265-2.333zM7.467 9.173c-1.453 0-2.52 1.277-2.52 2.594v0.887c0 0.125 0.104 0.229 0.23 0.229h4.581c0.125 0 0.228-0.103 0.228-0.229v-0.887c0-1.317-1.065-2.594-2.519-2.594zM13.202 8.761c-1.615 0-2.798 1.417-2.798 2.882v0.985c0 0.14 0.115 0.254 0.255 0.254h5.087c0.14 0 0.255-0.114 0.255-0.254v-0.985c-0.001-1.465-1.184-2.882-2.799-2.882z"></path>
</svg>
