<!-- Generated by IcoMoon.io -->
<svg version="1.1" xmlns="http://www.w3.org/2000/svg" width="16" height="16" viewBox="0 0 16 16">
<title>mysql</title>
<path fill="#4479a1" d="M10.937 3.784c-0.077 0-0.129 0.009-0.183 0.022v0.009h0.009c0.036 0.069 0.097 0.12 0.143 0.182 0.036 0.071 0.067 0.143 0.103 0.213l0.009-0.010c0.063-0.044 0.093-0.115 0.093-0.222-0.027-0.031-0.031-0.063-0.053-0.093-0.027-0.045-0.084-0.067-0.121-0.101zM3.847 12.58h-0.618c-0.020-1.041-0.082-2.020-0.18-2.94h-0.005l-0.94 2.94h-0.47l-0.933-2.94h-0.007c-0.069 0.882-0.112 1.862-0.13 2.94h-0.563c0.037-1.311 0.128-2.54 0.273-3.687h0.767l0.89 2.709h0.005l0.898-2.709h0.73c0.161 1.343 0.256 2.573 0.283 3.687zM6.525 9.86c-0.252 1.363-0.584 2.355-0.995 2.973-0.321 0.477-0.673 0.715-1.055 0.715-0.102 0-0.227-0.031-0.377-0.092v-0.329c0.073 0.011 0.16 0.017 0.257 0.017 0.179 0 0.322-0.050 0.431-0.148 0.131-0.12 0.197-0.255 0.197-0.403 0-0.103-0.051-0.313-0.153-0.629l-0.676-2.104h0.607l0.485 1.573c0.109 0.357 0.155 0.607 0.137 0.749 0.267-0.709 0.452-1.485 0.557-2.322zM14.741 12.58h-1.753v-3.687h0.59v3.233h1.163zM12.528 12.67l-0.677-0.333c0.060-0.051 0.118-0.105 0.17-0.167 0.289-0.337 0.432-0.839 0.432-1.502 0-1.22-0.479-1.831-1.437-1.831-0.469 0-0.836 0.155-1.1 0.465-0.287 0.339-0.431 0.837-0.431 1.497 0 0.648 0.127 1.124 0.383 1.427 0.233 0.273 0.585 0.41 1.055 0.41 0.176 0 0.337-0.022 0.483-0.065l0.883 0.515zM10.333 11.842c-0.15-0.24-0.225-0.627-0.225-1.157 0-0.929 0.283-1.393 0.847-1.393 0.295 0 0.513 0.111 0.651 0.333 0.149 0.241 0.224 0.624 0.224 1.149 0 0.936-0.283 1.405-0.847 1.405-0.297 0-0.513-0.111-0.651-0.337zM9.228 11.559c0 0.313-0.115 0.571-0.344 0.771s-0.535 0.3-0.923 0.3c-0.362 0-0.709-0.115-1.049-0.343l0.158-0.317c0.292 0.147 0.555 0.219 0.793 0.219 0.221 0 0.395-0.049 0.522-0.147 0.125-0.098 0.2-0.236 0.2-0.41 0-0.22-0.153-0.407-0.432-0.563-0.259-0.142-0.775-0.438-0.775-0.438-0.281-0.205-0.421-0.424-0.421-0.785 0-0.3 0.105-0.54 0.313-0.723 0.21-0.185 0.48-0.277 0.813-0.277 0.341 0 0.653 0.091 0.933 0.273l-0.142 0.317c-0.24-0.101-0.477-0.153-0.709-0.153-0.189 0-0.335 0.045-0.436 0.137-0.102 0.091-0.165 0.207-0.165 0.349 0 0.219 0.156 0.407 0.444 0.567 0.262 0.143 0.791 0.447 0.791 0.447 0.289 0.203 0.432 0.42 0.428 0.777zM15.483 7.657c-0.357-0.009-0.633 0.027-0.865 0.125-0.067 0.027-0.173 0.027-0.183 0.111 0.037 0.035 0.042 0.093 0.073 0.143 0.053 0.089 0.145 0.209 0.231 0.271 0.093 0.073 0.187 0.144 0.285 0.207 0.173 0.107 0.37 0.17 0.54 0.277 0.097 0.063 0.195 0.142 0.293 0.209 0.049 0.033 0.080 0.093 0.143 0.115v-0.013c-0.031-0.040-0.040-0.098-0.070-0.143-0.045-0.045-0.089-0.085-0.133-0.129-0.129-0.173-0.29-0.325-0.463-0.45-0.143-0.097-0.455-0.233-0.513-0.397l-0.009-0.009c0.097-0.009 0.213-0.044 0.307-0.071 0.151-0.040 0.29-0.031 0.447-0.071 0.071-0.018 0.142-0.040 0.213-0.063v-0.040c-0.080-0.080-0.14-0.189-0.223-0.263-0.227-0.197-0.478-0.388-0.736-0.549-0.14-0.089-0.317-0.147-0.465-0.223-0.053-0.027-0.143-0.040-0.173-0.085-0.080-0.097-0.127-0.227-0.183-0.343-0.128-0.245-0.253-0.517-0.365-0.775-0.080-0.175-0.129-0.349-0.227-0.509-0.46-0.758-0.958-1.217-1.724-1.667-0.165-0.093-0.362-0.133-0.571-0.183-0.111-0.005-0.223-0.013-0.333-0.018-0.073-0.031-0.144-0.116-0.207-0.157-0.253-0.16-0.909-0.507-1.096-0.048-0.12 0.289 0.178 0.575 0.281 0.721 0.077 0.102 0.173 0.219 0.227 0.333 0.031 0.077 0.040 0.157 0.071 0.237 0.071 0.196 0.138 0.415 0.231 0.598 0.049 0.093 0.102 0.191 0.165 0.275 0.036 0.049 0.097 0.071 0.111 0.151-0.063 0.091-0.067 0.223-0.103 0.333-0.16 0.505-0.097 1.129 0.129 1.5 0.071 0.111 0.241 0.356 0.469 0.262 0.2-0.080 0.156-0.333 0.213-0.557 0.013-0.053 0.005-0.089 0.032-0.125v0.010c0.063 0.125 0.125 0.245 0.183 0.37 0.137 0.219 0.377 0.445 0.578 0.597 0.107 0.080 0.191 0.219 0.325 0.268v-0.013h-0.010c-0.029-0.039-0.067-0.057-0.103-0.089-0.080-0.080-0.17-0.178-0.233-0.267-0.187-0.251-0.351-0.527-0.498-0.812-0.073-0.14-0.135-0.291-0.193-0.429-0.027-0.053-0.027-0.133-0.071-0.16-0.067 0.097-0.165 0.182-0.213 0.302-0.085 0.192-0.093 0.428-0.125 0.673-0.018 0.005-0.009 0-0.018 0.009-0.143-0.035-0.191-0.183-0.245-0.307-0.133-0.317-0.155-0.825-0.040-1.19 0.031-0.093 0.165-0.388 0.111-0.477-0.028-0.085-0.116-0.133-0.165-0.202-0.058-0.083-0.12-0.19-0.16-0.285-0.107-0.249-0.16-0.525-0.276-0.775-0.053-0.115-0.147-0.236-0.223-0.342-0.085-0.12-0.178-0.205-0.245-0.347-0.022-0.049-0.053-0.129-0.018-0.183 0.009-0.036 0.028-0.050 0.063-0.060 0.059-0.048 0.223 0.015 0.281 0.041 0.165 0.067 0.303 0.129 0.441 0.223 0.063 0.044 0.13 0.129 0.21 0.151h0.093c0.143 0.031 0.303 0.009 0.437 0.049 0.237 0.076 0.45 0.187 0.641 0.307 0.584 0.371 1.064 0.897 1.39 1.524 0.053 0.103 0.077 0.197 0.125 0.303 0.093 0.22 0.209 0.442 0.303 0.655 0.093 0.21 0.183 0.424 0.317 0.598 0.067 0.093 0.335 0.142 0.455 0.191 0.089 0.040 0.227 0.077 0.307 0.125 0.153 0.093 0.303 0.2 0.447 0.303 0.073 0.051 0.295 0.162 0.309 0.252z"></path>
</svg>
