<!-- Generated by IcoMoon.io -->
<svg version="1.1" xmlns="http://www.w3.org/2000/svg" width="16" height="16" viewBox="0 0 16 16">
<title>nativescript</title>
<path fill="#3655ff" d="M1.18 1.173c0.679-0.711 1.629-1.158 2.684-1.173l0.003-0h8.4c0.913 0 1.767 0.4 2.553 1.173 0.715 0.654 1.166 1.586 1.18 2.624l0 0.003v8.513c0 0.893-0.373 1.72-1.12 2.487-0.685 0.722-1.644 1.177-2.709 1.2l-0.004 0h-8.253c-1.051-0.011-2.007-0.406-2.738-1.051l0.005 0.004c-0.72-0.653-1.113-1.6-1.18-2.867v-8.267c-0-0.011-0-0.025-0-0.038 0-1.038 0.455-1.969 1.176-2.605l0.004-0.003zM5.347 6.707l5.287 6.707h1.413c0.327-0.040 0.587-0.133 0.78-0.287 0.2-0.153 0.333-0.373 0.427-0.667v-3.293c0.053-0.633 0.447-1.027 1.18-1.167-0.733-0.267-1.127-0.68-1.18-1.24v-3.147c-0.080-0.293-0.22-0.533-0.427-0.713-0.193-0.176-0.445-0.291-0.722-0.313l-0.004-0h-1.433v6.8l-5.32-6.807h-1.487c-0.373 0.067-0.647 0.2-0.833 0.4s-0.307 0.52-0.36 0.953v3.233c-0.233 0.46-0.6 0.733-1.1 0.833 0.567 0.107 0.933 0.407 1.1 0.907v3.18c0.013 0.367 0.133 0.667 0.36 0.913 0.22 0.24 0.467 0.353 0.733 0.333h1.573z"></path>
</svg>
