<!-- Generated by IcoMoon.io -->
<svg version="1.1" xmlns="http://www.w3.org/2000/svg" width="16" height="16" viewBox="0 0 16 16">
<title>nec</title>
<path fill="#1414a0" d="M0.053 6.18h1.28c0.293 0 0.633 0.267 0.793 0.42l2.24 2.46v-2.88h0.767v3.933h-1.333c-0.24-0.013-0.473-0.067-0.747-0.327l-2.24-2.467v2.787h-0.76zM15.947 10.133c-0.913 0.127-1.833 0.133-2.76 0.060-0.573-0.035-1.105-0.181-1.584-0.417l0.024 0.011c-0.613-0.32-0.813-1.027-0.8-1.667 0-0.587 0.18-1.22 0.713-1.567 0.324-0.192 0.706-0.324 1.113-0.372l0.014-0.001c1.080-0.187 2.167-0.147 3.227-0.027v0.56c-1.247-0.24-2.567-0.18-3.013 0.387-0.201 0.253-0.322 0.576-0.322 0.928 0 0.025 0.001 0.050 0.002 0.075l-0-0.004c0 0.533 0.187 1.333 1.28 1.493 0.713 0.1 1.42 0.020 2.107-0.1zM8.133 9.52c0.107 0 1.827 0.013 2.42 0v0.587c-1.193 0.047-2.333 0.067-3.533 0.020-1.020-0.040-1.2-0.547-1.213-1.033v-2.913h4.687v0.56h-3.027v1h2.767v0.547h-2.767l0.013 0.687c0.013 0.38 0.2 0.52 0.653 0.547z"></path>
</svg>
