<!-- Generated by IcoMoon.io -->
<svg version="1.1" xmlns="http://www.w3.org/2000/svg" width="16" height="16" viewBox="0 0 16 16">
<title>neo4j</title>
<path fill="#008cc1" d="M15.145 5.611c-0.009 1.973-1.608 3.547-3.594 3.539-1.964-0.009-3.537-1.616-3.527-3.605 0.009-1.933 1.639-3.525 3.594-3.51 1.951 0.015 3.536 1.623 3.527 3.575zM6.542 16c-1.571 0.005-2.891-1.31-2.907-2.896-0.016-1.553 1.303-2.887 2.863-2.893 1.625-0.007 2.93 1.277 2.93 2.884 0.002 1.589-1.301 2.9-2.886 2.905zM5.949 1.893c0 1.041-0.857 1.898-1.894 1.893-1.033-0.005-1.907-0.886-1.891-1.906 0.017-1.035 0.895-1.895 1.92-1.88 1.021 0.015 1.865 0.872 1.865 1.893zM14.6 7.965c-1.798 1.571-3.333 1.853-4.947 0.907-1.427-0.836-2.131-2.481-1.769-4.131 0.391-1.787 1.671-2.723 4.131-2.978-1.867-1.335-3.842-1.746-6.010-1.215-0.281 0.068-0.161 0.174-0.084 0.315 0.524 0.965 0.255 2.138-0.628 2.767s-2.084 0.503-2.812-0.327c-0.215-0.245-0.285-0.179-0.436 0.042-1.672 2.449-1.575 5.786 0.248 8.123 0.328 0.421 0.685 0.813 1.127 1.14 0.5-2.139 2.263-2.834 3.679-2.592 1.729 0.295 2.668 1.735 2.505 3.858 2.344-0.287 5.285-3.767 4.995-5.909zM8.541 1.397c0.308-0.015 0.58 0.243 0.587 0.557 0.006 0.304-0.231 0.551-0.538 0.562-0.337 0.011-0.575-0.213-0.577-0.545-0.003-0.317 0.219-0.558 0.528-0.573zM3.384 4.419c0.32 0.006 0.569 0.267 0.555 0.584-0.013 0.301-0.265 0.536-0.573 0.532s-0.547-0.244-0.552-0.551c-0.005-0.322 0.246-0.57 0.57-0.565zM2.903 6.485c0.002-0.301 0.249-0.549 0.553-0.557 0.307-0.007 0.55 0.223 0.563 0.535 0.013 0.326-0.225 0.585-0.542 0.591-0.315 0.005-0.575-0.254-0.573-0.57zM3.247 8.066c0.015-0.307 0.264-0.537 0.572-0.531 0.319 0.007 0.548 0.261 0.535 0.594-0.013 0.312-0.256 0.542-0.564 0.531-0.319-0.009-0.559-0.273-0.543-0.594zM4.575 10.089c-0.333 0.005-0.571-0.23-0.567-0.559 0.004-0.307 0.247-0.555 0.545-0.557 0.313-0.003 0.582 0.261 0.579 0.569-0.001 0.301-0.247 0.542-0.557 0.547zM7.129 2.015c-0.313 0.008-0.579-0.253-0.577-0.566 0.001-0.321 0.256-0.56 0.584-0.551 0.308 0.009 0.543 0.251 0.542 0.558-0.001 0.299-0.248 0.551-0.549 0.559zM10.467 12.097c-0.329-0.003-0.571-0.25-0.559-0.572 0.012-0.297 0.268-0.54 0.57-0.539 0.319 0.003 0.567 0.262 0.555 0.583-0.010 0.308-0.247 0.528-0.567 0.527zM11.49 10.917c-0.321 0.007-0.581-0.245-0.577-0.56 0.003-0.308 0.242-0.548 0.55-0.555 0.323-0.007 0.576 0.237 0.575 0.561 0.001 0.303-0.241 0.547-0.548 0.555z"></path>
</svg>
