<!-- Generated by IcoMoon.io -->
<svg version="1.1" xmlns="http://www.w3.org/2000/svg" width="16" height="16" viewBox="0 0 16 16">
<title>netflix</title>
<path fill="#e50914" d="M3.593 0.003l3.167 8.973v-0.005l0.251 0.707c1.392 3.939 2.14 6.050 2.144 6.055 0.003 0 0.213 0.013 0.468 0.027 0.771 0.033 1.727 0.12 2.451 0.207 0.167 0.020 0.311 0.027 0.32 0.020l-3.14-8.907-0.291-0.82-1.615-4.567c-0.307-0.867-0.567-1.605-0.58-1.633l-0.021-0.059zM9.265 0.008l-0.007 3.537-0.005 3.537-0.291-0.821v-0.001l-0.377 7.873c0.37 1.045 0.568 1.602 0.57 1.605s0.213 0.016 0.468 0.028c0.771 0.033 1.727 0.12 2.453 0.207 0.167 0.020 0.311 0.027 0.32 0.020s0.013-3.613 0.011-8.007l-0.005-7.979zM3.593 0.001v7.993c0 4.396 0.005 7.997 0.010 8.002s0.277-0.020 0.605-0.057c0.327-0.040 0.78-0.087 1.007-0.107 0.345-0.033 1.379-0.1 1.499-0.1 0.035 0 0.037-0.18 0.042-3.387l0.005-3.387 0.253 0.707 0.087 0.251 0.38-7.867-0.127-0.364-0.587-1.627-0.020-0.058z"></path>
</svg>
