<!-- Generated by IcoMoon.io -->
<svg version="1.1" xmlns="http://www.w3.org/2000/svg" width="16" height="16" viewBox="0 0 16 16">
<title>netlify</title>
<path fill="#00c7b7" d="M11.289 5.679c0.079 0.040 0.145 0.091 0.202 0.153l0 0.001 1.566-0.697-1.461-1.447-0.327 1.969zM8.040 4.364c0.073 0.109 0.123 0.238 0.139 0.379l0 0.004 2.331 0.988c0.067-0.052 0.146-0.092 0.232-0.117l0.005-0.001 0.383-2.367-1.42-1.489-1.67 2.568zM15.995 8.025l-2.499-2.499-1.699 0.696 4.176 1.775c0 0 0.035 0.028 0.021 0.028zM15.577 8.429l-4.009-1.713c-0.111 0.146-0.275 0.246-0.463 0.271l-0.004 0-0.431 2.638c0.124 0.125 0.201 0.297 0.202 0.487v0l2.422 0.508 2.22-2.207v-0.041zM10.267 6.167l-2.179-0.927c-0.145 0.22-0.391 0.362-0.67 0.362-0.009 0-0.018-0-0.028-0l0.001 0h-0.133l-1.803 2.785 4.817-2.088v0.007c-0.002-0.017-0.003-0.036-0.003-0.056s0.001-0.039 0.003-0.058l-0 0.002c0-0.002 0.001-0.004 0.001-0.006 0-0.008-0.003-0.015-0.007-0.021l0 0zM12.911 11.039l-2.13-0.439c-0.079 0.101-0.183 0.179-0.302 0.228l-0.005 0.002-0.507 3.147 2.958-2.931c0 0-0.007 0.013-0.014 0.013zM9.932 10.823c-0.203-0.085-0.355-0.257-0.41-0.469l-0.001-0.005-3.967-0.815-0.056 0.091 3.599 5.207 0.215-0.216 0.613-3.78c0 0 0.021 0.015 0.007 0.007zM5.638 9.055l3.919 0.807c0.113-0.195 0.314-0.329 0.547-0.348l0.002-0 0.425-2.596-0.090-0.077-4.872 2.088c0.022 0.035 0.045 0.076 0.066 0.118l0.003 0.007zM3.995 9.709l-0.083-0.083-1.691 0.696 0.821 0.815 0.933-1.448zM5.109 9.973c-0.11 0.052-0.239 0.082-0.375 0.083h-0c-0.001 0-0.002 0-0.004 0-0.106 0-0.208-0.018-0.303-0.051l0.006 0.002-1.029 1.497 4.51 4.468 0.793-0.787zM4.475 8.213c0.031-0.003 0.068-0.005 0.105-0.005s0.073 0.002 0.109 0.005l-0.005-0c0.034-0.005 0.074-0.007 0.115-0.007s0.080 0.003 0.119 0.008l-0.005-0 1.823-2.833c-0.137-0.142-0.222-0.336-0.223-0.549v-0c-0.003-0.027-0.005-0.059-0.005-0.090s0.002-0.063 0.005-0.094l-0 0.004-2.213-1.023-1.781 1.733zM4.677 3.278l2.158 0.919c0.142-0.117 0.326-0.189 0.526-0.189 0.011 0 0.021 0 0.032 0.001l-0.002-0c0.095 0.001 0.186 0.016 0.271 0.044l-0.006-0.002 1.684-2.631-1.392-1.392-3.271 3.209c0 0-0.007 0.035 0 0.042zM3.871 8.721c0.046-0.085 0.099-0.158 0.16-0.223l-0 0.001-1.845-2.756-2.185 2.123zM3.696 9.187l-3.341-0.697 1.469 1.49 1.851-0.787z"></path>
</svg>
