<!-- Generated by IcoMoon.io -->
<svg version="1.1" xmlns="http://www.w3.org/2000/svg" width="16" height="16" viewBox="0 0 16 16">
<title>nextcloud</title>
<path fill="#0082c9" d="M8.012 4.358c-1.667 0-3.067 1.141-3.494 2.677-0.373-0.821-1.195-1.403-2.15-1.403-1.305 0.006-2.362 1.063-2.368 2.368v0.001c0.006 1.306 1.063 2.362 2.367 2.369h0.001c0.955 0 1.776-0.583 2.149-1.404 0.427 1.536 1.828 2.677 3.495 2.677 1.658 0 3.051-1.129 3.487-2.651 0.379 0.807 1.189 1.378 2.132 1.378 1.306-0.006 2.363-1.063 2.369-2.368v-0.001c-0.006-1.306-1.063-2.363-2.368-2.369h-0.001c-0.944 0-1.753 0.572-2.133 1.378-0.436-1.523-1.829-2.652-3.487-2.651zM8.012 5.748c1.252 0 2.252 1 2.252 2.252s-1 2.252-2.252 2.252c-0.003 0-0.007 0-0.010 0-1.238 0-2.241-1.003-2.241-2.241 0-0.004 0-0.008 0-0.011v0.001c0-1.252 1-2.252 2.251-2.252zM2.368 7.021c0.548 0 0.978 0.43 0.978 0.979s-0.429 0.978-0.978 0.979c-0.003 0-0.007 0-0.010 0-0.535 0-0.968-0.433-0.968-0.968 0-0.004 0-0.008 0-0.011v0.001c0-0.549 0.429-0.978 0.978-0.979zM13.631 7.021c0.549 0 0.979 0.43 0.979 0.979s-0.43 0.979-0.979 0.979c-0.003 0-0.007 0-0.010 0-0.535 0-0.968-0.433-0.968-0.968 0-0.004 0-0.008 0-0.011v0.001c0-0.549 0.429-0.978 0.978-0.979z"></path>
</svg>
