<!-- Generated by IcoMoon.io -->
<svg version="1.1" xmlns="http://www.w3.org/2000/svg" width="16" height="16" viewBox="0 0 16 16">
<title>nginx</title>
<path fill="#269539" d="M8 0l-6.93 4v8l6.93 4 6.93-4v-8zM12 11.060c0 0.47-0.431 0.86-1.019 0.86-0.421 0-0.901-0.17-1.201-0.54l-4-4.761v4.44c0 0.481-0.38 0.86-0.849 0.86h-0.051c-0.481 0-0.86-0.4-0.86-0.86v-6.119c0-0.47 0.42-0.86 1-0.86 0.431 0 0.92 0.17 1.22 0.54l3.98 4.761v-4.441c0-0.481 0.4-0.86 0.86-0.86h0.050c0.48 0 0.86 0.4 0.86 0.86v6.12z"></path>
</svg>
