<!-- Generated by IcoMoon.io -->
<svg version="1.1" xmlns="http://www.w3.org/2000/svg" width="16" height="16" viewBox="0 0 16 16">
<title>nim</title>
<path fill="#ffe953" d="M8.063 1.933c0 0-0.613 0.519-1.238 1.033-0.643-0.021-1.904 0.133-2.587 0.399-0.631-0.427-1.184-0.899-1.184-0.899s-0.473 0.87-0.769 1.38c-0.441 0.251-0.883 0.533-1.278 0.907-0.458-0.193-0.99-0.432-1.007-0.439 0.607 1.311 1.016 2.623 2.127 3.413 1.769-2.989 9.989-2.713 11.794-0.017 1.167-0.651 1.62-2.052 2.079-3.345-0.050 0.017-0.675 0.241-1.079 0.407-0.242-0.282-0.811-0.715-1.135-0.923-0.413-0.817-0.664-1.28-0.921-1.74l0.166 0.325c0 0-0.529 0.421-1.143 0.881-0.829-0.164-1.831-0.363-2.675-0.313-0.418-0.371-0.792-0.72-1.159-1.076l0.009 0.008zM0.628 7.1l1.459 3.781c2.534 3.577 9.005 3.826 11.827 0.069 0.667-1.61 1.568-3.872 1.568-3.872-0.724 1.147-1.901 1.939-2.627 2.366-0.516 0.302-1.705 0.485-1.705 0.485l-3.123-1.731-3.14 1.697c0 0-1.174-0.202-1.705-0.467-1.072-0.613-1.793-1.336-2.554-2.327z"></path>
</svg>
