<!-- Generated by IcoMoon.io -->
<svg version="1.1" xmlns="http://www.w3.org/2000/svg" width="16" height="16" viewBox="0 0 16 16">
<title>nintendo3ds</title>
<path fill="#d12228" d="M11.769 11.087c0 0.262 0.213 0.475 0.475 0.475s0.475-0.213 0.475-0.475v0c0-0.262-0.213-0.475-0.475-0.475s-0.475 0.213-0.475 0.475v0zM5.469 13.912h5.050c0.2 0 0.349-0.15 0.363-0.349v-3.45c-0.013-0.188-0.175-0.35-0.363-0.338h-5.050c-0.001 0-0.002-0-0.003-0-0.195 0-0.354 0.156-0.36 0.35l-0 0.001v3.437c0 0.201 0.163 0.35 0.363 0.35zM14.169 11.562c0 0 0 0 0.001 0 0.268 0 0.486-0.218 0.486-0.486v0c0-0 0-0 0-0.001 0-0.269-0.218-0.487-0.487-0.487s-0.487 0.218-0.487 0.487c0 0.269 0.218 0.487 0.487 0.487v0zM13.207 11.549c-0.005-0-0.011-0-0.017-0-0.263 0-0.476 0.213-0.476 0.476s0.213 0.476 0.476 0.476c0.006 0 0.013-0 0.019-0l-0.001 0c0.255-0.010 0.458-0.219 0.458-0.476s-0.203-0.466-0.458-0.476l-0.001-0zM12.732 10.125c0 0.262 0.213 0.475 0.475 0.475s0.475-0.213 0.475-0.475v0c0-0.262-0.213-0.475-0.475-0.475s-0.475 0.213-0.475 0.475v0zM1.693 11.075c0 0.608 0.492 1.1 1.1 1.1s1.1-0.492 1.1-1.1v0c0-0.608-0.492-1.1-1.1-1.1s-1.1 0.492-1.1 1.1v0zM14.181 0h-12.363c-0.002 0-0.003-0-0.005-0-1.003 0-1.816 0.811-1.82 1.813v12.362c0.013 1.013 0.825 1.825 1.825 1.825h12.351c0.001 0 0.001 0 0.002 0 1.006 0 1.822-0.809 1.835-1.811l0-0.001v-12.363c-0.013-1.012-0.825-1.825-1.825-1.825zM15.457 14.187c-0.003 0.703-0.572 1.272-1.274 1.275h-12.364c-0.703-0.003-1.272-0.572-1.275-1.274v-5.638h14.913zM15.457 7.725h-14.913v-5.9c0.003-0.703 0.572-1.273 1.275-1.275h12.363c0.699 0 1.275 0.575 1.275 1.275v5.9zM11.606 2.075h-7.25c-0.2 0-0.363 0.175-0.363 0.375v3.65c0 0.2 0.151 0.375 0.363 0.375h7.25c0.201-0.001 0.363-0.164 0.363-0.365 0-0.004-0-0.007-0-0.011l0 0.001v-3.663c0-0 0-0 0-0.001 0-0.2-0.162-0.362-0.362-0.362-0 0-0 0-0.001 0h0z"></path>
</svg>
