<!-- Generated by IcoMoon.io -->
<svg version="1.1" xmlns="http://www.w3.org/2000/svg" width="16" height="16" viewBox="0 0 16 16">
<title>nintendoswitch</title>
<path fill="#e60012" d="M9.451 16h2.449c2.251 0 4.1-1.849 4.1-4.1v-7.8c0-2.25-1.849-4.1-4.1-4.1h-2.5c-0.049 0-0.1 0.049-0.1 0.1v15.8c-0.001 0.051 0.050 0.1 0.151 0.1zM12.5 7.201c0.901 0 1.599 0.75 1.599 1.599 0 0.901-0.75 1.6-1.599 1.6-0.9 0-1.6-0.699-1.6-1.6-0.050-0.899 0.7-1.599 1.6-1.599zM7.6 0h-3.5c-2.25 0-4.1 1.85-4.1 4.1v7.8c0 2.251 1.85 4.1 4.1 4.1h3.5c0.049 0 0.1-0.049 0.1-0.099v-15.801c0.001-0.051-0.050-0.1-0.1-0.1zM6.451 14.701h-2.351c-1.551 0-2.801-1.25-2.801-2.801v-7.8c0-1.551 1.25-2.801 2.801-2.801h2.3zM2.5 4.799c0 0.85 0.65 1.5 1.5 1.5s1.5-0.65 1.5-1.5c0-0.849-0.65-1.5-1.5-1.5s-1.5 0.651-1.5 1.5z"></path>
</svg>
