<!-- Generated by IcoMoon.io -->
<svg version="1.1" xmlns="http://www.w3.org/2000/svg" width="16" height="16" viewBox="0 0 16 16">
<title>node-dot-js</title>
<path fill="#393" d="M7.999 16c-0.214 0-0.427-0.056-0.615-0.165l-1.957-1.158c-0.292-0.163-0.149-0.221-0.053-0.255 0.39-0.135 0.469-0.167 0.885-0.403 0.043-0.025 0.101-0.015 0.145 0.011l1.504 0.893c0.055 0.030 0.131 0.030 0.181 0l5.863-3.384c0.055-0.031 0.089-0.094 0.089-0.159v-6.767c0-0.066-0.035-0.128-0.091-0.161l-5.861-3.381c-0.054-0.031-0.126-0.031-0.181 0l-5.859 3.382c-0.057 0.033-0.093 0.097-0.093 0.161v6.767c0 0.065 0.036 0.126 0.093 0.157l1.606 0.928c0.871 0.436 1.405-0.077 1.405-0.593v-6.681c0-0.095 0.076-0.169 0.171-0.169h0.743c0.093 0 0.17 0.075 0.17 0.169v6.681c0 1.163-0.633 1.83-1.736 1.83-0.339 0-0.606 0-1.351-0.367l-1.539-0.885c-0.38-0.219-0.615-0.63-0.615-1.069v-6.767c0-0.439 0.235-0.85 0.615-1.069l5.863-3.388c0.371-0.21 0.864-0.21 1.232 0l5.863 3.388c0.38 0.219 0.616 0.629 0.616 1.069v6.767c0 0.439-0.236 0.849-0.616 1.069l-5.863 3.385c-0.187 0.109-0.399 0.165-0.617 0.165zM12.733 9.329c0-1.267-0.856-1.604-2.658-1.842-1.821-0.241-2.006-0.365-2.006-0.791 0-0.352 0.157-0.822 1.505-0.822 1.205 0 1.649 0.259 1.831 1.071 0.016 0.077 0.086 0.133 0.165 0.133h0.761c0.047 0 0.092-0.021 0.124-0.054 0.032-0.036 0.049-0.082 0.045-0.131-0.118-1.399-1.047-2.051-2.925-2.051-1.672 0-2.669 0.705-2.669 1.889 0 1.283 0.992 1.638 2.597 1.797 1.92 0.188 2.069 0.469 2.069 0.846 0 0.655-0.526 0.935-1.761 0.935-1.551 0-1.893-0.389-2.007-1.161-0.013-0.083-0.084-0.143-0.169-0.143h-0.758c-0.094 0-0.169 0.075-0.169 0.169 0 0.988 0.537 2.165 3.103 2.165 1.859 0.001 2.924-0.731 2.924-2.009z"></path>
</svg>
