<!-- Generated by IcoMoon.io -->
<svg version="1.1" xmlns="http://www.w3.org/2000/svg" width="16" height="16" viewBox="0 0 16 16">
<title>nodemon</title>
<path fill="#76d04b" d="M14.887 5.234l-0.477-0.265c0.734-1.046 1.172-2.618 0.623-4.969 0 0-1.238 3.353-3.727 3.242l-2.913-1.621c-0.103-0.059-0.225-0.096-0.356-0.1l-0.001-0h-0.067c-0.132 0.005-0.255 0.041-0.363 0.102l0.004-0.002-2.914 1.621c-2.489 0.111-3.727-3.242-3.727-3.242-0.55 2.351-0.111 3.923 0.623 4.969l-0.477 0.265c-0.235 0.13-0.391 0.376-0.393 0.658v0l0.015 9.727c0 0.135 0.073 0.261 0.196 0.327 0.056 0.033 0.123 0.053 0.195 0.053s0.139-0.020 0.196-0.054l-0.002 0.001 3.86-2.136c0.244-0.141 0.393-0.388 0.393-0.658v-4.545c0-0.271 0.149-0.522 0.392-0.656l1.643-0.915c0.112-0.065 0.247-0.103 0.39-0.103 0.001 0 0.002 0 0.003 0h-0c0.133 0 0.271 0.033 0.39 0.103l1.643 0.915c0.243 0.134 0.392 0.385 0.392 0.656v4.545c0 0.27 0.151 0.519 0.393 0.658l3.859 2.136c0.056 0.033 0.124 0.053 0.196 0.053s0.14-0.020 0.198-0.054l-0.002 0.001c0.116-0.065 0.194-0.187 0.195-0.327v-0l0.013-9.727c-0.001-0.283-0.158-0.529-0.389-0.657l-0.004-0.002z"></path>
</svg>
