<!-- Generated by IcoMoon.io -->
<svg version="1.1" xmlns="http://www.w3.org/2000/svg" width="16" height="16" viewBox="0 0 16 16">
<title>node-red</title>
<path fill="#8f0000" d="M2 0c-1.108 0-2 0.892-2 2v4.071h1.905c0.728 0 1.313 0.579 1.309 1.307v0.014c0.541-0.063 0.875-0.235 1.116-0.455 0.277-0.255 0.46-0.607 0.677-0.999s0.473-0.829 0.939-1.149c0.383-0.263 0.903-0.429 1.589-0.457v-0.3c0-0.728 0.587-1.317 1.315-1.317h5.262c0.727 0 1.316 0.589 1.316 1.317v1.295c0 0.727-0.589 1.353-1.316 1.353h-5.262c-0.728 0-1.315-0.625-1.315-1.353v-0.302c-0.569 0.025-0.939 0.157-1.199 0.336-0.32 0.22-0.516 0.535-0.724 0.912s-0.42 0.813-0.815 1.175l-0.051 0.046c2.047 0.277 2.977 1.037 3.767 1.729 0.927 0.81 1.651 1.517 4.2 1.525v-0.307c0-0.728 0.596-1.297 1.324-1.297h1.961v-7.143c0-1.108-0.892-2-2-2zM8.851 3.607c-0.246 0-0.458 0.179-0.458 0.425v1.295c0 0.245 0.212 0.424 0.458 0.424h5.261c0.004 0 0.009 0 0.014 0 0.226 0 0.409-0.183 0.409-0.409 0-0.005-0-0.010-0-0.016l0 0.001v-1.295c0-0.004 0-0.010 0-0.015 0-0.226-0.183-0.409-0.409-0.409-0.005 0-0.010 0-0.015 0l0.001-0zM0 6.965v2.178h1.905c0.25-0.007 0.45-0.21 0.452-0.46v-1.295c0-0.245-0.207-0.423-0.452-0.423zM3.214 8.079v0.605c0 0.002 0 0.004 0 0.007 0 0.723-0.586 1.309-1.309 1.31h-1.905v4c0 1.108 0.892 2 2 2h12c1.108 0 2-0.892 2-2v-0.929h-1.961c-0.728 0-1.324-0.609-1.324-1.337v-0.297c-2.697-0.021-3.732-0.889-4.655-1.696-0.958-0.838-1.834-1.621-4.845-1.663zM14.039 10c-0.001 0-0.001 0-0.002 0-0.237 0-0.429 0.192-0.429 0.429 0 0.004 0 0.008 0 0.011l-0-0.001v1.295c0 0.245 0.185 0.408 0.431 0.408h1.961v-2.143z"></path>
</svg>
