<!-- Generated by IcoMoon.io -->
<svg version="1.1" xmlns="http://www.w3.org/2000/svg" width="16" height="16" viewBox="0 0 16 16">
<title>nokia</title>
<path fill="#124191" d="M0.775 9.303h-0.77v-2.593h1.331l1.528 1.936v-1.936h0.77v2.593h-1.305l-1.555-1.969v1.969zM7.318 8.501c0 0.36-0.065 0.485-0.171 0.604-0.163 0.177-0.4 0.231-0.859 0.231h-1.315c-0.457 0-0.695-0.053-0.859-0.231-0.107-0.119-0.171-0.243-0.171-0.604v-1c0-0.36 0.064-0.484 0.171-0.603 0.163-0.177 0.401-0.231 0.859-0.231h1.315c0.458 0 0.696 0.053 0.859 0.231 0.107 0.119 0.171 0.243 0.171 0.604v0.999zM6.256 8.679c0.176 0 0.237-0.011 0.28-0.049 0.039-0.035 0.057-0.081 0.057-0.233v-0.791c0-0.153-0.017-0.198-0.057-0.233-0.043-0.039-0.104-0.049-0.28-0.049h-1.25c-0.176 0-0.238 0.010-0.28 0.049-0.040 0.035-0.057 0.081-0.057 0.233v0.791c0 0.153 0.017 0.198 0.057 0.233 0.042 0.038 0.104 0.049 0.28 0.049h1.25zM8.437 6.709v2.593h-0.805v-2.593h0.805zM9.796 6.709h1.062l-1.433 1.213 1.617 1.38h-1.137l-1.468-1.353 1.359-1.24zM11.189 6.71h0.805v2.593h-0.805zM15.061 9.303l-0.238-0.452h-1.557l-0.235 0.452h-0.889l1.426-2.593h1l1.426 2.593h-0.933zM13.546 8.288h1l-0.5-0.939-0.5 0.939z"></path>
</svg>
