<!-- Generated by IcoMoon.io -->
<svg version="1.1" xmlns="http://www.w3.org/2000/svg" width="16" height="16" viewBox="0 0 16 16">
<title>notion</title>
<path d="M2.973 2.805c0.497 0.404 0.684 0.373 1.619 0.311l8.81-0.529c0.187 0 0.031-0.187-0.031-0.217l-1.464-1.058c-0.28-0.217-0.654-0.467-1.37-0.405l-8.53 0.623c-0.311 0.031-0.373 0.187-0.249 0.311zM3.501 4.859v9.269c0 0.498 0.249 0.685 0.809 0.653l9.682-0.56c0.561-0.031 0.623-0.373 0.623-0.778v-9.207c0-0.404-0.155-0.622-0.499-0.591l-10.118 0.591c-0.373 0.031-0.498 0.218-0.498 0.623zM13.059 5.355c0.062 0.28 0 0.56-0.28 0.592l-0.467 0.093v6.843c-0.405 0.218-0.779 0.343-1.090 0.343-0.499 0-0.623-0.156-0.997-0.622l-3.051-4.791v4.635l0.965 0.219c0 0 0 0.56-0.779 0.56l-2.148 0.124c-0.062-0.124 0-0.435 0.218-0.497l0.56-0.155v-6.129l-0.777-0.063c-0.063-0.28 0.093-0.684 0.529-0.715l2.304-0.155 3.176 4.853v-4.293l-0.81-0.093c-0.062-0.343 0.187-0.591 0.498-0.622zM1.291 0.69l8.873-0.653c1.089-0.093 1.37-0.031 2.055 0.467l2.833 1.991c0.467 0.342 0.623 0.435 0.623 0.809v10.919c0 0.684-0.249 1.089-1.12 1.151l-10.305 0.623c-0.653 0.031-0.965-0.062-1.308-0.498l-2.086-2.707c-0.373-0.498-0.529-0.871-0.529-1.307v-9.705c0-0.559 0.249-1.027 0.965-1.088z"></path>
</svg>
