<!-- Generated by IcoMoon.io -->
<svg version="1.1" xmlns="http://www.w3.org/2000/svg" width="16" height="16" viewBox="0 0 16 16">
<title>notist</title>
<path d="M3.956 2.534c-0.733 0.073-1.525 0.267-2.025 0.493-0.713 0.333-0.839 0.579-0.606 1.245 0.24 0.693 0.127 1.539-0.667 5.003-0.585 2.584-0.685 3.124-0.651 3.604 0.027 0.313 0.060 0.42 0.193 0.527 0.147 0.119 0.22 0.126 1.125 0.086 2.272-0.113 2.705-0.147 2.845-0.227 0.16-0.087 0.167-0.133 0.293-1.172 0.213-1.912 1.192-4.77 2.018-5.929 0.707-0.986 1.573-1.419 2.065-1.033 0.52 0.413 0.507 1.039-0.087 2.765-0.453 1.333-0.527 1.619-0.606 2.411-0.1 0.973 0.087 1.659 0.64 2.272 0.566 0.627 1.412 0.939 2.564 0.939 1.093 0 1.979-0.273 2.918-0.893 0.86-0.573 1.885-1.739 2.005-2.285 0.067-0.273-0.047-0.573-0.233-0.646-0.273-0.1-0.433-0.027-0.926 0.42-0.573 0.52-0.833 0.633-1.339 0.593-0.673-0.053-0.967-0.44-0.967-1.279 0-0.599 0.060-0.899 0.433-2.211 0.527-1.819 0.62-2.645 0.387-3.351-0.38-1.179-1.985-1.692-3.764-1.199-0.966 0.273-2.159 0.966-3.065 1.792-0.253 0.227-0.453 0.393-0.453 0.373 0-0.013 0.047-0.233 0.107-0.48 0.227-0.999 0.133-1.499-0.319-1.732-0.26-0.133-1.066-0.173-1.886-0.087z"></path>
</svg>
