<!-- Generated by IcoMoon.io -->
<svg version="1.1" xmlns="http://www.w3.org/2000/svg" width="16" height="16" viewBox="0 0 16 16">
<title>nucleo</title>
<path fill="#766dcc" d="M4.831 14.999c0.992 0.441 2.039 0.717 3.196 0.717s2.26-0.276 3.197-0.717c-1.047-0.717-2.149-1.598-3.197-2.535-1.047 0.937-2.149 1.819-3.196 2.535zM14.641 11.913c0.658-1.122 1.047-2.472 1.047-3.912 0-0 0-0.001 0-0.001v0c0-1.157-0.275-2.26-0.716-3.197-1.157 1.709-2.811 3.637-4.685 5.511-0.386 0.386-0.827 0.827-1.268 1.213-0.165-0.165-0.331-0.331-0.551-0.496 0.454-0.4 0.868-0.814 1.254-1.253l0.013-0.015c2.039-2.039 3.748-4.078 4.85-5.787 1.267-1.929 1.598-3.141 1.047-3.747-0.055-0.111-0.33-0.221-0.606-0.221-0.661 0-1.763 0.496-3.087 1.378-1.157-0.661-2.48-1.103-3.913-1.103s-2.755 0.386-3.913 1.103c-1.321-0.882-2.424-1.378-3.085-1.378-0.331 0-0.551 0.11-0.717 0.275-1.323 1.323 2.811 6.449 5.897 9.535 3.637 3.637 7.275 6.173 8.818 6.173 0.331 0 0.551-0.11 0.717-0.275 0.551-0.551 0.22-1.819-1.047-3.748zM15.027 0.725c0.055 0 0.165 0 0.221 0.055 0.165 0.165 0.11 0.882-0.992 2.645-0.441-0.606-0.992-1.212-1.653-1.653 1.102-0.661 1.929-1.047 2.425-1.047zM1.8 3.425c-0.937-1.488-1.213-2.425-0.992-2.645 0.055-0.055 0.165-0.055 0.22-0.055 0.496 0 1.323 0.385 2.425 1.047-0.61 0.501-1.152 1.043-1.637 1.633l-0.016 0.020zM15.247 15.22c-0.055 0.055-0.165 0.055-0.22 0.055-0.497 0-1.323-0.385-2.425-1.047 0.607-0.441 1.213-0.992 1.653-1.653 1.102 1.763 1.157 2.48 0.992 2.645zM7.145 11.637c-0.496-0.441-0.992-0.882-1.433-1.378-1.819-1.819-3.582-3.857-4.685-5.511-0.44 0.991-0.715 2.094-0.715 3.196 0 1.433 0.385 2.756 1.047 3.913l-0.055 0.055c-1.268 1.929-1.599 3.142-1.047 3.748 0.165 0.165 0.441 0.275 0.717 0.275 1.212 0 3.693-1.543 6.448-3.968-0.101-0.099-0.192-0.207-0.271-0.323l-0.005-0.007zM1.027 15.275c-0.055 0-0.165 0-0.22-0.055-0.165-0.165-0.111-0.882 0.992-2.645 0.441 0.606 0.992 1.157 1.653 1.653-1.103 0.661-1.929 1.047-2.425 1.047z"></path>
</svg>
