<!-- Generated by IcoMoon.io -->
<svg version="1.1" xmlns="http://www.w3.org/2000/svg" width="16" height="16" viewBox="0 0 16 16">
<title>nuget</title>
<path fill="#004880" d="M11.78 14.422c-1.471 0-2.663-1.192-2.663-2.663s1.192-2.663 2.663-2.663v0c1.471 0 2.663 1.192 2.663 2.663s-1.192 2.663-2.663 2.663v0zM6.467 8.317c-0.919 0-1.665-0.745-1.665-1.665s0.745-1.665 1.665-1.665v0c0.919 0 1.665 0.745 1.665 1.665s-0.745 1.665-1.665 1.665v0zM11.897 3.121h-4.445c-2.266 0.001-4.102 1.838-4.103 4.103v4.445c0 2.266 1.837 4.103 4.103 4.103v0h4.445c2.266 0 4.103-1.837 4.103-4.103v0-4.445c0-2.266-1.837-4.103-4.103-4.103h-0zM2.663 1.559c0 0.736-0.596 1.332-1.332 1.332s-1.332-0.596-1.332-1.332v0c0-0.736 0.596-1.332 1.332-1.332s1.332 0.596 1.332 1.332v0z"></path>
</svg>
