<!-- Generated by IcoMoon.io -->
<svg version="1.1" xmlns="http://www.w3.org/2000/svg" width="16" height="16" viewBox="0 0 16 16">
<title>nutanix</title>
<path fill="#024da1" d="M0.262 2.411c-0.145 0.001-0.262 0.118-0.262 0.263 0 0 0 0 0 0v0c0 0.080 0.036 0.15 0.093 0.198l5.671 4.936c0.052 0.048 0.085 0.116 0.085 0.192 0 0.080-0.036 0.152-0.093 0.199l-0 0-5.68 4.941c-0.047 0.047-0.076 0.113-0.076 0.185 0 0.145 0.117 0.262 0.262 0.262 0 0 0.001 0 0.001 0h3.24c0.069 0 0.13-0.027 0.177-0.069l6.113-5.32c0.056-0.049 0.090-0.12 0.090-0.199s-0.035-0.15-0.090-0.198l-0-0-6.114-5.321c-0.046-0.043-0.108-0.069-0.176-0.069-0 0-0 0-0 0h0zM12.501 2.411c-0.071 0-0.135 0.029-0.182 0.075l0-0-3.145 2.737c-0.058 0.048-0.094 0.12-0.094 0.201 0 0.068 0.026 0.129 0.068 0.175l-0-0 1.619 1.409c0.048 0.053 0.117 0.086 0.194 0.086v0c0.073-0.001 0.138-0.031 0.185-0.079l0-0 4.751-4.135c0.063-0.048 0.103-0.123 0.103-0.207 0 0 0 0 0 0v0c0 0 0 0 0 0 0-0.145-0.117-0.263-0.262-0.263h-0zM10.961 8.906c-0.077 0-0.147 0.033-0.195 0.087l-1.618 1.409c-0.042 0.046-0.068 0.108-0.068 0.176 0 0.080 0.036 0.152 0.093 0.2l0 0 3.145 2.736c0.047 0.047 0.111 0.075 0.182 0.075h3.237c0 0 0 0 0 0 0.145 0 0.262-0.117 0.262-0.262 0-0.084-0.040-0.16-0.102-0.208l-0.001-0-4.751-4.135c-0.047-0.047-0.112-0.077-0.185-0.077h-0z"></path>
</svg>
