<!-- Generated by IcoMoon.io -->
<svg version="1.1" xmlns="http://www.w3.org/2000/svg" width="16" height="16" viewBox="0 0 16 16">
<title>nuxt-dot-js</title>
<path fill="#00c58e" d="M13.149 13.515l0.015-0.030c0.013-0.022 0.025-0.048 0.034-0.075l0.001-0.003 0.001-0.003c0.030-0.080 0.048-0.172 0.048-0.268 0-0.048-0.004-0.095-0.013-0.141l0.001 0.005 0.001 0.005c-0.028-0.156-0.083-0.296-0.16-0.42l0.003 0.005 0.003 0.005-3.545-6.235-0.541-0.947-4.081 7.182c-0.065 0.116-0.112 0.252-0.135 0.396l-0.001 0.007-0.001 0.007c-0.008 0.045-0.013 0.096-0.013 0.148 0 0.118 0.024 0.231 0.069 0.333l-0.002-0.005-0.002-0.005c0.011 0.027 0.022 0.049 0.035 0.071l-0.001-0.003-0.001-0.003c0.107 0.183 0.333 0.401 0.833 0.401h6.599c0.105 0 0.617-0.021 0.853-0.425zM8.998 7.304l3.239 5.699h-6.477zM15.831 12.593l-4.677-8.24c-0.048-0.087-0.318-0.525-0.788-0.525-0.211 0-0.515 0.090-0.761 0.523l-0.605 1.060 0.538 0.947 0.833-1.475 4.627 8.12h-1.76c0.007 0.039 0.011 0.084 0.011 0.13 0 0.099-0.018 0.193-0.051 0.281l0.002-0.005 0.002-0.005c-0.011 0.033-0.024 0.060-0.039 0.087l0.001-0.003 0.001-0.003-0.015 0.030c-0.237 0.403-0.748 0.425-0.848 0.425h2.753c0.101 0 0.611-0.021 0.848-0.425 0.105-0.183 0.18-0.491-0.071-0.922zM4.869 13.538c-0.009-0.016-0.019-0.036-0.028-0.057l-0.002-0.004-0.001-0.004c-0.044-0.097-0.069-0.21-0.069-0.329 0-0.051 0.005-0.102 0.014-0.151l-0.001 0.005-0.001 0.005h-3.781l5.619-9.888 1.845 3.243 0.535-0.947-1.608-2.833c-0.045-0.081-0.317-0.518-0.785-0.518-0.211 0-0.515 0.091-0.761 0.525l-5.692 10.008c-0.048 0.087-0.283 0.541-0.050 0.945 0.107 0.183 0.333 0.401 0.833 0.401h4.767c-0.497 0-0.727-0.215-0.835-0.401z"></path>
</svg>
