<!-- Generated by IcoMoon.io -->
<svg version="1.1" xmlns="http://www.w3.org/2000/svg" width="16" height="16" viewBox="0 0 16 16">
<title>nvidia</title>
<path fill="#76b900" d="M5.965 5.865v-0.953c0.082-0.007 0.181-0.011 0.28-0.012l0.003-0c2.615-0.083 4.329 2.249 4.329 2.249s-1.849 2.567-3.833 2.567c-0.265 0-0.525-0.041-0.772-0.123v-2.897c1.019 0.123 1.225 0.571 1.831 1.59l1.36-1.143c0 0-0.995-1.301-2.667-1.301-0.027-0.001-0.058-0.001-0.090-0.001-0.155 0-0.309 0.009-0.46 0.026l0.018-0.002zM5.965 2.709v1.425l0.283-0.018c3.633-0.123 6.007 2.98 6.007 2.98s-2.72 3.309-5.553 3.309c-0.247 0-0.489-0.023-0.73-0.065v0.883c0.2 0.023 0.407 0.041 0.607 0.041 2.638 0 4.547-1.349 6.395-2.939 0.306 0.247 1.56 0.842 1.82 1.101-1.755 1.472-5.848 2.656-8.169 2.656-0.223 0-0.435-0.012-0.647-0.035v1.243h10.023v-10.583zM5.965 9.593v0.754c-2.438-0.436-3.115-2.973-3.115-2.973s1.172-1.296 3.115-1.508v0.825h-0.005c-1.019-0.124-1.82 0.83-1.82 0.83s0.453 1.608 1.826 2.073zM1.637 7.267c0 0 1.443-2.131 4.333-2.355v-0.777c-3.202 0.259-5.971 2.968-5.971 2.968s1.567 4.535 5.965 4.947v-0.825c-3.227-0.4-4.328-3.957-4.328-3.957z"></path>
</svg>
