<!-- Generated by IcoMoon.io -->
<svg version="1.1" xmlns="http://www.w3.org/2000/svg" width="16" height="16" viewBox="0 0 16 16">
<title>obsstudio</title>
<path d="M8 16c-4.411 0-8-3.589-8-8s3.589-8 8-8 8 3.589 8 8-3.589 8-8 8zM8 0.739c-4.003 0-7.26 3.257-7.26 7.261s3.257 7.26 7.26 7.26 7.26-3.257 7.26-7.26-3.257-7.261-7.26-7.261zM4.121 3.993c0.235-1.132 1.002-2.153 2.033-2.664-0.179 0.182-0.397 0.322-0.563 0.52-0.68 0.733-0.987 1.795-0.799 2.771 0.237 1.49 1.637 2.707 3.155 2.685 1.177 0.053 2.323-0.625 2.899-1.645 1.232 0.042 2.43 0.678 3.133 1.699 0.36 0.533 0.641 1.157 0.661 1.807-0.228-0.863-0.801-1.631-1.583-2.063-0.757-0.426-1.686-0.535-2.515-0.283-1.040 0.299-1.899 1.149-2.195 2.195-0.251 0.833-0.144 1.752 0.251 2.515-0.55 0.953-1.543 1.633-2.621 1.837-0.829 0.174-1.701 0.039-2.473-0.309 0.691 0.201 1.441 0.237 2.127-0.007 0.921-0.305 1.681-1.045 2.016-1.957 0.371-0.993 0.23-2.174-0.394-3.027-0.467-0.671-1.202-1.145-2.001-1.313-0.253-0.045-0.509-0.065-0.765-0.089-0.407-0.821-0.556-1.773-0.352-2.664z"></path>
</svg>
