<!-- Generated by IcoMoon.io -->
<svg version="1.1" xmlns="http://www.w3.org/2000/svg" width="16" height="16" viewBox="0 0 16 16">
<title>ocaml</title>
<path fill="#ec6813" d="M8.124 14.42c-0.057-0.113-0.124-0.349-0.169-0.45-0.045-0.090-0.18-0.337-0.247-0.417-0.147-0.169-0.18-0.18-0.225-0.405-0.079-0.383-0.27-1.058-0.507-1.53-0.124-0.248-0.327-0.451-0.507-0.631-0.157-0.157-0.517-0.416-0.585-0.405-0.597 0.113-0.777 0.697-1.057 1.159-0.158 0.259-0.315 0.473-0.439 0.743-0.112 0.247-0.101 0.529-0.293 0.743-0.184 0.203-0.326 0.448-0.412 0.717l-0.004 0.014c-0.023 0.056-0.067 0.619-0.124 0.753l0.878-0.056c0.821 0.057 0.585 0.371 1.857 0.304l2.013-0.067c-0.057-0.187-0.117-0.344-0.189-0.495l0.009 0.022zM13.975 1.031h-11.949c-0.001 0-0.001 0-0.002 0-1.111 0-2.012 0.901-2.012 2.012 0 0 0 0.001 0 0.001v-0 4.389c0.293-0.101 0.697-0.72 0.833-0.867 0.225-0.259 0.27-0.596 0.383-0.799 0.259-0.473 0.303-0.81 0.889-0.81 0.27 0 0.383 0.067 0.563 0.315 0.124 0.169 0.349 0.495 0.45 0.709 0.124 0.247 0.315 0.573 0.405 0.641 0.067 0.045 0.123 0.090 0.18 0.113 0.090 0.033 0.169-0.034 0.236-0.079 0.079-0.067 0.113-0.191 0.191-0.371 0.113-0.259 0.225-0.551 0.293-0.664 0.113-0.18 0.157-0.405 0.281-0.507 0.18-0.157 0.427-0.169 0.495-0.18 0.371-0.079 0.54 0.18 0.72 0.338 0.124 0.112 0.281 0.326 0.405 0.607 0.090 0.225 0.203 0.44 0.259 0.563 0.045 0.123 0.158 0.327 0.225 0.573 0.067 0.214 0.225 0.383 0.293 0.495 0 0 0.101 0.27 0.687 0.518 0.142 0.062 0.321 0.127 0.505 0.182l0.035 0.009c0.259 0.090 0.506 0.079 0.821 0.045 0.225 0 0.349-0.327 0.451-0.585 0.056-0.157 0.123-0.596 0.157-0.72s-0.057-0.213 0.023-0.327c0.090-0.123 0.146-0.135 0.191-0.292 0.113-0.349 0.743-0.36 1.103-0.36 0.304 0 0.259 0.293 0.765 0.191 0.293-0.057 0.573 0.033 0.878 0.123 0.259 0.068 0.507 0.147 0.653 0.315 0.090 0.113 0.326 0.664 0.090 0.687 0.022 0.022 0.045 0.079 0.079 0.101-0.057 0.214-0.281 0.057-0.417 0.034-0.169-0.033-0.293 0-0.461 0.079-0.293 0.124-0.709 0.113-0.967 0.327-0.213 0.18-0.213 0.573-0.315 0.799 0 0-0.281 0.709-0.877 1.147-0.158 0.113-0.461 0.383-1.114 0.484-0.293 0.045-0.573 0.045-0.878 0.033-0.146-0.011-0.292-0.011-0.439-0.011-0.090 0-0.383-0.011-0.371 0.023l-0.033 0.079c0.002 0.041 0.010 0.079 0.023 0.115l-0.001-0.003c0.011 0.067 0.011 0.123 0.023 0.18 0 0.123-0.011 0.259 0 0.383 0.011 0.259 0.113 0.495 0.124 0.765 0.011 0.293 0.157 0.608 0.303 0.844 0.057 0.090 0.135 0.101 0.169 0.213 0.045 0.124 0 0.271 0.022 0.405 0.079 0.529 0.237 1.091 0.473 1.575v0.011c0.292-0.045 0.596-0.157 0.979-0.213 0.709-0.102 1.687-0.057 2.317-0.113 1.598-0.146 2.465 0.653 3.893 0.327v-11.837c-0.008-1.113-0.912-2.012-2.025-2.014h-0zM8.011 10.482c0-0.023 0-0.023 0 0zM3.702 12.327c0.113-0.247 0.18-0.518 0.27-0.765 0.090-0.236 0.225-0.573 0.461-0.697-0.033-0.033-0.495-0.045-0.619-0.057-0.135-0.011-0.271-0.033-0.405-0.056-0.355-0.063-0.613-0.117-0.869-0.178l0.104 0.021c-0.147-0.034-0.653-0.214-0.753-0.259-0.259-0.112-0.428-0.439-0.619-0.405-0.123 0.023-0.247 0.067-0.327 0.191-0.067 0.101-0.089 0.281-0.135 0.405-0.056 0.135-0.147 0.27-0.213 0.405-0.158 0.236-0.417 0.45-0.529 0.687-0.022 0.056-0.033 0.112-0.056 0.169v2.711c0.135 0.023 0.27 0.045 0.416 0.090 1.125 0.304 1.395 0.327 2.498 0.203l0.101-0.011c0.079-0.18 0.147-0.776 0.203-0.956 0.045-0.147 0.101-0.259 0.124-0.394s0-0.27-0.011-0.393c-0.023-0.327 0.236-0.44 0.36-0.709z"></path>
</svg>
