<!-- Generated by IcoMoon.io -->
<svg version="1.1" xmlns="http://www.w3.org/2000/svg" width="16" height="16" viewBox="0 0 16 16">
<title>octave</title>
<path fill="#0790c0" d="M6.995 0.005c-1.608-0.060-3.103 0.477-4.188 1.656-0.867 0.942-1.349 2.17-1.483 3.516h-0.28c-0.575 0-1.043 0.468-1.043 1.043v3.16c0 0.575 0.468 1.043 1.043 1.043h1.393c0.487 0.937 1.057 1.744 1.719 2.465l-0.007-0.008c2.972 3.23 7.127 4.021 9.701 2.009h1.4c0.385 0 0.7-0.315 0.7-0.7v-1.909c-0.002-0.171-0.067-0.327-0.172-0.446l0.001 0.001c0.571-2.287-0.030-5.091-1.679-7.474 0.001-0.011 0.007-0.021 0.007-0.033v-1.341c-0.001-0.3-0.244-0.543-0.544-0.545h-1.135c-1.673-1.527-3.621-2.368-5.432-2.436zM8.16 1.457c1.187-0.006 2.459 0.414 3.615 1.233-0.060 0.082-0.097 0.184-0.1 0.295l-0 0.001v1.341c0 0.299 0.245 0.546 0.544 0.546h1.343c0.097-0.003 0.187-0.031 0.264-0.079l-0.002 0.001c1.497 2.2 1.822 4.878 0.826 6.783h-1.309c-0.385 0-0.701 0.316-0.701 0.7v1.195c-1.993 0.867-4.667 0.148-6.638-1.993-0.377-0.412-0.718-0.87-1.011-1.359l-0.021-0.039c0.171-0.186 0.277-0.431 0.277-0.703v-3.16c0-0.575-0.468-1.043-1.043-1.043h-0.273c0.158-0.909 0.52-1.74 1.124-2.396 0.816-0.887 1.919-1.319 3.105-1.324zM12.219 2.797h1.343c0.108 0 0.189 0.081 0.189 0.189v1.341c0 0.109-0.080 0.19-0.189 0.19h-1.343c-0.001 0-0.002 0-0.003 0-0.103 0-0.187-0.084-0.187-0.187 0-0.001 0-0.002 0-0.004v0-1.341c-0-0.001-0-0.002-0-0.003 0-0.103 0.084-0.187 0.187-0.187 0.001 0 0.002 0 0.004 0h-0zM1.043 5.532h3.16c0.385 0 0.688 0.303 0.688 0.687v3.16c0 0.384-0.303 0.688-0.687 0.688h-3.16c-0.002 0-0.004 0-0.007 0-0.377 0-0.682-0.305-0.682-0.682 0-0.002 0-0.004 0-0.006v0-3.16c0-0.384 0.303-0.687 0.688-0.688zM13.34 11.934h1.909c0.194 0 0.347 0.151 0.347 0.345v1.909c0 0.001 0 0.003 0 0.004 0 0.189-0.153 0.341-0.341 0.341-0.002 0-0.004-0-0.006-0h-1.908c-0.002 0-0.003 0-0.005 0-0.188 0-0.34-0.152-0.34-0.34 0-0.002 0-0.004 0-0.006v0-1.908c-0-0.002-0-0.004-0-0.006 0-0.188 0.152-0.34 0.34-0.34 0.002 0 0.004 0 0.006 0h-0z"></path>
</svg>
