<!-- Generated by IcoMoon.io -->
<svg version="1.1" xmlns="http://www.w3.org/2000/svg" width="16" height="16" viewBox="0 0 16 16">
<title>octopusdeploy</title>
<path fill="#2f93e0" d="M1.453 12.141c1.203-0.775 2.619-2.108 2.081-3.673-0.291-0.855-0.697-1.586-0.751-2.508-0.006-0.101-0.010-0.22-0.010-0.339 0-0.707 0.13-1.383 0.366-2.006l-0.013 0.039c1.080-2.893 4.291-4.265 7.194-3.394 2.687 0.811 4.539 3.929 3.413 6.649-0.643 1.571-0.93 2.782 0.503 4.004 0.388 0.331 1.333 0.827 1.328 1.415 0 0.775-1.513-0.163-1.681-0.297 0.191 0.335 2.092 2.325 0.883 2.459-1.113 0.129-2.098-1.426-2.767-2.095-1.124-1.121-0.93 1.361-0.935 1.873 0 0.808-0.579 2.451-1.607 1.381-0.847-0.881-0.517-2.289-1.116-3.27-0.645-1.075-1.72 1.075-1.989 1.467-0.3 0.44-1.809 2.563-2.397 1.431-0.483-0.92 0.289-2.359 0.671-3.19-0.139 0.302-1.123 0.749-1.41 0.893-0.533 0.299-1.169 0.475-1.847 0.475-0.067 0-0.134-0.002-0.2-0.005l0.009 0c-1.511-0.109-0.351-0.912 0.258-1.307z"></path>
</svg>
