<!-- Generated by IcoMoon.io -->
<svg version="1.1" xmlns="http://www.w3.org/2000/svg" width="16" height="16" viewBox="0 0 16 16">
<title>oculus</title>
<path d="M12.090 9.299c-0.213 0.147-0.45 0.237-0.705 0.277s-0.507 0.033-0.761 0.033h-5.249c-0.255 0-0.508 0.009-0.763-0.033-0.254-0.042-0.489-0.13-0.705-0.277-0.429-0.301-0.685-0.78-0.685-1.301 0-0.531 0.258-1.010 0.686-1.3 0.209-0.15 0.449-0.239 0.699-0.28s0.5-0.041 0.761-0.041h5.25c0.25 0 0.51-0.009 0.76 0.031s0.49 0.129 0.701 0.27c0.43 0.289 0.68 0.78 0.68 1.299s-0.261 1-0.69 1.3zM14.206 4.263c-0.563-0.452-1.208-0.764-1.91-0.932-0.4-0.097-0.802-0.141-1.215-0.153-0.299-0.010-0.599-0.007-0.909-0.007h-4.332c-0.305 0-0.61-0.003-0.915 0.007-0.412 0.014-0.815 0.055-1.217 0.153-0.701 0.169-1.35 0.482-1.91 0.933-1.139 0.91-1.799 2.283-1.799 3.736 0 1.455 0.66 2.827 1.793 3.737 0.564 0.452 1.21 0.764 1.91 0.933 0.402 0.097 0.804 0.141 1.215 0.153 0.3 0.011 0.6 0.008 0.91 0.008h4.331c0.299 0 0.609 0.003 0.909-0.008 0.41-0.012 0.81-0.055 1.209-0.153 0.7-0.171 1.341-0.482 1.911-0.935 1.152-0.909 1.812-2.283 1.812-3.736s-0.66-2.827-1.794-3.737z"></path>
</svg>
