<!-- Generated by IcoMoon.io -->
<svg version="1.1" xmlns="http://www.w3.org/2000/svg" width="16" height="16" viewBox="0 0 16 16">
<title>odnoklassniki</title>
<path fill="#f4731c" d="M9.67 11.627c0.85-0.193 1.662-0.529 2.4-0.993 0.556-0.372 0.705-1.124 0.333-1.68-0.357-0.535-1.069-0.696-1.623-0.369-1.7 1.063-3.86 1.063-5.56 0-0.565-0.356-1.31-0.187-1.667 0.377 0 0.001 0 0.003-0.001 0.003-0.356 0.565-0.187 1.311 0.378 1.667l0.001 0.001c0.737 0.463 1.548 0.8 2.397 0.992l-2.31 2.31c-0.471 0.463-0.48 1.22-0.019 1.691l0.020 0.020c0.229 0.236 0.54 0.353 0.849 0.353s0.62-0.117 0.85-0.353l2.281-2.269 2.269 2.271c0.48 0.463 1.247 0.451 1.711-0.030 0.452-0.469 0.452-1.212 0-1.68zM8 8.259c2.28-0.003 4.127-1.849 4.13-4.129 0-2.277-1.853-4.13-4.13-4.13s-4.13 1.853-4.13 4.131c0.003 2.28 1.851 4.127 4.13 4.127zM8 2.421c0.944 0.001 1.709 0.767 1.709 1.71s-0.765 1.709-1.709 1.71c-0.943-0.001-1.708-0.765-1.71-1.709 0.001-0.945 0.767-1.709 1.71-1.711z"></path>
</svg>
