<!-- Generated by IcoMoon.io -->
<svg version="1.1" xmlns="http://www.w3.org/2000/svg" width="16" height="16" viewBox="0 0 16 16">
<title>opencollective</title>
<path fill="#7fadf2" d="M14.573 3.447c0.895 1.27 1.431 2.849 1.431 4.553s-0.536 3.284-1.448 4.579l0.017-0.025-2.067-2.067c0.405-0.717 0.644-1.574 0.644-2.487s-0.239-1.77-0.658-2.512l0.013 0.026zM12.553 1.427l-2.067 2.067c-0.715-0.401-1.569-0.637-2.478-0.637-2.839 0-5.14 2.301-5.14 5.14s2.301 5.14 5.14 5.14c0.909 0 1.763-0.236 2.504-0.65l-0.026 0.013 2.067 2.073c-1.272 0.891-2.851 1.423-4.555 1.423-4.418 0-8-3.582-8-8s3.582-8 8-8c1.704 0 3.283 0.533 4.581 1.44l-0.026-0.017zM14.573 3.447c0.895 1.27 1.431 2.849 1.431 4.553s-0.536 3.284-1.448 4.579l0.017-0.025-2.067-2.067c0.405-0.717 0.644-1.574 0.644-2.487s-0.239-1.77-0.658-2.512l0.013 0.026z"></path>
</svg>
