<!-- Generated by IcoMoon.io -->
<svg version="1.1" xmlns="http://www.w3.org/2000/svg" width="16" height="16" viewBox="0 0 16 16">
<title>openstreetmap</title>
<path fill="#7ebc6f" d="M1.781 15.979c-0.235-0.059-0.356-0.156-0.981-0.779-0.744-0.742-0.791-0.815-0.789-1.201 0-0.43-0.131-0.276 2.245-2.657 2.4-2.405 2.277-2.301 2.709-2.299 0.201 0 0.252 0.011 0.413 0.093l0.185 0.093 1.163-1.163-0.145-0.229c-0.283-0.441-0.55-1.086-0.671-1.619-0.078-0.335-0.123-0.72-0.123-1.116 0-1.206 0.418-2.314 1.117-3.188l-0.008 0.010c1.66-2.080 4.639-2.541 6.84-1.059 1.208 0.812 1.993 2.066 2.219 3.543 0.047 0.311 0.047 1.053 0 1.383-0.158 1.159-0.691 2.172-1.469 2.934l-0.001 0.001c-0.364 0.378-0.793 0.691-1.269 0.922l-0.027 0.012c-0.639 0.322-1.183 0.473-1.921 0.535-1.049 0.087-2.213-0.203-3.104-0.775l-0.229-0.145-1.163 1.163 0.093 0.187c0.083 0.161 0.093 0.211 0.093 0.411 0.002 0.434 0.104 0.311-2.284 2.699-1.841 1.837-2.124 2.109-2.265 2.174-0.181 0.083-0.46 0.114-0.631 0.070zM11.657 9.3c1.36-0.26 2.473-1.133 3.057-2.315l0.011-0.025c0.927-1.933 0.303-4.204-1.485-5.405-0.425-0.287-1.019-0.529-1.578-0.641-0.387-0.078-1.206-0.069-1.609 0.017-0.622 0.132-1.17 0.379-1.648 0.718l0.014-0.009c-0.296 0.21-0.785 0.699-0.991 0.991-0.496 0.687-0.794 1.547-0.794 2.475 0 1.073 0.397 2.052 1.051 2.801l-0.004-0.005c0.653 0.749 1.556 1.266 2.577 1.421l0.024 0.003c0.339 0.052 1.028 0.039 1.375-0.026zM9.165 14.217c-0.872-0.236-1.361-0.384-1.846-0.54l0.382 0.105c-0.017-0.019 0.805-2.931 0.838-2.966 0.015-0.017 2.828 0.768 2.943 0.824 0.041 0.017-0.002 0.192-0.35 1.401 0.328-1.382 0.183-0.884 0.039-0.385l-0.463 1.876c-0.017 0.058-0.046 0.104-0.065 0.104-0.019-0.002-0.685-0.191-1.479-0.42zM11.106 14.567c0-0.035 0.818-2.889 0.831-2.898 0.031-0.023 2.883-0.82 2.894-0.807 0.013 0.013-0.799 2.891-0.82 2.907-0.013 0.013-2.751 0.794-2.839 0.812-0.036 0.007-0.065 0-0.065-0.013zM6.369 13.293c0.564-0.568 1.066-1.085 1.116-1.152 0.114-0.145 0.27-0.488 0.315-0.677 0.017-0.079 0.035-0.235 0.039-0.348l0.007-0.205 0.121-0.034c0.069-0.019 0.129-0.029 0.135-0.023 0.015 0.017-0.805 2.881-0.831 2.907-0.013 0.011-0.451 0.142-0.976 0.291l-0.95 0.27zM11.895 11.253c-0.014-0.034-0.028-0.076-0.038-0.118l-0.001-0.006-0.029-0.104 0.104-0.019c0.893-0.151 1.851-0.571 2.605-1.142 0.107-0.083 0.168-0.114 0.177-0.089 0.036 0.11 0.181 0.633 0.177 0.639-0.023 0.023-2.987 0.855-2.994 0.839zM1.84 10.386c-0.033-0.026-0.786-2.577-0.843-2.86-0.011-0.056 0.097-0.029 1.449 0.357 1.414 0.403 1.461 0.419 1.481 0.493 0.019 0.065 0.007 0.086-0.083 0.149-0.056 0.039-0.513 0.483-1.015 0.986-0.302 0.306-0.604 0.603-0.91 0.896l-0.016 0.015c-0.011 0-0.037-0.017-0.063-0.037zM2.387 7.467c-0.792-0.229-1.443-0.415-1.445-0.417-0.011-0.008 0.841-2.955 0.857-2.973 0.015-0.015 2.948 0.807 2.979 0.835 0.006 0.006-0.179 0.678-0.412 1.493-0.384 1.347-0.429 1.483-0.482 1.48-0.033-0.002-0.706-0.19-1.497-0.417zM4.36 7.826c0.008-0.021 0.141-0.482 0.296-1.023l0.28-0.984 0.037 0.214c0.062 0.371 0.177 0.792 0.309 1.161 0.071 0.197 0.125 0.359 0.121 0.363-0.005 0.004-0.221 0.067-0.479 0.141-0.259 0.073-0.494 0.14-0.524 0.149-0.039 0.011-0.050 0.004-0.040-0.022zM3.27 4.075c-0.791-0.226-1.445-0.423-1.453-0.436-0.027-0.041-0.831-2.881-0.82-2.892 0.017-0.017 2.873 0.803 2.901 0.831 0.031 0.034 0.853 2.919 0.831 2.917zM4.702 2.933l-0.346-1.204-0.052-0.187 1.129-0.322c0.623-0.177 1.149-0.33 1.173-0.339 0.023-0.011-0.055 0.093-0.173 0.224-0.597 0.656-1.049 1.456-1.296 2.34l-0.010 0.041c-0.033 0.102-0.064 0.228-0.086 0.357l-0.002 0.017c0 0.195-0.077-0.017-0.337-0.928z"></path>
</svg>
