<!-- Generated by IcoMoon.io -->
<svg version="1.1" xmlns="http://www.w3.org/2000/svg" width="16" height="16" viewBox="0 0 16 16">
<title>openapiinitiative</title>
<path fill="#6ba539" d="M14.026 0c-1.089 0-1.972 0.883-1.972 1.973 0 0.319 0.076 0.621 0.211 0.888l-0.005-0.011-4.298 4.298c-0.256-0.13-0.558-0.206-0.878-0.206-1.090 0-1.973 0.883-1.973 1.973s0.883 1.973 1.973 1.973c1.090 0 1.973-0.883 1.973-1.973 0-0.319-0.076-0.621-0.211-0.888l0.005 0.011 4.298-4.298c0.255 0.129 0.557 0.205 0.876 0.205 1.089 0 1.973-0.883 1.973-1.973s-0.883-1.972-1.972-1.973h-0zM7.085 1.83c-0.048 0-0.095 0.002-0.143 0.003s-0.095 0.001-0.143 0.003c-0.298 0.012-0.595 0.043-0.89 0.092l-0.020 0.003-0.123 0.022-0.070 0.013c-0.098 0.019-0.163 0.033-0.228 0.048l0.035-0.007-0.021 0.005c-0.644 0.153-1.211 0.37-1.738 0.652l0.038-0.019-0.103 0.059c-0.042 0.023-0.083 0.047-0.125 0.070-0.031 0.018-0.062 0.034-0.093 0.053h-0.001l-0.007 0.003-0.024 0.013v0.001l0.074 0.123 2.1 3.487c0.068-0.042 0.151-0.087 0.237-0.127l0.017-0.007c0.317-0.155 0.687-0.254 1.078-0.275l0.007-0c0.047-0.003 0.095-0.005 0.143-0.005zM7.371 1.837v4.222c0.217 0.023 0.431 0.069 0.64 0.139l3.107-3.107c-0.115-0.080-0.232-0.158-0.352-0.231l-0.017-0.010c-0.037-0.023-0.075-0.045-0.112-0.067l-0.065-0.037-0.066-0.037c0.006 0.001-0.031-0.019-0.069-0.039l-0.045-0.022-0.018-0.009c-0.262-0.141-0.576-0.28-0.901-0.396l-0.049-0.015c-0.46-0.161-0.935-0.273-1.419-0.337l-0.059-0.008-0.060-0.007c-0.017-0.003-0.056-0.007-0.095-0.011l-0.187-0.016c-0.043-0.004-0.102-0.007-0.162-0.010l-0.008-0c-0.021-0.002-0.041-0.002-0.062-0.003zM3.188 2.999c-0.34 0.222-0.636 0.455-0.911 0.712l0.004-0.004 2.986 2.986c0.033-0.027 0.065-0.052 0.099-0.077l-0.007-0.012zM2.075 3.905c-0.033 0.033-0.065 0.069-0.098 0.103l-0.099 0.103c-0.22 0.238-0.42 0.487-0.601 0.745l-0.026 0.037c-0.034 0.047-0.081 0.118-0.127 0.189l-0.017 0.028c-0.644 0.998-1.047 2.205-1.1 3.503l-0 0.014-0.004 0.143-0.002 0.143h4.211c0-0.048 0.005-0.095 0.007-0.143 0.003-0.048 0.004-0.096 0.009-0.143 0.054-0.548 0.266-1.083 0.635-1.533 0.030-0.037 0.064-0.071 0.096-0.107 0.032-0.035 0.062-0.071 0.096-0.105zM12.911 4.881l-3.109 3.109c0.071 0.208 0.117 0.423 0.14 0.639h4.221l-0.003-0.063c-0.006-0.125-0.014-0.23-0.024-0.335l0.002 0.030-0.003-0.035c-0.009-0.092-0.015-0.147-0.021-0.202l0.004 0.042v-0.006l-0.022-0.16v-0.006c-0.056-0.383-0.132-0.719-0.231-1.045l0.013 0.050-0.002-0.007c-0.035-0.126-0.051-0.176-0.068-0.227l0.021 0.075-0.007-0.020c-0.035-0.112-0.050-0.157-0.066-0.202l0.020 0.066-0.013-0.037c-0.039-0.117-0.074-0.207-0.111-0.294l0.009 0.024c-0.033-0.086-0.053-0.135-0.075-0.185l0.013 0.034c-0.042-0.103-0.056-0.134-0.070-0.166l0.028 0.070-0.025-0.054c-0.041-0.094-0.059-0.131-0.077-0.169l0.024 0.055-0.016-0.035-0.064-0.129-0.009-0.018c-0.044-0.088-0.069-0.134-0.094-0.18l0.019 0.039-0.003-0.005c-0.14-0.257-0.274-0.471-0.418-0.676l0.015 0.023zM9.958 8.915c0 0.047-0.004 0.095-0.007 0.143s-0.003 0.095-0.008 0.143c-0.059 0.589-0.289 1.115-0.639 1.539l0.004-0.005c-0.030 0.037-0.064 0.071-0.096 0.107s-0.062 0.072-0.096 0.106l2.978 2.978c0.034-0.034 0.066-0.069 0.099-0.103s0.067-0.069 0.099-0.103c0.221-0.239 0.422-0.489 0.603-0.748l0.021-0.031 0.065-0.096 0.057-0.087 0.027-0.042c0.643-0.997 1.045-2.204 1.098-3.501l0-0.014c0.002-0.047 0.003-0.095 0.004-0.143s0.003-0.095 0.003-0.143zM0.007 9.2l0.003 0.062 0.007 0.119 0.003 0.051 0.011 0.137 0.003 0.031c0.005 0.051 0.010 0.102 0.016 0.152l0.002 0.015c0.010 0.088 0.018 0.144 0.026 0.201l-0.004-0.035c0.048 0.337 0.121 0.67 0.218 0.998l0.001 0.004c0.015 0.051 0.031 0.103 0.047 0.153l0.003 0.009 0.003 0.009c0.055 0.172 0.090 0.269 0.126 0.365l-0.024-0.072 0.020 0.053 0.039 0.099c0.032 0.085 0.053 0.135 0.075 0.185l-0.013-0.033 0.041 0.093 0.025 0.056 0.052 0.113 0.018 0.036c0.066 0.14 0.116 0.236 0.169 0.331l-0.019-0.037 0.017 0.029 3.619-2.18c-0.134-0.275-0.227-0.594-0.262-0.93l-0.001-0.012h-0.017zM0.343 11.097l-0.137 0.039 0.001 0.003zM4.627 10.396l-3.61 2.175c0.055 0.093 0.113 0.182 0.173 0.271l0.005 0.009 0.003 0.003 0.005 0.009h0.001c0.005 0.008 0.009 0.015 0.015 0.021l0.001 0.001v0.001c0.079 0.116 0.144 0.207 0.212 0.296l-0.013-0.018 0.004 0.005c0.074 0.098 0.137 0.178 0.202 0.256l-0.009-0.011 0.022 0.027c0.029 0.035 0.057 0.069 0.087 0.102l0.038 0.043 0.075 0.085 0.043 0.046 0.019 0.021 0.055 0.060 0.023 0.023c0.033 0.034 0.065 0.069 0.099 0.102l2.977-2.977c-0.066-0.066-0.128-0.136-0.186-0.209l-0.004-0.005c-0.081-0.099-0.159-0.209-0.229-0.324l-0.007-0.013zM8.904 11.137c-0.033 0.027-0.067 0.053-0.1 0.077l0.007 0.012 2.171 3.605c0.101-0.066 0.2-0.133 0.297-0.205 0.21-0.155 0.413-0.323 0.609-0.504l-2.973-2.973zM5.266 11.139l-2.983 2.983c0.038 0.036 0.080 0.074 0.123 0.112l0.007 0.006c0.015 0.013 0.029 0.027 0.043 0.039l0.101 0.087c0.035 0.029 0.082 0.067 0.129 0.105l0.015 0.011 0.015 0.011 0.127 0.099 0.005 0.003c0.179 0.133 0.365 0.259 0.556 0.376l0.020 0.012 0.109 0.065 0.067 0.038c0.041 0.025 0.1 0.058 0.16 0.089l0.020 0.010c0.005 0.003 0.011 0.007 0.017 0.009 0.108 0.057 0.218 0.109 0.329 0.16l0.105-0.257 1.501-3.645c-0.178-0.096-0.331-0.199-0.472-0.315l0.005 0.004zM8.567 11.374c-0.041 0.025-0.083 0.047-0.125 0.069-0.394 0.216-0.863 0.343-1.362 0.343-0.292 0-0.573-0.043-0.839-0.124l0.020 0.005c-0.046-0.013-0.090-0.031-0.135-0.047s-0.091-0.029-0.135-0.048l-1.603 3.894 0.011 0.005c0.003 0.002 0.008 0.003 0.012 0.005l0.001 0 0.003 0.002c0.035 0.014 0.071 0.027 0.106 0.040 0.045 0.018 0.089 0.035 0.133 0.051l0.068 0.027c0.468 0.165 0.953 0.28 1.445 0.345l0.058 0.008 0.175 0.019c0.036 0.004 0.094 0.010 0.153 0.014l0.015 0.001c0.015 0.001 0.032 0.001 0.047 0.002l0.123 0.007 0.075 0.003c0.063 0.003 0.137 0.005 0.211 0.005 0.010 0 0.019-0 0.029-0h0.032c0.002 0 0.004 0 0.007 0 0.42 0 0.831-0.036 1.231-0.106l-0.043 0.006 0.123-0.023 0.070-0.013 0.073-0.015 0.12-0.027 0.021-0.005c0.644-0.152 1.211-0.37 1.738-0.652l-0.038 0.019c0.035-0.019 0.069-0.040 0.104-0.059 0.042-0.023 0.083-0.047 0.125-0.070 0.029-0.016 0.058-0.031 0.087-0.049h0.001l0.001-0.001 0.003-0.001 0.005-0.003 0.028-0.017-0.073-0.122-0.073-0.123zM10.741 14.983l-0.028 0.017zM10.708 15.003h-0.001z"></path>
</svg>
