<!-- Generated by IcoMoon.io -->
<svg version="1.1" xmlns="http://www.w3.org/2000/svg" width="16" height="16" viewBox="0 0 16 16">
<title>opensuse</title>
<path fill="#73ba25" d="M14.34 5.405c-0.008-0-0.017-0.001-0.026-0.001-0.173 0-0.329 0.067-0.446 0.177l0-0c-0.128 0.121-0.207 0.292-0.207 0.481 0 0.356 0.281 0.646 0.633 0.661l0.001 0c0.007 0 0.015 0 0.022 0 0.356 0 0.647-0.282 0.66-0.635l0-0.001c0-0.006 0-0.014 0-0.022 0-0.357-0.283-0.648-0.636-0.661l-0.001-0zM14.448 6.126c-0.161 0-0.292-0.087-0.292-0.195 0-0.109 0.131-0.195 0.292-0.195s0.293 0.087 0.293 0.195c0 0.107-0.131 0.195-0.293 0.195zM15.985 6.913c0.005-0.004 0.016-0.013 0.015-0.023-0.037-0.229-0.377-1.336-0.635-1.603-0.071-0.073-0.127-0.144-0.243-0.211-0.932-0.543-3.142-0.871-3.246-0.885 0 0-0.010-0.003-0.017 0.005-0.006 0.005-0.007 0.016-0.007 0.016l-0.010 0.509c-0.226-0.076-1.867-0.607-3.405-0.66-1.304-0.045-3.204-0.214-5.723 1.335l-0.074 0.047c-1.185 0.738-2.003 1.649-2.43 2.707-0.134 0.333-0.315 1.085-0.136 1.792 0.077 0.309 0.221 0.62 0.414 0.898 0.437 0.629 1.171 1.045 1.962 1.116 1.116 0.1 1.961-0.401 2.261-1.34 0.207-0.647 0-1.598-0.792-2.083-0.645-0.394-1.337-0.305-1.739-0.039-0.349 0.231-0.546 0.591-0.543 0.985 0.008 0.7 0.611 1.072 1.045 1.073 0.126 0 0.252-0.022 0.395-0.069 0.058-0.017 0.108-0.040 0.154-0.068l-0.003 0.002 0.017-0.010 0.010-0.007-0.003 0.002c0.096-0.065 0.158-0.173 0.158-0.296 0-0.034-0.005-0.067-0.014-0.098l0.001 0.003c-0.044-0.15-0.18-0.258-0.342-0.258-0.023 0-0.046 0.002-0.069 0.007l0.002-0-0.024 0.005-0.033 0.010-0.048 0.017c-0.1 0.025-0.175 0.027-0.191 0.027-0.051-0.003-0.3-0.078-0.3-0.351v-0.003c0-0.101 0.040-0.171 0.062-0.209 0.078-0.122 0.29-0.241 0.577-0.217 0.377 0.033 0.649 0.227 0.829 0.591 0.167 0.339 0.123 0.756-0.113 1.061-0.233 0.303-0.651 0.431-1.206 0.371-0.567-0.061-1.042-0.4-1.293-0.876l-0.004-0.009c-0.259-0.49-0.273-1.071-0.037-1.517 0.567-1.069 1.637-1.058 2.223-0.957 0.868 0.151 1.856 0.951 2.206 1.876 0.057 0.147 0.085 0.264 0.111 0.371l0.038 0.16 0.98 0.479c0.021 0.010 0.029 0.013 0.037 0.007 0.011-0.007 0.005-0.028 0.005-0.028-0.007-0.022-0.020-0.042-0.043-0.317-0.018-0.243-0.056-0.91 0.28-1.24 0.13-0.13 0.328-0.245 0.485-0.282 0.643-0.157 1.396-0.049 2.109 0.776 0.369 0.427 0.549 0.62 0.639 0.707 0 0 0.020 0.020 0.031 0.029 0.012 0.010 0.020 0.018 0.037 0.027 0.030 0.017 1.225 0.567 1.225 0.567s0.015 0.007 0.025-0.005c0.011-0.013 0.001-0.025 0.001-0.025-0.008-0.009-0.758-0.979-0.625-1.777 0.105-0.636 0.611-0.578 1.311-0.499 0.229 0.027 0.489 0.057 0.758 0.063 0.751 0.005 1.561-0.134 2.060-0.353 0.323-0.14 0.529-0.233 0.659-0.351 0.047-0.039 0.071-0.101 0.095-0.169l0.018-0.044c0.021-0.055 0.051-0.169 0.065-0.232 0.006-0.028 0.012-0.055-0.011-0.073-0.021-0.016-0.069 0.013-0.069 0.013-0.219 0.132-0.767 0.382-1.279 0.393-0.636 0.013-1.925-0.644-2.058-0.713-0.089-0.213-0.179-0.426-0.269-0.638 0.922 0.607 1.687 0.943 2.272 0.995 0.651 0.059 1.16-0.297 1.38-0.445 0.029-0.019 0.057-0.040 0.084-0.061zM13.37 6.039c0.009-0.253 0.115-0.487 0.3-0.659 0.168-0.157 0.395-0.254 0.644-0.254 0.012 0 0.024 0 0.036 0.001l-0.002-0c0.509 0.019 0.914 0.436 0.914 0.948 0 0.011-0 0.022-0.001 0.032l0-0.002c-0.010 0.253-0.116 0.487-0.3 0.658-0.185 0.173-0.425 0.263-0.679 0.254-0.508-0.020-0.912-0.437-0.912-0.949 0-0.011 0-0.021 0.001-0.032l-0 0.002z"></path>
</svg>
