<!-- Generated by IcoMoon.io -->
<svg version="1.1" xmlns="http://www.w3.org/2000/svg" width="16" height="16" viewBox="0 0 16 16">
<title>openaccess</title>
<path fill="#f68212" d="M12.648 8.991c-0.115-0.271-0.236-0.499-0.372-0.716l0.012 0.021v-4.019c0-0.003 0-0.006 0-0.010 0-1.178-0.479-2.244-1.253-3.014l-0-0c-0.77-0.774-1.836-1.253-3.014-1.253-0.004 0-0.007 0-0.011 0h-0.001c-0.003-0-0.008-0-0.012-0-1.177 0-2.243 0.479-3.012 1.252l-0 0c-0.774 0.77-1.253 1.836-1.253 3.014 0 0.004 0 0.008 0 0.012v-0.001 0.585h1.713v-0.585c0-0.685 0.267-1.329 0.751-1.813 0.462-0.464 1.1-0.751 1.806-0.751 0.003 0 0.005 0 0.008 0h-0c1.415 0.002 2.562 1.149 2.565 2.564v2.339c-0.733-0.443-1.618-0.705-2.564-0.705-0.004 0-0.007 0-0.011 0h0.001c-0.002 0-0.005 0-0.007 0-1.391 0-2.649 0.565-3.559 1.477l-0 0c-0.913 0.91-1.478 2.169-1.478 3.56 0 0.002 0 0.005 0 0.007v-0c0 0.002 0 0.005 0 0.007 0 1.391 0.565 2.649 1.477 3.559l0 0c0.91 0.914 2.17 1.48 3.562 1.48 0.002 0 0.004 0 0.006 0h-0c0.002 0 0.005 0 0.007 0 1.391 0 2.649-0.565 3.559-1.477l0-0c0.913-0.91 1.478-2.169 1.478-3.56 0-0.003 0-0.005 0-0.008v0c0-0.681-0.133-1.341-0.397-1.965zM8 14.287c-1.837 0-3.331-1.495-3.331-3.331s1.495-3.331 3.331-3.331 3.331 1.494 3.331 3.331-1.495 3.331-3.331 3.331zM9.43 10.971c0 0.781-0.633 1.413-1.413 1.413s-1.413-0.633-1.413-1.413v0c0-0.781 0.633-1.413 1.413-1.413s1.413 0.633 1.413 1.413v0z"></path>
</svg>
