<!-- Generated by IcoMoon.io -->
<svg version="1.1" xmlns="http://www.w3.org/2000/svg" width="16" height="16" viewBox="0 0 16 16">
<title>opensourceinitiative</title>
<path fill="#3da639" d="M-0.068 8.353c0.075-4.383 3.143-7.502 6.9-8.007 4.479-0.6 8.247 2.447 8.971 6.49 0.687 3.833-1.42 7.422-4.893 8.842-0.3 0.123-0.465 0.055-0.58-0.249l-1.725-4.485c-0.1-0.261-0.032-0.427 0.227-0.543 0.78-0.355 1.267-0.949 1.397-1.8 0.018-0.107 0.027-0.23 0.027-0.355 0-1.204-0.923-2.193-2.1-2.298l-0.009-0.001c-0.066-0.007-0.143-0.011-0.221-0.011-1.144 0-2.094 0.832-2.277 1.924l-0.002 0.014c-0.169 1.065 0.357 2.056 1.351 2.507 0.309 0.143 0.371 0.279 0.251 0.595l-1.733 4.515c-0.083 0.223-0.267 0.3-0.5 0.21-1.849-0.737-3.322-2.088-4.199-3.795l-0.021-0.045c-0.804-1.589-0.813-2.831-0.865-3.508zM0.607 8.292c0.013 0.213 0.020 0.461 0.042 0.713 0.203 2.32 1.6 4.631 4.227 5.908 0.104 0.049 0.143 0.027 0.181-0.073q0.721-1.893 1.452-3.787c0.042-0.107 0.020-0.154-0.077-0.215-1.020-0.642-1.527-1.565-1.471-2.775 0.032-0.697 0.3-1.307 0.768-1.817 0.968-1.055 2.485-1.285 3.727-0.568 0.891 0.521 1.48 1.473 1.48 2.562 0 0.125-0.008 0.249-0.023 0.37l0.001-0.014c-0.116 0.987-0.623 1.739-1.475 2.252-0.087 0.052-0.113 0.093-0.073 0.193q0.735 1.898 1.458 3.799c0.039 0.1 0.077 0.123 0.18 0.073 1.147-0.535 2.105-1.3 2.843-2.323 1.123-1.555 1.585-3.288 1.365-5.195-0.442-3.791-3.853-6.931-8.245-6.389-3.423 0.42-6.302 3.307-6.36 7.287z"></path>
</svg>
