<!-- Generated by IcoMoon.io -->
<svg version="1.1" xmlns="http://www.w3.org/2000/svg" width="16" height="16" viewBox="0 0 16 16">
<title>openvpn</title>
<path fill="#ea7e20" d="M8 0.243c-4.41 0-8 3.555-8 7.93 0 2.907 1.572 5.436 3.931 6.803l0.513-3.384c-0.758-0.827-1.224-1.931-1.231-3.145v-0.001c0-2.598 2.12-4.717 4.753-4.717 2.632 0 4.751 2.119 4.751 4.717 0 1.231-0.478 2.325-1.231 3.18l0.513 3.385c2.393-1.367 4-3.933 4-6.839 0-4.375-3.59-7.93-8-7.93zM7.967 5.681c-0.002 0-0.004-0-0.007-0-1.394 0-2.524 1.13-2.524 2.524 0 0.002 0 0.004 0 0.006v-0c-0 0.005-0 0.012-0 0.018 0 1.071 0.675 1.984 1.623 2.336l0.017 0.006-0.99 5.196h3.76l-0.957-5.197c0.923-0.376 1.607-1.265 1.607-2.359 0-0.002 0-0.004 0-0.006 0-1.394-1.13-2.524-2.524-2.524-0.002 0-0.004 0-0.006 0h0z"></path>
</svg>
