<!-- Generated by IcoMoon.io -->
<svg version="1.1" xmlns="http://www.w3.org/2000/svg" width="16" height="16" viewBox="0 0 16 16">
<title>openssl</title>
<path fill="#721412" d="M1.307 9.021c-0.202 0-0.383-0.035-0.545-0.105s-0.299-0.167-0.411-0.291-0.199-0.272-0.259-0.443c-0.061-0.171-0.092-0.355-0.092-0.555s0.031-0.384 0.091-0.555 0.147-0.318 0.259-0.443c0.113-0.125 0.249-0.222 0.411-0.292s0.344-0.105 0.545-0.105c0.202 0 0.383 0.035 0.545 0.105s0.299 0.167 0.411 0.291 0.199 0.272 0.259 0.443 0.091 0.355 0.091 0.555-0.031 0.384-0.091 0.555c-0.061 0.171-0.147 0.318-0.259 0.443s-0.249 0.222-0.411 0.291c-0.162 0.070-0.343 0.105-0.545 0.105zM1.307 8.726c0.157 0 0.295-0.028 0.415-0.084s0.221-0.133 0.303-0.23 0.144-0.213 0.185-0.347c0.041-0.135 0.061-0.28 0.061-0.437s-0.021-0.303-0.061-0.437c-0.041-0.135-0.103-0.251-0.185-0.349s-0.183-0.175-0.303-0.231-0.257-0.083-0.415-0.083c-0.157 0-0.295 0.028-0.415 0.084s-0.221 0.133-0.303 0.231c-0.082 0.099-0.144 0.215-0.185 0.349s-0.061 0.28-0.061 0.437c0 0.157 0.021 0.303 0.061 0.437s0.103 0.25 0.185 0.347 0.183 0.174 0.303 0.23c0.12 0.055 0.258 0.083 0.415 0.083zM2.97 7.034h0.303v0.273h0.007c0.072-0.099 0.158-0.177 0.258-0.233s0.221-0.084 0.363-0.084c0.122 0 0.234 0.023 0.336 0.069s0.189 0.112 0.261 0.198 0.129 0.193 0.17 0.319c0.041 0.127 0.061 0.27 0.061 0.429 0 0.155-0.019 0.295-0.058 0.42s-0.094 0.233-0.166 0.321-0.161 0.156-0.265 0.203-0.222 0.071-0.351 0.071c-0.132 0-0.247-0.021-0.344-0.063s-0.185-0.116-0.265-0.221h-0.007v1.038h-0.303zM3.867 8.767c0.092 0 0.173-0.019 0.243-0.058s0.127-0.091 0.174-0.159c0.046-0.067 0.080-0.147 0.103-0.239s0.033-0.193 0.033-0.303c0-0.107-0.011-0.207-0.033-0.301s-0.057-0.174-0.103-0.243-0.103-0.122-0.172-0.161-0.149-0.058-0.241-0.058c-0.105 0-0.196 0.020-0.275 0.060s-0.143 0.095-0.193 0.165-0.087 0.151-0.112 0.243-0.037 0.191-0.037 0.295 0.011 0.203 0.033 0.295c0.023 0.092 0.058 0.173 0.107 0.241s0.111 0.123 0.189 0.163c0.077 0.039 0.172 0.059 0.284 0.059zM5.891 9.017c-0.147 0-0.278-0.027-0.394-0.080s-0.213-0.127-0.293-0.219-0.141-0.2-0.183-0.323-0.063-0.255-0.063-0.394 0.022-0.271 0.065-0.394 0.106-0.231 0.187-0.323c0.081-0.092 0.177-0.165 0.289-0.219s0.237-0.080 0.373-0.080c0.145 0 0.272 0.027 0.383 0.080s0.203 0.128 0.278 0.224 0.131 0.211 0.17 0.344 0.058 0.279 0.058 0.439h-1.493c0.005 0.097 0.023 0.188 0.052 0.273s0.071 0.158 0.123 0.221c0.052 0.062 0.116 0.111 0.191 0.146s0.161 0.052 0.258 0.052c0.142 0 0.258-0.033 0.347-0.099s0.152-0.165 0.187-0.297h0.295c-0.045 0.209-0.139 0.37-0.284 0.482s-0.327 0.167-0.545 0.167zM5.873 7.225c-0.089 0-0.169 0.015-0.239 0.047s-0.129 0.075-0.177 0.131-0.089 0.122-0.119 0.198c-0.031 0.076-0.052 0.157-0.061 0.245h1.162c-0.010-0.194-0.063-0.346-0.159-0.456s-0.232-0.164-0.406-0.164zM7.413 7.288h0.007c0.070-0.092 0.154-0.165 0.252-0.219s0.219-0.080 0.361-0.080c0.202 0 0.361 0.053 0.476 0.159s0.174 0.259 0.174 0.461v1.356h-0.303v-1.33c0-0.127-0.039-0.224-0.116-0.291s-0.184-0.101-0.321-0.101c-0.077 0-0.148 0.013-0.213 0.039s-0.121 0.062-0.168 0.109c-0.047 0.046-0.084 0.102-0.11 0.168s-0.039 0.139-0.039 0.219v1.188h-0.303v-1.931h0.303zM10.273 9.020c-0.366 0-0.648-0.077-0.847-0.231s-0.304-0.374-0.313-0.659h0.533c0.020 0.163 0.077 0.279 0.173 0.347s0.239 0.103 0.432 0.103c0.070 0 0.137-0.006 0.199-0.019s0.118-0.033 0.165-0.060 0.086-0.063 0.115-0.107 0.043-0.097 0.043-0.16c0-0.065-0.016-0.119-0.047-0.161s-0.076-0.078-0.133-0.107c-0.057-0.029-0.127-0.054-0.209-0.075s-0.173-0.043-0.276-0.066c-0.12-0.027-0.236-0.058-0.347-0.092s-0.209-0.079-0.293-0.137c-0.084-0.057-0.151-0.131-0.203-0.221s-0.077-0.205-0.077-0.345c0-0.133 0.025-0.249 0.077-0.349s0.123-0.184 0.214-0.252c0.091-0.067 0.2-0.119 0.325-0.152s0.263-0.051 0.413-0.051c0.303 0 0.547 0.071 0.731 0.214s0.286 0.351 0.306 0.623h-0.522c-0.015-0.135-0.070-0.237-0.165-0.304s-0.213-0.101-0.353-0.101c-0.148 0-0.265 0.029-0.353 0.087s-0.131 0.134-0.131 0.229c0 0.055 0.012 0.101 0.036 0.137s0.060 0.068 0.109 0.096c0.049 0.027 0.109 0.051 0.182 0.071s0.159 0.041 0.259 0.064c0.138 0.030 0.267 0.063 0.389 0.099s0.228 0.085 0.319 0.145 0.163 0.137 0.216 0.229 0.079 0.212 0.079 0.357c0 0.135-0.026 0.256-0.079 0.363s-0.125 0.195-0.218 0.267-0.203 0.126-0.331 0.163c-0.127 0.037-0.266 0.057-0.417 0.057zM12.779 9.020c-0.366 0-0.648-0.077-0.847-0.231s-0.304-0.374-0.313-0.659h0.533c0.020 0.163 0.077 0.279 0.173 0.347s0.239 0.103 0.432 0.103c0.070 0 0.137-0.006 0.199-0.019s0.118-0.033 0.165-0.060 0.086-0.063 0.115-0.107 0.043-0.097 0.043-0.16c0-0.065-0.016-0.119-0.047-0.161s-0.076-0.078-0.133-0.107c-0.057-0.029-0.127-0.054-0.209-0.075s-0.173-0.043-0.276-0.066c-0.12-0.027-0.236-0.058-0.347-0.092s-0.209-0.079-0.293-0.137c-0.084-0.057-0.151-0.131-0.203-0.221s-0.077-0.205-0.077-0.345c0-0.133 0.025-0.249 0.077-0.349s0.123-0.184 0.214-0.252c0.091-0.067 0.2-0.119 0.325-0.152s0.263-0.051 0.413-0.051c0.303 0 0.547 0.071 0.731 0.214s0.286 0.351 0.306 0.623h-0.522c-0.015-0.135-0.070-0.237-0.165-0.304s-0.213-0.101-0.353-0.101c-0.148 0-0.265 0.029-0.353 0.087s-0.131 0.134-0.131 0.229c0 0.055 0.012 0.101 0.036 0.137s0.060 0.068 0.109 0.096c0.049 0.027 0.109 0.051 0.182 0.071s0.159 0.041 0.259 0.064c0.138 0.030 0.267 0.063 0.389 0.099s0.228 0.085 0.319 0.145 0.163 0.137 0.216 0.229 0.079 0.212 0.079 0.357c0 0.135-0.026 0.256-0.079 0.363s-0.125 0.195-0.218 0.267-0.203 0.126-0.331 0.163c-0.127 0.037-0.267 0.057-0.417 0.057zM14.193 6.273h0.545v2.231h1.262v0.455h-1.807z"></path>
</svg>
