<!-- Generated by IcoMoon.io -->
<svg version="1.1" xmlns="http://www.w3.org/2000/svg" width="16" height="16" viewBox="0 0 16 16">
<title>opera</title>
<path fill="#ff1b2d" d="M5.367 3.492c-0.885 1.044-1.457 2.589-1.497 4.32v0.376c0.041 1.732 0.612 3.275 1.497 4.319 1.147 1.491 2.853 2.436 4.759 2.436 1.171 0 2.267-0.358 3.205-0.981-1.412 1.268-3.282 2.037-5.331 2.037-0.128 0-0.255-0.003-0.38-0.009-4.244-0.198-7.62-3.7-7.62-7.991 0-4.419 3.582-8 8-8h0.030c2.037 0.008 3.893 0.777 5.302 2.037-0.939-0.62-2.034-0.981-3.207-0.981-1.905 0-3.611 0.947-4.76 2.436zM16 8c0 2.371-1.030 4.499-2.668 5.963-2.052 1-3.964 0.301-4.597-0.137 2.015-0.443 3.538-2.88 3.538-5.827 0-2.948-1.522-5.383-3.538-5.827 0.633-0.436 2.545-1.135 4.597-0.137 1.638 1.463 2.668 3.593 2.668 5.963z"></path>
</svg>
