<!-- Generated by IcoMoon.io -->
<svg version="1.1" xmlns="http://www.w3.org/2000/svg" width="16" height="16" viewBox="0 0 16 16">
<title>opsgenie</title>
<path d="M8.001 0c0.015-0 0.033-0 0.052-0 2.205 0 3.992 1.787 3.992 3.992s-1.787 3.992-3.992 3.992c-0.018 0-0.036-0-0.054-0l0.003 0c-2.182-0.029-3.94-1.805-3.94-3.992s1.758-3.963 3.938-3.992l0.003-0zM14.483 8.684h-0.020l-3.018-1.495c-0.057-0.029-0.125-0.045-0.196-0.045-0.165 0-0.309 0.089-0.386 0.222l-0.001 0.002c-0.806 1.335-1.758 2.481-2.857 3.466l-0.014 0.012c-1.107-0.995-2.054-2.136-2.82-3.4l-0.037-0.067c-0.079-0.135-0.223-0.225-0.388-0.225-0.071 0-0.139 0.017-0.199 0.046l0.003-0.001-3.023 1.484h-0.020c-0.133 0.079-0.221 0.222-0.221 0.386 0 0.079 0.021 0.153 0.057 0.218l-0.001-0.002c0.879 1.504 1.883 2.803 3.034 3.956l-0-0-0.001 0.001c0.016 0.017 0.033 0.032 0.050 0.048 0.223 0.223 0.451 0.443 0.685 0.654 0.054 0.049 0.11 0.096 0.165 0.145 0.21 0.185 0.421 0.37 0.64 0.547 0.096 0.078 0.197 0.151 0.294 0.227 0.185 0.144 0.368 0.289 0.558 0.426 0.293 0.212 0.592 0.417 0.897 0.611 0.098 0.063 0.217 0.101 0.345 0.101 0.12 0 0.233-0.033 0.329-0.091l-0.003 0.002c0.325-0.208 0.641-0.427 0.952-0.653 0.045-0.033 0.088-0.069 0.133-0.102 0.239-0.177 0.475-0.358 0.707-0.547 0.156-0.127 0.307-0.26 0.459-0.392 0.113-0.098 0.227-0.194 0.337-0.295 0.197-0.179 0.387-0.363 0.576-0.55 0.041-0.040 0.085-0.079 0.125-0.119l-0.003-0.001c1.154-1.156 2.162-2.457 2.994-3.875l0.049-0.091c0.033-0.061 0.052-0.133 0.052-0.21 0-0.168-0.092-0.314-0.229-0.391l-0.002-0.001z"></path>
</svg>
