<!-- Generated by IcoMoon.io -->
<svg version="1.1" xmlns="http://www.w3.org/2000/svg" width="16" height="16" viewBox="0 0 16 16">
<title>oracle</title>
<path fill="#f80000" d="M10.941 2.941h-5.88c-0.001 0-0.002 0-0.003 0-2.794 0-5.059 2.265-5.059 5.059s2.263 5.057 5.056 5.059h5.885c2.794 0 5.059-2.265 5.059-5.059s-2.265-5.059-5.059-5.059v0zM10.813 11.276h-5.622c-1.781-0.037-3.211-1.49-3.211-3.276s1.43-3.239 3.207-3.276l0.003-0h5.622c1.809 0 3.276 1.467 3.276 3.276s-1.467 3.276-3.276 3.276v0z"></path>
</svg>
