<!-- Generated by IcoMoon.io -->
<svg version="1.1" xmlns="http://www.w3.org/2000/svg" width="16" height="16" viewBox="0 0 16 16">
<title>orcid</title>
<path fill="#a6ce39" d="M8 0c-4.419 0-8 3.581-8 8s3.581 8 8 8 8-3.581 8-8-3.581-8-8-8zM4.913 2.919c0.35 0 0.631 0.287 0.631 0.631s-0.281 0.631-0.631 0.631c-0.348-0.001-0.63-0.283-0.631-0.631v-0c0-0.35 0.281-0.631 0.631-0.631zM4.431 4.944h0.963v6.694h-0.963zM6.806 4.944h2.6c2.475 0 3.563 1.769 3.563 3.35 0 1.719-1.344 3.35-3.55 3.35h-2.613zM7.769 5.813v4.963h1.531c2.181 0 2.681-1.656 2.681-2.481 0-1.344-0.856-2.481-2.731-2.481z"></path>
</svg>
