<!-- Generated by IcoMoon.io -->
<svg version="1.1" xmlns="http://www.w3.org/2000/svg" width="16" height="16" viewBox="0 0 16 16">
<title>origin</title>
<path fill="#f56c2d" d="M8.392 2.073c0.793 0.047 1.568 0.256 2.278 0.613 0.687 0.343 1.3 0.817 1.804 1.396 0.501 0.577 0.881 1.235 1.143 1.975 0.261 0.739 0.365 1.519 0.309 2.335-0.022 0.424-0.090 0.835-0.204 1.232-0.111 0.392-0.262 0.773-0.449 1.135-0.293 0.566-0.619 1.101-0.98 1.608-0.359 0.506-0.75 0.977-1.175 1.412s-0.875 0.836-1.355 1.201c-0.479 0.363-0.981 0.692-1.503 0.986l-0.025 0.017c-0.022 0.012-0.047 0.017-0.073 0.015-0.042-0.010-0.079-0.032-0.106-0.065s-0.042-0.074-0.041-0.115c0-0.019 0.003-0.039 0.008-0.057 0.005-0.015 0.014-0.029 0.025-0.041 0.185-0.262 0.337-0.537 0.457-0.823 0.121-0.289 0.202-0.59 0.245-0.906 0-0.021-0.010-0.043-0.025-0.057-0.014-0.017-0.035-0.025-0.057-0.025-0.176 0.021-0.352 0.035-0.53 0.041s-0.355-0.002-0.531-0.025c-0.793-0.047-1.569-0.257-2.279-0.612-0.687-0.343-1.299-0.817-1.803-1.397-0.503-0.58-0.891-1.25-1.143-1.975-0.263-0.749-0.368-1.543-0.31-2.335 0.022-0.424 0.090-0.835 0.204-1.232 0.114-0.399 0.264-0.77 0.45-1.12 0.293-0.576 0.621-1.117 0.979-1.624 0.359-0.505 0.75-0.976 1.174-1.412 0.426-0.435 0.876-0.835 1.355-1.2 0.48-0.364 0.98-0.693 1.502-0.986l0.025-0.017c0.022-0.013 0.047-0.018 0.073-0.017 0.043 0.011 0.079 0.034 0.105 0.065 0.029 0.034 0.041 0.071 0.041 0.116 0.001 0.018-0.002 0.038-0.008 0.056-0.005 0.015-0.013 0.029-0.024 0.041-0.182 0.257-0.337 0.534-0.458 0.825-0.121 0.289-0.2 0.59-0.244 0.905 0 0.022 0.008 0.042 0.024 0.057 0.015 0.016 0.036 0.025 0.057 0.025 0.175-0.022 0.351-0.035 0.53-0.041 0.181-0.006 0.357 0.002 0.532 0.023zM7.854 10.318c0.615 0.053 1.225-0.154 1.681-0.57 0.48-0.426 0.739-0.959 0.784-1.6 0.052-0.619-0.155-1.231-0.571-1.69-0.401-0.472-0.981-0.754-1.6-0.775-0.618-0.052-1.23 0.155-1.689 0.57-0.473 0.401-0.755 0.982-0.776 1.6-0.052 0.617 0.152 1.228 0.564 1.69 0.419 0.483 0.955 0.743 1.607 0.775z"></path>
</svg>
