<!-- Generated by IcoMoon.io -->
<svg version="1.1" xmlns="http://www.w3.org/2000/svg" width="16" height="16" viewBox="0 0 16 16">
<title>osmc</title>
<path d="M15.179 8.001c0 3.957-3.219 7.179-7.179 7.179-3.957-0.003-7.175-3.222-7.175-7.179 0-3.96 3.219-7.178 7.179-7.178 3.956 0 7.175 3.219 7.175 7.178zM15.373 4.886c-0.423-0.989-1.001-1.832-1.713-2.542l-0-0c-0.71-0.712-1.554-1.29-2.49-1.693l-0.052-0.020c-0.913-0.399-1.976-0.631-3.094-0.631-0.007 0-0.015 0-0.022 0h0.001c-0.006-0-0.013-0-0.020-0-2.203 0-4.197 0.896-5.637 2.344l-0 0c-0.712 0.71-1.29 1.554-1.694 2.491l-0.020 0.052c-0.42 0.987-0.631 2.033-0.631 3.115s0.211 2.128 0.628 3.115c0.423 0.989 1.001 1.832 1.713 2.542l0 0c1.444 1.446 3.44 2.341 5.645 2.341 0.004 0 0.009 0 0.013-0h-0.001c1.079 0 2.127-0.213 3.115-0.628 0.989-0.423 1.832-1.001 2.542-1.713l0-0c1.446-1.444 2.341-3.44 2.341-5.645 0-0.004 0-0.009-0-0.013v0.001c0-1.082-0.207-2.127-0.625-3.115zM5.711 9.754v-3.579l1.716 1.789zM4.885 4.197v7.615l5.411-5.637v4.511c0 0.229 0.186 0.412 0.411 0.412 0.229 0 0.415-0.186 0.415-0.415v0-6.493l-3.118 3.18z"></path>
</svg>
