<!-- Generated by IcoMoon.io -->
<svg version="1.1" xmlns="http://www.w3.org/2000/svg" width="16" height="16" viewBox="0 0 16 16">
<title>overcast</title>
<path fill="#fc7e0f" d="M8 16c-4.407 0.012-7.989-3.553-8-7.959v-0.041c0-4.433 3.567-8 8-8s8 3.567 8 8c0 4.433-3.567 8-8 8zM8 12.833l0.6-0.599-0.6-2.3-0.6 2.3zM7.233 12.799l-0.3 1.134 0.7-0.701zM8.767 12.799l-0.4 0.401 0.7 0.701zM9.333 14.867l-1.333-1.334-1.333 1.334c0.433 0.067 0.867 0.133 1.333 0.133s0.9-0.033 1.333-0.133zM8 1c-3.866 0-7 3.134-7 7-0.005 2.979 1.883 5.631 4.701 6.599l1.5-5.567c-0.341-0.248-0.539-0.645-0.534-1.067 0-0.734 0.6-1.334 1.333-1.334s1.333 0.6 1.333 1.334c0 0.433-0.201 0.8-0.534 1.067l1.5 5.567c2.818-0.969 4.707-3.621 4.701-6.599 0-3.866-3.134-7-7-7zM12.567 11.467c-0.17 0.213-0.476 0.257-0.699 0.1-0.209-0.138-0.267-0.419-0.129-0.627 0.009-0.014 0.019-0.027 0.029-0.040 0 0 0.9-1.199 0.9-2.9s-0.9-2.9-0.9-2.9c-0.159-0.193-0.132-0.479 0.061-0.638 0.013-0.011 0.026-0.021 0.040-0.029 0.223-0.157 0.529-0.113 0.699 0.1 0.067 0.067 1.1 1.433 1.1 3.467s-1.035 3.401-1.101 3.468zM10.133 10.167c-0.2-0.2-0.166-0.567 0.034-0.767 0 0 0.5-0.533 0.5-1.4s-0.5-1.367-0.5-1.4c-0.2-0.201-0.2-0.534-0.034-0.767 0.155-0.202 0.444-0.238 0.646-0.083 0.019 0.015 0.037 0.031 0.055 0.049 0.034 0.034 0.833 0.867 0.833 2.201s-0.799 2.167-0.833 2.201c-0.201 0.199-0.5 0.167-0.701-0.034zM5.867 10.167c-0.201 0.201-0.5 0.233-0.701 0.034-0.034-0.068-0.833-0.867-0.833-2.201s0.799-2.133 0.833-2.201c0.201-0.199 0.534-0.199 0.701 0.034 0.2 0.2 0.166 0.567-0.034 0.767 0 0.033-0.5 0.533-0.5 1.4s0.5 1.4 0.5 1.4c0.2 0.2 0.234 0.533 0.034 0.767zM4.133 11.567c-0.223 0.156-0.529 0.113-0.7-0.1-0.065-0.067-1.099-1.434-1.099-3.467s1.034-3.4 1.099-3.467c0.171-0.213 0.477-0.257 0.7-0.1 0.209 0.137 0.267 0.419 0.129 0.627-0.009 0.013-0.019 0.027-0.029 0.039 0 0-0.9 1.199-0.9 2.9s0.9 2.9 0.9 2.9c0.167 0.2 0.1 0.5-0.101 0.667z"></path>
</svg>
