<!-- Generated by IcoMoon.io -->
<svg version="1.1" xmlns="http://www.w3.org/2000/svg" width="16" height="16" viewBox="0 0 16 16">
<title>overleaf</title>
<path fill="#47a141" d="M4.908 4.019c-2.212 1.335-3.693 3.686-3.796 6.39l-0 0.014c0.002 3.079 2.499 5.574 5.579 5.574 3.081 0 5.579-2.498 5.579-5.579 0-2.365-1.472-4.386-3.549-5.198l-0.038-0.013c-0.571-0.237-1.234-0.375-1.929-0.375-0.018 0-0.036 0-0.054 0l0.003-0c-1.2 0.819-2.155 1.914-2.785 3.198l-0.021 0.048c0.677-0.803 1.683-1.31 2.808-1.31 2.024 0 3.664 1.64 3.664 3.664s-1.64 3.664-3.664 3.664c-0.004 0-0.009 0-0.013-0h0.001c-0.002 0-0.004 0-0.007 0-1.114 0-2.112-0.497-2.784-1.282l-0.004-0.005c-0.698-0.776-1.125-1.807-1.125-2.938 0-0.272 0.025-0.539 0.072-0.797l-0.004 0.027c0.715-4.28 5.843-6.745 9.639-7.702-1.962 0.951-3.62 1.921-5.195 3.003l0.134-0.087c4.589 1.771 5.326-2.091 7.471-3.819-2.135-0.836-9.969-1.144-9.98 3.521z"></path>
</svg>
