<!-- Generated by IcoMoon.io -->
<svg version="1.1" xmlns="http://www.w3.org/2000/svg" width="16" height="16" viewBox="0 0 16 16">
<title>palantir</title>
<path d="M13.431 12l-5.431 2.119-5.431-2.119-0.902 1.562 6.333 2.438 6.333-2.438zM8 0c-3.498 0-6.333 2.836-6.333 6.333s2.836 6.333 6.333 6.333v0c3.498 0 6.333-2.836 6.333-6.333s-2.836-6.333-6.333-6.333v0zM8 10.719c-2.418 0-4.379-1.96-4.379-4.379s1.96-4.379 4.379-4.379v0c2.418 0 4.379 1.96 4.379 4.379s-1.96 4.379-4.379 4.379v0z"></path>
</svg>
