<!-- Generated by IcoMoon.io -->
<svg version="1.1" xmlns="http://www.w3.org/2000/svg" width="16" height="16" viewBox="0 0 16 16">
<title>paloaltosoftware</title>
<path fill="#83da77" d="M1.051 9.632l5.315-5.408c0.412-0.41 0.981-0.664 1.608-0.664s1.196 0.254 1.608 0.664l5.361 5.361 0.56-0.56c0.606-0.559 0.606-1.491 0.047-2.097l-6.481-6.433c-0.607-0.607-1.539-0.607-2.145 0l-6.433 6.433c-0.607 0.606-0.607 1.538 0 2.144zM9.069 4.783c-0.607-0.607-1.539-0.607-2.145 0l-6.433 6.433c-0.607 0.607-0.607 1.539 0 2.145l2.144 2.145c0.607 0.606 1.539 0.606 2.145 0l3.217-3.217 3.217 3.217c0.606 0.606 1.538 0.606 2.144 0l2.145-2.145c0.607-0.559 0.607-1.539 0.047-2.145z"></path>
</svg>
