<!-- Generated by IcoMoon.io -->
<svg version="1.1" xmlns="http://www.w3.org/2000/svg" width="16" height="16" viewBox="0 0 16 16">
<title>pantheon</title>
<path fill="#efd01b" d="M4.839 0l1.47 3.447h-1.871l0.619 1.517h3.793zM4.726 5.315c-0.21 0-0.325 0-0.419 0.304-0.114 0.363-0.127 1.047-0.127 2.381s0.013 2.018 0.127 2.381c0.095 0.304 0.209 0.304 0.419 0.304h2.39l-1.183-2.802h1.059l-0.594-1.4h0.285l0.595 1.401h1.263l-1.091-2.569zM6.991 7.883l0.001 0.001 0.002-0.001zM7.717 5.315l0.495 1.168h2.117c0.046 0 0.153-0.057 0.153-0.585s-0.107-0.584-0.153-0.584zM8.312 6.715l0.495 1.168h1.755c0.047 0 0.153-0.057 0.153-0.585s-0.107-0.584-0.153-0.584zM6.313 8.117l1.239 2.918h-2.205l4.077 4.966-1.47-3.448h1.871l-0.626-1.517h-0.868l-1.24-2.918zM7.376 8.117l0.495 1.168h2.692c0.047 0 0.153-0.057 0.153-0.584s-0.107-0.585-0.154-0.585zM7.969 9.517l0.497 1.167h1.865c0.046 0 0.153-0.057 0.153-0.584s-0.109-0.584-0.154-0.584zM11.333 9.857c-0.069 0-0.135 0.015-0.194 0.041l0.006-0.003c-0.115 0.051-0.206 0.14-0.256 0.252l-0.001 0.003-0.001 0.003c-0.024 0.054-0.039 0.117-0.039 0.184 0 0.001 0 0.002 0 0.003v-0 0.005c0 0.067 0.014 0.131 0.040 0.189l-0.001-0.003c0.051 0.115 0.14 0.206 0.252 0.256l0.003 0.001 0.003 0.001c0.056 0.025 0.121 0.039 0.189 0.039 0.069 0 0.135-0.015 0.195-0.042l-0.003 0.001-0.003 0.001c0.115-0.051 0.206-0.14 0.256-0.252l0.001-0.003 0.001-0.003c0.025-0.056 0.039-0.121 0.039-0.189 0-0.069-0.015-0.135-0.042-0.195l0.001 0.003 0.001 0.003c-0.051-0.115-0.14-0.206-0.252-0.256l-0.003-0.001-0.003-0.001c-0.055-0.024-0.119-0.039-0.187-0.039-0.001 0-0.001 0-0.002 0h0zM11.335 9.943c0.056 0 0.109 0.011 0.158 0.033l-0.003-0.001c0.095 0.041 0.17 0.115 0.211 0.207l0.001 0.003 0.001 0.003c0.020 0.046 0.032 0.099 0.032 0.155 0 0.057-0.012 0.112-0.034 0.161l0.001-0.002 0.001-0.003c-0.041 0.095-0.115 0.17-0.207 0.211l-0.003 0.001-0.003 0.001c-0.046 0.020-0.099 0.032-0.155 0.032-0.057 0-0.112-0.012-0.161-0.034l0.002 0.001 0.003 0.001c-0.095-0.041-0.17-0.115-0.211-0.207l-0.001-0.003-0.001-0.003c-0.020-0.045-0.031-0.097-0.031-0.152 0-0.001 0-0.001 0-0.002v0-0.003h0.001v-0.003c0-0.055 0.011-0.107 0.032-0.154l-0.001 0.003c0.041-0.095 0.115-0.17 0.207-0.211l0.003-0.001 0.003-0.001c0.045-0.020 0.098-0.031 0.153-0.031 0.001 0 0.001 0 0.002 0h-0zM11.383 10.061h-0.004l-0.018 0.001h-0.213l-0.001 0.001v0.555h0.102v-0.227h0.075l0.138 0.227h0.107l-0.143-0.235c0.037-0.003 0.070-0.019 0.095-0.043l-0 0c0.024-0.026 0.038-0.061 0.038-0.099v-0l-0.001-0.012v-0.009c-0-0.045-0.018-0.085-0.048-0.114l-0-0c-0.035-0.026-0.078-0.042-0.126-0.043h-0zM11.249 10.152h0.122c0.016 0.001 0.031 0.004 0.044 0.010l-0.001-0h-0.001c0.013 0.005 0.023 0.013 0.031 0.023 0.007 0.012 0.012 0.027 0.012 0.043s-0.004 0.031-0.012 0.043l0-0v-0.001c-0.008 0.010-0.018 0.018-0.030 0.023l-0.001 0h-0.001c-0.012 0.005-0.027 0.009-0.042 0.009l-0 0h-0.123z"></path>
</svg>
