<!-- Generated by IcoMoon.io -->
<svg version="1.1" xmlns="http://www.w3.org/2000/svg" width="16" height="16" viewBox="0 0 16 16">
<title>parse-dot-ly</title>
<path fill="#5ba745" d="M6.415 12.754c0-0.043 0-0.082-0.015-0.127-0.069-0.494-0.25-0.966-0.531-1.38-0.179-0.227-0.385-0.431-0.613-0.608-0.067-0.052-0.126-0.027-0.129 0.055l-0.058 0.854c0 0.082-0.098 0.085-0.123 0l-0.381-1.201c-0.017-0.043-0.044-0.083-0.077-0.117s-0.073-0.060-0.117-0.078c-0.255-0.087-0.515-0.157-0.779-0.21-0.35-0.061-0.856-0.094-0.856-0.094-0.086 0-0.113 0.051-0.065 0.119l0.521 0.939c0.049 0.070 0 0.137-0.073 0.082l-1.135-0.912c-0.106-0.069-0.225-0.115-0.349-0.135s-0.252-0.016-0.375 0.014c-0.251 0.039-0.613 0.115-0.613 0.115-0.039 0.009-0.075 0.031-0.098 0.064-0.025 0.031-0.037 0.070-0.034 0.109 0 0 0.027 0.365 0.058 0.608 0.003 0.124 0.033 0.246 0.085 0.358s0.128 0.213 0.221 0.295l1.181 0.836c0.073 0.049 0.021 0.121-0.058 0.091l-1.052-0.234c-0.080-0.031-0.126 0-0.101 0.091 0 0 0.175 0.474 0.328 0.787 0.13 0.245 0.277 0.481 0.442 0.705 0.029 0.037 0.065 0.067 0.107 0.089s0.086 0.037 0.133 0.042l1.27 0.031c0.083 0 0.104 0.094 0.027 0.119l-0.813 0.304c-0.080 0.024-0.086 0.085-0.019 0.137 0.238 0.168 0.495 0.307 0.767 0.413 0.48 0.154 0.989 0.197 1.488 0.125 0.371-0.052 0.737-0.139 1.092-0.259-0.013-0.101-0.021-0.202-0.021-0.304 0.001-0.325 0.071-0.647 0.205-0.944s0.329-0.563 0.572-0.782zM15.478 10.259c0.001-0.039-0.011-0.078-0.034-0.109-0.024-0.033-0.059-0.055-0.098-0.064 0 0-0.362-0.076-0.613-0.113-0.122-0.030-0.249-0.035-0.373-0.015s-0.243 0.066-0.348 0.133l-1.135 0.912c-0.067 0.055-0.123 0-0.073-0.082l0.519-0.939c0.052-0.067 0.025-0.121-0.061-0.119 0 0-0.506 0.033-0.856 0.094-0.264 0.053-0.525 0.123-0.779 0.21-0.043 0.018-0.083 0.045-0.117 0.078s-0.059 0.073-0.077 0.117l-0.381 1.197c-0.025 0.079-0.119 0.076-0.123 0l-0.061-0.854c0-0.082-0.058-0.107-0.126-0.055-0.229 0.177-0.435 0.381-0.613 0.608-0.28 0.41-0.462 0.877-0.531 1.368 0 0.045 0 0.085 0 0.127 0.243 0.218 0.438 0.485 0.571 0.782s0.202 0.619 0.202 0.945c-0.001 0.101-0.008 0.203-0.021 0.304 0.356 0.119 0.723 0.206 1.095 0.259 0.499 0.072 1.008 0.029 1.488-0.125 0.272-0.107 0.529-0.245 0.767-0.413 0.067-0.051 0.061-0.113-0.019-0.137l-0.813-0.304c-0.077-0.024-0.055-0.115 0.027-0.119l1.267-0.031c0.047-0.004 0.093-0.018 0.135-0.040s0.078-0.053 0.107-0.091c0.151-0.219 0.287-0.447 0.408-0.684 0.157-0.304 0.331-0.787 0.331-0.787 0.025-0.079-0.021-0.121-0.101-0.091l-1.052 0.234c-0.083 0.031-0.132-0.043-0.061-0.091l1.19-0.836c0.093-0.083 0.169-0.183 0.221-0.295s0.082-0.234 0.085-0.358c0.031-0.252 0.058-0.608 0.058-0.608zM12.153 6.286c0-0.131-0.086-0.179-0.203-0.107l-1.227 0.663c-0.113 0.073-0.138-0.067-0.055-0.173l1.172-1.55c0.043-0.061 0.071-0.13 0.084-0.203s0.008-0.148-0.013-0.219c-0.153-0.418-0.337-0.824-0.549-1.216-0.214-0.344-0.452-0.673-0.712-0.985-0.083-0.103-0.184-0.085-0.227 0.039l-0.573 1.419c-0.043 0.125-0.151 0.121-0.147 0l0.067-2.228c-0.001-0.158-0.063-0.31-0.172-0.425 0 0-0.341-0.341-0.613-0.589s-0.782-0.644-0.782-0.644c-0.054-0.043-0.123-0.067-0.193-0.067s-0.139 0.024-0.193 0.068c0 0-0.481 0.374-0.795 0.644s-0.613 0.587-0.613 0.587c-0.111 0.111-0.176 0.258-0.184 0.413l0.070 2.228c0 0.134-0.104 0.137-0.151 0l-0.573-1.404c-0.040-0.125-0.144-0.143-0.227-0.037-0.274 0.331-0.523 0.681-0.745 1.049-0.202 0.37-0.377 0.754-0.522 1.149-0.019 0.070-0.024 0.144-0.012 0.215s0.039 0.141 0.080 0.201l1.178 1.556c0.083 0.107 0.058 0.246-0.058 0.173l-1.228-0.662c-0.113-0.073-0.208-0.025-0.205 0.106 0.010 0.43 0.080 0.857 0.209 1.267 0.29 0.743 0.753 1.407 1.353 1.939 0.788 0.806 1.427 1.743 1.887 2.769 0.468-0.15 0.971-0.15 1.439 0 0.459-1.023 1.093-1.959 1.875-2.766 0.549-0.487 0.986-1.085 1.283-1.753 0.169-0.467 0.263-0.957 0.279-1.453zM9.539 14.481c0 0.301-0.090 0.595-0.259 0.844s-0.408 0.445-0.689 0.56c-0.28 0.115-0.589 0.145-0.886 0.087s-0.571-0.203-0.785-0.416-0.361-0.483-0.42-0.778-0.029-0.6 0.087-0.878 0.313-0.515 0.565-0.682 0.549-0.256 0.852-0.256c0.407 0 0.797 0.16 1.085 0.445 0.289 0.284 0.45 0.671 0.45 1.074z"></path>
</svg>
