<!-- Generated by IcoMoon.io -->
<svg version="1.1" xmlns="http://www.w3.org/2000/svg" width="16" height="16" viewBox="0 0 16 16">
<title>password</title>
<path fill="#0094f5" d="M7.007 6.675v-1.809c0-0.204 0.165-0.369 0.369-0.369h1.274c0.204 0 0.369 0.165 0.369 0.369v3.312c0 0.051-0.025 0.089-0.051 0.127l-0.319 0.319c-0.077 0.077-0.077 0.191 0 0.255l0.319 0.319c0.038 0.038 0.051 0.077 0.051 0.127v1.809c0 0.204-0.165 0.369-0.369 0.369h-1.274c-0.204 0-0.369-0.165-0.369-0.369v-3.312c0-0.051 0.025-0.089 0.051-0.127l0.319-0.319c0.077-0.077 0.077-0.191 0-0.255l-0.319-0.319c-0.038-0.038-0.051-0.076-0.051-0.127zM12.751 8c0-2.624-2.127-4.751-4.751-4.751s-4.751 2.127-4.751 4.751 2.127 4.751 4.751 4.751 4.751-2.127 4.751-4.751zM14.255 8c0 3.452-2.803 6.242-6.242 6.242-3.452 0-6.242-2.803-6.242-6.242 0-3.452 2.803-6.242 6.242-6.242s6.242 2.79 6.242 6.242zM0.509 8c0 4.14 3.35 7.491 7.491 7.491s7.491-3.351 7.491-7.491-3.351-7.491-7.491-7.491-7.491 3.351-7.491 7.491zM0 8c0-4.421 3.579-8 8-8s8 3.579 8 8-3.579 8-8 8-8-3.579-8-8z"></path>
</svg>
