<!-- Generated by IcoMoon.io -->
<svg version="1.1" xmlns="http://www.w3.org/2000/svg" width="16" height="16" viewBox="0 0 16 16">
<title>pastebin</title>
<path fill="#02456c" d="M11.347 0c-0.003-0-0.007-0-0.010-0-0.169 0-0.331 0.030-0.481 0.085l0.010-0.003-9.116 3.253c-0.547 0.199-0.931 0.714-0.931 1.319 0 0.169 0.030 0.331 0.085 0.482l-0.003-0.010 3.549 9.944c0.199 0.546 0.714 0.93 1.319 0.93 0.169 0 0.331-0.030 0.481-0.085l-0.010 0.003 5.164-1.843c0.528-0.205 0.897-0.356 0.976-0.405 0.362-0.209 0.641-0.545 1.309-1.556 0.603-0.908 1.239-2.215 1.398-2.853 0.16-0.647 0.159-0.987-0.335-2.45h0.001l-2.098-5.88c-0.198-0.543-0.708-0.925-1.307-0.931h-0.001zM11.291 0.276c0.48-0.021 0.933 0.269 1.105 0.747l2.098 5.88 0.005-0.002c0.181 0.509 0.331 0.943 0.351 1.027 0.068 0.289-0.188 0.765-0.491 0.9-0.133 0.067-0.473 0.195-0.761 0.286-0.931 0.309-1.367 0.586-1.639 1.032-0.242 0.394-0.21 0.787 0.107 1.585 0.308 0.761 0.355 1.243 0.15 1.6-0.075 0.125-0.201 0.215-0.903 0.489l-0.001-0.003-5.164 1.843c-0.113 0.042-0.245 0.067-0.381 0.067-0.485 0-0.899-0.309-1.054-0.741l-0.002-0.008-3.549-9.944c-0.042-0.113-0.067-0.245-0.067-0.381 0-0.485 0.309-0.899 0.74-1.054l0.008-0.002 9.116-3.253c0.11-0.040 0.223-0.061 0.333-0.066zM10.6 1.5l-0.472 0.343-0.33 0.247 0.075 0.209 0.049 0.137 0.349-0.211 0.267 0.741 0.269 0.749-0.239 0.086-0.225 0.080c0.030 0.097 0.144 0.428 0.159 0.443l1.444-0.519-0.159-0.442-0.458 0.165-0.223-0.62zM8.407 2.288l-0.473 0.343-0.329 0.247 0.075 0.209 0.049 0.137 0.349-0.211 0.267 0.741 0.269 0.749-0.465 0.167c0.031 0.096 0.144 0.427 0.159 0.442l1.445-0.519-0.159-0.442-0.163 0.058-0.295 0.107-0.223-0.62zM6.056 3.191c-0.001 0-0.002 0-0.003 0-0.196 0-0.379 0.055-0.535 0.151l0.004-0.003c-0.488 0.299-0.567 0.922-0.221 1.705 0.225 0.517 0.582 0.812 0.975 0.81 0.897-0.005 1.24-0.933 0.723-1.967-0.205-0.44-0.558-0.691-0.943-0.697zM5.929 3.639c0.112-0.006 0.238 0.057 0.359 0.186 0.097 0.103 0.231 0.34 0.291 0.525 0.233 0.665 0.109 1.125-0.276 1.031-0.401-0.093-0.83-1.38-0.557-1.657 0.046-0.049 0.11-0.080 0.181-0.085l0.001-0zM3.419 4.139c-0.001 0-0.002 0-0.003 0-0.196 0-0.379 0.055-0.535 0.151l0.004-0.003c-0.488 0.299-0.567 0.921-0.221 1.705 0.225 0.518 0.582 0.812 0.975 0.81 0.896-0.005 1.24-0.932 0.723-1.967-0.205-0.44-0.559-0.691-0.943-0.697zM3.291 4.587c0.112-0.007 0.239 0.057 0.36 0.185 0.097 0.103 0.231 0.34 0.291 0.525 0.233 0.666 0.109 1.126-0.277 1.031-0.4-0.094-0.829-1.381-0.556-1.657 0.046-0.049 0.11-0.080 0.181-0.085l0.001-0zM12.199 5.023c-0.001 0-0.002 0-0.002 0-0.196 0-0.38 0.055-0.535 0.151l0.004-0.003c-0.488 0.299-0.567 0.921-0.221 1.705 0.225 0.517 0.582 0.812 0.975 0.81 0.897-0.005 1.24-0.933 0.723-1.967-0.205-0.44-0.558-0.691-0.943-0.697zM12.071 5.471c0.112-0.006 0.238 0.057 0.359 0.185 0.097 0.103 0.231 0.34 0.291 0.525 0.233 0.666 0.109 1.126-0.276 1.031-0.401-0.094-0.829-1.381-0.557-1.657 0.046-0.049 0.11-0.080 0.181-0.085l0.001-0zM9.561 5.971c-0.001 0-0.002 0-0.004 0-0.196 0-0.379 0.055-0.534 0.151l0.004-0.003c-0.487 0.299-0.565 0.922-0.221 1.705 0.225 0.517 0.582 0.812 0.975 0.81 0.896-0.005 1.24-0.932 0.723-1.967-0.205-0.44-0.559-0.691-0.944-0.697zM9.434 6.419c0.111-0.006 0.238 0.057 0.359 0.186 0.097 0.103 0.231 0.34 0.291 0.525 0.233 0.665 0.109 1.125-0.277 1.031-0.4-0.095-0.829-1.381-0.557-1.657 0.046-0.049 0.11-0.081 0.182-0.085l0.001-0zM6.937 6.914c-0.001 0-0.002 0-0.003 0-0.196 0-0.38 0.055-0.535 0.151l0.004-0.003c-0.488 0.299-0.567 0.921-0.221 1.705 0.225 0.518 0.582 0.813 0.975 0.811 0.897-0.005 1.24-0.933 0.723-1.967-0.205-0.44-0.559-0.691-0.943-0.697zM6.809 7.362c0.113-0.007 0.239 0.057 0.36 0.185 0.097 0.103 0.231 0.34 0.291 0.525 0.233 0.666 0.109 1.126-0.276 1.031-0.401-0.094-0.829-1.381-0.557-1.657 0.046-0.049 0.11-0.080 0.181-0.085l0.001-0zM4.465 7.773l-0.472 0.343-0.33 0.246 0.075 0.209 0.049 0.137 0.349-0.211 0.266 0.741 0.269 0.748-0.239 0.087-0.225 0.080c0.030 0.097 0.144 0.427 0.159 0.442l1.444-0.519-0.159-0.442-0.163 0.059-0.295 0.106-0.223-0.62zM14.908 8.659c0.023 0 0.033 0.031 0.043 0.090 0.015 0.073-0.043 0.363-0.13 0.638-0.313 0.957-1.368 2.816-2.053 3.598l-0.272 0.313 0.034-0.445c0.020-0.378-0.011-0.541-0.251-1.14-0.331-0.842-0.355-1.153-0.105-1.54 0.227-0.343 0.685-0.605 1.632-0.914 0.48-0.159 0.783-0.309 0.923-0.443 0.088-0.097 0.138-0.147 0.169-0.157 0.003-0.001 0.006-0.001 0.009-0.001 0 0 0.001 0 0.001 0h-0zM10.622 9.644l-0.472 0.343-0.33 0.247 0.075 0.209 0.049 0.137 0.349-0.211 0.267 0.741 0.269 0.749-0.239 0.086-0.225 0.080c0.030 0.097 0.144 0.428 0.159 0.443l1.444-0.519-0.159-0.441-0.163 0.058-0.295 0.107-0.223-0.62zM8.236 10.531c-0.001 0-0.002 0-0.003 0-0.196 0-0.379 0.055-0.535 0.151l0.004-0.003c-0.487 0.299-0.566 0.921-0.221 1.705 0.225 0.517 0.582 0.812 0.975 0.81 0.897-0.005 1.24-0.933 0.724-1.967-0.205-0.44-0.559-0.691-0.944-0.697zM8.109 10.979c0.112-0.006 0.239 0.057 0.36 0.186 0.096 0.103 0.231 0.34 0.291 0.525 0.233 0.665 0.109 1.125-0.277 1.031-0.4-0.094-0.829-1.381-0.557-1.657 0.046-0.049 0.11-0.080 0.181-0.085l0.001-0zM5.765 11.389l-0.473 0.343-0.329 0.247 0.075 0.209 0.049 0.137 0.349-0.211 0.267 0.741 0.269 0.748-0.24 0.087-0.225 0.080c0.030 0.097 0.144 0.428 0.159 0.443l1.444-0.519-0.159-0.442-0.458 0.165-0.223-0.62z"></path>
</svg>
