<!-- Generated by IcoMoon.io -->
<svg version="1.1" xmlns="http://www.w3.org/2000/svg" width="16" height="16" viewBox="0 0 16 16">
<title>paypal</title>
<path fill="#00457c" d="M4.605 16h-2.069c-0.443 0-0.724-0.353-0.624-0.787l0.099-0.449h1.381c0.444 0 0.891-0.355 0.988-0.788l0.709-3.061c0.1-0.432 0.544-0.787 0.987-0.787h0.589c2.526 0 4.489-0.519 5.893-1.56s2.107-2.4 2.107-4.090c0-0.75-0.13-1.37-0.392-1.859 0-0.011-0.011-0.021-0.011-0.031l0.090 0.050c0.5 0.31 0.88 0.709 1.141 1.209 0.269 0.5 0.399 1.12 0.399 1.861 0 1.69-0.699 3.049-2.109 4.090-1.4 1.030-3.37 1.549-5.889 1.549h-0.6c-0.44 0-0.889 0.35-0.989 0.791l-0.71 3.070c-0.099 0.43-0.54 0.78-0.98 0.78zM2.821 14.203h-2.070c-0.442 0-0.723-0.353-0.624-0.787l2.915-12.629c0.101-0.435 0.543-0.788 0.987-0.788h4.31c0.93 0 1.739 0.065 2.432 0.193 0.69 0.126 1.28 0.346 1.789 0.66 0.491 0.31 0.881 0.715 1.131 1.212 0.259 0.499 0.389 1.12 0.389 1.865 0 1.69-0.701 3.049-2.109 4.079-1.4 1.041-3.371 1.551-5.891 1.551h-0.589c-0.44 0-0.885 0.349-0.985 0.779l-0.707 3.059c-0.099 0.431-0.545 0.781-0.99 0.781zM7.785 2.624h-0.676c-0.444 0-0.888 0.353-0.987 0.785l-0.62 2.68c-0.1 0.432 0.18 0.786 0.62 0.786h0.511c1.109 0 1.98-0.229 2.6-0.681 0.619-0.457 0.93-1.103 0.93-1.941 0-0.553-0.201-0.963-0.6-1.227-0.4-0.269-1-0.403-1.791-0.403z"></path>
</svg>
