<!-- Generated by IcoMoon.io -->
<svg version="1.1" xmlns="http://www.w3.org/2000/svg" width="16" height="16" viewBox="0 0 16 16">
<title>periscope</title>
<path fill="#40a4c4" d="M8.090 16c1.25 0 6.209-5.626 6.209-9.397 0-3.609-2.819-6.603-6.209-6.603-3.57 0-6.389 2.992-6.389 6.603 0 3.771 4.959 9.397 6.389 9.397zM7.093 2.564c0.323-0.080 0.663-0.123 1.016-0.123 2 0 3.721 1.701 3.721 3.91 0 1.99-1.721 3.69-3.731 3.69-2.23 0-3.95-1.7-3.95-3.69 0-0.931 0.3-1.76 0.819-2.42v0.020c0 0.83 0.671 1.489 1.5 1.489 0.831 0.001 1.532-0.68 1.532-1.509 0-0.613-0.373-1.139-0.906-1.369z"></path>
</svg>
