<!-- Generated by IcoMoon.io -->
<svg version="1.1" xmlns="http://www.w3.org/2000/svg" width="16" height="16" viewBox="0 0 16 16">
<title>pi-hole</title>
<path fill="#f60d1a" d="M6.25 5.855l-2.961 2.96c-0.967 0.967-0.967 2.535 0 3.502l2.961 2.959c0.967 0.966 2.533 0.966 3.499 0l2.961-2.959c0.967-0.967 0.968-2.535 0-3.502l-2.961-2.96c-0.966-0.966-2.533-0.966-3.499 0zM7.063 4.92c-1.999-0.213-4.012-1.724-4.171-4.92 3.101 0 4.76 1.836 4.92 4.745 0.587-3.489 3.335-3.081 3.335-3.081 0.131 1.977-1.493 3.177-3.335 3.276-0.517-1.091-3.617-3.765-3.617-3.765-0.003-0.003-0.009-0.003-0.012 0.001-0.002 0.002-0.003 0.006-0.001 0.009 0 0 2.991 2.606 2.882 3.735zM7.996 11.789c-1.487 0.11-2.141 1.159-2.099 2.183-0.002-0.024-0.005-0.047-0.006-0.071-0.089-1.232 0.885-2.14 0.885-3.337-0.115-1.548-1.246-2.191-2.308-2.089 0.067-0.008 0.136-0.015 0.209-0.019 1.232-0.089 2.141 0.885 3.337 0.885 1.388-0.105 2.049-1.025 2.097-1.979 0.015 1.167-0.887 2.053-0.887 3.207 0.11 1.487 1.157 2.14 2.181 2.099-0.024 0.002-0.047 0.005-0.071 0.006-1.232 0.089-2.141-0.884-3.337-0.884z"></path>
</svg>
