<!-- Generated by IcoMoon.io -->
<svg version="1.1" xmlns="http://www.w3.org/2000/svg" width="16" height="16" viewBox="0 0 16 16">
<title>picarto-dot-tv</title>
<path fill="#1da456" d="M8 0c-4.418 0-8 3.582-8 8s3.582 8 8 8c4.419 0 8-3.582 8-8s-3.581-8-8-8zM4.72 2.788h1.854c0.155 0 0.28 0.14 0.28 0.313v9.797c0 0.173-0.125 0.313-0.28 0.313h-1.853c-0.155 0-0.28-0.14-0.28-0.313v-9.797c0-0.173 0.125-0.313 0.279-0.313zM7.829 2.788c0 0 0.001 0 0.001 0 0.080 0 0.155 0.023 0.218 0.062l-0.002-0.001c0.237 0.139 4.967 2.947 5.371 3.187 0.119 0.071 0.197 0.2 0.197 0.346s-0.078 0.275-0.195 0.345l-0.002 0.001c-0.291 0.176-5.039 2.997-5.383 3.193-0.056 0.034-0.125 0.055-0.197 0.055-0.212 0-0.385-0.172-0.385-0.385 0-0.004 0-0.008 0-0.012l-0 0.001v-1.208c0-1.141 1.975-1.467 2.265-1.643 0.119-0.071 0.198-0.2 0.198-0.347s-0.079-0.275-0.196-0.346l-0.002-0.001c-0.403-0.24-2.265-0.497-2.265-1.635v-1.207c0-0.223 0.167-0.403 0.376-0.405z"></path>
</svg>
