<!-- Generated by IcoMoon.io -->
<svg version="1.1" xmlns="http://www.w3.org/2000/svg" width="16" height="16" viewBox="0 0 16 16">
<title>pingdom</title>
<path fill="#fff000" d="M7.973 11.869l5.306-2.264-4.699 4.827c-0.083-0.877-0.288-1.74-0.607-2.563zM16 7.412c-3.401-0.157-6.805 0.276-10.058 1.28 0.683 0.715 1.254 1.528 1.69 2.414 2.695-1.5 6.431-3.415 8.368-3.687v-0.010zM7.617 7.595l0.138-0.040c1.025-0.306 2.033-0.677 3.015-1.104 0.995-0.39 1.931-0.92 2.773-1.578 0.897-0.713 1.57-1.666 1.943-2.748 0.080-0.178 0.141-0.366 0.178-0.558-1.349 1.84-6.694 2.032-6.694 2.032l1.26-1.156c-3.671 0.013-7.251 1.173-10.231 3.32 2.020 0.215 3.918 1.064 5.426 2.423 0.724-0.224 1.464-0.384 2.191-0.586v-0.004z"></path>
</svg>
