<!-- Generated by IcoMoon.io -->
<svg version="1.1" xmlns="http://www.w3.org/2000/svg" width="16" height="16" viewBox="0 0 16 16">
<title>pinterest</title>
<path fill="#bd081c" d="M8.011 0c-4.414 0-7.992 3.578-7.992 7.991 0 3.386 2.105 6.278 5.079 7.441-0.070-0.633-0.133-1.602 0.027-2.293 0.146-0.625 0.937-3.971 0.937-3.971s-0.239-0.48-0.239-1.187c0-1.109 0.645-1.941 1.445-1.941 0.683 0 1.012 0.513 1.012 1.125 0 0.686-0.435 1.711-0.661 2.661-0.19 0.795 0.4 1.443 1.183 1.443 1.419 0 2.512-1.497 2.512-3.658 0-1.907-1.375-3.246-3.339-3.246-2.273 0-3.606 1.708-3.606 3.466 0 0.689 0.263 1.429 0.593 1.827 0.066 0.080 0.075 0.15 0.057 0.23-0.060 0.25-0.195 0.799-0.223 0.909-0.035 0.15-0.115 0.181-0.267 0.11-0.997-0.46-1.622-1.919-1.622-3.097 0-2.517 1.832-4.835 5.28-4.835 2.772 0 4.928 1.978 4.928 4.615 0 2.757-1.738 4.975-4.155 4.975-0.809 0-1.569-0.419-1.839-0.919l-0.499 1.899c-0.179 0.697-0.669 1.568-0.999 2.097 0.749 0.23 1.537 0.357 2.367 0.357 4.405 0 7.99-3.577 7.99-7.991s-3.585-7.991-7.99-7.991z"></path>
</svg>
