<!-- Generated by IcoMoon.io -->
<svg version="1.1" xmlns="http://www.w3.org/2000/svg" width="16" height="16" viewBox="0 0 16 16">
<title>pivotaltracker</title>
<path fill="#517a9e" d="M8.001 0c-4.411 0-8 3.588-8 7.999 0 4.412 3.589 8.001 8 8.001s7.999-3.589 7.999-8.001c0-4.411-3.587-7.999-7.999-7.999zM8.001 1.62c3.523 0 6.379 2.856 6.379 6.379v0c0 3.524-2.855 6.381-6.379 6.381s-6.38-2.857-6.38-6.381c0-3.523 2.857-6.379 6.38-6.379zM7.911 2.493l-2.030 1.173 1.787 3.093c0.283-0.075 0.592-0.053 0.873 0.079l0.94-1.628zM10.691 3.997l-1.787 3.095c0.217 0.216 0.347 0.499 0.371 0.797h1.877l1.571-2.717zM3.187 5.323v2.367h0.001v-0.020h3.573c0.081-0.3 0.26-0.549 0.5-0.717l0.004-0.003-0.939-1.627zM4.845 8.111l-1.571 2.716 2.033 1.175 1.788-3.097c-0.206-0.206-0.342-0.482-0.371-0.789l-0-0.005zM9.239 8.331c-0.081 0.299-0.26 0.548-0.5 0.716l-0.004 0.003 0.94 1.628h3.138v-2.347zM7.459 9.16l-0.94 1.628 1.569 2.717 2.033-1.173-1.787-3.093c-0.283 0.076-0.593 0.053-0.875-0.079z"></path>
</svg>
