<!-- Generated by IcoMoon.io -->
<svg version="1.1" xmlns="http://www.w3.org/2000/svg" width="16" height="16" viewBox="0 0 16 16">
<title>pjsip</title>
<path fill="#f86001" d="M3.515 13.708h3.285l1.771 1.771c0.582 0.583 1.409 0.693 1.855 0.247l5.301-5.301c0.445-0.445 0.335-1.273-0.247-1.855l-8.052-8.051c-0.581-0.583-1.409-0.693-1.855-0.247l-5.3 5.3c-0.445 0.445-0.335 1.273 0.247 1.855l2.995 2.995zM4.943 12.28v-2.512l-0.587-0.587h0.011l-1.671-1.671c-0.582-0.582-0.693-1.409-0.247-1.855l3.207-3.207c0.445-0.445 1.273-0.335 1.855 0.247l5.795 5.795c0.582 0.582 0.693 1.409 0.247 1.855l-3.207 3.207c-0.292 0.292-0.747 0.341-1.191 0.179 0.222-0.37 0.368-0.99 0.374-1.695 0.001-0.071-0-0.141-0.003-0.211l0 0.009c-0.136-0.285-0.314-0.459-0.508-0.46-0.201-0.002-0.387 0.181-0.531 0.485l0.001-0.002c-0.253 0.033-0.476 0.351-0.619 0.829l-0.002 0.006-0.412-0.411zM3.448 7.493c0.196 0.196 0.468 0.318 0.767 0.318s0.571-0.121 0.767-0.318v0c0.196-0.196 0.318-0.468 0.318-0.767s-0.121-0.571-0.318-0.767v0c-0.196-0.197-0.468-0.318-0.768-0.318s-0.571 0.122-0.768 0.318v0c-0.196 0.196-0.317 0.468-0.317 0.767s0.122 0.571 0.318 0.768v0z"></path>
</svg>
