<!-- Generated by IcoMoon.io -->
<svg version="1.1" xmlns="http://www.w3.org/2000/svg" width="16" height="16" viewBox="0 0 16 16">
<title>plangrid</title>
<path fill="#0085de" d="M11.067 0c1.733 0 2.841 0.006 3.885 1.049 1.041 1.045 1.048 2.147 1.048 3.885v6.133c0 1.733-0.007 2.841-1.049 3.885-1.045 1.041-2.146 1.047-3.885 1.047h-6.133c-1.733 0-2.84-0.006-3.885-1.049-1.041-1.043-1.047-2.146-1.047-3.885v-6.133c0-1.733 0.007-2.841 1.049-3.885 1.045-1.041 2.146-1.048 3.884-1.048h6.134zM13.999 7.434c-0.285-3.049-2.876-5.433-5.999-5.433-3.314 0-6 2.685-6 5.999 0 3.201 2.501 5.823 5.657 6h4.757c0.875-0.002 1.583-0.711 1.586-1.587v-4.98zM12.475 13.16c-0.376 0-0.682-0.307-0.682-0.683 0-0.377 0.306-0.683 0.682-0.683 0.377 0 0.683 0.305 0.683 0.683 0 0.376-0.306 0.683-0.683 0.683zM8 12.633c-2.558-0.003-4.63-2.075-4.633-4.633 0.003-2.557 2.075-4.63 4.633-4.633 2.557 0.003 4.63 2.075 4.633 4.633-0.003 2.557-2.075 4.63-4.633 4.633z"></path>
</svg>
