<!-- Generated by IcoMoon.io -->
<svg version="1.1" xmlns="http://www.w3.org/2000/svg" width="16" height="16" viewBox="0 0 16 16">
<title>playstation</title>
<path fill="#003791" d="M5.99 1.731v11.699l2.61 0.841v-9.811c0-0.46 0.203-0.767 0.529-0.661 0.424 0.121 0.507 0.543 0.507 1.003v3.917c1.627 0.795 2.908-0.001 2.908-2.102 0-2.158-0.751-3.117-2.959-3.885-0.871-0.299-2.485-0.791-3.594-1.001zM9.094 12.559l4.197-1.517c0.477-0.172 0.551-0.417 0.164-0.545-0.391-0.128-1.091-0.093-1.571 0.082l-2.803 0.999v-1.59l0.16-0.057c0 0 0.801-0.28 1.942-0.41 1.131-0.12 2.523 0.019 3.625 0.441 1.232 0.401 1.361 0.981 1.051 1.381s-1.081 0.691-1.081 0.691l-5.696 2.071v-1.531zM1.205 12.4c-1.267-0.363-1.476-1.112-0.901-1.547 0.534-0.39 1.439-0.701 1.439-0.701l3.744-1.342v1.542l-2.683 0.981c-0.47 0.181-0.55 0.421-0.159 0.551s1.091 0.1 1.562-0.080l1.292-0.471v1.383c-0.081 0.019-0.171 0.029-0.261 0.049-1.292 0.221-2.663 0.131-4.025-0.319z"></path>
</svg>
