<!-- Generated by IcoMoon.io -->
<svg version="1.1" xmlns="http://www.w3.org/2000/svg" width="16" height="16" viewBox="0 0 16 16">
<title>playstation3</title>
<path fill="#003791" d="M10.242 6.292h-2.099c-0.647 0-0.965 0.4-0.965 0.92v1.577c0 0.322-0.152 0.553-0.473 0.553h-1.836c-0.013 0-0.023 0.011-0.023 0.023v0.313c0 0.013 0.007 0.021 0.020 0.021h2.073c0.647 0 0.967-0.398 0.967-0.918v-1.576c0-0.323 0.15-0.555 0.473-0.555h1.855c0.013 0 0.027-0.009 0.027-0.022v-0.317c0-0.013-0.013-0.023-0.019-0.021zM4.064 6.292h-4.039c-0.015 0-0.025 0.011-0.025 0.023v0.318c0 0.013 0.011 0.024 0.025 0.024h3.796c0.32 0 0.473 0.231 0.473 0.553s-0.152 0.553-0.473 0.553h-3.003c-0.467 0-0.818 0.391-0.818 0.911v1.009c0 0.013 0.013 0.025 0.027 0.025h0.687c0.013 0 0.027-0.011 0.027-0.025v-1.009c0-0.32 0.187-0.547 0.453-0.547h2.873c0.647 0 0.963-0.397 0.963-0.917 0-0.519-0.315-0.92-0.965-0.919zM15.7 7.957c-0.010-0.010-0.010-0.027 0-0.037 0.2-0.167 0.3-0.418 0.3-0.708 0-0.519-0.316-0.92-0.964-0.92h-4.038c-0.013 0-0.024 0.012-0.024 0.025v0.317c0 0.013 0.013 0.027 0.027 0.027h3.8c0.32 0 0.477 0.233 0.477 0.553s-0.153 0.553-0.475 0.553h-3.8c-0.013 0-0.024 0.013-0.024 0.027v0.32c0 0.013 0.011 0.023 0.025 0.023h3.8c0.42 0.005 0.473 0.413 0.473 0.62v0.040c0 0.323-0.153 0.555-0.473 0.555h-3.8c-0.013 0-0.024 0.010-0.024 0.023v0.318c0 0.013 0.010 0.025 0.024 0.025h4.033c0.649 0 0.964-0.43 0.964-0.92v-0.038c0-0.313-0.1-0.611-0.301-0.802z"></path>
</svg>
