<!-- Generated by IcoMoon.io -->
<svg version="1.1" xmlns="http://www.w3.org/2000/svg" width="16" height="16" viewBox="0 0 16 16">
<title>playstation4</title>
<path fill="#003791" d="M8.203 8.787v-1.591c0-0.325 0.151-0.557 0.475-0.557h1.993c0.011 0 0.023-0.012 0.023-0.024v-0.317c0-0.003 0-0.005-0.002-0.008h-2.44c-0.528 0.067-0.787 0.435-0.787 0.905v1.591c0 0.322-0.155 0.555-0.473 0.555h-2.103c-0.012 0-0.024 0.008-0.024 0.024v0.317c0 0.013 0.007 0.023 0.015 0.027h2.389c0.622-0.017 0.929-0.413 0.933-0.921zM0.017 9.71h0.7c0.009-0.003 0.017-0.013 0.017-0.027v-1.013c0-0.325 0.183-0.549 0.451-0.549h2.883c0.649 0 0.964-0.4 0.964-0.923 0-0.471-0.258-0.839-0.787-0.905h-4.24c0 0.002-0.004 0.003-0.004 0.007v0.317c0 0.016 0.009 0.024 0.025 0.024h3.799c0.323 0 0.475 0.233 0.475 0.556s-0.151 0.557-0.475 0.557h-3.005c-0.467 0-0.817 0.395-0.817 0.915v1.013c0 0.013 0.007 0.024 0.016 0.028zM10.683 9.343h3.827c0.011 0 0.020 0.008 0.020 0.016v0.322c0 0.016 0.011 0.024 0.023 0.024h0.69c0.012 0 0.024-0.007 0.024-0.024v-0.317c0-0.012 0.013-0.024 0.027-0.024h0.685c0.016 0 0.024-0.012 0.024-0.024v-0.323c0-0.012-0.007-0.024-0.023-0.024h-0.687c-0.013 0-0.025-0.011-0.025-0.023v-2.308c0-0.189-0.069-0.309-0.187-0.349h-0.2c-0.062 0.016-0.13 0.045-0.202 0.088l-4.121 2.545c-0.16 0.1-0.215 0.212-0.175 0.297 0.032 0.069 0.123 0.121 0.3 0.124zM11.281 8.919l3.193-1.975c0.020-0.016 0.060-0.012 0.060 0.032v1.975c0 0.012-0.010 0.024-0.022 0.024h-3.212c-0.027 0-0.040-0.008-0.043-0.016-0.004-0.016 0.003-0.028 0.024-0.040z"></path>
</svg>
