<!-- Generated by IcoMoon.io -->
<svg version="1.1" xmlns="http://www.w3.org/2000/svg" width="16" height="16" viewBox="0 0 16 16">
<title>playerfm</title>
<path fill="#c8122a" d="M7.984 0c-0.089 0.002-0.17 0.005-0.25 0.009l0.019-0.001c-0.215 0.014-0.514 0.042-0.753 0.073-2.193 0.299-4.064 1.4-5.329 3.040-0.293 0.376-0.563 0.8-0.792 1.248l-0.021 0.045c-0.019 0.033-0.057 0.111-0.095 0.19l-0.021 0.049c-0.061 0.132-0.119 0.267-0.174 0.402-0.051 0.118-0.117 0.292-0.176 0.469l-0.016 0.056-0.030 0.095c-0.218 0.692-0.345 1.488-0.347 2.314v0.025c0.009 4.412 3.587 7.985 8 7.985 0 0 0 0 0 0v0c0 0 0 0 0 0 4.134 0 7.536-3.136 7.956-7.159l0.003-0.035 0.002-0.016c0.024-0.233 0.038-0.504 0.039-0.778v-0.032c-0.004-1.003-0.192-1.96-0.531-2.843l0.019 0.055c-0.027-0.070-0.054-0.14-0.083-0.209-0.068-0.165-0.118-0.276-0.171-0.386l0.021 0.048c-0.991-2.1-2.866-3.727-5.132-4.337-0.507-0.139-1.319-0.26-1.875-0.296-0.055-0.004-0.135-0.008-0.215-0.012l-0.015-0zM9.531 1.92c0.111 0.001 0.251 0.037 0.45 0.106 1.188 0.407 2.515 1.438 3.237 2.509 0.501 0.745 0.891 1.619 0.891 1.991 0 0.239-0.233 0.454-0.483 0.454-0.233 0-0.472-0.203-0.536-0.453-0.087-0.35-0.553-1.235-0.897-1.689-0.611-0.803-1.555-1.508-2.48-1.851-0.653-0.245-0.821-0.53-0.519-0.891 0.101-0.121 0.193-0.178 0.336-0.176zM6.941 2.853c0.173 0.001 0.33 0.037 0.467 0.11 0.873 0.443 0.827 1.712-0.081 2.061-1.124 0.425-1.689 0.879-2.056 1.625-0.769 1.56-0.14 3.4 1.415 4.145 1.141 0.547 2.445 0.355 3.353-0.483 0.413-0.384 0.641-0.716 0.845-1.252 0.285-0.751 0.611-1.030 1.193-1.030 0.746 0 1.258 0.629 1.107 1.351-0.309 1.42-1.502 2.847-2.947 3.517-0.797 0.367-1.234 0.46-2.241 0.46-0.99 0-1.421-0.087-2.189-0.437-2.096-0.949-3.383-3.22-3.115-5.473 0.263-2.108 1.705-3.823 3.636-4.478l0.038-0.011c0.21-0.070 0.402-0.105 0.576-0.104zM9.25 3.493c0.145 0.003 0.333 0.070 0.609 0.204 1.124 0.535 2.055 1.519 2.556 2.69 0.187 0.448 0.093 0.739-0.273 0.855-0.28 0.082-0.467-0.069-0.711-0.576-0.454-0.961-1.1-1.625-2.009-2.073-0.53-0.256-0.594-0.314-0.647-0.565-0.023-0.133 0-0.209 0.123-0.355 0.105-0.123 0.207-0.184 0.351-0.181zM8.985 5.122c0.153-0.001 0.331 0.072 0.56 0.223 0.641 0.419 1.363 1.322 1.363 1.7 0 0.193-0.187 0.437-0.373 0.483-0.251 0.065-0.431-0.058-0.693-0.471-0.285-0.437-0.617-0.769-0.96-0.943-0.297-0.151-0.385-0.268-0.385-0.513-0.001-0.008-0.001-0.018-0.001-0.027 0-0.13 0.064-0.245 0.163-0.316l0.001-0.001c0.084-0.081 0.198-0.132 0.324-0.135l0.001-0z"></path>
</svg>
