<!-- Generated by IcoMoon.io -->
<svg version="1.1" xmlns="http://www.w3.org/2000/svg" width="16" height="16" viewBox="0 0 16 16">
<title>plesk</title>
<path fill="#52bbe6" d="M4.068 4.681v4.902h0.491v-4.903zM13.171 4.687v4.895h0.49v-4.895zM13.661 7.776l1.653 1.807h0.679l-1.716-1.821 1.723-1.681h-0.658zM10.989 6.019c-0.357 0-0.648 0.083-0.873 0.252s-0.337 0.406-0.337 0.713c0 0.173 0.033 0.316 0.099 0.428s0.151 0.204 0.253 0.277c0.103 0.072 0.219 0.132 0.348 0.178s0.26 0.089 0.393 0.127c0.117 0.033 0.228 0.067 0.333 0.101s0.198 0.078 0.279 0.129c0.080 0.051 0.144 0.113 0.191 0.185s0.069 0.163 0.069 0.27c0 0.14-0.063 0.259-0.191 0.357s-0.323 0.147-0.587 0.147c-0.406 0-0.736-0.163-0.99-0.49l-0.381 0.336c0.191 0.21 0.393 0.36 0.609 0.452 0.215 0.091 0.462 0.136 0.74 0.136 0.181 0 0.351-0.022 0.511-0.067 0.158-0.043 0.296-0.11 0.418-0.198l-0.004 0.002c0.117-0.087 0.211-0.192 0.279-0.319s0.102-0.268 0.102-0.427c0-0.173-0.034-0.316-0.102-0.431-0.070-0.116-0.16-0.213-0.265-0.289l-0.003-0.002c-0.105-0.076-0.225-0.141-0.353-0.189l-0.011-0.003c-0.070-0.030-0.202-0.076-0.335-0.119l-0.061-0.017c-0.107-0.033-0.211-0.067-0.311-0.101-0.101-0.035-0.189-0.076-0.271-0.126l0.006 0.003c-0.073-0.044-0.134-0.1-0.182-0.166l-0.001-0.002c-0.044-0.063-0.070-0.141-0.070-0.225 0-0.005 0-0.009 0-0.014l-0 0.001c0-0.135 0.050-0.247 0.15-0.336s0.275-0.133 0.525-0.133c0.195 0 0.364 0.037 0.506 0.109s0.273 0.185 0.396 0.34l0.007 0.007 0.36-0.329c-0.181-0.21-0.371-0.357-0.569-0.441-0.192-0.080-0.414-0.126-0.648-0.126-0.011 0-0.022 0-0.033 0l0.002-0zM1.197 6.046c-0.392 0-0.791 0.063-1.197 0.189v5.084h0.483v-1.813c0.121 0.032 0.243 0.058 0.364 0.077 0.111 0.019 0.239 0.029 0.37 0.029 0.245 0 0.482-0.037 0.704-0.107l-0.017 0.005c0.224-0.068 0.423-0.174 0.599-0.319s0.316-0.329 0.424-0.553c0.107-0.224 0.161-0.493 0.161-0.805 0-0.257-0.045-0.495-0.133-0.714-0.090-0.222-0.219-0.411-0.381-0.567l-0.001-0c-0.167-0.158-0.366-0.284-0.587-0.367l-0.012-0.004c-0.233-0.089-0.493-0.133-0.777-0.133zM7.121 6.046c-0.215 0-0.418 0.037-0.609 0.109-0.191 0.073-0.36 0.183-0.504 0.333-0.148 0.157-0.265 0.344-0.34 0.552l-0.003 0.011c-0.084 0.227-0.126 0.493-0.126 0.801 0 0.233 0.035 0.455 0.105 0.665s0.175 0.397 0.315 0.56c0.14 0.164 0.315 0.293 0.525 0.389s0.455 0.144 0.735 0.144c0.303 0 0.563-0.045 0.777-0.137s0.403-0.225 0.567-0.403l-0.293-0.308c-0.136 0.149-0.287 0.258-0.455 0.325-0.16 0.065-0.346 0.102-0.541 0.102-0.007 0-0.013-0-0.020-0l0.001 0c-0.369 0-0.661-0.117-0.876-0.351s-0.329-0.548-0.343-0.945h2.626c0.009-0.603-0.117-1.061-0.379-1.376s-0.649-0.473-1.162-0.473zM7.142 6.459c0.173 0 0.325 0.027 0.455 0.081s0.237 0.125 0.319 0.213c0.081 0.089 0.145 0.197 0.189 0.323s0.067 0.261 0.067 0.406h-2.123c0.039-0.284 0.157-0.535 0.331-0.737l-0.002 0.002c0.074-0.084 0.176-0.153 0.304-0.207s0.281-0.080 0.459-0.081zM1.24 6.467c0.411 0 0.729 0.125 0.956 0.375s0.34 0.577 0.34 0.983c0 0.439-0.123 0.777-0.368 1.012s-0.575 0.353-0.991 0.353c-0.112 0-0.228-0.012-0.347-0.038-0.14-0.030-0.256-0.063-0.369-0.101l0.023 0.007v-2.479c0.121-0.042 0.245-0.071 0.371-0.088s0.253-0.024 0.385-0.024zM2.825 10.859v0.461h2.949v-0.461z"></path>
</svg>
