<!-- Generated by IcoMoon.io -->
<svg version="1.1" xmlns="http://www.w3.org/2000/svg" width="16" height="16" viewBox="0 0 16 16">
<title>plurk</title>
<path fill="#ff574d" d="M8.601 1.271c-0.015-0-0.033-0-0.051-0-2.093 0-3.962 0.958-5.192 2.46l-0.009 0.012c-0.055 0.065-0.116 0.143-0.177 0.221l-0.012 0.017 0.003-0.002c0.155-0.131 0.315-0.23 0.478-0.297l0.039-0.015c0.199-0.075 0.401-0.098 0.6-0.059 0.96 0.193 1.46 1.739 1.117 3.455s-1.4 2.951-2.36 2.759c-0.673-0.135-1.119-0.937-1.208-1.995v-0.003 0.035c-0.002 0.088-0.002 0.177 0 0.267v0.049l0.001 0.039c0.003 0.099 0.009 0.197 0.016 0.295 0.003 0.045 0.008 0.089 0.013 0.133 0.081 0.849 0.309 1.627 0.658 2.335l-0.017-0.039c0.040 0.084 0.020 0.184-0.052 0.242l-0.185 0.151c-0.135 0.112-0.221 0.279-0.221 0.467 0 0.064 0.010 0.126 0.029 0.184l-0.001-0.004c0 0.004 0.002 0.007 0.004 0.011 0.012 0.037 0.025 0.068 0.041 0.098l-0.002-0.004 0.033-0.026 0.153-0.116c0.029-0.022 0.066-0.035 0.105-0.035 0.096 0 0.174 0.078 0.174 0.174 0 0.056-0.027 0.107-0.068 0.138l-0 0-0.188 0.143 0.785 0.965c0.112 0.136 0.281 0.222 0.469 0.222 0.145 0 0.278-0.051 0.382-0.135l-0.001 0.001 0.172-0.14c0.034-0.027 0.077-0.044 0.125-0.044s0.091 0.017 0.125 0.044l-0-0c1.133 0.908 2.588 1.456 4.171 1.456 0.063 0 0.127-0.001 0.19-0.003l-0.009 0c1.397-0.035 2.68-0.493 3.735-1.25l-0.020 0.014c0.032-0.024 0.073-0.038 0.117-0.038 0.053 0 0.101 0.021 0.137 0.055l-0-0 0.109 0.104c0.108 0.102 0.255 0.165 0.416 0.165 0.14 0 0.269-0.047 0.371-0.127l-0.001 0.001-0.003-0.003-0.14-0.131c-0.031-0.031-0.050-0.075-0.050-0.122 0-0.096 0.078-0.175 0.175-0.175 0.044 0 0.084 0.016 0.114 0.042l-0-0 0.15 0.14 0.84-0.884c0.102-0.108 0.165-0.255 0.165-0.416 0-0.172-0.072-0.328-0.187-0.438l-0.176-0.167c-0.038-0.036-0.061-0.087-0.061-0.143 0-0.036 0.009-0.069 0.026-0.098l-0.001 0.001c0.53-0.938 0.842-2.060 0.842-3.254 0-0.422-0.039-0.834-0.113-1.235l0.006 0.041c0.201-0.185 0.569-0.549 0.713-0.861 0.154-0.335 0.193-0.68-0.215-0.528-0.317 0.118-0.561 0.194-0.857 0.127-0.945-2.395-3.231-4.129-5.901-4.267-0.093-0.005-0.204-0.009-0.315-0.009h-0.002zM1.51 4.165c-0.446 0.009-0.803 0.372-0.803 0.819 0 0.13 0.030 0.253 0.084 0.362l-0.002-0.005c-0.439 0.018-0.788 0.378-0.788 0.819 0 0.453 0.367 0.82 0.82 0.82 0.176 0 0.34-0.056 0.473-0.15l-0.003 0.002c0.118-0.083 0.204-0.193 0.263-0.313 0.124 0.228 0.307 0.418 0.519 0.549-0.001 0.028-0.001 0.061-0.001 0.095 0 0.107 0.005 0.214 0.013 0.319l-0.001-0.014c0.068 0.819 0.413 1.44 0.934 1.544 0.743 0.149 1.56-0.807 1.825-2.133s-0.121-2.523-0.863-2.671c-0.289-0.058-0.59 0.053-0.865 0.288-0.3 0.255-0.569 0.659-0.76 1.153-0.007-0.001-0.013-0.002-0.020-0.005-0.093-0.027-0.143-0.087-0.208-0.101 0.135-0.146 0.218-0.342 0.218-0.557 0-0.453-0.367-0.82-0.82-0.82-0.005 0-0.011 0-0.016 0l0.001-0zM3.418 4.994c0.036 0 0.071 0.003 0.107 0.010 0.484 0.095 0.736 0.875 0.563 1.739-0.173 0.865-0.705 1.487-1.189 1.39-0.329-0.065-0.549-0.447-0.603-0.955 0.121 0.047 0.247 0.075 0.373 0.081 0.351 0.016 0.581-0.103 0.76-0.342 0.231-0.31 0.056-1.169-0.249-1.28-0.237-0.087-0.378 0.018-0.589 0.033 0.107-0.199 0.234-0.363 0.371-0.48 0.146-0.123 0.302-0.195 0.457-0.196z"></path>
</svg>
