<!-- Generated by IcoMoon.io -->
<svg version="1.1" xmlns="http://www.w3.org/2000/svg" width="16" height="16" viewBox="0 0 16 16">
<title>pluralsight</title>
<path fill="#f15b2a" d="M10.48 1.17c-3.76-1.371-7.939 0.58-9.299 4.33-1.381 3.799 0.569 7.971 4.329 9.34 3.77 1.37 7.971-0.58 9.34-4.34 1.371-3.78-0.58-7.959-4.349-9.33zM8 16c-4.4 0-8-3.6-8-8s3.6-8 8-8 8 3.6 8 8-3.6 8-8 8zM5.951 3.87v8.261l7.169-4.131zM6.65 5.049l5.1 2.951-5.1 2.951v-5.901zM4.299 4.77v6.459l5.601-3.229zM5 5.97l3.541 2.030-3.541 2.041v-4.081z"></path>
</svg>
