<!-- Generated by IcoMoon.io -->
<svg version="1.1" xmlns="http://www.w3.org/2000/svg" width="16" height="16" viewBox="0 0 16 16">
<title>pocket</title>
<path fill="#ef3f56" d="M12.542 6.839l-3.764 3.613c-0.213 0.203-0.487 0.305-0.761 0.305s-0.547-0.102-0.761-0.305l-3.764-3.613c-0.438-0.419-0.451-1.114-0.033-1.551 0.42-0.438 1.114-0.453 1.55-0.033l3.007 2.881 3.011-2.881c0.44-0.421 1.131-0.405 1.551 0.033 0.421 0.43 0.41 1.13-0.030 1.551zM15.931 1.809c-0.199-0.572-0.75-0.957-1.361-0.957h-13.117c-0.6 0-1.145 0.376-1.358 0.937-0.063 0.167-0.095 0.341-0.095 0.516v4.83l0.056 0.961c0.232 2.185 1.365 4.095 3.121 5.426 0.030 0.024 0.063 0.047 0.095 0.070l0.020 0.015c0.941 0.687 1.993 1.152 3.129 1.381 0.524 0.105 1.061 0.16 1.593 0.16 0.493 0 0.987-0.045 1.473-0.136 0.059-0.019 0.117-0.030 0.176-0.040 0.015 0 0.033-0.010 0.049-0.019 1.089-0.24 2.099-0.691 3.005-1.35l0.019-0.021 0.090-0.070c1.751-1.33 2.883-3.241 3.124-5.432l0.049-0.961v-4.822c0-0.167-0.021-0.333-0.081-0.495z"></path>
</svg>
