<!-- Generated by IcoMoon.io -->
<svg version="1.1" xmlns="http://www.w3.org/2000/svg" width="16" height="16" viewBox="0 0 16 16">
<title>pocketcasts</title>
<path fill="#f43e37" d="M8 0c-4.419 0-8 3.581-8 8s3.581 8 8 8 8-3.581 8-8-3.581-8-8-8zM10.376 8c0-1.312-1.064-2.376-2.376-2.376s-2.376 1.063-2.376 2.376c0 1.312 1.063 2.376 2.376 2.376v1.357c-2.062 0-3.733-1.671-3.733-3.733s1.671-3.733 3.733-3.733 3.733 1.671 3.733 3.733zM12.667 8c0-2.577-2.089-4.667-4.667-4.667s-4.667 2.089-4.667 4.667 2.089 4.667 4.667 4.667v1.555c-3.437 0-6.222-2.786-6.222-6.222s2.786-6.222 6.222-6.222c3.437 0 6.222 2.786 6.222 6.222z"></path>
</svg>
