<!-- Generated by IcoMoon.io -->
<svg version="1.1" xmlns="http://www.w3.org/2000/svg" width="16" height="16" viewBox="0 0 16 16">
<title>postwoman</title>
<path fill="#50fa7b" d="M1.689 6.191c0 4.115 3.351 9.809 6.311 9.809 2.787 0 6.311-5.693 6.311-9.809s-2.825-6.191-6.311-6.191-6.311 2.075-6.311 6.191zM9.64 9.235c0.561-0.561 1.336-0.909 2.192-0.909 0.229 0 0.452 0.025 0.666 0.072l-0.021-0.004c0.043 0.194 0.068 0.416 0.068 0.644 0 0.857-0.347 1.632-0.909 2.193l-0 0c-0.561 0.562-1.336 0.909-2.193 0.909-0.228 0-0.451-0.025-0.666-0.072l0.021 0.004c-0.043-0.194-0.068-0.417-0.068-0.645 0-0.857 0.347-1.632 0.909-2.193l0-0zM3.522 8.394c0.194-0.043 0.417-0.068 0.646-0.068 0.856 0 1.632 0.347 2.193 0.909l0 0c0.561 0.561 0.909 1.336 0.909 2.192 0 0.229-0.025 0.452-0.072 0.666l0.004-0.021c-0.194 0.043-0.417 0.068-0.645 0.068-0.857 0-1.632-0.347-2.193-0.909l-0-0c-0.562-0.561-0.909-1.336-0.909-2.193 0-0.228 0.025-0.451 0.071-0.665l-0.004 0.021z"></path>
</svg>
