<!-- Generated by IcoMoon.io -->
<svg version="1.1" xmlns="http://www.w3.org/2000/svg" width="16" height="16" viewBox="0 0 16 16">
<title>postman</title>
<path fill="#ff6c37" d="M9.018 0.066c-4.381-0.562-8.39 2.534-8.952 6.916s2.533 8.389 6.915 8.952c4.382 0.562 8.391-2.534 8.952-6.916 0.563-4.381-2.533-8.389-6.915-8.952zM10.665 5.056c-0.155 0.002-0.294 0.065-0.395 0.167v0l-2.969 2.969-0.633-0.633c2.926-2.917 3.453-2.945 3.997-2.502zM7.423 8.297l2.96-2.96c0.075-0.079 0.182-0.128 0.299-0.128 0.228 0 0.413 0.185 0.413 0.413 0 0.127-0.057 0.24-0.147 0.316l-0.001 0.001-3.133 2.75zM7.643 8.759l-0.733 0.159c-0.003 0.001-0.006 0.001-0.009 0.001-0.016 0-0.029-0.009-0.036-0.022l-0-0c-0.003-0.006-0.005-0.013-0.005-0.020 0-0.011 0.005-0.021 0.012-0.029v0l0.43-0.43zM5.775 8.453l0.781-0.781 0.586 0.585-1.319 0.284c-0.004 0.001-0.008 0.002-0.012 0.002-0.019 0-0.036-0.011-0.044-0.027l-0-0c-0.005-0.007-0.008-0.016-0.008-0.026 0-0.014 0.006-0.027 0.016-0.036l0-0zM3.344 12.492c-0.026-0.002-0.046-0.024-0.046-0.050 0-0.002 0-0.003 0-0.005l-0 0c0.001-0.012 0.007-0.023 0.015-0.031v0h0.001l0.631-0.631 0.815 0.815zM4.961 11.655c-0.049 0.026-0.082 0.077-0.082 0.135 0 0.013 0.002 0.025 0.004 0.037l-0-0.001 0.135 0.577c0.002 0.006 0.002 0.013 0.002 0.020 0 0.046-0.037 0.083-0.083 0.083-0.023 0-0.045-0.010-0.060-0.025l-0-0h-0.002l-0.819-0.819 2.508-2.505 1.213-0.262 0.583 0.583c-0.837 0.735-1.981 1.467-3.4 2.179zM8.48 9.369h-0.001l-0.559-0.559 3.133-2.75c0.029-0.026 0.055-0.053 0.078-0.083l0.001-0.001c-0.099 0.897-1.353 2.163-2.651 3.394zM10.918 5.063l-0.002-0.001c-0.219-0.22-0.354-0.522-0.354-0.857 0-0.671 0.544-1.215 1.215-1.215 0.297 0 0.569 0.107 0.78 0.284l-0.002-0.002-1.073 1.075c-0.014 0.014-0.023 0.034-0.023 0.056s0.009 0.042 0.023 0.056v0l0.831 0.831c-0.157 0.080-0.342 0.126-0.539 0.126-0.335 0-0.638-0.136-0.857-0.355v0zM12.637 5.063c-0.054 0.053-0.113 0.101-0.176 0.143l-0.004 0.003h-0.001l-0.805-0.805 1.022-1.022c0.441 0.48 0.425 1.221-0.036 1.681zM12.57 4.033c-0.024 0.018-0.039 0.046-0.039 0.077 0 0.010 0.001 0.019 0.004 0.028l-0-0.001c0.018 0.036 0.029 0.078 0.029 0.123 0 0.068-0.024 0.13-0.064 0.178l0-0c-0.013 0.016-0.020 0.036-0.020 0.058 0 0.030 0.014 0.056 0.035 0.073l0 0c0.015 0.012 0.035 0.020 0.056 0.020h0c0.028-0 0.054-0.013 0.071-0.033l0-0c0.066-0.079 0.107-0.182 0.107-0.295 0-0.075-0.018-0.146-0.050-0.209l0.001 0.003c-0.017-0.024-0.044-0.039-0.075-0.039-0.020 0-0.039 0.007-0.054 0.018l0-0z"></path>
</svg>
