<!-- Generated by IcoMoon.io -->
<svg version="1.1" xmlns="http://www.w3.org/2000/svg" width="16" height="16" viewBox="0 0 16 16">
<title>postgresql</title>
<path fill="#336791" d="M11.419 0c-0.656 0.005-1.288 0.103-1.884 0.281l0.048-0.012-0.042 0.013c-0.338-0.063-0.732-0.103-1.133-0.11l-0.007-0c-0.785-0.013-1.46 0.177-2.004 0.495-0.536-0.186-1.648-0.507-2.82-0.443-0.816 0.045-1.707 0.293-2.367 0.989-0.658 0.697-1.006 1.775-0.933 3.241 0.020 0.405 0.135 1.065 0.327 1.919s0.46 1.855 0.795 2.768c0.335 0.913 0.703 1.733 1.277 2.291 0.287 0.279 0.681 0.514 1.147 0.495 0.327-0.013 0.622-0.157 0.877-0.368 0.124 0.163 0.257 0.235 0.377 0.301 0.152 0.083 0.3 0.14 0.453 0.177 0.275 0.069 0.747 0.161 1.299 0.067 0.188-0.031 0.386-0.093 0.583-0.18 0.007 0.22 0.016 0.435 0.025 0.653 0.027 0.691 0.045 1.329 0.252 1.888 0.033 0.091 0.125 0.562 0.485 0.977s1.065 0.675 1.869 0.503c0.567-0.121 1.287-0.34 1.766-1.021 0.473-0.673 0.687-1.639 0.729-3.206 0.011-0.085 0.023-0.157 0.037-0.224l0.113 0.010h0.013c0.605 0.027 1.261-0.059 1.809-0.313 0.485-0.225 0.853-0.452 1.12-0.855 0.067-0.1 0.14-0.221 0.16-0.429s-0.099-0.533-0.297-0.683c-0.397-0.301-0.646-0.187-0.913-0.131-0.238 0.055-0.514 0.090-0.796 0.097l-0.005 0c0.771-1.298 1.323-2.677 1.639-3.897 0.187-0.72 0.291-1.384 0.3-1.965s-0.039-1.095-0.387-1.539c-1.087-1.389-2.616-1.773-3.799-1.787-0.037-0.001-0.073-0.001-0.11-0.003zM11.387 0.427c1.119-0.011 2.548 0.303 3.574 1.615 0.231 0.295 0.299 0.725 0.291 1.256s-0.107 1.165-0.286 1.86c-0.348 1.347-1.005 2.917-1.931 4.325 0.030 0.022 0.065 0.041 0.102 0.056l0.003 0.001c0.193 0.080 0.634 0.149 1.513-0.032 0.221-0.047 0.383-0.078 0.551 0.050 0.075 0.064 0.123 0.159 0.123 0.264 0 0.007-0 0.013-0.001 0.020l0-0.001c-0.010 0.085-0.041 0.161-0.088 0.225l0.001-0.001c-0.17 0.255-0.505 0.497-0.935 0.697-0.381 0.177-0.927 0.27-1.411 0.275-0.243 0.003-0.467-0.016-0.657-0.075l-0.012-0.005c-0.073 0.707-0.242 2.102-0.352 2.739-0.088 0.513-0.242 0.921-0.536 1.227s-0.709 0.489-1.267 0.609c-0.692 0.149-1.197-0.011-1.522-0.285s-0.473-0.636-0.563-0.858c-0.061-0.153-0.093-0.352-0.124-0.617s-0.053-0.59-0.069-0.956c-0.014-0.372-0.023-0.809-0.023-1.248 0-0.152 0.001-0.305 0.003-0.457l-0 0.023c-0.279 0.256-0.631 0.436-1.022 0.505l-0.012 0.002c-0.459 0.078-0.869 0.001-1.114-0.060-0.132-0.034-0.247-0.079-0.355-0.138l0.008 0.004c-0.113-0.061-0.221-0.129-0.293-0.265-0.029-0.052-0.046-0.113-0.046-0.179 0-0.027 0.003-0.053 0.008-0.078l-0 0.002c0.024-0.090 0.075-0.166 0.144-0.22l0.001-0.001c0.132-0.107 0.307-0.167 0.57-0.222 0.479-0.099 0.647-0.166 0.749-0.247 0.087-0.069 0.185-0.209 0.358-0.415-0.001-0.006-0.001-0.016-0.002-0.025l-0-0.002c-0.326-0.009-0.63-0.097-0.897-0.244l0.010 0.005c-0.1 0.105-0.611 0.645-1.233 1.395-0.262 0.313-0.551 0.493-0.857 0.506s-0.581-0.141-0.816-0.368c-0.469-0.455-0.843-1.239-1.169-2.124s-0.59-1.871-0.778-2.711c-0.189-0.84-0.3-1.517-0.316-1.844-0.070-1.388 0.255-2.323 0.811-2.913s1.321-0.813 2.066-0.856c1.337-0.077 2.606 0.389 2.863 0.489 0.495-0.336 1.132-0.545 1.928-0.532 0.4 0.006 0.786 0.058 1.155 0.153l-0.034-0.007 0.013-0.006c0.129-0.048 0.293-0.097 0.462-0.136l0.031-0.006c0.413-0.101 0.888-0.162 1.377-0.169l0.004-0zM11.489 0.873h-0.097c-0.406 0.006-0.797 0.052-1.175 0.135l0.039-0.007c0.831 0.368 1.458 0.935 1.9 1.5 0.292 0.37 0.545 0.791 0.741 1.244l0.014 0.036c0.073 0.176 0.123 0.325 0.151 0.44 0.014 0.058 0.023 0.107 0.027 0.157 0.001 0.025 0.003 0.051-0.008 0.096 0 0.002-0.003 0.007-0.004 0.009 0.020 0.584-0.125 0.98-0.142 1.537-0.013 0.404 0.090 0.879 0.115 1.397 0.024 0.487-0.035 1.021-0.351 1.546 0.027 0.032 0.051 0.064 0.076 0.096 0.836-1.317 1.439-2.773 1.76-4.015 0.172-0.669 0.263-1.275 0.271-1.755 0.007-0.48-0.083-0.828-0.197-0.973-0.895-1.144-2.105-1.435-3.12-1.443zM8.295 1.044c-0.788 0.002-1.353 0.24-1.782 0.597-0.442 0.369-0.739 0.873-0.933 1.39-0.231 0.613-0.311 1.207-0.342 1.609l0.009-0.005c0.238-0.133 0.551-0.267 0.885-0.344s0.695-0.101 1.022 0.026 0.597 0.425 0.695 0.877c0.469 2.171-0.146 2.979-0.373 3.588-0.072 0.176-0.147 0.4-0.21 0.63l-0.010 0.045c0.029-0.007 0.057-0.015 0.086-0.017 0.16-0.013 0.285 0.040 0.36 0.072 0.228 0.095 0.385 0.293 0.469 0.52 0.022 0.059 0.038 0.123 0.047 0.189 0.009 0.023 0.013 0.049 0.013 0.077 0 0.003-0 0.006-0 0.009l0-0c-0.011 0.333-0.017 0.725-0.017 1.118 0 0.483 0.009 0.964 0.028 1.443l-0.002-0.069c0.015 0.359 0.038 0.675 0.067 0.924s0.069 0.438 0.095 0.502c0.085 0.213 0.21 0.493 0.435 0.683s0.549 0.316 1.139 0.189c0.512-0.11 0.828-0.263 1.039-0.482s0.337-0.525 0.417-0.992c0.121-0.7 0.363-2.73 0.393-3.112-0.013-0.288 0.029-0.509 0.121-0.678 0.095-0.173 0.241-0.279 0.368-0.337 0.063-0.029 0.123-0.048 0.171-0.062-0.059-0.085-0.112-0.156-0.168-0.224l0.006 0.008c-0.175-0.211-0.324-0.452-0.437-0.713l-0.007-0.019c-0.068-0.139-0.125-0.245-0.185-0.348l0.014 0.026c-0.089-0.16-0.201-0.36-0.318-0.585-0.235-0.45-0.49-0.995-0.623-1.527s-0.151-1.080 0.187-1.467c0.3-0.344 0.827-0.487 1.617-0.407-0.023-0.070-0.037-0.128-0.077-0.221-0.193-0.449-0.426-0.836-0.702-1.187l0.008 0.011c-0.67-0.857-1.755-1.706-3.431-1.733zM3.867 1.079c-0.085 0-0.169 0.003-0.253 0.007-0.673 0.039-1.31 0.234-1.765 0.717s-0.756 1.274-0.691 2.584c0.013 0.248 0.121 0.943 0.306 1.768s0.447 1.797 0.761 2.655c0.315 0.858 0.697 1.605 1.060 1.958 0.183 0.177 0.341 0.248 0.485 0.242s0.319-0.090 0.531-0.345c0.418-0.503 0.812-0.947 1.22-1.379l-0.013 0.014c-0.493-0.43-0.803-1.059-0.803-1.76 0-0.12 0.009-0.238 0.026-0.353l-0.002 0.013c0.069-0.493 0.078-0.953 0.070-1.317-0.008-0.355-0.033-0.591-0.033-0.738-0-0.002-0-0.004-0-0.006s0-0.004 0-0.007v0-0.003l-0.001-0.004v-0.001c0-0.001 0-0.002 0-0.003 0-0.806 0.145-1.579 0.409-2.293l-0.015 0.046c0.187-0.496 0.465-1 0.881-1.408-0.409-0.135-1.136-0.34-1.923-0.379-0.075-0.004-0.163-0.007-0.252-0.007h-0zM12.133 4.6c-0.453 0.006-0.707 0.123-0.84 0.275-0.189 0.217-0.207 0.597-0.089 1.065s0.358 0.993 0.585 1.428c0.113 0.218 0.223 0.414 0.312 0.573s0.155 0.273 0.195 0.37c0.037 0.089 0.077 0.168 0.119 0.241 0.175-0.37 0.207-0.733 0.189-1.112-0.023-0.469-0.132-0.948-0.116-1.433 0.018-0.567 0.13-0.937 0.14-1.375-0.148-0.020-0.319-0.032-0.493-0.032h-0zM6.643 4.677c-0.146 0.001-0.288 0.019-0.423 0.052l0.013-0.003c-0.291 0.072-0.547 0.175-0.784 0.307l0.016-0.008c-0.089 0.048-0.165 0.098-0.236 0.155l0.003-0.003-0.015 0.013c0.004 0.097 0.023 0.333 0.031 0.681 0.008 0.38-0.001 0.865-0.075 1.389-0.159 1.14 0.668 2.084 1.64 2.085 0.057-0.234 0.15-0.471 0.243-0.721 0.271-0.729 0.803-1.261 0.355-3.337-0.073-0.34-0.219-0.477-0.419-0.555-0.098-0.036-0.21-0.056-0.328-0.056-0.008 0-0.015 0-0.023 0l0.001-0zM11.921 4.813h0.033c0.044 0.001 0.085 0.006 0.12 0.015s0.067 0.020 0.092 0.037c0.026 0.016 0.044 0.042 0.050 0.073l0 0.001-0.001 0.005c0 0.002 0 0.004 0 0.007 0 0.031-0.009 0.060-0.024 0.084l0-0.001c-0.021 0.038-0.045 0.071-0.073 0.1l0-0c-0.066 0.072-0.155 0.123-0.255 0.141l-0.003 0c-0.014 0.002-0.031 0.003-0.047 0.003-0.085 0-0.163-0.027-0.227-0.072l0.001 0.001c-0.033-0.022-0.062-0.048-0.086-0.078l-0.001-0.001c-0.021-0.023-0.036-0.052-0.042-0.084l-0-0.001c-0-0.003-0-0.007-0-0.010 0-0.029 0.011-0.055 0.029-0.075l-0 0c0.022-0.024 0.047-0.045 0.077-0.059l0.001-0.001c0.064-0.036 0.151-0.063 0.249-0.077 0.037-0.005 0.073-0.008 0.107-0.007zM6.708 4.925c0.035 0 0.073 0.003 0.111 0.009 0.102 0.014 0.193 0.041 0.262 0.081 0.035 0.018 0.064 0.042 0.088 0.070l0 0c0.023 0.026 0.037 0.060 0.037 0.098 0 0.005-0 0.011-0.001 0.016l0-0.001c-0.007 0.040-0.025 0.075-0.050 0.103l0-0c-0.027 0.033-0.059 0.062-0.094 0.086l-0.002 0.001c-0.069 0.049-0.154 0.079-0.247 0.079-0.018 0-0.036-0.001-0.054-0.003l0.002 0c-0.112-0.019-0.208-0.074-0.28-0.152l-0-0c-0.030-0.032-0.057-0.068-0.077-0.107l-0.001-0.003c-0.018-0.028-0.028-0.062-0.028-0.099 0-0.007 0-0.013 0.001-0.020l-0 0.001c0.010-0.072 0.069-0.109 0.127-0.13 0.055-0.019 0.118-0.030 0.183-0.030 0.008 0 0.016 0 0.023 0l-0.001-0zM12.748 9.82l-0.002 0.001c-0.098 0.035-0.179 0.050-0.247 0.080-0.069 0.027-0.125 0.077-0.159 0.141l-0.001 0.002c-0.042 0.077-0.078 0.213-0.067 0.444 0.028 0.020 0.061 0.036 0.096 0.046l0.002 0.001c0.114 0.035 0.305 0.057 0.519 0.054 0.425-0.005 0.949-0.104 1.227-0.233 0.24-0.113 0.447-0.25 0.632-0.412l-0.003 0.002h-0.001c-0.929 0.192-1.453 0.141-1.775 0.008-0.085-0.036-0.158-0.080-0.223-0.134l0.001 0.001zM7.394 9.883h-0.014c-0.035 0.003-0.087 0.015-0.186 0.125-0.232 0.26-0.313 0.423-0.505 0.576s-0.44 0.233-0.937 0.335c-0.157 0.032-0.247 0.067-0.307 0.096 0.019 0.016 0.017 0.020 0.047 0.035 0.073 0.040 0.166 0.075 0.241 0.095 0.213 0.053 0.564 0.115 0.93 0.053s0.747-0.238 1.071-0.693c0.056-0.079 0.062-0.195 0.016-0.319s-0.149-0.232-0.221-0.262c-0.039-0.020-0.085-0.035-0.134-0.041l-0.002-0z"></path>
</svg>
