<!-- Generated by IcoMoon.io -->
<svg version="1.1" xmlns="http://www.w3.org/2000/svg" width="16" height="16" viewBox="0 0 16 16">
<title>powershell</title>
<path fill="#5391fe" d="M15.454 2.051c0.379 0 0.615 0.309 0.528 0.69l-2.439 10.654c-0.087 0.381-0.465 0.69-0.843 0.69h-12.153c-0.379 0-0.615-0.309-0.528-0.69l2.439-10.654c0.087-0.381 0.465-0.69 0.843-0.69zM9.871 8.281c0.167-0.263 0.151-0.603-0.060-0.829l-3.729-3.967c-0.253-0.27-0.691-0.271-0.977-0.003s-0.312 0.705-0.059 0.974l3.108 3.307v0.073l-4.947 3.582c-0.3 0.218-0.355 0.651-0.125 0.969s0.661 0.398 0.96 0.18l5.486-3.939c0.187-0.131 0.292-0.244 0.343-0.347zM8.007 11.214c-0.001-0-0.003-0-0.004-0-0.341 0-0.617 0.275-0.619 0.615v0c0 0.34 0.279 0.615 0.623 0.615h2.955c0.001 0 0.003 0 0.004 0 0.341 0 0.617-0.275 0.619-0.615v-0c-0.002-0.34-0.278-0.615-0.619-0.615-0.001 0-0.003 0-0.004 0h0z"></path>
</svg>
