<!-- Generated by IcoMoon.io -->
<svg version="1.1" xmlns="http://www.w3.org/2000/svg" width="16" height="16" viewBox="0 0 16 16">
<title>prestashop</title>
<path fill="#df0067" d="M7.705 0.689c-4.256 0-7.705 3.451-7.705 7.705 0 0.839 0.134 1.647 0.383 2.398l0.001-0.005c0.102-0.465 0.223-0.863 0.373-1.248l-0.019 0.056 0.007-0.020c0.057-0.148 0.119-0.295 0.185-0.44l0.056-0.121c0.053-0.114 0.11-0.227 0.169-0.338 0.024-0.045 0.047-0.091 0.072-0.135 0.013-0.025 0.029-0.049 0.043-0.073 0.063-0.111 0.127-0.221 0.193-0.329l0.050-0.076c0.083-0.13 0.171-0.257 0.262-0.382l0.023-0.033c0.096-0.129 0.197-0.253 0.301-0.375l0.067-0.079c0.103-0.118 0.21-0.233 0.321-0.345l0.066-0.065c0.114-0.113 0.233-0.222 0.355-0.328l0.009-0.008c0.493-1.653 2.003-2.857 3.791-2.857 0.719 0 1.435 0.207 2.047 0.582 0.63 0.393 1.132 0.937 1.463 1.582l0.015 0.033 0.027 0.049v0.002l0.003 0.001c0.393 0.245 0.735 0.508 1.048 0.802l-0.004-0.003c0.027 0.025 0.054 0.047 0.080 0.073 0.001 0 0.004 0.003 0.005 0.004l-0.001-0.004-0.001-0.003v-0.002l0.028-0.056c0.251-1.589 0.953-2.735 1.78-2.735 0.623 0 1.175 0.65 1.517 1.651l0.003 0.011 0.001 0.001c0.097 0.105 0.191 0.221 0.283 0.347l0.005 0.007 0.014 0.045-0.013-0.052c-1.028-3.046-3.909-5.238-7.301-5.239zM6.618 3.651c-1.561 0.029-3.058 1.103-3.569 2.592l-0.008 0.023c0.257-0.207 0.543-0.405 0.844-0.579l0.032-0.017c1.871-1.104 4.319-1.097 6.185 0.011-0.597-1.102-1.754-1.879-3-2.003-0.128-0.017-0.276-0.027-0.426-0.027-0.021 0-0.042 0-0.063 0.001l0.003-0zM13.174 3.985c-0.094 0.002-0.183 0.019-0.266 0.047l0.006-0.002c-0.843 0.375-1.146 1.382-1.354 2.202l-0.011 0.048c0.243-0.413 0.539-0.81 0.931-1.095 0.557-0.458 1.403-0.437 1.944 0.035 0.205 0.217 0.094 0.005 0.021-0.147-0.228-0.5-0.683-1.102-1.271-1.089zM8.233 5.543l-0.713 2.18-0.001 0.003-0.004 0.001-3.005 0.741 2.971 0.725c0.070 0.073 0.151 0.137 0.24 0.187h0.001c0.028 0.016 0.057 0.030 0.086 0.043l0.007 0.003c0.027 0.012 0.055 0.022 0.084 0.031l0.014 0.005c0.027 0.009 0.053 0.015 0.080 0.021l0.022 0.005c0.063 0.013 0.137 0.021 0.212 0.022h0c0.001 0 0.002 0 0.003 0 0.425 0 0.79-0.258 0.948-0.625l0.003-0.007c0.053-0.124 0.082-0.26 0.082-0.403v-0.007l-0.001-0.008c-0.001-0.036-0.003-0.071-0.007-0.107l-0.001-0.001c-0.005-0.040-0.011-0.075-0.019-0.109l0.001 0.007-0.001-0.003c-0.017-0.073-0.039-0.137-0.067-0.198l0.003 0.006v-0.002c-0.058-0.128-0.136-0.236-0.231-0.326l-0.001-0v-0.002zM10.332 5.961c0.032 0.672 0.024 1.364-0.067 2.038-0.113 1.345-0.793 2.532-1.315 3.744l-0.020 0.053-0.023 0.057c1.007-1.015 2.113-2.027 2.646-3.388 0.255-0.424 0.079-0.895-0.077-1.317-0.113-0.585-0.713-0.852-1.145-1.187zM14.447 6.342l-0.392 1.792c-0.011 0.035-0.022 0.080-0.030 0.126l-0.001 0.007c-0.001 0.013-0.005 0.027-0.007 0.040-0.006 0.044-0.010 0.095-0.011 0.147v0.001l-0.001 0.021h0.002c0 0.419 0.198 0.757 0.442 0.758 0.044-0.001 0.086-0.012 0.123-0.031l-0.002 0.001 0.018-0.010c0.018-0.010 0.033-0.020 0.047-0.032l-0.001 0.001c0.009-0.007 0.016-0.015 0.024-0.022 0.035-0.032 0.065-0.069 0.090-0.11l0.001-0.002 0.020-0.036c0.011-0.019 0.022-0.042 0.033-0.067l0.002-0.005 0.011-0.027c0.013-0.035 0.025-0.072 0.035-0.111l0.001-0.001 0.001-0.002 0.269-0.301-0.271-0.304v0.001l-0.013-0.042zM11.526 6.913c0.46 1.144 0.567 2.471 0.061 3.62-0.327 0.912-1.058 1.642-1.249 2.603 0.487 0.077 0.979 0.117 1.473 0.124 1.444 0.019 2.888-0.28 4.189-0.91-1.36-1.913-2.747-3.837-4.474-5.437zM8.227 7.564c0.215 0 0.389 0.174 0.389 0.389s-0.174 0.389-0.389 0.389v0c-0.215 0-0.389-0.174-0.389-0.389s0.174-0.389 0.389-0.389v0zM14.462 7.811c0.092 0 0.166 0.127 0.166 0.284s-0.074 0.284-0.166 0.284c-0.091 0-0.165-0.127-0.165-0.284s0.073-0.284 0.165-0.284zM11.766 7.933c-0.011 0.075-0.022 0.139-0.033 0.193l-0.004 0.015c-0.007 0.033-0.015 0.063-0.022 0.085-0.32 0.945-0.85 1.68-1.573 2.465-0.098 0.107-0.201 0.213-0.306 0.323-0.267 0.277-0.527 0.539-0.791 0.797l-0.007 0.007c-0.075 0.073-0.173 0.174-0.283 0.291-0.069 0.191-0.147 0.407-0.212 0.633-0.029-0.011-0.057-0.021-0.087-0.033-1.405-0.543-2.346-1.269-2.346-1.269s0.724 0.943 1.943 1.827c0.118 0.086 0.234 0.16 0.348 0.226-0.050 0.796 0.301 1.56 1.887 1.788 0.129 0.018 0.278 0.029 0.43 0.029 0.137 0 0.272-0.009 0.404-0.025l-0.016 0.002-0.007-0.019c-0.001-0.003-0.002-0.005-0.003-0.007l0 0c0 0-0.111-0.089-0.253-0.251-0.151-0.173-0.281-0.369-0.383-0.583l-0.007-0.015c-0.079-0.166-0.141-0.359-0.175-0.561l-0.002-0.013c-0.017-0.101-0.027-0.218-0.027-0.337 0-0.11 0.008-0.218 0.024-0.323l-0.001 0.012c0.011-0.080 0.027-0.161 0.048-0.244 0.062-0.249 0.17-0.515 0.338-0.795l0.001-0.002 0.161-0.269c0.735-1.24 1.198-2.183 1.004-3.627-0.019-0.14-0.037-0.248-0.057-0.355l0.006 0.038zM14.878 8.317l0.001 0.005zM14.887 8.453l0.002 0.024v0.007c0 0.009-0.002 0.017-0.002 0.025 0-0.009 0.002-0.019 0.002-0.029s-0.001-0.017-0.002-0.027zM14.879 8.636v0.001l-0.001 0.007-0.001 0.009zM15.781 12.588c-1.702 0.759-3.627 0.96-5.461 0.671-0.093 0.739 0.256 1.479 0.809 1.953l0.008 0.007c1.802-0.289 3.317-1.445 4.644-2.631z"></path>
</svg>
