<!-- Generated by IcoMoon.io -->
<svg version="1.1" xmlns="http://www.w3.org/2000/svg" width="16" height="16" viewBox="0 0 16 16">
<title>prettier</title>
<path fill="#f7b93e" d="M5.714 15.619c0 0.21-0.17 0.381-0.381 0.381v0h-3.809c-0.21 0-0.381-0.171-0.381-0.381s0.171-0.381 0.381-0.381v0h3.809c0.211 0 0.381 0.171 0.381 0.381zM5.333 13.713h-0.762c-0.21 0-0.381 0.171-0.381 0.381s0.171 0.381 0.381 0.381v0h0.762c0.21 0 0.381-0.171 0.381-0.381s-0.171-0.381-0.381-0.381v0zM1.524 14.475h1.523c0.21 0 0.381-0.171 0.381-0.381s-0.171-0.381-0.381-0.381v0h-1.523c-0.21 0-0.381 0.171-0.381 0.381s0.171 0.381 0.381 0.381v0zM5.333 12.191h-3.809c-0.21 0-0.381 0.171-0.381 0.381s0.171 0.381 0.381 0.381v0h3.809c0.21 0 0.381-0.171 0.381-0.381s-0.171-0.381-0.381-0.381v0zM10.667 10.667h-6.857c-0.21 0-0.381 0.171-0.381 0.381s0.171 0.381 0.381 0.381v0h6.857c0.21 0 0.381-0.171 0.381-0.381s-0.171-0.381-0.381-0.381v0zM1.524 11.429h0.762c0.21 0 0.381-0.171 0.381-0.381s-0.171-0.381-0.381-0.381v0h-0.762c-0.21 0-0.381 0.171-0.381 0.381s0.171 0.381 0.381 0.381v0zM12.953 9.143h-2.286c-0.21 0-0.381 0.171-0.381 0.381s0.171 0.381 0.381 0.381v0h2.286c0.21 0 0.381-0.171 0.381-0.381s-0.171-0.381-0.381-0.381v0zM6.095 9.905h3.047c0.21 0 0.381-0.171 0.381-0.381s-0.171-0.381-0.381-0.381v0h-3.047c-0.21 0-0.381 0.171-0.381 0.381s0.171 0.381 0.381 0.381v0zM1.524 9.905h3.047c0.21 0 0.381-0.171 0.381-0.381s-0.171-0.381-0.381-0.381v0h-3.047c-0.21 0-0.381 0.171-0.381 0.381s0.171 0.381 0.381 0.381v0zM13.713 7.62h-6.093c-0.21 0-0.381 0.17-0.381 0.381s0.17 0.381 0.381 0.381h6.095c0.21-0 0.38-0.171 0.38-0.381s-0.17-0.381-0.381-0.381c-0 0-0 0-0.001 0h0zM6.476 8c0-0.21-0.17-0.381-0.381-0.381v0h-2.286c-0.21 0-0.381 0.17-0.381 0.381s0.17 0.381 0.381 0.381h2.286c0.21 0 0.381-0.17 0.381-0.381v0zM1.524 8.381h0.762c0.21 0 0.381-0.17 0.381-0.381s-0.17-0.381-0.381-0.381h-0.762c-0.21 0-0.381 0.17-0.381 0.381s0.17 0.381 0.381 0.381v0zM14.476 6.095h-3.809c-0.21 0-0.381 0.171-0.381 0.381s0.171 0.381 0.381 0.381v0h3.809c0.21 0 0.381-0.171 0.381-0.381s-0.171-0.381-0.381-0.381v0zM1.524 6.857h3.809c0.21 0 0.381-0.171 0.381-0.381s-0.171-0.381-0.381-0.381v0h-3.809c-0.21 0-0.381 0.171-0.381 0.381s0.171 0.381 0.381 0.381v0zM10.286 4.953c0 0.21 0.17 0.381 0.381 0.381h3.809c0.21 0 0.381-0.171 0.381-0.381s-0.171-0.381-0.381-0.381v0h-3.809c0 0 0 0 0 0-0.21 0-0.381 0.17-0.381 0.381 0 0 0 0 0 0.001v-0zM4.571 4.571c-0.21 0-0.381 0.171-0.381 0.381s0.171 0.381 0.381 0.381v0h0.762c0.21 0 0.381-0.171 0.381-0.381s-0.171-0.381-0.381-0.381v0zM1.524 5.333h1.523c0.21 0 0.381-0.171 0.381-0.381s-0.171-0.381-0.381-0.381v0h-1.523c-0.21 0-0.381 0.171-0.381 0.381s0.171 0.381 0.381 0.381v0zM12.571 3.429c0 0.21 0.171 0.381 0.381 0.381h0.761c0.21 0 0.381-0.171 0.381-0.381s-0.171-0.381-0.381-0.381v0h-0.761c-0 0-0.001 0-0.001 0-0.21 0-0.381 0.17-0.381 0.381 0 0 0 0 0 0.001v-0zM11.809 3.429c0-0 0-0 0-0.001 0-0.21-0.17-0.381-0.381-0.381 0 0 0 0 0 0h-3.049c-0.21 0-0.381 0.171-0.381 0.381s0.171 0.381 0.381 0.381v0h3.048c0 0 0 0 0.001 0 0.21 0 0.381-0.17 0.381-0.381 0 0 0 0 0 0v0zM1.524 3.809h5.333c0.21 0 0.381-0.171 0.381-0.381s-0.171-0.381-0.381-0.381v0h-5.333c-0.21 0-0.381 0.171-0.381 0.381s0.171 0.381 0.381 0.381v0zM4.953 1.905c0 0.211 0.17 0.381 0.381 0.381h7.619c0.21 0 0.381-0.171 0.381-0.381s-0.171-0.381-0.381-0.381v0h-7.619c-0.21 0-0.381 0.17-0.381 0.381v0zM1.524 2.286h2.285c0.21 0 0.381-0.171 0.381-0.381s-0.171-0.381-0.381-0.381v0h-2.285c-0.21 0-0.381 0.171-0.381 0.381s0.171 0.381 0.381 0.381v0zM1.524 0.762h9.143c0.21 0 0.381-0.171 0.381-0.381s-0.171-0.381-0.381-0.381v0h-9.143c-0.21 0-0.381 0.171-0.381 0.381s0.171 0.381 0.381 0.381v0z"></path>
</svg>
