<!-- Generated by IcoMoon.io -->
<svg version="1.1" xmlns="http://www.w3.org/2000/svg" width="16" height="16" viewBox="0 0 16 16">
<title>prismic</title>
<path fill="#484a7a" d="M5.22 2.577h-0.697c-0.001 0-0.002 0-0.003 0-1.073 0-1.943 0.87-1.943 1.943 0 0.001 0 0.002 0 0.004v-0 5.702c0.6 0.359 1.307 0.606 2.062 0.693l0.024 0.002c-0.083-0.162-0.135-0.353-0.14-0.555l-0-0.002v-4.589c-0.069-0.069-0.069-1.738 0.697-3.198zM13.493 5.219v-0.695c0-0.001 0-0.002 0-0.003 0-1.073-0.87-1.943-1.943-1.943-0.001 0-0.002 0-0.004 0h-5.632c-0.358 0.599-0.605 1.306-0.692 2.062l-0.002 0.024c0.14-0.139 0.348-0.139 0.557-0.139h4.52c0.069 0 1.738 0 3.197 0.695zM10.782 13.494h0.695c0.001 0 0.002 0 0.003 0 1.073 0 1.943-0.87 1.943-1.943 0-0.001 0-0.002 0-0.004v0-5.633c-0.6-0.359-1.307-0.606-2.062-0.693l-0.024-0.002c0.14 0.139 0.14 0.347 0.14 0.556v4.52c0 0.069 0 1.738-0.695 3.199zM2.507 10.782v0.695c0 0.001 0 0.002 0 0.003 0 1.073 0.87 1.943 1.943 1.943 0.001 0 0.002 0 0.004 0h5.632c0.359-0.599 0.606-1.306 0.693-2.062l0.002-0.024c-0.139 0.139-0.347 0.139-0.556 0.139h-4.519c-0.069 0-1.738 0-3.199-0.695zM8.835 0.005h-5.007c-2.086 0-3.824 1.738-3.824 3.824 0 0 0.139 3.685 1.599 5.423 0.069 0.139 0.209 0.209 0.347 0.348v-5.145c0-0.002-0-0.004-0-0.007 0-1.418 1.149-2.567 2.567-2.567 0.002 0 0.005 0 0.007 0h1.112c0.209-0.278 0.417-0.487 0.626-0.695 0.626-0.487 1.599-0.904 2.573-1.182zM15.997 8.835v-5.007c0-2.086-1.738-3.824-3.824-3.824 0 0-3.685 0.139-5.424 1.599-0.149 0.080-0.267 0.199-0.345 0.344l-0.002 0.004h5.145c0.002 0 0.004 0 0.006 0 1.418 0 2.567 1.149 2.567 2.567 0 0.002 0 0.004 0 0.006v-0 1.113c0.278 0.209 0.487 0.417 0.695 0.626 0.487 0.625 0.904 1.599 1.182 2.573zM7.167 15.997h5.007c2.085 0 3.824-1.738 3.824-3.824 0 0-0.139-3.685-1.599-5.423-0.069-0.139-0.209-0.209-0.347-0.348v5.145c0 0.002 0 0.004 0 0.007 0 1.418-1.149 2.567-2.567 2.567-0.002 0-0.005 0-0.007-0h-1.112c-0.209 0.278-0.417 0.487-0.626 0.695-0.626 0.487-1.599 0.904-2.573 1.182zM0.005 7.167v5.006c0 2.086 1.738 3.824 3.824 3.824 0 0 3.685-0.139 5.424-1.599 0.139-0.070 0.209-0.209 0.347-0.348h-5.076c-0.002 0-0.004 0-0.006 0-1.418 0-2.567-1.149-2.567-2.567 0-0.002 0-0.004 0-0.006v0-1.113c-0.278-0.209-0.487-0.417-0.695-0.626-0.556-0.625-0.973-1.599-1.251-2.572z"></path>
</svg>
