<!-- Generated by IcoMoon.io -->
<svg version="1.1" xmlns="http://www.w3.org/2000/svg" width="16" height="16" viewBox="0 0 16 16">
<title>probot</title>
<path fill="#00b0d8" d="M8 0.027c-0.642 0-1.162 0.52-1.162 1.162 0 0.514 0.333 0.949 0.795 1.103l0.008 0.002-0.421 1.719h-5.584c-0.904 0-1.637 0.733-1.637 1.637v0 8.686c0 0.904 0.733 1.637 1.637 1.637v0h12.725c0.904 0 1.637-0.733 1.637-1.637v-8.686c0-0.904-0.733-1.637-1.637-1.637h-5.602l-0.411-1.717c0.475-0.153 0.812-0.591 0.812-1.108 0-0.642-0.52-1.162-1.162-1.162v0zM2.622 5.254h10.757c0.734 0 1.329 0.595 1.329 1.329v6.745c0 0.734-0.595 1.329-1.329 1.329v0h-10.757c-0.734 0-1.329-0.595-1.329-1.329v0-6.745c0-0.734 0.595-1.329 1.329-1.329zM4.791 6.795c-1.684 0-3.050 1.366-3.050 3.050s1.366 3.050 3.050 3.050v0c1.684 0 3.050-1.366 3.050-3.050s-1.366-3.050-3.050-3.050v0zM11.287 6.795c-1.684 0-3.050 1.366-3.050 3.050s1.366 3.050 3.050 3.050v0c1.684 0 3.050-1.366 3.050-3.050s-1.366-3.050-3.050-3.050v0zM4.791 7.509c0.012-0 0.026-0 0.039-0 1.291 0 2.337 1.046 2.337 2.337s-1.046 2.337-2.337 2.337c-0.014 0-0.028-0-0.042-0l0.002 0c-1.274-0.022-2.298-1.060-2.298-2.337s1.024-2.315 2.296-2.337l0.002-0zM11.287 7.509c0.012-0 0.026-0 0.039-0 1.291 0 2.337 1.046 2.337 2.337s-1.046 2.337-2.337 2.337c-0.014 0-0.028-0-0.042-0l0.002 0c-1.274-0.022-2.298-1.060-2.298-2.337s1.024-2.315 2.296-2.337l0.002-0zM4.791 8.617c-0.679 0-1.229 0.55-1.229 1.229s0.55 1.229 1.229 1.229v0c0.679 0 1.229-0.55 1.229-1.229s-0.55-1.229-1.229-1.229v0zM11.287 8.617c-0.679 0-1.229 0.55-1.229 1.229s0.55 1.229 1.229 1.229v0c0.679 0 1.229-0.55 1.229-1.229s-0.55-1.229-1.229-1.229v0zM6.669 12.951v1.439h0.471v-1.439zM7.387 12.951v1.439h0.47v-1.439zM8.104 12.951v1.439h0.471v-1.439zM8.822 12.951v1.439h0.471v-1.439zM9.54 12.971v1.4c0.319-0.078 0.552-0.361 0.553-0.699v-0.001c0-0.34-0.236-0.625-0.553-0.7zM6.421 12.989c-0.286 0.1-0.487 0.367-0.487 0.681v0.001c0 0.316 0.204 0.584 0.487 0.681z"></path>
</svg>
