<!-- Generated by IcoMoon.io -->
<svg version="1.1" xmlns="http://www.w3.org/2000/svg" width="16" height="16" viewBox="0 0 16 16">
<title>processwire</title>
<path fill="#ef145f" d="M14.626 3.513c-0.485-0.725-1.293-1.553-2.103-2.089-1.684-1.153-3.635-1.563-5.36-1.384-1.799 0.194-3.34 0.872-4.607 2.003-1.173 1.048-1.948 2.329-2.289 3.551-0.345 1.222-0.299 2.353-0.176 3.205 0.13 0.865 0.561 1.953 0.561 1.953 0.088 0.209 0.21 0.293 0.273 0.329 0.315 0.172 0.831 0.021 1.228-0.425 0.020-0.027 0.031-0.065 0.020-0.097-0.111-0.426-0.151-0.747-0.19-0.995-0.090-0.491-0.13-1.313-0.070-2.073 0.030-0.411 0.11-0.851 0.25-1.313 0.271-0.911 0.841-1.863 1.733-2.653 0.961-0.851 2.193-1.377 3.364-1.513 0.411-0.049 1.192-0.097 2.133 0.135 0.201 0.050 1.062 0.275 1.983 0.899 0.671 0.456 1.211 1.019 1.583 1.575 0.379 0.531 0.79 1.427 0.911 2.083 0.171 0.747 0.171 1.538 0.049 2.309-0.15 0.772-0.421 1.523-0.841 2.183-0.29 0.512-0.891 1.189-1.602 1.697-0.641 0.451-1.372 0.776-2.123 0.956-0.38 0.090-0.761 0.147-1.152 0.16-0.347 0.011-0.808 0-1.131-0.055-0.481-0.077-0.581-0.199-0.691-0.366 0 0-0.077-0.12-0.098-0.441 0.007-2.937 0.006-2.153 0.006-3.677 0-0.431-0.014-0.821-0.010-1.176 0.020-0.582 0.069-0.982 0.485-1.415 0.301-0.319 0.721-0.512 1.185-0.512 0.141 0 0.625 0.007 1.051 0.361 0.457 0.381 0.533 0.903 0.551 1.042 0.104 0.815-0.435 1.423-0.641 1.577-0.256 0.192-0.486 0.285-0.641 0.34-0.331 0.111-0.694 0.143-1.021 0.121-0.050-0.003-0.095 0.029-0.105 0.079l-0.11 0.571c-0.107 0.433 0.133 0.592 0.273 0.648 0.447 0.138 0.844 0.195 1.314 0.16 0.721-0.051 1.431-0.335 2.035-0.897 0.513-0.488 0.806-1.090 0.906-1.763 0.1-0.747-0.030-1.552-0.371-2.233-0.375-0.751-1.021-1.379-1.873-1.722-0.861-0.339-1.545-0.351-2.428-0.125l-0.010 0.003c-0.573 0.197-1.064 0.441-1.575 0.968-0.35 0.364-0.637 0.805-0.811 1.302-0.173 0.501-0.22 0.875-0.228 1.457-0.011 0.431 0.010 0.831 0.010 1.205v2.467c0 0.789-0.027 0.926 0 1.332 0.015 0.269 0.052 0.574 0.17 0.901 0.121 0.361 0.376 0.731 0.551 0.901 0.245 0.261 0.556 0.47 0.862 0.6 0.701 0.311 1.652 0.361 2.423 0.331 0.511-0.019 1.024-0.090 1.527-0.209 1.007-0.239 1.973-0.675 2.823-1.279 0.911-0.642 1.703-1.518 2.141-2.262 0.561-0.884 0.923-1.876 1.112-2.895 0.17-1.021 0.162-2.069-0.066-3.075-0.18-0.933-0.661-1.957-1.215-2.784z"></path>
</svg>
