<!-- Generated by IcoMoon.io -->
<svg version="1.1" xmlns="http://www.w3.org/2000/svg" width="16" height="16" viewBox="0 0 16 16">
<title>prometheus</title>
<path fill="#e6522c" d="M8 0c-4.418 0-8 3.581-8 8s3.582 8 8 8 8-3.582 8-8c0-4.419-3.582-8-8-8zM8 14.973c-1.257 0-2.276-0.84-2.276-1.876h4.552c0 1.035-1.019 1.875-2.276 1.876zM11.76 12.477h-7.52v-1.364h7.52zM11.733 10.411h-7.473c-0.025-0.029-0.050-0.057-0.074-0.087-0.77-0.934-0.951-1.422-1.127-1.919-0.003-0.017 0.933 0.191 1.597 0.341 0 0 0.342 0.079 0.841 0.17-0.48-0.562-0.765-1.277-0.765-2.007 0-1.604 1.23-3.005 0.787-4.138 0.432 0.035 0.893 0.911 0.925 2.281 0.459-0.634 0.651-1.793 0.651-2.503 0-0.735 0.485-1.59 0.969-1.619-0.432 0.713 0.112 1.323 0.596 2.837 0.181 0.569 0.158 1.527 0.298 2.134 0.047-1.261 0.263-3.101 1.063-3.737-0.353 0.8 0.053 1.801 0.329 2.283 0.447 0.776 0.719 1.365 0.719 2.477-0.003 0.764-0.282 1.463-0.744 2.002l0.004-0.004c0.528-0.099 0.893-0.189 0.893-0.189l1.715-0.335c0 0-0.249 1.025-1.206 2.013z"></path>
</svg>
