<!-- Generated by IcoMoon.io -->
<svg version="1.1" xmlns="http://www.w3.org/2000/svg" width="16" height="16" viewBox="0 0 16 16">
<title>protonmail</title>
<path fill="#8b89cc" d="M8 13.568c0 0-0.731-0.072-1.303-0.47s-4.387-3.125-4.387-3.125v5.399c0 0 0.032 0.629 0.723 0.629h9.933c0.691 0 0.723-0.628 0.723-0.628v-5.4c0 0-3.815 2.728-4.387 3.127-0.573 0.397-1.303 0.469-1.303 0.469zM8 0.001c0 0-4.717-0.155-5.69 5.081v3.567c0 0 0.040 0.381 1.113 1.157 1.071 0.775 3.849 2.957 4.578 2.957 0.725 0 3.503-2.182 4.577-2.958 1.071-0.776 1.112-1.158 1.112-1.158v-3.567c-0.973-5.233-5.69-5.078-5.69-5.079zM11.231 7.025h-6.46v-1.943c0.656-2.6 3.229-2.636 3.229-2.636s2.575 0.036 3.231 2.636z"></path>
</svg>
