<!-- Generated by IcoMoon.io -->
<svg version="1.1" xmlns="http://www.w3.org/2000/svg" width="16" height="16" viewBox="0 0 16 16">
<title>proto-dot-io</title>
<path fill="#34a7c1" d="M8 7.998c-0.485 0-0.877-0.393-0.877-0.878s0.392-0.878 0.877-0.878 0.877 0.393 0.877 0.877-0.392 0.879-0.877 0.879zM9.944 7.984c0-1.885-0.739-3.598-1.944-4.865-1.205 1.267-1.944 2.98-1.944 4.865 0 0.865 0.156 1.69 0.44 2.455-0.412 0.6-0.716 1.44-0.85 2.411 0.426-0.511 0.948-0.871 1.528-1.061 0.242 0.37 0.52 0.731 0.826 1.049 0.307-0.329 0.584-0.68 0.826-1.060 0.58 0.181 1.102 0.551 1.527 1.051-0.133-0.971-0.437-1.811-0.85-2.41 0.285-0.77 0.44-1.59 0.44-2.46zM8 14.667c-3.682 0-6.667-2.985-6.667-6.667s2.985-6.667 6.667-6.667 6.667 2.985 6.667 6.667-2.985 6.667-6.667 6.667zM8 0c-4.418 0-8 3.582-8 8s3.582 8 8 8 8-3.582 8-8-3.582-8-8-8z"></path>
</svg>
