<!-- Generated by IcoMoon.io -->
<svg version="1.1" xmlns="http://www.w3.org/2000/svg" width="16" height="16" viewBox="0 0 16 16">
<title>proxmox</title>
<path fill="#e57000" d="M3.285 1.217c-0.727 0.369-0.727 0.427-0.047 1.187 3.77 4.197 4.669 5.188 4.738 5.188 0.093 0.011 5.314-5.695 5.372-5.867 0.023-0.047-0.139-0.208-0.346-0.357-0.277-0.208-0.576-0.289-1.141-0.311-1.060-0.069-1.429 0.161-2.743 1.637-0.599 0.669-1.107 1.222-1.107 1.222-0.011 0-0.507-0.542-1.095-1.199s-1.268-1.315-1.499-1.442c-0.531-0.3-1.614-0.323-2.133-0.057zM0.865 2.911c-0.565 0.219-0.865 0.427-0.865 0.587 0 0.081 0.887 1.119 1.96 2.306 1.083 1.187 1.959 2.179 1.959 2.201s-0.887 1.015-1.96 2.202c-1.083 1.199-1.948 2.247-1.936 2.34 0.057 0.311 1.003 0.703 1.694 0.703 1.119-0.012 1.372-0.208 3.735-2.801 1.187-1.303 2.155-2.409 2.155-2.444 0-0.046-0.957-1.129-2.133-2.42-1.533-1.672-2.282-2.421-2.64-2.583-0.541-0.265-1.417-0.311-1.971-0.092zM13.176 2.991c-0.335 0.173-1.176 1.003-2.629 2.594-1.175 1.291-2.133 2.375-2.133 2.421s0.969 1.141 2.156 2.444c2.363 2.593 2.617 2.789 3.735 2.801 0.692 0 1.637-0.392 1.695-0.703 0.011-0.104-0.853-1.141-1.937-2.329-1.072-1.187-1.96-2.19-1.96-2.213s0.888-1.026 1.96-2.213c1.083-1.186 1.948-2.225 1.937-2.317-0.058-0.3-0.911-0.645-1.649-0.692-0.53-0.023-0.807 0.023-1.175 0.207zM5.303 11.315c-1.429 1.579-2.605 2.916-2.629 2.973-0.023 0.047 0.139 0.208 0.347 0.358 0.276 0.207 0.576 0.288 1.141 0.311 1.049 0.069 1.441-0.173 2.767-1.672 0.576-0.645 1.072-1.187 1.083-1.187s0.507 0.541 1.095 1.199c1.349 1.499 1.706 1.717 2.755 1.66 0.565-0.023 0.865-0.104 1.141-0.311 0.207-0.15 0.369-0.311 0.346-0.357-0.058-0.173-5.28-5.879-5.372-5.867-0.046 0-1.245 1.303-2.674 2.893z"></path>
</svg>
