<!-- Generated by IcoMoon.io -->
<svg version="1.1" xmlns="http://www.w3.org/2000/svg" width="16" height="16" viewBox="0 0 16 16">
<title>publons</title>
<path fill="#369" d="M0 0v16h16v-16zM6.893 3.4c0.055 0.009 0.076 0.064 0.104 0.105 0.036 0.236 0.067 0.473 0.103 0.71 0.105-0.108 0.207-0.219 0.327-0.309 0.578-0.444 1.367-0.627 2.073-0.42 0.48 0.14 0.877 0.48 1.171 0.877 0.125 0.175 0.232 0.365 0.3 0.57 0.132 0.388 0.15 0.804 0.132 1.21-0.035 0.747-0.289 1.496-0.779 2.069-0.43 0.51-1.040 0.855-1.731 0.939l-0.013 0.001c-0.096 0.011-0.208 0.017-0.32 0.017-0.411 0-0.802-0.084-1.157-0.236l0.019 0.007c0.013 0.673 0.021 1.345 0.025 2.019 0.014 0.31-0.014 0.625 0.058 0.931 0.021 0.093 0.082 0.195 0.187 0.205 0.201 0.024 0.405 0.009 0.608 0.013 0.038 0 0.087 0.025 0.084 0.067 0.003 0.124 0.006 0.249-0.003 0.373-0.031 0.061-0.113 0.047-0.17 0.048-0.442-0.024-0.959-0.037-1.479-0.037s-1.037 0.013-1.551 0.040l0.072-0.003-0.047-0.037c-0.003-0.147-0.042-0.311 0.023-0.447 0.2-0.023 0.404 0.013 0.603-0.021 0.127-0.032 0.179-0.173 0.197-0.289 0.027-0.213 0.018-0.428 0.028-0.642v-5.595c0-0.104 0.004-0.207-0.005-0.31-0.009-0.178-0.095-0.334-0.225-0.436l-0.001-0.001c-0.135-0.105-0.292-0.177-0.441-0.259-0.055-0.035-0.121-0.065-0.153-0.125-0.005-0.029-0.007-0.063-0.007-0.097 0-0.045 0.005-0.089 0.013-0.132l-0.001 0.004c0.037-0.044 0.096-0.057 0.146-0.081 0.487-0.21 0.971-0.424 1.457-0.635 0.113-0.045 0.231-0.096 0.356-0.094zM8.22 4.164c-0.035 0-0.069 0-0.104 0.009-0.411 0.044-0.764 0.258-0.993 0.569l-0.003 0.004c0.003 0.96 0 1.92 0.002 2.88 0.003 0.218 0.049 0.451 0.201 0.616 0.349 0.341 0.868 0.461 1.343 0.395 0.385-0.064 0.691-0.359 0.853-0.703 0.229-0.491 0.263-1.047 0.223-1.581-0.035-0.437-0.121-0.875-0.299-1.277-0.123-0.271-0.295-0.529-0.541-0.703-0.184-0.132-0.414-0.211-0.662-0.211-0.007 0-0.015 0-0.022 0l0.001-0z"></path>
</svg>
