<!-- Generated by IcoMoon.io -->
<svg version="1.1" xmlns="http://www.w3.org/2000/svg" width="16" height="16" viewBox="0 0 16 16">
<title>purescript</title>
<path d="M12.773 3.067l-0.827 0.827 2.647 2.647-2.647 2.647 0.827 0.827 3.053-3.067c0.105-0.105 0.17-0.25 0.17-0.41s-0.065-0.305-0.17-0.41v0zM4.633 4.493l1.247 1.167h5.487l-1.247-1.167zM3.233 5.987l-3.067 3.067c-0.105 0.105-0.17 0.25-0.17 0.41s0.065 0.305 0.17 0.41v0l3.067 3.060 0.82-0.827-2.647-2.647 2.647-2.647zM5.88 7.413l-1.247 1.173h5.487l1.247-1.173zM4.633 10.34l1.247 1.167h5.487l-1.247-1.167z"></path>
</svg>
