<!-- Generated by IcoMoon.io -->
<svg version="1.1" xmlns="http://www.w3.org/2000/svg" width="16" height="16" viewBox="0 0 16 16">
<title>px</title>
<path fill="#0099e5" d="M4.959 6.007c-1.1 0.002-1.992 0.893-1.993 1.993v0c0.001 1.1 0.893 1.992 1.993 1.993h0c1.1-0.002 1.992-0.893 1.993-1.993v-0c-0.001-1.1-0.893-1.992-1.993-1.993h-0zM4.959 9.569c-0.865 0-1.569-0.704-1.569-1.569s0.705-1.569 1.569-1.569 1.569 0.704 1.569 1.569-0.704 1.569-1.569 1.569zM9.274 6.007c-1.1 0.002-1.992 0.893-1.993 1.993v0c0.001 1.1 0.893 1.992 1.993 1.993h0c1.1-0.002 1.992-0.893 1.993-1.993v-0c-0.002-1.1-0.893-1.992-1.993-1.993h-0zM9.274 9.569c-0.865 0-1.569-0.704-1.569-1.569s0.703-1.569 1.569-1.569c0.865 0 1.569 0.704 1.569 1.569s-0.704 1.569-1.569 1.569zM1.533 7.202c-0.061-0.009-0.131-0.015-0.202-0.015-0.326 0-0.627 0.112-0.865 0.299l0.003-0.002v-1.057h1.791c0.062 0 0.107-0.011 0.107-0.195 0-0.179-0.072-0.187-0.12-0.187h-1.983c-0.116 0-0.177 0.093-0.177 0.196v1.735c0 0.091 0.058 0.122 0.165 0.143 0.094 0.019 0.149 0.008 0.19-0.038l0.004-0.007c0.189-0.272 0.6-0.536 0.991-0.488 0.466 0.057 0.841 0.429 0.893 0.885 0.004 0.035 0.007 0.075 0.007 0.115 0 0.556-0.451 1.008-1.007 1.008h-0c-0.423 0-0.793-0.272-0.947-0.667-0.023-0.059-0.061-0.101-0.229-0.041-0.153 0.055-0.162 0.121-0.141 0.179 0.202 0.543 0.715 0.922 1.317 0.924h0c0.771-0.004 1.394-0.63 1.394-1.401 0-0.699-0.512-1.279-1.182-1.384l-0.008-0.001zM12.63 6.026c-0.537 0.041-0.956 0.513-0.956 1.073v1.774c0 0.103 0.078 0.124 0.195 0.124s0.195-0.021 0.195-0.124v-1.779c0-0.349 0.255-0.649 0.579-0.683 0.021-0.002 0.045-0.004 0.070-0.004 0.168 0 0.321 0.064 0.436 0.169l-0.001-0c0.132 0.12 0.215 0.293 0.215 0.485 0 0 0 0 0 0.001v-0c0 0.053-0.026 0.227-0.145 0.387-0.090 0.121-0.261 0.266-0.563 0.266h-0.006c-0.077 0-0.143 0.003-0.156 0.187-0.009 0.124-0.008 0.179 0.099 0.193 0.191 0.027 0.384-0.011 0.577-0.111 0.328-0.171 0.548-0.494 0.574-0.845 0.002-0.024 0.003-0.051 0.003-0.079 0-0.287-0.116-0.547-0.304-0.736l0 0c-0.188-0.187-0.447-0.303-0.734-0.303-0.028 0-0.055 0.001-0.082 0.003l0.004-0zM15.243 7.065l0.723-0.723c0.027-0.026 0.088-0.088-0.037-0.216-0.053-0.055-0.102-0.083-0.145-0.083h-0.001c-0.032 0.001-0.061 0.016-0.081 0.038l-0 0-0.725 0.725-0.724-0.729c-0.059-0.059-0.127-0.045-0.215 0.043-0.090 0.091-0.105 0.16-0.046 0.219l0.724 0.728-0.714 0.714c-0.017 0.017-0.043 0.042-0.043 0.083s0.028 0.093 0.084 0.149c0.047 0.047 0.092 0.071 0.133 0.071 0.046 0 0.076-0.030 0.093-0.047l0.712-0.711 0.727 0.728c0.019 0.019 0.046 0.030 0.075 0.030 0 0 0.001 0 0.001-0h0.001c0.046 0 0.095-0.027 0.145-0.079 0.081-0.086 0.095-0.157 0.041-0.213z"></path>
</svg>
