<!-- Generated by IcoMoon.io -->
<svg version="1.1" xmlns="http://www.w3.org/2000/svg" width="16" height="16" viewBox="0 0 16 16">
<title>pypi</title>
<path fill="#3775a9" d="M15.948 9.053v2.608l-2.248 0.819-0.052 0.037 0.035 0.025 2.3-0.837 0.017-0.024v-2.665l-0.035-0.024zM15.747 3.745l-2.027 0.738v2.608l2.226-0.81v-2.609zM15.947 8.971v-2.609l-2.224 0.81v2.609zM13.647 9.807v-2.607l-2.2 0.8v2.609zM11.356 13.331v-2.608l-2.209 0.804v2.608zM11.447 10.705v2.579l2.209-0.804v-2.579zM12.842 11.959c-0.245 0.089-0.442-0.049-0.442-0.309s0.197-0.543 0.442-0.631c0.243-0.089 0.441 0.050 0.441 0.309s-0.198 0.543-0.441 0.631zM8.817 6.21l0.243-0.088-2.19-0.798-2.215 0.807 0.068 0.025 2.123 0.773zM13.671 7.109v-2.609l-2.225 0.809v2.609zM11.372 7.945v-2.609l-2.201 0.801v2.608zM9.095 6.164l-2.224 0.81v2.609l2.224-0.81zM4.605 8.777l2.215 0.806v-2.609l-2.215-0.806zM6.893 5.249l2.187 0.795v-2.579l-2.187-0.795zM13.671 1.81l-2.211 0.805v2.609l2.211-0.805zM11.3 2.602l-2.151-0.782-2.179 0.793 2.15 0.783zM10.243 3.071l-1.083 0.395v2.579l2.211-0.805v-2.579zM9.983 4.923c-0.245 0.089-0.441-0.049-0.441-0.309s0.197-0.542 0.441-0.631c0.244-0.089 0.442 0.049 0.442 0.309s-0.198 0.542-0.442 0.631zM6.819 12.273v-2.609l-2.215-0.806v2.609zM9.119 11.455v-2.609l-2.247 0.818v2.609zM9.171 11.436l2.2-0.8v-2.609l-2.2 0.8zM9.119 14.145l-2.247 0.818v-2.608h-0.052v2.608l-2.215-0.806v-2.609l-0.035-0.039-0.017-0.040-2.224-0.807v-2.632l0.023 0.009 2.191 0.797 0.010-0.052-2.174-0.791 2.173-0.791v-0.073l-2.173-0.791 2.173-0.792v0.585l0.053-0.037v-1.582l2.171 0.79 0.039-0.041-2.161-0.787 2.16-0.786v-0.055l-2.245 0.817v0.012l-0.017 0.012v1.015l-2.259 0.823v0.013l-0.017 0.011v2.671l-2.26 0.822v0.013l-0.017 0.012v2.663l0.017 0.025 2.267 0.825 0.005-0.004 0.005 0.007 2.267 0.825 0.005-0.004 0.004 0.007 2.267 0.825 0.009-0.006 0.008 0.007 2.3-0.837 0.017-0.025zM2.329 6.375l2.171 0.79-2.171 0.791zM2.267 13.307l-2.215-0.805v-2.609l2.214 0.806zM2.277 10.647l-2.175-0.791 2.175-0.791zM4.543 14.134l-2.214-0.806v-2.608l2.214 0.806zM15.861 3.623l-2.14-0.78v1.559zM13.591 1.762l-2.16-0.787-2.18 0.793 2.165 0.788z"></path>
</svg>
