<!-- Generated by IcoMoon.io -->
<svg version="1.1" xmlns="http://www.w3.org/2000/svg" width="16" height="16" viewBox="0 0 16 16">
<title>pytorch</title>
<path fill="#ee4c2c" d="M8.003 0.027l-4.687 4.687c-1.2 1.188-1.943 2.837-1.943 4.658s0.743 3.47 1.943 4.658l0.001 0.001c1.189 1.2 2.837 1.943 4.659 1.943s3.47-0.743 4.658-1.943l0.001-0.001c2.647-2.591 2.648-6.781 0.056-9.317l-1.159 1.158c1.93 1.93 1.93 5.072 0 7.002s-5.072 1.929-7.002 0c-1.929-1.93-1.929-5.073 0-7.002l3.088-3.087 0.387-0.442zM10.374 2.617c-0.487 0-0.882 0.395-0.882 0.882v0c0 0.487 0.395 0.882 0.882 0.882v0c0.487 0 0.882-0.395 0.882-0.882v0c0-0.487-0.395-0.882-0.882-0.882v0z"></path>
</svg>
