<!-- Generated by IcoMoon.io -->
<svg version="1.1" xmlns="http://www.w3.org/2000/svg" width="16" height="16" viewBox="0 0 16 16">
<title>qemu</title>
<path fill="#f60" d="M8.002 0.043c-4.418 0-8.002 3.562-8.002 7.957s3.584 7.957 8.002 7.957c1.446 0 2.8-0.38 3.97-1.047l0.416 1.047h3.227l-1.262-3.119c1.027-1.32 1.647-3.001 1.647-4.826 0-0.004 0-0.008-0-0.012v0.001c0-4.395-3.58-7.957-7.998-7.957zM5.879 1.353c0.265 0.226 0.216 0.132 0.573 0.089 0.407-0.265 0.595 0.628 0.765 0.13 0.499 0.065 1.028 0.227 1.5 0.389 0.499 0.117 0.924 0.383 1.237 0.749l0.003 0.003-0.009 0.005 0.233 0.309c0.030 0.053 0.055 0.109 0.080 0.165 0.095 0.803 0.987 0.793 1.585 1.083 0.511 0.181 1.127 0.457 1.19 1.074-0.129-0.028-0.627-0.614-1.020-0.671-0.268-0.023-0.516-0.084-0.747-0.176l0.018 0.006-1.379-0.255v-0.005c-0.081-0.010-0.151-0.022-0.22-0.038l0.014 0.003v0.009l-1.951-0.241c0.032 0.022 0.067 0.051 0.099 0.080l2 0.39v-0.005l0.139 0.035 0.559 0.125c0.111 0.011 0.223 0.029 0.313 0.045 0.571 0.157 1.245 0.129 1.714 0.528-0.123 0.235-0.807 0.102-1.146 0.072-0.041-0.008-0.087-0.015-0.129-0.023l-0.023-0.005c-0.464-0.075-0.941-0.080-1.387 0.059h-0.005c-0.171 0.055-0.319 0.123-0.457 0.207l0.009-0.005c-0.645 0.375-1.443 0.511-1.978 1.051-0.525 0.565-0.493 1.341-0.403 2.063h0.022v0.183c0.009 0.063 0.019 0.127 0.027 0.188 0.273 1.46 1 2.8 1.227 4.275 0.043 0.562 0.135 1.288 0.206 1.745-0.204-0.061-0.317-0.975-0.363-0.671-0.756-1.331-1.542-2.475-2.414-3.547l0.037 0.047c-0.569-0.669-1.131-1.373-1.808-1.929-0.457-0.352-0.312-1.033-0.358-1.535-0.153-0.617-0.063-1.232 0.040-1.849 0.209-0.642 0.279-1.312 0.564-1.929 0.435-0.387 0.446-1.087 0.869-1.423 0.063 0.039 0.105 0.057 0.133 0.067l0.045 0.005h0.005c0.060-0.063-0.592-0.744 0.013-0.475 0.023-0.358 0.569-0.085 0.577-0.398zM8.443 2.808c-0.215 0.006-0.383 0.087-0.43 0.223-0.076 0.22 0.182 0.503 0.577 0.64s0.779 0.073 0.855-0.147-0.181-0.508-0.577-0.645c-0.123-0.045-0.265-0.071-0.413-0.071-0.004 0-0.008 0-0.013 0h0.001z"></path>
</svg>
