<!-- Generated by IcoMoon.io -->
<svg version="1.1" xmlns="http://www.w3.org/2000/svg" width="16" height="16" viewBox="0 0 16 16">
<title>qgis</title>
<path fill="#589632" d="M8.586 8.671v2.433l-2.003-2.032v-2.33h2.388l1.901 1.929zM15.843 13.741v2.259h-2.436l-3.82-3.933v-2.367h2.236zM8.625 12.776l2.248 2.247c-0.873 0.295-1.705 0.484-2.883 0.484-4.565-0.001-7.989-3.345-7.989-7.797 0-4.43 3.424-7.71 7.989-7.71 4.587 0 8.011 3.301 8.011 7.71 0 1.413-0.349 2.717-0.971 3.839l-2.417-2.483c0.102-0.399 0.16-0.857 0.16-1.329 0-0.003 0-0.006 0-0.009v0c0-2.861-2.099-5.018-4.733-5.018-2.636 0-4.832 2.157-4.832 5.018s2.22 5.067 4.831 5.067c0.365 0 0.441 0.011 0.587-0.020z"></path>
</svg>
