<!-- Generated by IcoMoon.io -->
<svg version="1.1" xmlns="http://www.w3.org/2000/svg" width="16" height="16" viewBox="0 0 16 16">
<title>qiita</title>
<path fill="#55c500" d="M5.255 7.743c0-1.28-0.983-2.603-2.649-2.603-1.281-0.001-2.606 0.981-2.606 2.645 0 1.28 0.983 2.603 2.649 2.603 0.534 0 1.068-0.171 1.517-0.491l0.769 0.768 0.342-0.341-0.727-0.725c0.449-0.491 0.705-1.131 0.705-1.857zM2.606 5.61c1.218 0 2.179 0.939 2.179 2.155 0 1.046-0.812 2.155-2.158 2.155s-2.157-1.088-2.157-2.133c0-1.366 1.089-2.177 2.136-2.177zM6.515 6.655h0.449v3.627h-0.449zM6.729 6.165c-0 0-0.001 0-0.001 0-0.211 0-0.383-0.171-0.383-0.383 0-0 0-0.001 0-0.001v0c0-0.213 0.171-0.384 0.384-0.384s0.385 0.171 0.385 0.384-0.171 0.384-0.385 0.384zM8.545 6.165c-0.001 0-0.001 0-0.002 0-0.211 0-0.383-0.171-0.383-0.383 0-0 0-0.001 0-0.001v0c0-0.213 0.171-0.384 0.385-0.384s0.385 0.171 0.385 0.384-0.171 0.384-0.385 0.384zM8.331 6.655h0.449v3.627h-0.449zM11.471 10.347c-0.833 0-1.325-0.64-1.325-1.28v-3.414h0.449v1.003h1.581v0.448h-1.58v1.985c0 0.405 0.32 0.832 0.875 0.832 0.149 0 0.299-0.043 0.427-0.128l0.043-0.021 0.213 0.384-0.043 0.021c-0.192 0.107-0.427 0.171-0.641 0.171zM14.441 10.368c-1.218 0-1.944-0.96-1.944-1.899 0-1.217 0.961-1.942 1.901-1.942 0.491 0 0.876 0.171 1.153 0.491v-0.363h0.449v3.627h-0.449v-0.405c-0.256 0.32-0.641 0.491-1.111 0.491zM14.398 6.975c-0.727 0-1.453 0.555-1.453 1.493 0 0.726 0.556 1.451 1.496 1.451 0.427 0 0.855-0.192 1.132-0.533v-1.878c-0.282-0.327-0.696-0.533-1.159-0.533-0.005 0-0.011 0-0.016 0h0.001z"></path>
</svg>
