<!-- Generated by IcoMoon.io -->
<svg version="1.1" xmlns="http://www.w3.org/2000/svg" width="16" height="16" viewBox="0 0 16 16">
<title>qualcomm</title>
<path fill="#3253dc" d="M8 0c-3.847 0-6.949 2.991-6.949 6.983 0 4.003 3.102 6.983 6.949 6.983 0.656 0 1.29-0.089 1.89-0.256l0.756 1.946c0.078 0.211 0.234 0.345 0.511 0.345h1.201c0.289 0 0.5-0.189 0.367-0.556l-0.978-2.546c1.924-1.212 3.202-3.358 3.202-5.926 0-3.981-3.102-6.972-6.949-6.972zM11.024 11.041l-0.878-2.279c-0.078-0.189-0.233-0.367-0.567-0.367h-1.145c-0.289 0-0.511 0.189-0.378 0.556l1.156 2.991c-0.378 0.1-0.789 0.145-1.212 0.145-2.813 0-4.814-2.213-4.814-5.104s2.001-5.104 4.814-5.104 4.814 2.213 4.814 5.104c0 1.69-0.678 3.136-1.79 4.058z"></path>
</svg>
