<!-- Generated by IcoMoon.io -->
<svg version="1.1" xmlns="http://www.w3.org/2000/svg" width="16" height="16" viewBox="0 0 16 16">
<title>quarkus</title>
<path fill="#4695eb" d="M8.525 10.642l2.581-1.491v-2.98l-2.581 1.49zM8.772 10.785l2.335 1.349v-2.695zM10.966 5.642v-2.695l-2.335 1.347zM8.385 4.437l-2.582 1.491 2.582 1.491 2.581-1.491zM8.137 4.294l-2.335-1.347v2.695zM11.354 6.314v2.695l2.334-1.347zM8.244 10.642v-2.981l-2.581-1.491v2.981zM5.415 6.313l-2.335 1.348 2.335 1.347zM5.662 9.437v2.695l2.335-1.348zM13.338 0.089h-10.685c-1.459 0-2.653 1.179-2.653 2.62v10.555c0 1.441 1.193 2.62 2.653 2.62h7.317l-1.975-4.739-1.433 2.992h-3.909c-0.48 0-0.885-0.4-0.885-0.873v-10.555c0-0.473 0.405-0.873 0.885-0.873h10.685c0.479 0 0.885 0.4 0.885 0.873v10.555c0 0.473-0.405 0.873-0.885 0.873h-2.319l0.728 1.747h1.591c1.459 0 2.653-1.179 2.653-2.62v-10.555c0-1.441-1.193-2.62-2.653-2.62z"></path>
</svg>
