<!-- Generated by IcoMoon.io -->
<svg version="1.1" xmlns="http://www.w3.org/2000/svg" width="16" height="16" viewBox="0 0 16 16">
<title>quicktime</title>
<path fill="#1c69f0" d="M8 0c-0.001 0-0.001 0-0.002 0-4.418 0-8 3.582-8 8s3.582 8 8 8c1.647 0 3.178-0.498 4.451-1.352l-0.029 0.018 1.32 1.313h2.093l0.167-0.167v-2.1l-1.333-1.32c0.832-1.235 1.33-2.756 1.333-4.392v-0.001c0-4.418-3.582-8-8-8v0zM8 2.8c2.87 0.002 5.196 2.329 5.196 5.2 0 0.859-0.208 1.669-0.577 2.382l0.014-0.029-3.5-3.507c-0.29-0.29-0.691-0.469-1.133-0.469-0.885 0-1.603 0.718-1.603 1.603 0 0.443 0.179 0.843 0.469 1.133v0l3.513 3.507c-0.691 0.365-1.51 0.58-2.38 0.58v0c-2.872 0-5.2-2.328-5.2-5.2s2.328-5.2 5.2-5.2v0z"></path>
</svg>
