<!-- Generated by IcoMoon.io -->
<svg version="1.1" xmlns="http://www.w3.org/2000/svg" width="16" height="16" viewBox="0 0 16 16">
<title>quip</title>
<path fill="#f27557" d="M14.769 14.769h-6.769c-0.008 0-0.018 0-0.027 0-1.935 0-3.678-0.819-4.903-2.13l-0.004-0.004c-1.293-1.375-1.94-3.175-1.821-5.069 0.21-3.394 2.927-6.112 6.321-6.323 0.147-0.009 0.293-0.013 0.438-0.013 0.006-0 0.013-0 0.020-0 1.787 0 3.411 0.699 4.613 1.839l-0.003-0.003c1.315 1.228 2.135 2.971 2.135 4.907 0 0.009-0 0.019-0 0.028v-0.001zM13.477 2.169c-1.625-1.527-3.751-2.293-5.987-2.153-4.012 0.25-7.225 3.463-7.475 7.475-0.138 2.235 0.627 4.362 2.154 5.987 1.465 1.551 3.534 2.518 5.829 2.522h7.385c0.34 0 0.615-0.275 0.615-0.615v-7.385c-0.004-2.296-0.971-4.365-2.519-5.826l-0.004-0.004zM10.769 10.154h-5.539c-0.34 0-0.615 0.275-0.615 0.615s0.276 0.615 0.615 0.615h5.539c0.34 0 0.615-0.275 0.615-0.615s-0.275-0.615-0.615-0.615v0zM5.231 5.847h5.539c0.34 0 0.616-0.276 0.616-0.616s-0.276-0.616-0.616-0.616v0h-5.539c-0.34 0-0.616 0.276-0.616 0.616s0.276 0.616 0.616 0.616v0zM3.385 7.385c-0.331 0.011-0.595 0.282-0.595 0.615s0.264 0.604 0.594 0.615l0.001 0h9.231c0.34 0 0.615-0.275 0.615-0.615s-0.275-0.615-0.615-0.615v0z"></path>
</svg>
