<!-- Generated by IcoMoon.io -->
<svg version="1.1" xmlns="http://www.w3.org/2000/svg" width="16" height="16" viewBox="0 0 16 16">
<title>quora</title>
<path fill="#b92b27" d="M8.492 12.467c-0.554-1.090-1.203-2.191-2.472-2.191-0.241 0-0.485 0.041-0.706 0.139l-0.431-0.859c0.524-0.452 1.372-0.809 2.462-0.809 1.696 0 2.567 0.819 3.259 1.861 0.409-0.89 0.603-2.093 0.603-3.583 0-3.721-1.163-5.631-3.881-5.631-2.679 0-3.838 1.91-3.838 5.631 0 3.702 1.159 5.593 3.838 5.593 0.427 0 0.813-0.046 1.167-0.15zM9.156 13.765c-0.587 0.158-1.211 0.244-1.829 0.244-3.568 0-7.060-2.846-7.060-6.985 0.001-4.177 3.492-7.024 7.060-7.024 3.627 0 7.085 2.825 7.085 7.025 0 2.336-1.090 4.234-2.673 5.461 0.509 0.765 1.029 1.276 1.768 1.276 0.799 0 1.12-0.61 1.18-1.099h1.038c0.061 0.649-0.268 3.338-3.177 3.338-1.768 0-2.698-1.019-3.397-2.219z"></path>
</svg>
