<!-- Generated by IcoMoon.io -->
<svg version="1.1" xmlns="http://www.w3.org/2000/svg" width="16" height="16" viewBox="0 0 16 16">
<title>qwiklabs</title>
<path fill="#f5cd0e" d="M9.564 12.137c1.618-0.645 2.741-2.198 2.741-4.014 0-2.379-1.927-4.307-4.305-4.309h-0c-0.001 0-0.002 0-0.003 0-2.379 0-4.308 1.929-4.308 4.308 0 1.818 1.126 3.372 2.718 4.005l0.029 0.010c0.053 0.023 0.115 0.037 0.181 0.037 0.251 0 0.456-0.202 0.46-0.452v-3.6c0-0.51 0.413-0.923 0.923-0.923s0.923 0.413 0.923 0.923v3.6c0.005 0.251 0.21 0.452 0.461 0.452 0.065 0 0.126-0.013 0.182-0.037l-0.003 0.001zM10.103 15.842c3.398-0.923 5.897-4.030 5.897-7.721 0-4.418-3.582-8-8-8s-8 3.582-8 8c0 3.691 2.499 6.797 5.897 7.721 0.007 0.002 0.018 0.005 0.030 0.008l0.003 0.001 0.039 0.011 0.001-0.001c0.056 0.012 0.12 0.019 0.185 0.019 0.51 0 0.923-0.413 0.923-0.923 0-0.425-0.287-0.783-0.679-0.891l-0.006-0.002c-2.641-0.731-4.547-3.113-4.547-5.941 0-3.399 2.755-6.154 6.154-6.154s6.154 2.755 6.154 6.154c0 2.826-1.905 5.208-4.501 5.93l-0.043 0.010c-0.398 0.109-0.685 0.467-0.685 0.892 0 0.51 0.413 0.923 0.923 0.923 0.066 0 0.13-0.007 0.191-0.020l-0.006 0.001 0.001 0.001 0.039-0.011z"></path>
</svg>
