<!-- Generated by IcoMoon.io -->
<svg version="1.1" xmlns="http://www.w3.org/2000/svg" width="16" height="16" viewBox="0 0 16 16">
<title>qzone</title>
<path fill="#fece00" d="M15.99 6.135c-0.021-0.066-0.085-0.149-0.223-0.172s-4.901-0.937-4.901-0.937-0.070-0.015-0.132-0.047c-0.061-0.031-0.085-0.111-0.085-0.111s-2.352-4.23-2.417-4.354c-0.066-0.125-0.163-0.159-0.233-0.159s-0.167 0.034-0.233 0.159c-0.065 0.124-2.417 4.354-2.417 4.354s-0.023 0.080-0.085 0.111c-0.061 0.031-0.131 0.047-0.131 0.047s-4.763 0.913-4.901 0.937c-0.139 0.024-0.201 0.107-0.222 0.172-0.006 0.023-0.009 0.049-0.009 0.075 0 0.087 0.035 0.167 0.092 0.224l-0-0 3.575 3.66c0 0 0.048 0.053 0.079 0.115 0.011 0.069 0.003 0.14 0.003 0.14s-0.793 4.828-0.813 4.967 0.050 0.246 0.106 0.287c0.055 0.041 0.155 0.071 0.281 0.009s4.541-2.174 4.541-2.174 0.065-0.029 0.134-0.041 0.134 0.041 0.134 0.041 4.415 2.112 4.541 2.174c0.125 0.063 0.225 0.033 0.281-0.009 0.068-0.057 0.11-0.142 0.11-0.236 0-0.018-0.002-0.035-0.004-0.052l0 0.002c-0.014-0.093-0.62-3.785-0.62-3.785 0.584-0.36 0.95-0.693 1.233-1.165-1.729 0.646-4.004 1.145-6.277 1.244-0.61 0.027-1.607 0.065-2.315-0.010-0.452-0.047-0.78-0.096-0.829-0.292-0.035-0.143 0.036-0.307 0.363-0.554-3.716 2.69-3.096 2.219-2.475 1.748l4.382-3.185c0.857-0.645 2.373-1.647 2.373-1.821 0-0.19-1.429-0.521-2.691-0.521-1.297 0-1.517 0.088-1.874 0.112-0.325 0.023-0.513 0.003-0.536-0.092-0.040-0.165 0.122-0.259 0.392-0.379 0.473-0.209 1.24-0.396 1.323-0.417 0.129-0.035 2.055-0.537 3.745-0.357 0.879 0.093 2.163 0.445 2.163 0.851 0 0.228-1.147 0.996-2.15 1.731-0.766 0.562-1.478 1.041-1.478 1.125 0 0.228 2.355 0.827 4.459 0.673l0.002-0.015c0.032-0.061 0.079-0.115 0.079-0.115l3.575-3.66c0.058-0.058 0.093-0.137 0.093-0.225 0-0.026-0.003-0.052-0.009-0.076l0 0.002z"></path>
</svg>
