<!-- Generated by IcoMoon.io -->
<svg version="1.1" xmlns="http://www.w3.org/2000/svg" width="16" height="16" viewBox="0 0 16 16">
<title>r</title>
<path fill="#276dc3" d="M8 12.547c-4.418 0-8-2.399-8-5.358s3.582-5.358 8-5.358 8 2.399 8 5.358-3.582 5.358-8 5.358zM9.225 3.925c-3.359 0-6.081 1.64-6.081 3.663s2.722 3.663 6.080 3.663 5.837-1.121 5.837-3.663-2.479-3.663-5.837-3.663zM12.183 10.129c0.304 0.092 0.558 0.19 0.803 0.304l-0.037-0.016c0.149 0.075 0.277 0.167 0.388 0.277l-0-0c0.069 0.073 0.129 0.158 0.175 0.249l0.003 0.006 1.909 3.217-3.085 0.001-1.442-2.709c-0.141-0.248-0.299-0.463-0.479-0.657l0.002 0.002c-0.091-0.101-0.221-0.164-0.366-0.167h-0.733v3.528l-2.729 0.001v-9.010h5.481c0 0 2.496 0.045 2.496 2.42 0 0.003 0 0.006 0 0.009 0 1.35-1.050 2.455-2.378 2.542l-0.008 0zM10.997 7.112l-1.653-0.001v1.532h1.653c0.003 0 0.006 0 0.010 0 0.418 0 0.756-0.338 0.756-0.756 0-0.008-0-0.017-0-0.025l0 0.001c0.001-0.012 0.001-0.026 0.001-0.040 0-0.394-0.319-0.713-0.713-0.713-0.019 0-0.037 0.001-0.056 0.002l0.002-0z"></path>
</svg>
