<!-- Generated by IcoMoon.io -->
<svg version="1.1" xmlns="http://www.w3.org/2000/svg" width="16" height="16" viewBox="0 0 16 16">
<title>rabbitmq</title>
<path fill="#f60" d="M14.8 6.493h-4.727c-0.378-0.045-0.666-0.378-0.666-0.77v-4.96c0.001-0.423-0.343-0.763-0.762-0.763h-1.654c-0.423 0-0.763 0.343-0.763 0.763v5.012c-0.021 0.378-0.333 0.683-0.707 0.717h-1.238c-0.364-0.045-0.645-0.35-0.669-0.718v-5.011c0-0.423-0.343-0.763-0.763-0.763h-1.655c-0.423 0-0.763 0.343-0.763 0.763v14.473c0 0.423 0.343 0.763 0.763 0.763h13.607c0.423 0 0.763-0.343 0.763-0.763v-7.981c-0.003-0.423-0.343-0.763-0.766-0.763zM12.623 11.966c0 0.423-0.343 0.763-0.763 0.763h-1.654c-0.423 0-0.763-0.343-0.763-0.763v-1.561c0-0.423 0.343-0.763 0.763-0.763h1.654c0.423 0 0.763 0.343 0.763 0.763z"></path>
</svg>
