<!-- Generated by IcoMoon.io -->
<svg version="1.1" xmlns="http://www.w3.org/2000/svg" width="16" height="16" viewBox="0 0 16 16">
<title>radiopublic</title>
<path fill="#ce262f" d="M9.292 2.715c2.171-0.189 4.341-1.318 6.512-0.357v13.259c-2.994-1.326-5.989 1.326-8.983 0v-2.332c-2.209 0.18-4.417 1.325-6.625 0.359v-13.259c3.032 1.326 6.064-1.326 9.096 0zM10.945 9.913c0.262-0.057 0.523-0.116 0.784-0.173 1.157-0.253 1.618-0.935 1.617-2.009v-1.731c0-1.057-0.298-1.727-1.704-1.423-0.784 0.171-1.567 0.362-2.351 0.43v8.645c0.551-0.048 1.103-0.157 1.655-0.276zM10.945 8.507v-2.44l0.311-0.068c0.387-0.086 0.422 0.104 0.423 0.418v1.441c0 0.267-0.037 0.496-0.423 0.581zM4.354 11.407v-3.695l0.348-0.076c0.336-0.073 0.435 0.010 0.435 0.417v2.522c0 0.383 0.063 0.556 0.149 0.631 0.552-0.115 1.103-0.215 1.654-0.251v-0.058c-0.061-0.1-0.137-0.257-0.136-0.629v-2.94c0-0.641-0.449-0.887-0.709-0.933 0.31-0.181 0.734-0.535 0.733-1.253v-1.381c0-0.927-0.509-1.417-1.517-1.203-0.87 0.181-1.741 0.404-2.612 0.479v8.646c0.551-0.048 1.103-0.155 1.655-0.273zM4.354 6.283v-2.185c0.124-0.027 0.249-0.053 0.373-0.081 0.335-0.073 0.41 0.027 0.41 0.399v1.173c0 0.407-0.123 0.549-0.46 0.623z"></path>
</svg>
