<!-- Generated by IcoMoon.io -->
<svg version="1.1" xmlns="http://www.w3.org/2000/svg" width="16" height="16" viewBox="0 0 16 16">
<title>rails</title>
<path fill="#c00" d="M13.923 10.54v0.776h1.321c0.271 0 0.735-0.21 0.752-0.797v-0.3c0-0.501-0.388-0.797-0.752-0.797h-0.659v-0.36h1.305v-0.78h-1.253c-0.323 0-0.756 0.283-0.756 0.81v0.27c0 0.527 0.428 0.797 0.756 0.797 0.909 0.004-0.218 0 0.622 0v0.377zM6.844 10.352c0 0 0.707-0.064 0.707-1.033s-0.857-1.059-0.857-1.059h-1.543v3.056h0.776v-0.737l0.671 0.737h1.147zM6.545 9.726h-0.618v-0.699h0.622c0 0 0.174 0.069 0.174 0.347s-0.178 0.351-0.178 0.351zM9.467 8.282h-0.788c-0.562 0-0.752 0.54-0.752 0.797v2.237h0.788v-0.536h0.739v0.536h0.764v-2.237c0-0.651-0.558-0.797-0.752-0.797zM9.455 9.915h-0.743v-0.741c0 0 0-0.167 0.246-0.167h0.271c0.218 0 0.222 0.167 0.222 0.167v0.741zM10.578 8.282h0.82v3.034h-0.82zM12.549 10.532v-2.25h-0.816v3.034h1.919v-0.784zM0.283 11.316h3.192c0 0-0.61-2.953 1.41-4.149 0.44-0.227 1.842-1.076 4.137 0.724 0.073-0.064 0.141-0.116 0.141-0.116s-2.101-2.224-4.44-1.976c-1.176 0.111-2.622 1.247-3.471 2.747s-0.97 2.769-0.97 2.769zM0.283 11.316h3.192c0 0-0.61-2.953 1.41-4.149 0.44-0.227 1.842-1.076 4.137 0.724 0.073-0.064 0.141-0.116 0.141-0.116s-2.101-2.224-4.44-1.976c-1.176 0.111-2.622 1.247-3.471 2.747s-0.97 2.769-0.97 2.769zM0.283 11.316h3.192c0 0-0.61-2.953 1.41-4.149 0.44-0.227 1.842-1.076 4.137 0.724 0.073-0.064 0.141-0.116 0.141-0.116s-2.101-2.224-4.44-1.976c-1.18 0.111-2.626 1.247-3.475 2.747s-0.966 2.769-0.966 2.769zM6.933 6.040l0.016-0.287c-0.036-0.021-0.137-0.073-0.392-0.15l-0.016 0.283c0.133 0.047 0.263 0.099 0.392 0.154zM6.549 6.949l-0.016 0.27c0.133 0.004 0.267 0.021 0.4 0.051l0.016-0.266c-0.137-0.030-0.271-0.047-0.4-0.056zM5.055 5.612h0.040l-0.081-0.261c-0.125 0-0.255 0.009-0.388 0.026l0.077 0.253c0.117-0.013 0.234-0.017 0.352-0.017zM5.248 7.189l0.093 0.296c0.117-0.060 0.234-0.111 0.352-0.15l-0.089-0.283c-0.137 0.043-0.255 0.090-0.356 0.137zM3.414 6.062l-0.182-0.296c-0.101 0.056-0.206 0.116-0.315 0.184l0.186 0.3c0.105-0.069 0.206-0.133 0.311-0.189zM4.242 7.99l0.194 0.309c0.069-0.107 0.149-0.206 0.238-0.304l-0.182-0.291c-0.093 0.090-0.178 0.189-0.251 0.287zM3.657 9.37l0.327 0.274c0.016-0.167 0.044-0.334 0.085-0.501l-0.291-0.244c-0.053 0.159-0.089 0.317-0.121 0.471zM1.887 7.335l-0.287-0.266c-0.105 0.107-0.206 0.214-0.299 0.321l0.311 0.283c0.085-0.116 0.178-0.231 0.275-0.339zM0.667 9.25l-0.465-0.18c-0.077 0.184-0.162 0.399-0.202 0.514l0.465 0.18c0.053-0.146 0.137-0.356 0.202-0.514zM3.596 10.459c0.008 0.227 0.028 0.411 0.048 0.54l0.485 0.184c-0.036-0.167-0.073-0.356-0.097-0.557z"></path>
</svg>
