<!-- Generated by IcoMoon.io -->
<svg version="1.1" xmlns="http://www.w3.org/2000/svg" width="16" height="16" viewBox="0 0 16 16">
<title>raspberrypi</title>
<path fill="#c51a4a" d="M10.741 11.559c-0.571 0.659-0.889 1.86-0.473 2.247 0.397 0.299 1.467 0.261 2.257-0.82 0.573-0.72 0.379-1.929 0.054-2.248-0.487-0.37-1.185 0.109-1.838 0.829zM5.369 11.759c-0.605-0.693-1.392-1.105-1.901-0.799-0.34 0.255-0.403 1.123 0.082 1.978 0.719 1.016 1.731 1.119 2.147 0.871 0.439-0.325 0.2-1.425-0.329-2.050zM8.106 13.855c-0.735-0.017-1.865 0.293-1.851 0.688-0.012 0.269 0.887 1.048 1.803 1.009 0.884 0.020 1.799-0.759 1.788-1.099-0.003-0.349-0.999-0.618-1.738-0.589zM8.056 4.559c-0.85-0.021-1.668 0.622-1.668 0.995-0.003 0.453 0.672 0.917 1.673 0.929 1.029 0.007 1.679-0.373 1.688-0.84 0.011-0.529-0.929-1.093-1.679-1.085zM6.009 4.914c-1.423-0.23-2.609 0.6-2.561 2.128 0.047 0.589 3.087-2.027 2.562-2.118zM12.508 7.081c0.047-1.518-1.139-2.347-2.563-2.117-0.525 0.090 2.515 2.707 2.563 2.117zM12.751 7.631c-0.826-0.219-0.28 3.366 0.392 3.077 0.739-0.579 0.977-2.297-0.392-3.067zM2.819 10.747c0.671 0.3 1.218-3.286 0.393-3.067-1.369 0.769-1.132 2.487-0.393 3.077zM9.095 6.782c-0.764 0.5-0.903 1.619-0.307 2.497 0.594 0.879 1.695 1.209 2.461 0.719 0.764-0.489 0.902-1.608 0.308-2.497s-1.697-1.209-2.461-0.709zM7.031 6.872c-0.764-0.489-1.866-0.169-2.459 0.709-0.595 0.889-0.457 2.008 0.307 2.507s1.866 0.179 2.461-0.709c0.59-0.879 0.45-1.998-0.31-2.497zM9.944 11.647c-0.006-0.929-0.835-1.679-1.854-1.668-1.018 0.011-1.841 0.759-1.836 1.688v0.019c0.007 0.929 0.836 1.678 1.855 1.668 1.018 0 1.837-0.759 1.828-1.678v-0.019zM12.083 1.558c-1.538 0.789-2.435 1.419-2.926 1.959 0.251 0.999 1.563 1.039 2.042 1.008-0.098-0.040-0.181-0.099-0.21-0.179 0.12-0.080 0.547-0.011 0.845-0.17-0.114-0.020-0.168-0.041-0.219-0.13 0.279-0.090 0.583-0.16 0.761-0.31-0.095 0-0.185 0.020-0.311-0.060 0.251-0.129 0.519-0.239 0.73-0.439-0.131 0-0.271 0-0.311-0.050 0.231-0.14 0.423-0.29 0.585-0.469-0.181 0.030-0.26 0.011-0.303-0.020 0.174-0.17 0.395-0.319 0.499-0.54-0.135 0.051-0.261 0.060-0.348 0 0.061-0.129 0.313-0.209 0.46-0.519-0.143 0.020-0.294 0.031-0.324 0 0.065-0.259 0.179-0.409 0.29-0.569-0.305 0-0.767 0-0.745-0.019l0.189-0.19c-0.299-0.080-0.603 0.010-0.824 0.080-0.099-0.070 0-0.17 0.123-0.27-0.26 0.041-0.489 0.090-0.689 0.171-0.109-0.1 0.070-0.19 0.16-0.291-0.399 0.080-0.559 0.18-0.729 0.28-0.12-0.11-0.010-0.209 0.069-0.299-0.299 0.109-0.449 0.249-0.609 0.379-0.060-0.069-0.139-0.119-0.040-0.299-0.209 0.12-0.369 0.26-0.489 0.419-0.129-0.089-0.079-0.199-0.079-0.299-0.22 0.18-0.36 0.36-0.529 0.541-0.041-0.021-0.070-0.1-0.090-0.231-0.519 0.5-1.259 1.749-0.19 2.237 0.899-0.729 1.987-1.269 3.186-1.669zM3.911 1.558c1.199 0.4 2.279 0.939 3.185 1.679 1.064-0.5 0.329-1.749-0.188-2.237-0.027 0.129-0.057 0.219-0.090 0.239-0.17-0.18-0.308-0.36-0.525-0.54 0 0.1 0.051 0.22-0.078 0.3-0.117-0.159-0.273-0.3-0.483-0.42 0.099 0.171 0.017 0.22-0.037 0.299-0.16-0.15-0.31-0.289-0.599-0.399 0.080 0.099 0.2 0.2 0.080 0.31-0.159-0.099-0.329-0.2-0.719-0.28 0.090 0.099 0.269 0.2 0.159 0.3-0.21-0.081-0.44-0.141-0.69-0.172 0.121 0.1 0.228 0.193 0.128 0.27-0.23-0.080-0.537-0.17-0.837-0.090l0.189 0.189c0.020 0.025-0.439 0.020-0.747 0.023 0.11 0.15 0.225 0.299 0.29 0.569-0.030 0.030-0.18 0.011-0.322 0 0.15 0.299 0.399 0.38 0.459 0.51-0.090 0.064-0.209 0.050-0.349 0 0.109 0.209 0.329 0.359 0.499 0.54-0.049 0.029-0.12 0.049-0.309 0.025 0.159 0.173 0.349 0.329 0.579 0.469-0.040 0.047-0.181 0.046-0.319 0.050 0.209 0.203 0.479 0.309 0.729 0.442-0.13 0.091-0.22 0.070-0.31 0.070 0.17 0.15 0.48 0.219 0.759 0.309-0.060 0.090-0.109 0.11-0.229 0.13 0.299 0.169 0.719 0.090 0.839 0.18-0.030 0.079-0.109 0.139-0.209 0.18 0.479 0.030 1.798-0.010 2.048-1.009-0.491-0.538-1.389-1.168-2.927-1.947zM5.067 0.069c0.157-0.005 0.291 0.090 0.435 0.134 0.353-0.113 0.433 0.042 0.607 0.106 0.385-0.080 0.501 0.094 0.686 0.279l0.215-0.006c0.579 0.338 0.87 1.024 0.971 1.377 0.101-0.353 0.389-1.039 0.971-1.377l0.214 0.005c0.185-0.189 0.302-0.359 0.686-0.279 0.174-0.070 0.253-0.22 0.607-0.111 0.22-0.069 0.413-0.25 0.705-0.030 0.245-0.099 0.484-0.13 0.697 0.060 0.33-0.040 0.435 0.041 0.516 0.14 0.072 0 0.539-0.069 0.755 0.24 0.54-0.060 0.709 0.309 0.516 0.659 0.11 0.17 0.225 0.329-0.033 0.65 0.1 0.179 0.041 0.369-0.18 0.609 0.061 0.249-0.049 0.42-0.249 0.559 0.040 0.34-0.32 0.54-0.419 0.609-0.041 0.2-0.121 0.389-0.53 0.489-0.059 0.299-0.309 0.349-0.549 0.409 0.79 0.45 1.459 1.039 1.459 2.487l0.121 0.199c0.899 0.539 1.708 2.268 0.449 3.676-0.079 0.439-0.219 0.749-0.341 1.099-0.179 1.409-1.388 2.067-1.707 2.147-0.459 0.35-0.959 0.68-1.628 0.909-0.628 0.641-1.317 0.891-1.996 0.891h-0.061c-0.689 0-1.375-0.25-2.008-0.89-0.671-0.229-1.169-0.559-1.631-0.909-0.319-0.080-1.522-0.738-1.708-2.147-0.125-0.349-0.263-0.669-0.345-1.108-1.263-1.409-0.454-3.137 0.444-3.677l0.115-0.2c0-1.448 0.67-2.038 1.459-2.487-0.239-0.060-0.48-0.11-0.549-0.41-0.41-0.1-0.49-0.289-0.53-0.489-0.1-0.070-0.459-0.269-0.419-0.619-0.2-0.141-0.31-0.31-0.25-0.569-0.209-0.231-0.269-0.43-0.18-0.61-0.26-0.319-0.139-0.489-0.030-0.649-0.19-0.35-0.020-0.729 0.519-0.669 0.209-0.31 0.68-0.239 0.749-0.239 0.081-0.1 0.19-0.19 0.519-0.15 0.209-0.19 0.45-0.16 0.699-0.068 0.101-0.080 0.191-0.109 0.271-0.109z"></path>
</svg>
