<!-- Generated by IcoMoon.io -->
<svg version="1.1" xmlns="http://www.w3.org/2000/svg" width="16" height="16" viewBox="0 0 16 16">
<title>reactrouter</title>
<path fill="#ca4245" d="M8.079 3.644c-0.004-0-0.009-0-0.014-0-0.143 0-0.281 0.019-0.412 0.056l0.011-0.003c-0.185 0.045-0.468 0.221-0.635 0.389-0.273 0.282-0.327 0.406-0.441 0.979-0.053 0.282 0.273 0.953 0.565 1.156 0.3 0.211 0.723 0.335 1.377 0.405 0.953 0.107 1.227 0.424 1.227 1.465 0 0.918-0.257 1.165-1.307 1.271-1.138 0.115-1.72 0.556-1.843 1.411-0.071 0.521 0.273 1.173 0.75 1.394 1.085 0.512 2.1-0.132 2.311-1.464 0.141-0.856 0.415-1.095 1.332-1.165 1.059-0.089 1.606-0.45 1.809-1.191 0.185-0.68-0.203-1.438-0.865-1.703-0.176-0.071-0.582-0.159-0.9-0.194-0.997-0.107-1.253-0.283-1.359-0.927-0.15-0.891-0.211-1.041-0.529-1.393-0.265-0.297-0.648-0.484-1.075-0.487h-0zM4.889 6.551c-0.009-0-0.019-0-0.029-0-0.107 0-0.211 0.012-0.312 0.034l0.010-0.002c-0.979 0.212-1.447 1.367-0.9 2.197 0.785 1.183 2.629 0.635 2.647-0.785 0.008-0.795-0.653-1.429-1.415-1.444zM1.393 9.46c-0.102 0.003-0.2 0.015-0.295 0.037l0.010-0.002c-1.439 0.317-1.491 2.417-0.071 2.788 0.353 0.097 0.388 0.097 0.741 0.009 0.794-0.212 1.244-0.971 1.033-1.738-0.185-0.68-0.763-1.109-1.418-1.093zM14.609 9.465c-0.155 0.001-0.318 0.039-0.523 0.108-0.927 0.318-1.244 1.395-0.653 2.224 0.371 0.529 1.307 0.705 1.88 0.344 0.944-0.583 0.909-2.038-0.062-2.497-0.253-0.124-0.442-0.181-0.642-0.179z"></path>
</svg>
