<!-- Generated by IcoMoon.io -->
<svg version="1.1" xmlns="http://www.w3.org/2000/svg" width="16" height="16" viewBox="0 0 16 16">
<title>reactos</title>
<path fill="#08c" d="M13.473 16c-0.765-0.005-1.651-0.223-2.593-0.61-1.882-0.775-4.027-2.248-6.024-4.245s-3.473-4.142-4.247-6.025c-0.775-1.882-0.864-3.547 0.050-4.461 0.913-0.913 2.578-0.825 4.461-0.049 0.204 0.083 0.411 0.177 0.621 0.277-0.221 0.075-0.439 0.16-0.649 0.255l-0.094-0.039c-1.776-0.731-3.199-0.757-3.926-0.031s-0.7 2.147 0.031 3.923c0.731 1.775 2.157 3.862 4.098 5.803 1.94 1.941 4.029 3.367 5.805 4.098s3.193 0.757 3.92 0.030c0.727-0.727 0.704-2.147-0.027-3.923-0.072-0.175-0.153-0.354-0.239-0.535 0.089-0.211 0.167-0.428 0.236-0.649 0.188 0.36 0.353 0.713 0.496 1.059 0.775 1.882 0.861 3.547-0.053 4.461-0.457 0.457-1.101 0.665-1.865 0.66zM2.527 16c-0.765 0.005-1.411-0.203-1.868-0.66-0.913-0.913-0.825-2.579-0.050-4.461 0.157-0.381 0.345-0.773 0.557-1.173 0.065 0.222 0.141 0.44 0.227 0.652-0.073 0.14-0.17 0.353-0.262 0.569l-0.029 0.077c-0.731 1.775-0.755 3.196-0.028 3.923s2.147 0.701 3.923-0.030c0.615-0.253 2.014-1.127 2.684-1.539 0.144 0.108 0.289 0.213 0.433 0.316-0.771 0.489-2.277 1.42-2.995 1.716-0.941 0.387-1.827 0.605-2.593 0.61zM9.029 13.028c-0.143-0.093-0.286-0.188-0.43-0.289 0.807-0.628 1.525-1.263 2.201-1.94l0-0c1.941-1.941 3.367-4.027 4.098-5.803s0.755-3.196 0.028-3.923c-0.727-0.727-2.145-0.703-3.92 0.028l-0.048 0.019c-0.168-0.078-0.386-0.163-0.61-0.238l-0.050-0.015c0.197-0.093 0.391-0.181 0.583-0.26 1.883-0.775 3.547-0.861 4.461 0.052s0.825 2.576 0.050 4.459c-0.775 1.882-2.251 4.031-4.247 6.027-0.653 0.654-1.343 1.271-2.067 1.846l-0.049 0.038zM10.329 13.799c-0.217-0.113-1.199-0.715-1.423-0.849 0.668-0.537 1.615-1.313 2.264-1.963 1.145-1.145 2.654-3.191 3.441-4.37-0.005 0.074-0.062 1.66-0.070 1.733-0.267 2.508-1.919 4.574-4.167 5.433l-0.045 0.015zM5.71 13.776c-2.271-0.872-4.029-3.14-4.191-5.465-0.007-0.101-0.040-0.266-0.036-0.656 0.005-0.401 0.037-0.949 0.106-0.855 0.691 0.947 2.651 3.637 3.568 4.553 0.649 0.649 1.285 1.083 1.953 1.62-0.111 0.081-0.568 0.348-1.029 0.609l-0.371 0.194zM7.997 12.304c-0.844-0.644-1.593-1.302-2.295-2.006l-0.001-0.001c-1.693-1.693-2.975-3.503-3.712-5.055 0.967-2.398 3.315-4.092 6.058-4.092 2.701 0 5.020 1.643 6.013 3.984-0.729 1.575-2.030 3.43-3.762 5.162-0.704 0.705-1.455 1.363-2.248 1.968l-0.054 0.039z"></path>
</svg>
