<!-- Generated by IcoMoon.io -->
<svg version="1.1" xmlns="http://www.w3.org/2000/svg" width="16" height="16" viewBox="0 0 16 16">
<title>readthedocs</title>
<path fill="#8ca1af" d="M1.839 16l0.443-0.096c0.138-0.029 0.275-0.057 0.413-0.084 0.212-0.041 0.425-0.082 0.637-0.121 0.16-0.031 0.32-0.057 0.481-0.086l0.037-0.010c0.167-0.029 0.332-0.060 0.498-0.080l0.809-0.119v-15.404h-0.028c-0.42 0.003-0.837 0.011-1.256 0.024-0.459 0.012-0.929 0.040-1.389 0.070-0.199 0.014-0.4 0.031-0.599 0.047h-0.030v15.856zM5.941 0.010v15.295c0.574-0.067 1.147-0.121 1.721-0.164 1.414-0.107 2.832-0.141 4.249-0.101 0.752 0.023 1.502 0.066 2.249 0.128v-14.166c-0.669-0.153-1.341-0.288-2.019-0.405-1.312-0.228-2.637-0.387-3.965-0.487-0.743-0.054-1.489-0.088-2.235-0.099zM13.116 9.875l-0.031-0.003-0.374-0.041c-0.933-0.097-1.87-0.161-2.805-0.194-0.938-0.030-1.877-0.020-2.815 0.011h-0.029c-0.030 0-0.061 0-0.090-0.011-0.067-0.020-0.13-0.049-0.178-0.099-0.085-0.091-0.124-0.21-0.104-0.33 0.005-0.041 0.019-0.070 0.036-0.111 0.018-0.029 0.042-0.069 0.069-0.089 0.029-0.030 0.060-0.050 0.095-0.069 0.041-0.020 0.081-0.031 0.12-0.041h0.060c0.13 0 0.261-0.011 0.38-0.011 0.93-0.019 1.849-0.019 2.779 0.020 0.959 0.040 1.909 0.11 2.859 0.22l0.101 0.010c0.029 0.011 0.059 0.011 0.090 0.020 0.070 0.031 0.129 0.070 0.17 0.121 0.029 0.029 0.049 0.069 0.070 0.109 0.019 0.041 0.029 0.080 0.029 0.12 0.010 0.11-0.029 0.22-0.109 0.3-0.031 0.031-0.061 0.050-0.090 0.070-0.031 0.020-0.070 0.029-0.111 0.040-0.020 0.011-0.030 0.011-0.059 0.011h-0.031zM13.139 8.067c-0.029 0-0.029 0-0.060-0.004l-0.37-0.047c-0.93-0.119-1.869-0.2-2.799-0.239-0.93-0.050-1.87-0.060-2.809-0.040l-0.031-0.011c-0.030-0.010-0.060-0.010-0.090-0.019-0.060-0.020-0.129-0.060-0.169-0.111-0.020-0.030-0.051-0.069-0.060-0.099-0.050-0.111-0.050-0.241 0.009-0.35 0.021-0.041 0.041-0.070 0.070-0.1s0.060-0.060 0.1-0.069c0.041-0.020 0.079-0.040 0.12-0.040l0.060-0.011 0.39-0.010c0.931-0.011 1.849 0.010 2.769 0.060 0.959 0.050 1.91 0.14 2.859 0.26l0.099 0.011 0.061 0.009c0.070 0.021 0.129 0.050 0.18 0.111 0.080 0.079 0.12 0.189 0.11 0.299 0 0.041-0.011 0.081-0.030 0.11-0.019 0.040-0.041 0.069-0.060 0.1-0.020 0.029-0.049 0.050-0.091 0.080-0.029 0.019-0.069 0.030-0.109 0.041l-0.061 0.009h-0.028zM13.139 6.26c-0.029 0-0.029 0-0.060-0.004l-0.37-0.053c-0.93-0.127-1.859-0.223-2.799-0.285-0.93-0.061-1.87-0.090-2.809-0.086h-0.031l-0.060-0.011c-0.039-0.011-0.069-0.024-0.109-0.045-0.1-0.061-0.171-0.169-0.19-0.292 0-0.041 0-0.080 0.011-0.12 0.009-0.041 0.019-0.078 0.039-0.113s0.051-0.068 0.081-0.096c0.049-0.050 0.12-0.084 0.19-0.1 0.030-0.007 0.059-0.010 0.090-0.010h0.379c0.959 0.006 1.919 0.043 2.869 0.115 0.93 0.070 1.849 0.173 2.769 0.305l0.1 0.014c0.031 0.005 0.041 0.005 0.060 0.013 0.040 0.013 0.080 0.031 0.11 0.053 0.041 0.022 0.069 0.050 0.090 0.082s0.041 0.067 0.060 0.105c0.041 0.104 0.030 0.223-0.019 0.319-0.019 0.037-0.041 0.070-0.070 0.097-0.050 0.049-0.109 0.085-0.18 0.1-0.019 0.008-0.031 0.008-0.061 0.009l-0.029 0.003zM13.139 4.452c-0.029 0-0.029 0-0.060-0.005l-0.37-0.060c-0.93-0.15-1.859-0.261-2.799-0.331-0.93-0.079-1.87-0.119-2.809-0.139h-0.031l-0.070-0.009c-0.041-0.010-0.077-0.030-0.11-0.049-0.035-0.021-0.066-0.051-0.093-0.081-0.024-0.030-0.045-0.069-0.063-0.099-0.013-0.040-0.025-0.080-0.029-0.121-0.011-0.12 0.035-0.247 0.121-0.329 0.049-0.050 0.117-0.083 0.186-0.1 0.030-0.010 0.060-0.010 0.090-0.010 0.126 0 0.253 0.003 0.38 0.005 0.958 0.023 1.914 0.075 2.869 0.164 0.925 0.079 1.847 0.2 2.763 0.349l0.090 0.011c0.027 0 0.035 0 0.060 0.009 0.041 0.011 0.075 0.031 0.11 0.051 0.031 0.019 0.060 0.049 0.083 0.079 0.061 0.090 0.090 0.201 0.070 0.31-0.010 0.041-0.021 0.070-0.041 0.111-0.020 0.030-0.049 0.069-0.080 0.090-0.049 0.049-0.11 0.079-0.181 0.099h-0.090zM2.693 4.113c-0.060 0-0.121-0.014-0.181-0.042-0.129-0.063-0.209-0.195-0.219-0.337 0-0.038 0.010-0.074 0.020-0.11 0.009-0.045 0.030-0.089 0.060-0.127 0.030-0.043 0.069-0.080 0.109-0.108 0.051-0.033 0.111-0.051 0.161-0.061l0.32-0.029c0.439-0.039 0.87-0.070 1.299-0.096h0.040c0.070 0.003 0.13 0.016 0.181 0.047 0.129 0.069 0.209 0.203 0.209 0.346 0 0.037-0.010 0.073-0.019 0.107-0.011 0.045-0.030 0.088-0.061 0.126-0.029 0.050-0.069 0.080-0.11 0.11-0.049 0.030-0.1 0.049-0.16 0.060-0.069 0.010-0.139 0.010-0.209 0.020-0.091 0.010-0.191 0.010-0.291 0.021l-0.779 0.059-0.19 0.021c-0.041 0.010-0.081 0.010-0.131 0.010zM13.129 2.645l-0.061-0.007-0.369-0.067c-0.93-0.156-1.87-0.283-2.809-0.376-0.93-0.092-1.869-0.15-2.809-0.181h-0.030l-0.060-0.012c-0.041-0.010-0.070-0.025-0.11-0.047-0.030-0.020-0.061-0.048-0.090-0.081-0.080-0.092-0.11-0.22-0.080-0.337 0.011-0.041 0.030-0.080 0.049-0.12 0.021-0.041 0.051-0.070 0.081-0.1 0.049-0.051 0.12-0.081 0.19-0.1 0.030-0.010 0.059-0.010 0.090-0.010l0.389 0.010c0.93 0.041 1.849 0.1 2.769 0.201 0.959 0.099 1.909 0.239 2.859 0.4l0.1 0.009c0.031 0 0.041 0 0.060 0.011 0.040 0.010 0.080 0.030 0.11 0.049 0.090 0.070 0.15 0.171 0.159 0.281 0.011 0.040 0 0.080-0.010 0.121 0 0.039-0.019 0.079-0.039 0.109s-0.041 0.060-0.070 0.090c-0.051 0.051-0.121 0.080-0.191 0.090l-0.057 0.009h-0.031zM2.681 2.133c-0.057 0-0.114-0.013-0.167-0.037-0.047-0.022-0.089-0.053-0.125-0.091-0.030-0.035-0.057-0.075-0.074-0.121-0.013-0.033-0.023-0.067-0.026-0.104-0.015-0.143 0.052-0.285 0.17-0.364 0.052-0.036 0.111-0.057 0.173-0.066 0.105-0.009 0.209-0.009 0.315-0.019 0.433-0.030 0.867-0.050 1.299-0.070h0.032c0.061 0.011 0.121 0.020 0.171 0.050 0.119 0.070 0.2 0.21 0.2 0.349 0 0.041-0.011 0.081-0.020 0.111-0.020 0.049-0.040 0.090-0.069 0.13-0.031 0.040-0.071 0.080-0.121 0.1-0.050 0.030-0.11 0.050-0.17 0.050-0.069 0.009-0.14 0.009-0.22 0.009l-0.299 0.021c-0.27 0.019-0.53 0.030-0.791 0.049l-0.2 0.011c-0.050 0.010-0.089 0.010-0.129 0.010z"></path>
</svg>
