<!-- Generated by IcoMoon.io -->
<svg version="1.1" xmlns="http://www.w3.org/2000/svg" width="16" height="16" viewBox="0 0 16 16">
<title>realm</title>
<path fill="#39477f" d="M8.003 0.039c-2.206 0.008-4.203 0.899-5.657 2.337l0.001-0.001v0.001c-1.483 1.483-2.344 3.547-2.344 5.643s0.857 4.163 2.344 5.643l0.001 0.001c1.454 1.435 3.448 2.324 5.65 2.337l0.002 0h0.003c2.099 0 4.17-0.855 5.655-2.339l0.001-0.001c1.439-1.446 2.332-3.437 2.344-5.636l0-0.002v-0.003c0-2.094-0.858-4.162-2.345-5.643-1.452-1.438-3.449-2.33-5.653-2.338h-0.002zM8.003 0.93c0.32 0 0.64 0.031 0.957 0.075-1.353 0.377-2.51 1.081-3.703 1.299-0.252 0.046-0.543 0.072-0.84 0.072-0.227 0-0.45-0.015-0.669-0.045l0.025 0.003c1.217-0.892 2.723-1.405 4.229-1.405zM10.759 1.645c0.115 0 0.232 0.007 0.347 0.015 0.741 0.358 1.376 0.809 1.923 1.349l-0.001-0.001c0.061 0.061 0.115 0.129 0.175 0.193-0.858 0.461-1.872 0.747-2.95 0.785l-0.012 0c-1.62 0.040-3.305-0.529-5.127-0.549-0.017-0-0.037-0-0.057-0-1.023 0-2.003 0.182-2.91 0.515l0.059-0.019c0.213-0.305 0.448-0.595 0.708-0.862 0.815 0.215 1.667 0.26 2.499 0.109h0.001c1.509-0.275 2.755-1.083 4.033-1.387 0.385-0.095 0.826-0.149 1.28-0.149 0.011 0 0.022 0 0.033 0h-0.002zM13.783 3.914c0.387 0.541 0.711 1.164 0.94 1.832l0.015 0.051c-0.29-0.162-0.589-0.307-0.9-0.429h-0.001c-0.812-0.327-1.754-0.516-2.741-0.516-0.593 0-1.17 0.069-1.724 0.198l0.051-0.010h-0.002c-0.993 0.229-1.894 0.645-2.769 1.015-0.312 0.132-0.622 0.255-0.933 0.369-0.269-0.070-0.596-0.131-0.931-0.168l-0.033-0.003h-0.001c-0.177-0.017-0.382-0.027-0.59-0.027-0.792 0-1.55 0.144-2.25 0.408l0.044-0.015c-0.323-0.109-0.597-0.229-0.858-0.371l0.029 0.014c0.106-0.407 0.227-0.752 0.372-1.085l-0.018 0.047c1.114-0.585 2.368-0.909 3.622-0.896 1.63 0.017 3.328 0.593 5.159 0.548h0.003c1.296-0.040 2.502-0.391 3.555-0.982l-0.039 0.020zM11.095 5.742c0.822 0 1.642 0.153 2.417 0.455 0.581 0.234 1.083 0.521 1.539 0.866l-0.017-0.012c0.024 0.168 0.043 0.336 0.055 0.505-0.489-0.125-0.992-0.2-1.496-0.219-0.080-0.003-0.174-0.005-0.269-0.005-0.664 0-1.306 0.094-1.913 0.271l0.048-0.012c-0.465 0.132-0.902 0.309-1.326 0.506-0.725-0.247-1.444-0.573-2.185-0.891-0.138-0.068-0.429-0.189-0.724-0.304l-0.159-0.055c0.867-0.368 1.703-0.742 2.556-0.94 0.443-0.105 0.951-0.165 1.473-0.165 0 0 0.001 0 0.001 0h-0zM3.918 7.117c0.249-0.011 0.5-0.003 0.75 0.021 0.983 0.099 1.957 0.469 2.929 0.887 0.478 0.206 0.969 0.417 1.469 0.619-0.733 0.403-1.437 0.817-2.158 1.134-0.7-0.263-1.421-0.505-2.201-0.612-1.223-0.167-2.478 0.040-3.591 0.552-0.121-0.456-0.198-0.982-0.213-1.524l-0-0.010c0.269-0.2 0.552-0.38 0.853-0.527 0.632-0.311 1.371-0.507 2.152-0.54l0.011-0zM13.56 8.228c0.517 0.019 1.031 0.107 1.527 0.253-0.033 0.465-0.105 0.896-0.214 1.312l0.011-0.050c-0.447 0.292-0.922 0.538-1.426 0.72-1.219 0.438-2.567 0.527-3.833 0.249-0.52-0.113-1.038-0.3-1.561-0.5 1.259-0.649 2.399-1.413 3.638-1.764h0.001c0.486-0.143 1.044-0.225 1.622-0.225 0.082 0 0.165 0.002 0.246 0.005l-0.012-0zM3.672 10.004c0.305-0.011 0.611 0.003 0.913 0.044 1.569 0.215 3.078 1.145 4.85 1.534 0.238 0.052 0.478 0.089 0.719 0.119-0.233 0.067-0.465 0.14-0.695 0.221v0.001h-0.001c-0.855 0.308-1.637 0.695-2.425 0.925-1.434 0.417-2.962 0.36-4.362-0.153-0.529-0.602-0.963-1.304-1.267-2.072l-0.017-0.048c0.667-0.331 1.448-0.538 2.274-0.571l0.011-0zM14.435 11.004c-0.045 0.097-0.089 0.194-0.138 0.289-0.147-0.011-0.295-0.026-0.443-0.032 0.199-0.075 0.389-0.167 0.581-0.257zM13.301 12.139c0.154-0.001 0.309 0.005 0.464 0.011-0.222 0.31-0.464 0.608-0.737 0.883h-0.001v0.001c-1.311 1.309-3.169 2.075-5.023 2.075-1.436-0.009-2.771-0.437-3.89-1.167l0.028 0.017c1.047 0.126 2.115 0.043 3.14-0.255h0.002c0.888-0.261 1.684-0.658 2.473-0.943 1.054-0.388 2.271-0.616 3.541-0.623l0.003-0z"></path>
</svg>
