<!-- Generated by IcoMoon.io -->
<svg version="1.1" xmlns="http://www.w3.org/2000/svg" width="16" height="16" viewBox="0 0 16 16">
<title>reasonstudios</title>
<path fill="#fff" d="M1.66 3.409l5.533-3.193c0.493-0.285 1.098-0.288 1.594-0.011l0.020 0.011 5.533 3.193c0.493 0.285 0.8 0.808 0.807 1.377v6.407c0 0.569-0.301 1.096-0.789 1.387l-0.018 0.011-5.533 3.193c-0.493 0.285-1.098 0.288-1.594 0.011l-0.020-0.011-5.533-3.193c-0.493-0.285-0.799-0.809-0.807-1.377v-6.407c0-0.569 0.3-1.096 0.789-1.387l0.017-0.011 5.533-3.193zM8 2.684l-4.605 2.658v5.316l4.605 2.658v-5.316l4.605-2.658z"></path>
</svg>
