<!-- Generated by IcoMoon.io -->
<svg version="1.1" xmlns="http://www.w3.org/2000/svg" width="16" height="16" viewBox="0 0 16 16">
<title>reason</title>
<path fill="#dd4b39" d="M0 0v16h16v-16zM7.68 14.593l-0.887-1.693h-1.193v1.693h-1.6v-6.133h2.753c1.627 0 2.553 0.793 2.553 2.16 0 0.927-0.387 1.6-1.093 1.973l1.28 2zM15.253 14.593h-4.92v-6.133h4.827v1.28h-3.227v1.147h2.92v1.267l-2.92 0.007v1.153h3.327zM7.787 10.667c0 0.62-0.373 0.953-1.020 0.953h-1.167v-1.88h1.167c0.647 0 1.020 0.327 1.020 0.927z"></path>
</svg>
