<!-- Generated by IcoMoon.io -->
<svg version="1.1" xmlns="http://www.w3.org/2000/svg" width="16" height="16" viewBox="0 0 16 16">
<title>redbubble</title>
<path fill="#e41321" d="M11.089 10.883h-2.133c-0.118-0-0.213-0.096-0.213-0.214 0-0 0-0 0-0.001v0-5.352c0-0.118 0.096-0.213 0.213-0.213v0h1.977c1.484 0 1.795 0.873 1.795 1.605 0 0.424-0.113 0.76-0.336 1.007 0.544 0.225 0.837 0.731 0.837 1.463 0 1.067-0.801 1.705-2.141 1.705zM7.993 10.883h-4.429c0 0 0 0 0 0-0.118 0-0.213-0.096-0.213-0.213 0-0 0-0.001 0-0.001v0-5.352c0-0.118 0.096-0.213 0.213-0.213v0h2.069c1.293 0 2.064 0.695 2.064 1.861 0 0.775-0.39 1.385-1.018 1.632l1.473 1.931c0.033 0.037 0.053 0.087 0.053 0.141 0 0.118-0.095 0.213-0.212 0.215h-0zM8 0c-4.418 0-8 3.582-8 8s3.582 8 8 8c4.419 0 8-3.582 8-8s-3.58-8-7.999-8z"></path>
</svg>
