<!-- Generated by IcoMoon.io -->
<svg version="1.1" xmlns="http://www.w3.org/2000/svg" width="16" height="16" viewBox="0 0 16 16">
<title>reddit</title>
<path fill="#ff4500" d="M1.469 9.366c-0.040 0.184-0.061 0.373-0.061 0.565 0 2.295 2.935 4.166 6.543 4.166 3.607 0 6.541-1.869 6.541-4.166 0-0.183-0.019-0.364-0.055-0.539l-0.010-0.021c-0.014-0.037-0.019-0.073-0.019-0.11-0.201-0.783-0.745-1.494-1.531-2.069-0.030-0.011-0.059-0.026-0.084-0.047-0.017-0.013-0.030-0.028-0.045-0.043-1.195-0.823-2.904-1.339-4.797-1.339-1.877 0-3.569 0.506-4.764 1.314-0.009 0.012-0.019 0.022-0.033 0.033-0.026 0.022-0.056 0.040-0.087 0.050-0.804 0.575-1.361 1.291-1.569 2.082 0 0.039-0.009 0.076-0.025 0.114zM7.985 12.993c-1.196 0-2.038-0.259-2.575-0.798-0.115-0.116-0.115-0.305 0-0.421 0.117-0.11 0.307-0.11 0.423 0 0.42 0.419 1.123 0.629 2.152 0.629s1.727-0.2 2.146-0.619c0.11-0.109 0.3-0.109 0.419 0 0.11 0.12 0.11 0.31 0 0.43-0.539 0.539-1.377 0.799-2.575 0.799zM5.581 7.945c-0.609 0-1.118 0.51-1.118 1.118 0 0.607 0.509 1.1 1.118 1.1s1.101-0.493 1.101-1.1c0-0.608-0.493-1.118-1.101-1.118zM10.403 7.945c-0.609 0-1.119 0.51-1.119 1.118 0 0.607 0.509 1.1 1.119 1.1s1.101-0.493 1.101-1.1c0-0.608-0.493-1.118-1.101-1.118zM13.435 6.881c0.691 0.555 1.2 1.214 1.459 1.936 0.3-0.224 0.479-0.576 0.479-0.966 0-0.668-0.543-1.211-1.212-1.211-0.266 0-0.519 0.086-0.727 0.242zM1.807 6.642c-0.669 0-1.211 0.544-1.211 1.212 0 0.362 0.159 0.699 0.429 0.926 0.267-0.719 0.781-1.369 1.475-1.917-0.201-0.14-0.442-0.219-0.693-0.219zM7.952 14.695c-3.937 0-7.139-2.137-7.139-4.761 0-0.183 0.015-0.363 0.045-0.539-0.529-0.329-0.858-0.908-0.858-1.543 0-0.997 0.818-1.809 1.817-1.809 0.449 0 0.869 0.164 1.198 0.455 1.237-0.794 2.905-1.294 4.741-1.328l1.208-3.683 0.269 0.063c0 0 0.011 0 0.011 0.001l2.815 0.662c0.229-0.532 0.759-0.907 1.377-0.907 0.819 0 1.487 0.669 1.487 1.489 0 0.821-0.669 1.489-1.487 1.489s-1.487-0.669-1.487-1.487l-2.567-0.608-0.978 2.985c1.767 0.070 3.365 0.569 4.563 1.347 0.329-0.309 0.763-0.479 1.222-0.479 0.999 0 1.812 0.809 1.812 1.807 0 0.658-0.36 1.257-0.919 1.577 0.019 0.17 0.039 0.329 0.039 0.499-0.010 2.625-3.204 4.762-7.147 4.762zM13.405 1.903c-0.493 0-0.893 0.399-0.893 0.892s0.4 0.893 0.893 0.893c0.488 0 0.887-0.4 0.887-0.889s-0.399-0.888-0.898-0.888z"></path>
</svg>
