<!-- Generated by IcoMoon.io -->
<svg version="1.1" xmlns="http://www.w3.org/2000/svg" width="16" height="16" viewBox="0 0 16 16">
<title>redhat</title>
<path fill="#e00" d="M10.673 8.924c1.051 0 2.573-0.217 2.573-1.468 0-0.011 0.001-0.023 0.001-0.036 0-0.089-0.010-0.176-0.029-0.259l0.001 0.008-0.627-2.72c-0.144-0.599-0.271-0.87-1.321-1.395-0.815-0.417-2.592-1.105-3.117-1.105-0.489 0-0.631 0.631-1.215 0.631-0.561 0-0.978-0.471-1.503-0.471-0.505 0-0.833 0.343-1.087 1.051 0 0-0.707 1.993-0.798 2.283-0.012 0.043-0.019 0.092-0.019 0.142 0 0.007 0 0.015 0 0.022l-0-0.001c0 0.775 3.051 3.316 7.14 3.316zM13.407 7.964c0.145 0.688 0.145 0.76 0.145 0.851 0 1.177-1.323 1.83-3.062 1.83-3.93 0.003-7.373-2.301-7.373-3.823 0-0.001 0-0.002 0-0.003 0-0.222 0.047-0.433 0.131-0.624l-0.004 0.010c-1.413 0.071-3.243 0.323-3.243 1.939 0 2.646 6.27 5.907 11.234 5.907 3.807 0 4.766-1.721 4.766-3.080 0-1.070-0.925-2.283-2.591-3.008z"></path>
</svg>
