<!-- Generated by IcoMoon.io -->
<svg version="1.1" xmlns="http://www.w3.org/2000/svg" width="16" height="16" viewBox="0 0 16 16">
<title>redis</title>
<path fill="#d82c20" d="M15.996 9.56c-0.007 0.153-0.209 0.323-0.623 0.54-0.854 0.445-5.277 2.264-6.219 2.755s-1.465 0.486-2.209 0.13c-0.744-0.355-5.451-2.257-6.299-2.662-0.423-0.203-0.639-0.373-0.647-0.535v1.617c0 0.161 0.223 0.333 0.647 0.535 0.848 0.405 5.555 2.307 6.299 2.662s1.267 0.361 2.209-0.131c0.941-0.491 5.365-2.309 6.219-2.755 0.434-0.226 0.626-0.402 0.626-0.561 0-0.151 0.001-1.595 0.001-1.595s-0.003-0.001-0.003-0.001zM15.995 6.923c-0.007 0.153-0.209 0.323-0.623 0.539-0.854 0.445-5.277 2.264-6.219 2.755s-1.465 0.486-2.209 0.131-5.451-2.257-6.299-2.663c-0.423-0.202-0.639-0.373-0.647-0.534v1.617c0 0.161 0.223 0.332 0.647 0.535 0.848 0.405 5.555 2.307 6.299 2.662s1.267 0.361 2.209-0.13c0.941-0.491 5.365-2.31 6.219-2.755 0.434-0.227 0.626-0.403 0.626-0.562 0-0.151 0.001-1.595 0.001-1.595s-0.003 0-0.004-0.001zM15.995 4.189c0.008-0.163-0.205-0.305-0.633-0.463-0.832-0.305-5.229-2.055-6.071-2.363s-1.185-0.295-2.174 0.059c-0.989 0.355-5.671 2.191-6.503 2.517-0.417 0.164-0.621 0.315-0.613 0.477v1.617c0 0.161 0.223 0.332 0.647 0.535 0.848 0.405 5.555 2.307 6.299 2.663s1.267 0.36 2.209-0.131c0.941-0.491 5.365-2.31 6.219-2.755 0.434-0.227 0.626-0.403 0.626-0.562 0-0.15 0.001-1.595 0.001-1.595zM5.729 5.719l3.707-0.569-1.12 1.642zM13.929 4.241l-2.43 0.959-2.191-0.866 2.428-0.96zM7.492 2.652l-0.359-0.661 1.119 0.437 1.055-0.345-0.285 0.683 1.075 0.403-1.386 0.144-0.311 0.747-0.501-0.833-1.601-0.144zM4.73 3.585c1.095 0 1.981 0.344 1.981 0.768s-0.887 0.768-1.981 0.768-1.982-0.345-1.982-0.768c0-0.424 0.887-0.768 1.982-0.768z"></path>
</svg>
