<!-- Generated by IcoMoon.io -->
<svg version="1.1" xmlns="http://www.w3.org/2000/svg" width="16" height="16" viewBox="0 0 16 16">
<title>redux</title>
<path fill="#764abc" d="M11.089 11.003c0.579-0.050 1.029-0.56 0.999-1.169-0.031-0.609-0.53-1.099-1.139-1.099h-0.041c-0.629 0.021-1.119 0.549-1.099 1.179 0.020 0.319 0.151 0.579 0.329 0.769-0.699 1.359-1.747 2.357-3.336 3.197-1.069 0.559-2.197 0.769-3.296 0.619-0.919-0.129-1.637-0.54-2.077-1.199-0.659-0.999-0.719-2.077-0.17-3.156 0.401-0.779 0.999-1.349 1.399-1.629-0.1-0.259-0.22-0.699-0.28-1.028-2.957 2.118-2.657 5.014-1.758 6.383 0.669 0.999 2.038 1.637 3.536 1.637 0.399 0 0.819-0.029 1.229-0.129 2.597-0.499 4.565-2.057 5.693-4.355zM14.654 8.505c-1.547-1.818-3.825-2.817-6.423-2.817h-0.34c-0.169-0.369-0.558-0.599-0.998-0.599h-0.030c-0.629 0-1.119 0.54-1.098 1.169 0.020 0.599 0.529 1.099 1.139 1.099h0.049c0.45-0.020 0.839-0.3 0.999-0.699h0.37c1.539 0 2.997 0.449 4.325 1.328 1.018 0.669 1.748 1.548 2.157 2.597 0.359 0.859 0.339 1.698-0.030 2.398-0.569 1.098-1.529 1.678-2.797 1.678-0.799 0-1.578-0.25-1.978-0.429-0.239 0.199-0.639 0.529-0.929 0.729 0.879 0.399 1.768 0.629 2.627 0.629 1.948 0 3.395-1.098 3.945-2.157 0.599-1.199 0.549-3.216-0.979-4.944zM4.327 11.361c0.019 0.599 0.529 1.099 1.139 1.099h0.040c0.639-0.020 1.129-0.549 1.099-1.179 0-0.599-0.519-1.098-1.129-1.098h-0.041c-0.040 0-0.099 0-0.15 0.019-0.829-1.399-1.179-2.897-1.048-4.514 0.079-1.219 0.479-2.278 1.198-3.157 0.599-0.749 1.728-1.119 2.497-1.139 2.157-0.041 3.057 2.647 3.126 3.716l0.999 0.299c-0.23-3.276-2.267-4.995-4.215-4.995-1.828 0-3.515 1.329-4.195 3.277-0.929 2.597-0.319 5.094 0.819 7.092-0.099 0.13-0.159 0.359-0.139 0.579z"></path>
</svg>
