<!-- Generated by IcoMoon.io -->
<svg version="1.1" xmlns="http://www.w3.org/2000/svg" width="16" height="16" viewBox="0 0 16 16">
<title>renren</title>
<path fill="#217dc6" d="M3.774 6.401v-2.865c-2.155 0.375-3.773 2.231-3.773 4.465 0 1.118 0.405 2.141 1.076 2.931l-0.005-0.006c1.585-0.768 2.694-2.503 2.702-4.524zM4.529 9.143c-0.282 1.168-1.125 2.166-2.175 2.829 0.625 0.35 1.372 0.555 2.167 0.555 0.002 0 0.005 0 0.007 0h-0c0.002 0 0.004 0 0.006 0 0.796 0 1.543-0.206 2.192-0.567l-0.023 0.012c-1.050-0.663-1.892-1.662-2.174-2.829zM7.985 5.075c-0.676-0.795-1.611-1.351-2.674-1.536l-0.027-0.004v2.843c0 2.029 1.111 3.775 2.701 4.545-0.666-0.781-1.071-1.802-1.071-2.918 0-0.002 0-0.004 0-0.006v0c0-0.002 0-0.005 0-0.008 0-1.115 0.406-2.136 1.077-2.922l-0.005 0.006zM7.985 5.075c0.669 0.789 1.103 1.809 1.103 2.925s-0.435 2.135-1.103 2.925v0c1.585-0.767 2.725-2.503 2.733-4.524v-2.865c-1.1 0.188-2.046 0.744-2.728 1.534l-0.005 0.006zM12.227 6.379c0 2.030 1.111 3.775 2.701 4.545 0.666-0.783 1.070-1.806 1.070-2.924 0-2.234-1.617-4.089-3.745-4.46l-0.027-0.004zM11.472 9.143c-0.282 1.168-1.125 2.166-2.175 2.829 0.625 0.35 1.372 0.555 2.167 0.555 0.002 0 0.005 0 0.007 0h-0c0.002 0 0.004 0 0.006 0 0.796 0 1.543-0.206 2.192-0.567l-0.023 0.012c-1.049-0.663-1.892-1.662-2.174-2.829z"></path>
</svg>
