<!-- Generated by IcoMoon.io -->
<svg version="1.1" xmlns="http://www.w3.org/2000/svg" width="16" height="16" viewBox="0 0 16 16">
<title>researchgate</title>
<path fill="#0cb" d="M5.229 9.173c-0.307 0.003-0.614-0.009-0.92-0.035v-3.379c0.175-0.012 0.387-0.018 0.654-0.020l0.394-0.001c1.149 0 1.797 0.593 1.797 1.66 0 1.081-0.735 1.774-1.924 1.774zM14.001 0h-12c-1.105 0-2 0.895-2 2v12c0 1.105 0.895 2 2 2h12c1.105 0 2-0.895 2-2v-12c0-1.105-0.895-2-2-2zM10.101 13.887l-0.059 0.090c-0.168 0.077-0.435 0.123-0.692 0.123-0.82 0-1.511-0.316-1.973-0.872-0.55-0.634-1.367-1.846-2.136-3.216-0.443 0-0.608-0.003-0.822-0.014l-0.108-0.008v2.263c0 0.762 0.123 0.967 0.494 1.023l0.736 0.1 0.087 0.1v0.411l-0.104 0.1c-0.603-0.025-1.205-0.039-1.808-0.042-0.382 0-0.779 0.010-1.243 0.025l-0.465 0.017-0.103-0.1v-0.412l0.082-0.098 0.537-0.1c0.376-0.071 0.5-0.273 0.5-1.022v-5.596c0-0.749-0.124-0.951-0.498-1.023l-0.539-0.101-0.086-0.097v-0.412l0.104-0.1c0.821 0.023 1.642 0.021 2.462-0.007 0.494-0.015 0.79-0.021 1.145-0.021 1.789 0 2.946 0.87 2.946 2.428 0 1.1-0.834 2.167-1.946 2.491 0.614 1.071 1.385 2.123 2.075 2.878 0.409 0.442 0.886 0.72 1.314 0.72l0.1 0.1zM13.595 4.724c0 0.303-0.005 0.447-0.023 0.607-0.015 0.163-0.045 0.323-0.090 0.479-0.124 0.384-0.322 0.66-0.623 0.866-0.3 0.205-0.685 0.315-1.1 0.315-0.425 0-0.787-0.098-1.084-0.295-0.299-0.198-0.513-0.493-0.64-0.88-0.025-0.075-0.045-0.151-0.060-0.229-0.037-0.21-0.058-0.422-0.064-0.635-0.011-0.337-0.011-0.673 0-1.010 0.007-0.213 0.029-0.425 0.065-0.635 0.015-0.079 0.034-0.155 0.059-0.229 0.128-0.387 0.342-0.682 0.641-0.88 0.297-0.198 0.66-0.296 1.085-0.296 0.219 0 0.417 0.026 0.595 0.077s0.336 0.123 0.475 0.215 0.258 0.198 0.358 0.32c0.099 0.12 0.18 0.25 0.241 0.381 0.049 0.087 0.030 0.18-0.070 0.24l-0.507 0.207c-0.093 0.052-0.188 0.018-0.234-0.074-0.124-0.227-0.212-0.337-0.344-0.42-0.153-0.098-0.333-0.145-0.514-0.135-0.23 0-0.336 0.035-0.506 0.155-0.158 0.107-0.275 0.266-0.331 0.449-0.037 0.114-0.060 0.232-0.068 0.352-0.031 0.519-0.031 1.041 0 1.56 0.008 0.12 0.031 0.238 0.068 0.352 0.043 0.165 0.148 0.308 0.292 0.4 0.161 0.109 0.351 0.163 0.545 0.157 0.195 0.005 0.386-0.049 0.55-0.154 0.134-0.091 0.233-0.225 0.279-0.38l0.028-0.097c0.017-0.062 0.031-0.125 0.041-0.189 0.014-0.087 0.017-0.16 0.017-0.353h-0.771l-0.002-0.003c-0.102 0-0.17-0.068-0.17-0.17v-0.47c0-0.101 0.068-0.17 0.17-0.17h1.52c0.101 0 0.17 0.069 0.17 0.17z"></path>
</svg>
