<!-- Generated by IcoMoon.io -->
<svg version="1.1" xmlns="http://www.w3.org/2000/svg" width="16" height="16" viewBox="0 0 16 16">
<title>riot</title>
<path fill="#368bd6" d="M3.937 0c-0.486 0.005-0.935 0.161-1.302 0.423l0.007-0.005 0.007-0.005c-0.593 0.419-0.975 1.102-0.975 1.874 0 0.212 0.029 0.417 0.082 0.611l-0.004-0.016-0.003-0.016v10.844c0 1.267 1.023 2.289 2.289 2.289s2.289-1.022 2.289-2.289v-2.289h1.243l2.512 3.589c0.416 0.596 1.098 0.981 1.87 0.981 0.49 0 0.944-0.155 1.315-0.419l-0.007 0.005c0.596-0.415 0.981-1.098 0.981-1.869 0-0.49-0.155-0.944-0.419-1.315l0.005 0.007-1.59-2.271c1.28-1.053 2.090-2.638 2.090-4.411 0-0.002 0-0.004 0-0.007v0c0-3.155-2.577-5.711-5.722-5.711l-4.666-0.001zM5.479 0.579h3.125c2.833 0.045 5.111 2.378 5.066 5.211-0.025 1.529-0.713 2.892-1.789 3.818l-0.007 0.006-0.303-0.432c0.98-0.843 1.596-2.084 1.596-3.469 0-2.521-2.043-4.565-4.564-4.567h-2.661c-0.040-0.070-0.077-0.128-0.116-0.183l0.005 0.007 0.005 0.007c-0.106-0.148-0.223-0.278-0.352-0.393l-0.002-0.002zM6.175 1.712h2.429c2.211 0 4 1.789 4 4 0 0.002 0 0.003 0 0.005 0 1.193-0.524 2.263-1.354 2.994l-0.004 0.004-0.326-0.466c0.687-0.63 1.116-1.532 1.116-2.535 0-1.896-1.536-3.434-3.432-3.436h-2.356c-0-0.207-0.028-0.408-0.080-0.599l0.004 0.016zM6.178 2.857h2.426c1.578 0.033 2.833 1.333 2.8 2.922-0.016 0.769-0.333 1.461-0.837 1.966l0-0-0.163-0.233c-0.061-0.086-0.121-0.162-0.186-0.233l0.002 0.002c0.373-0.395 0.607-0.926 0.618-1.511l0-0.002c0-0.013 0-0.028 0-0.043 0-1.251-0.998-2.269-2.241-2.301l-0.003-0h-2.646c0.095-0.163 0.175-0.351 0.228-0.551zM2.327 3.887c0.162 0.166 0.349 0.307 0.555 0.418l0.012 0.006v9.401c0 0.633 0.511 1.145 1.145 1.145 0.622 0 1.133-0.511 1.144-1.155v-3.422h1.587l0.405 0.578h-1.425v2.855c-0.032 0.92-0.786 1.653-1.711 1.653s-1.679-0.733-1.711-1.651l-0-0.003zM5.749 3.989h2.855c0.002 0 0.003-0 0.005-0 0.948 0 1.717 0.769 1.717 1.717 0 0.002 0 0.004-0 0.006v-0c0 0.479-0.193 0.911-0.506 1.222-0.158-0.11-0.34-0.203-0.534-0.271l-0.016-0.005c0.297-0.207 0.489-0.547 0.489-0.933 0-0.001 0-0.002 0-0.004v0c0-0.645-0.522-1.155-1.155-1.155h-2.289v2.3h1.032c-0.247 0.152-0.456 0.341-0.626 0.561l-0.004 0.005h-0.969zM5.171 4.231v3.781h1.226c-0.064 0.165-0.111 0.357-0.132 0.556l-0.001 0.010h-1.659v-4.095c0.215-0.063 0.403-0.149 0.576-0.257zM3.46 4.519c0.153 0.037 0.329 0.057 0.509 0.057l0.069-0.001v4.569h2.237c0.028 0.193 0.078 0.383 0.157 0.567h-1.827v4c-0.005 0.313-0.254 0.567-0.566 0.578l-0.001 0c-0.002 0-0.004 0-0.006 0-0.314 0-0.569-0.253-0.572-0.566v-0zM6.882 5.134h1.711c0.322 0 0.577 0.255 0.577 0.577s-0.245 0.589-0.567 0.589l-1.722-0.011z"></path>
</svg>
