<!-- Generated by IcoMoon.io -->
<svg version="1.1" xmlns="http://www.w3.org/2000/svg" width="16" height="16" viewBox="0 0 16 16">
<title>ripple</title>
<path fill="#0085c0" d="M13.7 9.767c-0.564-0.324-1.203-0.421-1.835-0.444-0.527-0.015-1.316-0.361-1.316-1.323 0-0.715 0.579-1.293 1.323-1.323 0.631-0.023 1.271-0.12 1.835-0.444 1.006-0.589 1.671-1.665 1.671-2.896 0-0.614-0.165-1.189-0.454-1.684l0.009 0.016c-0.593-1.004-1.671-1.667-2.903-1.667-0.618 0-1.196 0.167-1.693 0.457l0.016-0.009c-1.005 0.586-1.669 1.658-1.669 2.886 0 0.003 0 0.007 0 0.010v-0.001c0 0.647 0.233 1.241 0.527 1.797 0.248 0.466 0.369 1.331-0.473 1.82-0.632 0.36-1.421 0.135-1.813-0.497-0.331-0.534-0.729-1.030-1.293-1.353-1.601-0.925-3.647-0.376-4.565 1.218-0.28 0.478-0.445 1.053-0.445 1.667 0 1.231 0.665 2.307 1.656 2.888l0.016 0.009c0.479 0.28 1.055 0.446 1.669 0.446s1.19-0.165 1.685-0.454l-0.016 0.009c0.564-0.323 0.963-0.82 1.293-1.353 0.271-0.436 0.955-0.993 1.812-0.496 0.632 0.361 0.827 1.158 0.474 1.82-0.293 0.549-0.527 1.15-0.527 1.797 0.001 1.843 1.495 3.338 3.338 3.339h0c1.843-0.001 3.338-1.495 3.339-3.339v-0c0-0.005 0-0.012 0-0.018 0-1.223-0.661-2.292-1.646-2.868l-0.016-0.008z"></path>
</svg>
