<!-- Generated by IcoMoon.io -->
<svg version="1.1" xmlns="http://www.w3.org/2000/svg" width="16" height="16" viewBox="0 0 16 16">
<title>riseup</title>
<path fill="#5e9ee3" d="M8.11 3.618c0 0-0.235-0.457-0.251-0.52 0.014 0.123-0.035-0.116-0.083-0.356l-0.058-0.352 0.157-0.283 0.345-0.519 0.502-0.393 0.126-0.047 1.209-0.457 0.11-0.11-0.125-0.189-0.173-0.094-0.317-0.081-0.793-0.081-0.617 0.007-0.424 0.094-0.377-0.141-0.471-0.063-0.691-0.016-0.345-0.016-0.581 0.22-0.879 1.023-0.11 0.393-0.063 0.347-0.299 0.645-0.189 0.613-0.093 0.661v0.141l-0.456 0.692-0.251 0.52v0.738l0.079 1.527 0.141 0.551 0.283 0.503 0.361 0.33 0.157 0.645 0.597 1.321 0.707 0.85 0.047 0.047 0.251 1.275-0.863 1.573-0.235 0.362-0.22 0.142-0.345-0.047-0.204 0.079-0.235-0.015-0.157 0.125-0.298-0.079-0.299-0.047-0.251 0.157-0.063 0.267 0.173-0.157 0.267-0.047v0.251l0.423-0.095 0.236 0.015 0.408 0.095c0 0 0.361 0.015 0.424 0.015s0.44 0.079 0.44 0.079h0.282l0.141 0.079 0.204-0.031 0.205 0.126h0.313l0.063-0.205v-0.11l0.204 0.094 0.157 0.157 0.095 0.173 0.015-0.205-0.11-0.251c0 0-0.078-0.142-0.141-0.142s-0.298-0.079-0.298-0.079l-0.173 0.047-0.172-0.095-0.189 0.079-0.157-0.079-0.063-0.157-0.11-0.047 0.094-0.283 0.283-0.645 0.377-0.629 0.33-0.393 0.125-0.157c0 0 0.157-0.236 0.157-0.299s0.031-0.724 0.031-0.724l-0.204-0.425-0.095-0.347 1.821 0.441h0.11l1.555 1.117 0.22 0.283 0.078 1.085-0.031 0.252-0.11 0.205-0.125 0.125-0.047 0.221-0.063 0.11-0.299 0.047-0.282-0.094-0.173-0.047h-0.329l-0.157 0.125-0.078 0.173 0.015 0.189 0.094-0.173 0.11-0.11 0.095-0.015-0.016 0.157 0.11 0.095 0.267-0.079h0.126l0.015 0.173 0.377 0.047 0.267-0.047 0.204 0.063 0.299 0.079 0.109-0.015 0.095-0.063 0.094 0.299 0.047-0.315-0.078-0.377-0.173-0.142 0.063-0.236-0.141-0.267 0.016-0.991 0.785 0.929 1.037 0.818c0 0 0.707 0.251 0.769 0.251s0.549-0.063 0.549-0.063l0.314-0.519-0.235-0.708 0.094-0.237-0.503-0.66-1.064-1.084-0.255-0.851 0.016-0.583-0.236-0.613-0.267-0.488 0.157-0.487-0.125-0.708-0.535-1.205 0.198-0.033-0.332-0.575 0.215-0.069-0.379-0.618 0.16-0.085-0.285-0.467 0.093-0.052-0.344-0.279 0.125-0.065-0.895-0.627z"></path>
</svg>
