<!-- Generated by IcoMoon.io -->
<svg version="1.1" xmlns="http://www.w3.org/2000/svg" width="16" height="16" viewBox="0 0 16 16">
<title>rollup-dot-js</title>
<path fill="#ec4a3f" d="M2.28 0c-0.136 0-0.246 0.111-0.246 0.247 0 0 0 0 0 0v0 13.011c0.385-0.992 1.038-2.411 2.092-4.353 3.8-6.987 4.298-7.691 6.277-7.691 1.040 0 2.089 0.469 2.768 1.303-0.938-1.499-2.569-2.488-4.433-2.516l-0.004-0zM10.76 1.696c-0.793 0.007-1.505 0.311-1.799 0.999-0.645 1.504 1.083 3.178 1.838 3.045 0.961-0.17-0.17-2.375-0.17-2.375 1.47 2.771 1.131 1.923-1.527 4.467s-5.372 7.915-5.768 8.141c-0.015 0.010-0.033 0.020-0.051 0.028l-0.002 0.001h10.425c0.136-0.002 0.246-0.112 0.246-0.249 0-0.040-0.009-0.078-0.026-0.111l0.001 0.001-2.725-5.395c-0.017-0.033-0.027-0.071-0.027-0.112 0-0.091 0.049-0.17 0.122-0.213l0.001-0.001c1.607-0.932 2.67-2.645 2.67-4.605 0-0.001 0-0.002 0-0.004v0c0-0.95-0.249-1.841-0.687-2.613-0.618-0.635-1.62-1.011-2.52-1.004z"></path>
</svg>
