<!-- Generated by IcoMoon.io -->
<svg version="1.1" xmlns="http://www.w3.org/2000/svg" width="16" height="16" viewBox="0 0 16 16">
<title>roots</title>
<path fill="#525ddc" d="M6.857 5.317v-2.623c0-0.090-0.073-0.163-0.163-0.163-0.091 0.001-0.163 0.073-0.163 0.163 0.005 1.683-0.661 3.297-1.85 4.488l-3.759 3.771c-0.051 0.051-0.063 0.129-0.030 0.193 0.175 0.338 0.373 0.663 0.593 0.973 0.027 0.039 0.071 0.064 0.119 0.069h0.014c0.043 0 0.085-0.017 0.115-0.049l3.943-3.959c0.759-0.759 1.184-1.791 1.181-2.865zM11.999 0.519c-0.051-0.029-0.113-0.029-0.162 0-0.051 0.030-0.082 0.083-0.082 0.142v7.279c0 1.081 0.42 2.099 1.183 2.864l1.33 1.338c0.031 0.031 0.072 0.049 0.117 0.049l0.014-0.002c0.047-0.004 0.091-0.029 0.119-0.067 0.965-1.359 1.484-2.984 1.482-4.651-0.005-2.863-1.529-5.508-4.001-6.951zM4.245 2.694v-2.033c0-0.057-0.030-0.112-0.079-0.142-0.051-0.030-0.113-0.030-0.164 0-2.473 1.443-3.996 4.088-4.001 6.951 0 0.228 0.012 0.473 0.038 0.747 0.007 0.063 0.048 0.118 0.107 0.14 0.018 0.007 0.038 0.009 0.056 0.010 0.043-0.001 0.084-0.018 0.115-0.049l2.749-2.759c0.759-0.76 1.183-1.79 1.181-2.864zM11.321 12.427c-1.189-1.189-1.856-2.805-1.852-4.487v-2.624c0.001-0.091-0.073-0.165-0.163-0.165-0.091 0.001-0.163 0.075-0.163 0.165 0 1.695-0.657 3.29-1.851 4.488l-3.943 3.958c-0.065 0.064-0.065 0.168-0.001 0.233 0.007 0.007 0.013 0.013 0.021 0.017 1.349 0.97 2.97 1.492 4.631 1.49 1.661 0.002 3.282-0.52 4.631-1.49 0.039-0.028 0.063-0.071 0.065-0.12 0.006-0.047-0.011-0.096-0.045-0.13z"></path>
</svg>
