<!-- Generated by IcoMoon.io -->
<svg version="1.1" xmlns="http://www.w3.org/2000/svg" width="16" height="16" viewBox="0 0 16 16">
<title>roundcube</title>
<path fill="#37beff" d="M13.267 5.733c0 0.8-0.2 1.533-0.467 2.2l0.467-0.267 2.267-1.333-1.8-1c-0.2-3-2.667-5.333-5.733-5.333s-5.533 2.333-5.733 5.333l-1.8 1.067 2.067 1.2 0.6 0.333c-0.333-0.667-0.467-1.4-0.467-2.2 0-2.933 2.4-5.267 5.267-5.267 3 0 5.333 2.333 5.333 5.267zM0.067 11.533l7.733 4.467v-4.933l-7.733-4.467zM8.2 11.067v4.933l7.733-4.467v-4.933z"></path>
</svg>
