<!-- Generated by IcoMoon.io -->
<svg version="1.1" xmlns="http://www.w3.org/2000/svg" width="16" height="16" viewBox="0 0 16 16">
<title>rstudio</title>
<path fill="#75aadb" d="M8.119 0.001c-0.035-0.001-0.075-0.001-0.116-0.001-2.21 0-4.21 0.896-5.658 2.344l-0 0c-1.447 1.448-2.342 3.448-2.342 5.657s0.895 4.209 2.342 5.657l-0-0c1.448 1.447 3.448 2.342 5.657 2.342s4.209-0.895 5.657-2.342l-0 0c1.447-1.448 2.342-3.448 2.342-5.657s-0.895-4.209-2.342-5.657l0 0c-1.42-1.421-3.373-2.31-5.532-2.343l-0.006-0zM5.18 3.997c0.375 0.085 0.7 0.145 1.109 0.145 0.614 0 1.242-0.145 1.857-0.145 1.193 0 2.3 0.543 2.3 1.867 0 1.027-0.614 1.678-1.567 1.953l1.859 2.738h0.867v0.673h-1.324l-2.195-3.289h-1.171v2.616h1.145v0.673h-2.88v-0.673h0.989v-5.799l-0.989-0.122zM8.157 4.671c-0.397 0-0.809 0.035-1.243 0.085v2.532l0.627 0.013c1.532 0.023 2.122-0.567 2.122-1.351 0-0.917-0.665-1.279-1.507-1.279z"></path>
</svg>
