<!-- Generated by IcoMoon.io -->
<svg version="1.1" xmlns="http://www.w3.org/2000/svg" width="16" height="16" viewBox="0 0 16 16">
<title>ruby</title>
<path fill="#cc342d" d="M13.437 0.055c2.022 0.35 2.595 1.732 2.553 3.18l0.010-0.021-0.91 11.925-11.819 0.811c-0.982-0.041-3.171-0.131-3.271-3.191l1.097-2 2.215 5.172 1.87-6.096-0.020 0.005 0.011-0.020 6.17 1.971-0.931-3.621-0.66-2.6 5.88-0.379-0.41-0.34-4.221-3.441 2.439-1.361zM0 12.726v0.017-0.019zM3.42 3.382c2.374-2.355 5.438-3.747 6.615-2.56 1.175 1.185-0.070 4.070-2.449 6.424-2.375 2.355-5.402 3.823-6.576 2.638-1.177-1.185 0.030-4.145 2.408-6.5z"></path>
</svg>
