<!-- Generated by IcoMoon.io -->
<svg version="1.1" xmlns="http://www.w3.org/2000/svg" width="16" height="16" viewBox="0 0 16 16">
<title>runkeeper</title>
<path fill="#2dc9d7" d="M8.983 11.089c1.258-0.171 2.172-0.743 3.025-1.713 1-1.171 1.287-2.741 0.885-4.227-0.4-1.429-1.54-2.543-3.027-2.744-1.838-0.284-3.745 0.6-5.092 1.803-0.030 0.027-0.11 0.084-0.14 0.14-0.14-0.256-0.321-0.513-0.513-0.713-0.257-0.371-0.827-0.972-0.857-1-0.113-0.143-0.313-0.171-0.427-0.228-0.351-0.075-0.592-0.193-0.743-0.28-0.008-0.012-0.018-0.023-0.030-0.036l-1.455-1.541c-0.143-0.116-0.316-0.143-0.458 0-0.113 0.143-0.143 0.315 0 0.457l1.442 1.556 0.020-0.001c0.051 0.091 0.232 0.241 0.302 0.553 0.030 0.14 0.111 0.311 0.251 0.511 0 0 1.004 1.083 1.405 1.817 0.372 0.743 0.462 0.973 0.512 1.113 0 0.020-0.371-0.431-0.803-0.742-1.657 1.887-2.862 4.147-3.213 6.596-0.371 2.51 1.004 3.173 2.029 3.143 0.823 0 2.54-0.883 3.453-3.082 0.883-2.137 0.743-4.597-0.15-6.737 0.853-0.863 2.429-1.887 3.965-1.857 1.144 0 1.717 0.993 1.797 1.085 0.883 1.596-0.151 3.032-0.151 3.032-0.572 0.863-1.567 1.265-2.089 1.405-0.391 0.111-1.135 0.080-1.315 0-0.109-0.030-0.14-0.091-0.14-0.171 0-0.12 0.091-0.17 0.171-0.17 0.111 0 0.171 0.080 0.171 0.171v0.092c0.291 0.080 0.853 0.020 1.085 0-0.181-0.429-0.573-0.658-1.095-0.658h-0.024c-0.673 0.005-1.215 0.555-1.21 1.229 0 0.513 0.291 0.943 0.713 1.113 0.221 0.087 0.884 0.172 1.706 0.085zM4.437 10.805c-0.573 2.515-2.171 3.4-2.6 3.256-0.428-0.142-0.571-1.4 0.285-3.513 0.144-0.313 1-2.285 2.115-3.513-0.030 0.057 0.629 1.915 0.2 3.771zM15.457 11.292l0.543-2.059c0.020-0.171-0.060-0.371-0.232-0.4-0.171-0.029-0.371 0.059-0.391 0.229l-0.54 1.985h-0.063c-0.011 0.015-0.020 0.029-0.029 0.044-0.080 0.143-0.231 0.372-0.452 0.543-0.171 0.143-0.251 0.313-0.251 0.313-0.080 0.085-0.652 1.887-2.449 1.971-2.12 0.085-2.54-2.285-2.57-2.485-0.452 0.085-1.365-0.116-1.737-0.287 0.111 1.313 0.743 2.885 1.857 3.628 1.285 0.885 3.284 0.885 4.659 0 0.793-0.543 1.315-1.229 1.656-2.115l0.030-0.073 0.010-0.022c0.011-0.025 0.011-0.049 0.031-0.075v-0.030c-0.020 0 0-0.171-0.050-0.342-0.109-0.455-0.020-0.742-0.021-0.826z"></path>
</svg>
