<!-- Generated by IcoMoon.io -->
<svg version="1.1" xmlns="http://www.w3.org/2000/svg" width="16" height="16" viewBox="0 0 16 16">
<title>rust</title>
<path d="M15.791 7.806l-0.663-0.411c-0.008-0.101-0.015-0.168-0.022-0.234l0.004 0.041 0.57-0.531c0.044-0.042 0.072-0.101 0.072-0.166 0-0.097-0.061-0.18-0.146-0.214l-0.002-0.001-0.729-0.273c-0.028-0.103-0.048-0.165-0.069-0.228l0.011 0.040 0.455-0.631c0.027-0.037 0.043-0.083 0.043-0.134 0-0.113-0.082-0.207-0.191-0.225l-0.001-0-0.768-0.125c-0.046-0.091-0.077-0.147-0.109-0.203l0.016 0.031 0.323-0.709c0.033-0.072 0.026-0.156-0.018-0.221s-0.119-0.104-0.198-0.101l-0.78 0.027c-0.046-0.059-0.087-0.107-0.128-0.155l0.005 0.006 0.179-0.759c0.004-0.016 0.006-0.034 0.006-0.052 0-0.126-0.102-0.229-0.229-0.229-0.018 0-0.036 0.002-0.054 0.006l0.002-0-0.759 0.179c-0.035-0.030-0.083-0.070-0.133-0.11l-0.017-0.014 0.027-0.78c0-0.003 0-0.007 0-0.011 0-0.125-0.101-0.227-0.227-0.227-0.035 0-0.068 0.008-0.098 0.022l0.001-0.001-0.709 0.323c-0.057-0.031-0.115-0.063-0.173-0.093l-0.125-0.769c-0.019-0.109-0.113-0.191-0.226-0.191-0.050 0-0.096 0.016-0.133 0.043l0.001-0-0.632 0.455c-0.023-0.009-0.085-0.029-0.149-0.047l-0.039-0.010-0.273-0.729c-0.034-0.087-0.117-0.148-0.214-0.148-0.065 0-0.125 0.027-0.166 0.071l-0 0-0.531 0.571c-0.038-0.005-0.104-0.012-0.171-0.017l-0.022-0.001-0.411-0.663c-0.041-0.065-0.112-0.108-0.194-0.108s-0.153 0.043-0.193 0.107l-0.001 0.001-0.411 0.663c-0.065 0.005-0.129 0.012-0.193 0.019l-0.532-0.571c-0.042-0.045-0.101-0.073-0.167-0.073-0.097 0-0.181 0.061-0.213 0.147l-0.001 0.002-0.273 0.729c-0.063 0.018-0.125 0.037-0.188 0.057l-0.631-0.455c-0.037-0.026-0.083-0.042-0.133-0.042-0.113 0-0.207 0.082-0.226 0.19l-0 0.001-0.125 0.769c-0.091 0.046-0.147 0.077-0.203 0.109l0.031-0.016-0.709-0.323c-0.028-0.013-0.060-0.021-0.095-0.021-0.126 0-0.228 0.102-0.228 0.228 0 0.003 0 0.006 0 0.009l-0-0 0.027 0.78c-0.051 0.040-0.101 0.081-0.15 0.123l-0.759-0.179c-0.016-0.004-0.034-0.006-0.052-0.006-0.126 0-0.229 0.102-0.229 0.229 0 0.018 0.002 0.036 0.006 0.054l-0-0.002 0.179 0.759c-0.041 0.049-0.083 0.099-0.123 0.149l-0.78-0.027c-0.003-0-0.006-0-0.009-0-0.126 0-0.228 0.102-0.228 0.228 0 0.034 0.008 0.067 0.021 0.096l-0.001-0.001 0.323 0.709c-0.016 0.026-0.047 0.082-0.077 0.14l-0.016 0.033-0.768 0.125c-0.109 0.019-0.191 0.113-0.191 0.226 0 0.050 0.016 0.096 0.043 0.133l-0-0.001 0.455 0.631c-0.020 0.063-0.039 0.125-0.057 0.188l-0.729 0.273c-0.087 0.034-0.148 0.117-0.148 0.214 0 0.065 0.027 0.125 0.071 0.166l0 0 0.57 0.531c-0.005 0.038-0.012 0.104-0.017 0.171l-0.001 0.022-0.663 0.411c-0.066 0.040-0.109 0.112-0.109 0.194s0.043 0.154 0.108 0.193l0.001 0.001 0.663 0.411c0.005 0.065 0.012 0.129 0.019 0.193l-0.57 0.532c-0.045 0.042-0.073 0.101-0.073 0.167 0 0.097 0.061 0.181 0.147 0.213l0.002 0.001 0.729 0.273c0.018 0.063 0.037 0.126 0.057 0.188l-0.455 0.631c-0.027 0.037-0.044 0.084-0.044 0.134 0 0.113 0.083 0.207 0.192 0.225l0.001 0 0.768 0.125c0.030 0.058 0.061 0.115 0.093 0.173l-0.323 0.709c-0.013 0.028-0.021 0.060-0.021 0.095 0 0.126 0.102 0.228 0.228 0.228 0.003 0 0.006-0 0.009-0l0.779-0.027c0.041 0.051 0.081 0.101 0.123 0.15l-0.179 0.76c-0.004 0.016-0.006 0.034-0.006 0.052 0 0.126 0.102 0.228 0.228 0.228 0.019 0 0.037-0.002 0.054-0.007l-0.002 0 0.759-0.179c0.049 0.042 0.099 0.083 0.15 0.123l-0.027 0.78c-0 0.003-0 0.007-0 0.010 0 0.125 0.101 0.227 0.227 0.227 0.035 0 0.068-0.008 0.098-0.022l-0.001 0.001 0.709-0.323c0.057 0.032 0.115 0.063 0.173 0.093l0.125 0.768c0.019 0.109 0.113 0.191 0.226 0.191 0.050 0 0.096-0.016 0.133-0.043l-0.001 0 0.631-0.455c0.063 0.020 0.125 0.039 0.188 0.057l0.273 0.729c0.033 0.088 0.116 0.149 0.213 0.149 0.066 0 0.125-0.028 0.167-0.073l0-0 0.532-0.57c0.064 0.007 0.129 0.013 0.193 0.019l0.411 0.663c0.041 0.065 0.113 0.108 0.194 0.108s0.153-0.043 0.193-0.107l0.001-0.001 0.411-0.663c0.065-0.006 0.129-0.012 0.193-0.019l0.531 0.57c0.042 0.044 0.101 0.072 0.166 0.072 0.097 0 0.18-0.061 0.214-0.146l0.001-0.002 0.273-0.729c0.063-0.018 0.126-0.037 0.188-0.057l0.631 0.455c0.037 0.027 0.084 0.044 0.134 0.044 0.113 0 0.207-0.083 0.225-0.192l0-0.001 0.125-0.768c0.058-0.030 0.115-0.061 0.173-0.093l0.709 0.323c0.028 0.013 0.060 0.020 0.094 0.020 0.126 0 0.229-0.102 0.229-0.229 0-0.002-0-0.005-0-0.007l0 0-0.027-0.78c0.051-0.040 0.101-0.081 0.149-0.123l0.759 0.179c0.016 0.004 0.033 0.006 0.052 0.006 0.126 0 0.229-0.102 0.229-0.229 0-0.018-0.002-0.036-0.006-0.053l0 0.002-0.179-0.76c0.041-0.049 0.083-0.099 0.123-0.15l0.78 0.027c0.003 0 0.007 0 0.011 0 0.125 0 0.227-0.101 0.227-0.227 0-0.035-0.008-0.068-0.022-0.098l0.001 0.001-0.323-0.709c0.031-0.057 0.063-0.115 0.093-0.173l0.768-0.125c0.109-0.019 0.191-0.113 0.191-0.226 0-0.050-0.016-0.096-0.043-0.133l0 0.001-0.455-0.631 0.057-0.188 0.729-0.273c0.088-0.033 0.149-0.116 0.149-0.214 0-0.066-0.028-0.125-0.073-0.167l-0-0-0.57-0.532c0.007-0.064 0.013-0.129 0.019-0.193l0.663-0.411c0.066-0.040 0.11-0.112 0.11-0.194s-0.043-0.153-0.108-0.193l-0.001-0.001zM11.352 13.308c-0.214-0.047-0.372-0.235-0.372-0.46 0-0.26 0.21-0.47 0.47-0.47 0.035 0 0.069 0.004 0.101 0.011l-0.003-0.001c0.214 0.047 0.372 0.235 0.372 0.46 0 0.26-0.21 0.47-0.47 0.47-0.035 0-0.069-0.004-0.101-0.011l0.003 0.001zM11.127 11.784c-0.027-0.006-0.058-0.010-0.090-0.010-0.205 0-0.376 0.144-0.418 0.336l-0.001 0.003-0.235 1.099c-0.727 0.33-1.533 0.513-2.383 0.513-0.002 0-0.005 0-0.008 0-0.88 0-1.714-0.198-2.46-0.551l0.035 0.015-0.235-1.099c-0.042-0.195-0.213-0.338-0.417-0.338-0.032 0-0.063 0.004-0.093 0.010l0.003-0.001-0.97 0.208c-0.175-0.18-0.339-0.373-0.49-0.576l-0.011-0.015h4.72c0.053 0 0.089-0.009 0.089-0.058v-1.67c0-0.049-0.035-0.058-0.089-0.058h-1.381v-1.059h1.493c0.136 0 0.729 0.039 0.918 0.796 0.059 0.233 0.189 0.991 0.279 1.233 0.089 0.272 0.45 0.815 0.835 0.815h2.352c0.030-0 0.060-0.004 0.088-0.009l-0.003 0.001c-0.172 0.232-0.347 0.437-0.535 0.628l0.001-0.001zM4.598 13.285c-0.030 0.007-0.064 0.010-0.099 0.010-0.26 0-0.47-0.21-0.47-0.47 0-0.225 0.158-0.413 0.368-0.459l0.003-0.001c0.030-0.007 0.064-0.010 0.099-0.010 0.26 0 0.47 0.21 0.47 0.47 0 0.225-0.158 0.413-0.368 0.459l-0.003 0.001zM2.807 6.024c0.029 0.060 0.047 0.13 0.047 0.204 0 0.26-0.21 0.47-0.47 0.47-0.196 0-0.363-0.12-0.434-0.29l-0.001-0.003c-0.022-0.052-0.035-0.113-0.035-0.177 0-0.26 0.21-0.47 0.47-0.47 0.185 0 0.346 0.107 0.422 0.263l0.001 0.003zM2.257 7.329l1.011-0.449c0.151-0.068 0.254-0.218 0.254-0.391 0-0.063-0.014-0.123-0.038-0.177l0.001 0.003-0.208-0.471h0.819v3.689h-1.651c-0.14-0.474-0.221-1.019-0.221-1.582 0-0.219 0.012-0.435 0.036-0.648l-0.002 0.026zM6.692 6.971v-1.087h1.949c0.101 0 0.711 0.117 0.711 0.573 0 0.379-0.468 0.515-0.853 0.515zM13.776 7.949c0 0.144-0.005 0.287-0.016 0.429h-0.593c-0.059 0-0.083 0.039-0.083 0.097v0.272c0 0.641-0.361 0.78-0.678 0.815-0.301 0.034-0.635-0.126-0.677-0.311-0.178-1-0.474-1.214-0.942-1.583 0.581-0.369 1.185-0.913 1.185-1.641 0-0.786-0.539-1.281-0.907-1.525-0.515-0.34-1.086-0.408-1.24-0.408h-6.129c0.827-0.922 1.938-1.574 3.195-1.818l0.036-0.006 0.723 0.758c0.078 0.082 0.188 0.133 0.309 0.133 0.115 0 0.219-0.045 0.296-0.119l-0 0 0.808-0.773c1.704 0.328 3.116 1.366 3.939 2.788l0.015 0.028-0.553 1.25c-0.023 0.051-0.037 0.111-0.037 0.173 0 0.174 0.103 0.323 0.251 0.391l0.003 0.001 1.065 0.473c0.019 0.189 0.028 0.38 0.029 0.574zM7.651 1.628c0.084-0.080 0.198-0.13 0.324-0.13 0.259 0 0.469 0.21 0.469 0.469 0 0.134-0.056 0.254-0.145 0.339l-0 0c-0.082 0.071-0.189 0.114-0.307 0.114-0.26 0-0.47-0.21-0.47-0.47 0-0.125 0.049-0.239 0.129-0.324l-0 0zM13.143 6.047c0.105-0.237 0.382-0.344 0.619-0.239 0.167 0.075 0.281 0.239 0.281 0.43 0 0.26-0.21 0.47-0.47 0.47s-0.47-0.21-0.47-0.47c0-0.069 0.015-0.135 0.042-0.194l-0.001 0.003z"></path>
</svg>
