<!-- Generated by IcoMoon.io -->
<svg version="1.1" xmlns="http://www.w3.org/2000/svg" width="16" height="16" viewBox="0 0 16 16">
<title>safari</title>
<path d="M8 16c-4.418 0-8-3.582-8-8s3.582-8 8-8 8 3.582 8 8-3.582 8-8 8zM8 15.5c4.142 0 7.5-3.358 7.5-7.5s-3.358-7.5-7.5-7.5-7.5 3.358-7.5 7.5 3.358 7.5 7.5 7.5zM8 1.333c0.092 0 0.167 0.075 0.167 0.167v0 0.667c0 0.092-0.075 0.167-0.167 0.167s-0.167-0.075-0.167-0.167v0-0.667c0-0.092 0.075-0.167 0.167-0.167v0zM8 13.667c0.092 0 0.167 0.075 0.167 0.167v0 0.667c0 0.092-0.075 0.167-0.167 0.167s-0.167-0.075-0.167-0.167v0-0.667c0-0.092 0.075-0.167 0.167-0.167v0zM12.714 3.286c0.030 0.030 0.049 0.072 0.049 0.118s-0.019 0.088-0.049 0.118v0l-0.471 0.472c-0.030 0.030-0.072 0.049-0.118 0.049-0.092 0-0.167-0.075-0.167-0.167 0-0.046 0.019-0.088 0.049-0.118v0l0.472-0.471c0.030-0.030 0.072-0.049 0.118-0.049s0.088 0.019 0.118 0.049v0zM3.993 12.007c0.030 0.030 0.049 0.072 0.049 0.118s-0.019 0.088-0.049 0.118v0l-0.472 0.471c-0.031 0.034-0.075 0.056-0.124 0.056-0.092 0-0.167-0.075-0.167-0.167 0-0.049 0.021-0.094 0.055-0.124l0-0 0.471-0.472c0.030-0.030 0.072-0.049 0.118-0.049s0.088 0.019 0.118 0.049v0zM3.286 3.287c0.030-0.030 0.072-0.049 0.118-0.049s0.088 0.019 0.118 0.049v0l0.472 0.471c0.030 0.030 0.049 0.072 0.049 0.118 0 0.092-0.075 0.167-0.167 0.167-0.046 0-0.088-0.019-0.118-0.049v0l-0.471-0.472c-0.030-0.030-0.049-0.072-0.049-0.118s0.019-0.088 0.049-0.118v0zM12.007 12.007c0.030-0.030 0.072-0.049 0.118-0.049s0.088 0.019 0.118 0.049v0l0.471 0.472c0.034 0.031 0.056 0.075 0.056 0.124 0 0.092-0.075 0.167-0.167 0.167-0.049 0-0.094-0.021-0.124-0.055l-0-0-0.472-0.471c-0.030-0.030-0.049-0.072-0.049-0.118s0.019-0.088 0.049-0.118v0zM1.333 8c0-0.092 0.075-0.167 0.167-0.167v0h0.667c0.092 0 0.167 0.075 0.167 0.167s-0.075 0.167-0.167 0.167v0h-0.667c-0.092 0-0.167-0.075-0.167-0.167v0zM13.667 8c0-0.092 0.075-0.167 0.167-0.167v0h0.667c0.092 0 0.167 0.075 0.167 0.167s-0.075 0.167-0.167 0.167v0h-0.667c-0.092 0-0.167-0.075-0.167-0.167v0zM10.605 1.863c0.060 0.026 0.102 0.085 0.102 0.154 0 0.024-0.005 0.046-0.014 0.066l0-0.001-0.261 0.613c-0.025 0.063-0.085 0.108-0.156 0.108-0.092 0-0.167-0.075-0.167-0.167 0-0.026 0.006-0.050 0.016-0.072l-0 0.001 0.26-0.613c0.026-0.060 0.085-0.102 0.154-0.102 0.024 0 0.046 0.005 0.066 0.014l-0.001-0zM5.787 13.217c0.060 0.026 0.101 0.085 0.101 0.153 0 0.023-0.005 0.046-0.014 0.066l0-0.001-0.26 0.613c-0.027 0.057-0.085 0.096-0.151 0.096-0.092 0-0.167-0.075-0.167-0.167 0-0.021 0.004-0.042 0.011-0.060l-0 0.001 0.26-0.613c0.026-0.060 0.085-0.101 0.153-0.101 0.024 0 0.046 0.005 0.066 0.014l-0.001-0zM14.181 5.502c0.008 0.018 0.012 0.040 0.012 0.062 0 0.069-0.043 0.129-0.103 0.154l-0.001 0-0.618 0.25c-0.019 0.008-0.040 0.012-0.063 0.012-0.092 0-0.167-0.075-0.167-0.167 0-0.070 0.043-0.129 0.103-0.154l0.001-0 0.618-0.249c0.019-0.008 0.040-0.012 0.063-0.012 0.070 0 0.129 0.043 0.154 0.103l0 0.001zM2.746 10.122c0.008 0.019 0.012 0.040 0.012 0.063 0 0.070-0.043 0.129-0.103 0.154l-0.001 0-0.618 0.249c-0.020 0.009-0.043 0.014-0.068 0.014-0.092 0-0.167-0.075-0.167-0.167 0-0.071 0.045-0.132 0.108-0.156l0.001-0 0.618-0.25c0.019-0.008 0.040-0.012 0.063-0.012 0.070 0 0.129 0.043 0.154 0.103l0 0.001zM5.503 1.819c0.018-0.008 0.040-0.012 0.062-0.012 0.069 0 0.129 0.043 0.154 0.103l0 0.001 0.25 0.618c0.008 0.019 0.012 0.040 0.012 0.063 0 0.092-0.075 0.167-0.167 0.167-0.070 0-0.129-0.043-0.154-0.103l-0-0.001-0.249-0.618c-0.008-0.019-0.012-0.040-0.012-0.063 0-0.070 0.043-0.129 0.103-0.154l0.001-0zM10.123 13.254c0.019-0.008 0.040-0.012 0.063-0.012 0.070 0 0.129 0.043 0.154 0.103l0 0.001 0.249 0.618c0.009 0.020 0.014 0.043 0.014 0.068 0 0.092-0.075 0.167-0.167 0.167-0.071 0-0.132-0.045-0.156-0.108l-0-0.001-0.25-0.618c-0.008-0.019-0.012-0.040-0.012-0.063 0-0.070 0.043-0.129 0.103-0.154l0.001-0zM1.863 5.395c0.026-0.060 0.085-0.102 0.154-0.102 0.024 0 0.046 0.005 0.066 0.014l-0.001-0 0.613 0.261c0.057 0.027 0.096 0.085 0.096 0.151 0 0.092-0.075 0.167-0.167 0.167-0.021 0-0.042-0.004-0.060-0.011l0.001 0-0.613-0.26c-0.060-0.026-0.102-0.085-0.102-0.154 0-0.024 0.005-0.046 0.014-0.066l-0 0.001zM13.217 10.214c0.026-0.060 0.085-0.101 0.153-0.101 0.023 0 0.046 0.005 0.066 0.014l-0.001-0 0.613 0.26c0.063 0.025 0.108 0.085 0.108 0.156 0 0.092-0.075 0.167-0.167 0.167-0.026 0-0.050-0.006-0.072-0.016l0.001 0-0.613-0.26c-0.060-0.026-0.101-0.085-0.101-0.153 0-0.024 0.005-0.046 0.014-0.066l-0 0.001zM8.586 8.586l-1.173-1.173-2.761 3.933zM12.714 3.286l-3.889 5.539-5.539 3.889 3.889-5.539z"></path>
</svg>
