<!-- Generated by IcoMoon.io -->
<svg version="1.1" xmlns="http://www.w3.org/2000/svg" width="16" height="16" viewBox="0 0 16 16">
<title>sahibinden</title>
<path fill="#ffe800" d="M0 0v16h16v-16zM7.678 3.149c0.375-0.005 0.753-0.003 1.127 0.042 1.608 0.036 3.235 1.453 3.253 3.005h-2.213c0.006-0.463-0.402-1.037-0.853-1.155-0.737-0.179-1.64-0.237-2.287 0.196-0.492 0.297-0.71 1.115-0.063 1.371 1.525 0.722 3.439 0.564 4.816 1.581 1.132 0.807 1.065 2.444 0.183 3.391-1.145 1.227-3.091 1.421-4.733 1.188-1.632-0.078-3.17-1.497-3.213-3.041h2.207c-0.037 0.555 0.425 1.038 0.973 1.215 0.847 0.183 1.817 0.239 2.62-0.127 0.64-0.215 0.683-1.029 0.189-1.402-1.063-0.598-2.377-0.616-3.531-1.012-1.341-0.26-2.429-1.519-2.173-2.798 0.283-1.561 2.085-2.485 3.697-2.454z"></path>
</svg>
