<!-- Generated by IcoMoon.io -->
<svg version="1.1" xmlns="http://www.w3.org/2000/svg" width="16" height="16" viewBox="0 0 16 16">
<title>salesforce</title>
<path fill="#00a1e0" d="M6.67 3.611c0.5-0.531 1.23-0.871 2.031-0.871 1.040 0 1.969 0.6 2.459 1.47 0.42-0.2 0.9-0.3 1.401-0.3 1.899 0 3.439 1.56 3.439 3.48s-1.541 3.48-3.451 3.48c-0.23 0-0.459-0.029-0.68-0.069-0.43 0.78-1.25 1.3-2.2 1.3-0.4 0-0.77-0.1-1.1-0.25-0.439 1.031-1.459 1.749-2.65 1.749-1.239 0-2.3-0.779-2.7-1.879-0.18 0.041-0.36 0.050-0.55 0.050-1.469 0-2.67-1.2-2.67-2.7 0-1 0.541-1.87 1.34-2.34-0.17-0.38-0.26-0.8-0.26-1.231 0-1.72 1.4-3.099 3.1-3.099 1.020 0 1.9 0.469 2.48 1.2z"></path>
</svg>
