<!-- Generated by IcoMoon.io -->
<svg version="1.1" xmlns="http://www.w3.org/2000/svg" width="16" height="16" viewBox="0 0 16 16">
<title>saltstack</title>
<path fill="#00eace" d="M4.264 0l-3.564 0.001v3.564h3.565zM8.224 1.798c-0.689 0-1.306 0.067-1.861 0.194v2.522c0.43-0.249 0.981-0.379 1.667-0.379 0.667 0 1.225 0.113 1.676 0.339 0.673 0.341 1.037 0.917 1.086 1.727h2.704c-0.049-1.431-0.583-2.522-1.596-3.275-1.015-0.751-2.24-1.128-3.676-1.128zM2.997 5.673c-0.007 0.107-0.015 0.215-0.015 0.325 0 1.321 0.453 2.292 1.36 2.914 0.537 0.372 1.521 0.715 2.953 1.031l1.457 0.321c0.853 0.183 1.477 0.393 1.87 0.631 0.393 0.243 0.589 0.588 0.589 1.033 0 0.761-0.402 1.281-1.204 1.561-0.423 0.147-0.972 0.22-1.65 0.22-1.131 0-1.931-0.278-2.397-0.832-0.255-0.305-0.425-0.765-0.511-1.38h-2.687c0 1.401 0.508 2.503 1.524 3.303s2.408 1.199 4.18 1.199c1.735 0 3.079-0.406 4.030-1.219s1.427-1.834 1.427-3.064c0-1.2-0.401-2.115-1.203-2.75-0.517-0.407-1.293-0.735-2.329-0.978l-2.362-0.557c-0.911-0.213-1.509-0.397-1.791-0.557-0.437-0.237-0.655-0.596-0.655-1.077 0-0.043 0.011-0.083 0.014-0.125zM14.613 14.563c-0.383 0.017-0.687 0.332-0.687 0.717s0.304 0.7 0.686 0.717l0.002 0c0.383-0.017 0.687-0.332 0.687-0.717s-0.304-0.7-0.686-0.717l-0.002-0zM14.604 14.681c0.001-0 0.003-0 0.005-0s0.003 0 0.005 0h-0c0.315 0.019 0.564 0.279 0.564 0.598s-0.249 0.579-0.562 0.598l-0.002 0c-0.318-0.016-0.569-0.278-0.569-0.598 0-0.317 0.246-0.576 0.558-0.597l0.002-0zM14.324 14.853v0.848h0.147v-0.327h0.165l0.171 0.327h0.156v-0.007l-0.19-0.354c0.047-0.019 0.087-0.049 0.116-0.088l0.001-0.001c0.025-0.037 0.040-0.083 0.040-0.132 0-0.003-0-0.007-0-0.010l0 0c0-0.001 0-0.001 0-0.002 0-0.039-0.008-0.077-0.023-0.111l0.001 0.002c-0.013-0.032-0.033-0.059-0.058-0.080l-0-0c-0.027-0.022-0.059-0.039-0.094-0.049l-0.002-0c-0.036-0.010-0.078-0.016-0.121-0.016-0.003 0-0.006 0-0.009 0h0zM14.471 14.971h0.151c0.001-0 0.002-0 0.003-0 0.024 0 0.048 0.004 0.070 0.011l-0.002-0c0.036 0.010 0.065 0.037 0.078 0.072l0 0.001c0.006 0.017 0.010 0.038 0.010 0.059s-0.004 0.041-0.010 0.060l0-0.001c-0.007 0.017-0.018 0.032-0.031 0.044l-0 0c-0.013 0.013-0.029 0.023-0.047 0.030l-0.001 0c-0.020 0.007-0.042 0.011-0.066 0.011-0.001 0-0.003-0-0.004-0h-0.151z"></path>
</svg>
