<!-- Generated by IcoMoon.io -->
<svg version="1.1" xmlns="http://www.w3.org/2000/svg" width="16" height="16" viewBox="0 0 16 16">
<title>samsung</title>
<path fill="#1428a0" d="M13.211 6.854l0.031 1.796h-0.015l-0.52-1.796h-0.856v2.262h0.565l-0.031-1.857h0.015l0.558 1.857h0.818v-2.262zM2.445 6.854l-0.428 2.285h0.619l0.313-2.078h0.015l0.306 2.078h0.611l-0.42-2.285zM5.899 6.854l-0.283 1.742h-0.015l-0.283-1.742h-0.932l-0.046 2.285h0.573l0.015-2.055h0.008l0.382 2.055h0.581l0.382-2.055h0.015l0.015 2.055h0.573l-0.053-2.285zM1.054 8.489c0.023 0.053 0.015 0.13 0.008 0.168-0.015 0.076-0.069 0.153-0.222 0.153-0.145 0-0.229-0.084-0.229-0.206v-0.222h-0.611v0.176c0 0.512 0.405 0.665 0.833 0.665 0.413 0 0.756-0.145 0.81-0.52 0.031-0.199 0.008-0.329 0-0.374-0.107-0.481-0.978-0.619-1.039-0.886-0.008-0.046-0.008-0.092 0-0.122 0.015-0.076 0.069-0.153 0.206-0.153s0.214 0.084 0.214 0.206v0.138h0.573v-0.16c0-0.497-0.451-0.573-0.772-0.573-0.405 0-0.741 0.138-0.802 0.504-0.015 0.099-0.023 0.191 0.008 0.306 0.092 0.474 0.909 0.611 1.024 0.902zM8.489 8.489c0.023 0.054 0.015 0.122 0.008 0.168-0.015 0.076-0.069 0.153-0.222 0.153-0.145 0-0.229-0.084-0.229-0.206v-0.222h-0.611v0.176c0 0.504 0.397 0.657 0.825 0.657 0.413 0 0.749-0.138 0.802-0.52 0.031-0.199 0.008-0.321 0-0.374-0.092-0.474-0.955-0.619-1.016-0.879-0.008-0.046-0.008-0.092 0-0.122 0.015-0.076 0.069-0.153 0.206-0.153 0.13 0 0.214 0.084 0.214 0.206v0.138h0.565v-0.16c0-0.497-0.443-0.573-0.764-0.573-0.405 0-0.734 0.13-0.795 0.504-0.015 0.099-0.015 0.191 0.008 0.306 0.092 0.474 0.894 0.604 1.009 0.902zM10.415 8.795c0.16 0 0.206-0.107 0.222-0.168 0.008-0.023 0.008-0.061 0.008-0.084v-1.689h0.581v1.643c0 0.046 0 0.13-0.008 0.153-0.038 0.428-0.374 0.565-0.795 0.565s-0.756-0.138-0.795-0.565c0-0.023-0.008-0.107-0.008-0.153v-1.643h0.581v1.689c0 0.031 0 0.061 0.008 0.084 0 0.061 0.046 0.168 0.206 0.168zM15.182 8.772c0.168 0 0.222-0.107 0.237-0.168 0.008-0.023 0.008-0.061 0.008-0.084v-0.329h-0.237v-0.336h0.81v0.611c0 0.046 0 0.076-0.008 0.153-0.038 0.42-0.397 0.565-0.802 0.565s-0.764-0.145-0.802-0.565c-0.008-0.076-0.008-0.107-0.008-0.153v-0.963c0-0.038 0.008-0.115 0.008-0.153 0.053-0.428 0.397-0.565 0.802-0.565s0.756 0.138 0.802 0.565c0.008 0.069 0.008 0.153 0.008 0.153v0.076h-0.573v-0.13c0 0 0-0.054-0.008-0.084-0.008-0.053-0.053-0.168-0.229-0.168-0.168 0-0.214 0.107-0.229 0.168-0.008 0.031-0.008 0.069-0.008 0.107v1.047c0 0.031 0 0.061 0.008 0.084 0 0.061 0.061 0.168 0.222 0.168z"></path>
</svg>
