<!-- Generated by IcoMoon.io -->
<svg version="1.1" xmlns="http://www.w3.org/2000/svg" width="16" height="16" viewBox="0 0 16 16">
<title>samsungpay</title>
<path fill="#1428a0" d="M15.985 7.135c-0.089-2.552-0.759-4.606-2.272-5.728s-3.787-1.511-6.644-1.375c-1.297 0.063-2.468 0.231-3.418 0.611-0.98 0.393-1.737 0.947-2.291 1.719-1.114 1.55-1.459 3.89-1.337 6.587 0.116 2.56 0.779 4.585 2.31 5.69 1.523 1.098 3.997 1.447 6.606 1.337 2.532-0.107 4.589-0.778 5.69-2.311 1.099-1.53 1.45-3.789 1.356-6.529zM4.401 9.847h-0.33v-0.709h0.33c0.631 0 1.091-0.488 1.091-1.091s-0.488-1.091-1.091-1.091h-1.066c-0.039 0-0.072 0.026-0.083 0.061l-0 0.001v3.868h-0.687v-3.868c0-0.425 0.345-0.77 0.77-0.77h1.066c0.993 0 1.817 0.805 1.817 1.799s-0.769 1.799-1.817 1.799zM10.203 9.847h-0.696v-1.853c-0.014-0.523-0.569-1.043-1.159-1.043-0.664 0-1.153 0.567-1.153 1.097 0 0.751 0.529 1.094 1.153 1.094h0.245v0.705h-0.245c-1.025-0.001-1.857-0.657-1.857-1.799 0-0.932 0.831-1.799 1.857-1.799 0.926 0 1.826 0.777 1.855 1.745zM11.085 6.367l0.907 1.859-0.395 0.802-1.299-2.66zM11.926 11.014h-0.787l2.284-4.647h0.787z"></path>
</svg>
