<!-- Generated by IcoMoon.io -->
<svg version="1.1" xmlns="http://www.w3.org/2000/svg" width="16" height="16" viewBox="0 0 16 16">
<title>sap</title>
<path fill="#008fd3" d="M0 4.043v7.915h8.087l7.913-7.915zM2.176 5.515h0.003c0.575 0.001 1.277 0.163 1.784 0.422l-0.547 0.953c-0.557-0.269-0.837-0.295-1.153-0.311-0.472-0.025-0.709 0.143-0.713 0.325-0.005 0.221 0.446 0.422 0.87 0.559 0.643 0.204 1.46 0.477 1.585 1.267l1.175-3.105h1.364l1.376 3.717-0.005-3.717h1.58c1.505 0 2.212 0.509 2.212 1.679 0 1.050-0.727 1.676-1.957 1.676h-0.509l-0.007 1.396-2.392-0.002-0.167-0.605c-0.247 0.081-0.525 0.126-0.82 0.126-0.304 0-0.59-0.047-0.842-0.133l-0.239 0.613-1.333 0.004 0.060-0.308c-0.019 0.017-0.038 0.033-0.058 0.049-0.357 0.287-0.805 0.419-1.358 0.429l-0.142 0.001c-0.010 0-0.022 0-0.034 0-0.621 0-1.202-0.167-1.702-0.459l0.016 0.009 0.487-0.965c0.527 0.311 0.857 0.381 1.304 0.372 0.231-0.005 0.399-0.047 0.507-0.159 0.062-0.064 0.101-0.15 0.104-0.245l0-0.001c0.005-0.251-0.353-0.369-0.79-0.504-0.354-0.109-0.757-0.259-1.071-0.49-0.373-0.273-0.55-0.616-0.541-1.1 0.002-0.358 0.146-0.681 0.378-0.918l-0 0c0.346-0.358 0.905-0.575 1.575-0.575zM9.241 6.628v1.269h0.347c0.463 0 0.831-0.153 0.832-0.643 0-0.473-0.369-0.627-0.832-0.627zM5.849 7.139l-0.499 1.575c0.149 0.057 0.321 0.089 0.505 0.089 0.179 0 0.347-0.031 0.495-0.084z"></path>
</svg>
