<!-- Generated by IcoMoon.io -->
<svg version="1.1" xmlns="http://www.w3.org/2000/svg" width="16" height="16" viewBox="0 0 16 16">
<title>saucelabs</title>
<path fill="#e2231a" d="M1.953 10.317l4.264 0.003-2.388 4.505c-2.377-1.453-3.828-4.038-3.829-6.825 0-4.411 3.589-8 8-8 1.174 0 2.291 0.254 3.293 0.709l-7.675 7.677h6.833l-5.026 5.076 2.077-3.917h-4.973c-0.227-0.769-0.212-1.545-0.212-1.545 0.004-3.142 2.554-5.686 5.696-5.682 0.062 0 0.125 0.001 0.187 0.003l0.729-0.733c-0.303-0.043-0.61-0.065-0.917-0.065-3.571 0-6.487 2.905-6.487 6.477-0.001 0-0.041 1.146 0.427 2.317zM12.17 1.176c2.377 1.453 3.828 4.037 3.83 6.824 0 4.411-3.589 8-8 8-1.136 0.002-2.259-0.24-3.294-0.71l7.617-7.675h-6.853l5.104-5.077-2.077 3.917h4.973c0.213 0.719 0.213 1.545 0.213 1.545-0.005 3.143-2.556 5.686-5.698 5.681-0.070 0-0.14-0.001-0.209-0.004l-0.723 0.731c3.543 0.518 6.837-1.934 7.355-5.479 0.045-0.307 0.069-0.619 0.069-0.93 0-0.793-0.147-1.579-0.431-2.319h-4.263z"></path>
</svg>
