<!-- Generated by IcoMoon.io -->
<svg version="1.1" xmlns="http://www.w3.org/2000/svg" width="16" height="16" viewBox="0 0 16 16">
<title>scaleway</title>
<path fill="#4f0599" d="M11.073 7.407v3.813c-0.022 0.579-0.459 1.051-1.021 1.126l-0.006 0.001h-2.667c-0.448-0.034-0.807-0.373-0.873-0.808l-0.001-0.005c-0.002-0.018-0.002-0.039-0.002-0.060s0.001-0.042 0.003-0.063l-0 0.003c0.004-0.502 0.411-0.907 0.913-0.907 0 0 0 0 0 0h1.16c0.368 0 0.667-0.298 0.667-0.667v0-2.413c-0-0.001-0-0.003-0-0.005 0-0.464 0.338-0.848 0.781-0.921l0.005-0.001h0.113c0.004-0 0.009-0 0.013-0 0.502 0 0.91 0.405 0.913 0.906v0zM6.767 8.567v-2.393c0-0.368 0.298-0.667 0.667-0.667v0h1.233c0.504 0 0.913-0.409 0.913-0.913v0c0.002-0.017 0.002-0.037 0.002-0.057s-0.001-0.040-0.003-0.059l0 0.003c-0.081-0.453-0.47-0.794-0.939-0.8h-2.641c-0.568 0.073-1.009 0.532-1.053 1.103l-0 0.004v3.8c0 0.504 0.409 0.913 0.913 0.913h0.14c0.439-0.082 0.767-0.462 0.767-0.918 0-0.005-0-0.011-0-0.016l0 0.001zM14.767 5.707v7.627c-0.169 1.433-1.321 2.551-2.756 2.666l-0.011 0.001h-5.053c-3.153-0.004-5.707-2.56-5.707-5.713 0 0 0 0 0-0v0-7.26c0-1.672 1.355-3.027 3.027-3.027v0h4.787c0.002 0 0.004 0 0.007 0 3.152 0 5.707 2.555 5.707 5.707 0 0 0 0 0 0v0zM12.94 5.707c-0.004-2.141-1.739-3.876-3.88-3.88h-4.794c-0.002-0-0.004-0-0.007-0-0.659 0-1.193 0.534-1.193 1.193 0 0.002 0 0.005 0 0.007v-0 7.26c0.011 2.136 1.743 3.863 3.88 3.867h4.96c0.524-0.068 0.937-0.468 1.026-0.98l0.001-0.007z"></path>
</svg>
