<!-- Generated by IcoMoon.io -->
<svg version="1.1" xmlns="http://www.w3.org/2000/svg" width="16" height="16" viewBox="0 0 16 16">
<title>scribd</title>
<path fill="#1a7bba" d="M9.893 14.039c0-1.415 1.048-2.626 2.362-2.871-0.063-1.315-0.616-2.219-1.479-2.895-0.87-0.677-2.081-1.19-3.392-1.705-1.42-0.555-2.481-1.046-2.481-2.115 0-0.901 0.78-1.579 2.091-1.579 0.801 0 1.316 0.123 1.581 0.266 0 0.062-0.019 0.144-0.060 0.206-0.041 0.082-0.060 0.184-0.060 0.329 0 0.903 0.655 1.703 1.825 1.703 1.068 0 1.703-0.801 1.703-1.971 0-0.985-0.555-1.847-1.459-2.442-0.919-0.595-2.2-0.965-3.65-0.965-1.501 0.103-2.793 0.657-3.695 1.478-0.903 0.82-1.437 1.929-1.437 3.242 0 1.458 0.513 2.402 1.354 3.122 0.841 0.718 2.052 1.231 3.51 1.744 1.581 0.509 2.505 1.041 2.505 2.091 0 1.060-0.923 1.701-2.381 1.701-0.761 0-1.416-0.129-1.971-0.509 0.146-0.271 0.146-0.542 0.146-0.801 0-0.762-0.671-1.712-1.843-1.712-1.040 0-1.82 0.801-1.82 1.971 0 0.981 0.62 1.911 1.63 2.563 0.99 0.679 2.381 1.11 3.882 1.11 1.321 0 2.512-0.25 3.432-0.91-0.14-0.271-0.26-0.661-0.26-1.071zM14.759 14.039c0 1.048-0.85 1.849-1.851 1.849-1 0-1.831-0.801-1.831-1.847 0-1 0.82-1.821 1.82-1.821 1.001 0 1.843 0.821 1.843 1.832z"></path>
</svg>
