<!-- Generated by IcoMoon.io -->
<svg version="1.1" xmlns="http://www.w3.org/2000/svg" width="16" height="16" viewBox="0 0 16 16">
<title>scrutinizerci</title>
<path fill="#8a9296" d="M9.907 0l-5.322 0.040c-1.041 0.232-1.912 0.835-2.487 1.659l-0.009 0.013c-0.421 0.487-0.735 1.079-0.898 1.731l-0.006 0.029-0.080 0.369-0.079 0.571c-0.040 0.533-0.040 0.901 0.080 0.981h3.517c0.040 0-0.124-0.164-0.124-0.448 0-0.492 0.168-0.616 0.368-0.82 0.368-0.284 1.963-0.080 3.152-0.164 1.632 0 3.068-0.040 3.232-0.080 1.8-0.285 3.353-1.592 3.681-3.024 0.080-0.365 0.080-0.737 0.040-0.777-0.040-0.080-0.693-0.080-5.064-0.080zM6.128 6.005c-2.505-0.010-4.98 0-5.020 0.040-0.084 0.084-0.040 0.532 0.040 0.9 0.227 0.745 0.655 1.371 1.222 1.835l0.007 0.005c0.611 0.511 1.357 0.882 2.175 1.054l0.033 0.006c0.244 0.084 0.696 0.084 3.065 0.084 2.824 0 3.277 0.040 3.48 0.16 0.095 0.071 0.177 0.153 0.246 0.245l0.002 0.003c0.12 0.16 0.121 0.205 0.121 0.653s-0.044 0.488-0.124 0.696c-0.078 0.098-0.172 0.18-0.279 0.241l-0.005 0.003c-0.124 0.080-0.205 0.079-2.905 0.119-3.113 0-3.437 0-4.213 0.288-0.635 0.188-1.184 0.497-1.645 0.904l0.005-0.004c-0.776 0.693-1.228 1.469-1.308 2.285l0.040 0.407c1.53 0.044 3.329 0.070 5.135 0.070s3.605-0.025 5.399-0.076l-0.264 0.006 0.328-0.080c0.19-0.046 0.354-0.102 0.511-0.171l-0.019 0.008 0.245-0.12c1.096-0.637 1.922-1.635 2.322-2.828l0.011-0.036c0.168-0.508 0.265-1.093 0.265-1.7 0-0.849-0.189-1.654-0.528-2.375l0.014 0.034c-0.384-0.763-0.907-1.404-1.541-1.911l-0.011-0.009c-0.457-0.302-0.992-0.529-1.566-0.651l-0.030-0.005c-0.164-0.040-2.701-0.071-5.206-0.081z"></path>
</svg>
