<!-- Generated by IcoMoon.io -->
<svg version="1.1" xmlns="http://www.w3.org/2000/svg" width="16" height="16" viewBox="0 0 16 16">
<title>seagate</title>
<path fill="#72be4f" d="M5.543 1.157c0.185-0.111 0.369-0.222 0.554-0.295 0.074 0.185 0.185 0.369 0.259 0.553-0.407 0.222-0.813 0.407-1.181 0.665-5.433 3.299-4.6 7.049-2.253 7.385 1.599 0.3 3.562-0.729 4.948-1.551 1.050-0.657 1.993-1.284 1.993-2.031 0-0.475-0.549-0.702-0.997-0.628-1.445 0.361-3.38 2.363-4.985 2.363-0.731 0-1.263-0.561-1.181-1.219 0.103-1.229 1.261-2.153 2.327-2.769 1.723-1.131 4.013-2.133 6.055-2.031 5.098 0.176 8.151 6.543-0.665 12.111-1.001 0.632-2.613 1.327-2.953 1.44-0.148-0.665-0.369-1.329-0.517-1.994 1.614-0.76 2.097-0.854 3.877-2.215 1.495-1.197 2.933-2.611 3.175-4.542 0.037-0.443 0.037-0.849-0.074-1.292-0.601-2.060-3.38-4.183-8.603-0.701-0.543 0.317-1.44 0.957-1.44 1.587 0 0.148 0.111 0.333 0.259 0.369 0.803 0.344 2.587-1.461 4.357-2.068 1.387-0.489 2.783 0.031 3.028 1.256 0.037 0.332 0.037 0.664-0.073 0.96-0.396 1.027-1.35 1.772-2.327 2.4-1.020 0.561-2.058 1.361-4.32 1.957-1.543 0.421-3.511 0.193-4.32-1.181-0.333-0.517-0.48-1.145-0.48-1.735 0.037-0.702 0.185-1.403 0.48-2.031 0.517-1.071 1.292-2.031 2.215-2.806 0.842-0.741 1.786-1.402 2.799-1.953l0.081-0.040z"></path>
</svg>
