<!-- Generated by IcoMoon.io -->
<svg version="1.1" xmlns="http://www.w3.org/2000/svg" width="16" height="16" viewBox="0 0 16 16">
<title>sega</title>
<path fill="#0089cf" d="M14.153 2.76l-0.004 2.22h-7.067c-0.146 0-0.265 0.121-0.265 0.266 0 0.147 0.12 0.266 0.265 0.266l1.84-0.011c2.897 0 5.245 2.35 5.245 5.246 0 2.899-2.348 5.246-5.246 5.246l-7.089 0.007 0.003-2.25h7.090c1.658 0 3.003-1.344 3.003-3.003 0-1.66-1.345-3.004-3.004-3.004l-1.847-0.020c-1.373 0-2.485-1.111-2.485-2.48 0-1.374 1.111-2.484 2.482-2.484zM1.842 13.229l-0.003-2.221h7.073c0.14 0 0.255-0.117 0.255-0.258s-0.115-0.257-0.256-0.257h-1.829c-2.897 0-5.245-2.35-5.245-5.247s2.348-5.246 5.245-5.246l7.067 0.002 0.004 2.233-7.069 0.002c-1.66 0-3 1.346-3 3.005s1.349 3.003 3.010 3.003l1.85 0.020c1.37 0 2.48 1.112 2.48 2.483s-1.11 2.479-2.48 2.479h-7.1z"></path>
</svg>
