<!-- Generated by IcoMoon.io -->
<svg version="1.1" xmlns="http://www.w3.org/2000/svg" width="16" height="16" viewBox="0 0 16 16">
<title>sellfy</title>
<path fill="#21b352" d="M15.453 0.545c-5.097-0.727-9.849-0.727-14.919 0-0.711 5.039-0.711 9.737 0 14.752 2.474 0.363 4.947 0.703 7.47 0.703 2.499 0 4.973-0.34 7.447-0.678 0.733-5.040 0.733-9.738 0-14.777zM7.759 12.755c-1.37 0-2.817-0.459-3.453-0.799l0.538-2.084c0.709 0.47 1.788 0.93 2.964 0.93 0.93 0 1.493-0.291 1.493-0.87 0-0.41-0.29-0.65-1.050-0.84l-1.519-0.421c-1.611-0.44-2.371-1.261-2.371-2.57 0-1.577 1.22-2.837 3.746-2.837 1.327 0 2.649 0.363 3.38 0.728l-0.634 1.984c-0.736-0.41-1.86-0.75-2.817-0.75-0.91 0-1.3 0.291-1.3 0.728 0 0.413 0.269 0.58 0.861 0.728l1.659 0.489c1.711 0.491 2.471 1.311 2.471 2.59-0.051 1.801-1.641 3.011-3.971 3.011z"></path>
</svg>
