<!-- Generated by IcoMoon.io -->
<svg version="1.1" xmlns="http://www.w3.org/2000/svg" width="16" height="16" viewBox="0 0 16 16">
<title>semaphoreci</title>
<path fill="#19a974" d="M14.576 3.511c0.023-0.005 0.049-0.007 0.075-0.007 0.138 0 0.259 0.070 0.33 0.177l0.001 0.001c0 0 0.311 0.507 0.496 0.91 0.183 0.403 0.361 0.969 0.361 0.969 0.009 0.032 0.015 0.069 0.015 0.106 0 0.127-0.060 0.239-0.152 0.312l-0.001 0.001-1.003 0.715c-0.117 0.093-0.191 0.236-0.191 0.395 0 0.013 0 0.025 0.001 0.037l-0-0.002c0 0 0.056 0.382 0.064 0.711 0.007 0.323-0.027 0.697-0.027 0.697-0 0.003-0 0.007-0 0.010 0 0.168 0.083 0.317 0.209 0.408l0.002 0.001 1.041 0.662c0.128 0.081 0.2 0.265 0.16 0.412 0 0-0.148 0.575-0.311 0.987-0.161 0.413-0.445 0.933-0.445 0.933-0.070 0.118-0.196 0.195-0.341 0.195-0.020 0-0.039-0.001-0.058-0.004l0.002 0-1.213-0.225c-0.019-0.003-0.041-0.004-0.064-0.004-0.149 0-0.283 0.064-0.376 0.167l-0 0c0 0-0.254 0.326-0.503 0.574-0.276 0.277-0.665 0.571-0.665 0.571-0.106 0.093-0.173 0.229-0.173 0.381 0 0.020 0.001 0.040 0.004 0.060l-0-0.002 0.204 1.216c0.002 0.015 0.003 0.032 0.003 0.049 0 0.147-0.080 0.275-0.2 0.343l-0.002 0.001c0 0-0.527 0.275-0.943 0.43s-0.992 0.293-0.992 0.293c-0.024 0.005-0.051 0.008-0.079 0.008-0.136 0-0.256-0.069-0.327-0.174l-0.001-0.001-0.645-1.051c-0.092-0.133-0.244-0.219-0.415-0.219-0 0-0 0-0.001 0h0c0 0-0.331 0.027-0.633 0.017-0.311-0.010-0.657-0.060-0.657-0.060-0.011-0.001-0.025-0.001-0.038-0.001-0.158 0-0.3 0.073-0.392 0.188l-0.001 0.001-0.717 1.004c-0.073 0.093-0.186 0.153-0.312 0.153-0.038 0-0.075-0.005-0.109-0.015l0.003 0.001c0 0-0.567-0.178-0.971-0.362s-0.908-0.493-0.908-0.493c-0.108-0.072-0.178-0.193-0.178-0.33 0-0.027 0.003-0.054 0.008-0.079l-0 0.003 0.257-1.066c0.053-0.221 0.225-0.531 0.386-0.691l2.653-2.662c0.343 0.192 0.753 0.306 1.19 0.306 1.362 0 2.467-1.104 2.467-2.467 0-0.436-0.113-0.846-0.312-1.202l0.006 0.013 2.659-2.659c0.161-0.16 0.47-0.333 0.691-0.386zM1.423 12.489c-0.023 0.005-0.049 0.007-0.075 0.007-0.138 0-0.259-0.070-0.33-0.177l-0.001-0.001c0 0-0.311-0.505-0.495-0.909s-0.362-0.969-0.362-0.969c-0.009-0.032-0.015-0.069-0.015-0.107 0-0.126 0.059-0.239 0.152-0.311l0.001-0.001 1.004-0.715c0.116-0.093 0.19-0.235 0.19-0.395 0-0.013-0-0.025-0.001-0.038l0 0.002c0 0-0.055-0.382-0.063-0.711-0.007-0.323 0.027-0.697 0.027-0.697 0-0.003 0-0.007 0-0.010 0-0.168-0.083-0.317-0.209-0.408l-0.002-0.001-1.040-0.661c-0.103-0.072-0.17-0.191-0.17-0.325 0-0.031 0.004-0.061 0.010-0.089l-0.001 0.003c0 0 0.149-0.575 0.311-0.989 0.163-0.411 0.447-0.933 0.447-0.933 0.070-0.117 0.196-0.195 0.34-0.195 0.020 0 0.039 0.001 0.058 0.004l-0.002-0 1.213 0.225c0.019 0.003 0.042 0.004 0.065 0.004 0.149 0 0.283-0.064 0.375-0.166l0-0c0 0 0.253-0.326 0.502-0.575 0.276-0.276 0.665-0.57 0.665-0.57 0.106-0.093 0.173-0.229 0.173-0.381 0-0.021-0.001-0.041-0.004-0.061l0 0.002-0.204-1.215c-0.002-0.015-0.003-0.032-0.003-0.050 0-0.147 0.080-0.275 0.2-0.343l0.002-0.001c0 0 0.527-0.275 0.943-0.431 0.415-0.154 0.992-0.292 0.992-0.292 0.024-0.005 0.052-0.008 0.080-0.008 0.136 0 0.256 0.069 0.327 0.174l0.001 0.001 0.644 1.052c0.092 0.132 0.243 0.217 0.415 0.217 0.001 0 0.001 0 0.002 0h-0c0 0 0.331-0.026 0.633-0.016 0.311 0.010 0.657 0.061 0.657 0.061 0.011 0.001 0.024 0.001 0.037 0.001 0.159 0 0.301-0.074 0.393-0.189l0.001-0.001 0.717-1.003c0.073-0.094 0.186-0.153 0.313-0.153 0.038 0 0.074 0.005 0.109 0.015l-0.003-0.001c0 0 0.567 0.179 0.971 0.363s0.908 0.493 0.908 0.493c0.108 0.072 0.178 0.193 0.178 0.33 0 0.027-0.003 0.053-0.008 0.079l0-0.003-0.257 1.066c-0.078 0.269-0.211 0.5-0.387 0.692l0.001-0.001-2.654 2.663c-0.343-0.193-0.753-0.306-1.19-0.306-1.362 0-2.467 1.104-2.467 2.467 0 0.437 0.113 0.847 0.312 1.203l-0.006-0.012-2.659 2.658c-0.16 0.161-0.47 0.333-0.691 0.387z"></path>
</svg>
