<!-- Generated by IcoMoon.io -->
<svg version="1.1" xmlns="http://www.w3.org/2000/svg" width="16" height="16" viewBox="0 0 16 16">
<title>sensu</title>
<path fill="#89c967" d="M16 8l-8-8-8 8 8 8zM8 2.131l2.945 2.945c-0.963-0.257-1.953-0.391-2.945-0.391s-1.983 0.133-2.945 0.392zM5.379 11.247c0.793-0.439 1.689-0.672 2.621-0.672s1.827 0.233 2.621 0.672l-2.621 2.623zM11.719 10.149c-1.131-0.72-2.424-1.081-3.719-1.081s-2.587 0.361-3.719 1.081l-2.069-2.067c1.669-1.225 3.677-1.888 5.787-1.888s4.119 0.663 5.787 1.888z"></path>
</svg>
