<!-- Generated by IcoMoon.io -->
<svg version="1.1" xmlns="http://www.w3.org/2000/svg" width="16" height="16" viewBox="0 0 16 16">
<title>sentry</title>
<path fill="#fb4226" d="M15.775 14.381c0.299-0.499 0.299-0.997 0-1.496l-6.48-11.265c-0.298-0.498-0.797-0.699-1.295-0.699s-0.997 0.299-1.295 0.699l-2.094 3.688 0.499 0.299c1.595 0.897 2.891 2.193 3.788 3.788 0.798 1.396 1.296 2.891 1.396 4.487h-1.495c-0.099-1.297-0.499-2.593-1.196-3.789-0.698-1.395-1.795-2.492-3.19-3.29l-0.499-0.298-1.993 3.389 0.498 0.299c1.296 0.797 2.193 2.093 2.393 3.589h-3.29c-0.099 0-0.2-0.1-0.2-0.1s-0.099-0.1 0-0.199l0.899-1.595c-0.299-0.298-0.699-0.499-1.097-0.597l-0.897 1.595c-0.299 0.499-0.299 0.997 0 1.496 0.299 0.497 0.697 0.697 1.295 0.697h4.586v-0.597c0-1.097-0.299-2.094-0.797-3.091-0.399-0.797-0.997-1.395-1.695-1.893l0.698-1.297c0.898 0.697 1.695 1.495 2.293 2.493 0.698 1.195 0.997 2.492 0.997 3.788v0.597h3.887v-0.597c0-1.993-0.498-3.988-1.595-5.782-0.798-1.596-2.094-2.891-3.59-3.889l1.496-2.591c0.101-0.1 0.2-0.1 0.2-0.1 0.1 0 0.1 0 0.199 0.1l6.481 11.264c0.099 0.099 0 0.199 0 0.199s-0.1 0.1-0.2 0.1h-1.495v1.197h1.495c0.597 0.099 0.997-0.1 1.295-0.597z"></path>
</svg>
