<!-- Generated by IcoMoon.io -->
<svg version="1.1" xmlns="http://www.w3.org/2000/svg" width="16" height="16" viewBox="0 0 16 16">
<title>shazam</title>
<path fill="#08f" d="M8 0c-4.418 0-8.001 3.581-8.001 8 0 4.417 3.583 8 8.001 8s8-3.583 8-8c0-4.419-3.582-8-8-8zM6.581 11.157c-0.858 0-1.715-0.284-2.374-0.854-0.809-0.699-1.289-1.653-1.353-2.683-0.060-0.999 0.28-1.963 0.957-2.711 0.761-0.842 2.126-2.15 2.183-2.206 0.37-0.355 0.957-0.341 1.311 0.030s0.341 0.959-0.029 1.314c-0.014 0.013-1.374 1.317-2.091 2.109-0.339 0.376-0.509 0.855-0.479 1.351 0.033 0.526 0.285 1.019 0.713 1.391 0.563 0.487 1.673 0.594 2.369-0.029 0.413-0.373 0.915-0.918 0.92-0.924 0.347-0.378 0.933-0.402 1.31-0.054 0.377 0.347 0.402 0.935 0.055 1.313-0.023 0.023-0.568 0.616-1.048 1.048-0.67 0.601-1.557 0.905-2.444 0.905zM12.188 11.091c-0.762 0.841-2.126 2.15-2.184 2.206-0.18 0.171-0.41 0.257-0.64 0.257-0.245 0-0.488-0.097-0.671-0.287-0.354-0.373-0.341-0.959 0.029-1.314 0.014-0.013 1.375-1.318 2.091-2.111 0.339-0.375 0.509-0.855 0.479-1.351-0.032-0.526-0.285-1.019-0.713-1.389-0.563-0.487-1.673-0.595-2.368 0.029-0.414 0.371-0.915 0.917-0.92 0.923-0.347 0.377-0.933 0.403-1.311 0.056-0.376-0.347-0.403-0.936-0.055-1.314 0.023-0.025 0.567-0.617 1.047-1.049 1.319-1.185 3.481-1.209 4.818-0.051 0.809 0.701 1.29 1.653 1.352 2.683 0.061 0.998-0.279 1.963-0.956 2.712z"></path>
</svg>
