<!-- Generated by IcoMoon.io -->
<svg version="1.1" xmlns="http://www.w3.org/2000/svg" width="16" height="16" viewBox="0 0 16 16">
<title>shell</title>
<path fill="#ffd500" d="M8 0.575c-4.44 0-8 3.592-8 8.078 0 0.664 0.025 0.916 0.164 1.553l2.441 1.807 0.38 3.010h4.068l0.217 0.151c0.251 0.175 0.47 0.25 0.721 0.25 0.235 0 0.488-0.067 0.683-0.209l0.26-0.193h4.063l0.375-3.010 2.463-1.807c0.139-0.637 0.164-0.889 0.164-1.553 0-4.485-3.559-8.078-8-8.078zM8.664 2.081c0.6 0 1.185 0.149 1.675 0.433l-1.643 8.365 2.28-8.041c0.706 0.24 1.242 0.627 1.672 1.209l0.017 0.023-3.268 7.077 3.715-6.475 0.022 0.020c0.505 0.472 0.831 1.045 0.995 1.765l-4.13 5.111 4.291-4.333 0.007 0.014c0.169 0.375 0.278 0.907 0.278 1.331 0 0.339-0.016 0.475-0.109 0.833l-2.369 1.735-0.311 2.473h-2.983l-0.345 0.263c-0.133 0.105-0.321 0.177-0.455 0.177s-0.322-0.072-0.455-0.177l-0.345-0.263h-2.986l-0.297-2.407-2.418-1.777c-0.073-0.291-0.107-0.553-0.107-0.841 0-0.48 0.106-0.993 0.284-1.369l0.009-0.016 4.3 4.367-4.153-5.164c0.167-0.709 0.583-1.393 1.093-1.809l3.695 6.517-3.302-7.056c0.37-0.543 0.967-0.97 1.697-1.218l2.283 8.046-1.729-8.351 0.037-0.020c0.543-0.3 1.065-0.438 1.638-0.438 0.13 0 0.191 0.003 0.352 0.020l0.391 8.7 0.307-8.706c0.149-0.017 0.206-0.019 0.369-0.019z"></path>
</svg>
