<!-- Generated by IcoMoon.io -->
<svg version="1.1" xmlns="http://www.w3.org/2000/svg" width="16" height="16" viewBox="0 0 16 16">
<title>shopify</title>
<path fill="#7ab55c" d="M10.225 15.986l4.811-1.041c0 0-1.736-11.742-1.75-11.82-0.012-0.077-0.076-0.128-0.141-0.128s-1.286-0.091-1.286-0.091-0.85-0.849-0.959-0.941c-0.030-0.025-0.050-0.038-0.081-0.049l-0.609 14.069zM7.807 7.537c0 0-0.54-0.283-1.183-0.283-0.965 0-1.003 0.604-1.003 0.761 0 0.821 2.16 1.143 2.16 3.086 0 1.53-0.96 2.507-2.271 2.507-1.569 0-2.36-0.977-2.36-0.977l0.431-1.391c0 0 0.83 0.711 1.52 0.711 0.45 0 0.65-0.363 0.65-0.621 0-1.079-1.769-1.129-1.769-2.906-0.023-1.491 1.047-2.944 3.218-2.944 0.838 0 1.25 0.241 1.25 0.241l-0.63 1.81zM7.447 0.553c0.091 0 0.181 0.025 0.27 0.090-0.656 0.31-1.376 1.093-1.672 2.661-0.437 0.142-0.862 0.27-1.259 0.385 0.346-1.19 1.182-3.13 2.661-3.13zM8.27 2.519v0.090c-0.503 0.155-1.055 0.323-1.596 0.491 0.311-1.185 0.889-1.763 1.39-1.981 0.129 0.334 0.206 0.784 0.206 1.4zM8.629 1.030c0.463 0.049 0.761 0.578 0.953 1.17-0.233 0.076-0.49 0.154-0.772 0.244v-0.168c0-0.501-0.064-0.914-0.181-1.247zM10.624 1.889c-0.013 0-0.040 0.014-0.052 0.014s-0.193 0.050-0.476 0.14c-0.282-0.822-0.784-1.58-1.672-1.58h-0.077c-0.257-0.324-0.568-0.463-0.837-0.463-2.071 0-3.060 2.585-3.37 3.897-0.796 0.243-1.375 0.424-1.44 0.449-0.45 0.142-0.463 0.155-0.515 0.58-0.050 0.308-1.22 9.375-1.22 9.375l9.041 1.698z"></path>
</svg>
