<!-- Generated by IcoMoon.io -->
<svg version="1.1" xmlns="http://www.w3.org/2000/svg" width="16" height="16" viewBox="0 0 16 16">
<title>showpad</title>
<path fill="#2d2e83" d="M16 8v-0.227l-0.020-0.16c-0.182-1.72-1.534-3.075-3.237-3.259l-0.016-0.001-0.16-0.007h-0.033l-0.18-0.007c-0.004-0-0.010-0-0.015-0-1.005 0-1.914 0.408-2.572 1.067l-0 0-1.233 1.24 0.9 0.907 0.9-0.9h-0.007l0.333-0.34c0.429-0.432 1.023-0.7 1.68-0.7 0.002 0 0.004 0 0.007 0h0.133l0.107 0.007c1.126 0.117 2.012 1.002 2.132 2.116l0.001 0.011v0.487c-0.092 0.836-0.605 1.535-1.319 1.887l-0.014 0.006-0.020 0.013-0.067 0.027-0.047 0.020-0.040 0.020-0.073 0.027h-0.020c-0.233 0.083-0.501 0.131-0.78 0.131-0.655 0-1.249-0.264-1.68-0.691l-0.333-0.333-2.247-2.24-3.587-3.593-4.493 4.493 4.493 4.493 0.893-0.9 2.247-2.247-0.893-0.9-2.247 2.247-2.693-2.693 2.693-2.693 5.273 5.273c0.659 0.659 1.569 1.067 2.575 1.067 0.427 0 0.837-0.073 1.217-0.208l-0.025 0.008 0.033-0.007 0.107-0.047 0.067-0.027 0.073-0.027 0.107-0.047 0.033-0.020c1.11-0.551 1.89-1.621 2.025-2.884l0.001-0.016v-0.007l0.013-0.16v-0.207z"></path>
</svg>
