<!-- Generated by IcoMoon.io -->
<svg version="1.1" xmlns="http://www.w3.org/2000/svg" width="16" height="16" viewBox="0 0 16 16">
<title>siemens</title>
<path fill="#099" d="M0.057 9.174v-0.481c0.273 0.087 0.517 0.13 0.727 0.13 0.291 0 0.436-0.077 0.436-0.231 0-0.001 0-0.003 0-0.004 0-0.056-0.025-0.106-0.064-0.14l-0-0c-0.042-0.042-0.153-0.099-0.333-0.172-0.319-0.132-0.529-0.243-0.626-0.338-0.117-0.113-0.189-0.272-0.189-0.447 0-0.006 0-0.012 0-0.017l-0 0.001c0-0.24 0.093-0.425 0.276-0.55 0.18-0.125 0.417-0.187 0.708-0.187 0.16 0 0.393 0.029 0.697 0.089v0.461c-0.186-0.080-0.401-0.129-0.628-0.135l-0.002-0c-0.273 0-0.409 0.075-0.409 0.226 0 0.056 0.027 0.1 0.083 0.137 0.045 0.028 0.171 0.089 0.377 0.182 0.297 0.131 0.495 0.245 0.594 0.344 0.109 0.109 0.176 0.26 0.176 0.426 0 0.008-0 0.016-0 0.024l0-0.001c0 0.007 0 0.014 0 0.022 0 0.249-0.138 0.466-0.342 0.579l-0.003 0.002c-0.185 0.113-0.427 0.171-0.722 0.171-0.268-0-0.529-0.033-0.778-0.094l0.022 0.005zM2.264 6.779h0.679v2.433h-0.679zM3.566 9.213v-2.433h1.744v0.44h-1.089v0.551h0.948v0.401h-0.948v0.577h1.117v0.465zM5.783 9.213v-2.433h0.881l0.611 1.555 0.629-1.555h0.838v2.433h-0.646v-1.723l-0.713 1.748h-0.421l-0.7-1.748v1.723zM9.365 9.213v-2.433h1.743v0.44h-1.088v0.551h0.947v0.401h-0.947v0.577h1.117v0.465zM11.585 9.213v-2.433h0.787l0.837 1.63v-1.629h0.48v2.433h-0.768l-0.857-1.65v1.651zM14.17 9.174v-0.481c0.271 0.087 0.513 0.13 0.727 0.13 0.291 0 0.435-0.077 0.435-0.231 0-0.001 0-0.002 0-0.002 0-0.056-0.023-0.106-0.061-0.141l-0-0c-0.044-0.042-0.156-0.099-0.335-0.172-0.32-0.131-0.529-0.243-0.627-0.338-0.117-0.114-0.19-0.272-0.19-0.448 0-0.006 0-0.012 0-0.018l-0 0.001c0-0.239 0.092-0.423 0.275-0.548 0.181-0.125 0.417-0.187 0.707-0.187 0.166 0 0.377 0.025 0.637 0.077l0.060 0.011v0.461c-0.186-0.080-0.401-0.129-0.628-0.135l-0.002-0c-0.273 0-0.409 0.075-0.409 0.226 0 0.056 0.027 0.1 0.083 0.136 0.044 0.028 0.169 0.089 0.38 0.183 0.295 0.131 0.492 0.245 0.591 0.344 0.109 0.109 0.176 0.259 0.176 0.425 0 0.008-0 0.017-0.001 0.025l0-0.001c0 0.264-0.113 0.465-0.34 0.603-0.189 0.113-0.429 0.171-0.726 0.171-0.254 0-0.507-0.031-0.755-0.089z"></path>
</svg>
