<!-- Generated by IcoMoon.io -->
<svg version="1.1" xmlns="http://www.w3.org/2000/svg" width="16" height="16" viewBox="0 0 16 16">
<title>signal</title>
<path fill="#2592e9" d="M8.008 1.732c-3.48 0-6.301 2.6-6.301 5.806 0 2.011 0.813 3.534 2.103 4.516h-0.003l0.156 2.028v0.003c0 0.011 0 0.021 0.003 0.031v0.004c0.016 0.096 0.1 0.17 0.201 0.17 0.035 0 0.067-0.010 0.096-0.023l0.007-0.005 1.931-1.116c0.569 0.131 1.178 0.199 1.807 0.199 3.48 0 6.301-2.599 6.301-5.807s-2.822-5.806-6.303-5.806zM6.927 0.48c0.35-0.043 0.707-0.069 1.070-0.069 0.253 0 0.5 0.013 0.746 0.035l0.038-0.409c-0.26-0.023-0.519-0.036-0.783-0.036-0.38 0-0.757 0.024-1.127 0.073l0.055 0.408zM9.458 0.543c0.61 0.11 1.19 0.291 1.74 0.53l0.168-0.378c-0.088-0.037-0.175-0.075-0.265-0.11-0.508-0.2-1.034-0.349-1.57-0.447zM15.571 7.58c-0.010 0.61-0.103 1.204-0.27 1.77l0.393 0.117c0.178-0.602 0.277-1.236 0.287-1.887zM4.497 1.209c0.541-0.259 1.119-0.465 1.724-0.601l-0.090-0.403c-0.421 0.094-0.834 0.219-1.235 0.379-0.198 0.078-0.391 0.163-0.578 0.254zM13.597 2.142c-0.471-0.433-0.99-0.805-1.553-1.115l-0.207 0.361c0.541 0.297 1.041 0.654 1.483 1.064l0.277-0.308zM10.101 14.701c0.63-0.16 1.23-0.394 1.791-0.687l-0.21-0.355c-0.524 0.275-1.087 0.492-1.681 0.645zM2.451 2.67c0.42-0.425 0.898-0.8 1.42-1.117l-0.218-0.353c-0.465 0.281-0.9 0.609-1.297 0.982-0.068 0.063-0.133 0.127-0.2 0.193l0.293 0.294zM15.438 10.19l-0.379-0.157c-0.233 0.555-0.535 1.076-0.903 1.555l0.33 0.246c0.385-0.505 0.707-1.057 0.949-1.643zM13.817 2.955c0.404 0.45 0.748 0.95 1.023 1.485l0.37-0.183c-0.29-0.568-0.653-1.097-1.085-1.577l-0.31 0.275zM15.52 4.957l-0.379 0.163c0.209 0.552 0.347 1.135 0.403 1.74l0.41-0.041c-0.059-0.637-0.203-1.261-0.434-1.862zM4.257 15.233l-0.646 0.283-0.221-0.683-0.39 0.127 0.292 0.898c0.019 0.055 0.060 0.101 0.111 0.125 0.027 0.011 0.055 0.017 0.084 0.017s0.056-0.006 0.082-0.017l0.855-0.375zM6.806 14.437c-0.052-0.011-0.105-0.018-0.158-0.027l-0.31-0.053c-0.041-0.006-0.080 0-0.115 0.015l-1.301 0.569 0.181 0.369 1.23-0.535c0.083 0.014 0.167 0.027 0.247 0.039 0.045 0.011 0.093 0.017 0.139 0.025zM9.291 14.451c-0.422 0.069-0.854 0.104-1.295 0.104-0.182 0-0.35-0.010-0.515-0.025l-0.013 0.41c0.167 0.016 0.341 0.027 0.527 0.027 0.465 0 0.922-0.039 1.365-0.111l-0.069-0.404zM1.011 4.744c0.247-0.55 0.568-1.065 0.95-1.535l-0.313-0.271c-0.407 0.497-0.744 1.038-1.005 1.618l-0.007 0.014zM13.688 12.14c-0.408 0.434-0.873 0.819-1.38 1.152l0.226 0.343c0.537-0.349 1.027-0.76 1.46-1.219zM0.647 9.701c-0.125-0.531-0.195-1.117-0.215-1.781h-0.411c0.020 0.714 0.097 1.337 0.23 1.895zM0.359 5.283c-0.198 0.607-0.312 1.235-0.34 1.875l0.41 0.020c0.028-0.615 0.139-1.211 0.325-1.775zM3.158 14.123l-0.393-1.21c-0.013-0.040-0.037-0.073-0.070-0.098-0.155-0.121-0.299-0.244-0.44-0.372l-0.281 0.297c0.129 0.123 0.272 0.241 0.419 0.361l0.374 1.145zM1.755 11.929c-0.394-0.461-0.691-0.966-0.903-1.543l-0.382 0.153c0.027 0.071 0.055 0.144 0.084 0.215 0.22 0.531 0.514 1.006 0.895 1.45z"></path>
</svg>
