<!-- Generated by IcoMoon.io -->
<svg version="1.1" xmlns="http://www.w3.org/2000/svg" width="16" height="16" viewBox="0 0 16 16">
<title>simpleicons</title>
<path d="M8 8v-1c-1.656 0-3-1.344-3-3s1.344-3 3-3 3 1.344 3 3h1c0-2.208-1.792-4-4-4s-4 1.792-4 4 1.792 4 4 4zM10.025 8.551c1.905 1.119 2.544 3.57 1.425 5.476h1.12c0.282-0.636 0.428-1.325 0.429-2.020 0.002-2.763-2.235-5.003-4.996-5.007v1c0.711 0 1.409 0.191 2.022 0.551zM8.002 7v0zM4.552 14.027c-0.352-0.595-0.552-1.287-0.552-2.027v-0.020h-1v0.020c-0.001 0.698 0.145 1.389 0.43 2.027zM10 15v-4h1v-1h-6v1h1v4h-3v1h10v-1zM9 15h-2v-4h2zM6.052 3.948c-0.029 1.105 0.843 2.023 1.948 2.052 1.065-0.027 1.92-0.884 1.948-1.948 0.029-1.105-0.844-2.023-1.948-2.052-1.065 0.027-1.92 0.884-1.948 1.948zM9 4.001c0 0.552-0.448 1-1 1-0.553 0-1-0.449-1-1.001s0.447-1 1-1c0.552 0 1 0.448 1 1.001z"></path>
</svg>
