<!-- Generated by IcoMoon.io -->
<svg version="1.1" xmlns="http://www.w3.org/2000/svg" width="16" height="16" viewBox="0 0 16 16">
<title>sinaweibo</title>
<path fill="#e6162d" d="M6.732 13.549c-2.651 0.261-4.943-0.937-5.115-2.68-0.173-1.739 1.839-3.365 4.493-3.627 2.653-0.263 4.942 0.936 5.114 2.679 0.173 1.733-1.839 3.366-4.491 3.626zM6.033 11.479c-0.256 0.411-0.805 0.589-1.219 0.401-0.408-0.186-0.529-0.661-0.271-1.062 0.253-0.397 0.784-0.574 1.195-0.401 0.415 0.175 0.547 0.648 0.295 1.061zM6.88 10.395c-0.094 0.158-0.299 0.235-0.459 0.169-0.157-0.060-0.209-0.241-0.118-0.391 0.092-0.151 0.291-0.231 0.448-0.16 0.159 0.060 0.21 0.24 0.12 0.401zM6.997 8.582c-1.262-0.329-2.689 0.3-3.238 1.412-0.557 1.136-0.017 2.394 1.257 2.807 1.322 0.427 2.879-0.227 3.421-1.453 0.533-1.195-0.134-2.428-1.441-2.766zM12.039 7.766c-0.231-0.070-0.38-0.12-0.27-0.41 0.25-0.651 0.28-1.203 0-1.603-0.521-0.741-1.943-0.702-3.576-0.020 0 0-0.511 0.221-0.381-0.181 0.251-0.811 0.21-1.483-0.18-1.873-0.892-0.891-3.246 0.030-5.259 2.053-1.501 1.513-2.374 3.115-2.374 4.499 0 2.654 3.399 4.263 6.724 4.263 4.357 0 7.259-2.534 7.259-4.547 0-1.215-1.031-1.903-1.943-2.189zM13.311 4.371c-0.511-0.571-1.272-0.791-1.973-0.641-0.291 0.060-0.471 0.341-0.411 0.621s0.341 0.461 0.621 0.401c0.341-0.070 0.711 0.029 0.961 0.31s0.311 0.651 0.211 0.982c-0.091 0.271 0.059 0.571 0.34 0.661 0.27 0.079 0.571-0.070 0.661-0.341 0.22-0.681 0.080-1.452-0.431-2.023zM14.923 2.908c-1.051-1.171-2.603-1.613-4.036-1.312-0.331 0.069-0.541 0.391-0.471 0.721 0.069 0.331 0.391 0.542 0.721 0.471 1.021-0.221 2.123 0.1 2.864 0.922 0.741 0.831 0.953 1.962 0.631 2.944-0.11 0.32 0.071 0.671 0.391 0.771 0.319 0.11 0.661-0.069 0.771-0.391 0.45-1.392 0.161-2.985-0.892-4.157z"></path>
</svg>
