<!-- Generated by IcoMoon.io -->
<svg version="1.1" xmlns="http://www.w3.org/2000/svg" width="16" height="16" viewBox="0 0 16 16">
<title>sitepoint</title>
<path fill="#258aaf" d="M1.647 7.022l1.181 1.125 3.732 3.427 1.6-1.527c0.14-0.198 0.129-0.47-0.031-0.657l-1.469-1.268 0.007-0.003-1.581-1.511c-0.186-0.209-0.18-0.52 0.014-0.719l4.26-4.051-1.929-1.839-5.781 5.492c-0.443 0.422-0.443 1.107 0 1.53zM14.351 8.98l-1.18-1.127-3.73-3.428-1.607 1.527c-0.147 0.2-0.138 0.47 0.030 0.657l1.47 1.261h-0.004l1.579 1.51c0.18 0.209 0.18 0.511-0.019 0.709l-4.261 4.050 1.941 1.861 5.78-5.492c0.443-0.422 0.444-1.106 0-1.53z"></path>
</svg>
