<!-- Generated by IcoMoon.io -->
<svg version="1.1" xmlns="http://www.w3.org/2000/svg" width="16" height="16" viewBox="0 0 16 16">
<title>skillshare</title>
<path fill="#17c5cb" d="M7.028 15.94c-1.427-0.185-2.896-0.797-3.967-1.653-2.408-1.923-3.503-4.957-2.877-7.975 0.27-1.301 0.967-2.672 1.86-3.658 0.65-0.729 1.425-1.33 2.295-1.772l0.044-0.020c1.175-0.597 2.301-0.865 3.629-0.865 0.955 0 1.719 0.125 2.598 0.424 2.341 0.821 4.151 2.631 4.955 4.916l0.017 0.056c0.469 1.377 0.556 2.84 0.255 4.29-0.238 1.147-0.855 2.433-1.617 3.367-0.313 0.385-1.030 1.072-1.409 1.352-1.076 0.805-2.388 1.355-3.815 1.536l-0.040 0.004c-0.41 0.051-1.532 0.049-1.93-0.001zM9.208 15.271c2.005-0.344 3.704-1.448 4.821-3l0.015-0.022c1.351-1.901 1.714-4.447 0.95-6.667-0.18-0.523-0.625-1.391-0.949-1.85-0.363-0.513-1.259-1.41-1.773-1.773-0.5-0.353-1.354-0.783-1.935-0.975-0.694-0.238-1.493-0.376-2.324-0.376-1.49 0-2.876 0.442-4.036 1.201l0.028-0.017c-0.879 0.583-1.61 1.314-2.176 2.164l-0.018 0.028c-0.741 1.131-1.183 2.518-1.183 4.007 0 0.832 0.138 1.631 0.391 2.377l-0.015-0.052c0.191 0.581 0.622 1.435 0.975 1.935 0.363 0.514 1.259 1.411 1.773 1.773 0.459 0.324 1.327 0.769 1.849 0.949 1.15 0.395 2.382 0.497 3.605 0.298zM6.438 12.589c-0.397-0.061-0.753-0.197-1.068-0.394l0.012 0.007c-0.287-0.185-2.471-2.321-2.577-2.523-0.121-0.23 0.091-0.647 0.396-0.773l0.143-0.060-0.44-0.449c-0.242-0.247-0.471-0.509-0.509-0.583-0.085-0.167-0.089-0.523-0.007-0.681 0.033-0.065 0.113-0.163 0.178-0.218 0.107-0.091 0.116-0.12 0.105-0.344-0.011-0.2 0.007-0.277 0.093-0.426 0.125-0.212 0.383-0.357 0.635-0.358 0.139 0 0.177-0.020 0.235-0.123 0.156-0.273 0.605-0.372 0.947-0.207l0.184 0.089 0.093-0.087c0.124-0.117 0.373-0.217 0.538-0.217 0.328 0 0.791 0.377 0.791 0.644 0 0.317-0.289 0.371-0.575 0.109-0.192-0.177-0.287-0.195-0.365-0.071-0.039 0.061 0.053 0.172 0.615 0.737 0.559 0.562 0.66 0.684 0.66 0.791-0.010 0.169-0.146 0.303-0.315 0.309l-0.001 0c-0.101 0-0.268-0.147-1.036-0.912-0.783-0.78-0.927-0.905-0.989-0.867-0.169 0.107-0.112 0.185 0.805 1.104 0.498 0.5 0.907 0.943 0.907 0.984 0 0.088-0.078 0.245-0.143 0.288-0.046 0.020-0.1 0.032-0.157 0.032-0.005 0-0.009-0-0.014-0l0.001 0c-0.107 0.001-0.271-0.145-1.144-1.016s-1.031-1.011-1.093-0.971c-0.171 0.108-0.115 0.183 0.884 1.187 0.543 0.545 0.999 1.032 1.013 1.083 0.028 0.093-0.035 0.259-0.119 0.315-0.047 0.020-0.102 0.032-0.16 0.032-0.004 0-0.009-0-0.013-0l0.001 0c-0.109 0-0.243-0.117-0.965-0.84-0.693-0.695-0.857-0.839-0.943-0.829-0.251 0.029-0.163 0.141 1.129 1.435 1.119 1.121 1.263 1.281 1.263 1.397 0 0.093-0.033 0.158-0.111 0.219-0.201 0.159-0.28 0.122-0.785-0.367-0.258-0.249-0.525-0.488-0.593-0.531-0.127-0.080-0.45-0.113-0.511-0.051-0.020 0.019 0.457 0.521 1.057 1.117 1.002 0.992 1.119 1.094 1.413 1.235 0.567 0.273 1.179 0.275 1.746 0.005 0.842-0.4 1.308-1.376 1.079-2.259-0.115-0.439-0.257-0.651-0.837-1.246-0.667-0.683-0.82-0.871-0.983-1.198-0.182-0.367-0.262-0.723-0.262-1.171 0-0.481 0.051-0.7 0.264-1.149 0.204-0.431 0.627-0.88 1.047-1.113 0.824-0.457 1.907-0.419 2.693 0.095 0.157 0.102 0.721 0.633 1.424 1.337 1.045 1.048 1.165 1.182 1.165 1.304 0 0.283-0.232 0.599-0.489 0.663-0.099 0.025-0.079 0.053 0.359 0.497 0.255 0.258 0.493 0.539 0.527 0.623 0.124 0.295 0.069 0.583-0.155 0.815-0.116 0.12-0.13 0.163-0.133 0.402-0.004 0.211-0.027 0.299-0.109 0.419-0.137 0.2-0.365 0.324-0.594 0.325-0.161 0-0.194 0.017-0.273 0.14-0.182 0.281-0.657 0.379-0.964 0.198l-0.153-0.091-0.11 0.105c-0.243 0.232-0.633 0.263-0.931 0.075-0.239-0.152-0.417-0.362-0.417-0.495 0-0.117 0.171-0.309 0.273-0.309 0.099 0 0.233 0.077 0.383 0.219 0.151 0.143 0.281 0.142 0.301-0.003 0.011-0.078-0.113-0.227-0.619-0.735-0.531-0.535-0.633-0.657-0.633-0.762-0-0.003-0-0.007-0-0.011 0-0.057 0.012-0.112 0.033-0.161l-0.001 0.003c0.056-0.085 0.217-0.145 0.316-0.12 0.054 0.013 0.493 0.42 0.976 0.903s0.909 0.879 0.947 0.879c0.107 0 0.176-0.107 0.127-0.197-0.023-0.041-0.431-0.463-0.905-0.936-0.743-0.74-0.863-0.877-0.862-0.986-0-0.005-0-0.010-0-0.015 0-0.057 0.012-0.111 0.033-0.16l-0.001 0.003c0.043-0.065 0.2-0.143 0.288-0.143 0.041 0 0.53 0.455 1.089 1.011 1.026 1.023 1.101 1.080 1.209 0.909 0.040-0.063-0.1-0.22-0.971-1.093-0.899-0.901-1.017-1.035-1.017-1.153 0-0.083 0.035-0.165 0.092-0.218 0.192-0.179 0.247-0.142 1.172 0.778 0.875 0.872 0.955 0.929 1.060 0.763 0.039-0.063-0.138-0.257-1.223-1.346-1.183-1.187-1.269-1.283-1.269-1.421 0-0.207 0.12-0.307 0.351-0.291 0.043 0.003 0.291 0.213 0.551 0.467s0.54 0.49 0.623 0.525c0.163 0.068 0.353 0.080 0.436 0.028 0.078-0.050-2.085-2.178-2.364-2.326-0.276-0.152-0.604-0.241-0.954-0.241-0.802 0-1.495 0.471-1.816 1.151l-0.005 0.012c-0.134 0.289-0.153 0.373-0.17 0.747-0.016 0.351-0.004 0.462 0.071 0.685 0.135 0.398 0.254 0.562 0.86 1.182 0.656 0.672 0.781 0.827 0.949 1.185 0.468 1.001 0.269 2.155-0.504 2.928-0.589 0.589-1.389 0.867-2.184 0.757z"></path>
</svg>
