<!-- Generated by IcoMoon.io -->
<svg version="1.1" xmlns="http://www.w3.org/2000/svg" width="16" height="16" viewBox="0 0 16 16">
<title>skyliner</title>
<path fill="#2fcea0" d="M5.307 11.709c-0.121-0.025-0.244 0.029-0.307 0.135-0.317 0.68-1.051 1.061-1.789 0.93-0.135-0.739 0.249-1.475 0.931-1.787 0.136-0.083 0.181-0.261 0.097-0.398-0.045-0.074-0.121-0.125-0.207-0.137-1.051-0.198-2.129 0.175-2.835 0.979-0.834 1.145-1.148 2.589-0.864 3.977 0.021 0.123 0.117 0.219 0.239 0.239 0.332 0.054 0.668 0.080 1.005 0.080 1.223 0.068 2.417-0.387 3.287-1.249 0.593-0.703 0.839-1.635 0.671-2.539-0.014-0.125-0.107-0.225-0.23-0.25zM15.852 0.135c-0.114-0.113-0.348-0.059-0.348-0.059-0.423-0.049-0.851-0.074-1.278-0.075-2.769-0.029-5.435 1.051-7.404 2.998-0.24 0.241-0.467 0.495-0.68 0.759-0.935-0.433-2.005-0.473-2.97-0.11-1.525 0.656-2.415 2.525-3.153 4.447-0.058 0.149 0.017 0.317 0.166 0.375 0.096 0.037 0.203 0.021 0.283-0.043 1.044-0.775 2.412-0.963 3.627-0.499l-0.362 1.309c-0.033 0.123 0.017 0.251 0.125 0.319 0.977 0.731 1.845 1.597 2.575 2.571 0.069 0.109 0.199 0.159 0.321 0.125l1.309-0.359c0.479 1.217 0.291 2.595-0.499 3.637-0.099 0.125-0.077 0.309 0.047 0.407 0.081 0.064 0.19 0.080 0.285 0.043 1.922-0.739 3.791-1.629 4.443-3.148 0.363-0.964 0.325-2.033-0.107-2.967 0.263-0.217 0.515-0.448 0.755-0.691 2.254-2.293 3.333-5.494 2.928-8.684 0 0 0.051-0.235-0.064-0.349zM14.226 0.58c0.375 0 0.751 0.019 1.125 0.059 0.053 0.514 0.069 1.032 0.047 1.548-0.407-0.044-0.789-0.227-1.082-0.514-0.292-0.291-0.475-0.673-0.518-1.082 0.139-0.007 0.281-0.012 0.424-0.012zM7.231 3.408c1.611-1.597 3.728-2.581 5.988-2.781 0.047 0.451 0.22 0.879 0.499 1.237l-1.799 1.798c-1.019-0.802-2.495-0.626-3.297 0.393-0.67 0.852-0.67 2.052 0 2.904l-2.098 2.098c-0.541-0.523-1.126-0.999-1.751-1.421 0.441-1.596 1.288-3.053 2.457-4.228zM12.247 5.514c0.001 0.979-0.792 1.773-1.771 1.773-0.979 0.001-1.773-0.792-1.773-1.771 0-0.98 0.793-1.773 1.771-1.774h0.002c0.978 0 1.771 0.793 1.771 1.771zM0.876 7.513c0.627-1.503 1.393-2.845 2.519-3.329 0.769-0.285 1.619-0.264 2.373 0.060-0.675 0.943-1.187 1.997-1.51 3.112-1.097-0.445-2.332-0.387-3.383 0.155zM6.803 11.639c-0.716-0.913-1.541-1.736-2.455-2.451l0.263-0.956c1.23 0.85 2.296 1.916 3.148 3.145zM11.809 12.589c-0.485 1.132-1.825 1.899-3.326 2.526 0.541-1.052 0.595-2.288 0.15-3.383 1.118-0.325 2.173-0.84 3.119-1.519 0.323 0.756 0.343 1.608 0.055 2.377zM8.351 11.216c-0.419-0.625-0.893-1.211-1.415-1.752l2.098-2.099c1.019 0.802 2.495 0.626 3.297-0.393 0.671-0.852 0.671-2.052 0-2.904l1.799-1.799c0.357 0.279 0.785 0.451 1.233 0.5-0.199 2.258-1.181 4.375-2.777 5.986-1.175 1.169-2.631 2.015-4.229 2.456z"></path>
</svg>
