<!-- Generated by IcoMoon.io -->
<svg version="1.1" xmlns="http://www.w3.org/2000/svg" width="16" height="16" viewBox="0 0 16 16">
<title>skype</title>
<path fill="#00aff0" d="M8.046 12.583c-2.682 0-3.88-1.319-3.88-2.309 0-0.51 0.374-0.864 0.889-0.864 1.149 0 0.849 1.651 2.991 1.651 1.094 0 1.7-0.597 1.7-1.207 0-0.367-0.179-0.773-0.903-0.953l-2.384-0.597c-1.92-0.483-2.269-1.524-2.269-2.501 0-2.031 1.907-2.794 3.699-2.794 1.647 0 3.595 0.915 3.595 2.133 0 0.523-0.459 0.827-0.969 0.827-0.979 0-0.799-1.358-2.776-1.358-0.979 0-1.528 0.443-1.528 1.078s0.769 0.839 1.438 0.991l1.758 0.391c1.927 0.433 2.416 1.564 2.416 2.629 0 1.651-1.268 2.883-3.815 2.883zM15.399 9.329l-0.019 0.090-0.029-0.16c0.010 0.030 0.029 0.049 0.039 0.080 0.080-0.45 0.121-0.909 0.121-1.368 0-1.019-0.201-2.008-0.599-2.947-0.379-0.899-0.93-1.708-1.618-2.397-0.699-0.689-1.498-1.237-2.397-1.617-0.879-0.421-1.867-0.62-2.885-0.62-0.48 0-0.963 0.047-1.429 0.136l0.079 0.040-0.159-0.022 0.079-0.017c-0.643-0.344-1.363-0.527-2.095-0.527-1.193 0-2.313 0.465-3.157 1.311s-1.309 1.971-1.309 3.166c0 0.762 0.195 1.51 0.563 2.172l0.013-0.083 0.027 0.159-0.040-0.077c-0.076 0.43-0.115 0.866-0.115 1.303 0 1.020 0.2 2.011 0.589 2.944 0.379 0.908 0.919 1.717 1.618 2.406 0.689 0.7 1.498 1.238 2.397 1.628 0.929 0.4 1.918 0.599 2.936 0.599 0.439 0 0.889-0.040 1.318-0.119l-0.079-0.041 0.16 0.031-0.090 0.020c0.668 0.379 1.417 0.581 2.196 0.581 1.189 0 2.306-0.46 3.155-1.309 0.839-0.839 1.308-1.967 1.308-3.166 0-0.759-0.199-1.508-0.569-2.177z"></path>
</svg>
