<!-- Generated by IcoMoon.io -->
<svg version="1.1" xmlns="http://www.w3.org/2000/svg" width="16" height="16" viewBox="0 0 16 16">
<title>slack</title>
<path fill="#4a154b" d="M3.361 10.11c-0.002 0.927-0.753 1.679-1.68 1.682h-0c-0.928-0.002-1.679-0.754-1.681-1.682v-0c0.003-0.927 0.754-1.678 1.681-1.68h1.68zM4.209 10.11c0.003-0.927 0.754-1.678 1.68-1.68h0c0.927 0.002 1.678 0.753 1.681 1.68v4.209c-0.002 0.927-0.753 1.679-1.68 1.681h-0c-0.927-0.003-1.678-0.754-1.681-1.681v-0zM5.889 3.361c-0.927-0.003-1.678-0.753-1.681-1.68v-0c0.002-0.927 0.753-1.679 1.68-1.681h0c0.927 0.003 1.678 0.754 1.681 1.681v1.68zM5.889 4.209c0.927 0.003 1.678 0.754 1.681 1.68v0c-0.003 0.927-0.754 1.678-1.68 1.681h-4.208c-0.927-0.002-1.679-0.753-1.681-1.68v-0c0.003-0.927 0.754-1.678 1.681-1.681h0zM12.637 5.889c0.003-0.927 0.754-1.678 1.681-1.681h0c0.927 0.002 1.679 0.753 1.681 1.68v0c-0.003 0.927-0.754 1.678-1.681 1.681h-1.682zM11.792 5.889c-0.003 0.928-0.754 1.679-1.682 1.681h-0c-0.927-0.003-1.678-0.754-1.68-1.68v-4.208c0.002-0.927 0.753-1.679 1.68-1.681h0c0.928 0.002 1.68 0.753 1.682 1.681v0zM10.11 12.637c0.928 0.002 1.68 0.753 1.682 1.681v0c-0.002 0.928-0.754 1.679-1.682 1.681h-0c-0.927-0.003-1.678-0.754-1.68-1.681v-1.682zM10.11 11.792c-0.927-0.003-1.678-0.754-1.68-1.682v-0c0.002-0.927 0.753-1.678 1.68-1.68h4.209c0.927 0.002 1.679 0.753 1.681 1.68v0c-0.002 0.928-0.753 1.68-1.681 1.682h-0z"></path>
</svg>
