<!-- Generated by IcoMoon.io -->
<svg version="1.1" xmlns="http://www.w3.org/2000/svg" width="16" height="16" viewBox="0 0 16 16">
<title>slides</title>
<path fill="#e4637c" d="M0 0v16h16v-16zM9.451 10.529c-0.429 0.389-0.94 0.58-1.54 0.58s-1.109-0.091-1.549-0.271c-0.431-0.18-0.651-0.35-0.651-0.52l-0.051 0.063c0-0.087 0.053-0.216 0.163-0.39s0.207-0.26 0.293-0.26c0.009 0 0.080 0.040 0.209 0.123s0.315 0.165 0.558 0.248c0.243 0.082 0.536 0.123 0.878 0.123 0.35 0 0.63-0.098 0.85-0.293s0.33-0.46 0.33-0.793-0.1-0.593-0.291-0.78c-0.19-0.187-0.58-0.363-1.16-0.527-0.58-0.167-1-0.376-1.26-0.631-0.26-0.257-0.391-0.645-0.391-1.165s0.2-0.957 0.6-1.308c0.4-0.36 0.92-0.53 1.56-0.53 0.45 0 0.84 0.049 1.19 0.169 0.349 0.11 0.52 0.24 0.52 0.37 0 0.109-0.050 0.26-0.151 0.429-0.1 0.18-0.19 0.26-0.26 0.26-0.011 0-0.060-0.030-0.171-0.080-0.29-0.16-0.62-0.24-0.989-0.24s-0.651 0.070-0.86 0.22c-0.2 0.15-0.3 0.35-0.3 0.59s0.080 0.429 0.229 0.569 0.41 0.26 0.78 0.38c0.82 0.25 1.37 0.52 1.66 0.82s0.44 0.751 0.44 1.35c0.001 0.6-0.208 1.1-0.637 1.493z"></path>
</svg>
