<!-- Generated by IcoMoon.io -->
<svg version="1.1" xmlns="http://www.w3.org/2000/svg" width="16" height="16" viewBox="0 0 16 16">
<title>smashingmagazine</title>
<path fill="#e85c33" d="M5.156 8.001c0.511 0.349 1.108 0.673 1.805 0.962 1.19 0.495 1.99 0.925 2.401 1.291 0.41 0.365 0.619 0.832 0.619 1.403-0.003 0.971-0.682 1.459-2.051 1.459-1.318 0-2.5-0.418-3.551-1.25l-1.247 2.791c0.948 0.507 1.72 0.838 2.317 0.997l0.094 0.022-1.199 0.277c-0.847 0.195-1.693-0.335-1.888-1.181l-2.415-10.439c-0.194-0.847 0.333-1.693 1.182-1.89l2.917-0.673c-0.105 0.103-0.205 0.211-0.294 0.323l-0.012 0.014c-0.502 0.633-0.754 1.41-0.754 2.337 0 1.401 0.687 2.58 2.053 3.531l0.031 0.019zM12.061 8.049c-0.56-0.448-1.269-0.845-2.16-1.191-1.32-0.523-2.181-0.94-2.581-1.248-0.4-0.31-0.609-0.654-0.609-1.038 0-0.973 0.609-1.46 1.84-1.46 1.361 0 2.431 0.329 3.191 0.984l1.010-2.72c-0.73-0.371-1.49-0.64-2.27-0.811l-0.040-0.010c-0.171-0.041-0.35-0.080-0.541-0.109l1.75-0.401c0.85-0.19 1.69 0.341 1.891 1.181l2.42 10.431c0.189 0.849-0.34 1.701-1.189 1.89l-1.99 0.46c0.549-0.701 0.83-1.56 0.83-2.58 0-1.050-0.291-1.941-0.871-2.681-0.19-0.231-0.41-0.451-0.671-0.671l-0.029-0.019z"></path>
</svg>
