<!-- Generated by IcoMoon.io -->
<svg version="1.1" xmlns="http://www.w3.org/2000/svg" width="16" height="16" viewBox="0 0 16 16">
<title>smugmug</title>
<path fill="#6db944" d="M12.207 0l-0.233 0.007c-1.033 0.087-1.64 0.8-1.733 1.52-0.1 0.8 0.433 1.6 1.72 1.52 1.433-0.080 2.060-0.8 2.067-1.52 0.013-0.767-0.667-1.52-1.82-1.527zM4.807 0.227c-0.004-0-0.009-0-0.013-0-0.885 0-1.619 0.649-1.752 1.497l-0.001 0.010c-0.1 0.753 0.373 1.513 1.627 1.5 1.487-0.027 2.207-0.913 2.107-1.713-0.080-0.667-0.727-1.28-1.967-1.293zM13.040 6.033c-0.099 0.002-0.191 0.007-0.283 0.014l0.017-0.001c-3.52 0.36-3.693 0.4-10.173 0.547-2.733 0.007-2.187 9.407 3.653 9.407 5.467 0 12.080-10.1 6.787-9.967zM12.307 7.833c2.12-0.047-1.933 6.353-5.867 6.373-4.973 0-4.293-5.867-3.453-5.9 5.78-0.233 7.253-0.427 9.32-0.473z"></path>
</svg>
