<!-- Generated by IcoMoon.io -->
<svg version="1.1" xmlns="http://www.w3.org/2000/svg" width="16" height="16" viewBox="0 0 16 16">
<title>snapchat</title>
<path fill="#fffc00" d="M8.137 0.529c0.66 0 2.898 0.184 3.953 2.547 0.353 0.795 0.269 2.146 0.199 3.231l-0.002 0.040c-0.008 0.12-0.015 0.23-0.020 0.34 0.050 0.030 0.135 0.060 0.267 0.060 0.2-0.011 0.439-0.080 0.689-0.201 0.11-0.059 0.229-0.069 0.309-0.069 0.121 0 0.239 0.019 0.339 0.060 0.3 0.099 0.489 0.319 0.489 0.559 0.010 0.299-0.26 0.559-0.809 0.779-0.059 0.019-0.139 0.050-0.229 0.079-0.3 0.090-0.759 0.24-0.889 0.54-0.060 0.149-0.041 0.349 0.080 0.579l0.010 0.010c0.040 0.091 1.017 2.317 3.194 2.676 0.17 0.029 0.29 0.18 0.28 0.339 0 0.050-0.010 0.099-0.030 0.15-0.16 0.379-0.849 0.659-2.097 0.847-0.039 0.061-0.080 0.25-0.109 0.38-0.019 0.119-0.049 0.24-0.089 0.369-0.051 0.181-0.18 0.27-0.37 0.27h-0.020c-0.090 0-0.209-0.021-0.359-0.049-0.24-0.050-0.51-0.090-0.849-0.090-0.2 0-0.399 0.010-0.609 0.049-0.4 0.069-0.749 0.309-1.149 0.589-0.569 0.399-1.217 0.859-2.196 0.859-0.040 0-0.079-0.010-0.12-0.010h-0.099c-0.979 0-1.618-0.45-2.186-0.859-0.399-0.28-0.738-0.519-1.138-0.589-0.209-0.030-0.419-0.049-0.619-0.049-0.36 0-0.639 0.059-0.848 0.099-0.141 0.029-0.261 0.049-0.36 0.049-0.249 0-0.349-0.149-0.389-0.28-0.041-0.128-0.060-0.259-0.090-0.378-0.031-0.121-0.070-0.329-0.111-0.38-1.279-0.148-1.967-0.428-2.126-0.817-0.021-0.042-0.035-0.1-0.037-0.15-0.010-0.162 0.11-0.31 0.28-0.339 2.176-0.36 3.153-2.586 3.194-2.68l0.011-0.019c0.12-0.23 0.149-0.43 0.079-0.579-0.13-0.289-0.589-0.439-0.888-0.539-0.081-0.019-0.16-0.049-0.231-0.079-0.738-0.29-0.838-0.62-0.798-0.849 0.060-0.319 0.449-0.529 0.779-0.529 0.097 0 0.18 0.019 0.255 0.049 0.28 0.129 0.526 0.2 0.736 0.2 0.156 0 0.256-0.040 0.31-0.070l-0.031-0.379c-0.065-1.084-0.15-2.434 0.205-3.225 1.026-2.351 3.257-2.531 3.916-2.531l0.279-0.010z"></path>
</svg>
