<!-- Generated by IcoMoon.io -->
<svg version="1.1" xmlns="http://www.w3.org/2000/svg" width="16" height="16" viewBox="0 0 16 16">
<title>snyk</title>
<path fill="#4c4a73" d="M10.2 0.001c-0.006-0.001-0.010-0.001-0.013 0.001-0.031 0.037-0.167 0.849-0.299 1.804-0.136 0.98-0.312 1.901-0.403 2.113l-0.162 0.377-0.37-0.073c-0.471-0.093-1.394-0.093-1.858-0.002-0.343 0.068-0.365 0.059-0.53-0.217-0.124-0.207-0.237-0.771-0.408-2.025-0.129-0.955-0.256-1.809-0.281-1.898-0.035-0.126-0.105-0.059-0.313 0.304-0.417 0.728-1.171 2.433-1.332 3.013l-0.146 0.525 0.325 0.864 0.324 0.864-0.095 0.937c-0.049 0.462-0.083 1.015-0.094 1.574l-0 0.020c0 0.633 0.014 0.68 0.379 1.223l0.379 0.565-0.209 1.898c-0.2 1.82-0.203 1.903-0.053 2.017 0.085 0.065 0.18 0.119 0.209 0.12s0.125-0.7 0.211-1.56c0.087-0.86 0.185-1.563 0.219-1.563 0.138 0 0.167 1.383 0.049 2.344-0.091 0.745-0.097 1.025-0.024 1.103 0.055 0.057 0.587 0.455 1.184 0.885s1.097 0.784 1.111 0.787 0.718-0.491 1.563-1.097c0.846-0.605 1.547-1.107 1.56-1.115s-0.073-0.88-0.189-1.937l-0.21-1.923 0.383-0.573c0.441-0.657 0.448-0.72 0.289-2.599l-0.096-1.129 0.32-0.851 0.32-0.85-0.188-0.626c-0.216-0.719-1.404-3.231-1.553-3.299zM10.439 1.503c0.089 0 0.52 0.943 0.803 1.753 0.176 0.505 0.187 0.608 0.091 0.927-0.059 0.197-0.143 0.359-0.185 0.359-0.178 0-0.747-1.565-0.789-2.171-0.031-0.451 0.007-0.868 0.079-0.868zM5.592 1.565c0.003 0 0.007 0 0.009 0.003 0.227 0.227 0.014 1.56-0.399 2.493-0.111 0.252-0.241 0.483-0.289 0.512s-0.135-0.124-0.196-0.34c-0.087-0.313-0.088-0.468-0.003-0.759 0.189-0.645 0.77-1.903 0.878-1.909zM6.629 2.805v0.239c0.001 0.131 0.042 0.385 0.091 0.565 0.1 0.361 0.108 0.363 0.803 0.235 0.15-0.030 0.322-0.047 0.498-0.047 0.187 0 0.37 0.019 0.546 0.056l-0.017-0.003c0.651 0.118 0.729 0.061 0.813-0.588l0.060-0.456h-1.397zM3.937 3.166l-1.085 0.293-0.019 4.427-0.019 4.428 0.838 0.585c0.46 0.322 0.857 0.565 0.881 0.541s0.128-0.815 0.231-1.757l0.188-1.714-0.251-0.37c-0.518-0.763-0.535-0.86-0.415-2.506l0.108-1.487-0.283-0.75c-0.241-0.64-0.275-0.82-0.228-1.221zM12.1 3.166l0.052 0.449c0.044 0.38 0.004 0.576-0.258 1.273-0.171 0.454-0.292 0.903-0.269 0.999 0.097 0.42 0.193 2.466 0.131 2.806-0.038 0.206-0.206 0.577-0.373 0.825l-0.305 0.451 0.2 1.737c0.109 0.955 0.203 1.748 0.207 1.761 0.015 0.044 0.299-0.141 1.007-0.657l0.695-0.507v-8.845l-0.543-0.147zM5.965 3.457c0.020-0.001 0.035 0.064 0.060 0.18 0.058 0.277 0.069 0.3 0.399 0.831l0.197 0.317 0.349-0.12c0.191-0.067 0.507-0.145 0.699-0.177 0.317-0.051 0.351-0.038 0.351 0.129 0 0.147-0.053 0.185-0.263 0.185-0.144 0-0.485 0.078-0.757 0.173s-0.503 0.173-0.515 0.173c-0.011 0-0.124-0.175-0.25-0.391s-0.239-0.391-0.251-0.391c-0.012 0-0.153 0.205-0.313 0.456-0.209 0.328-0.294 0.565-0.303 0.847-0.007 0.215-0.043 0.968-0.083 1.673l-0.071 1.282 0.329 0.476c0.18 0.262 0.337 0.477 0.347 0.477 0.208 0 0.607-0.265 0.868-0.577 0.244-0.293 0.35-0.367 0.398-0.28 0.087 0.158 0.117 2.137 0.037 2.445-0.083 0.319 0.165 0.616 0.454 0.543 0.178-0.045 0.199-0.019 0.199 0.24 0 0.005 0 0.010 0 0.016 0 0.183-0.077 0.348-0.201 0.464l-0 0c-0.26 0.245-0.74 0.249-1.045 0.009-0.259-0.203-0.447-0.775-0.539-1.644-0.054-0.512-0.107-0.629-0.573-1.253-0.282-0.38-0.538-0.79-0.569-0.912s-0.007-0.876 0.053-1.675 0.085-1.49 0.057-1.536c-0.029-0.046 0.103-0.323 0.292-0.615s0.412-0.735 0.495-0.983c0.085-0.251 0.123-0.362 0.149-0.363zM9.673 6.643c0.137 0.008 0.213 0.089 0.213 0.244 0 0.207-0.026 0.218-0.587 0.243-0.322 0.013-0.585 0.006-0.585-0.018s0.174-0.147 0.387-0.271c0.24-0.14 0.436-0.207 0.572-0.198zM6.345 6.656c0.237-0.005 0.592 0.129 0.762 0.317 0.156 0.173 0.153 0.174-0.373 0.174-0.433 0-0.548-0.030-0.62-0.164-0.066-0.123-0.055-0.193 0.043-0.273 0.048-0.034 0.108-0.054 0.173-0.054 0.005 0 0.011 0 0.016 0l-0.001-0zM6.843 7.494c0.192 0 0.167 0.324-0.033 0.431-0.239 0.128-0.33 0.113-0.527-0.083-0.229-0.229-0.22-0.367 0.021-0.332 0.135 0.019 0.187 0.077 0.168 0.187-0.020 0.115 0.017 0.151 0.13 0.127 0.093-0.019 0.147-0.093 0.132-0.181s0.030-0.149 0.109-0.149zM9.709 7.494c0.192 0 0.167 0.324-0.034 0.431-0.239 0.128-0.33 0.113-0.527-0.083-0.229-0.229-0.22-0.367 0.021-0.332 0.135 0.019 0.187 0.077 0.168 0.187-0.019 0.115 0.017 0.151 0.131 0.127 0.092-0.019 0.147-0.093 0.132-0.181s0.030-0.149 0.109-0.149zM8.862 8.625c0.041 0.002 0.231 0.175 0.442 0.403 0.278 0.301 0.505 0.463 0.712 0.507 0.441 0.093 0.467 0.128 0.265 0.343-0.213 0.227-0.352 0.659-0.352 1.096 0 0.466-0.247 1.204-0.48 1.437-0.457 0.457-1.257 0.153-1.257-0.477 0-0.24 0.025-0.275 0.169-0.229 0.263 0.083 0.56-0.258 0.476-0.55-0.068-0.237-0.052-2.456 0.019-2.529 0.001-0.001 0.003-0.002 0.005-0.001zM8.019 12.878c0.425 0 0.571 0.103 0.297 0.208s-0.731 0.025-0.731-0.128c0-0.044 0.195-0.080 0.434-0.080zM7.135 12.936l0.275 0.232c0.371 0.312 0.844 0.315 1.21 0.007 0.255-0.215 0.267-0.217 0.267-0.045 0 0.099-0.096 0.242-0.213 0.319-0.523 0.342-1.445 0.157-1.509-0.303z"></path>
</svg>
