<!-- Generated by IcoMoon.io -->
<svg version="1.1" xmlns="http://www.w3.org/2000/svg" width="16" height="16" viewBox="0 0 16 16">
<title>society6</title>
<path d="M8 0c-4.418 0-8 3.582-8 8s3.582 8 8 8 8-3.582 8-8-3.582-8-8-8zM13.285 3.311l0.028 0.584-0.611 0.105c-0.47 0.129-0.88 0.31-1.229 0.542s-0.644 0.487-0.887 0.765c-0.226 0.259-0.424 0.552-0.581 0.869l-0.011 0.024-0.011 0.024c-0.162 0.337-0.306 0.693-0.433 1.066 0.25-0.216 0.539-0.398 0.852-0.533l0.022-0.008 0.022-0.008c0.347-0.149 0.761-0.223 1.243-0.223 0.559 0 1.029 0.197 1.407 0.589s0.569 0.903 0.569 1.532c0 0.939-0.361 1.752-1.083 2.439s-1.609 1.031-2.661 1.031c-0.837 0-1.504-0.249-2.002-0.748s-0.747-1.162-0.747-1.987c0-1.575 0.56-2.925 1.68-4.049s2.597-1.795 4.433-2.014zM5.283 6.069c0.29 0 0.559 0.018 0.807 0.054 0.259 0.037 0.493 0.106 0.71 0.205l-0.016-0.007c0.191 0.087 0.349 0.215 0.47 0.373l0.002 0.003c0.113 0.155 0.168 0.342 0.168 0.563s-0.079 0.409-0.237 0.568c-0.158 0.159-0.366 0.237-0.622 0.237-0.221 0-0.405-0.061-0.552-0.181s-0.266-0.263-0.358-0.428c-0.091-0.169-0.165-0.344-0.218-0.523s-0.097-0.329-0.131-0.449c-0.267 0.016-0.51 0.119-0.729 0.306s-0.33 0.419-0.33 0.697c0 0.169 0.026 0.301 0.077 0.397s0.123 0.177 0.207 0.239l0.002 0.001c0.108 0.077 0.232 0.145 0.363 0.197l0.012 0.004c0.101 0.046 0.287 0.118 0.476 0.186l0.088 0.027c0.519 0.192 0.91 0.423 1.173 0.692 0.214 0.219 0.339 0.495 0.379 0.827-0.005-0.078 0.078 0.739 0.012 0.122 0.001 0.037 0.004 0.075 0.004 0.114 0 0.289-0.065 0.565-0.193 0.83s-0.309 0.485-0.545 0.661c-0.254 0.186-0.551 0.333-0.871 0.426l-0.020 0.005-0.020 0.005c-0.344 0.098-0.781 0.147-1.311 0.147-0.481 0-0.879-0.041-1.193-0.123s-0.563-0.188-0.747-0.316c-0.187-0.129-0.315-0.265-0.383-0.411s-0.103-0.283-0.103-0.411c0-0.233 0.083-0.437 0.249-0.611s0.387-0.261 0.661-0.261c0.229 0 0.421 0.061 0.575 0.185 0.157 0.129 0.287 0.284 0.383 0.461l0.004 0.008c0.091 0.163 0.173 0.352 0.235 0.549l0.006 0.021c0.023 0.060 0.071 0.215 0.115 0.371l0.023 0.093c0.431 0 0.758-0.096 0.979-0.291s0.332-0.461 0.332-0.797c0-0.148-0.033-0.272-0.1-0.372s-0.156-0.189-0.266-0.265c-0.111-0.072-0.251-0.142-0.423-0.21s-0.342-0.132-0.51-0.193c-0.462-0.164-0.827-0.391-1.096-0.682s-0.403-0.652-0.403-1.085v-0.009c0-0.261 0.062-0.507 0.173-0.725l-0.004 0.009c0.113-0.227 0.289-0.436 0.529-0.629 0.237-0.184 0.536-0.331 0.899-0.441s0.786-0.166 1.27-0.165zM10.628 7.318c-0.219 0-0.427 0.044-0.622 0.133s-0.403 0.265-0.623 0.528c-0.027 0.122-0.073 0.356-0.14 0.703s-0.101 0.775-0.101 1.282c0 0.519 0.082 0.923 0.243 1.213s0.377 0.437 0.645 0.437c0.417 0 0.779-0.288 1.085-0.863h0.001c0.307-0.576 0.46-1.275 0.46-2.096 0-0.412-0.089-0.739-0.268-0.979s-0.405-0.359-0.681-0.358z"></path>
</svg>
