<!-- Generated by IcoMoon.io -->
<svg version="1.1" xmlns="http://www.w3.org/2000/svg" width="16" height="16" viewBox="0 0 16 16">
<title>socket-dot-io</title>
<path d="M7.957 0.011c-0.705 0.002-1.389 0.094-2.040 0.265l0.056-0.013c-3.12 0.775-5.596 3.602-5.913 6.807-0.393 3.033 1.139 6.191 3.763 7.757 2.574 1.612 6.062 1.547 8.583-0.149 2.265-1.471 3.675-4.152 3.591-6.857-0.039-2.677-1.54-5.278-3.839-6.653-1.255-0.774-2.729-1.163-4.2-1.157zM7.915 1.141c3.297-0.005 6.526 2.543 6.855 5.95 0.63 3.773-2.502 7.609-6.325 7.72-3.636 0.363-7.15-2.72-7.253-6.371-0.271-2.956 1.677-5.89 4.465-6.867 0.666-0.273 1.44-0.432 2.25-0.432 0.003 0 0.006 0 0.009 0h-0zM11.309 3.291c-1.791 1.39-3.507 2.872-5.259 4.305 0.802 0.011 1.608 0.011 2.414 0.007 0.94-1.443 1.906-2.867 2.845-4.311zM7.533 8.394c-0.94 1.444-1.907 2.873-2.847 4.316 1.795-1.387 3.503-2.88 5.268-4.304-0.611-0.008-1.332-0.012-2.055-0.012-0.129 0-0.258 0-0.387 0l0.020-0z"></path>
</svg>
