<!-- Generated by IcoMoon.io -->
<svg version="1.1" xmlns="http://www.w3.org/2000/svg" width="16" height="16" viewBox="0 0 16 16">
<title>sogou</title>
<path fill="#fb6022" d="M11.201 15.16l0.659 0.84c1.041-0.451 1.951-1.080 2.701-1.901l-0.631-0.879c-0.74 0.859-1.65 1.519-2.72 1.939zM8 14.799c-3.85 0-6.97-3.079-6.97-6.9 0-3.799 3.12-6.879 6.97-6.879s6.971 3.1 6.971 6.9c0 1.7-0.631 3.261-1.671 4.46l0.63 0.841c1.271-1.401 2.071-3.261 2.071-5.301 0-4.39-3.58-7.92-8-7.92s-8 3.541-8 7.9c0 4.38 3.58 7.92 8 7.92 1.14 0 2.22-0.231 3.201-0.66l-0.641-0.84c-0.8 0.3-1.66 0.479-2.56 0.479zM12 8.431c-1.5-1.24-3.56-1.401-5.201-2.371-0.5-0.319-0.099-0.93 0.401-0.95 1.799-0.3 3.579 0.42 5.259 1l0.101-1.77c-2.101-0.76-4.38-1.25-6.601-0.9-0.8 0.2-1.6 0.45-2.169 1.040-0.781 0.8-0.641 2.24 0.259 2.88 1.491 1.17 3.451 1.341 5.081 2.24 0.64 0.26 0.37 1.12-0.261 1.18-1.95 0.37-3.87-0.481-5.55-1.4-0.020 0.68-0.040 1.34-0.040 2 2.13 0.939 4.5 1.379 6.8 1.019 0.78-0.15 1.58-0.4 2.15-0.969 0.819-0.8 0.741-2.341-0.22-3z"></path>
</svg>
