<!-- Generated by IcoMoon.io -->
<svg version="1.1" xmlns="http://www.w3.org/2000/svg" width="16" height="16" viewBox="0 0 16 16">
<title>solus</title>
<path fill="#5294e2" d="M4.969 0c-0.12 0.391-0.246 0.778-0.377 1.167-2.727 1.241-4.589 3.941-4.592 7.076v0c0.002 0.81 0.127 1.59 0.359 2.324l-0.015-0.055-0.226 0.399-0.118 0.243 0.186 0.095c0.142 0.062 0.307 0.114 0.48 0.146l0.014 0.002c0.204 0.455 0.422 0.843 0.671 1.209l-0.017-0.027c2.689 0.229 5.7 0.341 8.297-0.037 2.128-0.309 3.96-0.949 5.157-2.078 0.168-0.155 0.316-0.316 0.449-0.481 0.013-0.025 0.025-0.035 0.040-0.051 0.007 0 0.017-0.025 0.025-0.035 0.010 0 0.020-0.025 0.027-0.038 0.005 0 0.010-0.025 0.015-0.025 0.22-0.296 0.391-0.595 0.534-0.873l0.121-0.243-0.243-0.243c-0.077-0.081-0.155-0.157-0.237-0.23l-0.004-0.003c0-4.285-3.474-7.759-7.759-7.759v0c-0.764 0.003-1.5 0.115-2.196 0.323l0.055-0.014c-0.309-0.451-0.552-0.763-0.647-0.79zM5.212 1.091c0.828 1.455 1.541 2.282 2.424 3.88 0.088 1.016 0.447 6.3 0.485 6.787-0.261-0.025-1.657-0.16-3.403-0.343-0.953-0.098-1.933-0.211-2.728-0.327l-1.267-0.298c1.433-2.525 3.701-6.485 4.489-9.699zM8.241 5.211c0 0 3.327 2.618 4.728 5.82-1.707 0.84-3.277 0.732-4.241 0.727 0.682-1.756 0.682-4.14-0.487-6.547zM10.545 6.667c0.867 0.236 1.514 0.443 2.15 0.67l-0.21-0.066c1.179 0.419 2.278 0.993 2.91 1.576-0.444 0.832-1.108 1.496-1.915 1.928l-0.025 0.012c0.101-0.997-0.26-1.955-0.971-2.668-0.525-0.525-1.215-0.969-1.939-1.453zM15.016 10.986c-1.568 1.111-3.417 1.787-5.31 2.075-0.696 0.102-1.55 0.183-2.415 0.224l-0.062 0.002h-0.215c-0.37 0.014-0.805 0.022-1.242 0.022s-0.872-0.008-1.305-0.023l0.063 0.002c-1.063-0.033-2.030-0.088-2.99-0.167l0.203 0.014c1.703 2.17 4.662 3.262 7.395 2.735 1.138-0.206 2.148-0.638 3.023-1.251l-0.024 0.016c0.001 0 0.002 0 0.002 0s0.002 0 0.002 0h-0c0.208-0.143 0.409-0.296 0.602-0.457 0.010-0.010 0.018-0.018 0.027-0.026l-0.001 0.001c0.99-0.835 1.76-1.9 2.231-3.114l0.018-0.053zM1.674 13.056c0.024 0.042 0.029 0.051 0.035 0.059l-0.019-0.034c-0.005 0-0.010-0.025-0.015-0.025z"></path>
</svg>
