<!-- Generated by IcoMoon.io -->
<svg version="1.1" xmlns="http://www.w3.org/2000/svg" width="16" height="16" viewBox="0 0 16 16">
<title>sonarcloud</title>
<path fill="#f3702a" d="M14.937 7.267c-0.572-0.722-1.337-1.269-2.218-1.562l-0.033-0.010v-0.057c0-2.69-2.104-4.883-4.698-4.883-2.595 0-4.7 2.188-4.7 4.883v0.067c-1.901 0.623-3.288 2.473-3.288 4.656 0 2.69 2.106 4.883 4.7 4.883 1.296-0.003 2.465-0.541 3.3-1.404l0.001-0.001c0.834 0.865 2.003 1.403 3.298 1.405h0c2.589 0 4.701-2.188 4.701-4.883-0.001-1.172-0.401-2.25-1.071-3.106l0.008 0.011zM11.3 14.009c-1.935 0-3.511-1.637-3.511-3.649 0-0.003 0-0.006 0-0.009 0-0.33-0.264-0.599-0.593-0.607l-0.001-0c-0.33 0.005-0.595 0.274-0.595 0.604 0 0.004 0 0.009 0 0.013l-0-0.001c0 0.912 0.245 1.767 0.663 2.499-0.631 0.708-1.545 1.153-2.563 1.155h-0c-1.936 0-3.513-1.638-3.513-3.649s1.577-3.649 3.513-3.649c0.42 0 0.827 0.078 1.218 0.223 0.005 0 0.009 0.005 0.013 0.005 0.135 0.047 0.326 0.14 0.385 0.191 0.101 0.092 0.237 0.149 0.385 0.149 0.181 0 0.342-0.084 0.447-0.215l0.001-0.001c0.089-0.108 0.144-0.247 0.144-0.4 0-0.185-0.080-0.352-0.208-0.467l-0.001-0c-0.26-0.228-0.663-0.383-0.763-0.42-0.478-0.187-1.032-0.295-1.611-0.295-0.002 0-0.004 0-0.006 0h0c-0.075 0-0.15 0-0.225 0.005 0.080-1.944 1.622-3.498 3.513-3.498 1.935 0 3.511 1.637 3.511 3.649 0 0.003 0 0.007 0 0.011 0 1.207-0.576 2.279-1.468 2.957l-0.009 0.007c-0.151 0.117-0.248 0.298-0.248 0.502 0 0.132 0.040 0.254 0.109 0.356l-0.001-0.002c0.114 0.167 0.3 0.26 0.485 0.26 0.13 0 0.249-0.043 0.345-0.116l-0.001 0.001c0.87-0.657 1.509-1.579 1.798-2.646l0.008-0.034c1.357 0.523 2.299 1.886 2.299 3.426-0.005 2.007-1.581 3.644-3.522 3.644z"></path>
</svg>
