<!-- Generated by IcoMoon.io -->
<svg version="1.1" xmlns="http://www.w3.org/2000/svg" width="16" height="16" viewBox="0 0 16 16">
<title>sonarlint</title>
<path fill="#cc2026" d="M8.121 0.022c-0.465-0.007-0.933 0.005-1.191 0.042-1.806 0.254-3.385 1.076-4.587 2.276l0-0c-1.526 1.527-2.343 3.496-2.343 5.663 0 2.199 0.84 4.189 2.407 5.712 1.222 1.186 2.661 1.914 4.353 2.195 0.527 0.085 1.821 0.096 2.351 0.016 1.765-0.261 3.293-1.025 4.543-2.275 1.596-1.588 2.423-3.687 2.339-5.93-0.080-2.090-0.863-3.895-2.335-5.37-1.21-1.205-2.649-1.949-4.365-2.255-0.247-0.043-0.708-0.068-1.172-0.075zM8.104 1.44c0.253 0.005 0.509 0.022 0.767 0.055 1.419 0.181 2.742 0.837 3.775 1.87 1.253 1.254 1.917 2.857 1.917 4.634 0 1.765-0.647 3.341-1.884 4.603-0.925 0.937-2.051 1.552-3.365 1.833-0.575 0.125-1.692 0.153-2.271 0.064-1.443-0.233-2.681-0.855-3.693-1.873-1.013-1.009-1.633-2.239-1.859-3.678-0.064-0.414-0.064-1.52 0-1.91 0.253-1.503 0.861-2.68 1.914-3.718 1.28-1.259 2.927-1.911 4.699-1.88zM12.711 6.533c-0.063-0.015-0.133-0.009-0.238 0.011-0.169 0.033-0.497 0.407-0.675 0.776-0.301 0.619-0.483 0.8-0.749 0.74-0.185-0.040-0.47-0.354-0.707-0.78-0.253-0.45-0.298-0.507-0.495-0.607-0.401-0.205-0.751 0-1.109 0.655-0.249 0.447-0.43 0.635-0.643 0.663-0.165 0.025-0.18 0.016-0.361-0.173-0.105-0.108-0.269-0.349-0.37-0.533-0.221-0.414-0.387-0.543-0.7-0.543-0.555 0-0.785 0.169-1.11 0.82-0.233 0.463-0.43 0.723-0.551 0.723-0.197 0-0.382-0.216-0.695-0.823-0.113-0.221-0.252-0.45-0.313-0.51-0.398-0.422-1.133-0.065-1.56 0.755-0.092 0.177-0.233 0.442-0.313 0.591-0.125 0.237-0.145 0.313-0.145 0.547 0 0.33 0.057 0.43 0.221 0.39 0.157-0.040 0.393-0.301 0.638-0.707 0.337-0.559 0.668-0.737 0.941-0.503 0.137 0.117 0.273 0.382 0.333 0.655 0.056 0.273 0.294 0.57 0.531 0.667 0.169 0.072 0.213 0.077 0.381 0.029 0.265-0.069 0.519-0.297 0.74-0.671 0.325-0.547 0.611-0.729 0.969-0.62 0.221 0.065 0.409 0.27 0.627 0.676 0.309 0.575 0.563 0.795 0.8 0.695 0.213-0.093 0.418-0.325 0.651-0.747 0.249-0.455 0.495-0.665 0.776-0.665s0.531 0.209 0.788 0.651c0.153 0.273 0.437 0.535 0.611 0.571 0.173 0.033 0.405-0.037 0.558-0.161 0.069-0.060 0.227-0.277 0.347-0.481 0.571-0.969 0.936-0.933 1.543 0.148 0.145 0.257 0.391 0.467 0.499 0.426 0.073-0.028 0.125-0.338 0.089-0.547-0.036-0.221-0.518-1.262-0.743-1.591-0.105-0.153-0.265-0.338-0.362-0.41-0.083-0.065-0.14-0.101-0.205-0.116z"></path>
</svg>
