<!-- Generated by IcoMoon.io -->
<svg version="1.1" xmlns="http://www.w3.org/2000/svg" width="16" height="16" viewBox="0 0 16 16">
<title>songkick</title>
<path fill="#f80046" d="M4.367 12.519c-1.237 0-2.248-0.226-3.065-1.068l1.28-1.272c0.42 0.421 1.16 0.569 1.81 0.569 0.791 0 1.159-0.261 1.159-0.726 0-0.194-0.040-0.353-0.159-0.478-0.1-0.103-0.269-0.182-0.53-0.216l-0.97-0.137c-0.709-0.101-1.261-0.34-1.62-0.715-0.37-0.385-0.56-0.93-0.56-1.623-0.021-1.477 1.089-2.554 2.929-2.554 1.16 0 2.032 0.271 2.724 0.965l-1.25 1.248c-0.51-0.511-1.18-0.477-1.53-0.477-0.693 0-0.977 0.398-0.977 0.75 0 0.101 0.034 0.25 0.16 0.374 0.1 0.102 0.269 0.205 0.555 0.239l0.978 0.135c0.727 0.102 1.25 0.33 1.59 0.67 0.43 0.42 0.6 1.020 0.6 1.77 0 1.647-1.418 2.546-3.12 2.546zM13.875 1.767c-1.090-0.813-2.295-1.359-3.816-1.609v7.25l2.174-3.026h2.377l-2.73 3.813c0 0 0.629 1.007 1.010 1.603 0.391 0.599 0.759 0.76 1.31 0.76h0.38v1.871h-0.581c-1.208 0-1.933-0.22-2.48-1.050-0.336-0.541-1.45-2.291-1.45-2.291v3.33h-1.989v-12.419h-0.080c-2.568 0-4.339 0.621-5.874 1.768-2.214 1.657-2.125 3.867-2.125 6.231s-0.089 4.578 2.125 6.235c1.535 1.15 3.306 1.767 5.874 1.767s4.34-0.618 5.875-1.767c2.213-1.656 2.125-3.87 2.125-6.235s0.088-4.573-2.125-6.231z"></path>
</svg>
