<!-- Generated by IcoMoon.io -->
<svg version="1.1" xmlns="http://www.w3.org/2000/svg" width="16" height="16" viewBox="0 0 16 16">
<title>sonicwall</title>
<path fill="#f60" d="M15.759 6.869h-0.030v-0.067h0.030c0.025 0 0.037 0.013 0.037 0.034s-0.012 0.033-0.037 0.033zM15.859 6.835c0-0.039-0.025-0.075-0.085-0.075h-0.108v0.243h0.063v-0.093h0.023l0.057 0.093h0.073l-0.069-0.101c0.027-0.010 0.045-0.035 0.045-0.064 0-0.001-0-0.002-0-0.003v0zM15.758 7.062c-0.098 0-0.178-0.080-0.178-0.178s0.080-0.178 0.178-0.178v0c0.098 0 0.178 0.080 0.178 0.178s-0.080 0.178-0.178 0.178v0zM15.758 6.679c-0.113 0-0.205 0.092-0.205 0.205s0.092 0.205 0.205 0.205v0c0.113 0 0.205-0.092 0.205-0.205s-0.092-0.205-0.205-0.205v0zM10.625 6.746l-0.414 1.231-0.009 0.027-0.009-0.027-0.407-1.236h-0.331l-0.407 1.236-0.009 0.027-0.009-0.027-0.413-1.231h-0.411l0.654 1.817h0.337l0.41-1.185 0.009-0.025 0.009 0.025 0.41 1.185h0.337l0.655-1.817h-0.4zM0.689 7.57c-0.41-0.084-0.488-0.191-0.488-0.359v-0.005c0-0.178 0.169-0.307 0.403-0.307 0.195 0 0.351 0.058 0.503 0.19l0.014 0.012 0.004-0.004v-0.201c-0.137-0.094-0.306-0.15-0.489-0.15-0.010 0-0.020 0-0.029 0l0.001-0c-0.327 0-0.573 0.203-0.573 0.472v0.005c0 0.272 0.173 0.418 0.597 0.503 0.399 0.080 0.473 0.185 0.473 0.35v0.005c0 0.191-0.171 0.325-0.417 0.325-0.24 0-0.411-0.071-0.607-0.252l-0.014-0.013-0.003 0.003v0.208c0.189 0.141 0.383 0.206 0.616 0.206 0.348 0 0.591-0.201 0.591-0.489v-0.005c0-0.263-0.173-0.411-0.582-0.493zM7.411 6.751c-0.267 0-0.488 0.085-0.665 0.258-0.164 0.156-0.266 0.376-0.266 0.619 0 0.006 0 0.013 0 0.019l-0-0.001c0 0.24 0.073 0.445 0.219 0.615 0.174 0.201 0.412 0.301 0.713 0.301 0.159 0 0.303-0.030 0.431-0.090 0.064-0.029 0.123-0.080 0.176-0.122v-0.224c-0.161 0.182-0.36 0.273-0.596 0.273-0.22 0-0.402-0.071-0.547-0.211-0.133-0.129-0.216-0.309-0.216-0.508 0-0.006 0-0.013 0-0.019l-0 0.001c-0-0.005-0-0.012-0-0.018 0-0.268 0.148-0.501 0.366-0.622l0.004-0.002c0.117-0.067 0.245-0.099 0.383-0.099 0.126 0 0.241 0.025 0.347 0.076 0.1 0.048 0.187 0.118 0.26 0.209v-0.233c-0.052-0.043-0.11-0.095-0.173-0.127-0.123-0.060-0.268-0.095-0.421-0.095-0.005 0-0.010 0-0.016 0l0.001-0zM11.812 7.225l0.24 0.618-0.049-0.002c-0.046-0.002-0.1-0.002-0.155-0.002-0.098 0-0.195 0.003-0.292 0.008l0.013-0.001zM12.414 7.865l-0.43-1.12h-0.349l-0.427 1.143c-0.42 0.078-0.691 0.261-0.557 0.624 0.185 0.505 1.028 0.808 1.028 0.808s-0.835-0.539-0.403-0.888c0.193-0.156 0.535-0.273 0.86-0.357l0.187 0.483h0.357l-0.214-0.558c0.274-0.056 0.481-0.083 0.481-0.083s-0.243-0.030-0.533-0.053zM14.793 6.746h-0.345v1.809h1.031v-0.329h-0.687v-1.48zM13.397 6.747h-0.345v1.809h1.031v-0.329h-0.687v-1.481zM5.819 8.565h0.171v-1.82h-0.171v1.82zM5.145 8.143l-1.213-1.397h-0.040v1.823h0.189v-1.38l1.203 1.38h0.041v-1.823h-0.18v1.397zM3.155 8.025c-0.063 0.113-0.152 0.201-0.265 0.265s-0.237 0.097-0.369 0.097c-0.2 0-0.37-0.070-0.511-0.211-0.131-0.127-0.212-0.305-0.212-0.502 0-0.005 0-0.010 0-0.015l-0 0.001c0-0.137 0.031-0.263 0.095-0.375s0.155-0.203 0.263-0.266l0.003-0.002c0.113-0.067 0.234-0.099 0.361-0.099 0.129 0 0.251 0.033 0.367 0.099 0.218 0.124 0.363 0.355 0.363 0.62 0 0.005-0 0.009-0 0.014l0-0.001c0 0.137-0.032 0.262-0.095 0.374zM2.512 6.752c-0.16 0-0.309 0.040-0.447 0.12s-0.247 0.189-0.327 0.33-0.12 0.293-0.12 0.459c0 0.247 0.088 0.458 0.263 0.633 0.175 0.173 0.389 0.261 0.644 0.261 0.251 0 0.465-0.088 0.639-0.263s0.262-0.388 0.262-0.64c0-0.253-0.087-0.467-0.263-0.64-0.161-0.161-0.384-0.26-0.629-0.26-0.008 0-0.016 0-0.025 0l0.001-0z"></path>
</svg>
