<!-- Generated by IcoMoon.io -->
<svg version="1.1" xmlns="http://www.w3.org/2000/svg" width="16" height="16" viewBox="0 0 16 16">
<title>sonos</title>
<path d="M8.659 8.24l-1.875-1.756v2.953h0.558v-1.637l1.875 1.755v-2.952h-0.558zM4.309 6.443c-0.007-0-0.015-0-0.023-0-0.847 0-1.533 0.686-1.533 1.533 0 0.008 0 0.017 0 0.025l-0-0.001c0 0.838 0.718 1.556 1.556 1.556 0.007 0 0.015 0 0.023 0 0.847 0 1.533-0.687 1.533-1.533 0-0.008-0-0.016-0-0.024l0 0.001c0-0.007 0-0.015 0-0.023 0-0.847-0.686-1.533-1.533-1.533-0.008 0-0.016 0-0.024 0l0.001-0zM4.309 8.997c-0.003 0-0.006 0-0.009 0-0.546 0-0.988-0.442-0.988-0.988 0-0.003 0-0.007 0-0.010v0c0-0.559 0.439-0.997 0.997-0.997s0.997 0.439 0.997 0.997-0.439 0.997-0.997 0.997zM1.796 8c-0.16-0.12-0.36-0.2-0.639-0.279-0.559-0.16-0.559-0.319-0.559-0.399 0-0.16 0.199-0.32 0.479-0.32 0.24 0 0.439 0.12 0.519 0.16l0.040 0.040 0.439-0.319-0.040-0.040c0 0-0.359-0.399-0.957-0.399-0.279 0-0.559 0.080-0.758 0.239s-0.319 0.399-0.319 0.639 0.12 0.479 0.319 0.638c0.16 0.12 0.359 0.2 0.638 0.28 0.559 0.159 0.559 0.319 0.559 0.399 0 0.159-0.199 0.319-0.479 0.319-0.239 0-0.439-0.12-0.519-0.159l-0.040-0.040-0.439 0.319 0.040 0.040c0 0 0.359 0.399 0.957 0.399 0.28 0 0.559-0.080 0.758-0.239s0.32-0.399 0.32-0.638c0-0.24-0.12-0.439-0.32-0.639zM11.691 6.444c-0.007-0-0.015-0-0.023-0-0.847 0-1.533 0.686-1.533 1.533 0 0.008 0 0.016 0 0.024l-0-0.001c0.001 0.859 0.697 1.555 1.556 1.556h0c0.007 0 0.015 0 0.023 0 0.847 0 1.533-0.687 1.533-1.533 0-0.008-0-0.016-0-0.024l0 0.001c-0.001-0.859-0.697-1.555-1.556-1.556h-0zM11.691 8.997c-0.003 0-0.006 0-0.009 0-0.546 0-0.988-0.442-0.988-0.988 0-0.003 0-0.007 0-0.010v0c0-0.559 0.439-0.997 0.997-0.997s0.997 0.439 0.997 0.997-0.479 0.997-0.997 0.997zM14.204 7.96c0.16 0.12 0.36 0.2 0.639 0.28 0.559 0.159 0.559 0.319 0.559 0.399 0 0.159-0.199 0.319-0.479 0.319-0.24 0-0.439-0.12-0.519-0.159h-0.040l-0.439 0.319 0.040 0.040c0 0 0.359 0.399 0.957 0.399 0.279 0 0.559-0.080 0.758-0.239s0.319-0.399 0.319-0.639-0.12-0.479-0.319-0.638c-0.16-0.12-0.359-0.2-0.638-0.28-0.559-0.159-0.559-0.319-0.559-0.399 0-0.159 0.199-0.319 0.479-0.319 0.239 0 0.439 0.12 0.519 0.159l0.040 0.040 0.439-0.319-0.040-0.040c0 0-0.359-0.399-0.957-0.399-0.28 0-0.559 0.080-0.758 0.239s-0.32 0.399-0.32 0.638c-0.039 0.24 0.080 0.439 0.32 0.599z"></path>
</svg>
