<!-- Generated by IcoMoon.io -->
<svg version="1.1" xmlns="http://www.w3.org/2000/svg" width="16" height="16" viewBox="0 0 16 16">
<title>soundcloud</title>
<path fill="#f30" d="M0.783 8.15c-0.034 0-0.063 0.031-0.067 0.067l-0.155 1.436 0.155 1.403c0.005 0.039 0.033 0.065 0.067 0.065s0.060-0.027 0.066-0.065l0.17-1.403-0.18-1.436c0-0.038-0.030-0.067-0.060-0.067zM0.18 8.702c-0.040 0-0.061 0.025-0.069 0.063l-0.111 0.888 0.11 0.872c0 0.037 0.030 0.063 0.060 0.063s0.059-0.030 0.069-0.069l0.14-0.879-0.14-0.889c0-0.041-0.029-0.060-0.060-0.060zM1.399 7.87c-0.041 0-0.080 0.030-0.080 0.069l-0.14 1.709 0.15 1.639c0 0.040 0.030 0.080 0.079 0.080 0.041 0 0.070-0.041 0.081-0.080l0.169-1.649-0.169-1.699c-0.011-0.040-0.041-0.080-0.081-0.080zM2.039 7.799c-0.050 0-0.090 0.040-0.1 0.090l-0.129 1.76 0.14 1.696c0.011 0.051 0.050 0.092 0.099 0.092s0.090-0.041 0.1-0.1l0.16-1.688-0.16-1.749c0-0.050-0.040-0.090-0.090-0.090zM2.809 8.039c-0.003-0.060-0.050-0.099-0.106-0.099-0.060 0-0.105 0.040-0.109 0.099l-0.145 1.62 0.133 1.709c0 0.060 0.050 0.105 0.106 0.105 0.049 0 0.099-0.045 0.099-0.105l0.151-1.709-0.151-1.629zM3.348 6.9c-0.067 0-0.12 0.060-0.12 0.121l-0.14 2.638 0.125 1.709c0 0.060 0.053 0.109 0.12 0.109 0.063 0 0.116-0.060 0.12-0.12l0.139-1.709-0.139-2.648c-0.005-0.069-0.059-0.12-0.12-0.12zM3.972 6.271c-0.070 0-0.13 0.060-0.135 0.129l-0.12 3.248 0.11 1.699c0 0.080 0.060 0.139 0.13 0.139s0.129-0.059 0.14-0.139l0.129-1.699-0.128-3.237c-0.011-0.080-0.070-0.14-0.14-0.14zM4.617 5.971c-0.081 0-0.141 0.059-0.15 0.139l-0.11 3.517 0.11 1.68c0.009 0.079 0.069 0.15 0.15 0.15 0.079 0 0.15-0.070 0.15-0.15l0.13-1.68-0.131-3.517c0-0.080-0.070-0.15-0.15-0.15zM5.446 5.991c0-0.090-0.070-0.16-0.16-0.16-0.079 0-0.16 0.070-0.16 0.16l-0.099 3.627 0.099 1.669c0.011 0.090 0.081 0.16 0.171 0.16s0.16-0.070 0.16-0.16l0.109-1.669-0.109-3.637zM5.945 5.901c-0.090 0-0.17 0.079-0.17 0.169l-0.1 3.548 0.1 1.649c0 0.1 0.080 0.17 0.17 0.17s0.17-0.080 0.17-0.18l0.1-1.649-0.11-3.538c0-0.099-0.080-0.18-0.181-0.18zM6.595 6.001c-0.109 0-0.189 0.090-0.189 0.19l-0.069 3.429 0.090 1.649c0 0.099 0.079 0.185 0.189 0.185 0.099 0 0.181-0.080 0.189-0.19l0.081-1.629-0.090-3.408c-0.008-0.109-0.090-0.19-0.19-0.19zM7.395 5.407c-0.030-0.019-0.070-0.029-0.11-0.029s-0.079 0.010-0.11 0.029c-0.060 0.036-0.099 0.1-0.099 0.17v0.041l-0.069 4.032 0.077 1.633v0.005c0.005 0.040 0.020 0.090 0.049 0.12 0.039 0.041 0.095 0.069 0.156 0.069 0.053 0 0.105-0.029 0.139-0.060 0.039-0.040 0.061-0.090 0.061-0.15l0.010-0.16 0.078-1.469-0.090-4.057c0-0.069-0.041-0.129-0.090-0.159zM8.066 5.042c-0.030-0.030-0.060-0.041-0.1-0.041-0.049 0-0.099 0.011-0.139 0.041-0.050 0.041-0.079 0.1-0.079 0.16v0.019l-0.091 4.406 0.051 0.81 0.041 0.79c0 0.109 0.099 0.209 0.219 0.209s0.22-0.1 0.22-0.219l0.1-1.609-0.1-4.425c0-0.080-0.049-0.147-0.11-0.185zM14.032 7.517c-0.27 0-0.53 0.057-0.759 0.155-0.16-1.769-1.64-3.157-3.459-3.157-0.439 0-0.87 0.090-1.259 0.239-0.15 0.060-0.18 0.12-0.19 0.239v6.245c0.011 0.12 0.1 0.22 0.22 0.23h5.457c1.079 0.011 1.959-0.859 1.959-1.948s-0.879-1.968-1.959-1.968z"></path>
</svg>
