<!-- Generated by IcoMoon.io -->
<svg version="1.1" xmlns="http://www.w3.org/2000/svg" width="16" height="16" viewBox="0 0 16 16">
<title>sourcegraph</title>
<path fill="#00b4f2" d="M6.227 0.001c-0.117 0.006-0.228 0.022-0.334 0.048l0.012-0.002c-0.904 0.205-1.438 1.109-1.233 2.014l0.937 3.365-3.363-1.103c-0.863-0.288-1.809 0.205-2.097 1.069s0.207 1.809 1.069 2.097l3.902 1.279-2.709 3.037c-0.252 0.298-0.407 0.686-0.412 1.11l-0 0.001c0.003 0.907 0.738 1.641 1.644 1.644h0c0.452 0 0.905-0.205 1.233-0.575l2.375-2.653 0.955 3.434c0.197 0.714 0.839 1.231 1.603 1.233h0.001c0.123 0 0.287-0.041 0.411-0.082 0.705-0.208 1.211-0.85 1.211-1.61 0-0.159-0.022-0.312-0.063-0.458l0.003 0.012-0.92-3.345 3.305 1.083c0.206 0.041 0.371 0.082 0.535 0.082 0.741 0 1.357-0.452 1.562-1.151 0.289-0.864-0.205-1.809-1.069-2.097l-3.819-1.252 2.709-3.025c0.617-0.699 0.575-1.727-0.123-2.343-0.699-0.617-1.727-0.576-2.344 0.123l-2.381 2.671-0.949-3.452c-0.216-0.72-0.904-1.187-1.651-1.155z"></path>
</svg>
