<!-- Generated by IcoMoon.io -->
<svg version="1.1" xmlns="http://www.w3.org/2000/svg" width="16" height="16" viewBox="0 0 16 16">
<title>sourceengine</title>
<path fill="#f79a10" d="M13.243 0.479h-0.173l-7.977 0.045c-1.647-0.085-3.27 0.319-4.673 1.126l0.001 0.001c-0.252 0.14-0.421 0.405-0.421 0.709 0 0.445 0.361 0.807 0.806 0.807h0c0.233 0 0.441-0.099 0.589-0.255 0.944-0.519 2.069-0.824 3.265-0.824 0.943 0 1.841 0.19 2.659 0.533l-0.045-0.017c3.517 1.443 5.203 5.48 3.76 8.997-0.394 0.945-0.958 1.748-1.659 2.405l-0.004 0.004 0.007 0.009c-0.243 0.142-0.404 0.402-0.404 0.699 0 0.446 0.361 0.807 0.807 0.807 0.287 0 0.539-0.15 0.682-0.376l0.002-0.003c0.859-0.809 1.546-1.79 2.006-2.89l0.021-0.056c0.033-0.079 3.301-8.041 3.309-8.062 0.126-0.298 0.199-0.645 0.199-1.009 0-1.105-0.674-2.053-1.633-2.455l-0.018-0.007c-0.367-0.151-0.709-0.185-1.105-0.187zM4.045 4.569c-1.757 0-3.561 0.538-3.561 2.627 0 1.44 1.297 1.899 2.595 2.185 1.615 0.348 2.549 0.585 2.549 1.266 0 0.792-0.823 1.045-1.472 1.045-0.887 0-1.709-0.396-1.725-1.377h-2.137c0.095 2.168 1.947 2.88 3.847 2.88 1.867 0 3.735-0.696 3.735-2.849 0-1.52-1.282-1.995-2.596-2.295-1.282-0.301-2.549-0.411-2.549-1.219 0-0.665 0.744-0.76 1.251-0.76 0.807 0 1.471 0.238 1.535 1.108h2.137c-0.173-2.010-1.82-2.611-3.609-2.611z"></path>
</svg>
