<!-- Generated by IcoMoon.io -->
<svg version="1.1" xmlns="http://www.w3.org/2000/svg" width="16" height="16" viewBox="0 0 16 16">
<title>sourceforge</title>
<path fill="#535353" d="M1.62 7.574c0-0.248 0.202-0.47 0.45-0.47h4.645c0.181-0.002 0.324-0.146 0.324-0.325v-0.97c0-0.18-0.146-0.325-0.325-0.325h-5.094c-0.895 0.001-1.62 0.725-1.62 1.619v1.797c0 0.895 0.724 1.621 1.617 1.621h3.347c0.248 0 0.451 0.221 0.451 0.471v0.855c0 0.247-0.203 0.471-0.451 0.471h-4.641c-0.181 0-0.323 0.145-0.323 0.324v0.969c0 0.179 0.144 0.324 0.323 0.324h5.096c0.893 0 1.617-0.725 1.617-1.618v-1.798c0-0.893-0.724-1.619-1.618-1.619h-3.35c-0.248 0-0.45-0.223-0.45-0.469zM15.679 5.487h-3.349v-1.804h3.347c0.177 0 0.322-0.145 0.322-0.324v-0.969c0-0.181-0.143-0.324-0.323-0.324h-3.346c-0.893 0-1.618 0.725-1.618 1.618v1.804h-1.551c-0.18 0-0.323 0.145-0.323 0.323v0.973c0 0.179 0.144 0.323 0.322 0.323h1.55v5.302c0 0.16 0.066 0.189 0.202 0.189 0.325 0 1.416-0.607 1.416-1.125v-4.367h3.349c0.177 0 0.323-0.145 0.323-0.323v-0.973c0-0.177-0.146-0.322-0.323-0.322z"></path>
</svg>
