<!-- Generated by IcoMoon.io -->
<svg version="1.1" xmlns="http://www.w3.org/2000/svg" width="16" height="16" viewBox="0 0 16 16">
<title>spacex</title>
<path fill="#005288" d="M15.968 4.643c-0.003-0.001-0.006-0.004-0.009-0.004-0.006 0-0.011 0.004-0.015 0.006-10.085 1.015-14.826 5.401-15.943 6.48l0.149 0.233h1.763c4.581-4.605 10.771-6.134 14.043-6.637l0.004 0.001c0.003 0 0.004-0.003 0.007-0.003 0.019-0.004 0.035-0.019 0.035-0.039 0-0.019-0.014-0.033-0.032-0.037zM0.253 7.005l-0.107 0.201 2.163 1.577c0.33-0.199 0.77-0.437 1.218-0.66l0.123-0.055-1.451-1.063zM5.061 9.1c-0.357 0.263-0.723 0.545-1.116 0.875l1.901 1.385h1.971l0.082-0.182z"></path>
</svg>
