<!-- Generated by IcoMoon.io -->
<svg version="1.1" xmlns="http://www.w3.org/2000/svg" width="16" height="16" viewBox="0 0 16 16">
<title>spacemacs</title>
<path fill="#9266cc" d="M7.998 0.007c-1.193 0.010-2.301 0.265-3.312 0.729l0.003-0.001c2.425 1.351 4.637 3.756 5.955 5.494 0.265 0.356 0.502 0.671 0.719 0.956l0.003-0.013c0.275-1.159-0.209-3.493-1.012-4.887-0.078-0.135-0.134-0.253-0.125-0.261l0.004 0.001 0.001-0.005c0.065 0.016 0.687 0.663 0.915 0.955 0.399 0.511 0.555 0.809 0.775 1.487 0.572 1.763 0.949 3.201 1.267 4.833 0.159 0.819 0.45 2.305 0.487 2.589 0.005 0.038-0.006 0.085-0.007 0.095-0.060-0.059-0.123-0.117-0.188-0.172l-0.005-0.004c-0.43-0.379-1.283-0.945-2.122-1.409-1.047-0.58-2.079-1.076-4.383-2.108-2.104-0.942-3.073-1.391-3.834-1.774l-0.683-0.34c0.080 0.201 0.166 0.416 0.266 0.67 0 0 1.289 0.72 1.449 0.939 0 0 1.548 2.911 2.235 4.637 0.511 1.299 1.089 2.843 1.437 3.269l0.040 0.046c-0.684-0.167-3.83-1.732-3.83-1.732-0.345-2.933-1.313-6.407-2.57-9.96-0.016-0.030-0.044-0.090-0.071-0.15l-0.012-0.031c0.001-0.010 0.094 0.081 0.207 0.202 1.267 1.358 3.971 2.591 6.842 3.121 0.561 0.102 1.207 0.16 1.866 0.16 0.172 0 0.343-0.004 0.514-0.012l-0.024 0.001c-0.205-0.261-0.427-0.547-0.673-0.868-2.279-2.97-4.516-4.217-6.52-4.979-0.053-0.019-0.103-0.041-0.154-0.059-1.385 0.959-2.435 2.313-2.996 3.899l-0.017 0.056c-0.283 0.784-0.447 1.689-0.447 2.633 0 0.016 0 0.031 0 0.047l-0-0.002 0.002-0.059c0.022 3.345 2.086 6.411 5.368 7.553 0.89 0.31 1.797 0.453 2.688 0.447l-0.059-0.002c3.345-0.022 6.411-2.086 7.553-5.368 0.31-0.89 0.453-1.797 0.447-2.688l-0.002 0.059c-0.022-3.345-2.086-6.411-5.368-7.553-0.784-0.283-1.689-0.447-2.632-0.447-0.020 0-0.039 0-0.059 0l0.003-0zM12.087 4.081l-0.001 0.005c-0.001 0 0 0 0 0l0.001-0.005c0.354 0.341 0.917 1.002 1.557 1.375 0.526 0.66 0.811 1.309 1.165 1.753-0.146-0.125-0.741-0.648-0.741-0.648s-0.919-0.87-1.427-1.435c-0.195-0.217-0.213-0.253-0.319-0.419-0.041-0.065-0.183-0.55-0.236-0.623h-0.001z"></path>
</svg>
