<!-- Generated by IcoMoon.io -->
<svg version="1.1" xmlns="http://www.w3.org/2000/svg" width="16" height="16" viewBox="0 0 16 16">
<title>sparkfun</title>
<path fill="#e53525" d="M11.87 2.568c0 0 0.227 0.961-0.497 1.093-0.503 0.089-1.315-0.411-1.724-0.909-0.505-0.615-0.44-1.099-0.050-1.527 0.589-0.653 1.599-0.4 1.599-0.4s-1.849-1.62-3.773-0.292c-1.713 1.18-1.221 2.787 0.325 4.19 1.393 1.268 0.281 2.659-1.125 2.479-0.96-0.123-1.353-0.896-1.125-1.37 0.2-0.407 0.891-0.656 0.891-0.656s-0.794-0.32-1.727 0.031c-0.841 0.315-1.531 1.008-1.477 2.748v8.052c0 0 0.867-1.068 1.888-2.157 1.141-1.227 1.661-2.055 2.833-1.958 2.219 0.138 3.823-0.849 4.914-2.43 2.094-3.041 0.453-6.44-0.953-6.895z"></path>
</svg>
