<!-- Generated by IcoMoon.io -->
<svg version="1.1" xmlns="http://www.w3.org/2000/svg" width="16" height="16" viewBox="0 0 16 16">
<title>speakerdeck</title>
<path fill="#396" d="M7.467 9.065l0.013-2.131-1.78 1.073zM8.532 6.935l-0.010 2.127 1.778-1.072zM8.522 9.065v-0.003l-0.003 0.001zM15.998 3.060c0-0.585-0.477-1.060-1.065-1.060h-13.867c-0.589 0-1.067 0.475-1.067 1.060v9.88c0 0.585 0.477 1.060 1.067 1.060h13.867c0.589 0 1.067-0.475 1.067-1.060v-9.88zM11.709 9.42h-0.009c0 0.391-0.311 0.701-0.7 0.71l0.024-0.011h-6.047c-0.387-0.007-0.7-0.32-0.7-0.707h-0.003v-2.826h0.007c0-0.387 0.309-0.7 0.689-0.707h6.040c0.38 0.011 0.7 0.32 0.7 0.711z"></path>
</svg>
