<!-- Generated by IcoMoon.io -->
<svg version="1.1" xmlns="http://www.w3.org/2000/svg" width="16" height="16" viewBox="0 0 16 16">
<title>spotlight</title>
<path fill="#352a71" d="M10.084 4.272c0.005 0.067 0.005 0.129 0 0.197-0.023 0.393-0.197 0.685-0.437 0.925-0.251 0.248-0.595 0.402-0.976 0.404h-0c-0.011 0-0.023 0-0.036 0-0.373 0-0.712-0.145-0.963-0.382l0.001 0.001c-0.28-0.26-0.455-0.63-0.455-1.041 0-0.369 0.141-0.705 0.372-0.958l-0.001 0.001 0.067-0.067c0.235-0.23 0.505-0.365 0.915-0.404 0.030-0.002 0.065-0.004 0.1-0.004 0.369 0 0.705 0.142 0.956 0.374l-0.001-0.001c0.264 0.247 0.427 0.589 0.459 0.954zM15.727 9.131l-0.421 0.813c-0.116 0.221-0.202 0.477-0.245 0.749l-0.002 0.014-0.14 0.909c-0.126 0.808-0.629 1.477-1.321 1.828l-0.014 0.006-0.819 0.409c-0.241 0.123-0.46 0.281-0.651 0.471l-0.645 0.657c-0.448 0.454-1.070 0.734-1.757 0.734-0.142 0-0.282-0.012-0.418-0.035l0.015 0.002-0.903-0.151c-0.121-0.021-0.259-0.034-0.401-0.034s-0.28 0.012-0.415 0.036l0.014-0.002-0.903 0.151c-0.121 0.021-0.26 0.033-0.401 0.033-0.688 0-1.31-0.281-1.758-0.734l-0-0-0.645-0.657c-0.185-0.187-0.4-0.345-0.637-0.465l-0.014-0.006-0.819-0.409c-0.705-0.359-1.208-1.027-1.333-1.821l-0.002-0.014-0.14-0.909c-0.042-0.285-0.129-0.542-0.253-0.776l0.006 0.013-0.427-0.813c-0.175-0.329-0.277-0.719-0.277-1.133s0.103-0.804 0.284-1.147l-0.006 0.013 0.421-0.813c0.116-0.221 0.202-0.478 0.245-0.749l0.002-0.014 0.14-0.909c0.126-0.808 0.629-1.477 1.321-1.828l0.014-0.006 0.819-0.409c0.241-0.123 0.46-0.281 0.651-0.471l0.645-0.651c0.448-0.454 1.070-0.734 1.757-0.734 0.142 0 0.282 0.012 0.418 0.035l-0.015-0.002 0.903 0.151c0.264 0.045 0.539 0.045 0.802 0l0.903-0.151c0.121-0.021 0.26-0.033 0.401-0.033 0.688 0 1.31 0.281 1.758 0.734l0 0 0.645 0.651c0.191 0.191 0.409 0.353 0.651 0.471l0.819 0.409c0.705 0.359 1.208 1.027 1.333 1.821l0.002 0.014 0.14 0.909c0.039 0.269 0.123 0.527 0.247 0.763l0.421 0.813c0.175 0.331 0.279 0.723 0.279 1.139 0 0.412-0.101 0.8-0.279 1.141l0.006-0.014zM10.869 4.244c-0.012-0.318-0.096-0.613-0.235-0.875l0.005 0.011c-0.382-0.731-1.136-1.222-2.003-1.222-0.051 0-0.102 0.002-0.152 0.005l0.007-0c-0.090 0.011-0.168 0.017-0.247 0.028-0.499 0.095-0.927 0.346-1.243 0.699l-0.002 0.002c-0.352 0.384-0.567 0.898-0.567 1.462 0 0.058 0.002 0.115 0.007 0.172l-0-0.008c0.051 0.617 0.325 1.145 0.724 1.487 0.292 0.253 0.662 0.477 1.127 0.544 0.892 0.135 1.577-0.219 2.019-0.701 0.351-0.383 0.566-0.895 0.566-1.457 0-0.052-0.002-0.103-0.005-0.154l0 0.007zM4.379 8.755c0.163-0.090 0.32-0.185 0.477-0.275-0.056-0.645-0.107-1.341-0.157-1.935 0.657-0.275 1.122-0.808 1.329-1.559 0.168-0.606 0.095-1.318-0.213-1.717-0.103-0.139-0.237-0.25-0.392-0.323l-0.006-0.003c-0.269-0.101-0.595-0.023-0.819 0.073-0.133 0.060-0.247 0.128-0.353 0.206l0.005-0.004c-0.213 0.151-0.409 0.32-0.589 0.516 0.191 1.661 0.381 3.405 0.567 5.105 0.051-0.023 0.101-0.051 0.153-0.084zM4.463 3.986c0.011-0.051 0.135-0.123 0.179-0.157 0.080-0.058 0.178-0.097 0.284-0.107l0.002-0c0.309-0.011 0.381 0.253 0.398 0.55 0.011 0.157 0.011 0.314 0 0.471-0.039 0.522-0.286 0.858-0.695 1.027-0.033-0.325-0.056-0.718-0.095-1.094-0.017-0.151-0.039-0.353-0.062-0.533-0.005-0.051-0.011-0.101-0.011-0.157zM3.705 8.171c-0.073-0.308-0.169-0.578-0.291-0.832l0.011 0.024c-0.113-0.239-0.2-0.517-0.245-0.808l-0.002-0.017c-0.045-0.398 0.033-0.746 0.286-0.931-0.095-0.309-0.174-0.611-0.269-0.915-0.55 0.292-0.931 0.819-0.931 1.605 0 0.483 0.179 0.797 0.353 1.145 0.118 0.23 0.219 0.465 0.297 0.713 0.079 0.264 0.151 0.555 0.129 0.83-0.045 0.527-0.264 0.897-0.55 1.212-0.028 0.033-0.123 0.112-0.123 0.135 0.017 0.039 0.033 0.073 0.056 0.107 0.112 0.235 0.213 0.437 0.325 0.667 0.017 0.033 0.033 0.101 0.056 0.112s0.067-0.045 0.095-0.079c0.095-0.101 0.185-0.207 0.269-0.32 0.465-0.645 0.746-1.649 0.533-2.647zM5.557 9.287c0.23-0.651 0.449-1.324 0.617-2.008 0.051-0.202 0.112-0.409 0.151-0.617 0.005-0.023 0.023-0.073 0-0.084-0.297 0.090-0.606 0.168-0.897 0.264-0.123 1.015-0.427 1.919-0.769 2.765s-0.763 1.627-1.201 2.373c0.539 0.583 1.223 1.027 1.975 1.397 0.135-0.225 0.281-0.443 0.409-0.673-0.46-0.281-0.937-0.55-1.329-0.897 0.323-0.651 0.675-1.483 0.985-2.335l0.058-0.184zM7.307 7.498c-0.191-0.129-0.427-0.225-0.634-0.337-0.415 1.593-0.971 3.063-1.503 4.555 0.185 0.101 0.365 0.213 0.555 0.314 0.359-0.695 0.578-1.442 0.864-2.199 0.14-0.37 0.258-0.752 0.376-1.139s0.235-0.791 0.342-1.195zM8.923 12.16v-0.662c0-0.151-0.005-0.32-0.011-0.583-0.398 0.051-0.802 0.084-1.195 0.14-0.017 0.219-0.017 0.449-0.028 0.679 0.174 0.011 0.449-0.023 0.623-0.023 0 0.325 0 0.606 0.005 0.881 0 0.107 0.017 0.213-0.011 0.303-0.039 0.135-0.179 0.219-0.359 0.202-0.207-0.023-0.37-0.235-0.46-0.409-0.309-0.606-0.207-1.605-0.084-2.277 0.084-0.484 0.255-0.917 0.497-1.299l-0.009 0.015c0.23-0.365 0.544-0.667 0.993-0.797 0-0.185-0.011-0.437-0.023-0.645-0.005-0.095 0-0.213-0.023-0.264-0.005-0.005-0.017 0.005-0.023 0.005-0.289 0.103-0.538 0.248-0.756 0.43l0.004-0.003c-0.328 0.258-0.6 0.571-0.805 0.927l-0.008 0.016c-0.061 0.106-0.125 0.236-0.182 0.369l-0.009 0.024c-0.241 0.539-0.353 1.161-0.421 1.851-0.051 0.527-0.056 1.010 0.023 1.487 0.028 0.151 0.073 0.303 0.129 0.449 0.197 0.516 0.578 0.948 1.352 0.841 0.297-0.039 0.539-0.157 0.791-0.264 0-0.493-0.011-1.010-0.010-1.39zM11.295 9.175c-0.036-0.322-0.062-0.713-0.072-1.108l-0-0.020c-0.017-0.522 0-1.027 0.028-1.548 0-0.005 0-0.005-0.005-0.005-0.202 0.157-0.432 0.32-0.651 0.477-0.034 0.021-0.062 0.047-0.083 0.078l-0.001 0.001c-0.003 0.020-0.004 0.044-0.004 0.067s0.001 0.047 0.004 0.070l-0-0.003c-0.005 0.752 0.039 1.548 0.056 2.221-0.185 0.079-0.37 0.179-0.555 0.253-0.058-0.535-0.12-1.32-0.166-2.11l-0.008-0.162c-0.247 0.084-0.471 0.185-0.713 0.275 0.051 0.37 0.101 0.724 0.135 1.066 0.062 0.544 0.090 1.088 0.095 1.633 0 0.157 0 0.314-0.011 0.471-0.023 0.331-0.017 0.667-0.039 0.999-0.051 0.639-0.045 1.324-0.045 1.93 0.129-0.056 0.253-0.129 0.381-0.191 0.129-0.056 0.253-0.123 0.376-0.197 0-0.241 0.011-0.432 0.017-0.639 0.023-0.791 0.045-1.453 0.017-2.154 0.213-0.101 0.427-0.202 0.651-0.297 0.151 0.903 0.455 1.694 0.729 2.502 0.23-0.174 0.427-0.381 0.645-0.572-0.123-0.312-0.262-0.738-0.384-1.172l-0.026-0.108c-0.17-0.508-0.3-1.103-0.367-1.718l-0.003-0.039zM13.017 6.651c0.129-0.051 0.247-0.129 0.37-0.191s0.241-0.129 0.359-0.202c-0.225-0.645-0.505-1.234-0.892-1.739-0.381-0.505-0.815-0.941-1.302-1.312l-0.016-0.012c0-0.011-0.017 0-0.017 0.005-0.114 0.141-0.227 0.298-0.33 0.462l-0.012 0.020c-0.023 0.039-0.101 0.14-0.095 0.179 0.033 0.045 0.073 0.084 0.118 0.118 0.045 0.045 0.090 0.079 0.123 0.112 0.202 0.207 0.37 0.393 0.555 0.617 0.028 0.033 0.095 0.107 0.095 0.14-0.012 0.068-0.030 0.128-0.053 0.186l0.002-0.006c-0.090 0.32-0.151 0.634-0.207 0.971-0.076 0.423-0.12 0.91-0.12 1.407 0 0.2 0.007 0.398 0.021 0.594l-0.002-0.026c0.051 0.701 0.185 1.335 0.337 1.952 0.073 0.303 0.163 0.606 0.275 0.897 0.084 0.219 0.168 0.437 0.264 0.634 0.033 0.067 0.051 0.146 0.107 0.197 0.191-0.247 0.393-0.483 0.578-0.729-0.281-0.499-0.471-1.111-0.617-1.745-0.051-0.19-0.092-0.419-0.116-0.654l-0.002-0.020c-0.084-0.915-0.118-1.907 0.129-2.771 0.197 0.286 0.348 0.595 0.447 0.915z"></path>
</svg>
