<!-- Generated by IcoMoon.io -->
<svg version="1.1" xmlns="http://www.w3.org/2000/svg" width="16" height="16" viewBox="0 0 16 16">
<title>spotify</title>
<path fill="#1ed760" d="M8 0c-4.4 0-8 3.6-8 8s3.6 8 8 8 8-3.6 8-8-3.56-8-8-8zM11.681 11.56c-0.16 0.239-0.44 0.32-0.681 0.16-1.88-1.16-4.24-1.401-7.041-0.761-0.279 0.081-0.519-0.119-0.599-0.359-0.080-0.281 0.12-0.52 0.36-0.6 3.040-0.681 5.68-0.4 7.76 0.88 0.28 0.12 0.319 0.439 0.201 0.68zM12.641 9.36c-0.201 0.28-0.561 0.4-0.841 0.2-2.159-1.32-5.439-1.72-7.959-0.92-0.319 0.080-0.68-0.080-0.76-0.4s0.080-0.681 0.4-0.761c2.92-0.879 6.52-0.439 9 1.081 0.241 0.121 0.36 0.52 0.161 0.8zM12.721 7.12c-2.561-1.52-6.841-1.68-9.281-0.919-0.4 0.119-0.8-0.121-0.92-0.481-0.12-0.401 0.12-0.8 0.48-0.921 2.84-0.84 7.52-0.68 10.481 1.081 0.359 0.2 0.479 0.68 0.279 1.040-0.199 0.281-0.68 0.399-1.039 0.2z"></path>
</svg>
