<!-- Generated by IcoMoon.io -->
<svg version="1.1" xmlns="http://www.w3.org/2000/svg" width="16" height="16" viewBox="0 0 16 16">
<title>sprint</title>
<path fill="#ffce0a" d="M1.42 15.997c3.662-1.205 8.971-4.013 12.664-6.521 0.31-0.209 0.551-0.405 0.551-0.745 0-0.593-1.103-1.387-1.639-1.703-2.906 2.971-8.689 7.423-11.577 8.97zM4.817 13.473c2.259-1.536 5.54-4.425 6.65-5.997 0.262-0.369 0.455-0.584 0.455-0.971 0-0.635-0.752-1.1-1.293-1.423-1.297 3.007-4.211 6.75-5.812 8.391zM6.544 11.121c1.563-1.978 2.792-4.303 2.792-5.972 0-0.872-0.635-1.481-1.464-1.944 0.016 1.814-0.623 6.067-1.328 7.916zM6.875 9.213c0.292-1.898 0.12-4.19-0.253-5.628-0.203-0.783-0.92-1.667-1.584-1.942 0.87 2.429 1.617 5.888 1.837 7.57zM6.231 6.55c-0.684-1.819-2.389-5.61-4.898-6.55 1.633 1.773 4.055 5.29 4.898 6.55z"></path>
</svg>
