<!-- Generated by IcoMoon.io -->
<svg version="1.1" xmlns="http://www.w3.org/2000/svg" width="16" height="16" viewBox="0 0 16 16">
<title>spring</title>
<path fill="#6db33f" d="M14.548 0.832c-0.225 0.537-0.511 1.047-0.854 1.515-1.453-1.45-3.458-2.347-5.673-2.347-0 0-0.001 0-0.001 0h0c-4.399 0-8.020 3.62-8.020 8.021 0 2.195 0.9 4.297 2.491 5.811l0.296 0.262c1.386 1.173 3.193 1.886 5.166 1.887h0c4.183 0 7.7-3.274 7.998-7.448 0.219-2.043-0.381-4.627-1.404-7.701zM3.631 13.878c-0.129 0.16-0.327 0.253-0.533 0.253-0.378-0.002-0.684-0.308-0.685-0.687v-0c0-0.376 0.31-0.687 0.685-0.687 0.379 0.001 0.686 0.309 0.686 0.688 0 0.164-0.058 0.315-0.154 0.433l0.001-0.001zM14.515 11.477c-1.979 2.636-6.207 1.748-8.917 1.875 0 0-0.481 0.029-0.965 0.108 0 0 0.181-0.077 0.417-0.167 1.902-0.661 2.802-0.79 3.958-1.383 2.177-1.107 4.329-3.529 4.777-6.048-0.829 2.424-3.341 4.507-5.631 5.353-1.569 0.578-4.402 1.14-4.402 1.14l-0.115-0.060c-1.929-0.939-1.987-5.115 1.519-6.463 1.535-0.591 3.005-0.267 4.663-0.661 1.771-0.42 3.819-1.748 4.652-3.479 0.933 2.769 2.057 7.105 0.044 9.785z"></path>
</svg>
