<!-- Generated by IcoMoon.io -->
<svg version="1.1" xmlns="http://www.w3.org/2000/svg" width="16" height="16" viewBox="0 0 16 16">
<title>squarespace</title>
<path d="M15.103 5.813c-1.201-1.201-3.151-1.201-4.376 0l-4.901 4.9c-0.3 0.3-0.3 0.8 0 1.1s0.8 0.299 1.1 0l4.901-4.901c0.599-0.599 1.575-0.599 2.176 0 0.6 0.6 0.6 1.576 0 2.176l-4.826 4.826c0.6 0.599 1.575 0.599 2.175 0l3.726-3.726c1.224-1.225 1.224-3.175 0.025-4.375zM13.453 7.437c-0.301-0.3-0.801-0.3-1.1 0l-4.903 4.926c-0.6 0.599-1.574 0.599-2.175 0-0.3-0.3-0.8-0.3-1.1 0s-0.3 0.8 0 1.099c1.201 1.201 3.151 1.201 4.376 0l4.901-4.9c0.299-0.325 0.299-0.826 0.001-1.125zM11.827 2.537c-1.201-1.201-3.151-1.201-4.376 0l-4.901 4.901c-0.3 0.299-0.3 0.799 0 1.099s0.8 0.3 1.1 0l4.93-4.901c0.6-0.599 1.581-0.599 2.18 0 0.301 0.3 0.801 0.3 1.1 0 0.281-0.325 0.281-0.799-0.019-1.099zM10.177 4.162c-0.3-0.3-0.8-0.3-1.1 0l-4.901 4.926c-0.599 0.6-1.575 0.6-2.177 0-0.6-0.599-0.6-1.575 0-2.176l4.826-4.826c-0.6-0.6-1.575-0.6-2.175 0l-3.751 3.727c-1.2 1.2-1.2 3.15 0 4.375 1.201 1.201 3.15 1.201 4.376 0l4.9-4.901c0.301-0.325 0.301-0.825 0-1.125z"></path>
</svg>
