<!-- Generated by IcoMoon.io -->
<svg version="1.1" xmlns="http://www.w3.org/2000/svg" width="16" height="16" viewBox="0 0 16 16">
<title>square</title>
<path d="M2.673 0c-1.476 0-2.673 1.197-2.673 2.673v0 10.653c0 1.473 1.2 2.667 2.673 2.673h10.653c1.473 0 2.673-1.2 2.673-2.673v-10.66c-0.004-1.474-1.199-2.667-2.673-2.667 0 0 0 0-0 0v0zM3.753 2.907h8.493c0.467 0 0.84 0.38 0.84 0.847v8.493c0 0.467-0.373 0.847-0.84 0.847h-8.493c-0.467 0-0.84-0.38-0.84-0.847v-8.493c0 0 0-0 0-0 0-0.465 0.375-0.843 0.84-0.847h0zM6.307 5.807c-0.269 0-0.487 0.218-0.487 0.487v0 3.393c0 0.267 0.213 0.48 0.48 0.48h3.4c0 0 0 0 0 0 0.266 0 0.483-0.214 0.487-0.48v-3.394c0-0.269-0.218-0.487-0.487-0.487v0z"></path>
</svg>
