<!-- Generated by IcoMoon.io -->
<svg version="1.1" xmlns="http://www.w3.org/2000/svg" width="16" height="16" viewBox="0 0 16 16">
<title>stackpath</title>
<path d="M2.48 4.893c-0.673 0-1.227 0.153-1.667 0.467-0.441 0.307-0.66 0.72-0.66 1.227 0 0.52 0.184 0.92 0.553 1.193 0.367 0.28 0.933 0.533 1.693 0.773 0.367 0.133 0.62 0.253 0.76 0.373 0.147 0.113 0.213 0.28 0.213 0.493 0 0.187-0.067 0.34-0.213 0.453-0.14 0.127-0.36 0.18-0.647 0.18-0.38 0-0.667-0.080-0.847-0.227-0.2-0.16-0.293-0.4-0.293-0.747h-1.365l-0.009 0.027c-0.013 0.647 0.231 1.14 0.733 1.487 0.5 0.347 1.093 0.513 1.78 0.513 0.68 0 1.227-0.147 1.64-0.44 0.413-0.307 0.627-0.727 0.627-1.253s-0.173-0.933-0.52-1.233c-0.353-0.3-0.867-0.553-1.553-0.753-0.447-0.167-0.747-0.3-0.913-0.407-0.16-0.107-0.24-0.247-0.24-0.42 0-0.187 0.080-0.34 0.24-0.46 0.16-0.14 0.38-0.193 0.667-0.193s0.513 0.080 0.673 0.227c0.167 0.16 0.247 0.347 0.247 0.587h1.36l0.007-0.020c0.020-0.54-0.193-0.987-0.62-1.333s-0.973-0.513-1.647-0.513zM5.667 4.933v6.12h1.433v-2.1h0.867c0.727 0 1.3-0.18 1.727-0.553 0.427-0.367 0.64-0.853 0.64-1.453 0-0.613-0.213-1.087-0.64-1.46s-1-0.553-1.727-0.553h-2.3zM12.073 4.933l-2.12 6.127h1.327l2.173-6.127h-1.38zM14.62 4.933l-2.12 6.127h1.327l2.173-6.127h-1.38zM7.1 6.027h0.867c0.307 0 0.547 0.087 0.7 0.26 0.167 0.173 0.247 0.38 0.247 0.667 0 0.267-0.080 0.487-0.247 0.653-0.153 0.173-0.393 0.253-0.7 0.253h-0.867z"></path>
</svg>
