<!-- Generated by IcoMoon.io -->
<svg version="1.1" xmlns="http://www.w3.org/2000/svg" width="16" height="16" viewBox="0 0 16 16">
<title>stackshare</title>
<path fill="#0690fa" d="M11.473 4.465c-0.023-0.183 0-0.396 0-0.396v-0.007c0.094-0.476 0.514-0.836 1.017-0.836 0.003 0 0.006 0.001 0.009 0.001h0.001c0.573 0 1.038 0.465 1.038 1.037s-0.465 1.037-1.038 1.037c-0.002 0-0.004-0.001-0.006-0.001h-0.005c-0.495-0.001-0.92-0.351-1.017-0.836zM16 1.027v13.947c0 0.567-0.431 1.027-0.962 1.027h-14.075c-0.531 0-0.963-0.459-0.963-1.027v-13.947c0-0.567 0.431-1.027 0.963-1.027h14.075c0.531 0 0.962 0.46 0.962 1.027zM14.465 11.698c0-1.091-0.884-1.975-1.974-1.975-0.878 0-1.651 0.58-1.896 1.423h-1.172l-1.828-3.147 0.001-0.003 1.824-3.139h1.165c0.305 1.047 1.401 1.649 2.449 1.345s1.65-1.401 1.345-2.449c-0.305-1.047-1.401-1.649-2.448-1.345-0.65 0.193-1.152 0.695-1.342 1.331l-0.004 0.014h-1.777l-0.017-0.011-2.168 3.729h-1.278c-0.305-1.047-1.401-1.649-2.449-1.344s-1.649 1.401-1.345 2.449c0.305 1.047 1.402 1.649 2.449 1.345 0.649-0.189 1.155-0.697 1.345-1.345h1.307l2.139 3.68 0.010-0.006h1.793c0.246 0.829 1.001 1.423 1.895 1.423 0 0 0 0 0 0h0.001c1.091 0 1.974-0.884 1.974-1.975zM12.509 10.619c-0.495 0.001-0.921 0.351-1.018 0.836-0.003 0.019-0.003 0.038-0.005 0.057-0.003 0.011-0.010 0.019-0.012 0.031-0.027 0.201 0 0.401 0 0.401 0.115 0.561 0.663 0.922 1.225 0.806 0.382-0.079 0.67-0.365 0.776-0.725 0.043-0.115 0.070-0.237 0.070-0.367 0-0.573-0.465-1.038-1.036-1.038zM3.467 6.945c-0.572 0-1.037 0.465-1.037 1.038 0 0.004 0.001 0.008 0.001 0.012 0 0.002-0.001 0.003-0.001 0.005 0.001 0.569 0.462 1.031 1.032 1.032 0.361-0.001 0.677-0.185 0.861-0.465 0.114-0.166 0.181-0.367 0.181-0.583 0-0.573-0.465-1.039-1.038-1.039z"></path>
</svg>
