<!-- Generated by IcoMoon.io -->
<svg version="1.1" xmlns="http://www.w3.org/2000/svg" width="16" height="16" viewBox="0 0 16 16">
<title>stackbit</title>
<path fill="#3eb0fd" d="M14.209 8.985l-6.142 3.42-6.264-3.42c-0.067-0.038-0.148-0.060-0.234-0.060-0.184 0-0.344 0.102-0.427 0.253l-0.001 0.003c-0.038 0.067-0.060 0.148-0.060 0.234 0 0.184 0.102 0.344 0.253 0.427l0.003 0.001 6.497 3.555c0.147 0.085 0.331 0.085 0.478 0l6.375-3.555c0.149-0.085 0.247-0.242 0.247-0.423 0-0.088-0.023-0.171-0.065-0.242l0.001 0.002c-0.081-0.155-0.241-0.259-0.425-0.259-0.087 0-0.169 0.023-0.239 0.064l0.002-0.001zM2.563 6.717l5.504-3.113 6.13 3.543c0.070 0.040 0.154 0.063 0.243 0.063 0.183 0 0.343-0.098 0.43-0.245l0.001-0.002c0.040-0.070 0.063-0.154 0.063-0.244 0-0.183-0.098-0.343-0.245-0.43l-0.002-0.001-6.374-3.677c-0.070-0.040-0.155-0.064-0.245-0.064s-0.175 0.024-0.247 0.066l0.002-0.001-6.498 3.677c-0.331 0.184-0.331 0.662 0 0.859l6.497 3.677c0.070 0.040 0.154 0.063 0.243 0.063 0.183 0 0.343-0.098 0.429-0.245l0.001-0.002c0.040-0.070 0.063-0.154 0.063-0.243 0-0.183-0.098-0.343-0.245-0.43l-0.002-0.001zM0.038 9.291v-2.452c-0.004-0.042-0.007-0.091-0.007-0.141 0-0.565 0.311-1.057 0.772-1.315l0.008-0.004 6.497-3.678c0.215-0.126 0.473-0.201 0.749-0.201 0.285 0 0.551 0.079 0.777 0.217l-0.007-0.004 6.375 3.677c0.46 0.27 0.765 0.762 0.765 1.325 0 0.043-0.002 0.085-0.005 0.127l0-0.005v2.452c0.003 0.037 0.005 0.080 0.005 0.123 0 0.572-0.315 1.071-0.781 1.332l-0.008 0.004-6.375 3.555c-0.214 0.121-0.469 0.193-0.742 0.193s-0.528-0.072-0.749-0.197l0.008 0.004-6.497-3.555c-0.54-0.295-0.821-0.871-0.785-1.458z"></path>
</svg>
