<!-- Generated by IcoMoon.io -->
<svg version="1.1" xmlns="http://www.w3.org/2000/svg" width="16" height="16" viewBox="0 0 16 16">
<title>stadia</title>
<path fill="#cd2640" d="M0.135 5.779c-0.082 0.059-0.134 0.153-0.135 0.26v0.004c0 0.043 0.009 0.085 0.027 0.127l1.532 3.469c0.068 0.153 0.243 0.229 0.401 0.173 1.003-0.357 4.475-1.489 6.722-0.879 0 0-2.254 0.131-4.292 1.729-0.075 0.059-0.122 0.15-0.122 0.251 0 0.047 0.010 0.091 0.028 0.131l-0.001-0.002 0.686 1.551 0.264 0.619c0.063 0.147 0.263 0.165 0.352 0.031 0.475-0.716 1.277-1.074 2.048-1.387 0.703-0.296 1.527-0.539 2.382-0.69l0.071-0.010c0.538-0.096 1.158-0.151 1.79-0.151 0.325 0 0.647 0.015 0.964 0.043l-0.041-0.003c0.009 0.001 0.019 0.001 0.029 0.001 0.143 0 0.264-0.093 0.305-0.222l0.001-0.002 0.692-2.211c0.009-0.028 0.014-0.061 0.014-0.095 0-0.106-0.052-0.2-0.131-0.258l-0.001-0.001c-0.772-0.559-3.827-2.436-9.201-1.682 0 0 4.585-2.634 10.407 0.26 0.042 0.021 0.091 0.033 0.142 0.033 0.143 0 0.264-0.094 0.306-0.223l0.001-0.002 0.61-1.95c0.009-0.027 0.014-0.059 0.015-0.091v-0.010c-0.002-0.117-0.066-0.218-0.16-0.273l-0.002-0.001c-0.731-0.413-3.205-1.652-6.607-1.652-2.608 0-5.762 0.727-9.096 3.112z"></path>
</svg>
