<!-- Generated by IcoMoon.io -->
<svg version="1.1" xmlns="http://www.w3.org/2000/svg" width="16" height="16" viewBox="0 0 16 16">
<title>staticman</title>
<path d="M11.447 2.031l-0.042 0.001c-0.045 0-0.089 0.002-0.133 0.004-0.025 0.001-0.052 0.004-0.078 0.007-0.033 0.002-0.067 0.007-0.101 0.010l-0.082 0.010c-0.035 0.005-0.071 0.012-0.107 0.019-0.050 0.009-0.1 0.020-0.149 0.032-0.018 0.005-0.037 0.009-0.055 0.013l-0.116 0.033c-0.007 0.003-0.015 0.005-0.023 0.007-0.703 0.222-1.303 0.703-1.673 1.367-0.010 0.015-0.020 0.031-0.028 0.047-0.007 0.015-0.016 0.029-0.024 0.044l-0.011 0.025c-0.2 0.397-0.313 0.845-0.313 1.319v0.533c-0.138 0-0.249 0.11-0.249 0.247s0.112 0.249 0.249 0.249v1.912c-0.671 0.067-1.317 0.291-1.883 0.653-0.162 0.104-0.317 0.218-0.46 0.339l-0.007 0.007c-0.003 0.002-0.007 0.007-0.009 0.008-0.050 0.047-0.097 0.090-0.145 0.13-0.127 0.108-0.26 0.207-0.4 0.295-0.003 0.002-0.005 0.005-0.007 0.007-0.173 0.107-0.316 0.185-0.452 0.247-0.107 0.047-0.215 0.085-0.329 0.121l-0.045 0.013c-0.011 0.005-0.023 0.008-0.036 0.011-0.337 0.103-0.687 0.157-1.047 0.157-0.927 0-1.79-0.351-2.44-0.96 0.303 0.107 0.623 0.162 0.95 0.162 0.721 0 1.412-0.275 1.936-0.753 0.095 0.456 0.296 0.885 0.585 1.251 0.131-0.040 0.252-0.080 0.369-0.133 0.039-0.017 0.079-0.037 0.119-0.057-0.401-0.451-0.632-1.033-0.64-1.642-0.001-0.107-0.071-0.2-0.173-0.233s-0.213 0.005-0.276 0.091c-0.445 0.613-1.163 0.98-1.92 0.98-0.665 0-1.305-0.283-1.753-0.776-0.075-0.083-0.196-0.105-0.295-0.055s-0.153 0.16-0.132 0.27l0.008 0.037v0.002c0.589 2.545 2.491 4.656 4.964 5.507 0.56 0.193 1.147 0.322 1.742 0.38l0.025 0.001c0.061 0 0.12-0.023 0.167-0.064 0.052-0.047 0.081-0.113 0.081-0.184v-1.323c0-0.627 0.127-1.233 0.38-1.802 0.175-0.392 0.405-0.755 0.685-1.080l-0.271-0.161 0.325 0.098 1.669 0.476c0.088 0.040 0.178 0.077 0.269 0.111v-0.533c-0.42-0.185-0.784-0.456-1.060-0.795v-2.713h0.1v0.673c0 0.489 0.397 0.887 0.885 0.887h0.355c0.46 0 0.839-0.353 0.882-0.801 0.003-0.013 0.005-0.028 0.005-0.043 0-0.12 0.097-0.216 0.216-0.216s0.216 0.097 0.216 0.216c0 0.015 0.002 0.029 0.004 0.043 0.043 0.449 0.422 0.802 0.882 0.802h0.355c0.489 0 0.887-0.397 0.887-0.887v-0.673h0.097v2.715c-0.276 0.339-0.64 0.609-1.060 0.795v0.533c0.092-0.033 0.182-0.071 0.269-0.111l1.668-0.477 0.003 0.004 0.337-0.1-0.28 0.165c0.243 0.285 0.449 0.598 0.613 0.933 0.042 0.087 0.129 0.14 0.223 0.14h0.015c0.1-0.007 0.187-0.072 0.22-0.167 0.069-0.198 0.103-0.407 0.103-0.622 0-0.96-0.693-1.749-1.616-1.893v-1.915c0.137 0 0.248-0.111 0.248-0.248s-0.111-0.247-0.248-0.247v-0.533c0-0.177-0.017-0.351-0.047-0.52-0.001-0.004 0-0.008-0.001-0.012l-0.009-0.050-0.003-0.016c-0.115-0.558-0.388-1.067-0.793-1.473-0.179-0.18-0.38-0.336-0.595-0.462-0.022-0.013-0.045-0.024-0.067-0.037l-0.040-0.022c-0.035-0.018-0.069-0.036-0.103-0.052-0.012-0.007-0.024-0.011-0.036-0.017-0.059-0.028-0.118-0.053-0.177-0.076-0.024-0.009-0.047-0.019-0.072-0.027-0.027-0.011-0.055-0.020-0.082-0.029-0.029-0.009-0.060-0.019-0.089-0.027-0.025-0.008-0.049-0.015-0.073-0.021-0.052-0.013-0.104-0.027-0.157-0.037-0.017-0.003-0.033-0.007-0.050-0.009-0.040-0.007-0.081-0.015-0.122-0.020-0.023-0.004-0.047-0.007-0.071-0.010l-0.105-0.011-0.073-0.005c-0.040-0.003-0.081-0.003-0.122-0.004zM13.54 3.24c0 0-0.051 0.051-0.143 0.14-0.045 0.045-0.104 0.095-0.169 0.155s-0.143 0.123-0.227 0.193c-0.060 0.047-0.127 0.097-0.193 0.147 0.24 0.482 0.63 0.795 1.068 0.849 0.008 0.080 0.012 0.162 0.012 0.244v0.532h-1.743c-0.031-0.102-0.124-0.177-0.237-0.177h-0.921c-0.112 0-0.207 0.075-0.237 0.177h-1.743v-0.532c0-0.265 0.043-0.52 0.121-0.76 0.078 0.075 0.162 0.141 0.252 0.2 0.027 0.013 0.080 0.042 0.161 0.077 0.115 0.051 0.287 0.108 0.497 0.14 0.105 0.016 0.22 0.025 0.343 0.025 0.030 0 0.063 0 0.091-0.002l0.097-0.007c0.067-0.002 0.129-0.013 0.193-0.020s0.133-0.023 0.2-0.035c0.067-0.013 0.133-0.032 0.201-0.047 0.067-0.020 0.135-0.040 0.202-0.061 0.067-0.024 0.135-0.047 0.2-0.072 0.133-0.051 0.265-0.107 0.392-0.168l0.187-0.093 0.181-0.097c0.117-0.067 0.229-0.132 0.333-0.198 0.053-0.031 0.103-0.067 0.153-0.097s0.096-0.061 0.14-0.093c0.088-0.062 0.172-0.115 0.243-0.168s0.135-0.095 0.185-0.135c0.1-0.077 0.16-0.119 0.161-0.118zM11.233 5.82h0.427v0.141h-0.427zM9.6 5.997h1.133v0.673c0 0.215-0.175 0.39-0.389 0.39h-0.355c-0.215 0-0.39-0.175-0.39-0.39zM12.16 5.997h1.133v0.673c0 0.215-0.175 0.39-0.39 0.39h-0.355c-0.215 0-0.39-0.175-0.39-0.39zM10.167 6.103c-0.156 0-0.283 0.127-0.283 0.283s0.127 0.283 0.283 0.283 0.284-0.127 0.284-0.283c0-0.047-0.012-0.088-0.031-0.127-0.027 0.033-0.067 0.055-0.111 0.055-0.078 0-0.142-0.063-0.142-0.142 0-0.025 0.008-0.049 0.020-0.069zM12.727 6.103c-0.156 0-0.283 0.127-0.283 0.283s0.127 0.283 0.283 0.283 0.283-0.127 0.283-0.283c0-0.047-0.011-0.088-0.031-0.127-0.027 0.033-0.067 0.055-0.112 0.055-0.078 0-0.142-0.063-0.142-0.142 0-0.025 0.007-0.049 0.018-0.069-0.007 0-0.013-0.002-0.017 0zM10.436 9.007c-0.044 0.004-0.087 0.020-0.124 0.045-0.067 0.047-0.105 0.122-0.105 0.203v1.347c0 0.080 0.040 0.157 0.105 0.203 0.043 0.030 0.093 0.045 0.143 0.045 0.028 0 0.056-0.005 0.083-0.015l0.909-0.325 0.909 0.325c0.027 0.010 0.055 0.015 0.083 0.015 0.051 0 0.101-0.015 0.144-0.045 0.067-0.047 0.105-0.122 0.105-0.203v-1.347c0-0.080-0.040-0.157-0.105-0.203s-0.15-0.058-0.227-0.031l-0.909 0.325-0.909-0.325c-0.020-0.007-0.039-0.011-0.058-0.013-0.015-0.001-0.029-0.002-0.047-0.001zM10.703 9.607l0.496 0.177v0.288l-0.496 0.177zM12.191 9.607v0.643l-0.496-0.177v-0.288z"></path>
</svg>
