<!-- Generated by IcoMoon.io -->
<svg version="1.1" xmlns="http://www.w3.org/2000/svg" width="16" height="16" viewBox="0 0 16 16">
<title>statamic</title>
<path d="M2.086 11.961c-0.020-0.142-0.014-0.475-0.014-0.475h-0.192c-0.441 0-0.615-0.178-0.615-0.62v-1.757c0-0.793-0.185-0.987-0.557-1.109v-0.041c0.371-0.122 0.557-0.324 0.557-1.117v-1.749c0-0.442 0.173-0.58 0.613-0.58h0.19c0 0 0.009-0.305 0.030-0.483-0.090-0.012-0.44-0.020-0.44-0.020-0.889 0-1.139 0.431-1.139 1.319v1.594c0 0.652-0.379 0.739-0.519 0.739v0.633c0.14 0 0.51 0.088 0.51 0.729v1.604c0 0.889 0.249 1.309 1.139 1.309 0 0 0.349 0.031 0.42 0.031zM1.545 8.393c0.325 0 0.789 0.112 0.789 0.932v2.042c0 1.132 0.272 1.699 1.405 1.699h0.51v-0.605h-0.26c-0.56 0-0.769-0.233-0.769-0.793v-2.239c0-1.010-0.319-1.257-0.879-1.413v-0.045c0.56-0.157 0.89-0.415 0.89-1.425v-2.235c0-0.559 0.209-0.727 0.769-0.727h0.259v-0.649h-0.5c-1.129 0-1.399 0.549-1.399 1.679v2.039c0 0.829-0.459 0.95-0.79 0.95v0.799zM9.203 10.992c0.309-0.087 0.569-0.213 0.784-0.377 0.213-0.163 0.38-0.365 0.5-0.601 0.117-0.237 0.177-0.499 0.177-0.79 0-0.253-0.044-0.47-0.132-0.649-0.088-0.181-0.23-0.337-0.424-0.475-0.195-0.137-0.443-0.261-0.745-0.367s-0.666-0.213-1.095-0.319c-0.459-0.117-0.777-0.22-0.956-0.31-0.181-0.093-0.27-0.241-0.27-0.448 0-0.236 0.094-0.409 0.282-0.515 0.187-0.111 0.418-0.16 0.694-0.16 0.297 0 0.595 0.040 0.893 0.14 0.297 0.089 0.615 0.249 0.951 0.459l0.63-0.95c-0.367-0.229-0.763-0.41-1.186-0.549-0.42-0.139-0.849-0.2-1.269-0.2-0.34 0-0.659 0.040-0.949 0.129-0.29 0.091-0.549 0.22-0.769 0.391-0.221 0.169-0.39 0.379-0.511 0.619-0.119 0.239-0.18 0.52-0.18 0.819 0 0.229 0.040 0.419 0.121 0.59 0.079 0.169 0.199 0.31 0.369 0.439s0.39 0.239 0.67 0.339 0.609 0.201 0.999 0.291c0.519 0.12 0.879 0.23 1.099 0.34 0.22 0.099 0.33 0.26 0.33 0.47s-0.090 0.379-0.27 0.489-0.439 0.17-0.759 0.17c-0.709 0-1.449-0.25-2.209-0.75l-0.65 1.079c0.181 0.121 0.38 0.231 0.61 0.33s0.469 0.181 0.719 0.25c0.25 0.070 0.51 0.121 0.78 0.16s0.519 0.049 0.759 0.049c0.379 0 0.72-0.049 1.029-0.139zM14.177 4.512c0.44 0 0.569 0.138 0.569 0.58v1.749c0 0.792 0.139 0.995 0.697 1.119v0.035c-0.557 0.123-0.697 0.317-0.697 1.109v1.762c0 0.439-0.128 0.619-0.569 0.619h-0.193c0 0-0.002 0.333-0.021 0.473 0.077 0 0.383-0.010 0.383-0.010 0.89 0 1.095-0.431 1.095-1.321v-1.599c0-0.643 0.373-0.73 0.558-0.73v-0.639c-0.185 0-0.558-0.089-0.558-0.739v-1.592c0-0.889-0.205-1.321-1.095-1.321 0 0-0.313 0.010-0.405 0.021 0.019 0.178 0.039 0.484 0.039 0.484h0.19zM13.629 11.366v-2.042c0-0.819 0.465-0.931 0.79-0.931v-0.807c-0.325 0-0.79-0.112-0.79-0.942v-2.032c0-1.131-0.179-1.679-1.313-1.679h-0.547v0.65h0.299c0.56 0 0.724 0.167 0.724 0.727v2.233c0 1.009 0.279 1.267 0.839 1.424v0.045c-0.56 0.157-0.829 0.403-0.829 1.413v2.243c0 0.562-0.16 0.794-0.719 0.794h-0.299v0.605h0.549c1.139 0 1.319-0.569 1.319-1.701z"></path>
</svg>
