<!-- Generated by IcoMoon.io -->
<svg version="1.1" xmlns="http://www.w3.org/2000/svg" width="16" height="16" viewBox="0 0 16 16">
<title>statuspage</title>
<path d="M8.005 6.398c0.015-0 0.032-0 0.050-0 2.070 0 3.749 1.678 3.749 3.749s-1.678 3.749-3.749 3.749c-0.018 0-0.035-0-0.053-0l0.003 0c-2.049-0.028-3.699-1.696-3.699-3.748s1.65-3.72 3.696-3.748l0.003-0zM0.103 5.811l2.013 2.383c0.079 0.093 0.196 0.152 0.326 0.152 0.108 0 0.207-0.041 0.283-0.107l-0 0c3.257-2.919 7.313-2.919 10.56 0 0.075 0.066 0.174 0.107 0.283 0.107 0.131 0 0.248-0.059 0.327-0.152l0.001-0.001 2.004-2.383c0.063-0.074 0.101-0.171 0.101-0.277 0-0.131-0.058-0.248-0.15-0.327l-0.001-0c-4.733-4.136-10.975-4.136-15.703 0-0.090 0.080-0.146 0.195-0.146 0.324 0 0.107 0.039 0.205 0.103 0.28l-0.001-0.001z"></path>
</svg>
