<!-- Generated by IcoMoon.io -->
<svg version="1.1" xmlns="http://www.w3.org/2000/svg" width="16" height="16" viewBox="0 0 16 16">
<title>steamworks</title>
<path d="M14.619 6.327v1.381h-1.002v1.002h1.002v-1h1.381v-1.383zM10.675 6.659v0.717h0.717v-0.717zM12.226 8.373c-0.098 0.001-0.187 0.037-0.255 0.096l0.001-0c-0.064 0.061-0.104 0.146-0.104 0.241 0 0.005 0 0.010 0 0.015l-0-0.001c-0 0.005-0 0.010-0 0.016 0 0.086 0.037 0.164 0.097 0.217l0 0c0.060 0.050 0.135 0.084 0.218 0.093l0.002 0 0.069 0.010 0.075 0.013c0.042 0.006 0.078 0.015 0.114 0.026l-0.005-0.001c0.026 0.011 0.049 0.026 0.068 0.044l-0-0c0.042 0.041 0.067 0.098 0.067 0.161 0 0.006-0 0.012-0.001 0.018l0-0.001c0 0.004 0 0.008 0 0.012 0 0.073-0.033 0.138-0.085 0.181l-0 0c-0.058 0.044-0.132 0.071-0.212 0.071-0.007 0-0.014-0-0.021-0.001l0.001 0c-0.004 0-0.008 0-0.012 0-0.064 0-0.125-0.012-0.181-0.035l0.003 0.001c-0.063-0.029-0.116-0.068-0.16-0.116l-0-0-0.065 0.068c0.049 0.054 0.109 0.097 0.177 0.127l0.003 0.001c0.063 0.025 0.136 0.040 0.212 0.040 0.006 0 0.012-0 0.018-0l-0.001 0c0.007 0 0.015 0.001 0.024 0.001 0.106 0 0.204-0.036 0.281-0.097l-0.001 0.001c0.072-0.062 0.117-0.154 0.117-0.256 0-0.001-0-0.003-0-0.004v0c-0-0.050-0.011-0.098-0.030-0.141l0.001 0.002c-0.019-0.043-0.046-0.078-0.080-0.106l-0-0c-0.025-0.022-0.053-0.040-0.085-0.053l-0.002-0.001c-0.039-0.015-0.084-0.026-0.131-0.031l-0.003-0-0.075-0.013-0.059-0.009c-0.039-0.008-0.073-0.018-0.105-0.031l0.004 0.001c-0.031-0.013-0.058-0.029-0.083-0.048l0.001 0c-0.039-0.039-0.064-0.093-0.064-0.153 0-0.005 0-0.010 0-0.014l-0 0.001c-0-0.003-0-0.007-0-0.010 0-0.071 0.029-0.135 0.077-0.181l0-0c0.051-0.044 0.118-0.071 0.191-0.071 0.006 0 0.012 0 0.018 0.001l-0.001-0c0.004-0 0.009-0 0.013-0 0.056 0 0.109 0.011 0.157 0.031l-0.003-0.001c0.050 0.024 0.093 0.053 0.13 0.088l-0-0 0.060-0.061c-0.086-0.087-0.205-0.14-0.337-0.14-0.006 0-0.011 0-0.017 0l0.001-0c-0.007-0-0.015-0.001-0.023-0.001-0 0-0.001 0-0.001 0h0zM0.45 8.377c-0.11 0.001-0.211 0.041-0.289 0.108l0.001-0.001c-0.072 0.066-0.117 0.161-0.117 0.266 0 0.005 0 0.010 0 0.015l-0-0.001c-0 0.006-0.001 0.013-0.001 0.020 0 0.089 0.034 0.17 0.089 0.231l-0-0c0.063 0.059 0.146 0.097 0.238 0.105l0.001 0 0.080 0.010 0.070 0.010c0.045 0.003 0.085 0.022 0.115 0.051l-0-0c0.021 0.026 0.034 0.059 0.034 0.096 0 0.003-0 0.005-0 0.008l0-0c0 0.107-0.073 0.158-0.218 0.158-0.003 0-0.006 0-0.009 0-0.057 0-0.111-0.009-0.162-0.026l0.004 0.001c-0.051-0.017-0.095-0.045-0.13-0.082l-0-0-0.155 0.16c0.053 0.057 0.119 0.101 0.193 0.129l0.004 0.001c0.072 0.025 0.155 0.039 0.241 0.039 0.004 0 0.008-0 0.013-0l-0.001 0c0.006 0 0.012 0 0.019 0 0.117 0 0.224-0.039 0.31-0.105l-0.001 0.001c0.079-0.065 0.129-0.163 0.129-0.273 0-0.005-0-0.010-0-0.015l0 0.001c0.001-0.007 0.001-0.016 0.001-0.025 0-0.095-0.037-0.181-0.096-0.245l0 0c-0.027-0.026-0.059-0.046-0.095-0.061l-0.002-0.001c-0.040-0.015-0.088-0.028-0.137-0.034l-0.003-0-0.071-0.010-0.075-0.010c-0.043-0.005-0.082-0.024-0.111-0.052l0 0c-0.023-0.023-0.038-0.055-0.039-0.090v-0c-0-0.001-0-0.002-0-0.004 0-0.044 0.019-0.084 0.050-0.111l0-0c0.035-0.028 0.080-0.046 0.129-0.046 0.005 0 0.009 0 0.014 0l-0.001-0c0.001 0 0.001 0 0.002 0 0.048 0 0.094 0.007 0.138 0.019l-0.004-0.001c0.045 0.014 0.084 0.038 0.115 0.070l0 0 0.152-0.155c-0.048-0.049-0.105-0.087-0.17-0.112l-0.003-0.001c-0.063-0.022-0.136-0.035-0.212-0.035-0.005 0-0.009 0-0.014 0l0.001-0c-0.007-0-0.016-0.001-0.024-0.001-0 0-0 0-0 0h0zM8.511 8.379c-0.057 0-0.112 0.013-0.161 0.034l0.003-0.001c-0.055 0.024-0.101 0.057-0.14 0.097l-0 0c-0.025 0.026-0.047 0.055-0.064 0.087l-0.001 0.002c-0.015 0.029-0.026 0.064-0.033 0.099l-0 0.003c-0.007 0.037-0.012 0.081-0.013 0.125l-0 0.002c-0.002 0.059-0.004 0.129-0.004 0.198s0.001 0.139 0.004 0.208l-0-0.010c0.001 0.046 0.006 0.089 0.014 0.132l-0.001-0.005c0.007 0.038 0.019 0.072 0.034 0.104l-0.001-0.002c0.017 0.035 0.039 0.065 0.065 0.090l0 0c0.039 0.040 0.085 0.073 0.137 0.096l0.003 0.001c0.049 0.021 0.107 0.033 0.167 0.033v0c0.002 0 0.004 0 0.006 0 0.058 0 0.114-0.012 0.164-0.034l-0.003 0.001c0.055-0.024 0.101-0.056 0.14-0.097l0-0c0.026-0.026 0.047-0.055 0.064-0.088l0.001-0.002c0.014-0.029 0.026-0.063 0.033-0.099l0-0.003c0.007-0.037 0.012-0.081 0.013-0.125l0-0.002c0.002-0.059 0.004-0.129 0.004-0.198s-0.001-0.139-0.004-0.208l0 0.010c-0.001-0.046-0.006-0.089-0.014-0.132l0.001 0.005c-0.007-0.038-0.019-0.073-0.034-0.104l0.001 0.002c-0.017-0.035-0.039-0.064-0.065-0.089l-0-0c-0.039-0.041-0.085-0.073-0.137-0.096l-0.003-0.001c-0.049-0.021-0.107-0.033-0.167-0.033h-0c-0.001-0-0.003-0-0.005-0s-0.003 0-0.005 0h0zM1.211 8.389v0.222h0.322v1.050h0.24v-1.050h0.321v-0.222zM2.463 8.389v1.272h0.812v-0.22h-0.57v-0.309h0.485v-0.222h-0.485v-0.299h0.57v-0.222zM3.995 8.389l-0.449 1.272h0.25l0.075-0.225h0.437l0.073 0.225h0.251l-0.45-1.272zM4.957 8.389v1.272h0.24v-0.74l0.237 0.481h0.163l0.235-0.481v0.74h0.24v-1.272h-0.236l-0.32 0.687-0.322-0.687zM6.422 8.389l0.307 1.272h0.096l0.291-1.107 0.29 1.107h0.095l0.307-1.272h-0.098l-0.26 1.105-0.287-1.105h-0.097l-0.287 1.105-0.26-1.105zM9.39 8.389v1.272h0.093v-0.588h0.339l0.293 0.588h0.108l-0.297-0.588c0.162-0.021 0.286-0.158 0.286-0.324 0-0.007-0-0.014-0.001-0.021l0 0.001c0-0.005 0-0.010 0-0.016 0-0.092-0.038-0.174-0.099-0.233l-0-0c-0.064-0.056-0.149-0.091-0.242-0.091-0.005 0-0.009 0-0.014 0l0.001-0zM10.677 8.389v1.272h0.093v-0.343l0.293-0.369 0.395 0.712v-0.001h0.111l-0.445-0.785 0.38-0.485h-0.112l-0.623 0.795v-0.795zM12.802 8.411v0.127h0.017v-0.085l0.030 0.062h0.016l0.028-0.062v0.085h0.019v-0.127h-0.019l-0.037 0.079-0.037-0.079zM12.692 8.412v0.017h0.035v0.109h0.019v-0.109h0.035v-0.017zM8.519 8.465c0 0 0.001 0 0.001 0 0.092 0 0.174 0.038 0.234 0.099l0 0c0.020 0.021 0.037 0.044 0.051 0.070l0.001 0.002c0.013 0.025 0.023 0.055 0.028 0.086l0 0.002c0.007 0.034 0.011 0.075 0.012 0.116l0 0.001c0.002 0.055 0.003 0.12 0.003 0.185s-0.001 0.13-0.004 0.195l0-0.009c-0.001 0.042-0.005 0.082-0.013 0.121l0.001-0.005c-0.006 0.033-0.016 0.063-0.030 0.090l0.001-0.002c-0.015 0.027-0.032 0.051-0.052 0.072l0-0c-0.059 0.061-0.142 0.098-0.233 0.098s-0.174-0.038-0.233-0.098l-0-0c-0.020-0.021-0.038-0.044-0.051-0.070l-0.001-0.002c-0.012-0.025-0.021-0.055-0.028-0.085l-0-0.002c-0.007-0.034-0.011-0.075-0.012-0.116l-0-0.001c-0.002-0.055-0.003-0.12-0.003-0.185s0.001-0.13 0.004-0.195l-0 0.009c0.001-0.042 0.005-0.082 0.013-0.121l-0.001 0.005c0.006-0.033 0.015-0.063 0.029-0.090l-0.001 0.002c0.015-0.027 0.032-0.051 0.052-0.071l-0 0c0.059-0.060 0.141-0.098 0.232-0.099h0zM9.857 8.475c0.001-0 0.002-0 0.004-0 0.070 0 0.134 0.025 0.183 0.066l-0.001-0c0.046 0.043 0.074 0.103 0.074 0.171 0 0.008-0 0.015-0.001 0.023l0-0.001c0 0.005 0.001 0.010 0.001 0.016 0 0.069-0.029 0.131-0.076 0.174l-0 0c-0.049 0.041-0.113 0.066-0.182 0.066-0.005 0-0.010-0-0.015-0l0.001 0h-0.362v-0.513h0.363c0.002-0 0.006-0 0.009-0.001l0.001-0zM4.095 8.764l0.152 0.461h-0.307z"></path>
</svg>
