<!-- Generated by IcoMoon.io -->
<svg version="1.1" xmlns="http://www.w3.org/2000/svg" width="16" height="16" viewBox="0 0 16 16">
<title>steam</title>
<path d="M7.986 0c-4.201 0-7.645 3.24-7.971 7.358l4.288 1.772c0.363-0.247 0.802-0.393 1.275-0.393 0.042 0 0.083 0.003 0.125 0.004l1.907-2.761v-0.039c0-1.663 1.352-3.016 3.016-3.016 1.663 0 3.016 1.354 3.016 3.018s-1.353 3.017-3.016 3.017h-0.070l-2.717 1.941c0 0.035 0.003 0.070 0.003 0.106 0 1.25-1.010 2.264-2.26 2.264-1.090 0-2.011-0.782-2.221-1.818l-3.070-1.271c0.951 3.358 4.033 5.82 7.695 5.82 4.418 0 7.999-3.582 7.999-8s-3.582-8-7.999-8zM5.027 12.14l-0.982-0.407c0.175 0.362 0.476 0.666 0.876 0.833 0.865 0.359 1.862-0.051 2.221-0.917 0.175-0.42 0.176-0.879 0.003-1.299s-0.5-0.747-0.918-0.922c-0.416-0.173-0.86-0.166-1.252-0.020l1.015 0.42c0.637 0.267 0.939 1 0.673 1.637-0.265 0.638-0.998 0.94-1.636 0.675zM12.637 5.938c0-1.108-0.902-2.010-2.010-2.010-1.11 0-2.010 0.902-2.010 2.010 0 1.11 0.9 2.010 2.010 2.010 1.109 0 2.010-0.9 2.010-2.010zM9.121 5.935c0-0.835 0.675-1.511 1.51-1.511 0.833 0 1.511 0.676 1.511 1.511s-0.678 1.51-1.511 1.51c-0.835 0-1.51-0.676-1.51-1.51z"></path>
</svg>
