<!-- Generated by IcoMoon.io -->
<svg version="1.1" xmlns="http://www.w3.org/2000/svg" width="16" height="16" viewBox="0 0 16 16">
<title>steem</title>
<path fill="#4ba2f2" d="M2.618 1.731c0.176 0.030-0.265 1.185-0.019 2.507 0.212 1.131 2.875 5.517 2.765 7.019-0.085 0.945-2.272 3.16-2.502 3.013-0.251-0.070 0.664-1.574 0.324-2.829-0.393-1.461-2.738-5.24-2.735-6.909 0-1.221 2.007-2.88 2.167-2.801zM7.627 0.003c0.224 0.039-0.337 1.514-0.023 3.194 0.27 1.447 3.667 7.037 3.528 8.955-0.111 1.206-2.899 4.029-3.193 3.84-0.319-0.087 0.847-2.005 0.415-3.604-0.503-1.864-3.492-6.684-3.49-8.812 0-1.559 2.561-3.673 2.763-3.573zM12.796 1.731c0.18 0.030-0.262 1.185-0.015 2.507 0.212 1.131 2.875 5.517 2.765 7.019-0.083 0.945-2.272 3.16-2.503 3.013-0.251-0.070 0.664-1.574 0.325-2.829-0.396-1.461-2.74-5.241-2.737-6.909 0-1.221 2.009-2.88 2.165-2.801z"></path>
</svg>
