<!-- Generated by IcoMoon.io -->
<svg version="1.1" xmlns="http://www.w3.org/2000/svg" width="16" height="16" viewBox="0 0 16 16">
<title>steemit</title>
<path fill="#06d6a9" d="M13.988 4.831c-0.627-0.627-1.382-1.126-2.223-1.453l-0.044-0.015c0.481-1.413 2.185-1.928 2.185-1.928-1.816-0.886-3.951-1.404-6.207-1.404-0.762 0-1.51 0.059-2.241 0.173l0.081-0.010c-1.577 0.319-2.921 1.15-3.886 2.308l-0.009 0.011c-0.929 1.065-1.496 2.467-1.496 4.002 0 1.861 0.834 3.528 2.148 4.647l0.009 0.007c0.399 0.341 1.289 0.872 1.305 0.899-0.584 1.484-2.452 1.89-2.452 1.89 1.666 0.975 3.621 1.662 5.705 1.936l0.079 0.008c0.461 0.062 0.994 0.097 1.535 0.097 0.439 0 0.872-0.023 1.298-0.068l-0.053 0.005c1.669-0.202 3.132-0.959 4.225-2.079l0.001-0.001c1.174-1.153 1.901-2.757 1.901-4.531 0-1.755-0.712-3.344-1.863-4.493l-0-0zM12.852 12.869c-0.906 0.859-2.087 1.436-3.398 1.585l-0.027 0.003c-0.341 0.038-0.736 0.060-1.136 0.060-0.435 0-0.863-0.026-1.285-0.075l0.051 0.005c-1.049-0.148-1.998-0.417-2.887-0.797l0.073 0.028c0.421-0.393 0.759-0.869 0.99-1.403l0.010-0.027c0.047-0.118 0.074-0.254 0.074-0.397 0-0.173-0.040-0.336-0.11-0.481l0.003 0.007c-0.295-0.595-0.468-1.295-0.468-2.036 0-1.314 0.543-2.5 1.417-3.348l0.001-0.001c0.87-0.843 2.058-1.363 3.367-1.363 1.328 0 2.532 0.535 3.406 1.401l-0-0c0.84 0.876 1.358 2.067 1.358 3.379 0 1.353-0.55 2.578-1.44 3.462l-0 0z"></path>
</svg>
