<!-- Generated by IcoMoon.io -->
<svg version="1.1" xmlns="http://www.w3.org/2000/svg" width="16" height="16" viewBox="0 0 16 16">
<title>steinberg</title>
<path fill="#c90827" d="M12.987 8.419c0.428-0.247 0.428-0.673 0-0.919l-3.179-1.836c-0.428-0.247-0.797-0.035-0.797 0.46v3.671c0 0.494 0.369 0.707 0.797 0.46zM8.001 1.818c3.414 0 6.182 2.768 6.182 6.182s-2.768 6.182-6.182 6.182-6.181-2.768-6.181-6.182 2.767-6.182 6.181-6.182zM8.001 0.001c-4.41 0-7.998 3.588-7.998 7.999s3.588 7.999 7.999 7.999 7.998-3.588 7.998-7.999-3.588-7.999-7.999-7.999z"></path>
</svg>
