<!-- Generated by IcoMoon.io -->
<svg version="1.1" xmlns="http://www.w3.org/2000/svg" width="16" height="16" viewBox="0 0 16 16">
<title>stencyl</title>
<path fill="#8e1c04" d="M9.573 1.783c-0.639 0.080-1.267 0.244-1.855 0.506l-1.459-1.208 0.289 1.89c-0.505 0.378-0.94 0.833-1.29 1.359l-1.937-0.33 1.301 1.568c-0.207 0.545-0.335 1.118-0.393 1.699l-1.98 0.733 1.968 0.733c0.055 0.589 0.172 1.175 0.377 1.731l-1.263 1.522 1.879-0.284c0.361 0.541 0.819 1.012 1.35 1.387l-0.313 1.834 1.498-1.204c0.576 0.222 1.187 0.349 1.803 0.398l0.699 1.883 0.706-1.897c0.945-0.096 1.894-0.307 2.735-0.763-0.153-0.679-0.312-1.357-0.461-2.037-1.361 0.696-3.070 0.961-4.491 0.269-1.175-0.597-1.849-1.895-1.941-3.19-0.101-1.433 0.335-3.007 1.543-3.867 1.149-0.795 2.683-0.805 3.976-0.391 0.285 0.099 0.557 0.235 0.816 0.402 0.204-0.701 0.411-1.403 0.62-2.103-0.88-0.449-1.874-0.653-2.861-0.696l-0.643-1.727z"></path>
</svg>
