<!-- Generated by IcoMoon.io -->
<svg version="1.1" xmlns="http://www.w3.org/2000/svg" width="16" height="16" viewBox="0 0 16 16">
<title>storybook</title>
<path fill="#ff4785" d="M10.893 0.16l-0.080 1.807c-0 0.002-0 0.003-0 0.005 0 0.066 0.054 0.12 0.12 0.12 0.028 0 0.053-0.009 0.074-0.025l-0 0 0.707-0.533 0.6 0.467c0.019 0.013 0.042 0.020 0.067 0.020 0.064 0 0.116-0.050 0.12-0.113l0-0-0.067-1.84 0.887-0.067c0.016-0.001 0.035-0.002 0.053-0.002 0.442 0 0.8 0.358 0.8 0.8 0 0.001 0 0.001 0 0.002v-0 14.4c0 0 0 0.001 0 0.001 0 0.442-0.358 0.8-0.8 0.8-0.014 0-0.028-0-0.042-0.001l0.002 0-10.733-0.48c-0.418-0.018-0.753-0.354-0.767-0.772l-0-0.001-0.5-13.2c-0.001-0.014-0.001-0.031-0.001-0.048 0-0.426 0.333-0.774 0.753-0.799l0.002-0 8.8-0.553zM8.847 6.2c0 0.313 2.107 0.16 2.393-0.053 0-2.133-1.147-3.26-3.24-3.26-2.1 0-3.267 1.147-3.267 2.86 0 2.967 4 3.020 4 4.64 0 0.467-0.213 0.733-0.7 0.733-0.64 0-0.9-0.327-0.867-1.44 0-0.24-2.433-0.32-2.513 0-0.18 2.687 1.487 3.467 3.4 3.467 1.86 0 3.313-0.993 3.313-2.787 0-3.18-4.067-3.093-4.067-4.667 0-0.647 0.48-0.733 0.753-0.733 0.3 0 0.833 0.047 0.793 1.24z"></path>
</svg>
