<!-- Generated by IcoMoon.io -->
<svg version="1.1" xmlns="http://www.w3.org/2000/svg" width="16" height="16" viewBox="0 0 16 16">
<title>storify</title>
<path fill="#3a98d9" d="M15.32 5.711c0.213 0.405 0.375 0.85 0.488 1.337s0.176 0.997 0.19 1.528c0.013 0.53-0.041 1.070-0.16 1.611-0.12 0.543-0.298 1.074-0.531 1.592s-0.553 1.010-0.961 1.48c-0.409 0.471-0.875 0.893-1.405 1.267-0.521 0.369-1.16 0.689-1.9 0.939-0.741 0.26-1.551 0.43-2.431 0.53l-0.199-0.481c0.049-0.010 0.109-0.030 0.199-0.059 0.091-0.031 0.25-0.090 0.481-0.201 0.239-0.1 0.459-0.219 0.68-0.36s0.459-0.33 0.72-0.58c0.269-0.25 0.489-0.519 0.68-0.81 0.19-0.299 0.35-0.66 0.481-1.099s0.201-0.91 0.201-1.41c0-0.481-0.060-0.921-0.19-1.34-0.13-0.421-0.301-0.77-0.511-1.081-0.209-0.299-0.449-0.59-0.699-0.859s-0.511-0.53-0.761-0.77c-0.261-0.24-0.489-0.49-0.711-0.73-0.209-0.241-0.389-0.511-0.519-0.81s-0.2-0.611-0.2-0.94c0-0.59 0.241-1.1 0.7-1.52 0.47-0.431 1.109-0.64 1.93-0.64 0.241 0 0.481 0.019 0.731 0.070 0.25 0.049 0.549 0.139 0.889 0.29 0.341 0.151 0.661 0.34 0.97 0.569 0.311 0.231 0.641 0.56 0.981 0.97 0.34 0.413 0.651 0.89 0.93 1.43zM0.68 10.301c-0.213-0.405-0.375-0.85-0.487-1.337s-0.177-0.996-0.19-1.527c-0.014-0.531 0.041-1.070 0.16-1.611 0.121-0.544 0.297-1.075 0.53-1.592 0.235-0.518 0.555-1.011 0.96-1.48 0.41-0.47 0.877-0.893 1.406-1.267 0.52-0.371 1.159-0.69 1.901-0.94 0.741-0.262 1.551-0.441 2.431-0.542l0.199 0.474c-0.042 0.009-0.105 0.029-0.19 0.053-0.083 0.026-0.239 0.090-0.475 0.195-0.233 0.104-0.458 0.223-0.675 0.358-0.215 0.135-0.453 0.326-0.715 0.574s-0.487 0.518-0.675 0.81c-0.189 0.293-0.347 0.657-0.477 1.093s-0.194 0.903-0.194 1.405c0 0.473 0.060 0.917 0.201 1.333 0.13 0.417 0.299 0.775 0.51 1.075 0.21 0.311 0.45 0.59 0.7 0.871 0.25 0.279 0.511 0.529 0.761 0.769s0.489 0.489 0.7 0.731c0.219 0.25 0.39 0.519 0.52 0.809 0.13 0.3 0.199 0.61 0.199 0.94 0 0.599-0.239 1.111-0.699 1.531-0.471 0.43-1.111 0.639-1.931 0.639-0.239 0-0.48-0.020-0.73-0.070s-0.55-0.139-0.88-0.29c-0.34-0.151-0.66-0.34-0.98-0.57-0.311-0.23-0.64-0.56-0.98-0.97s-0.65-0.889-0.931-1.429z"></path>
</svg>
