<!-- Generated by IcoMoon.io -->
<svg version="1.1" xmlns="http://www.w3.org/2000/svg" width="16" height="16" viewBox="0 0 16 16">
<title>strapi</title>
<path fill="#2e7eea" d="M11.53 7.036c-0.048-0-0.093-0.013-0.131-0.036l0.001 0.001-1.018-0.596c-0.077-0.046-0.127-0.128-0.128-0.223v-1.177c0-0 0-0 0-0 0-0.095 0.051-0.178 0.127-0.223l0.001-0.001 1.023-0.591c0.037-0.022 0.081-0.034 0.128-0.034s0.092 0.013 0.13 0.035l-0.001-0.001 1.025 0.587c0.078 0.045 0.13 0.129 0.13 0.224v1.187c0 0 0 0 0 0 0 0.095-0.051 0.177-0.127 0.222l-0.001 0.001-1.023 0.59c-0.037 0.021-0.080 0.034-0.127 0.034-0.003 0-0.006-0-0.009-0l0 0zM10.77 6.034l0.764 0.447 0.765-0.442v-0.889l-0.767-0.439-0.767 0.443zM3.501 9.030c-0.002 0-0.004 0-0.006 0-0.142 0-0.258-0.116-0.258-0.258 0-0.097 0.054-0.182 0.134-0.226l0.001-0.001 0.896-0.516c0.041-0.029 0.092-0.046 0.147-0.046 0.142 0 0.258 0.116 0.258 0.258 0 0.102-0.059 0.191-0.146 0.232l-0.002 0.001-0.896 0.518c-0.036 0.023-0.081 0.036-0.128 0.037h-0zM3.307 10.591c-0.003 0-0.006 0-0.009 0-0.142 0-0.257-0.115-0.257-0.257 0-0.099 0.056-0.185 0.138-0.227l0.001-0.001 1.719-0.985c0.040-0.027 0.090-0.043 0.143-0.043 0.142 0 0.258 0.116 0.258 0.258 0 0.101-0.059 0.189-0.144 0.231l-0.002 0.001-1.723 0.989c-0.036 0.021-0.079 0.033-0.125 0.034h-0zM3.585 11.875c-0.001 0-0.002 0-0.003 0-0.142 0-0.258-0.116-0.258-0.258 0-0.097 0.054-0.182 0.133-0.226l0.001-0.001 2.078-1.163c0.040-0.027 0.089-0.043 0.143-0.043 0.142 0 0.258 0.116 0.258 0.258 0 0.103-0.060 0.191-0.147 0.233l-0.002 0.001-2.073 1.163c-0.037 0.023-0.082 0.036-0.13 0.036h-0zM8.637 1.327l-1.275-0.775-6.445 3.729 0.013 1.066 2.438 1.407 1.593-0.911 0.348-1.694c0.016-0.074 0.061-0.135 0.123-0.171l0.001-0.001 5.609-3.23c0.037-0.021 0.082-0.034 0.129-0.034s0.092 0.013 0.13 0.035l-0.001-0.001 4.185 2.423c0.078 0.045 0.129 0.127 0.129 0.222 0 0 0 0.001 0 0.001v-0l-0.008 4.845c-0 0.095-0.052 0.178-0.129 0.223l-0.001 0.001-5.549 3.187c-0.037 0.022-0.081 0.034-0.129 0.034-0.025 0-0.049-0.004-0.072-0.010l0.002 0-1.684-0.476-1.579 0.919v2.798l0.923 0.533 6.445-3.729v-1.499l0.513-0.335v1.981c0 0.001 0 0.001 0 0.002 0 0.094-0.051 0.176-0.126 0.221l-0.001 0.001-6.701 3.877c-0.037 0.022-0.081 0.035-0.129 0.035s-0.092-0.013-0.13-0.036l0.001 0.001-1.183-0.679c-0.078-0.045-0.129-0.128-0.129-0.223v-3.095c0-0.094 0.051-0.177 0.127-0.221l0.001-0.001 1.801-1.048c0.037-0.022 0.082-0.035 0.13-0.035 0.025 0 0.049 0.004 0.072 0.010l-0.002-0 1.688 0.477 5.33-3.058 0.008-4.547-3.929-2.273-5.38 3.101-0.351 1.685c-0.016 0.074-0.061 0.135-0.123 0.171l-0.001 0.001-1.818 1.046c-0.037 0.022-0.081 0.034-0.129 0.034s-0.092-0.013-0.13-0.035l0.001 0.001-2.693-1.551c-0.077-0.045-0.128-0.126-0.129-0.22v-0l-0.021-1.369c-0-0.001-0-0.002-0-0.003 0-0.094 0.051-0.177 0.127-0.221l0.001-0.001 6.708-3.877c0.038-0.023 0.083-0.036 0.131-0.036s0.094 0.013 0.133 0.037l-0.001-0.001 1.647 1.001z"></path>
</svg>
