<!-- Generated by IcoMoon.io -->
<svg version="1.1" xmlns="http://www.w3.org/2000/svg" width="16" height="16" viewBox="0 0 16 16">
<title>stripe</title>
<path fill="#008cdd" d="M9.317 6.1c-1.448-0.537-2.237-0.951-2.237-1.606 0-0.554 0.455-0.87 1.267-0.87 1.485 0 3.010 0.572 4.060 1.087l0.593-3.663c-0.833-0.399-2.536-1.049-4.891-1.049-1.665 0-3.051 0.436-4.041 1.248-1.029 0.85-1.565 2.080-1.565 3.564 0 2.693 1.645 3.84 4.317 4.813 1.723 0.613 2.297 1.049 2.297 1.722 0 0.653-0.56 1.030-1.569 1.030-1.25 0-3.31-0.614-4.66-1.406l-0.6 3.703c1.161 0.653 3.301 1.326 5.52 1.326 1.761 0 3.229-0.416 4.219-1.209 1.109-0.87 1.683-2.157 1.683-3.821 0-2.752-1.683-3.901-4.396-4.87z"></path>
</svg>
