<!-- Generated by IcoMoon.io -->
<svg version="1.1" xmlns="http://www.w3.org/2000/svg" width="16" height="16" viewBox="0 0 16 16">
<title>strongswan</title>
<path fill="#e00033" d="M13.043 3.404c-0.055 0-0.11 0.001-0.165 0.004l0.008-0c-0.049 0-0.099 0-0.147 0.005-0.337 0.074-0.715 0.164-0.959 0.423-0.368 0.421-0.295 1.127 0.135 1.481 0.59 0.527 1.147 1.105 1.527 1.805 0.416 0.643 0.487 1.506 0.107 2.183-0.42 0.855-1.258 1.453-2.173 1.677 0.253 0.665 0.291 1.533 0.291 1.533s0.771-0.213 1.093-0.358c0.363-0.175 0.745-0.338 1.033-0.629 0.289-0.197 0.5-0.483 0.69-0.775 0.213-0.341 0.408-0.699 0.575-1.063 0.105-0.328 0.231-0.653 0.249-1.003 0.017-0.139 0.026-0.299 0.026-0.462 0-0.377-0.051-0.742-0.145-1.088l0.007 0.029c-0.252-0.677-0.727-1.25-1.287-1.697 0.515-0.005 1.031 0.020 1.545-0.013 0.288 0 0.835-0.28 0.363-0.503-0.257-0.080-0.521 0.060-0.773 0.073-0.21-0.093-0.649-0.216-0.483-0.517 0.192-0.399-0.102-0.721-0.46-0.851-0.323-0.185-0.688-0.253-1.055-0.252zM8.764 3.844c-0.787 0.023-1.603 0.119-2.283 0.549-0.703 0.463-1.272 1.118-1.703 1.838 0.021-0.003 0.040-0.003 0.047 0.001 0.011 0.007 0.075 0.018 0.142 0.025 0.134 0.016 1.018 0.267 1.061 0.301 0.053 0.043 0.437 0.229 0.473 0.229 0.063 0 0.038-0.038-0.047-0.076-0.178-0.076-0.333-0.171-0.285-0.171 0.087 0 0.24 0.067 0.361 0.16 0.132 0.103 0.489 0.255 0.653 0.28 0.179 0.025 0.641 0.202 0.76 0.287 0.059 0.045 0.147 0.101 0.191 0.126 0.037 0.018 0.069 0.040 0.097 0.067l-0-0c0.025 0.039 0.052 0.025 0.040-0.020-0.007-0.022-0.045-0.060-0.087-0.083s-0.072-0.053-0.067-0.067c0.005-0.014-0.090-0.086-0.213-0.157-0.121-0.072-0.227-0.151-0.233-0.173-0.009-0.020-0.023-0.038-0.031-0.038-0.034-0.018-0.063-0.040-0.087-0.066l-0-0c-0.041-0.039-0.067-0.068-0.061-0.068 0.015 0 0.197 0.117 0.213 0.137 0.024 0.029 0.159 0.089 0.177 0.078 0.011-0.007 0.036 0.007 0.059 0.032 0.053 0.058 0.065 0.056 0.099-0.013l0.027-0.059 0.047 0.060c0.037 0.045 0.052 0.054 0.065 0.029 0.011-0.015 0.018-0.033 0.020-0.053l0-0.001c0-0.023-0.113-0.081-0.28-0.141-0.047-0.021-0.088-0.044-0.125-0.071l0.002 0.001c-0.085-0.067-0.007-0.058 0.161 0.020 0.079 0.034 0.202 0.081 0.276 0.101s0.167 0.052 0.202 0.067c0.197 0.090 0.256 0.119 0.341 0.175 0.040 0.030 0.087 0.052 0.139 0.062l0.002 0c0.025 0 0.052 0.015 0.059 0.033 0.009 0.018 0.023 0.029 0.031 0.023s0.053 0.013 0.099 0.045c0.045 0.029 0.081 0.047 0.081 0.038 0-0.007 0.016 0.009 0.036 0.036 0.027 0.038 0.043 0.045 0.063 0.029 0.020-0.018 0.040-0.011 0.070 0.020 0.022 0.025 0.053 0.043 0.071 0.041 0.027-0.007 0.231 0.197 0.231 0.231 0 0.007 0.043 0.043 0.096 0.078 0.052 0.036 0.101 0.074 0.11 0.088 0.009 0.011 0.027 0.022 0.039 0.022 0.011 0 0.069 0.036 0.13 0.079 0.058 0.043 0.112 0.076 0.119 0.079 0.029 0.002 0.22 0.148 0.28 0.215 0.083 0.089 0.039 0.065-0.125-0.067-0.222-0.182-0.357-0.24-0.357-0.155 0 0.022-0.015 0.047-0.033 0.056-0.031 0.011-0.031 0.018 0.002 0.053 0.045 0.050 0.094 0.059 0.053 0.009-0.033-0.040-0.002-0.043 0.047-0.005 0.020 0.016 0.031 0.038 0.027 0.053-0.007 0.016 0.007 0.023 0.034 0.014 0.045-0.011 0.161 0.079 0.161 0.123 0 0.011 0.139 0.112 0.31 0.22 0.303 0.193 0.447 0.3 0.357 0.269-0.021-0.007-0.046-0.011-0.071-0.013l-0.001-0c-0.016 0-0.061-0.025-0.097-0.057-0.063-0.051-0.157-0.058-0.125-0.009 0.007 0.011-0.007 0.020-0.029 0.020-0.027 0.002-0.016 0.013 0.033 0.040 0.054 0.029 0.065 0.047 0.047 0.065s-0.011 0.031 0.027 0.054c0.029 0.013 0.063 0.040 0.072 0.056 0.009 0.018 0.033 0.031 0.052 0.031s0.043 0.025 0.058 0.056c0.013 0.029 0.031 0.049 0.043 0.045 0.009-0.007 0.023 0.007 0.031 0.031 0.007 0.022 0.099 0.128 0.202 0.233 0.105 0.105 0.191 0.204 0.191 0.215 0 0.020-0.148 0.063-0.184 0.051-0.011-0.002-0.018 0.005-0.018 0.018s-0.020 0.013-0.049 0.002-0.051-0.027-0.049-0.038c0.002-0.031-0.040-0.067-0.097-0.081-0.073-0.020-0.063 0.011 0.036 0.101 0.083 0.074 0.085 0.081 0.040 0.092-0.004 0.001-0.009 0.002-0.015 0.002h-0c0.021 0.025 0.042 0.049 0.062 0.074 0.503-0.4 1.107-0.823 1.185-1.517 0.103-0.855-0.591-1.518-1.236-1.96-0.395-0.288-0.667-0.727-0.853-1.173-0.191-0.407-0.005-1.255-0.005-1.255s-0.945-0.075-1.39-0.083zM1.597 5.717c-0.053 0.005-0.119 0.010-0.184 0.011l-0.004 0c-0.155 0.009-0.16 0.009-0.149 0.063 0.007 0.036 0.040 0.070 0.103 0.099 0.090 0.045 0.651 0.202 0.931 0.263 0.080 0.018 0.155 0.040 0.168 0.051 0.043 0.033 0.166 0.047 0.175 0.020 0.007-0.017 0.043-0.011 0.11 0.021 0.081 0.038 0.294 0.097 0.391 0.105 0.013 0.002 0.029 0.020 0.038 0.043 0.009 0.020 0.047 0.045 0.085 0.053 0.038 0.007 0.065 0.025 0.060 0.039-0.011 0.031-0.132 0.018-0.155-0.016-0.013-0.020-0.022-0.020-0.036 0.002-0.015 0.023-0.042 0.023-0.134 0.002-0.065-0.015-0.117-0.035-0.117-0.047 0-0.036-0.043-0.016-0.056 0.027-0.009 0.025-0.025 0.040-0.036 0.031-0.011-0.007-0.016-0.020-0.009-0.029 0.005-0.011-0.071-0.061-0.175-0.11-0.146-0.074-0.271-0.11-0.608-0.184-0.111-0.028-0.258-0.056-0.407-0.077l-0.027-0.003c-0.007 0.007 0.027 0.031 0.077 0.058 0.072 0.040 0.076 0.045 0.025 0.033-0.099-0.020-0.074 0.007 0.063 0.068 0.087 0.038 0.123 0.065 0.115 0.087-0.013 0.034 0.031 0.086 0.065 0.079 0.047-0.009 0.074 0.005 0.081 0.040 0.011 0.063-0.073 0.097-0.177 0.072-0.026-0.007-0.077-0.018-0.13-0.028l-0.024-0.004c-0.037-0.005-0.139-0.025-0.224-0.040-0.069-0.015-0.153-0.028-0.239-0.036l-0.008-0.001c-0.069-0.004-0.133-0.013-0.196-0.028l0.008 0.002c-0.077-0.018-0.103-0.016-0.117 0.007-0.011 0.018-0.059 0.027-0.121 0.025-0.056-0.002-0.101 0.007-0.101 0.015 0 0.011 0.085 0.020 0.191 0.020 0.186 0 0.235 0.009 0.235 0.045 0 0.033-0.081 0.043-0.148 0.013-0.052-0.020-0.074-0.020-0.115 0.005-0.043 0.029-0.056 0.027-0.105-0.005-0.051-0.033-0.060-0.033-0.072-0.005-0.013 0.038-0.087 0.036-0.157-0.002-0.038-0.020-0.031-0.027 0.053-0.040 0.115-0.018 0.113-0.027-0.009-0.043-0.060-0.007-0.105 0-0.135 0.022-0.040 0.029-0.040 0.032-0.002 0.034 0.063 0 0.020 0.045-0.043 0.045-0.037-0.001-0.071-0.009-0.103-0.023l0.002 0.001c-0.034-0.018-0.043-0.018-0.038 0.005 0.007 0.031-0.074 0.035-0.151 0.007-0.025-0.011-0.038-0.011-0.029 0 0.009 0.009 0 0.029-0.020 0.045-0.029 0.023-0.023 0.027 0.051 0.027 0.049 0 0.125 0.007 0.173 0.016 0.049 0.009 0.083 0.007 0.083-0.007 0-0.029 0.157-0.016 0.245 0.022 0.049 0.023 0.069 0.043 0.060 0.070-0.007 0.031-0.001 0.036 0.027 0.020 0.027-0.015 0.049-0.011 0.077 0.013 0.033 0.029 0.049 0.031 0.105 0.007 0.038-0.015 0.078-0.017 0.096-0.007 0.016 0.009 0.101 0.020 0.187 0.023 0.181 0.005 0.249 0.018 0.293 0.053 0.018 0.013 0.054 0.030 0.083 0.032 0.087 0.011 0.159 0.029 0.227 0.053 0.085 0.034 0.467 0.119 0.477 0.108 0.005-0.005-0.038-0.023-0.093-0.038-0.057-0.016-0.101-0.038-0.101-0.052 0-0.022 0.065-0.013 0.231 0.039 0.095 0.029 0.11 0.031 0.121 0.002 0.007-0.018 0.025-0.033 0.043-0.033s0.031-0.016 0.031-0.037c0-0.018-0.009-0.027-0.023-0.020-0.011 0.007-0.022 0.002-0.022-0.009 0-0.013 0.015-0.025 0.033-0.025 0.020 0 0.033 0.020 0.033 0.053 0 0.045 0.013 0.054 0.093 0.067 0.051 0.009 0.099 0.009 0.105 0.002s-0.005-0.011-0.025-0.011-0.038-0.011-0.038-0.022c0-0.029-0.005-0.029 0.197 0.020 0.094 0.025 0.233 0.049 0.307 0.059 0.218 0.020 0.29 0.042 0.595 0.177 0.15 0.069 0.312 0.135 0.452 0.189 0.002-0.023 0.005-0.047 0.009-0.071-0.083-0.031-0.16-0.071-0.165-0.091-0.007-0.027 0.005-0.029 0.061-0.011l0.117 0.035c-0.011-0.077 0.271 0.013 0.303-0.075 0.019-0.051-0.461-0.188-0.443-0.248s0.258 0.041 0.31-0.017c0.040-0.045-0.121-0.141-0.080-0.194 0.027-0.035 0.275 0.158 0.312 0.123 0.047-0.045-0.275-0.225-0.24-0.288 0.027-0.048 0.19 0.077 0.248 0.038 0.091-0.060-0.027-0.029 0.044-0.113 0.013-0.016 0.034-0.021 0.060-0.021 0.005-0.011 0.011-0.021 0.016-0.031l0.039 0.001c0.047-0.002 0.059-0.007 0.034-0.020-0.015-0.008-0.033-0.014-0.052-0.018l-0.001-0c0.003-0.005 0.005-0.009 0.007-0.013l0.001-0.002c-0.087-0.062-0.235-0.159-0.384-0.254l-0.069-0.041-0.029-0.009c-0.133-0.043-0.286-0.070-0.445-0.077l-0.003-0c-0.222-0.011-0.222-0.011-0.101 0.018 0.292 0.067 0.651 0.187 0.651 0.213 0 0.018-0.015 0.025-0.038 0.018-0.267-0.081-0.92-0.26-0.947-0.26-0.023-0.001-0.044-0.009-0.060-0.023l0 0c-0.013-0.013-0.093-0.031-0.18-0.043-0.097-0.012-0.183-0.029-0.266-0.050l0.015 0.003c-0.051-0.017-0.099-0.025-0.105-0.019-0.025 0.023 0.016 0.081 0.063 0.095 0.039 0.009 0.043 0.017 0.023 0.038s-0.036 0.020-0.065-0.005c-0.020-0.018-0.042-0.029-0.047-0.025-0.020 0.018-0.139-0.025-0.151-0.054-0.009-0.025-0.029-0.029-0.060-0.020-0.027 0.009-0.054 0.005-0.063-0.009-0.020-0.031-0.339-0.092-0.339-0.065 0 0.029-0.141-0.002-0.161-0.036-0.020-0.027-0.063 0.020-0.063 0.069 0 0.043-0.045 0.036-0.161-0.027-0.039-0.024-0.084-0.042-0.133-0.051l-0.002-0zM4.267 6.034c0.215 0.065 0.251 0.070 0.251 0.038 0-0.019-0.233-0.097-0.421-0.143 0.055 0.033 0.112 0.068 0.17 0.105zM4.097 5.929c-0.149-0.089-0.274-0.157-0.319-0.163-0.052-0.003-0.1-0.012-0.146-0.026l0.005 0.001c-0.023-0.013-0.151 0.016-0.151 0.036 0 0.013 0.133 0.045 0.561 0.139zM4.72 6.329c0.051 0.034 0.091 0.061 0.099 0.067s0.029 0.021 0.055 0.037l0.103 0.005c0.162 0.007 0.287 0.029 0.449 0.077 0.243 0.073 0.28 0.080 0.28 0.047 0-0.020-0.277-0.112-0.471-0.155-0.266-0.059-0.418-0.093-0.495-0.113zM4.873 6.433c-0.107-0.005-0.093 0 0.003 0.023l0.063 0.015zM4.94 6.472l0.027 0.013c-0.031 0.018-0.193-0.073-0.291-0.073l-0.022 0.041c0.203 0.053 0.631 0.171 0.836 0.233 0.022 0.007 0.038 0 0.038-0.018 0-0.025-0.309-0.129-0.587-0.197zM3.4 5.839h-0.025c-0.020 0.001-0.036 0.004-0.043 0.009-0.031 0.018 0.099 0.045 0.211 0.045 0.047-0.002 0.059-0.007 0.033-0.020-0.052-0.021-0.112-0.033-0.175-0.034h-0zM1.331 5.937c-0.013 0-0.016 0.009-0.009 0.023 0.007 0.011 0.025 0.022 0.036 0.022 0.013 0 0.016-0.011 0.009-0.022-0.008-0.013-0.021-0.021-0.036-0.023l-0-0zM1.471 5.984h-0.017c-0.025 0-0.031 0.007-0.013 0.014 0.015 0.007 0.035 0.005 0.042-0.002 0.007-0.005 0.001-0.010-0.011-0.012zM5.093 6.075c0.003 0 0.006 0 0.009 0.002l-0.064 0.030-0.007-0.003c-0.039 0.028-0.079 0.067-0.099 0.067-0.022 0 0.045-0.089 0.099-0.067 0.022-0.017 0.044-0.029 0.062-0.029zM3.859 6.543c0.018 0 0.027 0.009 0.020 0.023-0.007 0.011-0.023 0.023-0.036 0.023-0.011 0-0.020-0.011-0.020-0.023 0-0.013 0.015-0.023 0.036-0.023zM0.551 6.769h-0.017c-0.025 0-0.031 0.007-0.013 0.013 0.016 0.007 0.036 0.005 0.043-0.001 0.007-0.005 0.001-0.010-0.012-0.012zM0.693 6.828l0.043 0.047c0.023 0.027 0.063 0.054 0.090 0.061 0.025 0.009 0.101 0.036 0.163 0.061 0.097 0.038 0.13 0.040 0.189 0.020 0.056-0.020 0.081-0.017 0.107 0.005 0.056 0.043 0.124 0.072 0.198 0.083l0.002 0c0.031 0 0.027-0.009-0.016-0.043l-0.053-0.040 0.093 0.007c0 0 0 0 0 0 0.047 0 0.091 0.012 0.13 0.034l-0.001-0.001c0.018 0.013 0.031 0.018 0.031 0.009s0.013-0.007 0.029 0.005c0.045 0.035 0.126 0.049 0.135 0.022 0.005-0.015 0.052-0.005 0.13 0.033 0.135 0.063 0.317 0.108 0.442 0.108 0.045 0 0.155 0.016 0.24 0.036 0.26 0.059 0.462 0.097 0.642 0.121 0.096 0.013 0.231 0.045 0.303 0.069 0.168 0.059 0.215 0.067 0.2 0.040-0.009-0.011 0.001-0.020 0.020-0.020 0.020 0 0.035 0.016 0.035 0.033 0 0.021 0.013 0.027 0.039 0.019s0.031-0.007 0.020 0.011c-0.013 0.025 0.011 0.038 0.060 0.029 0.009 0 0.016 0.007 0.016 0.018s0.025 0.025 0.056 0.029c0.008 0.002 0.016 0.003 0.025 0.003 0.005 0 0.010-0 0.015-0.001l-0.001 0-0.016-0.002 0.069-0.142c-0.047-0.027-0.12-0.057-0.203-0.080-0.086-0.027-0.159-0.057-0.229-0.092l0.009 0.004c-0.062-0.031-0.109-0.045-0.119-0.031-0.008 0.013-0.022 0.022-0.038 0.023h-0c-0.015 0-0.013-0.011 0.002-0.031 0.038-0.045-0.166-0.11-0.368-0.115-0.233-0.005-0.455-0.039-0.667-0.099l0.019 0.005c-0.141-0.038-0.227-0.049-0.235-0.033-0.009 0.013-0.099 0.005-0.26-0.029-0.135-0.027-0.292-0.056-0.348-0.063-0.051-0.005-0.096-0.014-0.141-0.026l0.006 0.001c-0.065-0.012-0.142-0.021-0.22-0.025l-0.003-0c-0.194-0.007-0.376-0.023-0.555-0.049l0.028 0.003zM4.129 7.482l0.002 0.001c-0.001 0.043 0 0.085 0.002 0.128-0.001 0-0.001 0-0.002 0-0.007 0-0.013-0.002-0.019-0.005l0 0c-0.011-0.007-0.020-0.002-0.020 0.009 0 0.005-0.007 0.009-0.016 0.011 0.095 0.013 0.189 0.020 0.296 0.023 0.202 0.005 0.406 0.069 0.368 0.114-0.016 0.020-0.018 0.031-0.002 0.031s0.030-0.009 0.038-0.022l0-0c0.009-0.013 0.056 0 0.119 0.031 0.059 0.029 0.157 0.069 0.22 0.087 0.141 0.041 0.255 0.099 0.255 0.129 0 0.011 0.016 0.015 0.034 0.009 0.018-0.009 0.033-0.002 0.033 0.011 0 0.031-0.107 0.076-0.137 0.056-0.011-0.007-0.020-0.002-0.020 0.009s-0.025 0.016-0.056 0.009c-0.031-0.005-0.056-0.018-0.056-0.029s-0.007-0.018-0.016-0.018c-0.049 0.009-0.073-0.005-0.060-0.029 0.011-0.017 0.004-0.020-0.020-0.011-0.025 0.009-0.039 0.002-0.039-0.018 0-0.018-0.016-0.033-0.036-0.033-0.018 0-0.029 0.009-0.020 0.020 0.015 0.027-0.031 0.018-0.2-0.041-0.085-0.028-0.187-0.052-0.292-0.068l-0.011-0.001c-0.145-0.020-0.305-0.049-0.497-0.090-0.2 0.424-0.39 0.853-0.565 1.288-0.907 1.659-2.159 1.861-2.159 1.861v1.651c1.011-0.003 2.023-0.006 3.033-0.011-0.16-1.67 0.917-3.357 2.502-3.909-0.046-0.022-0.084-0.045-0.121-0.071l0.003 0.002c-0.043-0.029-0.097-0.047-0.119-0.040-0.027 0.007-0.11-0.032-0.215-0.097-0.046-0.030-0.112-0.070-0.18-0.109l-0.024-0.013c-0.132-0.077-0.242-0.148-0.348-0.225l0.012 0.008c0.053 0 0.334 0.101 0.46 0.166 0.087 0.045 0.179 0.080 0.207 0.080 0.048 0.008 0.091 0.025 0.128 0.051l-0.001-0.001c0.045 0.029 0.146 0.092 0.224 0.141 0.037 0.023 0.071 0.045 0.097 0.063 0.093-0.031 0.189-0.060 0.284-0.083-0.053-0.024-0.163-0.077-0.278-0.132-0.114-0.057-0.258-0.119-0.406-0.174l-0.031-0.010c-0.126-0.043-0.234-0.090-0.336-0.147l0.010 0.005c-0.038-0.023-0.112-0.063-0.188-0.102l-0.041-0.019c-0.047-0.020-0.128-0.067-0.18-0.101-0.044-0.030-0.095-0.061-0.148-0.088l-0.008-0.004c-0.045-0.018-0.058-0.036-0.047-0.063 0.011-0.029 0.007-0.033-0.018-0.018-0.047 0.029-0.081 0.029-0.155 0.007l-0.137-0.040c-0.056-0.018-0.067-0.016-0.060 0.011 0.007 0.031 0.193 0.113 0.298 0.13 0.045 0.007 0.139 0.057 0.28 0.148 0.043 0.027 0.059 0.043 0.034 0.034-0.036-0.013-0.096-0.031-0.157-0.048l-0.023-0.005c-0.294-0.095-0.535-0.192-0.769-0.302l0.040 0.017c-0.305-0.135-0.377-0.157-0.594-0.177-0.059-0.007-0.105-0.015-0.152-0.024l0.014 0.002zM4.409 6.921l-0.029 0.056c0.043 0.020 0.121 0.023 0.131-0.002 0.005-0.013-0.023-0.031-0.061-0.038-0.016-0.004-0.029-0.009-0.042-0.016l0.001 0zM5.429 8.090c0.020 0 0.061 0.016 0.166 0.051 0.141 0.049 0.244 0.103 0.661 0.353 0.038 0.022 0.097 0.067 0.133 0.099l0.065 0.056h-0.060c-0.097 0-0.541-0.245-0.541-0.299 0-0.013-0.018-0.029-0.043-0.033-0.027-0.007-0.036 0-0.025 0.018 0.013 0.020 0.005 0.020-0.031 0.002-0.054-0.029-0.065-0.059-0.013-0.038 0.017 0.007 0.033 0.002 0.033-0.009 0-0.013-0.020-0.023-0.045-0.023s-0.045-0.011-0.045-0.022c0-0.013-0.013-0.023-0.027-0.023-0.045-0.011-0.085-0.027-0.122-0.046l0.003 0.001c-0.034-0.018-0.074-0.034-0.115-0.044l-0.004-0.001c-0.015 0-0.022-0.011-0.015-0.022 0.008-0.013 0.009-0.020 0.025-0.019z"></path>
</svg>
