<!-- Generated by IcoMoon.io -->
<svg version="1.1" xmlns="http://www.w3.org/2000/svg" width="16" height="16" viewBox="0 0 16 16">
<title>stubhub</title>
<path fill="#003168" d="M15.853 4.377l-15.713 1.055c-0.077 0.005-0.14 0.071-0.14 0.151v0.017l0.483 4.589v0.003c0.002 0.024 0.004 0.047 0.004 0.073 0 0.082-0.011 0.162-0.032 0.231l-0.226 0.73c-0.027 0.081 0.017 0.121 0.097 0.089l1.203-0.5c0.001 0 0.003 0 0.004-0.001h0.002c0.087-0.033 0.18-0.051 0.279-0.051h0.024l13.36 0.86c0.085 0 0.153-0.065 0.162-0.148l0.639-6.953v-0.013c0-0.073-0.060-0.132-0.133-0.132zM3.023 6.831h0.035c0.549 0 0.833 0.203 0.85 0.595v0.030h-0.344l-0.004-0.027c-0.018-0.173-0.182-0.257-0.502-0.257h-0.030c-0.32 0.005-0.478 0.101-0.478 0.289v0.053c0.003 0.037 0.020 0.068 0.047 0.091 0.035 0.032 0.078 0.058 0.127 0.073l0.803 0.269-0.005-0.003 0.007 0.003c0.12 0.038 0.227 0.109 0.307 0.204 0.072 0.092 0.117 0.209 0.117 0.335v0.078c0 0.191-0.093 0.36-0.24 0.463-0.157 0.12-0.383 0.179-0.665 0.179s-0.5-0.062-0.66-0.179v-0.001c-0.145-0.103-0.24-0.273-0.24-0.467v-0.047h0.344v0.033c0 0.097 0.042 0.17 0.14 0.231s0.239 0.091 0.419 0.091 0.327-0.032 0.425-0.091 0.147-0.133 0.147-0.231v-0.048c0-0.111-0.065-0.185-0.2-0.229l-0.798-0.268c-0.13-0.041-0.233-0.105-0.3-0.187-0.067-0.080-0.107-0.183-0.107-0.296v-0.056c0-0.411 0.269-0.623 0.807-0.631zM8.551 6.884h0.345v0.965h1.059v-0.965h0.347v2.313h-0.348v-1.013h-1.057v1.013h-0.345zM4.221 6.889h0.333v0.63h0.357v0.34h-0.357v0.593c0 0.139 0.037 0.247 0.112 0.325l-0.001 0.003c0.058 0.060 0.135 0.1 0.223 0.113h0.023v0.323l-0.031-0.003h-0.003c-0.177-0.011-0.336-0.087-0.453-0.205-0.135-0.14-0.203-0.328-0.203-0.556zM12.163 6.889h0.333v0.747c0.103-0.105 0.245-0.16 0.422-0.16 0.503 0 0.76 0.263 0.761 0.783v0.189c0 0.228-0.069 0.416-0.203 0.557s-0.324 0.211-0.557 0.211-0.419-0.070-0.553-0.21-0.204-0.329-0.204-0.556zM6.774 6.89h0.333v0.747c0.104-0.107 0.245-0.162 0.423-0.162 0.507 0 0.76 0.264 0.763 0.784v0.189c0 0.228-0.070 0.416-0.205 0.557s-0.322 0.211-0.555 0.211-0.418-0.070-0.553-0.21-0.205-0.329-0.205-0.556zM5.177 7.52h0.328v0.911c0 0.172 0.027 0.295 0.075 0.363 0.047 0.063 0.136 0.097 0.258 0.097h0.011c0.123 0 0.207-0.031 0.257-0.097s0.077-0.191 0.077-0.363h-0.003v-0.911h0.327v0.911c0 0.278-0.053 0.48-0.153 0.601-0.097 0.115-0.257 0.176-0.473 0.181h-0.077c-0.217-0.005-0.376-0.065-0.473-0.182-0.104-0.12-0.153-0.324-0.153-0.602zM10.562 7.52h0.328v0.911c0 0.172 0.027 0.295 0.077 0.363 0.047 0.063 0.133 0.097 0.256 0.097h0.017c0.12 0 0.204-0.033 0.252-0.097 0.050-0.069 0.077-0.191 0.077-0.363h-0.003v-0.911h0.327v0.911c0 0.278-0.055 0.485-0.153 0.601s-0.256 0.176-0.473 0.181h-0.080c-0.216-0.005-0.375-0.065-0.473-0.182-0.103-0.12-0.152-0.324-0.152-0.602zM7.53 7.801c-0.138 0-0.247 0.033-0.315 0.104s-0.107 0.19-0.107 0.353v0.192c0 0.139 0.041 0.244 0.113 0.324s0.173 0.121 0.309 0.121c0.135 0 0.238-0.037 0.313-0.12s0.113-0.187 0.113-0.325v-0.189c0-0.165-0.037-0.282-0.109-0.353s-0.177-0.107-0.319-0.107zM12.919 7.801c-0.138 0-0.247 0.033-0.315 0.104s-0.107 0.19-0.107 0.353v0.192c0 0.139 0.040 0.244 0.111 0.324s0.178 0.121 0.311 0.121 0.237-0.040 0.313-0.12 0.113-0.19 0.113-0.325v-0.189c0-0.165-0.037-0.282-0.109-0.353s-0.178-0.107-0.318-0.107z"></path>
</svg>
