<!-- Generated by IcoMoon.io -->
<svg version="1.1" xmlns="http://www.w3.org/2000/svg" width="16" height="16" viewBox="0 0 16 16">
<title>styled-components</title>
<path fill="#db7093" d="M10.809 4.508l-0.050 0.261c-0.077 0.494-0.049 0.635 0.163 0.819l0.205 0.169-0.212 0.945c-0.127 0.564-0.282 1.037-0.381 1.192-0.085 0.134-0.183 0.331-0.205 0.437-0.035 0.127-0.155 0.254-0.339 0.367-0.162 0.092-0.48 0.339-0.705 0.537-0.18 0.162-0.304 0.261-0.371 0.304l-0.22 0.174c-0.071 0.113-0.111 0.205-0.126 0.274-0.015 0.071-0.007 0.119 0.016 0.153 0.022 0.033 0.060 0.057 0.112 0.071 0.044 0.011 0.094 0.017 0.145 0.017 0.015 0 0.030-0.001 0.045-0.002l-0.002 0c0.154-0.011 0.298-0.037 0.435-0.078l-0.014 0.004c0.047-0.013 0.083-0.025 0.115-0.035 0.049-0.061 0.163-0.175 0.365-0.375 0.536-0.529 0.741-0.818 0.529-0.74-0.078 0.028-0.043-0.043 0.091-0.184 0.283-0.275 0.445-0.691 0.783-1.996 0.268-1.030 0.268-1.045 0.465-1.045 0.093 0 0.355 0.016 0.355 0.016v-1.285h-0.601zM13.369 6.618c-0.043 0-0.113 0.064-0.155 0.135-0.077 0.127 0.014 0.204 1.178 0.931 0.691 0.438 1.249 0.811 1.235 0.84-0.014 0.021-0.579 0.388-1.255 0.811-1.228 0.761-1.235 0.769-1.122 0.924 0.141 0.183 0 0.247 1.594-0.748l1.157-0.741v-0.557l-1.291-0.797c-0.698-0.437-1.305-0.79-1.34-0.797zM2.645 6.696c-0.035 0-0.642 0.36-1.34 0.79l-1.305 0.797v0.557l1.298 0.811c0.72 0.444 1.327 0.811 1.355 0.811s0.085-0.064 0.141-0.141c0.085-0.134 0.013-0.191-1.179-0.945-1.135-0.713-1.255-0.811-1.142-0.889 0.071-0.049 0.607-0.381 1.185-0.741 1.319-0.811 1.249-0.755 1.143-0.925-0.042-0.070-0.113-0.133-0.156-0.127zM8.435 6.711c-0.195-0.001-0.613 0.295-1.867 1.319-0.054 0.129-0.059 0.217-0.034 0.275 0.016 0.039 0.045 0.067 0.086 0.087s0.092 0.032 0.149 0.037c0.114 0.010 0.249-0.008 0.357-0.029l0.073-0.017c0.025-0.033 0.057-0.060 0.094-0.078l0.002-0.001c0.077-0.043 0.402-0.339 0.727-0.656 0.571-0.579 0.705-0.84 0.473-0.925-0.018-0.007-0.038-0.011-0.059-0.011-0.001 0-0.001 0-0.002 0h0zM9.899 7.113c-0.171 0.005-0.48 0.203-1.009 0.625-0.265 0.215-0.433 0.331-0.523 0.355l-0.349 0.276c-0.131 0.24-0.151 0.389-0.116 0.471 0.018 0.041 0.050 0.073 0.091 0.089l0.001 0c0.047 0.019 0.101 0.030 0.158 0.030 0.001 0 0.002 0 0.002 0h-0c0.138-0.002 0.271-0.022 0.397-0.059l-0.010 0.003c0.082-0.022 0.147-0.043 0.21-0.067l-0.016 0.005 0.019-0.008 0.035-0.019c0.067-0.086 0.22-0.248 0.412-0.435 0.607-0.585 0.917-1.001 0.853-1.157-0.029-0.075-0.078-0.113-0.155-0.111zM8.283 7.833c-0.049 0.005-0.16 0.091-0.359 0.265-0.288 0.255-0.602 0.401-0.711 0.336-0.008 0.002-0.033 0.008-0.059 0.013l-0.017 0.003c-0.111 0.022-0.249 0.040-0.372 0.030-0.062-0.004-0.119-0.019-0.171-0.043l0.003 0.001c-0.050-0.023-0.089-0.063-0.111-0.112l-0.001-0.001c-0.025-0.060-0.025-0.135 0.003-0.23l-0.433 0.356-0.981 0.811v1.315l3.213-2.531c-0-0.002-0-0.004-0-0.006 0-0.027 0.004-0.053 0.011-0.078l-0 0.002c0.025-0.089 0.023-0.135-0.015-0.131zM9.665 8.259c-0.049 0-0.13 0.069-0.26 0.207-0.177 0.189-0.455 0.371-0.602 0.409l-0.023 0.012c-0.014 0.007-0.039 0.016-0.063 0.025l-0.010 0.003c-0.040 0.013-0.092 0.029-0.152 0.045-0.12 0.033-0.269 0.063-0.403 0.059-0.066-0-0.129-0.013-0.187-0.037l0.003 0.001c-0.055-0.023-0.098-0.066-0.122-0.119l-0.001-0.001c-0.039-0.093-0.023-0.223 0.061-0.407l-2.835 2.233v0.803h1.245l2.641-2.075c0.069-0.076 0.172-0.18 0.311-0.31 0.373-0.346 0.458-0.465 0.458-0.642 0-0.137-0.015-0.207-0.064-0.206zM10.294 9.559l-0.226 0.225c-0.127 0.12-0.353 0.268-0.507 0.331l-0.031 0.013-0.002 0.003-0.007 0.007c-0.006 0.005-0.009 0.005-0.013 0.007-0.046 0.018-0.108 0.040-0.172 0.058l-0.016 0.004c-0.127 0.039-0.275 0.066-0.427 0.076l-0.006 0c-0.013 0.001-0.029 0.001-0.044 0.001-0.058 0-0.114-0.007-0.167-0.020l0.005 0.001c-0.060-0.014-0.111-0.048-0.145-0.095l-0.001-0.001c-0.032-0.049-0.041-0.115-0.023-0.197 0.016-0.063 0.038-0.119 0.065-0.171l-0.002 0.004-2.131 1.684h2.835l0.339-0.388c0.465-0.543 0.677-0.931 0.677-1.263z"></path>
</svg>
