<!-- Generated by IcoMoon.io -->
<svg version="1.1" xmlns="http://www.w3.org/2000/svg" width="16" height="16" viewBox="0 0 16 16">
<title>styleshare</title>
<path d="M9.835 4.813c-0.002-0-0.004-0-0.006-0-0.751 0-1.36 0.609-1.36 1.36 0 0.002 0 0.004 0 0.006v-0c0 0.303 0.097 0.593 0.276 0.827l1.752 2.441c0.207 0.358 0.083 0.828-0.276 1.048-0.359 0.207-0.827 0.083-1.048-0.276-0.066-0.111-0.105-0.245-0.105-0.387 0-0.27 0.139-0.508 0.35-0.645l0.003-0.002 0.028-0.014c0.137-0.097 0.179-0.276 0.083-0.414-0.055-0.081-0.145-0.135-0.248-0.138l-0.001-0c-0.051 0.001-0.099 0.016-0.139 0.043l0.001-0.001-0.027 0.014c-0.634 0.4-0.841 1.241-0.441 1.875s1.241 0.843 1.875 0.441c0.635-0.4 0.842-1.241 0.441-1.875-0.027-0.042-0.055-0.069-0.069-0.111l-1.751-2.455c-0.061-0.104-0.097-0.23-0.097-0.364 0-0.008 0-0.016 0-0.024l-0 0.001c0-0.427 0.345-0.759 0.759-0.759s0.759 0.345 0.759 0.759c0 0.263-0.138 0.497-0.359 0.649-0.014 0-0.014 0.014-0.027 0.014-0.138 0.097-0.18 0.276-0.083 0.414 0.055 0.083 0.152 0.124 0.248 0.138 0.051-0.001 0.099-0.016 0.139-0.042l-0.001 0.001 0.027-0.014c0.635-0.4 0.842-1.241 0.441-1.876-0.243-0.383-0.664-0.634-1.144-0.634h-0zM9.835 10.207c0 0 0 0 0.001 0 0.213 0 0.385-0.173 0.385-0.385 0-0 0-0.001 0-0.001v0c0-0.213-0.173-0.386-0.386-0.386s-0.386 0.173-0.386 0.386v0c0 0.221 0.179 0.387 0.386 0.387zM9.835 5.793c-0 0-0 0-0.001 0-0.213 0-0.385 0.173-0.385 0.385 0 0 0 0.001 0 0.001v-0c0 0.213 0.173 0.386 0.386 0.386s0.386-0.173 0.386-0.386v0c-0.013-0.221-0.179-0.387-0.386-0.387zM8 0c-4.414 0-8 3.586-8 8s3.586 8 8 8 8-3.586 8-8-3.586-8-8-8zM6.179 11.571c-0.003 0-0.006 0-0.009 0-0.96 0-1.739-0.777-1.742-1.736v-0c-0-0.002-0-0.005-0-0.007 0-0.717 0.432-1.334 1.051-1.603l0.011-0.004-0.731-1.021c-0.565-0.787-0.386-1.876 0.386-2.428s1.876-0.387 2.427 0.386c0.552 0.773 0.387 1.876-0.386 2.428-0.1 0.073-0.213 0.138-0.333 0.189l-0.011 0.004 0.759 1.077c0.187 0.273 0.299 0.61 0.299 0.973 0 0.597-0.302 1.124-0.762 1.435l-0.006 0.004c-0.265 0.189-0.595 0.302-0.952 0.303h-0zM11.283 8.855c0.539 0.799 0.331 1.875-0.469 2.413s-1.876 0.332-2.414-0.469c-0.187-0.273-0.299-0.61-0.299-0.974 0-0.598 0.302-1.125 0.762-1.436l0.006-0.004c0.097-0.069 0.193-0.11 0.29-0.165l-0.745-1.021c-0.207-0.284-0.331-0.641-0.331-1.026 0-0.579 0.28-1.092 0.712-1.412l0.005-0.003c0.284-0.207 0.64-0.331 1.026-0.331 0.579 0 1.093 0.28 1.412 0.712l0.003 0.005c0.207 0.284 0.331 0.641 0.331 1.026 0 0.579-0.28 1.092-0.712 1.412l-0.005 0.003c-0.1 0.073-0.213 0.138-0.334 0.189l-0.011 0.004zM5.503 6.551c-0.061-0.105-0.097-0.23-0.097-0.364 0-0.008 0-0.015 0-0.023l-0 0.001c0-0.427 0.345-0.759 0.759-0.759 0.428 0 0.759 0.345 0.759 0.759 0 0.263-0.138 0.511-0.359 0.649l-0.027 0.014c-0.138 0.097-0.179 0.276-0.083 0.414 0.055 0.083 0.152 0.124 0.249 0.138 0.051-0.001 0.099-0.016 0.139-0.042l-0.001 0.001 0.027-0.014c0.394-0.245 0.653-0.676 0.653-1.167 0-0.262-0.073-0.507-0.201-0.715l0.003 0.006c-0.245-0.395-0.676-0.653-1.168-0.653-0.262 0-0.506 0.073-0.714 0.201l0.006-0.003c-0.392 0.248-0.649 0.679-0.649 1.17 0 0.261 0.072 0.504 0.198 0.712l-0.003-0.006c0.028 0.042 0.055 0.083 0.083 0.111l1.751 2.442c0.069 0.111 0.097 0.249 0.097 0.385 0 0.429-0.331 0.759-0.759 0.773-0.001 0-0.002 0-0.003 0-0.421 0-0.763-0.339-0.769-0.759v-0.001c0-0.262 0.138-0.511 0.359-0.649l0.028-0.013c0.138-0.097 0.179-0.276 0.083-0.414-0.055-0.081-0.145-0.135-0.248-0.138l-0.001-0c-0.051 0.001-0.099 0.016-0.139 0.043l0.001-0.001-0.028 0.014c-0.635 0.399-0.841 1.242-0.441 1.876s1.241 0.841 1.876 0.441c0.4-0.249 0.648-0.69 0.648-1.159 0-0.303-0.097-0.593-0.276-0.828zM6.179 10.207c0.207 0 0.386-0.165 0.386-0.387-0.009-0.207-0.178-0.371-0.386-0.371s-0.377 0.164-0.386 0.37l-0 0.001c0 0.221 0.166 0.387 0.387 0.387zM6.179 5.793c-0.001-0-0.002-0-0.003-0-0.208 0-0.377 0.166-0.383 0.372l-0 0.001c0 0.207 0.166 0.387 0.373 0.387s0.387-0.166 0.387-0.373c0-0.004 0-0.008 0-0.012 0-0.206-0.167-0.374-0.373-0.375h-0z"></path>
</svg>
