<!-- Generated by IcoMoon.io -->
<svg version="1.1" xmlns="http://www.w3.org/2000/svg" width="16" height="16" viewBox="0 0 16 16">
<title>stylus</title>
<path d="M9.115 5.907c-0.297-0.236-1.132 0.159-1.368 0.745-0.297 0.745-0.737 1.831-1.168 2.307-0.455 0.501-0.501 0.114-0.455-0.175 0.105-0.68 0.769-2.255 1.131-2.699-0.135-0.199-1.013-0.171-1.624 0.777-0.228 0.358-0.749 1.551-1.327 2.491-0.127 0.203-0.285 0.061-0.163-0.415 0.138-0.55 0.545-2.059 1.070-3.248 1.376-0.273 2.837-0.464 3.956-0.468 0.151-0.041 0.252-0.175 0-0.183-0.965-0.033-2.413 0.081-3.769 0.253 0.261-0.521 0.541-0.936 0.826-1.111-0.309-0.195-0.936-0.118-1.294 0.411-0.156 0.234-0.312 0.506-0.45 0.788l-0.018 0.042c-0.993 0.155-1.844 0.329-2.275 0.493-0.447 0.171-0.399 0.712-0.126 0.61 0.566-0.211 1.331-0.431 2.181-0.627-0.541 1.221-0.965 2.662-1.066 3.248-0.253 1.425 0.631 1.416 1.062 0.855 0.468-0.615 1.445-2.776 1.595-3.003 0.045-0.077 0.106-0.037 0.073 0.032-1.091 2.177-0.997 3.020-0.114 2.833 0.399-0.085 1.087-0.769 1.266-1.123 0.037-0.085 0.114-0.077 0.097-0.041-0.692 1.795-1.571 3.248-2.161 3.704-0.537 0.411-0.937-0.481 0.964-1.759 0.281-0.191 0.151-0.451-0.167-0.362-0.981 0.155-3.789 1.046-5.022 1.901-0.094 0.065-0.179 0.118-0.175 0.253 0.004 0.077 0.139 0.049 0.204 0.008 1.595-0.957 2.901-1.331 4.399-1.645 0.020 0.009 0.045 0.013 0.065 0.005 0.069-0.017 0.065 0.020 0.021 0.049-0.060 0.036-0.135 0.075-0.212 0.111l-0.016 0.007c-1.009 0.395-1.62 1.265-1.404 1.709 0.183 0.383 1.172 0.244 1.64-0.008 1.148-0.623 1.982-1.844 2.552-3.529 0.497-1.494 1.123-3.187 1.27-3.236zM2.464 10.73c0.415-0.497 0.464-1.009 0.143-1.962-0.203-0.602-0.541-1.066-0.293-1.441 0.265-0.399 0.827-0.012 0.359 0.521l0.093 0.065c0.562 0.065 0.839-0.704 0.419-0.924-1.107-0.578-2.076 0.533-1.649 1.819 0.183 0.545 0.44 1.123 0.232 1.583-0.179 0.395-0.525 0.627-0.757 0.635-0.485 0.025-0.163-1.087 0.395-1.363 0.049-0.024 0.118-0.057 0.053-0.138-0.687-0.077-1.091 0.24-1.323 0.683-0.675 1.29 1.282 1.767 2.328 0.521zM15.785 9.354c-1.868-0.244-5.897 0.081-7.675 0.554-0.529 0.138-0.383 0.419-0.114 0.366 0.004 0 0.118-0.029 0.122-0.029 1.461-0.285 5.006-0.533 7.073-0.138 0.249 0.045 0.993-0.7 0.594-0.753zM9.635 9.135c0.521-0.261 1.294-1.873 1.803-2.755 0.037-0.065 0.102-0.013 0.065 0.032-1.286 2.214-0.741 2.471-0.232 2.438 0.68-0.041 1.307-1.017 1.445-1.237 0.057-0.085 0.090-0.016 0.057 0.045-0.033 0.101-0.151 0.281-0.261 0.525-0.155 0.346 0.008 0.48 0.143 0.541 0.211 0.102 0.789 0.037 0.879-0.317-0.577-0.012 0.806-2.739 0.949-2.906-0.387-0.224-0.985 0.021-1.258 0.557-0.581 1.152-1.070 2.080-1.375 2.096-0.594 0.033 0.684-2.568 0.891-2.649-0.126-0.183-0.936-0.106-1.388 0.594-0.163 0.253-1.155 2.011-1.4 2.3-0.431 0.513-0.464 0.073-0.342-0.44 0.041-0.175 0.11-0.399 0.2-0.647 0.285-0.643 0.59-0.847 0.777-1.055 1.257-1.395 1.978-2.527 1.693-2.971-0.252-0.395-1.095-0.22-1.636 0.594-0.997 1.494-1.917 3.541-2.035 4.477-0.114 0.936 0.565 1.005 1.025 0.777zM14.552 6.937c0.159 0.391 0.399 0.777 0.256 1.119-0.118 0.293-0.273 0.415-0.443 0.443-0.24 0.041-0.175-0.712 0.236-0.936 0.037-0.020 0.089-0.118 0.041-0.175-0.521-0.029-0.814 0.219-0.973 0.549-0.46 0.965 1.042 1.229 1.779 0.281 0.293-0.379 0.305-0.753 0.024-1.433-0.179-0.431-0.451-0.753-0.281-1.038 0.183-0.301 0.623-0.041 0.293 0.363l0.073 0.041c0.427 0.024 0.602-0.545 0.277-0.688-0.859-0.366-1.661 0.557-1.282 1.473zM10.165 6.395c0.045-0.102 0.073-0.13 0.151-0.301 0.447-0.985 1.009-2.023 1.396-2.507 0.24-0.253 0.577 0.089-0.033 1.025-0.369 0.567-0.767 1.061-1.21 1.511l0.001-0.001v0.004c-0.114 0.126-0.216 0.232-0.261 0.293-0.033 0.041-0.069 0.033-0.045-0.025z"></path>
</svg>
