<!-- Generated by IcoMoon.io -->
<svg version="1.1" xmlns="http://www.w3.org/2000/svg" width="16" height="16" viewBox="0 0 16 16">
<title>sublimetext</title>
<path fill="#ff9800" d="M14.16 8.040c-0.006-0.197-0.13-0.364-0.303-0.432l-0.003-0.001-4.92-1.56 4.913-1.56c0.18-0.070 0.307-0.239 0.313-0.439l0-0.001v-3.793c0.002-0.011 0.003-0.023 0.003-0.035 0-0.129-0.104-0.233-0.233-0.233-0.030 0-0.058 0.006-0.084 0.016l0.002-0.001-11.693 3.72c-0.182 0.060-0.311 0.228-0.313 0.426v3.8c0 0.194 0.128 0.357 0.304 0.413l0.003 0.001 4.973 1.58-4.973 1.573c-0.178 0.072-0.302 0.241-0.307 0.439l-0 0.001v3.793c-0.001 0.009-0.002 0.019-0.002 0.029 0 0.125 0.101 0.227 0.227 0.227 0.029 0 0.058-0.006 0.083-0.016l-0.002 0.001 11.707-3.713c0.179-0.056 0.306-0.22 0.307-0.413v-0z"></path>
</svg>
