<!-- Generated by IcoMoon.io -->
<svg version="1.1" xmlns="http://www.w3.org/2000/svg" width="16" height="16" viewBox="0 0 16 16">
<title>subversion</title>
<path fill="#809cc9" d="M16 13.835v-4.204c-2.19 0.864-4.908 1.704-8.153 2.524-3.023 0.763-5.639 1.313-7.847 1.65v0.030zM0 9.385v3.422c2.492-0.367 4.744-0.804 6.753-1.311 1.975-0.499 3.497-0.983 4.565-1.453 1.068-0.469 1.56-0.865 1.48-1.187-0.071-0.28-0.564-0.423-1.478-0.43-0.469 0.007-1.113 0.040-1.936 0.1-0.824 0.060-1.849 0.156-3.073 0.284-1.9 0.203-3.477 0.358-4.733 0.463-0.597 0.050-1.123 0.088-1.577 0.113zM0.69 11.352c0.040 0 0.076 0.017 0.107 0.047s0.047 0.069 0.047 0.111c0 0.044-0.016 0.080-0.047 0.112-0.031 0.030-0.069 0.044-0.109 0.044-0.021 0-0.043-0.004-0.061-0.012-0.020-0.008-0.036-0.020-0.050-0.033-0.015-0.009-0.027-0.029-0.033-0.049 0-0.010-0.011-0.030-0.011-0.060 0-0.040 0.020-0.080 0.050-0.11s0.070-0.040 0.108-0.049zM1.23 11.352c0.042 0 0.078 0.017 0.11 0.047 0.030 0.031 0.044 0.069 0.044 0.111 0 0.044-0.015 0.080-0.045 0.112-0.040 0.030-0.071 0.044-0.12 0.044-0.020 0-0.040-0.004-0.060-0.012s-0.040-0.020-0.051-0.033c-0.020-0.009-0.030-0.029-0.040-0.049-0.010-0.010-0.010-0.030-0.010-0.060 0-0.040 0.009-0.080 0.040-0.11s0.069-0.040 0.109-0.040zM0.69 10.345c0.040 0 0.076 0.015 0.107 0.047 0.031 0.030 0.047 0.067 0.047 0.11s-0.016 0.080-0.047 0.11-0.067 0.047-0.109 0.047c-0.043 0-0.081-0.016-0.111-0.047s-0.047-0.068-0.047-0.11c0-0.045 0.011-0.082 0.040-0.112s0.071-0.045 0.121-0.045zM1.23 10.345c0.042 0 0.078 0.015 0.11 0.047 0.030 0.030 0.044 0.067 0.044 0.11s-0.015 0.080-0.045 0.11c-0.040 0.030-0.071 0.047-0.12 0.047s-0.080-0.016-0.111-0.047c-0.030-0.030-0.050-0.068-0.050-0.11 0-0.045 0.009-0.082 0.040-0.112s0.069-0.045 0.109-0.045zM16 3.065v3.209c-1.090 0.067-2.453 0.185-4.092 0.356-1.66 0.18-3.013 0.32-4.062 0.41-1.051 0.1-1.809 0.151-2.273 0.16-0.909 0.020-1.393-0.1-1.463-0.369-0.070-0.3 0.47-0.7 1.63-1.18 1.16-0.49 2.7-0.98 4.6-1.46 1.67-0.42 3.56-0.79 5.66-1.1zM15.43 2.165c-2.17 0.403-4.418 0.9-6.743 1.487-3.629 0.917-6.525 1.829-8.687 2.731v-4.217z"></path>
</svg>
