<!-- Generated by IcoMoon.io -->
<svg version="1.1" xmlns="http://www.w3.org/2000/svg" width="16" height="16" viewBox="0 0 16 16">
<title>superuser</title>
<path fill="#2eace3" d="M13.909 9.653c-0.987 0.281-1.659 0.858-1.659 1.811v2.721c0 2.032-1.938 1.809-4.345 1.809h-0.37c-0.15 0-0.239-0.056-0.239-0.187v-0.932c0-0.129 0.080-0.186 0.23-0.186h0.3c1.44 0 2.45 0.317 2.45-0.84v-2.611c0-0.799 0.56-1.92 1.681-2.329 0.079-0.021 0.090-0.057 0.090-0.094s-0.020-0.093-0.090-0.13c-1.020-0.467-1.681-1.229-1.681-2.145v-2.95c0-1.138-1-2.275-2.439-2.275h-0.301c-0.15 0-0.22-0.056-0.22-0.186v-0.929c0-0.13 0.1-0.187 0.25-0.187h0.371c2.4 0 4.36 1.715 4.36 3.747v2.48c0 0.939 0.669 1.48 1.68 1.829 0.371 0.11 0.579 0.131 0.579 0.431v0.78c0.020 0.171-0.159 0.25-0.609 0.38zM5.395 15.98h-3.727c-0.15 0-0.224-0.037-0.224-0.168v-15.626c0-0.109 0.069-0.186 0.22-0.186h3.689c0.151 0 0.24 0.056 0.24 0.186v0.97c0 0.13-0.081 0.168-0.231 0.168h-1.648c-0.203 0-0.28 0.074-0.28 0.205v12.94c0 0.131 0.077 0.18 0.245 0.18h1.678c0.151 0 0.242 0.051 0.242 0.17v0.989c0.019 0.111-0.056 0.17-0.205 0.17zM8.645 7.291h-0.99c-0.241 0-0.428-0.187-0.428-0.393v-0.895c0-0.223 0.205-0.39 0.428-0.39h0.99c0.239 0 0.428 0.185 0.428 0.39v0.895c0 0.224-0.207 0.392-0.43 0.392z"></path>
</svg>
