<!-- Generated by IcoMoon.io -->
<svg version="1.1" xmlns="http://www.w3.org/2000/svg" width="16" height="16" viewBox="0 0 16 16">
<title>svelte</title>
<path fill="#ff3e00" d="M13.787 2.113c-0.89-1.279-2.352-2.106-4.008-2.106-0.933 0-1.806 0.263-2.546 0.718l0.021-0.012-3.733 2.373c-1.001 0.634-1.71 1.651-1.923 2.841l-0.004 0.026c-0.046 0.241-0.073 0.519-0.073 0.802 0 0.763 0.192 1.481 0.531 2.108l-0.012-0.024c-0.308 0.455-0.53 0.995-0.63 1.576l-0.003 0.024c-0.045 0.24-0.070 0.516-0.070 0.798 0 0.991 0.316 1.908 0.853 2.656l-0.009-0.014c0.894 1.281 2.36 2.109 4.020 2.109 0.928 0 1.796-0.259 2.535-0.708l-0.022 0.012 3.733-2.373c0.998-0.635 1.705-1.652 1.916-2.841l0.004-0.026c0.046-0.24 0.072-0.515 0.072-0.797 0-0.762-0.192-1.48-0.53-2.106l0.012 0.024c0.444-0.688 0.708-1.529 0.708-2.431 0-0.986-0.315-1.899-0.851-2.642l0.009 0.013zM6.88 14.087c-0.223 0.060-0.479 0.095-0.743 0.095-1.003 0-1.89-0.5-2.424-1.265l-0.006-0.010c-0.433-0.6-0.593-1.34-0.467-2.073l0.073-0.353 0.067-0.22 0.2 0.133c0.44 0.333 0.933 0.573 1.46 0.733l0.133 0.047-0.013 0.133c-0.013 0.187 0.040 0.393 0.147 0.553 0.22 0.313 0.6 0.467 0.967 0.367 0.080-0.027 0.16-0.053 0.227-0.093l3.72-2.373c0.187-0.12 0.307-0.3 0.353-0.513 0.040-0.22-0.013-0.447-0.133-0.627-0.22-0.307-0.6-0.447-0.967-0.353-0.080 0.027-0.167 0.060-0.233 0.1l-1.407 0.893c-0.431 0.26-0.952 0.414-1.508 0.414-1 0-1.884-0.497-2.419-1.258l-0.006-0.009c-0.319-0.441-0.51-0.993-0.51-1.59 0-0.171 0.016-0.338 0.046-0.501l-0.003 0.017c0.135-0.737 0.569-1.352 1.169-1.727l0.011-0.006 3.713-2.373c0.233-0.147 0.487-0.253 0.76-0.333 1.2-0.313 2.467 0.16 3.173 1.173 0.319 0.443 0.509 0.996 0.509 1.593 0 0.298-0.047 0.584-0.135 0.853l0.005-0.019-0.067 0.22-0.193-0.133c-0.42-0.309-0.907-0.559-1.432-0.724l-0.035-0.009-0.133-0.040 0.013-0.133c0.013-0.193-0.040-0.4-0.147-0.56-0.22-0.313-0.6-0.447-0.967-0.353-0.080 0.027-0.16 0.053-0.227 0.093l-3.727 2.393c-0.187 0.127-0.307 0.3-0.347 0.52-0.040 0.213 0.013 0.447 0.133 0.62 0.213 0.313 0.6 0.447 0.96 0.353 0.087-0.027 0.167-0.053 0.233-0.093l1.42-0.907c0.233-0.153 0.493-0.267 0.76-0.34 1.207-0.313 2.467 0.16 3.173 1.18 0.433 0.6 0.6 1.34 0.48 2.067-0.132 0.735-0.561 1.35-1.156 1.727l-0.011 0.006-3.72 2.367c-0.222 0.137-0.479 0.253-0.75 0.334l-0.023 0.006z"></path>
</svg>
