<!-- Generated by IcoMoon.io -->
<svg version="1.1" xmlns="http://www.w3.org/2000/svg" width="16" height="16" viewBox="0 0 16 16">
<title>svgo</title>
<path fill="#14b9ff" d="M7.435 0l-0.18 0.987c-0.429 0.045-0.847 0.129-1.251 0.249l-0.543-0.843-1.045 0.433 0.212 0.979c-0.375 0.205-0.729 0.443-1.060 0.709l-0.825-0.571-0.8 0.8 0.571 0.825c-0.267 0.33-0.505 0.684-0.709 1.059l-0.98-0.212-0.433 1.045 0.843 0.543c-0.111 0.359-0.198 0.783-0.245 1.22l-0.003 0.031-0.987 0.18v1.131l0.987 0.18c0.046 0.429 0.129 0.847 0.249 1.251l-0.843 0.543 0.433 1.045 0.979-0.212c0.205 0.375 0.443 0.729 0.709 1.060l-0.571 0.825 0.8 0.8 0.825-0.571c0.33 0.267 0.684 0.505 1.059 0.709l-0.212 0.98 1.045 0.433 0.543-0.843c0.403 0.119 0.821 0.202 1.251 0.247l0.179 0.987h1.131l0.18-0.987c0.467-0.050 0.892-0.137 1.3-0.261l-0.050 0.013 0.543 0.842 1.045-0.433-0.212-0.979c0.403-0.222 0.75-0.457 1.073-0.72l-0.013 0.010 0.825 0.571 0.8-0.8-0.571-0.825c0.267-0.33 0.505-0.684 0.709-1.059l0.98 0.212 0.433-1.045-0.843-0.543c0.119-0.403 0.203-0.821 0.247-1.251l0.987-0.179v-1.131l-0.987-0.18c-0.050-0.468-0.138-0.892-0.262-1.3l0.013 0.050 0.843-0.543-0.433-1.045-0.979 0.212c-0.222-0.403-0.457-0.75-0.72-1.073l0.010 0.013 0.571-0.825-0.8-0.8-0.825 0.571c-0.33-0.267-0.684-0.505-1.059-0.709l0.212-0.98-1.045-0.433-0.543 0.843c-0.359-0.11-0.784-0.198-1.22-0.245l-0.031-0.003-0.179-0.987zM8 1.87c3.386 0 6.131 2.745 6.131 6.131s-2.745 6.131-6.131 6.131v0c-3.386 0-6.131-2.745-6.131-6.131s2.745-6.131 6.131-6.131v0zM8 2.515c-3.029 0-5.485 2.456-5.485 5.485s2.456 5.485 5.485 5.485v0c3.029 0 5.485-2.456 5.485-5.485s-2.456-5.485-5.485-5.485v0zM7.683 3.837c0 0 0 0 0 0 0.237 0 0.429 0.192 0.429 0.429v0c-0 0.103-0.036 0.197-0.097 0.271l0.001-0.001 0.909 0.917c0.092-0.077 0.212-0.124 0.343-0.125h0c0.055 0 0.107 0.008 0.157 0.024l-0.004-0.001 0.255-0.645c-0.137-0.074-0.229-0.216-0.229-0.379v-0c0-0.237 0.192-0.429 0.429-0.429 0 0 0 0 0 0v0c0 0 0 0 0 0 0.237 0 0.429 0.192 0.429 0.429v0c0 0.237-0.192 0.429-0.429 0.429v0c-0.040-0-0.079-0.006-0.116-0.017l0.003 0.001-0.256 0.647c0.177 0.090 0.296 0.27 0.297 0.479v0c0 0.296-0.24 0.537-0.537 0.537v0c-0.149-0-0.283-0.061-0.38-0.159l-0-0-0.809 0.675c0.137 0.178 0.22 0.404 0.221 0.65v0c-0 0.301-0.124 0.573-0.324 0.768l-0 0 0.583 0.653c0.127-0.101 0.289-0.162 0.466-0.162v0c0.414 0 0.75 0.336 0.751 0.751v0c-0 0.063-0.008 0.123-0.023 0.181l0.001-0.005 1.037 0.349c0.087-0.184 0.272-0.31 0.486-0.31h0c0.296 0 0.536 0.241 0.536 0.537 0 0 0 0 0 0v0c-0 0.296-0.24 0.536-0.536 0.536h-0c-0.296 0-0.536-0.24-0.537-0.536v-0c0-0.049 0.007-0.097 0.020-0.142l-0.001 0.004-1.033-0.347c-0.11 0.285-0.382 0.484-0.701 0.485h-0c-0.128-0-0.249-0.032-0.355-0.089l0.004 0.002-0.464 0.859c0.146 0.097 0.241 0.261 0.241 0.447v0c0 0 0 0 0 0.001 0 0.296-0.24 0.536-0.536 0.537h-0c-0.296 0-0.537-0.24-0.537-0.537v0c0-0.296 0.24-0.537 0.537-0.537v0c0.077 0 0.15 0.016 0.216 0.045l-0.003-0.001 0.467-0.863c-0.195-0.137-0.321-0.361-0.321-0.615v-0c0-0.205 0.082-0.391 0.215-0.526l-0 0-0.584-0.654c-0.183 0.151-0.42 0.242-0.678 0.243h-0c-0.219-0-0.423-0.066-0.593-0.179l0.004 0.002-0.52 0.721c0.168 0.139 0.275 0.347 0.275 0.58v0c0 0.415-0.336 0.751-0.751 0.751v0c-0.415 0-0.751-0.336-0.751-0.751v0c0-0.415 0.337-0.751 0.751-0.751 0 0 0 0 0 0v0c0.148 0 0.287 0.043 0.403 0.118l-0.003-0.002 0.52-0.722c-0.249-0.198-0.408-0.501-0.409-0.841v-0c0.001-0.087 0.011-0.172 0.032-0.253l-0.002 0.007-1.12-0.315c-0.079 0.204-0.273 0.346-0.5 0.347h-0c-0.296 0-0.536-0.24-0.537-0.536v-0c0-0.296 0.24-0.536 0.536-0.537h0c0.296 0 0.537 0.24 0.537 0.537v0c0 0 0 0 0 0 0 0.035-0.003 0.070-0.010 0.103l0.001-0.003 1.118 0.314c0.145-0.432 0.546-0.737 1.019-0.737h0c0.314 0.001 0.595 0.136 0.791 0.35l0.001 0.001 0.809-0.675c-0.060-0.085-0.096-0.191-0.097-0.306v-0c0-0 0-0 0-0 0-0.132 0.048-0.253 0.127-0.347l-0.001 0.001-0.908-0.917c-0.073 0.058-0.166 0.093-0.267 0.093-0 0-0 0-0 0v0c-0.237 0-0.429-0.192-0.429-0.429v0c0-0.237 0.192-0.429 0.429-0.429 0 0 0 0 0 0v0z"></path>
</svg>
