<!-- Generated by IcoMoon.io -->
<svg version="1.1" xmlns="http://www.w3.org/2000/svg" width="16" height="16" viewBox="0 0 16 16">
<title>swarm</title>
<path fill="#ffa633" d="M8.245 5.837l0.003-0.003c-0.020-0.039-0.092-0.2-0.107-0.243v-0.001c-2.255-4.607-7.265-4.443-8.055-2.383-0.607 1.582 2.048 5.351 8.159 2.63zM6.6 12.821c-0.397-0.896-0.615-1.867-0.638-2.84-0.643 0.993-1.127 1.991-1.451 2.736-0.015 0.030-0.253 0.62-0.321 0.8-0.087 0.22 0.030 0.489 0.255 0.569 0.182 0.069 0.777 0.28 0.813 0.3 0.76 0.249 1.811 0.56 2.971 0.751-0.69-0.661-1.24-1.451-1.63-2.331zM9.26 5.411c3.453-1.537 2.971-4.207 2.077-4.55-1.203-0.462-3.387 1.316-2.137 4.413 0.011 0.022 0.060 0.113 0.059 0.137zM15.609 8.791v-0.005c-0.524-1.176-1.484-2.016-2.598-2.416-0.112-0.042-0.227-0.060-0.34-0.060-0.58 0-1.138 0.482-1.19 1.084-0.089 1.004 0.11 2.027 0.55 3.011 0.431 0.973 1.044 1.793 1.833 2.397 0.207 0.16 0.456 0.24 0.709 0.24 0.451 0 0.903-0.24 1.082-0.67 0.459-1.1 0.481-2.391-0.046-3.581zM12.988 13.945h-0.003c-0.963-0.74-1.729-1.733-2.273-2.953-0.551-1.24-0.776-2.492-0.669-3.724 0.030-0.344 0.129-0.675 0.292-0.977l-0.091 0.023c-0.509 0.127-1 0.347-1.437 0.635-0.633 0.417-1.192 1.033-1.433 1.764-0.065 0.199-0.113 0.413-0.129 0.62-0.077 0.987 0.084 2.007 0.513 2.975 0.417 0.936 1.041 1.716 1.791 2.31 0.456 0.365 1.28 0.593 1.953 0.593 0.633 0 1.258-0.18 1.82-0.469 0.175-0.091 0.56-0.329 0.585-0.349-0.333-0.081-0.649-0.23-0.92-0.44z"></path>
</svg>
