<!-- Generated by IcoMoon.io -->
<svg version="1.1" xmlns="http://www.w3.org/2000/svg" width="16" height="16" viewBox="0 0 16 16">
<title>swift</title>
<path fill="#fa7343" d="M14.656 10.899c0.037-0.075 0.037-0.149 0.075-0.224 0.897-3.515-1.234-7.627-4.898-9.795 1.608 2.169 2.243 4.748 1.683 7.066-0.037 0.187-0.112 0.411-0.187 0.598-0.118-0.066-0.216-0.128-0.311-0.194l0.011 0.007c0 0-3.626-2.243-7.513-6.169-0.113-0.112 2.093 3.14 4.561 5.72-1.159-0.673-4.449-3.028-6.505-4.935 0.225 0.411 0.561 0.823 0.897 1.234 1.72 2.206 3.963 4.897 6.655 6.953-1.907 1.16-4.561 1.234-7.253 0-0.673-0.299-1.233-0.673-1.869-1.121 1.121 1.757 2.879 3.365 4.973 4.225 2.505 1.085 5.047 1.010 6.879 0h0.038c0.075-0.037 0.149-0.075 0.224-0.149 0.897-0.449 2.655-0.935 3.627 0.935 0.261 0.523 0.747-1.907-1.085-4.15z"></path>
</svg>
