<!-- Generated by IcoMoon.io -->
<svg version="1.1" xmlns="http://www.w3.org/2000/svg" width="16" height="16" viewBox="0 0 16 16">
<title>symantec</title>
<path fill="#fdb511" d="M15.251 0v0.492h0.492v-0.492zM15.251 0.492h-0.492v0.493h0.492zM15.251 0.985v0.492h0.492v-0.492zM14.759 0.985h-0.985v0.492h-0.492v0.983h-0.492v0.493h-0.986v0.483c-1.204-0.99-2.762-1.59-4.459-1.59-0.004 0-0.009 0-0.013 0h0.001c-3.909 0-7.077 3.167-7.077 7.077 0 3.909 3.167 7.077 7.077 7.077s7.077-3.168 7.077-7.077c0-1.707-0.603-3.271-1.608-4.493h0.48v-0.492h0.493v-0.985h0.491v-0.493h0.493v-0.492h-0.493v-0.492h0.493zM12.791 2.46v-0.492h-0.493v0.492zM7.333 4.103c0.002 0 0.004 0 0.007 0 1.001 0 1.93 0.306 2.698 0.831l-0.017-0.011h-0.187v0.493h-0.491c-1.285 1.606-1.609 2.311-2.121 3.609-0.581-1.175-1.274-1.985-2.474-2.522l-0.013-0.004c-0.218-0.055-0.329-0.083-0.479 0.127-0.153 0.215-0.061 0.409 0.122 0.637 0.159 0.196 0.287 0.349 0.417 0.5l-0.026-0.031c0.365 0.431 0.73 0.859 1.005 1.357 0.272 0.492 0.585 1.181 0.828 1.716 0.149 0.327 0.271 0.596 0.34 0.725 0.147 0.271 0.501 0.389 0.637 0.389 0.657-0.078 0.72-0.388 0.828-0.919l0.038-0.176c0.224-1.049 0.514-2.135 1.883-3.439v-0.491h0.492v-0.493h0.493v-0.197c0.526 0.758 0.84 1.698 0.84 2.711 0 0.003 0 0.006-0 0.009v-0c0 2.66-2.16 4.82-4.82 4.82s-4.8-2.16-4.8-4.82 2.14-4.82 4.8-4.821z"></path>
</svg>
