<!-- Generated by IcoMoon.io -->
<svg version="1.1" xmlns="http://www.w3.org/2000/svg" width="16" height="16" viewBox="0 0 16 16">
<title>symfony</title>
<path d="M16 8c0 4.419-3.581 8-8 8s-8-3.581-8-8 3.581-8 8-8 8 3.581 8 8zM11.498 2.959c-0.813 0.028-1.522 0.477-2.050 1.096-0.585 0.68-0.974 1.486-1.254 2.307-0.502-0.409-0.888-0.943-1.693-1.174-0.644-0.198-1.343-0.070-1.875 0.343-0.273 0.213-0.473 0.505-0.574 0.836-0.24 0.784 0.254 1.483 0.479 1.733l0.491 0.527c0.1 0.103 0.346 0.373 0.226 0.759-0.129 0.421-0.634 0.691-1.155 0.533-0.232-0.071-0.565-0.244-0.489-0.487 0.030-0.1 0.101-0.175 0.14-0.261 0.035-0.073 0.051-0.129 0.063-0.161 0.094-0.31-0.035-0.713-0.367-0.815-0.31-0.095-0.626-0.020-0.75 0.377-0.139 0.453 0.078 1.275 1.24 1.633 1.36 0.419 2.51-0.323 2.673-1.288 0.102-0.605-0.17-1.055-0.671-1.631l-0.408-0.451c-0.247-0.247-0.331-0.668-0.076-0.99 0.216-0.273 0.523-0.389 1.026-0.253 0.735 0.2 1.063 0.709 1.608 1.12-0.225 0.74-0.373 1.482-0.506 2.148l-0.082 0.497c-0.39 2.047-0.689 3.171-1.463 3.817-0.156 0.111-0.38 0.277-0.715 0.289-0.177 0.003-0.235-0.117-0.237-0.171-0.004-0.123 0.1-0.181 0.17-0.235 0.103-0.055 0.26-0.149 0.248-0.449-0.011-0.355-0.304-0.663-0.729-0.649-0.318 0.011-0.802 0.31-0.784 0.857 0.019 0.567 0.546 0.99 1.341 0.963 0.425-0.014 1.375-0.187 2.309-1.299 1.089-1.274 1.393-2.734 1.623-3.804l0.255-1.411c0.142 0.016 0.294 0.028 0.46 0.032 1.355 0.029 2.033-0.673 2.043-1.184 0.007-0.309-0.203-0.614-0.496-0.607-0.257 0.006-0.479 0.185-0.537 0.436-0.063 0.285 0.431 0.542 0.045 0.793-0.273 0.177-0.764 0.301-1.456 0.2l0.125-0.695c0.257-1.317 0.573-2.938 1.774-2.978 0.088-0.005 0.408 0.004 0.415 0.215 0.002 0.070-0.015 0.089-0.098 0.25-0.077 0.103-0.116 0.23-0.112 0.358 0.011 0.336 0.267 0.557 0.638 0.544 0.495-0.015 0.637-0.499 0.63-0.746-0.021-0.583-0.635-0.949-1.447-0.924z"></path>
</svg>
