<!-- Generated by IcoMoon.io -->
<svg version="1.1" xmlns="http://www.w3.org/2000/svg" width="16" height="16" viewBox="0 0 16 16">
<title>synology</title>
<path fill="#b6b5b6" d="M11.93 7.951c0.001-0.374 0.098-0.726 0.268-1.031l-0.006 0.011-0.005 0.011c0.165-0.313 0.41-0.565 0.708-0.734l0.009-0.005 0.009-0.005c0.291-0.16 0.638-0.255 1.008-0.255 0.003 0 0.005 0 0.008 0h0.031q0.897 0 1.467 0.581t0.573 1.469c0 0.597-0.193 1.090-0.578 1.484s-0.871 0.591-1.455 0.591c-0.377 0-0.733-0.091-1.047-0.253l0.013 0.006c-0.318-0.158-0.573-0.402-0.739-0.703l-0.004-0.009-0.005-0.009q-0.253-0.472-0.254-1.151zM12.992 8.007c0 0.394 0.092 0.695 0.28 0.899 0.168 0.194 0.414 0.316 0.689 0.316s0.52-0.121 0.687-0.313l0.001-0.001 0.001-0.001c0.183-0.205 0.275-0.509 0.275-0.905s-0.092-0.689-0.275-0.895c-0.168-0.192-0.415-0.313-0.689-0.313s-0.52 0.121-0.687 0.312l-0.001 0.001-0.001 0.001c-0.187 0.204-0.28 0.505-0.28 0.899zM11.924 9.967h-1.037v-2.010c0-0.423-0.021-0.696-0.067-0.823-0.042-0.12-0.118-0.219-0.217-0.289l-0.004-0.003c-0.097-0.065-0.217-0.104-0.345-0.104-0.001 0-0.001 0-0.002 0h-0.025c-0.18 0-0.347 0.056-0.485 0.152l0.003-0.002c-0.137 0.091-0.241 0.223-0.294 0.379l-0.002 0.005-0.001 0.005c-0.055 0.165-0.081 0.464-0.081 0.906v1.782h-1.033v-3.949h0.959v0.578c0.345-0.437 0.778-0.653 1.301-0.653h0.014c0.223 0 0.437 0.045 0.631 0.126l-0.011-0.004c0.174 0.070 0.32 0.179 0.432 0.317l0.001 0.002c0.094 0.123 0.165 0.269 0.203 0.429l0.001 0.008c0.038 0.185 0.059 0.398 0.059 0.616l-0.001 0.090v-0.005zM4.275 6.019h1.103l0.941 2.803 0.917-2.803h1.074l-1.378 3.795-0.253 0.692c-0.076 0.206-0.166 0.384-0.273 0.549l0.007-0.011 0.007-0.011c-0.076 0.117-0.17 0.215-0.278 0.293l-0.003 0.002-0.003 0.002c-0.113 0.075-0.245 0.135-0.385 0.173l-0.009 0.002c-0.155 0.043-0.333 0.067-0.516 0.067h-0.016c-0.216-0.001-0.425-0.026-0.626-0.074l0.019 0.004 0.019 0.003-0.086-0.819c0.132 0.031 0.284 0.049 0.439 0.051h0.001c0.24 0 0.419-0.071 0.533-0.212 0.118-0.152 0.208-0.332 0.261-0.527l0.002-0.011 0.003-0.011zM0 8.193l1.061-0.099q0.098 0.535 0.391 0.787t0.795 0.25c0.352 0 0.618-0.075 0.798-0.223s0.267-0.324 0.267-0.521v-0.016c0-0 0-0.001 0-0.001 0-0.12-0.042-0.23-0.112-0.316l0.001 0.001 0.001 0.001c-0.075-0.088-0.206-0.168-0.393-0.231-0.129-0.049-0.421-0.127-0.875-0.243-0.588-0.144-0.997-0.324-1.233-0.536-0.306-0.264-0.499-0.653-0.499-1.086 0-0 0-0.001 0-0.001v0-0.019c0-0.287 0.088-0.554 0.239-0.775l-0.003 0.005c0.164-0.244 0.391-0.434 0.659-0.547l0.010-0.004 0.010-0.003c0.295-0.123 0.649-0.187 1.068-0.187q1.019 0 1.536 0.451c0.344 0.305 0.523 0.705 0.541 1.206l-1.099 0.037c-0.049-0.275-0.146-0.476-0.301-0.599s-0.386-0.184-0.689-0.184c-0.317 0-0.567 0.065-0.745 0.199-0.106 0.072-0.174 0.191-0.174 0.327 0 0 0 0 0 0v-0 0.008c0 0.134 0.063 0.253 0.161 0.329l0.001 0.001c0.137 0.119 0.473 0.24 1.005 0.364s0.925 0.258 1.179 0.393c0.249 0.131 0.452 0.32 0.595 0.55l0.004 0.007c0.143 0.23 0.217 0.524 0.217 0.87 0 0.326-0.097 0.629-0.264 0.883l0.004-0.006c-0.176 0.272-0.427 0.483-0.723 0.605l-0.011 0.004c-0.317 0.129-0.71 0.199-1.181 0.199-0.686 0-1.213-0.161-1.582-0.481s-0.586-0.785-0.655-1.394z"></path>
</svg>
