<!-- Generated by IcoMoon.io -->
<svg version="1.1" xmlns="http://www.w3.org/2000/svg" width="16" height="16" viewBox="0 0 16 16">
<title>t-mobile</title>
<path fill="#e20074" d="M9.148 0.769h0.387c2.493 0 3.655 1.305 4.141 4.783l0.773-0.033-0.103-5.519h-12.689l-0.125 5.519 0.743 0.033c0.129-1.304 0.283-2.007 0.618-2.709 0.592-1.304 1.828-2.073 3.347-2.073h0.541v12.007c0 1.271-0.077 1.673-0.386 1.973-0.257 0.234-0.772 0.335-1.365 0.335h-0.592v0.803h7.054v-0.803h-0.595c-0.589 0-1.107-0.101-1.361-0.335-0.309-0.301-0.387-0.703-0.387-1.973v-12.007zM1.333 7.25h3.253v3.247h-3.253zM11.288 7.25h3.253v3.247h-3.253z"></path>
</svg>
