<!-- Generated by IcoMoon.io -->
<svg version="1.1" xmlns="http://www.w3.org/2000/svg" width="16" height="16" viewBox="0 0 16 16">
<title>tableau</title>
<path fill="#e97627" d="M7.769 0.116v1.469h-1.315v0.387h1.315v1.469h0.464v-1.469h1.313v-0.387h-1.313v-1.469h-0.232zM11.789 1.624l-0.001 1.082v1.082h-1.971v0.618h1.971v2.125h0.695l0.007-1.055 0.013-1.051 0.977-0.013 0.973-0.007v-0.618h-1.969v-2.164h-0.348zM3.518 1.664v2.127h-1.991v0.617h1.991v2.127h0.657v-2.127h2.009v-0.617h-2.009v-2.126h-0.328zM7.575 5.177v2.395h-2.202v0.792h2.203v2.397h0.853v-2.397h2.206v-0.792h-2.207v-2.395h-0.425zM14.056 6.211v1.481h-1.341v0.541h1.341v1.507h0.591v-1.507h1.353v-0.541h-1.353v-1.48h-0.281zM1.315 6.298v1.449h-1.315v0.414h1.315v1.463h0.445v-1.463h1.333v-0.413h-1.354v-1.451h-0.212zM11.788 9.309v2.169h-2.011v0.618h2.011v2.145h0.715v-2.144h1.991v-0.619h-1.991v-2.169h-0.355zM3.479 9.314v2.164h-1.971v0.619h1.971v2.126h0.734v-2.126h1.97v-0.619h-1.97v-2.165h-0.367zM7.69 12.366l0.001 0.735v0.733h-1.314v0.541h1.314v1.508h0.619l0.008-0.746 0.011-0.762h1.313v-0.541h-1.333v-1.469h-0.31z"></path>
</svg>
