<!-- Generated by IcoMoon.io -->
<svg version="1.1" xmlns="http://www.w3.org/2000/svg" width="16" height="16" viewBox="0 0 16 16">
<title>tails</title>
<path fill="#56347c" d="M14.237 7.441v2.653c0 0.081-0.054 0.103-0.121 0.047l-1.355-1.121c-0.068-0.062-0.113-0.148-0.121-0.245l-0-0.001v-0.334l-0.423-0.344c-0.453-0.369-0.817-1.118-0.817-1.667s0.366-0.691 0.817-0.319l0.423 0.344v-0.335c0-0.081 0.054-0.103 0.121-0.047l1.355 1.121c0.067 0.055 0.121 0.165 0.121 0.247zM12.242 6.598c-0.239-0.197-0.432-0.121-0.432 0.169s0.193 0.685 0.432 0.882l0.399 0.324v-1.051zM14.135 13.289l0.009-0.007c0.009-0.008 0.017-0.015 0.024-0.024l0-0 0.003-0.003c0.007-0.009 0.014-0.019 0.021-0.030l0.001-0.001 0.005-0.009c0.004-0.008 0.009-0.017 0.012-0.027l0-0.001 0.003-0.007c0.004-0.010 0.007-0.023 0.009-0.035l0-0.001v-0.009l0.002-0.018 0.002-0.101-3.482-2.853 0.015-8.607-0.101-0.076-0.023-0.013c-0.005-0.003-0.009-0.007-0.015-0.009l-0.020-0.007c-0.007-0.003-0.013-0.006-0.020-0.007l-0.017-0.003c-0.009-0.001-0.017-0.003-0.026-0.003h-0.003l-0.015 0.001c-0.009 0-0.017 0.001-0.025 0.002l-0.020 0.005c-0.007 0.002-0.014 0.003-0.021 0.007-0.007 0.002-0.013 0.005-0.019 0.008l-0.019 0.010c-0.004 0.002-0.007 0.005-0.010 0.007l0-0c-0.008 0.003-0.016 0.005-0.023 0.009l-2.296 1.151 0.48 0.38 0.018 6.711-3.497-2.88-0.002-3.494-0.002-3.135-0.001-0.007c-0-0.009-0.001-0.017-0.003-0.024l0 0.001c-0.001-0.007-0.001-0.013-0.003-0.020l-0.005-0.020c-0.003-0.007-0.005-0.015-0.010-0.022l-0.001-0.006-0.007-0.010c-0.004-0.007-0.008-0.014-0.013-0.021l-0.012-0.015c-0.014-0.016-0.031-0.029-0.048-0.041l-0.001-0.001c-0.005-0.003-0.010-0.006-0.016-0.009l-0.001-0.001c-0.007-0.003-0.013-0.007-0.020-0.009-0.011-0.004-0.025-0.008-0.039-0.010l-0.001-0-0.023-0.003-0.013-0.001-0.006 0.001c-0.009 0-0.017 0.001-0.025 0.003l0.001-0c-0.007 0.001-0.013 0.001-0.020 0.003s-0.013 0.004-0.019 0.006c-0.009 0.003-0.016 0.005-0.023 0.008l0.001-0-0.006 0.003-2.893 1.45c-0.020 0.011-0.037 0.025-0.051 0.041l-0 0c-0.014 0.015-0.026 0.032-0.035 0.051l-0.001 0.001c-0.005 0.011-0.011 0.024-0.015 0.038l-0 0.002c-0.004 0.013-0.006 0.028-0.007 0.043l-0 0c-0.001 0.004-0.002 0.009-0.001 0.013l0.004 6.739v0.013l0.001 0.005c0 0.010 0.002 0.020 0.004 0.029l0.001 0.006 0.003 0.007c0.004 0.014 0.008 0.026 0.014 0.037l-0.001-0.001v0.001h0.001c0.006 0.012 0.013 0.023 0.021 0.033l0.005 0.007 0.004 0.004c0.006 0.008 0.013 0.015 0.020 0.021l0 0 0.004 0.004c0.003 0.002 0.005 0.003 0.007 0.005 0.001 0 0.002 0.002 0.003 0.003l3.133 2.606-0.071 1.782v0.025l0.003 0.017 0.001 0.010c0 0.003 0.001 0.007 0.003 0.010 0 0.003 0.001 0.005 0.002 0.007l0.001 0.003 0.002 0.007c0.003 0.009 0.007 0.019 0.011 0.027v0.001c0.006 0.012 0.013 0.023 0.021 0.033l-0-0 0.004 0.005 0.003 0.003c0.008 0.009 0.016 0.018 0.024 0.026l0 0 0.003 0.002 0.002 0.001 0.002 0.003 3.545 2.808c0.067 0.052 0.157 0.061 0.233 0.023l5.328-2.668c0.011-0.006 0.021-0.013 0.030-0.020l-0 0zM3.65 7.323l-1.104-0.853v0.733l0.563 0.39-0.928 0.465-0.004-6.251 1.451-0.727 0.015 1.595-1.031-0.824v0.733l1.036 0.823 0.016 0.788-1.063-0.851v0.733l1.069 0.85-0.004 0.855-1.049-0.838v0.733l1.053 0.837 0.007 0.791zM5.939 11.349l-3.539-2.91 2.445-1.225 3.539 2.91zM4.082 0.855l0.489-0.245 0.053 6.227-0.489 0.244zM5.745 5.597l-0.001-1.060 0.873 0.683 0.001 1.061zM6.617 4.379l-0.873-0.683v-1.061l0.873 0.683zM7.345 3.877c0.338 0.431 0.684 1.271 0.684 2.049s-0.346 1.041-0.684 0.908z"></path>
</svg>
