<!-- Generated by IcoMoon.io -->
<svg version="1.1" xmlns="http://www.w3.org/2000/svg" width="16" height="16" viewBox="0 0 16 16">
<title>tailwindcss</title>
<path fill="#38b2ac" d="M8.001 3.2c-2.133 0-3.467 1.067-4 3.2 0.8-1.067 1.733-1.467 2.8-1.2 0.609 0.152 1.043 0.593 1.525 1.083 0.785 0.796 1.692 1.717 3.675 1.717 2.133 0 3.467-1.067 4-3.2-0.8 1.067-1.733 1.467-2.8 1.2-0.609-0.152-1.043-0.593-1.525-1.083-0.784-0.796-1.691-1.717-3.675-1.717zM4.001 8c-2.133 0-3.467 1.067-4 3.2 0.8-1.067 1.733-1.467 2.8-1.2 0.609 0.152 1.043 0.593 1.525 1.083 0.785 0.796 1.692 1.717 3.675 1.717 2.133 0 3.467-1.067 4-3.2-0.8 1.067-1.733 1.467-2.8 1.2-0.609-0.152-1.043-0.593-1.525-1.083-0.784-0.796-1.691-1.717-3.675-1.717z"></path>
</svg>
