<!-- Generated by IcoMoon.io -->
<svg version="1.1" xmlns="http://www.w3.org/2000/svg" width="16" height="16" viewBox="0 0 16 16">
<title>tapas</title>
<path fill="#ffce00" d="M5.113 1.040c0.188-0.089 0.361-0.225 0.54-0.342 0.169-0.109 0.36-0.291 0.596-0.22 0.069 0.197-0.108 0.335-0.221 0.441-0.359 0.341-0.769 0.65-1.147 0.971-1.016 0.867-2.279 1.906-3.558 2.926l-0.324 0.249c-0.119 0.097-0.252 0.194-0.389 0.285l-0.019 0.011c-0.122 0.079-0.304 0.239-0.473 0.11 0.047-0.225 0.204-0.378 0.341-0.519 0.142-0.144 0.276-0.297 0.419-0.44-0.165-0.285-0.315-0.547-0.441-0.849-0.124-0.299-0.252-0.647-0.253-1.036-0.001-0.739 0.423-1.362 0.893-1.787 0.482-0.435 1.126-0.797 1.875-0.837 1.057-0.056 1.669 0.469 2.161 1.036zM8.455 13.090v0.132c-0.185 0.007-0.355-0.007-0.53-0.011v-0.132c0.185-0.005 0.357 0.004 0.53 0.011zM7.395 13.090v0.132c-0.188-0.008-0.347 0.014-0.528 0.012v-0.132c0.122-0.008 0.265-0.013 0.408-0.013 0.042 0 0.084 0 0.126 0.001l-0.006-0zM9.513 13.123c-0.005 0.045 0.009 0.105-0.011 0.133-0.167-0.013-0.345-0.016-0.519-0.022v-0.132c0.183 0.002 0.361 0.006 0.53 0.021zM6.337 13.123v0.133c-0.183 0.001-0.341 0.026-0.53 0.021v-0.131c0.187 0.001 0.344-0.024 0.53-0.023zM10.041 13.146c0.17 0.022 0.363 0.019 0.529 0.043 0.009 0.056-0.009 0.086-0.010 0.133-0.17-0.022-0.363-0.020-0.529-0.045 0.007-0.031 0.012-0.067 0.012-0.103 0-0.010-0-0.020-0.001-0.029l0 0.001zM5.279 13.189v0.133c-0.173 0.013-0.345 0.031-0.519 0.043-0.015-0.033-0.012-0.084-0.011-0.132 0.177-0.016 0.347-0.035 0.53-0.045zM11.099 13.234c0.179 0.015 0.358 0.032 0.529 0.055-0.013 0.039-0.003 0.099-0.021 0.133-0.167-0.024-0.345-0.035-0.519-0.055-0.007-0.055 0.011-0.085 0.011-0.132zM4.22 13.289c-0.004 0.053 0.020 0.075 0.011 0.133-0.173 0.015-0.379 0.055-0.529 0.055 0.008-0.051-0.013-0.076-0.012-0.121 0.168-0.030 0.353-0.044 0.529-0.066zM12.676 13.421c0.008 0.056-0.018 0.076-0.011 0.131-0.171-0.029-0.36-0.042-0.529-0.076 0.007-0.039 0.017-0.073 0.011-0.121 0.152 0.005 0.363 0.041 0.529 0.067zM3.151 13.421c0.040 0.015 0.022 0.089 0.033 0.131-0.173 0.027-0.345 0.053-0.518 0.078-0.013-0.039-0.022-0.084-0.023-0.131l-0-0.001c0.169-0.025 0.343-0.048 0.507-0.077zM13.724 13.577c0 0.002 0 0.004 0 0.006 0 0.049-0.008 0.095-0.024 0.139l0.001-0.003c-0.165-0.037-0.347-0.055-0.518-0.088 0.001-0.047 0.010-0.092 0.024-0.135l-0.001 0.003c0.175 0.021 0.335 0.060 0.518 0.077zM2.115 13.587c0.013 0.038 0.024 0.077 0.023 0.131-0.175 0.027-0.335 0.070-0.519 0.089-0.003-0.049-0.023-0.080-0.022-0.131 0.183-0.019 0.343-0.061 0.518-0.088zM14.253 13.675c0.17 0.035 0.339 0.073 0.519 0.099-0.003 0.048-0.023 0.079-0.023 0.131-0.187-0.014-0.33-0.073-0.519-0.089-0.012-0.027 0.011-0.1 0.023-0.141zM15.113 11.151c0.104 0.061 0.313 0.065 0.397 0.164 0.066 0.077 0.096 0.324 0.121 0.496 0.135 0.864 0.191 1.872 0.221 2.813 0.005 0.177 0.011 0.389 0.011 0.594 0 0.199 0.040 0.469 0 0.607-0.027 0.098-0.16 0.129-0.242 0.176 0-0.026 0-0.056 0-0.086 0-0.636-0.016-1.269-0.047-1.898l0.004 0.088c-0.083-0.067-0.296-0.031-0.309-0.111-0.029-0.168 0.178-0.060 0.298-0.043-0.030-0.848-0.118-1.64-0.22-2.415-0.098-0.049-0.224-0.070-0.332-0.109-0.168 0.173-0.424 0.626-0.815 0.54-0.147-0.031-0.242-0.228-0.309-0.363-0.073-0.142-0.134-0.308-0.174-0.481l-0.003-0.015c-3.253-0.624-7.726-0.677-11.001-0.033-0.102 0.437-0.287 1.369-0.893 1.013-0.245-0.156-0.433-0.383-0.537-0.652l-0.003-0.009c-0.082 0.025-0.204 0.056-0.328 0.082l-0.036 0.006c-0.128 0.723-0.192 1.512-0.231 2.326 0.111 0.007 0.277-0.081 0.397-0.067 0.003 0.044 0.019 0.076 0.022 0.12-0.111 0.071-0.291 0.070-0.43 0.111-0.029 0.496-0.046 1.077-0.046 1.661 0 0.114 0.001 0.227 0.002 0.34l-0-0.017c-0.053 0.015-0.182-0.081-0.231-0.142 0.043-1.534 0.119-3.035 0.242-4.488 0.187-0.058 0.379-0.113 0.563-0.176-0.027-0.255-0.078-0.551 0.033-0.727 0.093-0.149 0.354-0.235 0.54-0.288 0.66-0.187 1.319-0.033 1.753 0.275 0.093 0.068 0.165 0.159 0.264 0.199 0.017-0.060-0.063-0.1-0.099-0.133-0.378-0.341-0.999-0.639-1.741-0.507-0.232-0.727-0.527-1.428-0.529-2.359-0.003-1.035 0.375-1.933 0.803-2.635 0.44-0.719 1.027-1.303 1.665-1.763 1.237-0.891 2.782-1.425 4.453-1.425 0.331 0 0.657 0.021 0.977 0.062l-0.038-0.004c2.007 0.246 3.339 1.193 4.3 2.569 0.46 0.66 0.832 1.449 1.080 2.349 0.249 0.901 0.252 2.065-0.033 3.020-0.922-0.189-1.758 0.1-2.083 0.684-0.003 0.010-0.011 0.011-0.011 0.022 0.332-0.452 1.157-0.779 1.984-0.573 0.219 0.055 0.497 0.133 0.605 0.287 0.149 0.211 0.081 0.659-0.011 0.915zM10.813 6.255c0.037 0.255 0.151 0.522 0.297 0.629 0.251 0.18 0.401 0.001 0.42-0.253 0.023-0.336-0.116-0.733-0.287-0.883-0.070-0.060-0.199-0.097-0.275-0.077-0.171 0.043-0.189 0.352-0.155 0.583zM5.047 6.983c-0.022 0.371 0.107 0.851 0.353 0.981 0.287 0.151 0.422-0.063 0.441-0.33 0.030-0.417-0.182-1.143-0.573-1.070-0.167 0.031-0.209 0.226-0.22 0.419zM9.601 8.702c-0.177 0.040-0.422-0.039-0.617-0.078-0.108-0.026-0.313-0.064-0.521-0.098l-0.086-0.012c-0.378-0.059-0.896-0.141-1.267 0.067-0.132 0.073-0.296 0.234-0.31 0.441-0.018 0.307 0.228 0.527 0.408 0.662 0.215 0.158 0.442 0.266 0.728 0.351 0.611 0.185 1.529 0.235 2.050 0.011 0.49-0.211 1.137-0.708 1.147-1.367 0.007-0.393-0.181-0.746-0.573-0.695-0.433 0.057-0.588 0.634-0.959 0.716z"></path>
</svg>
