<!-- Generated by IcoMoon.io -->
<svg version="1.1" xmlns="http://www.w3.org/2000/svg" width="16" height="16" viewBox="0 0 16 16">
<title>teamviewer</title>
<path fill="#0e8ee9" d="M15.065 16h-14.127c-0.517-0.002-0.936-0.42-0.937-0.937v-14.125c0.002-0.517 0.42-0.936 0.937-0.937h14.127c0.517 0.002 0.936 0.42 0.937 0.937v14.125c-0.002 0.517-0.42 0.936-0.937 0.937h-0zM7.941 1.406c-3.603 0.031-6.509 2.988-6.535 6.593-0.027 3.671 2.921 6.59 6.593 6.593 3.61 0.002 6.531-3 6.593-6.593 0.065-3.715-2.937-6.626-6.652-6.593zM6.433 5.755l-0.593 1.439h4.359l-0.593-1.439 4.428 2.243-4.428 2.243 0.593-1.439h-4.359l0.588 1.439-4.439-2.243z"></path>
</svg>
