<!-- Generated by IcoMoon.io -->
<svg version="1.1" xmlns="http://www.w3.org/2000/svg" width="16" height="16" viewBox="0 0 16 16">
<title>tencentweibo</title>
<path fill="#20b8e5" d="M2.835 15.957c-0.139-0.064-0.249-0.173-0.314-0.307l-0.002-0.004c-0.053-0.111-0.057-0.148-0.057-0.435 0-0.62 0.1-1.619 0.241-2.391 0.465-2.551 1.582-4.751 3.277-6.447l0.383-0.387-0.049-0.195c-0.093-0.374-0.053-0.871 0.099-1.217 0.167-0.376 0.523-0.761 0.867-0.944 0.089-0.047 0.167-0.085 0.169-0.082 0.005 0 0.044-0.014 0.091-0.033 0.047-0.020 0.102-0.041 0.126-0.045 0.023-0.004 0.063-0.015 0.093-0.023 0.134-0.033 0.288-0.052 0.447-0.052s0.313 0.019 0.46 0.055l-0.013-0.003c0.025 0.005 0.073 0.021 0.11 0.035 0.033 0.013 0.061 0.018 0.061 0.013 0-0.007 0.115 0.048 0.25 0.118 0.407 0.21 0.687 0.5 0.878 0.908 0.148 0.31 0.182 0.469 0.181 0.832-0.003 0.265-0.011 0.337-0.063 0.509-0.121 0.403-0.3 0.669-0.643 0.971-0.078 0.067-0.167 0.135-0.197 0.153-0.091 0.052-0.209 0.112-0.33 0.166l-0.030 0.012c-0.007 0.003-0.027 0.013-0.045 0.020-0.018 0.009-0.061 0.017-0.096 0.024-0.032 0.005-0.060 0.013-0.087 0.024l0.002-0.001c-0.009 0.007-0.079 0.017-0.153 0.025-0.074 0.007-0.17 0.015-0.213 0.022-0.099 0.014-0.406-0.021-0.581-0.064-0.159-0.047-0.296-0.107-0.425-0.18l0.010 0.005-0.173-0.091-0.073 0.053c-0.097 0.076-0.557 0.567-0.791 0.847-1.557 1.87-2.435 4.3-2.551 7.080-0.018 0.419-0.035 0.609-0.059 0.682-0.048 0.129-0.187 0.279-0.315 0.341-0.073 0.030-0.158 0.048-0.247 0.048-0.084 0-0.165-0.016-0.24-0.045l0.005 0.002zM8.070 10.704c-0.060-0.014-0.131-0.023-0.203-0.025l-0.002-0c-0.203-0.009-0.395-0.034-0.582-0.074l0.022 0.004c-0.025-0.005-0.084-0.014-0.133-0.023-0.041-0.004-0.079-0.013-0.114-0.026l0.004 0.001c-0.023-0.010-0.051-0.018-0.079-0.022l-0.002-0c-0.061-0.014-0.112-0.030-0.162-0.049l0.008 0.003c-0.028-0.014-0.061-0.026-0.096-0.032l-0.002-0c-0.076-0.019-0.138-0.038-0.199-0.061l0.012 0.004c-0.052-0.021-0.115-0.040-0.179-0.053l-0.008-0.001c-0.017 0.011-0.227-0.139-0.279-0.2-0.141-0.169-0.193-0.429-0.121-0.602 0.099-0.229 0.336-0.4 0.566-0.406 0.077-0.002 0.153 0.007 0.171 0.023 0.019 0.013 0.033 0.021 0.033 0.011s0.024 0.003 0.055 0.023 0.057 0.029 0.057 0.021c0-0.009 0.015-0.008 0.030 0.005 0.029 0.025 0.223 0.091 0.308 0.109 0.027 0.005 0.059 0.015 0.071 0.021s0.053 0.019 0.095 0.025c0.043 0.004 0.164 0.028 0.271 0.049 0.21 0.039 0.887 0.059 1.027 0.029 0.043-0.009 0.131-0.023 0.193-0.029 0.064-0.005 0.13-0.016 0.149-0.023s0.067-0.016 0.103-0.023c0.093-0.016 0.191-0.038 0.262-0.063 0.018-0.007 0.080-0.025 0.135-0.042 0.056-0.013 0.127-0.038 0.159-0.051 0.033-0.013 0.073-0.025 0.093-0.030 0.015-0.003 0.153-0.067 0.307-0.142 0.617-0.307 1.129-0.74 1.519-1.269l0.008-0.011c0.183-0.263 0.466-0.821 0.562-1.118 0.481-1.503 0.098-3.155-0.985-4.248-0.43-0.418-0.947-0.749-1.522-0.962l-0.030-0.010c-0.071-0.027-0.162-0.055-0.256-0.078l-0.019-0.004c-0.069-0.013-0.124-0.026-0.178-0.042l0.014 0.004c-0.026-0.008-0.068-0.019-0.11-0.029l-0.015-0.003c-0.090-0.019-0.199-0.035-0.31-0.043l-0.009-0.001c-0.068-0.005-0.13-0.013-0.191-0.026l0.009 0.002c-0.037-0.013-0.57-0.009-0.707 0.005-0.162 0.013-0.264 0.029-0.376 0.051-0.039 0.010-0.097 0.022-0.156 0.032l-0.016 0.002-0.114 0.025-0.091 0.023c-0.026 0.006-0.048 0.013-0.069 0.022l0.003-0.001c-0.015 0.002-0.028 0.008-0.038 0.018l0-0c-0.010 0.011-0.039 0.018-0.066 0.018-0.029 0.001-0.055 0.011-0.076 0.028l0-0c-0.015 0.016-0.027 0.019-0.027 0.009 0-0.011-0.016-0.007-0.033 0.010-0.020 0.015-0.035 0.020-0.035 0.013 0-0.009-0.024-0.003-0.051 0.013-0.030 0.013-0.062 0.030-0.075 0.032-0.047 0.009-0.486 0.232-0.62 0.32-0.308 0.193-0.418 0.282-0.703 0.567-0.355 0.353-0.545 0.616-0.763 1.050-0.285 0.55-0.452 1.201-0.452 1.891 0 0.258 0.023 0.511 0.068 0.756l-0.004-0.026c0.040 0.239 0.095 0.433 0.203 0.725 0.041 0.109 0.045 0.153 0.029 0.245-0.065 0.367-0.471 0.638-0.768 0.515-0.043-0.017-0.080-0.030-0.080-0.022 0 0.025-0.191-0.133-0.251-0.208-0.054-0.081-0.1-0.173-0.134-0.271l-0.003-0.009c-0.313-0.867-0.367-1.964-0.144-2.912 0.206-0.825 0.572-1.546 1.066-2.159l-0.008 0.011c0.21-0.26 0.661-0.702 0.905-0.891 0.183-0.14 0.599-0.415 0.629-0.415 0.005 0 0.087-0.046 0.182-0.103 0.048-0.030 0.105-0.061 0.164-0.087l0.009-0.004c0 0.007 0.043-0.012 0.098-0.039 0.053-0.028 0.107-0.053 0.119-0.055 0.013-0.003 0.064-0.023 0.114-0.043 0.050-0.024 0.091-0.037 0.093-0.032 0 0.003 0.018-0.005 0.039-0.023 0.023-0.016 0.040-0.023 0.040-0.013s0.015 0.005 0.033-0.011c0.018-0.016 0.033-0.020 0.033-0.012 0 0.009 0.017 0.005 0.035-0.011s0.034-0.020 0.034-0.011 0.017 0.004 0.035-0.012c0.018-0.015 0.033-0.022 0.033-0.013 0 0.007 0.029 0.002 0.064-0.012s0.080-0.029 0.104-0.033c0.036-0.010 0.109-0.027 0.164-0.041 0.027-0.007 0.050-0.014 0.071-0.023l-0.004 0.001c0.025-0.007 0.083-0.020 0.126-0.027s0.175-0.028 0.291-0.045c0.158-0.025 0.358-0.033 0.81-0.029 0.328 0.005 0.63 0.014 0.665 0.021 0.039 0.008 0.115 0.021 0.169 0.027 0.057 0.010 0.143 0.025 0.193 0.039 0.053 0.011 0.128 0.027 0.171 0.035 0.038 0.004 0.073 0.013 0.106 0.026l-0.003-0.001c0.016 0.011 0.034 0.018 0.054 0.022l0.001 0c0.067 0.016 0.107 0.027 0.113 0.030 0.004 0.005 0.011 0.007 0.023 0.008l0.176 0.060c0.089 0.029 0.164 0.056 0.17 0.056s0.033 0.015 0.057 0.029c0.025 0.013 0.053 0.025 0.064 0.027 0.009 0 0.048 0.019 0.085 0.037 0.038 0.020 0.068 0.031 0.068 0.025 0-0.016 0.495 0.253 0.633 0.344 0.070 0.048 0.147 0.099 0.168 0.109 0.231 0.141 0.574 0.429 0.855 0.718 0.707 0.725 1.214 1.648 1.43 2.678l0.006 0.035c0.055 0.276 0.064 0.37 0.072 0.889 0.010 0.665-0.016 0.928-0.143 1.427-0.268 1.049-0.82 1.939-1.694 2.732-0.24 0.204-0.506 0.398-0.785 0.572l-0.028 0.016c-0.12 0.072-0.696 0.358-0.696 0.347 0-0.007-0.022 0.003-0.049 0.019-0.030 0.016-0.057 0.030-0.064 0.030s-0.083 0.027-0.172 0.056c-0.085 0.030-0.164 0.057-0.17 0.057l-0.046 0.019c-0.026 0.011-0.057 0.020-0.089 0.024l-0.002 0c-0.111 0.023-0.16 0.035-0.179 0.046-0.028 0.012-0.061 0.020-0.095 0.024l-0.002 0c-0.076 0.011-0.138 0.022-0.199 0.036l0.017-0.003c-0.136 0.028-0.3 0.049-0.466 0.059l-0.010 0c-0.383 0.030-0.583 0.038-0.593 0.027z"></path>
</svg>
