<!-- Generated by IcoMoon.io -->
<svg version="1.1" xmlns="http://www.w3.org/2000/svg" width="16" height="16" viewBox="0 0 16 16">
<title>tencentqq</title>
<path fill="#eb1923" d="M14.263 10.023c-0.22-0.694-0.402-1.194-0.598-1.687l0.063 0.178-0.719-1.797c0.001-0.021 0.009-0.375 0.009-0.557-0.001-3.072-1.451-6.16-5.018-6.16s-5.017 3.088-5.017 6.161c0 0.183 0.009 0.536 0.009 0.557l-0.72 1.797c-0.135 0.318-0.316 0.818-0.483 1.326l-0.052 0.184c-0.681 2.189-0.46 3.095-0.292 3.115 0.36 0.043 1.402-1.648 1.402-1.648 0 0.979 0.504 2.258 1.596 3.181-0.408 0.125-0.909 0.319-1.23 0.557-0.289 0.213-0.253 0.431-0.201 0.519 0.229 0.385 3.922 0.246 4.988 0.126 1.067 0.12 4.76 0.259 4.989-0.126 0.052-0.088 0.088-0.305-0.201-0.519-0.322-0.237-0.822-0.431-1.231-0.557 1.091-0.923 1.595-2.201 1.595-3.181 0 0 1.042 1.691 1.402 1.648 0.167-0.020 0.387-0.927-0.292-3.115zM8.441 3.231c0.026-0.701 0.439-1.252 0.923-1.231s0.854 0.608 0.828 1.309c-0.026 0.701-0.439 1.252-0.923 1.231s-0.855-0.608-0.828-1.309zM6.636 2c0.483-0.022 0.897 0.529 0.923 1.231s-0.345 1.287-0.828 1.309c-0.484 0.022-0.897-0.529-0.923-1.23s0.345-1.287 0.829-1.309zM4.947 5.529c0.129-0.287 1.431-0.605 3.044-0.605h0.017c1.612 0 2.915 0.319 3.044 0.605 0.006 0.012 0.009 0.026 0.009 0.041v0c0 0.021-0.007 0.039-0.017 0.055-0.109 0.159-1.555 0.944-3.035 0.944h-0.017c-1.481 0-2.927-0.785-3.035-0.944-0.012-0.015-0.019-0.034-0.019-0.055 0-0.015 0.004-0.029 0.010-0.041l-0 0.001zM11.895 11.277c-0.147 2.451-1.602 3.991-3.849 4.014h-0.091c-2.247-0.022-3.703-1.563-3.849-4.014-0.054-0.9 0.001-1.664 0.098-2.287 0.212 0.042 0.425 0.081 0.639 0.117v2.337c0 0 1.105 0.223 2.212 0.069v-2.15c0.325 0.018 0.64 0.027 0.937 0.023h0.017c1.119 0.014 2.476-0.136 3.789-0.396 0.097 0.623 0.151 1.387 0.098 2.287zM6.987 3.869c0.209-0.027 0.361-0.273 0.339-0.55s-0.209-0.48-0.419-0.453c-0.209 0.027-0.361 0.273-0.339 0.549 0.023 0.278 0.21 0.48 0.419 0.453zM9.653 3.437c0.052 0.025 0.147 0.028 0.193-0.097 0.023-0.063 0.017-0.11-0.006-0.143-0.015-0.022-0.089-0.079-0.247-0.117-0.603-0.147-0.894 0.256-0.937 0.333-0.027 0.048-0.008 0.117 0.037 0.151s0.093 0.025 0.119-0.004c0.387-0.419 0.807-0.139 0.841-0.123z"></path>
</svg>
