<!-- Generated by IcoMoon.io -->
<svg version="1.1" xmlns="http://www.w3.org/2000/svg" width="16" height="16" viewBox="0 0 16 16">
<title>teradata</title>
<path fill="#f37440" d="M8 0c-4.667 0-8 3.767-8 8.053 0 4.5 3.333 7.947 8 7.947s8-3.447 8-7.947c0-4.287-3.333-8.053-8-8.053zM5.647 2.293h2.333v2.173h2.387v1.907h-2.387v3.48c0 1.053 0.513 1.513 1.287 1.513 0.28 0 0.653-0.080 1.007-0.213 0.253 0.667 0.7 1.267 1.18 1.747-0.671 0.402-1.481 0.642-2.345 0.647h-0.001c-2.080 0-3.46-1.1-3.46-3.52z"></path>
</svg>
