<!-- Generated by IcoMoon.io -->
<svg version="1.1" xmlns="http://www.w3.org/2000/svg" width="16" height="16" viewBox="0 0 16 16">
<title>themighty</title>
<path fill="#d0072a" d="M12.785 0.001h-2.955l-1.797 9.325-1.827-9.325h-2.969c0.144 0.146 0.223 0.423 0.26 0.715v14.14c0 0.414-0.070 0.922-0.283 1.145 0.676-0.143 1.538-0.277 2.276-0.407v-9.343l1.659 8.25c0.047 0.307 0.090 0.723-0.014 0.799 0.565-0.086 1.129-0.168 1.696-0.244-0.070-0.107-0.043-0.435-0.003-0.707l1.636-8.247v8.73c0.703-0.082 1.577-0.16 2.313-0.233l0.008-0.005c-0.216-0.219-0.287-0.733-0.287-1.149v-12.292c0-0.418 0.070-0.931 0.287-1.151z"></path>
</svg>
