<!-- Generated by IcoMoon.io -->
<svg version="1.1" xmlns="http://www.w3.org/2000/svg" width="16" height="16" viewBox="0 0 16 16">
<title>themoviedatabase</title>
<path fill="#01d277" d="M12.994 14.599c1.404 0 2.354-0.949 2.354-2.354v-9.891c0-1.404-0.949-2.354-2.354-2.354h-9.988c-1.404 0-2.354 0.949-2.354 2.354v13.646l1.206-1.401v-12.245c0.001-0.633 0.513-1.145 1.146-1.146h9.988c0.633 0.001 1.145 0.513 1.146 1.146v9.891c-0.001 0.633-0.513 1.145-1.146 1.146h-8.379l-1.207 1.208-0.007-0.009zM5.858 7.644h-1.131v3.799h1.131c2.529 0 2.529-3.799 0-3.799zM5.858 10.683h-0.367v-2.279h0.367c1.477 0 1.477 2.279 0 2.279zM5.637 6.926h0.759v-3.039h0.945v-0.754h-2.651v0.754h0.946zM9.375 4.801l-1.314-1.668h-0.244v3.857h0.771v-2.12l0.788 1.021 0.789-1.021-0.005 2.12h0.771v-3.857h-0.24zM10.655 9.543c0.239-0.165 0.34-0.459 0.351-0.749 0.015-0.669-0.404-1.153-1.078-1.153h-1.503v3.804h1.503c0.62-0.005 1.12-0.509 1.121-1.129v-0.019c0-0.311-0.154-0.585-0.39-0.751zM9.186 8.401h0.675c0.218 0 0.351 0.17 0.351 0.382 0.001 0.008 0.001 0.018 0.001 0.027 0 0.195-0.157 0.353-0.352 0.355h-0.676zM9.861 10.685h-0.675v-0.759h0.685c0.206 0 0.373 0.167 0.373 0.373v0.009c0 0.208-0.169 0.377-0.377 0.377v0z"></path>
</svg>
