<!-- Generated by IcoMoon.io -->
<svg version="1.1" xmlns="http://www.w3.org/2000/svg" width="16" height="16" viewBox="0 0 16 16">
<title>tiktok</title>
<path d="M8.353 0.013c0.873-0.013 1.74-0.007 2.607-0.013 0.053 1.020 0.42 2.060 1.167 2.78 0.747 0.74 1.8 1.080 2.827 1.193v2.687c-0.96-0.033-1.927-0.233-2.8-0.647-0.38-0.173-0.733-0.393-1.080-0.62-0.007 1.947 0.007 3.893-0.013 5.833-0.053 0.933-0.36 1.86-0.9 2.627-0.873 1.28-2.387 2.113-3.94 2.14-0.953 0.053-1.907-0.207-2.72-0.687-1.347-0.793-2.293-2.247-2.433-3.807-0.013-0.333-0.020-0.667-0.007-0.993 0.12-1.267 0.747-2.48 1.72-3.307 1.107-0.96 2.653-1.42 4.1-1.147 0.013 0.987-0.027 1.973-0.027 2.96-0.66-0.213-1.433-0.153-2.013 0.247-0.42 0.273-0.74 0.693-0.907 1.167-0.14 0.34-0.1 0.713-0.093 1.073 0.16 1.093 1.213 2.013 2.333 1.913 0.747-0.007 1.46-0.44 1.847-1.073 0.127-0.22 0.267-0.447 0.273-0.707 0.067-1.193 0.040-2.38 0.047-3.573 0.007-2.687-0.007-5.367 0.013-8.047z"></path>
</svg>
