<!-- Generated by IcoMoon.io -->
<svg version="1.1" xmlns="http://www.w3.org/2000/svg" width="16" height="16" viewBox="0 0 16 16">
<title>timescale</title>
<path fill="#fdb515" d="M3.691 0.509c-0.778 0.467-1.473 1.055-2.053 1.74l0.889 0.975c0.648-0.804 1.455-1.452 2.377-1.903l0.041-0.018zM12.377 0.565l-1.327 0.747c1.007 0.492 1.847 1.184 2.496 2.030l0.012 0.017 0.787-1.103c-0.56-0.658-1.209-1.219-1.933-1.67l-0.035-0.020zM8.001 1.067c-0.002 0-0.004 0-0.006 0-0.997 0-1.942 0.224-2.787 0.624l0.040-0.017 0.393 0.674c0.691-0.321 1.499-0.508 2.351-0.508 0.003 0 0.007 0 0.010 0h-0.001c0.841 0 1.638 0.183 2.356 0.507l0.393-0.675c-0.805-0.382-1.75-0.605-2.747-0.605-0.001 0-0.002 0-0.003 0h0zM7.6 2.357l-0.367 4.417h0.002l-0.001 0.027c0.002 0.074 0.009 0.144 0.022 0.212 0.007 0.075 0.029 0.151 0.065 0.228 0.076 0.193 0.199 0.337 0.344 0.405 0.033 0.027 0.070 0.050 0.105 0.074 0.010 0.006 0.018 0.010 0.025 0.015l-0.003-0.002v0.003l4.453 2.397 0.232-0.317-4.039-3.067c-0.005 0-0.007-0.003-0.009-0.005l-0.429-4.387zM8.549 2.391c0.127 0.156 0.241 0.349 0.335 0.57 2.103 0.403 3.693 2.217 3.693 4.397 0 0.585-0.117 1.141-0.323 1.653 0.131 0.147 0.246 0.314 0.34 0.493l0.006 0.014c0.317-0.629 0.503-1.371 0.503-2.156 0-0.001 0-0.003 0-0.004v0c0-2.579-1.993-4.7-4.555-4.967zM7.026 2.455c-2.351 0.445-4.127 2.472-4.127 4.904 0 1.723 0.89 3.242 2.245 4.14 0.074-0.213 0.141-0.376 0.213-0.537l-0.017 0.041c-1.16-0.813-1.916-2.143-1.916-3.645 0-2.036 1.388-3.755 3.288-4.3 0.085-0.234 0.193-0.437 0.313-0.604zM13.126 3.571l-0.534 0.595c0.646 0.879 1.034 1.983 1.034 3.178 0 0.002 0 0.005 0 0.007v-0c0 1.944-1.028 3.654-2.581 4.635 0.069 0.259 0.125 0.528 0.167 0.806 1.913-1.088 3.201-3.118 3.201-5.44 0-0.005 0-0.010 0-0.016 0-1.425-0.484-2.736-1.298-3.779l0.010 0.014zM2.873 3.576c-0.803 1.031-1.287 2.344-1.287 3.77 0 0.002 0 0.005 0 0.007v-0c0 2.338 1.303 4.378 3.239 5.46 0.042-0.279 0.096-0.548 0.165-0.804-1.573-0.979-2.615-2.697-2.615-4.656 0-1.185 0.382-2.281 1.033-3.181zM9.082 3.605c0.029 0.135 0.053 0.277 0.071 0.427 0.965 0.324 1.729 1.023 2.133 1.919l0.009 0.022 0.385-0.099c-0.48-1.108-1.419-1.939-2.57-2.263l-0.028-0.007zM6.538 3.729c-1 0.393-1.784 1.151-2.203 2.107l-0.010 0.025 0.387 0.099c0.36-0.797 0.982-1.422 1.753-1.78l0.022-0.009c0.011-0.151 0.027-0.3 0.051-0.442zM4.489 6.448l-0.413 0.42 0.21 0.409 1.151 0.412 0.628-0.412-0.208-0.615zM11.565 6.448l-1.365 0.214-0.21 0.615 0.628 0.412 1.153-0.412 0.21-0.409zM4.067 7.913c0.163 1.054 0.731 1.952 1.536 2.546l0.011 0.008c0.067-0.113 0.136-0.223 0.21-0.329-0.706-0.531-1.201-1.31-1.356-2.206l-0.003-0.021zM11.537 7.913c-0.020 0.12-0.047 0.237-0.079 0.353 0.116 0.092 0.225 0.181 0.329 0.273 0.065-0.201 0.116-0.411 0.147-0.627zM1.085 8.057l-1.085 1.381c0.644 2.441 2.425 4.433 4.755 5.407-0.021-0.194-0.033-0.419-0.033-0.647 0-0.014 0-0.029 0-0.043l-0 0.002c0-0.25 0.011-0.498 0.033-0.741-2.016-1.042-3.444-3.029-3.67-5.361zM14.889 8.094c-0.235 2.3-1.643 4.263-3.627 5.305 0.022 0.249 0.033 0.503 0.035 0.757 0 0.251-0.011 0.473-0.033 0.67 2.337-0.992 4.117-3.015 4.736-5.482zM10.527 9.839c-0.099 0.097-0.205 0.189-0.316 0.274l-0.008 0.006c0.073 0.105 0.145 0.215 0.212 0.329 0.177-0.133 0.342-0.28 0.493-0.44-0.174-0.070-0.3-0.127-0.423-0.187l0.042 0.018zM11.528 10.211c-0.245 0.29-0.519 0.543-0.82 0.761l-0.013 0.009c0.071 0.157 0.138 0.323 0.196 0.494 0.482-0.328 0.891-0.72 1.229-1.168l0.009-0.013c-0.215-0.002-0.421-0.032-0.617-0.087l0.017 0.004zM9.536 10.631l-1.535 0.609-1.538-0.607-0.391 0.957 1.632 0.631c-0.089 0.307-0.379 0.532-0.72 0.532-0.023 0-0.047-0.003-0.069-0.005l-0.333 0.457c0.125 0.042 0.26 0.064 0.4 0.064 0.414 0 0.78-0.193 1.013-0.492 0.237 0.301 0.601 0.493 1.011 0.493 0.16 0 0.313-0.029 0.453-0.082l-0.009 0.003-0.327-0.447c-0.036 0.006-0.077 0.010-0.12 0.010-0.341 0-0.629-0.229-0.719-0.541l-0.001-0.005 1.647-0.617zM10.307 13.815c-0.727 0.251-1.504 0.387-2.317 0.387-0.78 0-1.527-0.124-2.227-0.356 0.154 0.587 0.393 1.103 0.7 1.508 0.495 0.089 1.006 0.138 1.529 0.138 0.557 0 1.1-0.055 1.625-0.157 0.302-0.407 0.538-0.927 0.69-1.519z"></path>
</svg>
