<!-- Generated by IcoMoon.io -->
<svg version="1.1" xmlns="http://www.w3.org/2000/svg" width="16" height="16" viewBox="0 0 16 16">
<title>tinder</title>
<path fill="#ff6b6b" d="M6.211 6.301c0.030 0.049 0.082 0.080 0.141 0.080 0.040 0 0.077-0.014 0.105-0.038l0.010-0.008c0.26-0.217 0.494-0.44 0.714-0.678 2.139-2.322 0.89-5.173 0.88-5.199-0.060-0.14-0.020-0.306 0.1-0.396 0.13-0.090 0.29-0.080 0.41 0.022 7.25 6.743 5.33 11.879 5.19 12.225-0.58 2.094-2.89 3.609-5.629 3.687-0.092 0.005-0.161 0.005-0.242 0.005-3.235 0-5.985-1.993-5.985-4.538v-0.040c0-3.531 3.197-7.015 3.339-7.163 0.091-0.099 0.23-0.13 0.35-0.070 0.12 0.051 0.198 0.17 0.194 0.301-0.029 0.691 0.111 1.29 0.421 1.8v0.010z"></path>
</svg>
