<!-- Generated by IcoMoon.io -->
<svg version="1.1" xmlns="http://www.w3.org/2000/svg" width="16" height="16" viewBox="0 0 16 16">
<title>todoist</title>
<path fill="#e44332" d="M14 0h-12c-1.1 0-2 0.9-2 2v2.572c0 0 2.569 1.493 2.732 1.587 0.207 0.12 0.463 0.118 0.669 0 0.173-0.098 5.347-3.072 5.424-3.117 0.186-0.107 0.387-0.071 0.499-0.007 0.109 0.065 0.404 0.232 0.56 0.32 0.155 0.089 0.147 0.335 0.009 0.415l-6.475 3.727c-0.231 0.133-0.46 0.136-0.699 0.001-0.401-0.227-2.054-1.189-2.719-1.577v1.347l2.732 1.587c0.207 0.12 0.463 0.118 0.669 0 0.173-0.098 5.347-3.073 5.424-3.117 0.186-0.107 0.387-0.071 0.499-0.005 0.109 0.064 0.404 0.231 0.56 0.32 0.155 0.089 0.147 0.333 0.009 0.413s-6.192 3.564-6.475 3.727c-0.231 0.133-0.46 0.137-0.699 0.001-0.401-0.226-2.054-1.189-2.719-1.576v1.347l2.732 1.587c0.207 0.12 0.463 0.118 0.669 0 0.173-0.098 5.347-3.073 5.424-3.117 0.186-0.107 0.387-0.071 0.499-0.006 0.109 0.065 0.404 0.232 0.56 0.32 0.155 0.089 0.147 0.335 0.009 0.415l-6.475 3.727c-0.231 0.133-0.46 0.136-0.699 0.001-0.401-0.227-2.054-1.189-2.719-1.576v2.687c0 1.1 0.9 2 2 2h12c1.1 0 2-0.9 2-2v-12c0-1.1-0.9-2-2-2z"></path>
</svg>
