<!-- Generated by IcoMoon.io -->
<svg version="1.1" xmlns="http://www.w3.org/2000/svg" width="16" height="16" viewBox="0 0 16 16">
<title>toggl</title>
<path fill="#e01b22" d="M8 0c-4.418 0-8 3.58-8 8s3.582 8 8 8c4.42 0 8-3.58 8-8s-3.58-8-8-8zM7.44 3.113h1.12v5.573h-1.12zM8 12.103c-2.16-0.001-3.91-1.753-3.909-3.912 0-1.76 1.178-3.304 2.876-3.77v1.14c-1.085 0.427-1.799 1.473-1.797 2.64 0 1.563 1.269 2.829 2.832 2.829s2.829-1.269 2.829-2.832c0-1.163-0.713-2.208-1.796-2.633v-1.145c1.7 0.467 2.876 2.012 2.876 3.773 0 2.16-1.751 3.909-3.911 3.91z"></path>
</svg>
