<!-- Generated by IcoMoon.io -->
<svg version="1.1" xmlns="http://www.w3.org/2000/svg" width="16" height="16" viewBox="0 0 16 16">
<title>topcoder</title>
<path fill="#29a8e0" d="M13.676 11.011c0.128-0.017 0.251-0.075 0.361-0.14 0.23-0.134 0.431-0.315 0.624-0.5 0.151-0.143 0.296-0.291 0.435-0.447 0.080-0.097 0.171-0.197 0.251-0.301 0.070-0.095 0.14-0.19 0.21-0.291 0.051-0.077 0.1-0.153 0.141-0.233 0.22-0.399 0.401-0.891 0.241-1.344-0.021-0.063-0.051-0.123-0.081-0.18-0.061-0.103-0.141-0.194-0.221-0.275-0.14-0.134-0.312-0.24-0.482-0.326-0.251-0.125-0.521-0.209-0.801-0.271-0.402-0.091-0.803-0.134-1.214-0.151-0.561-0.027-1.123-0.004-1.675 0.051 0.070 0.073 0.131 0.15 0.201 0.225 0.13 0.151 0.261 0.311 0.381 0.482 0.151 0.2 0.291 0.421 0.431 0.641 0.401 0.661 0.703 1.383 0.922 2.115 0.070 0.22 0.121 0.441 0.17 0.672 0.021 0.080 0.032 0.171 0.051 0.261zM1.286 10.911c0.035-0.136 0.070-0.275 0.107-0.411 0.053-0.201 0.117-0.4 0.177-0.597 0.046-0.145 0.1-0.286 0.151-0.43 0.060-0.15 0.123-0.3 0.185-0.451 0.022-0.051 0.041-0.102 0.065-0.153 0.068-0.143 0.141-0.285 0.215-0.425 0.090-0.161 0.171-0.321 0.261-0.471 0.12-0.211 0.251-0.401 0.391-0.592l0.011-0.010c-0.221-0.011-0.451-0.011-0.672-0.011-0.16 0-0.331 0.011-0.491 0.030-0.111 0.011-0.22 0.021-0.331 0.041-0.081 0.011-0.16 0.030-0.241 0.050-0.391 0.1-0.832 0.281-1.022 0.671-0.021 0.051-0.041 0.101-0.061 0.161-0.021 0.080-0.031 0.18-0.031 0.271 0 0.141 0.030 0.281 0.059 0.421 0.061 0.21 0.161 0.411 0.262 0.601 0.19 0.331 0.431 0.641 0.681 0.932l0.321 0.35zM13.387 10.881c-0.328-1.535-1.031-3.021-2.129-4.157l-0.055-0.057-0.027-0.027c-0.133 0.009-0.266 0.030-0.402 0.049-1.436 0.221-2.84 0.612-4.19 1.143 0.112 0.030 0.224 0.060 0.338 0.1 0.471 0.151 0.942 0.311 1.405 0.482 1.614 0.601 3.17 1.353 4.665 2.215l0.391 0.231zM1.583 10.788l0.582-0.562c0.1-0.095 0.1-0.095 0.201-0.187 1.022-0.903 2.212-1.583 3.453-2.145-0.183-0.051-0.366-0.091-0.549-0.13-0.702-0.161-1.409-0.291-2.125-0.351-0.056 0.081-0.111 0.151-0.165 0.231-0.121 0.181-0.236 0.351-0.345 0.542-0.1 0.16-0.181 0.321-0.261 0.482-0.069 0.13-0.14 0.261-0.191 0.391-0.019 0.030-0.030 0.070-0.040 0.1-0.061 0.151-0.13 0.301-0.191 0.451-0.049 0.121-0.090 0.24-0.13 0.361-0.060 0.191-0.12 0.371-0.17 0.562-0.031 0.1-0.061 0.201-0.080 0.3zM6.192 7.73c0.14-0.061 0.278-0.117 0.419-0.17 0.155-0.063 0.311-0.121 0.467-0.179 0.682-0.251 1.374-0.461 2.075-0.631 0.582-0.141 1.163-0.251 1.755-0.341l0.040-0.011c-0.161-0.151-0.331-0.281-0.501-0.411-0.321-0.24-0.671-0.441-1.042-0.601-0.863-0.371-1.815-0.491-2.737-0.32-0.502 0.089-0.994 0.26-1.445 0.501-0.711 0.381-1.333 0.922-1.845 1.543l-0.020 0.011 0.311 0.029 0.381 0.051c0.542 0.090 1.063 0.201 1.594 0.32 0.201 0.051 0.391 0.101 0.582 0.151z"></path>
</svg>
