<!-- Generated by IcoMoon.io -->
<svg version="1.1" xmlns="http://www.w3.org/2000/svg" width="16" height="16" viewBox="0 0 16 16">
<title>tor</title>
<path fill="#7e4798" d="M11.719 8.134c-0.507-0.461-1.147-0.834-1.803-1.207-0.297-0.164-1.207-0.879-0.893-1.892l-0.567-0.239c0.895-1.385 2.057-2.756 3.486-4.037-1.147 0.387-2.16 0.984-2.919 2.041 0.447-0.938 1.177-1.862 1.981-2.801-1.103 0.79-2.056 1.683-2.653 2.875l0.418-1.669c-0.596 1.072-1.013 2.16-1.177 3.247l-0.878-0.357-0.149 0.119c0.775 1.385 0.373 2.116-0.015 2.369-0.775 0.522-1.892 1.192-2.459 1.773-1.073 1.103-1.385 2.145-1.281 3.531 0.105 1.773 1.401 3.249 3.113 3.829 0.76 0.253 1.46 0.283 2.235 0.283 1.251 0 2.533-0.327 3.471-1.117 0.965-0.805 1.576-2.006 1.579-3.351v-0.001c0-0.004 0-0.009 0-0.015 0-1.338-0.573-2.542-1.487-3.38l-0.003-0.003zM9.35 14.049c-0.060 0.268-0.253 0.596-0.491 0.894 0.089-0.164 0.164-0.328 0.209-0.507 0.373-1.326 0.537-1.936 0.358-3.397-0.030-0.149-0.090-0.625-0.314-1.147-0.312-0.79-0.789-1.535-0.848-1.699-0.105-0.253-0.253-1.326-0.269-2.056 0.015 0.625 0.059 1.773 0.223 2.219 0.045 0.15 0.477 0.819 0.79 1.639 0.208 0.566 0.253 1.088 0.297 1.236 0.149 0.671-0.030 1.803-0.267 2.875-0.074 0.387-0.284 0.835-0.552 1.177 0.15-0.209 0.268-0.477 0.358-0.79 0.179-0.625 0.253-1.43 0.237-1.937-0.014-0.297-0.148-0.938-0.372-1.519-0.134-0.313-0.328-0.641-0.461-0.865-0.149-0.223-0.149-0.715-0.209-1.281 0.014 0.611-0.045 0.923 0.104 1.355 0.089 0.253 0.417 0.611 0.506 0.953 0.134 0.462 0.268 0.969 0.254 1.281 0 0.357-0.015 1.013-0.179 1.729-0.105 0.536-0.343 0.998-0.73 1.295 0.164-0.208 0.253-0.417 0.298-0.625 0.059-0.313 0.074-0.611 0.104-0.983 0.008-0.096 0.013-0.208 0.013-0.321 0-0.293-0.032-0.578-0.092-0.853l0.005 0.026c-0.119-0.537-0.313-1.072-0.403-1.445 0.015 0.417 0.179 0.939 0.254 1.49 0.059 0.403 0.029 0.804 0.014 1.161-0.014 0.418-0.149 1.148-0.328 1.505-0.179-0.075-0.238-0.179-0.358-0.327-0.149-0.194-0.238-0.403-0.327-0.641-0.076-0.173-0.143-0.376-0.19-0.588l-0.004-0.022c-0.012-0.082-0.018-0.176-0.018-0.272 0-0.452 0.147-0.87 0.395-1.209l-0.004 0.006c0.313-0.447 0.373-0.477 0.477-0.998-0.149 0.461-0.253 0.506-0.581 0.894-0.373 0.431-0.432 1.057-0.432 1.564 0 0.209 0.089 0.447 0.164 0.671 0.089 0.237 0.179 0.476 0.298 0.655 0.089 0.149 0.209 0.253 0.313 0.327-0.387-0.104-0.789-0.253-1.043-0.461-0.625-0.537-1.177-1.445-1.251-2.25-0.059-0.655 0.536-1.609 1.385-2.085 0.715-0.417 0.879-0.879 1.028-1.639-0.209 0.655-0.417 1.222-1.103 1.565-0.983 0.536-1.49 1.4-1.445 2.235 0.075 1.057 0.491 1.788 1.341 2.369 0.194 0.133 0.462 0.267 0.745 0.373-1.058-0.254-1.192-0.403-1.549-0.819 0-0.030-0.089-0.090-0.089-0.104-0.477-0.537-1.073-1.46-1.281-2.309-0.075-0.298-0.149-0.611-0.059-0.909 0.387-1.401 1.236-1.937 2.085-2.517 0.209-0.15 0.417-0.284 0.611-0.433 0.477-0.373 0.596-1.341 0.7-1.892-0.193 0.671-0.402 1.505-0.775 1.773-0.193 0.149-0.432 0.268-0.625 0.403-0.879 0.596-1.758 1.162-2.16 2.607-0.089 0.373-0.029 0.641 0.059 0.999 0.223 0.878 0.819 1.832 1.326 2.398l0.089 0.090c0.223 0.254 0.507 0.447 0.849 0.581-0.328-0.078-0.616-0.186-0.887-0.323l0.023 0.010c-1.385-0.67-2.309-2.115-2.369-3.293-0.119-2.398 1.028-3.098 2.101-3.977 0.596-0.491 1.43-0.73 1.907-1.609 0.089-0.194 0.149-0.611 0.030-1.058-0.045-0.149-0.268-0.685-0.358-0.805l1.326 0.581c-0.029 0.625-0.045 1.132 0.075 1.594 0.133 0.507 0.789 1.236 1.057 2.086 0.522 1.607 0.389 3.707 0.015 5.346z"></path>
</svg>
