<!-- Generated by IcoMoon.io -->
<svg version="1.1" xmlns="http://www.w3.org/2000/svg" width="16" height="16" viewBox="0 0 16 16">
<title>toshiba</title>
<path fill="#f00" d="M3.449 6.781c-0.71 0-1.052 0.125-1.1 0.765-0.009 0.125-0.015 0.271-0.015 0.419 0 0.012 0 0.024 0 0.036l-0-0.002c0 0.145 0.003 0.301 0.014 0.453 0.049 0.64 0.391 0.765 1.1 0.765s1.053-0.125 1.102-0.765c0.012-0.153 0.015-0.308 0.015-0.453s-0.003-0.301-0.015-0.453c-0.049-0.64-0.392-0.765-1.101-0.765zM5.976 6.781c-0.273 0-0.547 0.027-0.657 0.081-0.215 0.104-0.363 0.253-0.363 0.68 0 0.25 0.067 0.436 0.195 0.531 0.187 0.14 0.369 0.153 0.873 0.18 0.203 0.011 0.313 0.052 0.313 0.227 0 0.221-0.196 0.221-0.376 0.221-0.187 0-0.244-0.017-0.307-0.064-0.056-0.042-0.070-0.117-0.071-0.232h-0.633c0 0.325 0.007 0.589 0.313 0.723 0.273 0.12 1.113 0.12 1.365 0.009 0.219-0.097 0.375-0.225 0.375-0.663 0-0.303-0.061-0.49-0.293-0.627-0.165-0.098-0.63-0.113-0.865-0.128-0.172-0.011-0.237-0.073-0.237-0.225 0-0.198 0.19-0.205 0.353-0.205 0.135 0 0.227 0.012 0.293 0.070 0.025 0.026 0.057 0.066 0.059 0.205h0.631c0-0.272-0.009-0.565-0.303-0.701-0.117-0.053-0.391-0.081-0.666-0.081zM7.447 6.823v2.355h0.664v-0.908h0.771v0.908h0.664v-2.355h-0.664v0.86h-0.771v-0.86zM10.129 6.823v2.355h0.668v-2.355zM11.389 6.823v2.355h1.258c0.579 0 0.775-0.251 0.775-0.635 0-0.267-0.061-0.503-0.429-0.596 0.296-0.076 0.383-0.253 0.383-0.508 0-0.517-0.325-0.616-0.787-0.616zM14.305 6.823l-0.712 2.355h0.691l0.125-0.437h0.773l0.127 0.437h0.691l-0.713-2.355zM0 6.824v0.587h0.703v1.767h0.703v-1.767h0.703v-0.587zM3.449 7.332c0.279 0 0.422 0.042 0.44 0.405 0.003 0.057 0.007 0.134 0.007 0.263s-0.004 0.207-0.007 0.263c-0.018 0.363-0.161 0.405-0.44 0.405s-0.422-0.042-0.44-0.405c-0.003-0.070-0.005-0.152-0.005-0.235 0-0.010 0-0.020 0-0.030v0.002c0-0.129 0.002-0.207 0.005-0.263 0.018-0.363 0.161-0.405 0.44-0.405zM12.053 7.362h0.46c0.12 0 0.195 0.057 0.195 0.194 0 0.117-0.075 0.19-0.195 0.19h-0.46zM14.794 7.405h0.004l0.236 0.813h-0.475zM12.054 8.209h0.459c0.186 0 0.225 0.083 0.225 0.215s-0.073 0.213-0.225 0.213h-0.46z"></path>
</svg>
