<!-- Generated by IcoMoon.io -->
<svg version="1.1" xmlns="http://www.w3.org/2000/svg" width="16" height="16" viewBox="0 0 16 16">
<title>trainerroad</title>
<path fill="#e12726" d="M2.326 1.595l-1.472 8.111c0.575-1.123 1.724-1.878 3.049-1.878h0.005c0.001 0 0.003 0 0.005 0 0.72 0 1.387 0.225 1.936 0.607l-0.011-0.007-0.011-0.007c0.261-0.238 0.462-0.538 0.581-0.876l0.005-0.015 0.005-0.015c0.275-0.885-0.525-3.649 2.441-3.692 1.481-0.021 3.379 1.211 3.328 1.203-2.663-0.409-3.509-0.525-4.161 0.743-0.593 1.151-0.438 2.109-1.201 2.827-0.653 0.615-2.213 1.023-2.699 0.922-0.22-0.046 0.558-0.253 1.281-0.757-0.429-0.264-0.949-0.42-1.506-0.42-1.605 0-2.907 1.301-2.907 2.907s1.301 2.907 2.907 2.907c1.528 0 2.781-1.179 2.898-2.678l0.001-0.010 0.001-0.009c0.167 0.097 0.326 0.196 0.474 0.296-0.187 1.198-0.973 2.178-2.036 2.636l-0.045 0.017h6.157c-0.489-0.843-2.343-3.511-6.58-4.269 0.522-0.258 5.059-0.131 9.031 3.587l2.203-12.128zM6.679 2.653c0.395 0.013 0.784 0.118 1.109 0.196 0.892 0.213 1.689 0.449 1.581 0.498-0.022 0.009-0.391-0.043-0.544-0.059-0.119-0.018-0.256-0.029-0.395-0.029-0.228 0-0.45 0.028-0.663 0.080l0.019-0.004 0.019-0.004c-1.399 0.335-1.905 1.975-2 2.122-0.011 0.016-0.791-0.4-0.849-1.217-0.041-0.596 0.172-1.168 1.017-1.483l0.001 0.001c0.182-0.067 0.392-0.105 0.612-0.105 0.033 0 0.065 0.001 0.097 0.003l-0.005-0zM10.271 5.382c0.434-0.005 0.979 0.057 1.67 0.203-0.473 0.28-0.881 0.602-1.242 0.97l-0.001 0.001-0.001 0.001c-0.713 0.732-1.374 1.711-1.127 2.253s1.768 1.217 2.867 1.947c0.568 0.379 1.010 1.706 1.011 1.711-2.073-1.611-3.579-2.065-4.699-2.733-1.314-0.791-0.475-2.705-0.076-3.534 0.228-0.469 0.643-0.806 1.599-0.818zM0.506 11.618l-0.506 2.787h2.603c-1.139-0.478-1.953-1.523-2.095-2.771z"></path>
</svg>
