<!-- Generated by IcoMoon.io -->
<svg version="1.1" xmlns="http://www.w3.org/2000/svg" width="16" height="16" viewBox="0 0 16 16">
<title>trakt</title>
<path fill="#ed1c24" d="M8 16c-4.41 0-8-3.59-8-8s3.59-8 8-8 8 3.59 8 8-3.59 8-8 8zM8 0.807c-3.967 0-7.193 3.226-7.193 7.193s3.226 7.193 7.193 7.193 7.193-3.227 7.193-7.193-3.227-7.193-7.193-7.193zM3.26 12.354c1.171 1.28 2.863 2.075 4.74 2.075 0.959 0 1.867-0.209 2.685-0.584l-4.465-4.453zM12.785 12.309c1.027-1.14 1.656-2.66 1.656-4.311 0-2.59-1.525-4.81-3.712-5.84l-4.059 4.051 6.109 6.1zM6.201 6.69l-3.383 3.37-0.453-0.453 7.711-7.707c-0.652-0.219-1.347-0.339-2.077-0.339-3.558-0.002-6.442 2.882-6.442 6.44 0 1.448 0.475 2.785 1.293 3.867l3.371-3.37 0.239 0.219 4.83 4.83c0.1-0.055 0.19-0.109 0.28-0.177l-5.351-5.336-3.236 3.237-0.453-0.453 3.69-3.69 0.239 0.221 5.64 5.625c0.090-0.067 0.17-0.143 0.25-0.211l-6.091-6.077-0.055 0.010zM8.232 7.375l-0.452-0.451 3.192-3.193 0.453 0.459-3.193 3.19zM11.26 2.99l-3.68 3.68-0.453-0.453 3.681-3.68 0.453 0.456z"></path>
</svg>
