<!-- Generated by IcoMoon.io -->
<svg version="1.1" xmlns="http://www.w3.org/2000/svg" width="16" height="16" viewBox="0 0 16 16">
<title>travisci</title>
<path fill="#3eaaaf" d="M13.38 6.193v-0.013c0.007-0.027 0.093-0.633-0.053-1.493-0.006-0.041-0.035-0.074-0.073-0.086l-0.001-0-0.233-0.067c-0.053-1.807-0.8-2.667-0.82-2.687 0.667 1.067 0.66 2.34 0.647 2.64l-1.447-0.42h-0.027c-0.004-0-0.009-0.001-0.013-0.001s-0.009 0-0.014 0.001l0.001-0h-0.020l-0.007 0.007-0.020 0.013-0.007 0.007-0.1 0.093c0.003-0.067 0.004-0.146 0.004-0.225 0-1.007-0.248-1.955-0.687-2.788l0.016 0.033c0.020 0.040 0.533 1.553 0.353 3.247-0.051 0.043-0.107 0.087-0.166 0.128l-0.008 0.005c-0.027 0.020-0.045 0.051-0.047 0.086l-0 0c-0.018 0.379-0.114 0.732-0.273 1.048l0.007-0.015c-0.534-0.039-1.156-0.061-1.783-0.061s-1.25 0.022-1.866 0.065l0.083-0.005-0.007-0.027c-0.144-0.292-0.235-0.633-0.253-0.994l-0-0.006c0-0.040-0.013-0.067-0.047-0.093-0.069-0.047-0.128-0.091-0.185-0.137l0.005 0.004c-0.173-1.693 0.34-3.207 0.353-3.247-0.419 0.797-0.665 1.742-0.665 2.745 0 0.083 0.002 0.165 0.005 0.247l-0-0.012-0.1-0.093-0.007-0.007-0.020-0.013-0.020-0.007h-0.053l-1.453 0.413c-0.002-0.055-0.003-0.119-0.003-0.183 0-0.903 0.241-1.751 0.663-2.481l-0.013 0.024c-0.020 0.027-0.767 0.88-0.82 2.687l-0.233 0.067c-0.039 0.013-0.067 0.046-0.073 0.086l-0 0.001c-0.147 0.867-0.067 1.467-0.060 1.493v0.013l-0.053 0.013c-0.246 0.074-0.458 0.165-0.657 0.275l0.017-0.009c0.107-0.040 0.213-0.067 0.333-0.1 0.491-0.12 1.072-0.21 1.666-0.251l0.034-0.002 0.68-0.053c0.92-0.053 1.833-0.067 2.753-0.067 0.044-0 0.095-0 0.147-0 1.159 0 2.308 0.044 3.445 0.129l-0.151-0.009c0.648 0.059 1.228 0.148 1.796 0.271l-0.096-0.017c0.113 0.027 0.22 0.060 0.333 0.1-0.185-0.103-0.399-0.194-0.624-0.261l-0.023-0.006zM5.84 5.8c-0.693 0.087-1.299 0.204-1.891 0.356l0.104-0.023c-0.013-0.1-0.067-0.627 0.047-1.347l1.64-0.467c-0.005 0.079-0.007 0.172-0.007 0.265 0 0.432 0.056 0.85 0.162 1.249l-0.008-0.034zM6.087 5.773v-0.053c-0.087-0.337-0.137-0.724-0.137-1.122 0-0.065 0.001-0.129 0.004-0.194l-0 0.009c0.107 0.1 0.253 0.227 0.4 0.333 0.013 0.147 0.053 0.58 0.247 0.98zM11.14 5.72v0.053c-0.090-0.011-0.267-0.028-0.445-0.042l-0.068-0.004c0.2-0.4 0.233-0.833 0.247-0.987 0.147-0.1 0.293-0.227 0.4-0.333 0.013 0.293 0 0.82-0.133 1.313zM13.173 6.133c-0.508-0.147-1.113-0.264-1.733-0.329l-0.047-0.004h-0.060l0.013-0.020c0.091-0.349 0.143-0.749 0.143-1.161 0-0.105-0.003-0.209-0.010-0.313l0.001 0.014 1.64 0.467c0.046 0.266 0.073 0.573 0.073 0.885 0 0.162-0.007 0.323-0.021 0.482l0.001-0.021zM11.2 10.16c0.467-0.013 0.713-0.153 0.947-0.040 0-0.013-0.073-0.233-0.4-0.193 0.032-0.076 0.051-0.164 0.051-0.256 0-0.027-0.002-0.054-0.005-0.080l0 0.003c-0.047-0.54-0.353-0.967-0.7-0.96-0.34 0.013-0.56 0.467-0.547 1 0.020 0.54 0.313 0.533 0.653 0.527zM11.067 8.98c0.098 0 0.177 0.079 0.177 0.177s-0.079 0.177-0.177 0.177v0c-0.098 0-0.177-0.079-0.177-0.177s0.079-0.177 0.177-0.177v0zM5.84 10.253h0.213c0.347 0 0.627 0.027 0.627-0.513-0.007-0.533-0.247-0.973-0.587-0.973-0.347 0-0.68 0.447-0.66 0.987 0.007 0.14 0.027 0.24 0.067 0.313-0.307 0.080-0.387 0.267-0.393 0.273 0.187-0.1 0.4-0.087 0.733-0.087zM6.14 9.107c0.001-0 0.002-0 0.003-0 0.098 0 0.177 0.079 0.177 0.177 0 0.096-0.077 0.175-0.173 0.177h-0c-0.001 0-0.002 0-0.003 0-0.098 0-0.177-0.079-0.177-0.177 0-0.096 0.077-0.175 0.173-0.177h0zM15.96 5.64c-0.009-0.075-0.019-0.134-0.030-0.192l0.003 0.019-0.040-0.18-0.013-0.040-0.033-0.027c-0.168-0.131-0.359-0.249-0.561-0.345l-0.019-0.008c-0.167-0.073-0.333-0.147-0.507-0.207-0.478-1.342-1.298-2.464-2.358-3.295l-0.016-0.012c-1.034-0.8-2.349-1.283-3.777-1.283s-2.743 0.483-3.791 1.294l0.014-0.011c-1.073 0.846-1.891 1.969-2.351 3.263l-0.016 0.050-0.5 0.207c-0.2 0.1-0.4 0.207-0.587 0.353l-0.033 0.027-0.013 0.040c-0.030 0.102-0.054 0.222-0.066 0.345l-0.001 0.008c-0.026 0.173-0.041 0.372-0.041 0.575 0 0.166 0.010 0.33 0.029 0.491l-0.002-0.019c0.054 0.441 0.165 0.841 0.324 1.216l-0.011-0.029 0.040 0.087 0.027 0.040 0.027 0.047 0.020 0.033 0.040 0.020c0.020 0.012 0.055 0.029 0.091 0.046l0.016 0.007 0.107 0.047 0.053 0.027c-0.467 0.433-0.98 1-1.427 1.7l-0.56 0.873 0.787-0.687c0.013-0.013 0.667-0.58 1.773-1.227l0.013 0.127c-0.067 0.033-0.42 0.213-0.52 0.3-0.173 0.14-0.18 0.36-0.133 0.773 0.020 0.207 0.1 0.613 0.207 0.987 0.187 0.647 0.32 0.76 0.433 0.787 0.053 0.013 0.127 0.020 0.2 0.020 0.213 0 0.48-0.047 0.66-0.093 0.2 0.64 0.5 1.22 0.853 1.733-0.020 0-0.033 0-0.053 0.013l-1.213-0.567-0.533-0.233 0.313 0.487c0.027 0.033 0.56 0.867 1 1.433 0.437 0.647 1.167 1.067 1.996 1.067 0.013 0 0.026-0 0.040-0l-0.002 0c0.133 0 0.267 0 0.4-0.020l0.733-0.087c0.52 0.201 1.121 0.318 1.75 0.318 0.983 0 1.899-0.285 2.67-0.777l-0.020 0.012c0.44-0.1 0.933-0.22 1.173-0.287l0.133-0.033c0.34-0.080 0.907-0.213 1.207-0.813l0.8-1.553 0.24-0.433-0.453 0.2c-0.027 0.007-0.6 0.26-0.893 0.413-0.013 0-0.020 0.013-0.033 0.020 0.24-0.493 0.36-0.887 0.4-1.040 0.173 0.040 0.42 0.033 0.6 0.033 0.087 0 0.18-0.013 0.24-0.027 0.113-0.033 0.207-0.113 0.38-0.773 0.1-0.387 0.173-0.807 0.187-1.020 0.040-0.427 0.027-0.647-0.14-0.793-0.087-0.067-0.333-0.2-0.467-0.267l0.007-0.047 0.1 0.020 0.12-0.433c0.081-0.039 0.193-0.087 0.308-0.129l0.032-0.011 0.107-0.047 0.147-0.073 0.020-0.033 0.033-0.047 0.020-0.040 0.040-0.087c0.071-0.142 0.135-0.308 0.182-0.481l0.004-0.019c0.1-0.339 0.157-0.729 0.157-1.132 0-0.212-0.016-0.421-0.047-0.624l0.003 0.023zM2.453 7.513c0.071-0.020 0.262-0.059 0.455-0.096l0.112-0.018c-0.173 0.113-0.333 0.24-0.5 0.367zM6.387 7.327c-0.24 0.167-0.507 0.38-0.767 0.64-0.58 0.060-1.153 0.133-1.727 0.227 0.733-0.34 1.58-0.653 2.493-0.867zM5.313 8.3c-0.087 0.1-0.16 0.2-0.24 0.313l-0.453 0.647 0.667-0.44c0 0 0.427-0.287 1.113-0.62 0.683-0.054 1.479-0.085 2.283-0.085 0.196 0 0.392 0.002 0.587 0.005l-0.029-0c-0.133 0.107-0.273 0.213-0.42 0.3l-0.487 0.293c-0.307 0.040-0.573 0.113-0.587 0.12-0.010 0-0.019 0.003-0.027 0.007l0-0c-0.023 0.016-0.040 0.039-0.046 0.066l-0 0.001-0.5 1.633-2.653 0.593-0.84-0.587-0.24-1.973c0.473-0.087 1.107-0.187 1.873-0.273zM8.913 8.7c0.047-0.007 0.967-0.12 2.053-0.493 1.213 0.093 2.2 0.24 2.873 0.36l-0.24 1.68-0.84 0.587-2.653-0.3-0.493-1.627c-0.010-0.036-0.038-0.063-0.073-0.073l-0.001-0c-0.020-0.007-0.347-0.1-0.693-0.133zM10.193 7.14c-0.153 0.2-0.367 0.447-0.627 0.687-0.254-0.007-0.552-0.012-0.852-0.012-0.542 0-1.081 0.014-1.617 0.041l0.075-0.003c0.902-0.388 1.949-0.676 3.042-0.814l0.058-0.006zM2.647 11.573c-0.133-0.133-0.373-1.033-0.427-1.513-0.040-0.387-0.013-0.473 0.027-0.507 0.047-0.040 0.22-0.133 0.367-0.22l0.2 1.64c0 0.027 0.020 0.060 0.047 0.073l0.413 0.293 0.053 0.167c-0.173 0.047-0.52 0.1-0.68 0.067zM9.34 14.68l-0.253 0.033h-0.18l0.153-0.34zM8.867 15.68c-0.068 0.004-0.148 0.007-0.228 0.007-0.389 0-0.765-0.056-1.12-0.16l0.028 0.007 0.093-0.013c0.040 0 0.82-0.107 1.173-0.627h0.12l0.167-0.007c0.133-0.013 0.26-0.033 0.387-0.060l0.040 0.040c0.267 0.267 0.6 0.413 0.953 0.44-0.513 0.207-1.067 0.333-1.613 0.373zM13.727 11.427c-0.153 0.5-0.333 0.933-0.54 1.333h-0.147c-0.16 0-0.32-0.013-0.5-0.027l-0.953-0.1-0.973-0.773-0.040-0.033c-0.073-0.074-0.174-0.12-0.286-0.12-0.005 0-0.010 0-0.015 0l0.001-0c-0.133 0-0.34 0.053-0.84 0.2 0.26-0.193 0.267-0.44 0.267-0.44s-0.373 0.34-0.96 0.413c-0.593 0.080-1.053-0.28-1.053-0.28 0.020 0.060 0.047 0.2 0.18 0.32-0.155-0.019-0.335-0.030-0.517-0.030-0.064 0-0.128 0.001-0.192 0.004l0.009-0c-0.36 0.020-0.867 0.573-1.233 1.127l-1.36 0.413c-0.6-0.82-0.893-1.667-0.92-1.753l-0.033-0.1 0.153 0.107 0.373 0.267 0.133 0.087c0.013 0.013 0.033 0.020 0.060 0.020h0.027l3.467-0.78c0.047 0 0.073-0.033 0.087-0.067l0.493-1.64c0.068-0.010 0.147-0.016 0.227-0.016s0.159 0.006 0.235 0.017l-0.009-0.001 0.507 1.687c0.013 0.040 0.053 0.067 0.1 0.073l3.493 0.4c0.027 0 0.053 0 0.080-0.020l0.327-0.227 0.3-0.213 0.113-0.080zM12.953 11.507l-3.387-0.387-0.507-1.673c-0.012-0.041-0.045-0.071-0.086-0.080l-0.001-0c-0.098-0.018-0.213-0.030-0.331-0.033l-0.003-0c-0.093 0-0.2 0.013-0.333 0.033-0.039 0.011-0.069 0.041-0.080 0.079l-0 0.001-0.5 1.633-3.36 0.747-1.333-0.933-0.267-2.12 0.173-0.1 0.28-0.053 0.247 2c0 0.033 0.020 0.067 0.047 0.080l0.92 0.64c0.013 0.013 0.040 0.020 0.060 0.020h0.027l2.767-0.613 0.027-0.013c0.026-0.014 0.045-0.038 0.053-0.066l0-0.001 0.5-1.64c0.133-0.033 0.467-0.113 0.773-0.113 0.3 0 0.64 0.080 0.78 0.113l0.493 1.64c0.013 0.047 0.053 0.073 0.093 0.080l2.767 0.313c0.027 0 0.053 0 0.080-0.020l0.913-0.64c0.024-0.017 0.041-0.043 0.047-0.073l0-0.001 0.247-1.72 0.46 0.1-0.273 1.893zM15 9.307c0.040 0.033 0.067 0.12 0.033 0.527-0.045 0.552-0.181 1.061-0.392 1.529l0.012-0.029c-0.14 0.027-0.44 0-0.62-0.047l0.067-0.313 0.313-0.22c0.025-0.017 0.042-0.043 0.047-0.073l0-0.001 0.227-1.56zM14.62 8.42c-0.487-0.107-1.553-0.32-3.013-0.467 0.48-0.2 0.967-0.453 1.4-0.767 0.867 0.12 1.507 0.253 1.853 0.333zM15.64 6.647c-0.057 0.406-0.158 0.772-0.298 1.118l0.011-0.032-0.047 0.093-0.047 0.027-0.1 0.040-0.1 0.047 0.173-0.647c-0.237-0.065-0.595-0.144-0.957-0.211l-0.103-0.016 0.067-0.013c0.219-0.057 0.41-0.129 0.59-0.221l-0.016 0.008c0.062-0.034 0.115-0.076 0.16-0.126l0-0.001c-0.64 0.213-1.973 0.113-3.153 0-0.963-0.113-2.090-0.183-3.232-0.193l-0.015-0c-1.093 0-2.173 0.080-3.253 0.187-1.18 0.127-2.507 0.22-3.153 0.007 0.047 0.053 0.107 0.093 0.167 0.127l0.18 0.093c0.151 0.061 0.33 0.114 0.515 0.15l0.019 0.003c-0.58 0.107-0.92 0.2-0.96 0.207l0.18 0.68-0.013 0.013-0.287-0.133-0.047-0.027-0.047-0.093c-0.145-0.317-0.246-0.685-0.285-1.072l-0.001-0.015c-0.024-0.18-0.038-0.387-0.038-0.598 0-0.229 0.016-0.454 0.047-0.674l-0.003 0.025c0.147-0.12 0.307-0.227 0.473-0.333 0.408-0.227 0.893-0.452 1.396-0.641l0.077-0.026 0.313-0.107c-0.404 0.065-0.759 0.153-1.102 0.267l0.048-0.014c0.886-2.418 3.143-4.124 5.807-4.18l0.007-0c2.533 0 4.847 1.647 5.813 4.18-0.284-0.094-0.637-0.182-0.997-0.246l-0.050-0.007c0.512 0.181 0.911 0.345 1.301 0.526l-0.094-0.039c0.193 0.087 0.387 0.187 0.567 0.293 0.173 0.093 0.333 0.2 0.48 0.327l0.020 0.113 0.013 0.16c0.008 0.107 0.013 0.231 0.013 0.356 0 0.218-0.014 0.432-0.043 0.642l0.003-0.025zM7.907 2.947h-0.96v-1.36h3.4v1.36h-0.967v-0.4h-0.22v1.84h0.333v1.027h-1.693v-1.027h0.333v-1.84h-0.22z"></path>
</svg>
