<!-- Generated by IcoMoon.io -->
<svg version="1.1" xmlns="http://www.w3.org/2000/svg" width="16" height="16" viewBox="0 0 16 16">
<title>treehouse</title>
<path fill="#5fcf80" d="M13.691 2.745c-0.537-0.302-1.395 0.185-1.914 1.090l-0.944 1.641c-0.143 0.274-0.227 0.599-0.227 0.943 0 0.44 0.137 0.848 0.372 1.184l-0.004-0.007 0.027 0.041c0.435 0.627 1.023 1.205 1.215 1.412 0.18 0.192 0.29 0.45 0.29 0.735 0 0.49-0.327 0.903-0.775 1.033l-0.008 0.002c-0.087 0.025-0.187 0.040-0.29 0.040-0.59 0-1.069-0.478-1.069-1.069 0-0.048 0.003-0.095 0.009-0.142l-0.001 0.005c0.030-0.233-0.045-0.618-0.383-0.993s-1.027 0.333-1.249 1.073l-0.011 0.041c-0.223 0.729-0.364 1.367-0.321 1.429 0.025 0.040 0.048 0.080 0.070 0.121 0.089 0.164 0.141 0.359 0.141 0.567 0 0.667-0.54 1.207-1.207 1.207-0.459 0-0.858-0.256-1.062-0.633l-0.003-0.006c-0.089-0.164-0.142-0.359-0.142-0.567 0-0.459 0.256-0.857 0.633-1.061l0.006-0.003 0.081-0.041c0.043-0.020 0.173-0.324 0.282-0.688l0.201-0.658c0.013-0.031 0.022-0.071 0.030-0.112l0.598-2.127-0.638 1.307c-0.075-0.242-0.2-0.253-0.473-0.061-0.162 0.122-0.435 0.354-0.567 0.446-0.243 0.182-0.457 0.525-0.567 0.739-0.064 0.135-0.157 0.247-0.271 0.332l-0.002 0.002c-0.456 0.376-1.125 0.304-1.489-0.151-0.145-0.18-0.233-0.412-0.233-0.664 0-0.508 0.357-0.933 0.834-1.036l0.007-0.001c0.273-0.061 1.185-0.618 1.731-1.013 0.101-0.071 0.183-0.131 0.253-0.203l1.469-1.113-1.276 0.688c0 0-0.131-0.011-0.284 0.011-0.465 0.050-0.952 0.121-1.043 0.233-0.052 0.073-0.116 0.133-0.191 0.18l-0.003 0.002c-0.425 0.304-1.013 0.213-1.326-0.211-0.109-0.154-0.175-0.345-0.175-0.552 0-0.319 0.156-0.602 0.396-0.776l0.003-0.002c0.173-0.122 0.385-0.183 0.577-0.183 0.345 0.011 1.247 0.193 1.995 0.061l0.192-0.030c0.76-0.131 1.651-0.791 2.016-1.458l0.789-1.378c0.435-0.759 0.405-1.589-0.070-1.863l-0.882-0.507c-0.435-0.242-1.143-0.242-1.569 0l-5.905 3.311c-0.445 0.233-0.799 0.84-0.799 1.337v6.496c0 0.496 0.355 1.104 0.785 1.347l5.9 3.322c0.435 0.243 1.144 0.243 1.569 0l5.884-3.322c0.435-0.245 0.789-0.851 0.789-1.347v-6.507c0-0.496-0.354-1.102-0.779-1.347l-0.973-0.549z"></path>
</svg>
