<!-- Generated by IcoMoon.io -->
<svg version="1.1" xmlns="http://www.w3.org/2000/svg" width="16" height="16" viewBox="0 0 16 16">
<title>trello</title>
<path fill="#0079bf" d="M14 0h-12c-1.105 0-2 0.895-2 2v12c0 1.104 0.895 2 2 2h12c1.104 0 2-0.896 2-2v-12c0-1.105-0.896-2-2-2zM6.96 12.12c0 0.53-0.43 0.96-0.96 0.96h-2.96c-0.53 0-0.96-0.431-0.96-0.96v-9.080c0-0.53 0.43-0.96 0.96-0.96h2.96c0.53 0 0.96 0.43 0.96 0.96zM13.92 8.12c0 0.529-0.43 0.96-0.96 0.96h-2.96c-0.53 0-0.96-0.431-0.96-0.96v-5.080c0-0.53 0.431-0.96 0.96-0.96h2.96c0.53 0 0.96 0.43 0.96 0.96z"></path>
</svg>
