<!-- Generated by IcoMoon.io -->
<svg version="1.1" xmlns="http://www.w3.org/2000/svg" width="16" height="16" viewBox="0 0 16 16">
<title>trendmicro</title>
<path fill="#d71921" d="M8 0c-4.413 0-8 3.58-8 8 0 1.633 0.489 3.147 1.333 4.413-0.333-0.78-0.28-1.787 0.127-2.887l0.007-0.027 0.033-0.087 0.033-0.080 0.013-0.033c0.147-0.367 0.333-0.747 0.56-1.127 0.033-0.067 0.060-0.127 0.093-0.173h-0.96l0.233-0.527c0.793-0.22 2.113-0.66 3.373-1.88h0.7l-0.86 1.833h1.38l-0.253 0.547h-1.373c0 0-0.647 1.293-0.867 2.213-0.167 1.027 0 1.813 0.92 2.087 0.567 0.173 1.28 0.133 2.047-0.080 1.793-0.56 3.687-1.78 5.080-3.407 2.293-2.66 2.34-5.387 0.1-6.087-1.433-0.447-3.46 0.053-5.333 1.167 2.333-1.507 4.907-2.2 6.673-1.66 0.333 0.1 0.627 0.247 0.867 0.42-1.466-1.616-3.574-2.627-5.918-2.627-0.003 0-0.006 0-0.009 0h0zM14.78 3.753c0.553 1.453-0.133 3.627-1.98 5.773-2.773 3.227-7.153 5.173-9.8 4.36-0.32-0.1-0.599-0.241-0.849-0.419l0.009 0.006c1.459 1.557 3.528 2.527 5.823 2.527 0.006 0 0.012 0 0.018-0h-0.001c4.42 0 8-3.58 8-8 0-1.56-0.447-3-1.22-4.247z"></path>
</svg>
