<!-- Generated by IcoMoon.io -->
<svg version="1.1" xmlns="http://www.w3.org/2000/svg" width="16" height="16" viewBox="0 0 16 16">
<title>tripadvisor</title>
<path fill="#00af87" d="M15.341 6.355c0.187-0.805 0.783-1.611 0.783-1.611h-2.675c-1.501-0.97-3.321-1.484-5.342-1.484-2.093 0-3.985 0.52-5.476 1.501h-2.507c0 0 0.59 0.791 0.78 1.591-0.488 0.671-0.778 1.481-0.778 2.371 0 2.211 1.798 4.005 4.008 4.005 1.261 0 2.381-0.59 3.121-1.503l0.85 1.277 0.861-1.291c0.38 0.491 0.88 0.891 1.47 1.16 0.97 0.44 2.061 0.491 3.061 0.12 2.071-0.769 3.131-3.081 2.371-5.151-0.139-0.371-0.32-0.701-0.54-0.99zM13.227 11.736c-0.8 0.297-1.67 0.263-2.447-0.095-0.549-0.255-1.002-0.655-1.325-1.151-0.134-0.199-0.25-0.415-0.335-0.647-0.097-0.263-0.147-0.535-0.173-0.81-0.049-0.555 0.030-1.115 0.27-1.635 0.36-0.776 1.001-1.367 1.801-1.664 1.66-0.609 3.5 0.241 4.111 1.894s-0.24 3.497-1.89 4.109zM6.781 10.513c-0.575 0.847-1.548 1.409-2.649 1.409-1.764 0-3.201-1.437-3.201-3.198s1.437-3.201 3.201-3.201 3.199 1.441 3.199 3.201c0 0.109-0.020 0.209-0.032 0.319-0.054 0.541-0.227 1.051-0.518 1.481zM2.1 8.682c0 1.094 0.891 1.981 1.981 1.981s1.979-0.887 1.979-1.981c0-1.090-0.889-1.976-1.977-1.976-1.091 0-1.981 0.886-1.981 1.976zM10.132 8.682c0 1.094 0.886 1.981 1.979 1.981 1.091 0 1.977-0.887 1.977-1.981 0-1.090-0.886-1.976-1.977-1.976s-1.981 0.886-1.981 1.976zM2.784 8.682c0-0.714 0.579-1.295 1.291-1.295 0.709 0 1.299 0.582 1.299 1.295 0 0.717-0.579 1.301-1.299 1.301s-1.301-0.583-1.301-1.301zM10.806 8.682c0-0.714 0.579-1.295 1.299-1.295 0.711 0 1.291 0.582 1.291 1.295 0 0.717-0.58 1.301-1.301 1.301-0.719 0-1.299-0.583-1.299-1.301zM8.104 3.96c1.441 0 2.741 0.259 3.881 0.775-0.43 0.012-0.85 0.087-1.271 0.24-1.010 0.37-1.81 1.11-2.25 2.083-0.21 0.44-0.32 0.906-0.361 1.377-0.15-2.051-1.84-3.677-3.921-3.719 1.141-0.489 2.461-0.756 3.891-0.756z"></path>
</svg>
