<!-- Generated by IcoMoon.io -->
<svg version="1.1" xmlns="http://www.w3.org/2000/svg" width="16" height="16" viewBox="0 0 16 16">
<title>trulia</title>
<path fill="#53b50a" d="M8 0c-2.54 0.014-4.181 1.72-4.181 4.297 0 2.134 1.392 3.96 2.185 6.733 0.456 1.59 0.701 3.535 0.828 4.97h2.336c0.128-1.435 0.372-3.38 0.827-4.97 0.793-2.773 2.185-4.599 2.185-6.733 0.001-2.577-1.64-4.283-4.18-4.297zM8.013 6.568c-1.056 0-1.913-0.857-1.913-1.913s0.857-1.911 1.913-1.911c1.057 0 1.913 0.855 1.913 1.911s-0.857 1.913-1.913 1.913z"></path>
</svg>
