<!-- Generated by IcoMoon.io -->
<svg version="1.1" xmlns="http://www.w3.org/2000/svg" width="16" height="16" viewBox="0 0 16 16">
<title>turkishairlines</title>
<path fill="#c70a0c" d="M0.112 9.325c0.181 1.082 0.573 2.077 1.127 2.949 2.063-0.575 3.878-1.663 4.523-4.088 0.71-2.669-0.1-5.466-2.038-6.948-2.64 1.671-4.162 4.813-3.612 8.087zM15.888 6.675c0.732 4.356-2.205 8.481-6.563 9.213-0.733 0.123-1.46 0.143-2.163 0.069-2.328-0.254-4.329-1.471-5.624-3.239l-0.016-0.023 12.952-3.713c0.186-0.053 0.138-0.233-0.016-0.222l-5.43 0.379c0.765-0.739 1.347-1.645 1.277-2.897-0.143-2.029-2.207-4.009-6.047-5.311 1.086-0.587 2.378-0.932 3.75-0.932 0.292 0 0.581 0.016 0.866 0.046l-0.035-0.003c3.485 0.365 6.442 3.008 7.051 6.633z"></path>
</svg>
