<!-- Generated by IcoMoon.io -->
<svg version="1.1" xmlns="http://www.w3.org/2000/svg" width="16" height="16" viewBox="0 0 16 16">
<title>twilio</title>
<path fill="#f22f46" d="M8 0c-4.413-0.005-7.995 3.568-8 7.981v0.019c0 4.427 3.573 8 8 8s8-3.573 8-8c0-4.427-3.573-8-8-8zM8 13.867c-3.231 0.010-5.857-2.603-5.867-5.833v-0.034c-0.009-3.231 2.603-5.857 5.833-5.867h0.034c3.231-0.009 5.857 2.603 5.867 5.833v0.034c0.010 3.231-2.603 5.857-5.833 5.867zM11.627 6.027c0 0.906-0.747 1.653-1.654 1.653-0.911-0.005-1.648-0.742-1.653-1.653 0-0.907 0.747-1.654 1.653-1.654 0.907 0 1.654 0.747 1.654 1.654zM11.627 9.973c0 0.907-0.747 1.653-1.654 1.653-0.911-0.005-1.649-0.743-1.653-1.653 0-0.906 0.747-1.653 1.653-1.653 0.907-0.001 1.654 0.747 1.654 1.653zM7.681 9.973c0 0.907-0.747 1.653-1.653 1.653-0.912-0.005-1.65-0.742-1.654-1.653 0-0.906 0.747-1.653 1.654-1.653 0.905-0.001 1.653 0.747 1.653 1.653zM7.681 6.027c0 0.906-0.747 1.653-1.653 1.653-0.911-0.005-1.65-0.741-1.654-1.653 0-0.907 0.747-1.654 1.654-1.654 0.905 0 1.653 0.747 1.653 1.654z"></path>
</svg>
