<!-- Generated by IcoMoon.io -->
<svg version="1.1" xmlns="http://www.w3.org/2000/svg" width="16" height="16" viewBox="0 0 16 16">
<title>twitter</title>
<path fill="#1da1f2" d="M15.969 3.046c-0.59 0.259-1.22 0.436-1.883 0.517 0.676-0.407 1.196-1.049 1.442-1.815-0.634 0.37-1.337 0.639-2.085 0.789-0.597-0.639-1.449-1.039-2.394-1.039-1.811 0-3.28 1.469-3.28 3.278 0 0.26 0.030 0.51 0.085 0.749-2.727-0.129-5.143-1.438-6.761-3.417-0.285 0.481-0.444 1.041-0.444 1.65 0 1.14 0.58 2.142 1.459 2.731-0.538-0.017-1.044-0.165-1.485-0.411v0.041c0 1.59 1.129 2.916 2.631 3.218-0.275 0.074-0.566 0.114-0.864 0.114-0.209 0-0.41-0.020-0.611-0.057 0.421 1.302 1.63 2.251 3.069 2.278-1.12 0.879-2.539 1.403-4.068 1.403-0.26 0-0.519-0.015-0.78-0.045 1.459 0.929 3.179 1.473 5.038 1.473 6.036 0 9.333-4.997 9.333-9.324 0-0.139 0-0.28-0.010-0.42 0.641-0.459 1.2-1.040 1.64-1.699z"></path>
</svg>
