<!-- Generated by IcoMoon.io -->
<svg version="1.1" xmlns="http://www.w3.org/2000/svg" width="16" height="16" viewBox="0 0 16 16">
<title>twoo</title>
<path fill="#ff7102" d="M6.744 11.251c0.043-0.036 0.086-0.073 0.126-0.112-0.806 0.784-1.837 1.171-2.861 1.157h-0.015c-1.030-0.017-2.053-0.437-2.83-1.263-0.489-0.52-0.822-1.139-1.005-1.794v-0.005c-0.403-1.466-0.043-3.116 1.070-4.271 1.564-1.623 4.048-1.661 5.639-0.137l1.172 1.23 2.819 2.989h0.012c0.030 0.031 0.060 0.051 0.079 0.081 0.57 0.519 1.441 0.5 1.991-0.070 0.579-0.6 0.6-1.58 0.031-2.19-0.061-0.070-0.131-0.13-0.202-0.18l-0.16-0.111c-0.549-0.299-1.25-0.2-1.72 0.28-0.070 0.070-0.13 0.151-0.18 0.231-0.201 0.31-0.271 0.68-0.231 1.041l-1.009-1.019-1.171-1.11c0.191-0.375 0.438-0.73 0.743-1.046 0.070-0.070 0.141-0.14 0.212-0.205-0.043 0.037-0.086 0.074-0.126 0.112 0.806-0.784 1.837-1.169 2.861-1.156h0.015c1.030 0.017 2.053 0.437 2.831 1.263 0.488 0.519 0.821 1.138 1.004 1.795v0.004c0.403 1.465 0.044 3.117-1.070 4.27-1.564 1.623-4.048 1.663-5.639 0.137l-0.809-0.857-0.362-0.387-2.817-3.001-0.003-0.010c-0.011 0-0.011-0.010-0.011-0.010-0.030-0.031-0.060-0.060-0.081-0.091-0.569-0.52-1.44-0.51-1.989 0.070-0.58 0.6-0.6 1.58-0.030 2.181 0.060 0.070 0.13 0.12 0.2 0.18l0.16 0.1c0.55 0.291 1.251 0.2 1.72-0.291 0.070-0.069 0.131-0.15 0.181-0.23 0.201-0.31 0.269-0.689 0.23-1.050l1.010 1.041 1.172 1.181c-0.19 0.376-0.438 0.731-0.743 1.046-0.069 0.070-0.14 0.14-0.212 0.204z"></path>
</svg>
