<!-- Generated by IcoMoon.io -->
<svg version="1.1" xmlns="http://www.w3.org/2000/svg" width="16" height="16" viewBox="0 0 16 16">
<title>typo3</title>
<path fill="#ff8700" d="M12.053 11.026c-0.237 0.070-0.427 0.096-0.675 0.096-2.032 0-5.016-7.101-5.016-9.465 0-0.87 0.207-1.16 0.497-1.409-2.486 0.291-5.471 1.203-6.425 2.363-0.207 0.291-0.331 0.747-0.331 1.327 0 3.69 3.937 12.062 6.716 12.062 1.285 0 3.452-2.112 5.235-4.973zM10.756 0c2.57 0 5.142 0.415 5.142 1.865 0 2.943-1.867 6.51-2.82 6.51-1.699 0-3.813-4.727-3.813-7.090 0-1.079 0.414-1.285 1.491-1.285z"></path>
</svg>
