<!-- Generated by IcoMoon.io -->
<svg version="1.1" xmlns="http://www.w3.org/2000/svg" width="16" height="16" viewBox="0 0 16 16">
<title>ubereats</title>
<path fill="#5fb709" d="M0 1.833v3.393c0 1.28 0.893 2.127 2.053 2.127 0.567 0 1.073-0.22 1.433-0.6v0.507h0.807v-5.427h-0.813v3.347c0 0.86-0.58 1.44-1.333 1.44-0.76 0-1.333-0.567-1.333-1.44v-3.347h-0.813zM4.9 1.833v5.427h0.767v-0.5c0.359 0.366 0.858 0.593 1.411 0.593 0.003 0 0.007-0 0.010-0h-0.001c0.004 0 0.009 0 0.013 0 1.138 0 2.060-0.922 2.060-2.060 0-0.002 0-0.005-0-0.007v0c0-0.002 0-0.004 0-0.007 0-1.138-0.922-2.060-2.060-2.060-0.005 0-0.009 0-0.014 0h0.001c-0.553 0-1.047 0.227-1.42 0.587v-1.973h-0.767zM11.507 3.227c-1.173 0-2.033 0.94-2.033 2.053 0 1.18 0.913 2.053 2.1 2.053 0.72 0 1.313-0.307 1.707-0.833l-0.567-0.42c-0.293 0.393-0.68 0.587-1.14 0.587-0.667 0-1.2-0.487-1.307-1.127h3.213v-0.26c0-1.173-0.833-2.053-1.973-2.053zM15.633 3.273c-0.433 0-0.747 0.2-0.94 0.52v-0.487h-0.78v3.953h0.787v-2.26c0-0.6 0.373-1 0.88-1h0.327v-0.727h-0.273zM11.487 3.907c0.587 0 1.073 0.407 1.207 1.013h-2.413c0.14-0.607 0.627-1.013 1.207-1.013zM7.033 3.92c0.74 0 1.353 0.6 1.353 1.367 0 0.76-0.613 1.38-1.353 1.38-0.002 0-0.004 0-0.007 0-0.751 0-1.36-0.609-1.36-1.36 0-0.007 0-0.014 0-0.021l-0 0.001c0-0.767 0.613-1.367 1.367-1.367zM0 8.64v5.427h3.813v-0.927h-2.78v-1.347h2.707v-0.9h-2.707v-1.327h2.78v-0.927h-3.813zM9.707 8.92v1.14h-0.773v0.907h0.773v2.133c0 0.54 0.38 0.967 1.067 0.967h1.093v-0.907h-0.76c-0.233 0-0.38-0.107-0.38-0.32v-1.873h1.14v-0.907h-1.14v-1.14h-1.020zM6.213 9.96c-1.193 0-2.133 0.933-2.133 2.107 0 1.167 0.94 2.1 2.133 2.1 0.48 0 0.927-0.167 1.28-0.46v0.36h1.013v-4.007h-1.013v0.36c-0.34-0.286-0.783-0.46-1.266-0.46-0.005 0-0.010 0-0.014 0h0.001zM14.027 9.96c-1.060 0-1.8 0.433-1.8 1.28 0 0.58 0.407 0.96 1.287 1.147l0.967 0.227c0.38 0.073 0.48 0.173 0.48 0.333 0 0.247-0.293 0.407-0.753 0.407-0.58 0-0.913-0.133-1.047-0.573h-1.020c0.147 0.833 0.767 1.387 2.033 1.387 1.16 0 1.827-0.553 1.827-1.327 0-0.547-0.387-0.953-1.207-1.127l-0.86-0.18c-0.5-0.093-0.66-0.2-0.66-0.373 0-0.24 0.24-0.387 0.687-0.387 0.48 0 0.833 0.133 0.933 0.56h1.013c-0.053-0.82-0.66-1.373-1.88-1.373zM6.3 10.84c0.673 0 1.213 0.54 1.213 1.227s-0.54 1.22-1.213 1.22c-0.002 0-0.004 0-0.007 0-0.67 0-1.213-0.543-1.213-1.213 0-0.002 0-0.005 0-0.007v0c0-0.687 0.553-1.227 1.22-1.227z"></path>
</svg>
