<!-- Generated by IcoMoon.io -->
<svg version="1.1" xmlns="http://www.w3.org/2000/svg" width="16" height="16" viewBox="0 0 16 16">
<title>uber</title>
<path d="M0 5.313v3.307c0 1.247 0.867 2.067 2 2.067 0.553 0 1.040-0.213 1.393-0.58v0.493h0.787v-5.287h-0.793v3.26c0 0.84-0.567 1.407-1.293 1.407-0.74 0-1.3-0.553-1.3-1.407v-3.26h-0.793zM4.96 5.313v5.287h0.753v-0.487c0.348 0.354 0.833 0.573 1.369 0.573 0.002 0 0.003 0 0.005 0h-0c0.006 0 0.013 0 0.020 0 1.105 0 2-0.895 2-2 0-0.007-0-0.014-0-0.021l0 0.001c0-0 0-0 0-0 0-1.105-0.895-2-2-2-0.007 0-0.014 0-0.021 0l0.001-0c-0.001 0-0.002 0-0.004 0-0.534 0-1.016 0.219-1.363 0.573l-0 0v-1.927h-0.76zM11.54 6.667c-1.127 0-1.98 0.92-1.98 2 0 1.153 0.893 2 2.047 2 0.707 0 1.28-0.293 1.66-0.807l-0.547-0.413c-0.287 0.387-0.667 0.553-1.113 0.553-0.647 0-1.167-0.453-1.273-1.080h3.133v-0.253c0-1.14-0.82-2-1.927-2zM15.733 6.72c-0.42 0-0.733 0.193-0.92 0.5v-0.473h-0.753v3.853h0.76v-2.193c0-0.593 0.367-0.98 0.867-0.98h0.313v-0.713h-0.267zM11.527 7.333c0.567 0 1.040 0.393 1.167 0.98h-2.36c0.153-0.587 0.627-0.98 1.193-0.98zM7.033 7.333c0.727 0 1.32 0.6 1.32 1.333 0 0.753-0.593 1.333-1.32 1.333-0.734-0.004-1.327-0.599-1.327-1.333 0 0 0-0 0-0v0c0 0 0-0 0-0 0-0.734 0.593-1.33 1.326-1.333h0z"></path>
</svg>
