<!-- Generated by IcoMoon.io -->
<svg version="1.1" xmlns="http://www.w3.org/2000/svg" width="16" height="16" viewBox="0 0 16 16">
<title>ubisoft</title>
<path d="M15.707 7.993c-0.173-8.195-11.072-11.253-15.271-3.57 0.188 0.137 0.441 0.318 0.629 0.448-0.29 0.591-0.516 1.278-0.644 1.998l-0.007 0.047c-0.078 0.415-0.122 0.892-0.123 1.38v0c0 4.249 3.455 7.704 7.711 7.704s7.704-3.447 7.704-7.704zM2.193 9.365c-0.101 0.831-0.036 1.091-0.036 1.193l-0.188 0.065c-0.072-0.137-0.246-0.621-0.325-1.272-0.203-2.479 1.489-4.712 4.069-5.131 2.363-0.347 4.625 1.12 5.153 3.173l-0.188 0.065c-0.058-0.058-0.152-0.224-0.513-0.585-2.855-2.855-7.335-1.547-7.971 2.493zM9.529 10.753c-0.384 0.549-1.012 0.903-1.724 0.903-0.001 0-0.002 0-0.004 0h0c-0.001 0-0.002 0-0.003 0-1.16 0-2.101-0.941-2.101-2.101 0-0.001 0-0.002 0-0.003v0c0.002-1.107 0.858-2.013 1.944-2.096l0.007-0c0.679-0.029 1.315 0.34 1.611 0.932 0.114 0.224 0.181 0.489 0.181 0.769 0 0.465-0.185 0.888-0.485 1.197l0-0c0.195 0.137 0.383 0.267 0.571 0.398zM13.915 10.833c-1.113 2.522-3.404 3.845-5.847 3.809-4.69-0.231-6.056-5.644-2.92-7.595l0.137 0.137c-0.051 0.072-0.239 0.217-0.527 0.788-0.34 0.694-0.448 1.387-0.405 1.821 0.246 3.78 5.543 4.553 7.364 0.809 2.32-5.124-3.837-10.335-9.301-6.353l-0.123-0.123c1.438-2.255 4.249-3.259 6.931-2.587 4.098 1.033 6.302 5.305 4.691 9.293z"></path>
</svg>
