<!-- Generated by IcoMoon.io -->
<svg version="1.1" xmlns="http://www.w3.org/2000/svg" width="16" height="16" viewBox="0 0 16 16">
<title>ublockorigin</title>
<path fill="#800000" d="M8 0c-2.999 2-3.999 2-7 2 0 10.001 0 10.001 7 14 7-3.999 7-3.999 7-14-2.999 0-3.999 0-7-2zM3.971 4.981h1.008v3.024c0 0.881 0.127 1.005 1.008 1.005s1.008-0.127 1.008-1.008v-3.021h1.005v0.511c0.415-0.318 0.941-0.511 1.512-0.511h0c1.389 0.005 2.514 1.131 2.517 2.52v0c-0.006 1.389-1.131 2.513-2.52 2.517h-0c-0.701-0.002-1.334-0.29-1.789-0.755l-0-0c-0.309 0.513-0.877 0.755-1.733 0.755-1.386 0-2.016-0.629-2.016-2.015zM9.509 5.989c-0.002-0-0.004-0-0.007-0-0.83 0-1.503 0.673-1.503 1.503 0 0.003 0 0.007 0 0.010v-0c-0 0.002-0 0.004-0 0.007 0 0.83 0.673 1.503 1.503 1.503 0.003 0 0.007-0 0.010-0h-0.001c0.002 0 0.004 0 0.007 0 0.83 0 1.503-0.673 1.503-1.503 0-0.003-0-0.007-0-0.010v0c0-0.002 0-0.004 0-0.007 0-0.83-0.673-1.503-1.503-1.503-0.003 0-0.007 0-0.010 0h0.001z"></path>
</svg>
