<!-- Generated by IcoMoon.io -->
<svg version="1.1" xmlns="http://www.w3.org/2000/svg" width="16" height="16" viewBox="0 0 16 16">
<title>ubuntu</title>
<path fill="#e95420" d="M8 0c4.415 0 8 3.585 8 8s-3.585 8-8 8-8-3.585-8-8 3.585-8 8-8zM10.186 11.787c-0.511 0.294-0.686 0.948-0.391 1.459 0.294 0.51 0.948 0.685 1.459 0.389 0.511-0.294 0.686-0.948 0.39-1.459-0.294-0.51-0.947-0.685-1.458-0.389zM8 11.12c-0.47 0-0.915-0.105-1.314-0.29l-0.742 1.33c0.62 0.306 1.319 0.481 2.056 0.481 0.431 0 0.845-0.061 1.24-0.171 0.069-0.429 0.323-0.823 0.73-1.058 0.406-0.234 0.875-0.257 1.28-0.104 0.791-0.775 1.305-1.833 1.38-3.010l-1.523-0.022c-0.14 1.594-1.477 2.844-3.107 2.844zM4.88 8c0-1.055 0.525-1.987 1.327-2.553l-0.78-1.307c-0.936 0.62-1.63 1.579-1.921 2.69 0.337 0.269 0.553 0.689 0.553 1.16 0 0.469-0.216 0.879-0.553 1.159 0.291 1.11 0.985 2.069 1.921 2.689l0.78-1.31c-0.802-0.548-1.327-1.479-1.327-2.528zM2.56 6.932c-0.59 0-1.068 0.478-1.068 1.068s0.478 1.068 1.068 1.068 1.067-0.478 1.067-1.068-0.477-1.068-1.067-1.068zM8 4.88c1.63 0 2.967 1.25 3.107 2.843l1.523-0.023c-0.075-1.177-0.59-2.233-1.38-3.011-0.406 0.155-0.875 0.129-1.28-0.103-0.406-0.235-0.66-0.63-0.73-1.061-0.396-0.107-0.809-0.167-1.24-0.167-0.74 0-1.437 0.173-2.056 0.48l0.742 1.33c0.4-0.186 0.845-0.29 1.314-0.29zM10.186 4.213c0.51 0.295 1.164 0.121 1.459-0.39 0.294-0.51 0.121-1.164-0.392-1.46-0.51-0.293-1.164-0.119-1.459 0.393-0.294 0.509-0.12 1.163 0.392 1.457z"></path>
</svg>
