<!-- Generated by IcoMoon.io -->
<svg version="1.1" xmlns="http://www.w3.org/2000/svg" width="16" height="16" viewBox="0 0 16 16">
<title>udacity</title>
<path fill="#01b3e3" d="M5.34 0.092l-5.34 3.028v6.972c-0.010 3.202 2.61 5.807 5.85 5.817 1.069 0.003 2.077-0.279 2.943-0.769l4.325-2.457c1.707-0.871 2.875-2.631 2.882-4.661v-7.291l-1.060-0.611-4.335 2.421v7.582c-0.002 0.321-0.017 0.557-0.102 0.957-0.144 0.61-0.347 1.041-0.383 1.11-0.341-0.020-1.031-0.209-1.591-0.54-0.28-0.16-0.609-0.401-0.909-0.681-0.2-0.19-0.371-0.41-0.52-0.63-0.16-0.23-0.29-0.469-0.39-0.719-0.11-0.261-0.189-0.52-0.25-0.79-0.060-0.281-0.069-0.57-0.069-0.85l0.010-7.279-1.060-0.605zM7.798 14.481c-0.291 0.119-0.593 0.211-0.9 0.273-0.318 0.063-0.611 0.094-0.935 0.094s-0.652-0.035-0.968-0.101c-0.307-0.061-0.61-0.156-0.9-0.278-0.283-0.119-0.557-0.269-0.813-0.439-0.66-0.461-1-0.861-1.294-1.291-0.173-0.26-0.32-0.53-0.44-0.81-0.122-0.29-0.215-0.591-0.277-0.89-0.060-0.31-0.069-0.641-0.069-0.959v-6.36l4-2.414v6.674c0 2.537 1.879 4.653 4.3 5.165-0.090 0.11-0.16 0.221-0.261 0.32-0.22 0.215-0.45 0.416-0.709 0.585-0.25 0.171-0.43 0.31-0.71 0.429zM14.735 8.875c-0.058 0.269-0.141 0.535-0.25 0.791-0.293 0.637-0.765 1.18-1.16 1.529-0.811 0.734-1.817 0.96-1.932 0.96 0.241-0.632 0.405-1.31 0.407-2.026v-6.979l3.003-1.817 0.002 6.673c0 0.287-0.012 0.586-0.070 0.864z"></path>
</svg>
