<!-- Generated by IcoMoon.io -->
<svg version="1.1" xmlns="http://www.w3.org/2000/svg" width="16" height="16" viewBox="0 0 16 16">
<title>udemy</title>
<path fill="#ec5252" d="M15.72 8.92c-0.052-0.044-0.115-0.077-0.184-0.093l-0.003-0.001c-0.4 0.407-0.9 0.833-1.333 1.12-0.207 0.133-0.467 0.2-0.633 0.2-0.393 0-0.56-0.367-0.607-0.96-0.073-0.866-0.115-1.875-0.115-2.894 0-0.115 0.001-0.229 0.002-0.344l-0 0.017c0-1.507-0.347-2.533-1.253-2.613l-0.12-0.007c-0.553 0-0.827 0.287-1.18 1.013-0.307 0.627-0.78 1.533-1.653 3.267-0.719 1.42-1.494 2.638-2.373 3.773l0.040-0.053c-0.207 0.253-0.367 0.427-0.52 0.533-0.082 0.057-0.184 0.092-0.293 0.093h-0c-0.287 0-0.5-0.24-0.567-0.807-0.017-0.132-0.027-0.285-0.027-0.44 0-0.007 0-0.014 0-0.021v0.001c0-1.167 0.44-3.067 1.2-5.853 0.553-2.033 0.32-3.42-0.893-3.42h-0.020c-0.273 0-0.5 0.107-0.72 0.28-0.22 0.167-0.433 0.54-0.64 1.040-0.227 0.56-1.613 3.353-3.827 4.8-0.027 0.54 0.28 1.087 0.913 1.153 0.567 0.053 0.973-0.187 1.493-0.54l-0.107 0.487c-0.111 0.434-0.227 1.021-0.319 1.616l-0.015 0.117c-0.307 2.8 0.98 4.18 2.493 4.18 0.253 0 0.507-0.033 0.753-0.1 1.667-0.42 3.267-2.34 5.167-6.753-0.014 0.22-0.022 0.477-0.022 0.735 0 0.215 0.005 0.429 0.016 0.641l-0.001-0.030c0.127 2.533 1.12 3.287 2.533 3.287 1.067 0 2.060-0.553 2.567-1.247 0.316-0.399 0.512-0.905 0.527-1.457l0-0.003c-0.013-0.327-0.113-0.587-0.28-0.72z"></path>
</svg>
