<!-- Generated by IcoMoon.io -->
<svg version="1.1" xmlns="http://www.w3.org/2000/svg" width="16" height="16" viewBox="0 0 16 16">
<title>umbraco</title>
<path fill="#00bec1" d="M0 8c0-4.319 3.575-7.787 8-7.787s8 3.469 8 7.787c0 4.317-3.575 7.787-8 7.787s-8-3.469-8-7.787zM7.823 10.653c-0.779 0-1.415-0.069-1.84-0.141-0.496-0.105-0.815-0.389-1.027-0.779-0.177-0.391-0.283-1.026-0.247-1.876 0-0.459 0.035-0.885 0.069-1.31 0.072-0.424 0.107-0.778 0.178-1.063l0.070-0.283v-0.035c0-0.070-0.070-0.142-0.141-0.142l-1.027-0.141h-0.035c-0.070 0-0.142 0.070-0.177 0.107 0 0.069-0.035 0.106-0.069 0.247-0.072 0.319-0.107 0.601-0.178 0.991-0.073 0.457-0.109 0.919-0.106 1.381 0 0-0.035 0.106 0 0.956s0.177 1.522 0.46 2.053c0.283 0.495 0.744 0.884 1.416 1.097 0.673 0.213 1.593 0.319 2.761 0.319h0.142c1.169 0 2.088-0.105 2.76-0.319 0.673-0.212 1.134-0.601 1.417-1.097 0.283-0.53 0.425-1.203 0.46-2.053s0-0.956 0-0.956c0-0.495-0.069-0.957-0.107-1.379-0.070-0.425-0.105-0.709-0.177-0.991-0.035-0.141-0.035-0.213-0.070-0.247 0-0.071-0.070-0.107-0.177-0.107h-0.035l-1.027 0.141c-0.070 0-0.142 0.071-0.142 0.142v0.035l0.071 0.283c0.071 0.285 0.105 0.638 0.177 1.062 0.070 0.426 0.070 0.85 0.070 1.31 0 0.85-0.069 1.451-0.247 1.876-0.177 0.391-0.53 0.673-1.026 0.779-0.426 0.107-1.063 0.142-1.841 0.142h-0.354z"></path>
</svg>
