<!-- Generated by IcoMoon.io -->
<svg version="1.1" xmlns="http://www.w3.org/2000/svg" width="16" height="16" viewBox="0 0 16 16">
<title>unrealengine</title>
<path d="M7.999 0c-4.381 0-7.933 3.582-7.933 8s3.551 8 7.933 8c4.381 0 7.933-3.581 7.933-8s-3.552-8-7.933-8zM7.999 0.352c2.025 0 3.93 0.796 5.362 2.24 1.373 1.379 2.221 3.282 2.221 5.382 0 0.009-0 0.018-0 0.027v-0.001c0 2.043-0.789 3.963-2.221 5.408-1.362 1.383-3.255 2.24-5.347 2.24-0.005 0-0.010 0-0.015-0h0.001c-0.005 0-0.010 0-0.016 0-2.093 0-3.985-0.857-5.346-2.239l-0.001-0.001c-1.373-1.38-2.222-3.282-2.222-5.383 0-0.009 0-0.018 0-0.026v0.001c0-2.043 0.789-3.963 2.221-5.408 1.362-1.383 3.254-2.24 5.347-2.24 0.006 0 0.011 0 0.017 0h-0.001zM7.603 3.167c-1.292 0.347-2.488 1.011-4.082 2.839s-1.292 3.337-1.292 3.337 0.44-1.039 1.498-2.133c0.501-0.518 0.876-0.691 1.132-0.692 0.007-0 0.015-0.001 0.023-0.001 0.22 0 0.399 0.178 0.399 0.399 0 0.001 0 0.002-0 0.003v-0 3.711c0 0.367-0.236 0.446-0.453 0.442-0.186-0.003-0.358-0.068-0.358-0.068 1.087 1.579 3.684 1.8 3.684 1.8l1.141-1.219 0.027 0.023 1.045 0.891c1.911-1.135 2.832-3.24 2.832-3.24-0.853 0.902-1.396 1.113-1.719 1.111-0.286-0.002-0.398-0.17-0.398-0.17-0.015-0.078-0.042-1.207-0.052-2.337-0.009-1.171-0.001-2.342 0.058-2.345 0.329-0.619 1.382-1.868 1.382-1.868-1.965 0.387-3.037 1.675-3.037 1.675-0.317-0.249-0.963-0.207-0.963-0.207 0.303 0.167 0.605 0.651 0.605 1.052v3.947c0 0-0.66 0.582-1.168 0.582-0.301 0-0.486-0.165-0.587-0.299-0.038-0.050-0.072-0.106-0.098-0.167l-0.002-0.005v-4.874c-0.067 0.050-0.151 0.080-0.242 0.082h-0c-0.108 0-0.22-0.055-0.296-0.213-0.057-0.12-0.094-0.3-0.094-0.561 0-0.9 1.017-1.495 1.017-1.495z"></path>
</svg>
