<!-- Generated by IcoMoon.io -->
<svg version="1.1" xmlns="http://www.w3.org/2000/svg" width="16" height="16" viewBox="0 0 16 16">
<title>untappd</title>
<path fill="#ffc000" d="M7.333 8.866l-3.883 5.422c-0.199 0.277-0.533 0.423-0.872 0.381-0.385-0.048-0.916-0.193-1.463-0.586s-0.854-0.851-1.023-1.201c-0.059-0.119-0.093-0.259-0.093-0.406 0-0.204 0.065-0.393 0.176-0.546l-0.002 0.003 3.883-5.422c0.186-0.257 0.423-0.465 0.697-0.613l0.011-0.005 0.764-0.403c0.153-0.081 0.291-0.189 0.405-0.319 0.371-0.421 1.366-1.523 3.131-3.305l0.031-0.141c0.008-0.033 0.032-0.058 0.063-0.067l0.001-0 0.097-0.025c0.039-0.010 0.068-0.045 0.068-0.087 0-0.002-0-0.005-0-0.007l0 0-0.010-0.12c-0-0.002-0-0.005-0-0.008 0-0.047 0.037-0.085 0.084-0.087h0c0.117-0.003 0.345 0.031 0.667 0.262s0.427 0.437 0.461 0.549c0.002 0.007 0.004 0.016 0.004 0.025 0 0.041-0.028 0.075-0.066 0.084l-0.001 0-0.117 0.029c-0.039 0.010-0.068 0.045-0.068 0.086 0 0.003 0 0.006 0 0.008l-0-0 0.008 0.1c0 0.002 0 0.005 0 0.007 0 0.032-0.017 0.059-0.042 0.075l-0 0-0.124 0.075c-1.119 2.246-1.843 3.544-2.122 4.031-0.082 0.14-0.142 0.304-0.17 0.478l-0.001 0.008-0.137 0.854c-0.054 0.33-0.18 0.624-0.361 0.875l0.004-0.006zM15.826 11.931l-3.883-5.422c-0.185-0.257-0.422-0.465-0.697-0.613l-0.011-0.005-0.764-0.403c-0.158-0.084-0.292-0.191-0.404-0.317l-0.001-0.002c-0.157-0.179-0.285-0.321-0.414-0.461l0.023 0.025c-0.011-0.011-0.026-0.018-0.043-0.018-0.022 0-0.041 0.012-0.052 0.030l-0 0c-0.544 1.066-0.931 1.769-1.33 2.464l0.167-0.315c-0.054 0.093-0.094 0.202-0.113 0.318l-0.001 0.005c-0.018 0.111-0.029 0.238-0.029 0.368s0.011 0.257 0.031 0.381l-0.002-0.014 0.007 0.043c0.050 0.314 0.173 0.612 0.357 0.87l3.883 5.422c0.197 0.275 0.527 0.423 0.863 0.383 0.56-0.073 1.060-0.283 1.481-0.593l-0.009 0.006c0.434-0.309 0.78-0.713 1.014-1.183l0.008-0.018c0.059-0.119 0.093-0.259 0.093-0.407 0-0.204-0.065-0.392-0.176-0.546l0.002 0.003zM5.537 2.244l0.117 0.029c0.039 0.010 0.068 0.045 0.068 0.087 0 0.003-0 0.005-0 0.008l0-0-0.008 0.1c-0 0.002-0 0.005-0 0.008 0 0.031 0.017 0.059 0.042 0.074l0 0 0.124 0.075c0.207 0.415 0.399 0.796 0.579 1.147 0.017 0.034 0.061 0.040 0.086 0.013 0.291-0.313 0.643-0.683 1.057-1.112 0.016-0.017 0.027-0.039 0.027-0.064 0-0.024-0.009-0.046-0.025-0.062l0 0c-0.21-0.215-0.43-0.439-0.668-0.68l-0.031-0.141c-0.007-0.033-0.032-0.058-0.063-0.066l-0.001-0-0.097-0.025c-0.039-0.010-0.068-0.045-0.068-0.087 0-0.002 0-0.005 0-0.007l-0 0 0.010-0.12c0-0.002 0-0.005 0-0.008 0-0.046-0.036-0.084-0.082-0.087l-0-0c-0.117-0.003-0.345 0.030-0.668 0.262s-0.427 0.437-0.461 0.549c-0.002 0.007-0.003 0.015-0.003 0.024 0 0.041 0.028 0.075 0.065 0.084l0.001 0z"></path>
</svg>
