<!-- Generated by IcoMoon.io -->
<svg version="1.1" xmlns="http://www.w3.org/2000/svg" width="16" height="16" viewBox="0 0 16 16">
<title>upwork</title>
<path fill="#6fda44" d="M12.374 8.772c-0.735 0-1.423-0.311-2.049-0.818l0.152-0.717 0.005-0.028c0.138-0.762 0.566-2.040 1.893-2.040 0.995 0 1.802 0.808 1.802 1.802-0.001 0.993-0.808 1.801-1.803 1.801zM12.374 3.345c-1.693 0-3.007 1.099-3.54 2.911-0.813-1.223-1.432-2.691-1.791-3.928h-1.824v4.741c-0.001 0.937-0.761 1.697-1.698 1.699-0.937-0.001-1.695-0.762-1.697-1.699v-4.741h-1.824v4.741c0 1.943 1.58 3.535 3.521 3.535 1.942 0 3.522-1.593 3.522-3.535v-0.793c0.353 0.738 0.788 1.486 1.316 2.147l-1.115 5.249h1.865l0.809-3.807c0.709 0.453 1.523 0.739 2.457 0.739 2 0 3.626-1.635 3.626-3.633 0-2-1.626-3.626-3.626-3.626z"></path>
</svg>
