<!-- Generated by IcoMoon.io -->
<svg version="1.1" xmlns="http://www.w3.org/2000/svg" width="16" height="16" viewBox="0 0 16 16">
<title>v</title>
<path fill="#5d87bf" d="M15.649 0.106l-4.263 0.411c-0.271 0.026-0.563 0.255-0.652 0.512l-2.728 7.833-2.741-7.833c-0.089-0.256-0.382-0.485-0.652-0.511l-4.263-0.411c-0.27-0.026-0.415 0.16-0.323 0.416l5.363 14.911c0.092 0.255 0.387 0.463 0.659 0.463h4.175c0.049 0 0.089-0.013 0.119-0.037 0.083-0.041 0.154-0.113 0.183-0.195l0.026-0.072 5.42-15.071c0.092-0.256-0.053-0.442-0.323-0.416z"></path>
</svg>
