<!-- Generated by IcoMoon.io -->
<svg version="1.1" xmlns="http://www.w3.org/2000/svg" width="16" height="16" viewBox="0 0 16 16">
<title>v8</title>
<path fill="#4b8bf5" d="M4.555 4c0-0.107 0.005-0.215 0.015-0.319 0.013-0.138 0.047-0.267 0.075-0.399l-0.463-0.918h-4.182l1.455 2.545h1.018l1.398 2.653c0.237-0.723 0.633-1.338 1.149-1.828l0.002-0.002c-0.294-0.494-0.467-1.089-0.467-1.724 0-0.003 0-0.005 0-0.008v0zM6.91 13.109l1.090 1.983 1.091-1.983c-0.357 0.092-0.719 0.156-1.091 0.156s-0.734-0.064-1.090-0.155zM11.819 2.363l-0.478 0.839c0.037 0.159 0.075 0.317 0.089 0.484 0.009 0.096 0.015 0.207 0.015 0.32 0 0.636-0.173 1.232-0.475 1.743l0.009-0.016c0.518 0.493 0.914 1.108 1.142 1.8l0.009 0.031 1.398-2.654h1.018l1.454-2.546zM11.897 8.005c-0.213-0.896-0.704-1.655-1.375-2.201l-0.007-0.006c0.359-0.499 0.575-1.122 0.575-1.796 0-1.707-1.383-3.091-3.090-3.093h-0c-0 0-0.001 0-0.001 0-1.707 0-3.090 1.383-3.090 3.090 0 0 0 0.001 0 0.001v-0c0 0.001 0 0.002 0 0.004 0 0.673 0.216 1.296 0.583 1.803l-0.006-0.009c-0.909 0.738-1.485 1.855-1.485 3.107 0 0.001 0 0.003 0 0.004v-0c0.001 1.685 1.042 3.127 2.516 3.718l0.027 0.010c0.432 0.173 0.932 0.273 1.456 0.273 0.526 0 1.028-0.101 1.488-0.285l-0.027 0.010c1.501-0.601 2.541-2.042 2.541-3.727 0-0.32-0.038-0.632-0.109-0.93l0.005 0.027zM8 2.818c0.753 0 1.364 0.611 1.364 1.363 0 0.753-0.611 1.364-1.364 1.364s-1.364-0.611-1.364-1.364v0c0-0.752 0.612-1.363 1.364-1.363zM8 10.455c-0.83-0.031-1.491-0.711-1.491-1.546s0.661-1.515 1.488-1.546l0.003-0c0.855 0 1.545 0.691 1.545 1.545s-0.691 1.546-1.545 1.546z"></path>
</svg>
