<!-- Generated by IcoMoon.io -->
<svg version="1.1" xmlns="http://www.w3.org/2000/svg" width="16" height="16" viewBox="0 0 16 16">
<title>vagrant</title>
<path fill="#1563ff" d="M3.781 4.516v-1.238l2.109-1.215-3.517-2.060-2.109 1.231v1.509l4.749 11.53 2.987 1.723v-4.331l1.405-0.816-0.016-0.010 2.83-6.324v-1.238l3.517-2.043-2.109-1.231-3.517 2.058v1.407l-2.109 4.921v1.645l-1.407 0.816zM5.891 2.076l-0.015-0.009-2.095 1.211v1.238l2.812 6.334 1.407-0.694v-1.767l-2.109-4.921zM12.219 3.278v1.238l-2.813 6.067-1.405 0.971v4.442l3.014-1.738 4.721-11.559v-1.465z"></path>
</svg>
