<!-- Generated by IcoMoon.io -->
<svg version="1.1" xmlns="http://www.w3.org/2000/svg" width="16" height="16" viewBox="0 0 16 16">
<title>valve</title>
<path fill="#f74843" d="M0 5.719v4.561h16v-4.561zM1.2 6.663h0.529l0.517 2.029 0.507-2.029h0.557l-0.818 2.686h-0.492zM4.859 6.663h0.723l0.763 2.689h-0.543l-0.18-0.671h-0.803c0 0-0.14 0.54-0.169 0.66-0.161 0.011-0.553 0-0.553 0zM7.648 6.663h0.528v2.235h1.127v0.451h-1.655zM9.948 6.663h0.544l0.517 2.003 0.503-2.003h0.543l-0.815 2.689h-0.477zM13.167 6.663h1.127v0.348h-0.723v0.389h0.66v0.349h-0.66v0.4h0.723v0.349h-1.127zM5.232 7.116l-0.284 1.135h0.593z"></path>
</svg>
