<!-- Generated by IcoMoon.io -->
<svg version="1.1" xmlns="http://www.w3.org/2000/svg" width="16" height="16" viewBox="0 0 16 16">
<title>veeam</title>
<path fill="#00b336" d="M4.42 6.561c-0.736 0-1.334 0.63-1.334 1.401v0.072c0 0.881 0.565 1.359 1.317 1.401 0.034 0.004 0.072 0.004 0.107 0.004 0.29 0 0.529-0.077 0.797-0.241 0.027-0.015 0.134-0.088 0.241-0.225 0.088-0.111 0.092-0.274 0-0.362-0.133-0.126-0.275-0.057-0.397 0.049-0.195 0.164-0.344 0.295-0.733 0.295-0.367 0-0.709-0.211-0.793-0.627 0-0.015 0.007-0.030 0.023-0.030h1.794c0.173-0.001 0.313-0.142 0.313-0.315 0-0.007-0-0.014-0.001-0.022l0 0.001c0-0.771-0.595-1.401-1.333-1.401zM7.397 6.561c-0.733 0-1.331 0.63-1.331 1.401v0.072c0 0.881 0.564 1.359 1.316 1.401 0.035 0.004 0.073 0.004 0.107 0.004 0.29 0 0.53-0.077 0.797-0.241 0.027-0.015 0.133-0.088 0.241-0.225 0.088-0.111 0.091-0.274 0-0.362-0.133-0.126-0.275-0.057-0.397 0.049-0.195 0.164-0.343 0.295-0.733 0.295-0.366 0-0.709-0.211-0.793-0.627-0.004-0.015 0.007-0.030 0.019-0.030h1.794c0.173-0.001 0.313-0.142 0.313-0.315 0-0.007-0-0.014-0.001-0.022l0 0.001c-0.004-0.771-0.6-1.401-1.332-1.401zM2.804 6.588c-0.101 0.004-0.187 0.063-0.229 0.147l-0.001 0.002-0.947 2.042c-0.023 0.042-0.041 0.073-0.091 0.073s-0.070-0.031-0.093-0.073l-0.947-2.038c-0.041-0.089-0.129-0.15-0.231-0.15-0.045 0-0.087 0.012-0.124 0.032l0.001-0.001c-0.087 0.050-0.144 0.142-0.144 0.248 0 0.046 0.011 0.089 0.030 0.127l-0.001-0.002 0.927 1.885 0.107 0.213c0.086 0.18 0.266 0.303 0.474 0.307h0c0.209-0.003 0.388-0.126 0.471-0.303l0.001-0.003 0.107-0.213 0.923-1.889c0.020-0.037 0.031-0.082 0.031-0.129 0-0.104-0.056-0.195-0.14-0.244l-0.001-0.001c-0.035-0.019-0.076-0.031-0.12-0.031-0.002 0-0.003 0-0.005 0h0zM10.379 6.588c-0.001 0-0.001 0-0.002 0-0.128 0-0.245 0.047-0.335 0.126l0.001-0c-0.057 0.049-0.104 0.109-0.137 0.177l-0.001 0.003-1.061 2.091c0 0.003-0.004 0.004-0.004 0.007v0.004c-0.020 0.038-0.031 0.083-0.031 0.131 0 0.061 0.019 0.118 0.051 0.165l-0.001-0.001c0 0.003 0.004 0.004 0.004 0.007s0.004 0.003 0.004 0.007c0.046 0.060 0.117 0.098 0.198 0.098 0.055 0 0.106-0.018 0.147-0.048l-0.001 0c0 0 0.003 0 0.003-0.004 0.006-0.003 0.011-0.007 0.016-0.011l0-0 0.010-0.012 0.004-0.004c0.019-0.020 0.036-0.043 0.050-0.067l0.001-0.002 0.038-0.083 0.221-0.467c0.004-0.011 0.019-0.018 0.030-0.018h0.989c0.13 0 0.236-0.111 0.236-0.253 0-0.137-0.106-0.251-0.236-0.251h-0.733c-0.015 0-0.027-0.016-0.020-0.031l0.053-0.115 0.401-0.805v-0.004c0 0 0-0.004 0.004-0.004 0.007-0.015 0.027-0.072 0.065-0.083 0.023-0.008 0.042-0.008 0.057 0 0.042 0.011 0.056 0.061 0.075 0.099l0.97 2.015c0.044 0.086 0.132 0.144 0.234 0.144 0.031 0 0.060-0.005 0.088-0.015l-0.002 0.001c0 0 0.004 0 0.004-0.004l0.023-0.011c0.004 0 0.005-0.004 0.008-0.004 0 0 0.004 0 0.004-0.004 0.004 0 0.004-0.004 0.008-0.004s0.007-0.003 0.007-0.007c0.004 0 0.004-0.004 0.007-0.004 0.004-0.004 0.008-0.008 0.012-0.008l0.015-0.015c0.057-0.050 0.093-0.123 0.093-0.205 0-0.047-0.012-0.090-0.032-0.129l0.001 0.001-1.065-2.103c-0.086-0.179-0.266-0.3-0.474-0.301h-0zM12.717 6.588c-0.26 0-0.473 0.221-0.473 0.519v2.012c0 0.122 0.069 0.236 0.176 0.271 0.175 0.057 0.324-0.095 0.324-0.275l-0.039-1.959c0.001-0.010 0.010-0.018 0.020-0.018 0.006 0 0.011 0.003 0.015 0.007l0 0 0.961 1.954c0.091 0.187 0.245 0.299 0.417 0.299s0.327-0.111 0.415-0.299l0.966-1.957c0.007-0.019 0.033-0.013 0.033 0.011l-0.037 1.97c0 0.156 0.118 0.282 0.259 0.275 0.137-0.004 0.245-0.138 0.245-0.287v-2.004c0.007-0.301-0.207-0.514-0.467-0.518-0.179 0.003-0.333 0.108-0.405 0.26l-0.001 0.003c-0.241 0.493-0.951 1.953-0.951 1.957-0.004 0.007-0.019 0.043-0.050 0.043-0.027 0-0.045-0.031-0.049-0.043-0.233-0.485-0.698-1.443-0.939-1.939-0.095-0.191-0.253-0.281-0.421-0.282zM4.417 7.019c0.465 0 0.76 0.351 0.806 0.763 0 0.015-0.008 0.030-0.023 0.030h-1.553c-0.015-0.004-0.022-0.015-0.022-0.030 0.049-0.405 0.327-0.763 0.793-0.763zM7.397 7.019h0.002c0.465 0.001 0.759 0.351 0.805 0.763 0 0.015-0.009 0.030-0.023 0.030h-1.553c-0.015-0.004-0.027-0.015-0.023-0.030 0.050-0.404 0.329-0.763 0.793-0.763z"></path>
</svg>
