<!-- Generated by IcoMoon.io -->
<svg version="1.1" xmlns="http://www.w3.org/2000/svg" width="16" height="16" viewBox="0 0 16 16">
<title>venmo</title>
<path fill="#3d95ce" d="M2.627 6.48c0.113 0.18 0.16 0.36 0.16 0.593 0 0.74-0.633 1.7-1.147 2.38h-1.167l-0.473-2.813 1.027-0.1 0.247 2c0.233-0.373 0.52-0.967 0.52-1.373 0-0.22-0.040-0.373-0.1-0.5zM3.96 7.713c0.187 0 0.667-0.087 0.667-0.353 0-0.133-0.093-0.2-0.2-0.2-0.193 0-0.44 0.233-0.467 0.553zM3.94 8.247c0 0.333 0.18 0.467 0.427 0.467 0.267 0 0.513-0.067 0.847-0.233l-0.127 0.84c-0.233 0.113-0.593 0.187-0.947 0.187-0.887 0-1.207-0.533-1.207-1.213 0-0.873 0.52-1.8 1.587-1.8 0.587 0 0.92 0.327 0.92 0.787 0 0.733-0.953 0.967-1.5 0.967zM8.4 7.133c0 0.113-0.020 0.267-0.033 0.373l-0.307 1.947h-1l0.28-1.787 0.020-0.2c0-0.133-0.080-0.16-0.173-0.16-0.133 0-0.267 0.060-0.347 0.1l-0.32 2.047h-1l0.453-2.913h0.867l0.013 0.233c0.207-0.133 0.48-0.287 0.86-0.287 0.507 0 0.687 0.267 0.687 0.647zM11.367 6.807c0.287-0.2 0.553-0.32 0.933-0.32 0.507 0 0.687 0.267 0.687 0.653-0.003 0.132-0.015 0.258-0.035 0.382l0.002-0.016-0.307 1.947h-1l0.287-1.82 0.013-0.147c0-0.147-0.080-0.18-0.18-0.18-0.12 0-0.247 0.053-0.333 0.1l-0.32 2.047h-1l0.287-1.827 0.013-0.14c0-0.147-0.080-0.18-0.18-0.18-0.133 0-0.26 0.060-0.347 0.1l-0.313 2.040h-1.007l0.46-2.907h0.853l0.033 0.24c0.2-0.147 0.467-0.293 0.827-0.293 0.32 0 0.52 0.133 0.627 0.32zM14.973 7.653c0-0.233-0.060-0.4-0.233-0.4-0.4 0-0.48 0.7-0.48 1.053 0 0.273 0.073 0.44 0.253 0.44 0.373 0 0.46-0.733 0.46-1.093zM13.24 8.267c0-0.92 0.493-1.78 1.607-1.78 0.847 0 1.153 0.5 1.153 1.187 0 0.907-0.48 1.847-1.627 1.847-0.847 0-1.133-0.553-1.133-1.253z"></path>
</svg>
