<!-- Generated by IcoMoon.io -->
<svg version="1.1" xmlns="http://www.w3.org/2000/svg" width="16" height="16" viewBox="0 0 16 16">
<title>viadeo</title>
<path fill="#f88d2d" d="M6.737 14.658h0.019c0.772 0 1.481-0.187 2.125-0.561s1.156-0.903 1.536-1.59c0.378-0.685 0.569-1.425 0.569-2.22 0-0.643-0.111-1.237-0.34-1.78 0.38-0.079 0.84-0.236 1.319-0.533 0.29 0.702 0.44 1.463 0.44 2.284 0 1.53-0.52 2.87-1.58 4.020-1.061 1.141-2.411 1.721-4.061 1.721-1.66 0-3.015-0.573-4.067-1.721-1.051-1.147-1.57-2.487-1.57-4.019 0-1.522 0.497-2.84 1.493-3.957 1.090-1.231 2.474-1.847 4.143-1.847 0.705 0 1.356 0.11 1.957 0.328-0.195 0.381-0.372 0.849-0.419 1.353-0.478-0.2-0.991-0.3-1.541-0.3-1.158 0-2.153 0.435-2.983 1.303-0.829 0.87-1.245 1.921-1.245 3.151 0 0.8 0.19 1.54 0.57 2.219 0.377 0.691 0.889 1.22 1.534 1.591 0.43 0.25 0.885 0.42 1.367 0.5 4.138-1.6 3.651-9.44 3.621-9.871l0.035 0.11c2.431 6.489-2.867 9.829-2.867 9.829h-0.050zM14.052 0.363c-0.677 1.438-1.931 1.705-1.931 1.705-1.252 0.318-1.689 0.801-1.689 0.801-1.253 1.259-0.267 2.788-0.267 2.788 2.706-0.616 3.694-2.839 3.694-2.839-0.121 1.493-3.341 3.258-3.341 3.258 1.066 1.042 2.083 0.917 2.755 0.516 0.891-0.53 1.319-1.69 1.319-1.69 0.863-2.581-0.54-4.54-0.54-4.539zM7.402 0c1.329 2.236 2.053 4.243 2.216 4.72v-0.019c-0.328-3.445-2.22-4.701-2.22-4.701z"></path>
</svg>
