<!-- Generated by IcoMoon.io -->
<svg version="1.1" xmlns="http://www.w3.org/2000/svg" width="16" height="16" viewBox="0 0 16 16">
<title>viber</title>
<path fill="#665cac" d="M7.599 0.001c-1.283 0.017-4.045 0.228-5.589 1.643-1.147 1.14-1.547 2.821-1.594 4.902-0.040 2.073-0.087 5.967 3.667 7.027v1.613c0 0-0.025 0.647 0.401 0.78 0.527 0.167 0.827-0.333 1.327-0.866l0.933-1.053c2.567 0.213 4.533-0.279 4.76-0.353 0.52-0.167 3.454-0.541 3.934-4.435 0.493-4.021-0.24-6.554-1.56-7.701l-0.007-0.001c-0.4-0.367-2-1.533-5.58-1.547 0 0-0.264-0.017-0.692-0.011zM7.643 1.133c0.363-0.002 0.587 0.013 0.587 0.013 3.027 0.007 4.474 0.92 4.814 1.227 1.113 0.953 1.685 3.237 1.267 6.595-0.4 3.253-2.78 3.46-3.22 3.6-0.187 0.060-1.92 0.487-4.101 0.347 0 0-1.626 1.961-2.133 2.467-0.080 0.087-0.173 0.113-0.233 0.1-0.087-0.020-0.113-0.127-0.107-0.273l0.013-2.679c-3.181-0.88-2.994-4.201-2.961-5.935 0.040-1.733 0.367-3.155 1.333-4.115 1.305-1.18 3.65-1.34 4.741-1.347zM7.883 2.866c-0 0-0 0-0.001 0-0.11 0-0.199 0.089-0.199 0.199 0 0 0 0 0 0v0c0 0.11 0.090 0.2 0.2 0.2v0c0.021-0 0.046-0.001 0.072-0.001 1.017 0 1.94 0.405 2.616 1.062l-0.001-0.001c0.727 0.707 1.081 1.653 1.094 2.893 0 0.11 0.090 0.2 0.2 0.2v0-0.006c0.11 0 0.2-0.090 0.2-0.2v0c0.002-0.054 0.004-0.118 0.004-0.182 0-1.163-0.462-2.218-1.212-2.992l0.001 0.001c-0.793-0.773-1.795-1.173-2.974-1.173zM5.247 3.326c-0.027-0.004-0.058-0.006-0.090-0.006-0.118 0-0.228 0.032-0.323 0.088l0.003-0.002h-0.008c-0.273 0.16-0.525 0.36-0.765 0.627-0.18 0.213-0.281 0.426-0.307 0.633-0.004 0.032-0.007 0.069-0.007 0.106 0 0.091 0.015 0.179 0.042 0.26l-0.002-0.006 0.013 0.007c0.229 0.665 0.499 1.238 0.823 1.774l-0.023-0.041c0.448 0.804 0.961 1.498 1.551 2.118l-0.004-0.004 0.020 0.027 0.027 0.020 0.040 0.040c0.618 0.587 1.314 1.102 2.068 1.526l0.052 0.027c0.88 0.48 1.415 0.707 1.735 0.8v0.007c0.093 0.027 0.179 0.040 0.265 0.040 0.285-0.021 0.539-0.137 0.736-0.316l-0.001 0.001c0.26-0.233 0.467-0.492 0.62-0.765v-0.007c0.153-0.287 0.1-0.561-0.12-0.747-0.422-0.371-0.891-0.71-1.391-1.003l-0.043-0.023c-0.34-0.187-0.687-0.073-0.827 0.113l-0.3 0.379c-0.153 0.187-0.433 0.16-0.433 0.16l-0.008 0.007c-2.080-0.533-2.633-2.639-2.633-2.639s-0.027-0.287 0.167-0.433l0.373-0.3c0.18-0.147 0.307-0.493 0.113-0.833-0.316-0.542-0.655-1.011-1.035-1.443l0.009 0.010c-0.083-0.102-0.199-0.174-0.333-0.199l-0.003-0.001zM8.229 3.919c-0.11 0-0.199 0.090-0.199 0.2s0.090 0.2 0.2 0.2c0 0 0 0 0.001 0h-0c0.694 0.012 1.318 0.304 1.766 0.766l0.001 0.001c0.375 0.412 0.605 0.963 0.605 1.567 0 0.051-0.002 0.103-0.005 0.153l0-0.007c0 0.11 0.090 0.199 0.2 0.199 0 0 0 0 0 0v0l0.007 0.008c0 0 0 0 0 0 0.11 0 0.2-0.090 0.2-0.2 0-0 0-0 0-0.001v0c0.020-0.793-0.227-1.46-0.713-1.993s-1.167-0.833-2.033-0.893c-0.004-0-0.009-0-0.014-0s-0.010 0-0.015 0.001l0.001-0zM8.556 4.999c-0.002-0-0.004-0-0.006-0-0.113 0-0.204 0.091-0.204 0.204 0 0.11 0.088 0.2 0.197 0.204h0c0.66 0.033 0.98 0.367 1.020 1.053 0.004 0.108 0.092 0.193 0.2 0.193 0 0 0 0 0 0h0.007c0.108-0.003 0.194-0.092 0.194-0.2 0-0.005-0-0.009-0-0.014l0 0.001c-0.047-0.893-0.533-1.394-1.4-1.441-0.001-0-0.003-0-0.004-0s-0.003 0-0.004 0h0z"></path>
</svg>
