<!-- Generated by IcoMoon.io -->
<svg version="1.1" xmlns="http://www.w3.org/2000/svg" width="16" height="16" viewBox="0 0 16 16">
<title>vim</title>
<path fill="#019733" d="M16 7.991h-0.018l-2.879-2.879 2.869-2.943v-1.195l-0.433-0.432h-5.465l-0.44 0.403v0.697l-1.624-1.624v-0.018l-0.010 0.009-0.009-0.009v0.018l-0.86 0.861-0.359-0.359h-5.415l-0.425 0.461v1.257l0.411 0.411h0.48v3.54l-1.804 1.803h-0.018l0.009 0.009-0.009 0.009h0.018l1.804 1.804v4.311l0.605 0.349h1.548l1.238-1.269 2.777 2.777v0.019l0.010-0.009 0.009 0.009v-0.019l1.673-1.673h0.323c0.074 0 0.141-0.047 0.167-0.119l0.097-0.284c0.019-0.056 0.008-0.115-0.025-0.159l0.975-0.975-0.408 1.308c-0.029 0.094 0.024 0.193 0.118 0.221 0.017 0.005 0.035 0.008 0.052 0.008h1.216c0.071-0.001 0.134-0.043 0.162-0.109l0.11-0.263c0.017-0.043 0.016-0.092-0.003-0.135s-0.053-0.077-0.097-0.095c-0.019-0.008-0.041-0.013-0.065-0.013h-0.050l0.56-1.763h0.821l-0.677 2.147c-0.029 0.094 0.024 0.193 0.117 0.221 0.017 0.005 0.035 0.008 0.053 0.008h1.335c0.073 0 0.138-0.044 0.165-0.113l0.109-0.285c0.034-0.092-0.014-0.193-0.105-0.227-0.019-0.007-0.040-0.011-0.061-0.011h-0.097l0.754-2.449c0.018-0.055 0.008-0.115-0.026-0.16l-0.25-0.336-0.002-0.003c-0.034-0.043-0.085-0.068-0.139-0.068h-0.957c-0.047 0-0.094 0.020-0.127 0.054l-0.267 0.293h-0.416l-0.028-0.031 2.963-2.963h0.019l-0.009-0.007zM6.559 14.093l1.053-3.006h-0.334l0.198-0.203h1.106l-1.042 3.037h0.415l-0.053 0.172zM9.022 9.082l0.1 0.101-0.179 0.615-0.15 0.151h-0.646l-0.121-0.121 0.207-0.581 0.192-0.165zM3.727 13.886h-1.142l-0.175-0.1v-11.725h-0.824l-0.067-0.067v-0.784l0.095-0.103h4.914l0.142 0.143v0.739l-0.095 0.115h-0.719v5.792l5.871-5.792h-1.391l-0.117-0.125v-0.775l0.081-0.074h4.993l0.088 0.089v0.713l-6.73 6.902h-0.249c-0.010-0.001-0.019 0-0.028 0.001l-0.013 0.002c-0.030 0.007-0.057 0.020-0.079 0.040l-0.229 0.197-0.003 0.002c-0.022 0.021-0.039 0.046-0.049 0.074l-0.197 0.553zM13.572 11.251l0.316-0.346h0.889l0.206 0.277-0.843 2.738h0.329l-0.053 0.139h-1.189l0.749-2.376h-1.343l-0.718 2.261h0.283l-0.049 0.116h-1.070l0.738-2.365h-1.397l-0.708 2.226h0.291l-0.048 0.139h-1.107l1.009-2.973h-0.391l0.061-0.181h1.1l0.346 0.358h0.604l0.327-0.369h0.707l0.326 0.357z"></path>
</svg>
