<!-- Generated by IcoMoon.io -->
<svg version="1.1" xmlns="http://www.w3.org/2000/svg" width="16" height="16" viewBox="0 0 16 16">
<title>vimeo</title>
<path fill="#1ab7ea" d="M15.985 4.277c-0.070 1.559-1.159 3.695-3.263 6.406-2.179 2.831-4.017 4.247-5.527 4.247-0.939 0-1.719-0.863-2.369-2.587l-1.279-4.743c-0.479-1.723-0.992-2.585-1.541-2.585-0.119 0-0.537 0.252-1.254 0.755l-0.753-0.971c0.79-0.696 1.567-1.389 2.334-2.085 1.053-0.912 1.843-1.39 2.369-1.439 1.245-0.12 2.011 0.733 2.298 2.559 0.31 1.969 0.526 3.193 0.647 3.671 0.359 1.633 0.754 2.449 1.184 2.449 0.335 0 0.837-0.531 1.51-1.59 0.669-1.059 1.027-1.865 1.075-2.419 0.096-0.914-0.263-1.374-1.076-1.374-0.383 0-0.778 0.081-1.185 0.261 0.791-2.579 2.289-3.838 4.508-3.758 1.649 0.040 2.419 1.109 2.329 3.198z"></path>
</svg>
