<!-- Generated by IcoMoon.io -->
<svg version="1.1" xmlns="http://www.w3.org/2000/svg" width="16" height="16" viewBox="0 0 16 16">
<title>vine</title>
<path fill="#11b48a" d="M15.014 7.948c-0.412 0.095-0.811 0.137-1.172 0.137-2.019 0-3.574-1.411-3.574-3.863 0-1.201 0.471-1.821 1.131-1.821 0.631 0 1.041 0.561 1.041 1.701 0 0.65-0.171 1.361-0.3 1.781 0 0 0.62 1.091 2.321 0.75 0.36-0.801 0.561-1.841 0.561-2.751 0-2.453-1.251-3.883-3.543-3.883-2.362-0.011-3.743 1.8-3.743 4.192 0 2.367 1.106 4.398 2.93 5.323-0.767 1.534-1.743 2.885-2.761 3.904-1.846-2.234-3.515-5.213-4.201-11.027h-2.725c1.259 9.684 5.011 12.766 6.003 13.357 0.56 0.336 1.044 0.32 1.557 0.033 0.81-0.459 3.232-2.877 4.573-5.709 0.56-0.002 1.241-0.067 1.911-0.219v-1.91z"></path>
</svg>
