<!-- Generated by IcoMoon.io -->
<svg version="1.1" xmlns="http://www.w3.org/2000/svg" width="16" height="16" viewBox="0 0 16 16">
<title>virb</title>
<path fill="#0093da" d="M11.822 4.825c0-0.167 0-0.317 0.1-0.417 0.133-0.117 0.267-0.1 0.4-0.1h0.952c0.511 0 1.25 0.133 1.75 0.585 0.5 0.466 0.61 1.134 0.61 1.736v1.501c0 0.399 0.010 0.685-0.189 1.052-0.25 0.467-0.77 0.6-0.77 0.668 0 0.067 0.559 0.168 0.809 0.668 0.201 0.4 0.18 0.65 0.18 1.051v2.070c0 0.41 0 0.93-0.599 1.63-0.57 0.629-1.359 0.72-1.76 0.72-0.299 0-0.519 0.011-0.82 0-0.199-0.021-0.499 0.011-0.569-0.091-0.099-0.149-0.129-0.119-0.129-0.569v-10.509zM8.182 15.724c0 0.268-0.066 0.268-0.567 0.268-0.384 0-0.5 0-0.5-0.235v-10.938c0-0.167 0.015-0.349 0.116-0.449 0.134-0.117 0.25-0.067 0.384-0.067h0.952c0.534 0 1.252 0.133 1.752 0.584 0.5 0.466 0.618 1.152 0.618 1.736v1.507c0 0.399 0.017 0.685-0.184 1.052-0.25 0.467-0.784 0.6-0.784 0.668 0 0.067 0.55 0.168 0.8 0.668 0.2 0.4 0.185 0.65 0.185 1.051v4.15c0 0.261-0.12 0.261-0.57 0.261-0.389 0-0.5 0.011-0.5-0.239v-4.239c0-0.685-0.449-1.101-0.819-1.101-0.79 0-0.89-0.015-0.89 0.25v5.060zM5.63 15.974c-0.451 0-0.5 0-0.5-0.233v-11.166c0-0.217 0.099-0.25 0.5-0.25 0.449 0 0.567 0.015 0.567 0.265v11.119c0 0.25-0.030 0.269-0.56 0.269zM13.073 14.889c0.131 0.021 0.151 0.021 0.301 0.021 0.18 0 0.599-0.049 0.9-0.361 0.33-0.359 0.35-0.599 0.35-0.879v-2.141c0-0.769-0.45-1.099-0.95-1.099-0.72 0-0.771 0.049-0.771 0.449v3.509c0 0.191 0.010 0.5 0.16 0.521zM2.406 12.518c0.284-2.869 0.534-5.307 0.799-7.929 0.034-0.282 0.168-0.265 0.47-0.265 0.466 0 0.633 0.034 0.616 0.217-0.5 4.109-0.884 7.149-1.385 11.209-0.031 0.241-0.21 0.25-0.55 0.25-0.43 0-0.63 0-0.67-0.28-0.45-3.761-0.86-7.1-1.349-11.199-0.011-0.201 0.070-0.201 0.539-0.201 0.49 0 0.591 0.050 0.599 0.269 0.271 2.921 0.471 5.19 0.721 7.97 0 0.051 0.021 0.16 0.1 0.16 0.1 0 0.12-0.109 0.12-0.18zM8.616 5.41c-0.15 0-0.301 0-0.369 0.115-0.049 0.1-0.049 0.185-0.049 0.285v3.121c0 0.183-0.034 0.367 0.1 0.467 0.099 0.079 0.216 0.060 0.299 0.060 0.185 0 0.62-0.049 0.92-0.37 0.333-0.371 0.333-0.65 0.333-0.89v-1.569c0-0.383-0.067-0.668-0.35-0.967-0.183-0.167-0.283-0.25-0.884-0.25zM13.439 5.41c-0.235 0-0.417 0-0.485 0.115-0.049 0.1-0.049 0.185-0.049 0.285v3.121c0 0.183-0.017 0.333 0.099 0.451 0.099 0.1 0.167 0.083 0.3 0.083 0.233 0 0.618-0.049 0.92-0.366 0.332-0.371 0.332-0.621 0.332-0.89v-1.58c0-0.383-0.066-0.668-0.351-0.967-0.183-0.167-0.299-0.25-0.767-0.25zM7.26 1.34h-1.052v-1.077c0-0.247-0.115-0.263-0.557-0.263-0.391 0-0.49 0.033-0.49 0.245v1.095h-1.025c-0.246 0-0.264 0.116-0.264 0.557 0 0.393 0.034 0.49 0.246 0.49h1.042v1.033c0 0.228 0.050 0.228 0.489 0.228 0.524 0 0.557-0.015 0.557-0.262v-0.997h1.085c0.23 0 0.23-0.051 0.23-0.491 0.001-0.524-0.016-0.557-0.261-0.558z"></path>
</svg>
