<!-- Generated by IcoMoon.io -->
<svg version="1.1" xmlns="http://www.w3.org/2000/svg" width="16" height="16" viewBox="0 0 16 16">
<title>visa</title>
<path fill="#142787" d="M11.63 5.749c-0.258-0.097-0.66-0.201-1.16-0.201-1.28 0-2.183 0.645-2.19 1.57-0.008 0.68 0.643 1.063 1.134 1.291 0.505 0.233 0.673 0.38 0.672 0.59-0.003 0.318-0.403 0.462-0.775 0.462-0.511 0-0.791-0.071-1.221-0.25l-0.159-0.074-0.181 1.065c0.311 0.13 0.871 0.241 1.45 0.25 1.361 0 2.25-0.641 2.261-1.626 0.011-0.542-0.34-0.953-1.081-1.292-0.449-0.22-0.729-0.367-0.729-0.591 0-0.197 0.239-0.408 0.739-0.408 0.43-0.007 0.731 0.086 0.97 0.182l0.12 0.054 0.181-1.029zM14.952 5.635h-1c-0.311 0-0.544 0.085-0.681 0.394l-1.923 4.356h1.361l0.272-0.713 1.66 0.001c0.041 0.167 0.16 0.712 0.16 0.712h1.199zM6.44 5.595h1.295l-0.81 4.753h-1.296l0.811-4.754zM3.147 8.215l0.135 0.66 1.267-3.239h1.373l-2.041 4.743h-1.369l-1.12-4.017c-0.023-0.069-0.052-0.115-0.12-0.158-0.379-0.198-0.802-0.359-1.272-0.471l0.017-0.1h2.087c0.283 0.011 0.511 0.1 0.589 0.403l0.455 2.182zM13.353 8.699l0.517-1.329c-0.007 0.013 0.107-0.275 0.172-0.453l0.089 0.41 0.299 1.371h-1.077z"></path>
</svg>
