<!-- Generated by IcoMoon.io -->
<svg version="1.1" xmlns="http://www.w3.org/2000/svg" width="16" height="16" viewBox="0 0 16 16">
<title>visualstudio</title>
<path fill="#5c2d91" d="M11.72 0.047c-0.004-0-0.009-0-0.014-0-0.26 0-0.497 0.099-0.675 0.262l0.001-0.001c-0 0-0 0-0 0s-0 0-0 0h0c-0.012 0.010-0.023 0.020-0.033 0.030l0-0-5.311 5.873-3.1-2.542-0.271-0.233c-0.115-0.096-0.263-0.154-0.426-0.154-0.092 0-0.18 0.019-0.26 0.053l0.004-0.002c-0.007 0.003-0.010 0.004-0.012 0.005l0.004-0.002-1.211 0.5c-0.022 0.009-0.039 0.017-0.055 0.025l0.004-0.002c-0.014 0.008-0.024 0.014-0.034 0.020l0.003-0.002c-0.012 0.006-0.020 0.011-0.028 0.016l0.003-0.002c-0.013 0.009-0.023 0.016-0.034 0.024l0.002-0.001c-0.009 0.006-0.015 0.012-0.022 0.017l0.001-0.001c-0.011 0.009-0.020 0.017-0.029 0.025l0.001-0.001c-0.009 0.008-0.017 0.015-0.024 0.022l0-0c-0.007 0.007-0.014 0.015-0.021 0.023l-0.001 0.001c-0.007 0.008-0.014 0.016-0.021 0.024l-0.001 0.001c-0.007 0.008-0.015 0.018-0.022 0.028l-0.001 0.002c-0.004 0.005-0.009 0.013-0.015 0.020l-0.001 0.002c-0.006 0.009-0.013 0.020-0.020 0.031l-0.002 0.003c-0.003 0.004-0.007 0.012-0.012 0.019l-0.002 0.003c-0.004 0.007-0.009 0.018-0.014 0.029l-0.002 0.004c-0.003 0.006-0.007 0.016-0.012 0.026l-0.002 0.004c-0.002 0.005-0.006 0.015-0.009 0.025l-0.001 0.005c-0.002 0.006-0.006 0.016-0.009 0.027l-0.001 0.005c-0.002 0.007-0.006 0.020-0.009 0.032l-0.001 0.005c-0.001 0.004-0.004 0.013-0.006 0.022l-0.001 0.005c-0.002 0.008-0.003 0.020-0.005 0.033l-0 0.003c-0.001 0.008-0.003 0.019-0.004 0.031l-0 0.003c-0.002 0.016-0.003 0.036-0.003 0.055v7.106c0.002 0.274 0.168 0.509 0.406 0.61l0.004 0.002 1.211 0.509c0.076 0.032 0.164 0.051 0.256 0.051 0.166 0 0.317-0.060 0.434-0.161l-0.001 0.001 0.272-0.233 3.1-2.542 5.312 5.873c0.015 0.014 0.030 0.028 0.047 0.042l0.001 0.001c0.011 0.011 0.024 0.021 0.036 0.032l0.002 0.001c0.010 0.008 0.023 0.017 0.035 0.026l0.003 0.002c0.011 0.008 0.024 0.018 0.038 0.027l0.004 0.002c0.010 0.006 0.024 0.015 0.038 0.023l0.005 0.003c0.009 0.006 0.024 0.014 0.038 0.021l0.005 0.003c0.009 0.005 0.024 0.012 0.039 0.018l0.006 0.002c0.009 0.005 0.024 0.011 0.040 0.018l0.007 0.002c0.009 0.004 0.025 0.009 0.042 0.015l0.007 0.002c0.007 0.003 0.022 0.007 0.037 0.012l0.007 0.002c0.011 0.003 0.029 0.008 0.047 0.012l0.007 0.001c0.008 0.002 0.024 0.005 0.039 0.008l0.006 0.001c0.011 0.002 0.028 0.004 0.045 0.006l0.005 0c0.012 0.002 0.029 0.003 0.047 0.004l0.003 0c0.014 0.001 0.031 0.002 0.048 0.002l0.001 0c0.008 0 0.017 0 0.026 0s0.018-0 0.027-0l-0.001 0c0.020-0.001 0.038-0.002 0.056-0.004l-0.004 0c0.019-0.002 0.034-0.003 0.050-0.005l-0.005 0.001c0.025-0.003 0.045-0.007 0.064-0.010l-0.006 0.001c0.020-0.003 0.033-0.006 0.047-0.009l-0.007 0.001c0.025-0.006 0.043-0.011 0.060-0.017l-0.007 0.002c0.022-0.006 0.037-0.010 0.052-0.015l-0.007 0.002c0.022-0.008 0.038-0.015 0.053-0.021l-0.006 0.003c0.027-0.010 0.046-0.018 0.066-0.027l-0.006 0.003 3.295-1.584c0.124-0.061 0.229-0.142 0.316-0.24l0.001-0.001c0.020-0.022 0.040-0.047 0.058-0.072l0.002-0.003c-0.002 0.003-0.001 0.002 0 0l0.003-0.005c0.017-0.023 0.034-0.050 0.051-0.079l0.003-0.005c0.012-0.021 0.026-0.047 0.039-0.074l0.003-0.006c-0.001 0.002 0.001-0.002 0.003-0.006l0.003-0.005c0.008-0.017 0.017-0.040 0.025-0.064l0.002-0.007c0.001-0.001 0.004-0.010 0.007-0.018l0.002-0.007c0.006-0.016 0.013-0.040 0.019-0.064l0.001-0.007c0.001-0.001 0.003-0.010 0.005-0.018l0.001-0.007c0.004-0.016 0.008-0.039 0.011-0.061l0.001-0.005c0.001-0.005 0.003-0.017 0.005-0.028l0.001-0.005c0.002-0.017 0.003-0.038 0.004-0.059l0-0.002c0.001-0.015 0.002-0.033 0.003-0.051l0-0.001v-10.741c0-0 0-0 0-0.001s0-0 0-0.001v0c0-0.003 0-0.007 0-0.011s-0-0.007-0-0.011v0.001c-0.001-0.036-0.003-0.071-0.007-0.105l0 0.005c-0.043-0.345-0.258-0.633-0.554-0.777l-0.006-0.003-3.293-1.583c-0.121-0.060-0.264-0.095-0.414-0.098l-0.001-0zM11.998 4.615v6.771l-4.13-3.385zM2.003 5.717l2.065 2.283-2.065 2.283z"></path>
</svg>
