<!-- Generated by IcoMoon.io -->
<svg version="1.1" xmlns="http://www.w3.org/2000/svg" width="16" height="16" viewBox="0 0 16 16">
<title>visualstudiocode</title>
<path fill="#007acc" d="M15.433 1.725l-3.293-1.585c-0.126-0.062-0.275-0.099-0.432-0.099-0.275 0-0.524 0.112-0.705 0.292v0l-6.307 5.753-2.747-2.085c-0.11-0.084-0.251-0.135-0.402-0.135-0.173 0-0.33 0.066-0.449 0.174l-0.881 0.801c-0.134 0.122-0.218 0.298-0.218 0.493s0.084 0.37 0.217 0.492l0.001 0 2.382 2.173-2.382 2.173c-0.134 0.122-0.218 0.298-0.218 0.493s0.084 0.371 0.218 0.493l0.001 0 0.882 0.801c0.118 0.108 0.275 0.173 0.448 0.173 0.152 0 0.292-0.051 0.404-0.137l-0.002 0.001 2.747-2.085 6.307 5.753c0.18 0.18 0.429 0.292 0.704 0.292 0.157 0 0.306-0.036 0.438-0.101l-0.006 0.003 3.295-1.585c0.337-0.165 0.565-0.506 0.565-0.901 0-0 0-0.001 0-0.001v0-10.747c0-0 0-0 0-0 0-0.395-0.229-0.736-0.561-0.899l-0.006-0.003zM12.003 11.632l-4.785-3.632 4.785-3.632z"></path>
</svg>
