<!-- Generated by IcoMoon.io -->
<svg version="1.1" xmlns="http://www.w3.org/2000/svg" width="16" height="16" viewBox="0 0 16 16">
<title>vk</title>
<path fill="#4680c2" d="M10.456 0h-4.912c-4.483 0-5.544 1.061-5.544 5.544v4.912c0 4.483 1.061 5.544 5.544 5.544h4.912c4.483 0 5.544-1.061 5.544-5.544v-4.912c0-4.483-1.073-5.544-5.544-5.544zM12.917 11.415h-1.163c-0.44 0-0.576-0.35-1.367-1.151-0.689-0.667-0.993-0.757-1.163-0.757-0.237 0-0.305 0.068-0.305 0.395v1.050c0 0.283-0.090 0.452-0.835 0.452-1.231 0-2.597-0.745-3.557-2.135-1.445-2.032-1.841-3.557-1.841-3.873 0-0.169 0.068-0.327 0.395-0.327h1.163c0.293 0 0.407 0.135 0.52 0.451 0.575 1.66 1.535 3.117 1.931 3.117 0.147 0 0.215-0.068 0.215-0.44v-1.717c-0.045-0.791-0.463-0.858-0.463-1.14 0-0.136 0.113-0.271 0.293-0.271h1.829c0.249 0 0.339 0.135 0.339 0.429v2.315c0 0.248 0.113 0.339 0.181 0.339 0.147 0 0.271-0.091 0.542-0.361 0.836-0.937 1.434-2.383 1.434-2.383 0.079-0.169 0.215-0.327 0.509-0.327h1.163c0.35 0 0.429 0.18 0.35 0.429-0.147 0.678-1.569 2.687-1.569 2.687-0.124 0.203-0.169 0.293 0 0.52 0.124 0.169 0.531 0.519 0.802 0.835 0.497 0.565 0.88 1.039 0.982 1.367 0.113 0.327-0.057 0.496-0.383 0.497z"></path>
</svg>
