<!-- Generated by IcoMoon.io -->
<svg version="1.1" xmlns="http://www.w3.org/2000/svg" width="16" height="16" viewBox="0 0 16 16">
<title>vlcmediaplayer</title>
<path fill="#f80" d="M7.927 8.975c2.505 0 3.236-0.898 3.377-1.116l-0.907-2.889c-0.24 0.227-0.885 0.625-2.453 0.625-1.528 0-2.125-0.378-2.347-0.607l-0.927 2.948c0.152 0.241 0.837 1.040 3.257 1.039zM7.945 2.538c0.574-0.007 1.118-0.13 1.61-0.348l-0.026 0.010-0.572-1.823c-0.049-0.13-0.146-0.233-0.267-0.29l-0.003-0.001c0 0-0.077-0.086-0.665-0.086s-0.703 0.091-0.703 0.091c-0.128 0.054-0.226 0.156-0.272 0.283l-0.001 0.003-0.589 1.877c0.441 0.17 0.952 0.273 1.485 0.284l0.005 0zM15.060 15.546c0.001-0.008 0.001-0.018 0.001-0.028 0-0.028-0.004-0.055-0.013-0.081l0.001 0.002-1.556-5.088c-0.059-0.163-0.209-0.28-0.388-0.287l-0.001-0h-1.109l0.133 0.427c-0.16 0.323-0.992 1.587-4.202 1.587-3.067 0-3.885-1.153-4.073-1.539l0.149-0.475h-1.107c-0.179 0.008-0.33 0.124-0.388 0.284l-0.001 0.003-1.556 5.089c-0.008 0.024-0.012 0.051-0.012 0.079 0 0.007 0 0.014 0.001 0.022l-0-0.001-0.001 0.013c0.002 0.055 0.008 0.107 0.017 0.158l-0.001-0.007c0.027 0.167 0.168 0.293 0.34 0.297h13.413c0.172-0.004 0.313-0.13 0.34-0.295l0-0.002c0.007-0.047 0.012-0.101 0.013-0.157l0-0.001z"></path>
</svg>
