<!-- Generated by IcoMoon.io -->
<svg version="1.1" xmlns="http://www.w3.org/2000/svg" width="16" height="16" viewBox="0 0 16 16">
<title>vodafone</title>
<path fill="#e60000" d="M8 0c-4.418 0-8 3.582-8 8v0c0 4.418 3.582 8 8 8v0c4.418 0 8-3.582 8-8v0c0-4.418-3.582-8-8-8v0zM10.833 0.747c0.213 0 0.433 0.020 0.573 0.067-1.447 0.3-2.6 1.647-2.593 3.187 0 0.033 0 0.073 0.007 0.113 2.427 0.593 3.513 2.053 3.513 4.073 0.027 2.020-1.573 4.24-4.273 4.247-2.18 0.007-4.453-1.86-4.467-4.853-0.007-1.98 1.073-3.887 2.433-5.013 1.333-1.107 3.153-1.813 4.807-1.82z"></path>
</svg>
