<!-- Generated by IcoMoon.io -->
<svg version="1.1" xmlns="http://www.w3.org/2000/svg" width="16" height="16" viewBox="0 0 16 16">
<title>volkswagen</title>
<path fill="#151f5d" d="M8 0c-4.427 0-8 3.573-8 8s3.573 8 8 8 8-3.573 8-8-3.573-8-8-8zM8 0.94c0.8 0 1.573 0.147 2.287 0.393l-2.2 4.753c-0.027 0.027-0.027 0.087-0.087 0.087s-0.060-0.060-0.087-0.087l-2.2-4.753c0.713-0.247 1.487-0.387 2.287-0.387zM4.6 1.827l2.547 5.487c0.053 0.113 0.113 0.147 0.187 0.147h1.333c0.080 0 0.133-0.033 0.193-0.147l2.513-5.487c1.053 0.6 1.96 1.46 2.6 2.487l-3.573 6.913c-0.027 0.060-0.067 0.087-0.087 0.087-0.053 0-0.053-0.053-0.087-0.087l-1.367-3.027c-0.060-0.113-0.113-0.14-0.193-0.14h-1.333c-0.073 0-0.133 0.027-0.193 0.14l-1.367 3.027c-0.033 0.033-0.027 0.087-0.087 0.087s-0.060-0.053-0.087-0.087l-3.6-6.913c0.627-1.027 1.547-1.887 2.6-2.487zM1.373 5.687l4.113 8c0.053 0.113 0.113 0.2 0.26 0.2 0.14 0 0.193-0.087 0.253-0.2l1.913-4.26c0.027-0.053 0.060-0.093 0.087-0.093 0.060 0 0.060 0.067 0.087 0.093l1.94 4.26c0.060 0.113 0.113 0.2 0.26 0.2 0.14 0 0.2-0.087 0.253-0.2l4.127-8c0.247 0.713 0.393 1.487 0.393 2.313-0.033 3.86-3.2 7.060-7.060 7.060s-7.027-3.2-7.027-7.060c0-0.8 0.14-1.567 0.4-2.313z"></path>
</svg>
