<!-- Generated by IcoMoon.io -->
<svg version="1.1" xmlns="http://www.w3.org/2000/svg" width="16" height="16" viewBox="0 0 16 16">
<title>vsco</title>
<path d="M8 0c-4.416 0-8 3.584-8 8s3.584 8 8 8 8-3.584 8-8-3.584-8-8-8zM15.68 8c0 0.272-0.015 0.528-0.048 0.784l-1.36-0.16c0.016-0.208 0.033-0.416 0.033-0.624 0-0.192-0.017-0.4-0.033-0.592l1.36-0.16c0.048 0.256 0.048 0.496 0.048 0.752zM0.319 8c0-0.256 0.016-0.513 0.033-0.768l1.36 0.16c-0.016 0.208-0.031 0.4-0.031 0.608s0.015 0.4 0.031 0.608l-1.36 0.16c-0.033-0.255-0.033-0.512-0.033-0.768zM13.967 5.936l1.281-0.48c0.176 0.48 0.289 0.976 0.368 1.488l-1.36 0.16c-0.065-0.4-0.16-0.8-0.289-1.168zM14 8c0 0.4-0.048 0.784-0.111 1.168l-1.345-0.303c0.047-0.273 0.079-0.561 0.079-0.865s-0.032-0.608-0.079-0.896l1.345-0.305c0.079 0.385 0.111 0.785 0.111 1.201zM8 12.304c-2.377-0.001-4.303-1.927-4.304-4.304 0.001-2.377 1.927-4.303 4.304-4.304 2.377 0.001 4.303 1.927 4.304 4.304 0.005 2.373-1.914 4.299-4.286 4.304zM8.144 14v-1.376c0.59-0.019 1.171-0.149 1.712-0.383l0.592 1.248c-0.727 0.321-1.509 0.495-2.304 0.511zM5.52 13.473l0.608-1.249c0.528 0.239 1.104 0.383 1.712 0.4v1.376c-0.801-0.015-1.591-0.195-2.32-0.527zM2 8c0-0.416 0.048-0.816 0.128-1.216l1.344 0.304c-0.065 0.3-0.097 0.605-0.096 0.912 0 0.288 0.032 0.576 0.080 0.848l-1.344 0.303c-0.078-0.379-0.116-0.765-0.112-1.151zM7.84 2v1.376c-0.585 0.019-1.16 0.149-1.696 0.384l-0.592-1.247c0.722-0.319 1.499-0.493 2.288-0.513zM10.463 2.528l-0.607 1.248c-0.539-0.242-1.121-0.373-1.712-0.384v-1.376c0.832 0 1.616 0.192 2.319 0.512zM13.855 5.632c-0.154-0.373-0.342-0.732-0.56-1.072l1.121-0.768c0.271 0.432 0.512 0.88 0.704 1.36zM13.809 6.496l-1.345 0.304c-0.153-0.567-0.414-1.099-0.767-1.568l1.088-0.863c0.48 0.639 0.832 1.343 1.025 2.127zM11.504 4.992c-0.381-0.445-0.843-0.813-1.36-1.089l0.608-1.247c0.704 0.366 1.329 0.866 1.84 1.472zM11.104 2.496l0.64-1.216c0.448 0.256 0.863 0.544 1.264 0.88l-0.911 1.040c-0.307-0.267-0.639-0.503-0.993-0.704zM10.832 2.352c-0.36-0.177-0.735-0.322-1.12-0.432l0.336-1.328c0.496 0.144 0.976 0.32 1.439 0.56zM9.392 1.84c-0.4-0.096-0.8-0.144-1.216-0.159v-1.361c0.529 0.016 1.056 0.080 1.552 0.193zM7.872 1.681c-0.403 0.014-0.805 0.063-1.2 0.144l-0.32-1.329c0.48-0.112 0.991-0.177 1.52-0.177zM6.352 1.903c-0.391 0.111-0.771 0.256-1.136 0.433l-0.64-1.216c0.461-0.229 0.943-0.411 1.44-0.544zM4.944 2.48c-0.353 0.196-0.685 0.427-0.992 0.688l-0.912-1.024c0.4-0.336 0.816-0.624 1.264-0.879zM5.264 2.656l0.592 1.247c-0.528 0.272-0.976 0.64-1.36 1.072l-1.072-0.863c0.517-0.597 1.141-1.091 1.84-1.456zM3.232 4.368l1.072 0.863c-0.353 0.47-0.614 1.002-0.768 1.569l-1.344-0.304c0.208-0.8 0.56-1.52 1.040-2.128zM2.16 5.6l-1.28-0.48c0.191-0.48 0.432-0.944 0.72-1.36l1.12 0.784c-0.227 0.329-0.415 0.683-0.56 1.056zM2.048 5.903c-0.128 0.385-0.24 0.768-0.288 1.184l-1.36-0.159c0.080-0.513 0.192-1.025 0.369-1.505zM1.744 8.912c0.064 0.4 0.159 0.8 0.288 1.184l-1.28 0.48c-0.181-0.485-0.304-0.99-0.368-1.505zM2.16 10.384c0.159 0.384 0.352 0.736 0.56 1.071l-1.12 0.769c-0.29-0.419-0.531-0.871-0.72-1.344zM2.176 9.456l1.345-0.304c0.144 0.576 0.416 1.121 0.752 1.584l-1.073 0.864c-0.483-0.638-0.831-1.367-1.024-2.144zM4.464 10.976c0.385 0.448 0.848 0.832 1.376 1.104l-0.608 1.248c-0.709-0.371-1.339-0.877-1.856-1.488zM4.944 13.519l-0.64 1.217c-0.449-0.251-0.873-0.546-1.264-0.881l0.912-1.023c0.304 0.271 0.624 0.496 0.992 0.687zM5.216 13.664c0.352 0.176 0.736 0.32 1.137 0.431l-0.336 1.328c-0.498-0.131-0.981-0.313-1.44-0.543zM6.656 14.176c0.384 0.080 0.784 0.129 1.2 0.145v1.359c-0.516-0.017-1.029-0.076-1.537-0.176zM8.176 14.32c0.403-0.014 0.805-0.063 1.201-0.145l0.319 1.328c-0.499 0.112-1.009 0.176-1.52 0.191zM9.681 14.096c0.391-0.11 0.77-0.255 1.135-0.431l0.64 1.216c-0.459 0.233-0.941 0.415-1.439 0.543zM11.071 13.519c0.352-0.191 0.688-0.431 0.992-0.687l0.913 1.023c-0.392 0.335-0.815 0.63-1.264 0.881zM10.752 13.344l-0.592-1.247c0.525-0.276 0.993-0.651 1.376-1.104l1.071 0.864c-0.519 0.607-1.148 1.112-1.855 1.487zM12.799 11.616l-1.071-0.864c0.355-0.472 0.611-1.011 0.752-1.584l1.345 0.304c-0.207 0.771-0.554 1.499-1.025 2.144zM13.84 10.4l1.28 0.481c-0.192 0.48-0.432 0.928-0.719 1.36l-1.121-0.785c0.225-0.336 0.416-0.688 0.561-1.056zM13.952 10.097c0.128-0.369 0.224-0.768 0.289-1.168l1.359 0.159c-0.073 0.507-0.196 1.005-0.367 1.488zM14.256 3.536l-1.121 0.768c-0.239-0.327-0.507-0.631-0.799-0.912l0.912-1.024c0.368 0.368 0.704 0.752 1.008 1.168zM2.8 2.352l0.912 1.024c-0.304 0.272-0.56 0.576-0.8 0.912l-1.12-0.784c0.287-0.424 0.627-0.811 1.008-1.152zM1.776 12.496l1.12-0.768c0.24 0.32 0.513 0.625 0.8 0.913l-0.912 1.023c-0.365-0.363-0.703-0.754-1.008-1.168zM13.216 13.649l-0.912-1.025c0.288-0.271 0.561-0.575 0.799-0.896l1.121 0.784c-0.305 0.4-0.641 0.783-1.009 1.137z"></path>
</svg>
