<!-- Generated by IcoMoon.io -->
<svg version="1.1" xmlns="http://www.w3.org/2000/svg" width="16" height="16" viewBox="0 0 16 16">
<title>w3c</title>
<path fill="#005a9c" d="M15.761 3.735l-0.621 1.239c0 0-0.267-0.492-0.53-0.717-0.251-0.215-0.576-0.413-0.987-0.371-0.398 0.041-0.847 0.391-1.148 0.973-0.342 0.663-0.459 1.334-0.461 2.075-0.003 1.037 0.38 1.745 0.38 1.745s-0.088-0.329-0.073-0.887c0.009-0.347 0.011-0.726 0.273-1.507 0.22-0.653 0.723-1.183 1.167-1.275 0.345-0.071 0.565-0.020 0.904 0.219 0.402 0.283 0.644 0.795 0.644 0.795l0.631-1.207zM0 3.783l2.513 8.482h0.104l1.571-5.257 1.571 5.257h0.105l2.152-7.263 0.101-0.172h1.77l-1.467 2.535v0.503h0.419c0.537 0 0.932 0.164 1.183 0.492 0.216 0.28 0.325 0.674 0.325 1.184 0 0.461-0.101 0.855-0.303 1.183s-0.451 0.492-0.744 0.492c-0.279 0-0.522-0.092-0.728-0.277s-0.371-0.438-0.497-0.759l-0.859 0.356c0.174 0.531 0.443 0.951 0.807 1.262s0.789 0.466 1.277 0.466c0.649 0 1.178-0.262 1.587-0.785s0.613-1.169 0.613-1.937c0-0.621-0.14-1.162-0.419-1.623-0.28-0.46-0.691-0.778-1.236-0.953l1.551-2.671v-0.513h-4.118l-1.518 5.164-1.519-5.163h-1.1l0.503 1.686-1.027 3.477-1.517-5.163zM11.627 9.703c0 0 0.155 0.503 0.253 0.717 0.056 0.123 0.228 0.5 0.472 0.827 0.227 0.307 0.669 0.832 1.341 0.951s1.133-0.183 1.247-0.256c0.115-0.073 0.355-0.275 0.507-0.438 0.159-0.17 0.31-0.387 0.393-0.517 0.061-0.095 0.16-0.288 0.16-0.288l-0.161-0.837c0 0-0.279 0.499-0.452 0.691s-0.485 0.529-0.868 0.699c-0.384 0.169-0.585 0.201-0.964 0.165s-0.731-0.255-0.855-0.347c-0.123-0.092-0.439-0.361-0.617-0.613-0.179-0.251-0.457-0.753-0.457-0.753z"></path>
</svg>
