<!-- Generated by IcoMoon.io -->
<svg version="1.1" xmlns="http://www.w3.org/2000/svg" width="16" height="16" viewBox="0 0 16 16">
<title>wattpad</title>
<path fill="#f68d12" d="M15.305 12.173c0 1.183-0.905 2.087-2.087 2.087h-6.958c-3.547 0-5.565-1.878-5.565-5.217v-5.217c0-1.183 0.905-2.087 2.087-2.087h2.087c0.348 0 0.765 0.069 1.044 0.278 0.278-0.209 0.695-0.278 1.043-0.278h2.087c0.348 0 0.765 0.069 1.043 0.278 0.279-0.209 0.696-0.278 1.044-0.278h2.087c1.183 0 2.087 0.904 2.087 2.087zM13.218 1.043h-2.087c-0.348 0-0.696 0.070-1.044 0.209-0.308-0.13-0.667-0.206-1.042-0.209h-2.088c-0.348 0-0.696 0.070-1.043 0.209-0.309-0.13-0.667-0.207-1.043-0.209h-2.087c-1.535 0.005-2.779 1.248-2.783 2.783v5.218c0 3.687 2.365 5.913 6.261 5.913h6.957c1.535-0.005 2.779-1.248 2.783-2.784v-8.348c-0.005-1.535-1.248-2.778-2.782-2.783h-0zM6.261 12.173h6.957v-8.347h-2.087v6.956h-2.087v-6.957h-2.087v6.957h-0.697c-0.695 0-1.391-0.557-1.391-1.739v-5.217h-2.087v5.217c0 2.087 0.973 3.131 3.478 3.131z"></path>
</svg>
