<!-- Generated by IcoMoon.io -->
<svg version="1.1" xmlns="http://www.w3.org/2000/svg" width="16" height="16" viewBox="0 0 16 16">
<title>waze</title>
<path fill="#333665" d="M8.876 1.060c-0.15 0.002-0.3 0.009-0.45 0.020-1.443 0.103-2.863 0.616-4.046 1.551-1.463 1.155-2.197 2.883-2.331 4.7h0.001c-0.062 0.813-0.153 1.433-0.313 1.753s-0.28 0.425-0.827 0.426c-0.731-0.005-1.178 0.897-0.734 1.477 0.832 1.105 1.935 1.803 3.147 2.243-0.014 0.073-0.021 0.158-0.022 0.244v0c0 0.809 0.656 1.465 1.465 1.465 0 0 0.001 0 0.001 0h-0c0.682-0.002 1.255-0.47 1.416-1.102l0.002-0.010c0.871 0.080 1.738 0.093 2.549 0.067 0.243-0.008 0.487-0.030 0.729-0.061 0.166 0.64 0.737 1.105 1.418 1.107h0c0 0 0.001 0 0.001 0 0.809 0 1.465-0.656 1.465-1.465v-0c-0-0.191-0.037-0.374-0.104-0.541l0.003 0.010c0.584-0.305 1.087-0.648 1.546-1.042l-0.011 0.009c1.396-1.205 2.341-2.933 2.201-4.936-0.075-1.149-0.507-2.199-1.165-3.072-1.429-1.907-3.687-2.873-5.945-2.843zM9.12 2.087c0.208 0.005 0.415 0.018 0.622 0.042 1.653 0.192 3.228 0.997 4.267 2.385v0.001c0.553 0.733 0.903 1.591 0.964 2.528v0.002c0.115 1.651-0.643 3.055-1.851 4.098-0.458 0.393-0.979 0.735-1.541 1.005l-0.043 0.018c-0.19-0.098-0.415-0.155-0.653-0.156h-0c-0.555 0.001-1.037 0.309-1.286 0.764l-0.004 0.008c-0.259 0.049-0.566 0.084-0.879 0.097l-0.013 0c-0.193 0.007-0.419 0.011-0.647 0.011-0.705 0-1.4-0.040-2.084-0.118l0.084 0.008c-0.252-0.462-0.734-0.77-1.288-0.771h-0c-0.34 0-0.653 0.117-0.901 0.311l0.003-0.002c-1.084-0.369-2.052-0.948-2.77-1.841 0.701-0.064 1.277-0.4 1.546-0.939 0.295-0.593 0.353-1.298 0.417-2.132v-0.001c0.117-1.594 0.74-3.024 1.947-3.976h0.001c1.18-0.935 2.652-1.374 4.109-1.342zM7.015 5.179c-0.459 0-0.835 0.386-0.835 0.865s0.376 0.865 0.835 0.865c0.459 0 0.835-0.385 0.835-0.865 0-0.474-0.375-0.865-0.835-0.865zM10.691 5.179c-0.459 0-0.833 0.386-0.833 0.865-0.005 0.48 0.369 0.865 0.833 0.865 0.459 0 0.835-0.385 0.835-0.865 0-0.474-0.376-0.865-0.835-0.865zM6.427 7.853c-0.163 0.003-0.306 0.086-0.391 0.212l-0.001 0.002c-0.052 0.074-0.083 0.165-0.083 0.264 0 0.034 0.004 0.067 0.011 0.099l-0.001-0.003c0.23 1.189 1.45 2.086 2.843 2.086h0.083c0.704-0.021 1.351-0.229 1.877-0.615 0.511-0.371 0.86-0.877 0.985-1.425 0.007-0.031 0.011-0.067 0.011-0.104 0-0.096-0.027-0.186-0.075-0.263l0.001 0.002c-0.065-0.107-0.17-0.185-0.294-0.213l-0.003-0.001c-0.034-0.009-0.073-0.014-0.113-0.014-0.226 0-0.416 0.158-0.464 0.37l-0.001 0.003c-0.147 0.62-0.866 1.267-1.956 1.293-1.048 0.031-1.825-0.657-1.951-1.304-0.044-0.224-0.238-0.391-0.472-0.391-0.002 0-0.005 0-0.007 0h0z"></path>
</svg>
