<!-- Generated by IcoMoon.io -->
<svg version="1.1" xmlns="http://www.w3.org/2000/svg" width="16" height="16" viewBox="0 0 16 16">
<title>weasyl</title>
<path fill="#900" d="M14.153 2.771c-0.961-0.779-2.199-1.25-3.547-1.25-0.129 0-0.257 0.004-0.384 0.013l0.017-0.001c-2.511 0.162-4.216 1.775-4.909 4.321-0.853-0.816-1.261-2.159-1.395-3.693-0.68 0.143-1.105 0.468-1.489 0.825 0.297 1.544 1.201 2.677 2.176 3.439-1.706 0.211-3.993 1.628-4.514 3.269-0.338 1.065 0.172 2.277 0.855 3.013 0.825 0.889 2.5 1.332 4.237 1.169 0.025 0.241-0.069 0.357-0.039 0.605 2.711-0.204 4.783-1.097 6.693-2.596 0.746-0.585 1.773-1.358 2.504-2.151 0.734-0.795 1.531-1.719 1.629-3.013 0.14-1.86-0.824-3.129-1.834-3.949zM13.197 10.063c-0.69 0.667-1.494 1.198-2.234 1.783-0.833-1.325-1.722-2.656-2.591-3.945 0.011 1.753 0.004 3.621 0.027 5.305-0.52 0.254-1.193 0.372-1.829 0.509-1.29-1.945-2.645-3.993-3.974-5.939 0.462-0.298 1.085-0.523 1.652-0.717 0.946 1.367 1.819 2.835 2.781 4.222 0.013-2.075-0.006-4.449-0.041-6.613 0.412-0.093 0.752-0.192 1.084-0.31l-0.066 0.020c1.209 1.814 2.369 3.752 3.643 5.573-0.013-1.168-0.021-2.547-0.021-3.928 0-0.908 0.003-1.816 0.010-2.723l-0.001 0.139c0.572-0.188 1.202-0.357 1.779-0.539 0.013 2.333-0.225 4.752-0.218 7.162z"></path>
</svg>
