<!-- Generated by IcoMoon.io -->
<svg version="1.1" xmlns="http://www.w3.org/2000/svg" width="16" height="16" viewBox="0 0 16 16">
<title>webauthn</title>
<path fill="#3423a6" d="M10.191 2.42c-2.815 0.11-5.091 2.28-5.365 5.039l-0.002 0.023h0.367c0.131-1.236 0.677-2.324 1.493-3.142l-0 0c0.182 0.168 0.384 0.321 0.599 0.454l0.017 0.010c-0.405 0.785-0.653 1.704-0.721 2.679h0.090c0.070-0.978 0.323-1.879 0.71-2.631 0.497 0.289 1.082 0.503 1.718 0.627-0.106 0.745-0.167 1.606-0.167 2.481 0 0.010 0 0.019 0 0.029v-0.002h-0.565v0.090h0.565c0.002 0.889 0.060 1.745 0.167 2.509-0.636 0.123-1.221 0.337-1.718 0.627-0.313-0.607-0.542-1.311-0.648-2.056l-0.004-0.035h-0.091c0.109 0.773 0.335 1.5 0.665 2.139-0.232 0.142-0.434 0.295-0.619 0.466l0.003-0.002c-0.841-0.843-1.395-1.973-1.502-3.231l-0.001-0.019h-0.367c0.265 2.872 2.663 5.104 5.582 5.104 3.077 0 5.576-2.48 5.604-5.551l0-0.003c0-0.001 0-0.002 0-0.003 0-0.802-0.169-1.565-0.473-2.255l0.014 0.036c-0.882-2.008-2.853-3.384-5.146-3.384-0.072 0-0.143 0.001-0.214 0.004l0.010-0zM10.401 2.784c0.103 0 0.207 0.003 0.309 0.009 0.243 0.227 0.472 0.713 0.655 1.409 0.087 0.318 0.17 0.722 0.231 1.134l0.007 0.060c-0.36 0.068-0.775 0.107-1.198 0.107-0.002 0-0.003 0-0.005 0h0c-0.002 0-0.003 0-0.005 0-0.423 0-0.838-0.039-1.24-0.113l0.042 0.006c0.068-0.471 0.151-0.875 0.255-1.27l-0.017 0.077c0.183-0.697 0.412-1.183 0.655-1.409 0.092-0.006 0.201-0.009 0.31-0.009h0zM9.958 2.803c-0.23 0.261-0.439 0.729-0.609 1.377-0.088 0.32-0.172 0.726-0.233 1.14l-0.007 0.060c-0.626-0.122-1.201-0.332-1.689-0.617 0.457-0.855 1.090-1.509 1.82-1.85 0.203-0.048 0.448-0.087 0.698-0.108l0.019-0.001zM10.845 2.803c0.271 0.023 0.518 0.063 0.758 0.119l-0.035-0.007c0.728 0.342 1.358 0.995 1.814 1.847-0.487 0.285-1.063 0.495-1.689 0.618-0.068-0.474-0.152-0.88-0.257-1.277l0.017 0.077c-0.17-0.648-0.379-1.115-0.608-1.377zM8.863 3.012c-0.437 0.271-0.838 0.659-1.184 1.153-0.11 0.155-0.222 0.335-0.323 0.521l-0.014 0.029c-0.224-0.137-0.418-0.285-0.597-0.449l0.003 0.002c0.577-0.565 1.287-0.998 2.078-1.247l0.037-0.010zM11.946 3.016c0.825 0.259 1.533 0.69 2.111 1.252l-0.001-0.001c-0.176 0.162-0.371 0.31-0.579 0.439l-0.016 0.009c-0.115-0.215-0.227-0.395-0.349-0.567l0.011 0.017c-0.344-0.492-0.743-0.879-1.177-1.149zM14.119 4.339c0.45 0.453 0.817 0.987 1.079 1.579l0.013 0.034c0.266 0.599 0.423 1.298 0.428 2.032l0 0.002h-1.397c-0.007-1.16-0.265-2.264-0.74-3.183 0.233-0.142 0.434-0.295 0.619-0.466l-0.003 0.002zM13.423 4.851c0.453 0.88 0.723 1.963 0.729 3.135h-2.28c0-0.006 0-0.014 0-0.021 0-0.877-0.061-1.74-0.178-2.585l0.011 0.098c0.636-0.124 1.222-0.337 1.718-0.627zM9.185 5.494c0.362 0.068 0.78 0.107 1.206 0.107 0.004 0 0.007 0 0.011-0h-0.001c0.003 0 0.006 0 0.010 0 0.426 0 0.843-0.039 1.248-0.113l-0.042 0.006c0.107 0.759 0.164 1.609 0.166 2.492h-0.785c-0.020 0.034-0.040 0.064-0.063 0.091l0.001-0.001h0.847c0 0.008 0 0.017 0 0.027 0 0.87-0.060 1.725-0.176 2.563l0.011-0.097c-0.366-0.068-0.786-0.107-1.216-0.107s-0.85 0.039-1.258 0.114l0.043-0.006c-0.105-0.741-0.165-1.597-0.165-2.467 0-0.009 0-0.018 0-0.027v0.001h0.863c-0.021-0.026-0.041-0.056-0.058-0.087l-0.002-0.003h-0.803c0.002-0.883 0.059-1.733 0.165-2.492zM1.705 6.247c-0.889 0.010-1.616 0.691-1.697 1.56l-0.001 0.007c-0.095 1.027 0.709 1.895 1.711 1.895 0.84 0 1.541-0.611 1.689-1.416h2.96v0.648h0.631v-0.648h0.558v0.954h0.63v-1.584h-4.779c-0.151-0.81-0.853-1.415-1.696-1.415-0.002 0-0.004 0-0.005 0h0zM1.667 6.89c0.014-0.001 0.029-0.001 0.045-0.001 0.603 0 1.092 0.489 1.093 1.092v0c-0.001 0.603-0.49 1.092-1.093 1.092h-0c-0.596-0.010-1.074-0.495-1.074-1.093 0-0.581 0.454-1.056 1.026-1.091l0.003-0zM10.393 7.149c-0.27 0.008-0.486 0.229-0.486 0.5 0 0.186 0.102 0.349 0.253 0.435l0.002 0.001-0.255 1.305h1l-0.255-1.305c0.154-0.087 0.256-0.25 0.256-0.436v-0c0-0 0-0 0-0 0-0.276-0.224-0.5-0.5-0.5-0.005 0-0.011 0-0.016 0l0.001-0zM11.872 8.076h2.281c-0.007 1.172-0.277 2.256-0.729 3.136-0.496-0.289-1.082-0.503-1.718-0.627 0.106-0.745 0.167-1.606 0.167-2.481 0-0.010-0-0.020-0-0.030v0.002zM14.243 8.076h1.397c-0.008 1.425-0.588 2.712-1.521 3.647l0-0c-0.182-0.169-0.384-0.322-0.599-0.454l-0.017-0.010c0.475-0.919 0.733-2.022 0.74-3.183zM10.563 10.545c0.374 0.009 0.734 0.046 1.083 0.11l-0.042-0.006c-0.068 0.471-0.151 0.875-0.255 1.271l0.017-0.077c-0.183 0.697-0.412 1.183-0.655 1.409-0.093 0.006-0.201 0.009-0.31 0.009s-0.217-0.003-0.325-0.010l0.015 0.001c-0.243-0.227-0.472-0.713-0.655-1.409-0.087-0.318-0.17-0.722-0.231-1.134l-0.007-0.060c0.362-0.068 0.778-0.107 1.204-0.107 0.056 0 0.113 0.001 0.169 0.002l-0.008-0zM11.693 10.665c0.627 0.123 1.202 0.333 1.689 0.617-0.457 0.856-1.090 1.51-1.82 1.851-0.203 0.048-0.448 0.087-0.697 0.108l-0.019 0.001c0.229-0.262 0.438-0.729 0.609-1.377 0.088-0.32 0.171-0.727 0.232-1.14l0.007-0.060zM9.11 10.665c0.068 0.474 0.152 0.88 0.257 1.277l-0.017-0.077c0.17 0.649 0.379 1.116 0.609 1.377-0.269-0.023-0.514-0.061-0.752-0.116l0.035 0.007c-0.731-0.341-1.363-0.995-1.821-1.85 0.487-0.285 1.063-0.495 1.689-0.618zM7.342 11.33c0.115 0.215 0.227 0.395 0.349 0.567l-0.011-0.017c0.347 0.494 0.747 0.882 1.184 1.153-0.828-0.259-1.538-0.691-2.117-1.257l0.001 0.001c0.176-0.162 0.371-0.31 0.578-0.438l0.016-0.009zM13.461 11.33c0.224 0.137 0.418 0.285 0.597 0.449l-0.003-0.002c-0.577 0.565-1.287 0.998-2.078 1.247l-0.037 0.010c0.436-0.271 0.837-0.659 1.183-1.153 0.11-0.155 0.222-0.335 0.324-0.521l0.014-0.029z"></path>
</svg>
