<!-- Generated by IcoMoon.io -->
<svg version="1.1" xmlns="http://www.w3.org/2000/svg" width="16" height="16" viewBox="0 0 16 16">
<title>webcomponents-dot-org</title>
<path fill="#29abe2" d="M7.82 1.483l-0.007 0.011h-4.069l-3.745 6.492 3.745 6.491h8.533l0.027 0.040 1.423-2.49 0.345-0.595h-0.005l0.005-0.009-0.417-0.5h0.597l0.004-0.007 0.005 0.007 1.738-2.926-1.738-2.927-0.002 0.003-0.007-0.013h-0.63l0.421-0.509-1.738-3.046-0.004 0.007-0.016-0.027zM6.071 4.549h4.126l-0.353 0.509h-0.016l1.599 2.677h0.583l-0.185 0.219 0.238 0.29h-0.637l-1.599 2.677h0.018l0.349 0.509h-4.145l-1.993-3.445z"></path>
</svg>
