<!-- Generated by IcoMoon.io -->
<svg version="1.1" xmlns="http://www.w3.org/2000/svg" width="16" height="16" viewBox="0 0 16 16">
<title>webmin</title>
<path fill="#7da0d0" d="M6.2 0c-1.033 0.004-1.773 0.771-1.668 2.004 0.068 0.818 0.139 1.649 0.209 2.486-0.72 0.303-1.479 0.623-2.285 0.964-0.837 0.357-1.415 1.073-1.638 1.923-0.227 0.867-0.090 1.872 0.482 2.762 0.509 0.797 1.237 1.337 2.17 1.63-0.053 0.728 0.020 1.387 0.227 1.97 0.092 0.259 0.211 0.503 0.355 0.732 0.532 0.846 1.319 1.353 2.122 1.49 0.134 0.025 0.289 0.040 0.447 0.040 0.68 0 1.296-0.269 1.75-0.706l-0.001 0.001c0.653-0.63 1.271-1.225 1.86-1.789 0.698 0.42 1.371 0.823 2.025 1.218 1.069 0.638 2.162-0.056 2.42-1.41 0.108-0.565 0.060-1.195-0.14-1.908 0.38-0.234 0.617-0.601 0.711-1.114 0.203-1.089-0.335-2.521-1.218-3.253-0.468-0.388-0.951-0.785-1.443-1.189l-0.003-0.015c-0.124-0.7-0.245-1.387-0.365-2.060-0.204-1.149-1.199-2.359-2.249-2.693-0.481-0.153-0.929-0.105-1.357 0.15-0.519-0.549-1.062-0.92-1.653-1.109-0.226-0.077-0.486-0.122-0.756-0.123h-0.001zM6.879 1.653c0.080-0.002 0.167 0.008 0.254 0.032 0.311 0.083 0.608 0.327 0.77 0.621 0.132 0.245 0.193 0.447 0.247 0.865l0.269 2.095c0.009 0.066 0.018 0.13 0.025 0.195 0.077 0.593 0.429 1.019 0.887 1.079 0.439 0.058 0.673-0.287 0.593-0.84-0.012-0.104-0.021-0.168-0.031-0.231l0.006 0.045-0.295-2.003c-0.042-0.283-0.056-0.5-0.033-0.64 0.035-0.31 0.281-0.471 0.597-0.386 0.319 0.087 0.618 0.381 0.756 0.731 0.071 0.177 0.103 0.315 0.157 0.643 0.105 0.627 0.208 1.26 0.315 1.912 0.009 0.058 0.019 0.116 0.026 0.178 0.013 0.060 0.030 0.113 0.045 0.167l0.001 0.009 0.001 0.001 0.015 0.056v-0.001c0-0.003 0-0.005-0.001-0.007l0.002 0.005v0.002c0.066 0.249 0.229 0.497 0.471 0.687 0.043 0.035 0.093 0.069 0.137 0.107 0.487 0.382 0.961 0.76 1.427 1.124 0.281 0.22 0.382 0.323 0.493 0.478 0.179 0.253 0.255 0.623 0.191 0.906-0.058 0.262-0.227 0.418-0.439 0.393-0.173-0.021-0.32-0.091-0.616-0.31-0.489-0.367-0.989-0.741-1.507-1.123-0.045-0.032-0.096-0.067-0.142-0.101-0.431-0.317-0.805-0.257-0.949 0.177-0.148 0.444 0.060 0.966 0.503 1.276 0.048 0.033 0.102 0.071 0.149 0.105 0.54 0.378 1.070 0.747 1.587 1.107 0.219 0.153 0.382 0.296 0.49 0.425 0.238 0.273 0.351 0.72 0.269 1.095-0.088 0.395-0.343 0.601-0.652 0.531-0.157-0.033-0.274-0.096-0.555-0.278-0.545-0.353-1.105-0.719-1.682-1.091-0.053-0.033-0.107-0.069-0.158-0.107-0.182-0.111-0.358-0.161-0.512-0.155h-0.001c-0.173-0.011-0.354 0.052-0.528 0.191-0.048 0.040-0.097 0.078-0.142 0.12-0.539 0.444-1.098 0.917-1.69 1.415-0.32 0.267-0.464 0.371-0.678 0.447-0.43 0.164-0.905-0.020-1.203-0.493-0.281-0.461-0.269-1.059 0.021-1.436 0.123-0.168 0.332-0.36 0.62-0.564 0.627-0.448 1.22-0.87 1.784-1.275 0.051-0.035 0.101-0.069 0.152-0.106 0.427-0.303 0.509-0.84 0.208-1.341-0.293-0.5-0.78-0.651-1.24-0.373-0.068 0.040-0.119 0.072-0.17 0.105l0.013-0.008c-0.597 0.366-1.223 0.752-1.883 1.159-0.425 0.256-0.651 0.339-0.968 0.354-0.393 0.020-0.803-0.221-1.043-0.603-0.271-0.424-0.281-0.951-0.020-1.279 0.147-0.192 0.303-0.309 0.753-0.539 0.695-0.36 1.363-0.699 1.997-1.017 0.055-0.033 0.109-0.056 0.165-0.083 0.039-0.019 0.075-0.042 0.106-0.065 0.283-0.125 0.421-0.438 0.377-0.862-0.008-0.071-0.013-0.14-0.025-0.208-0.171-1.841-0.254-2.6-0.34-3.358l0.106 1.148c-0.047-0.44-0.042-0.595 0.014-0.769 0.067-0.209 0.26-0.329 0.501-0.335zM4.74 4.491l0.001 0.017c-0.001-0.001-0.001-0.002-0.002-0.003l-0-0v-0.012zM4.743 4.519l0.004 0.058c-0.002-0.017-0.003-0.034-0.007-0.053 0-0.002 0.002-0.003 0.003-0.005zM4.749 4.61l0.002 0.017h-0.001v-0.010c0-0.002 0.001-0.003 0-0.005zM4.753 4.637v0.008c-0.001-0.002-0.002-0.003-0.002-0.005 0.001 0 0.001-0.001 0.002-0.003zM11.486 6.185l0.001 0.008c0 0.001 0 0.003 0.002 0.005zM11.489 6.197c0.003 0.010 0.005 0.023 0.009 0.033l-0.007-0.029c-0.001-0.001-0.002-0.002-0.002-0.004v-0z"></path>
</svg>
