<!-- Generated by IcoMoon.io -->
<svg version="1.1" xmlns="http://www.w3.org/2000/svg" width="16" height="16" viewBox="0 0 16 16">
<title>webpack</title>
<path fill="#8dd6f9" d="M14.010 12.080l-5.776 3.253v-2.534l3.599-1.971zM14.406 11.724v-6.804l-2.114 1.215v4.373zM1.95 12.080l5.776 3.253v-2.534l-3.599-1.971zM1.555 11.724v-6.804l2.114 1.215v4.373zM1.803 4.48l5.924-3.337v2.45l-3.824 2.095zM14.158 4.48l-5.924-3.337v2.45l3.824 2.095zM7.727 12.223l-3.551-1.944v-3.852l3.551 2.041zM8.234 12.223l3.551-1.944v-3.852l-3.551 2.041zM4.417 5.982l3.564-1.952 3.565 1.952-3.565 2.050z"></path>
</svg>
