<!-- Generated by IcoMoon.io -->
<svg version="1.1" xmlns="http://www.w3.org/2000/svg" width="16" height="16" viewBox="0 0 16 16">
<title>webstorm</title>
<path d="M0 0v16h16v-16zM11.926 1.926c0.963 0 1.778 0.296 2.445 0.852l-0.741 1.111c-0.593-0.407-1.148-0.667-1.704-0.667s-0.852 0.259-0.852 0.593v0.037c0 0.445 0.296 0.593 1.407 0.889 1.333 0.371 2.074 0.852 2.074 2v0.037c0 1.333-1 2.074-2.407 2.074-1-0.037-2-0.407-2.778-1.111l0.852-1.037c0.593 0.481 1.222 0.815 1.963 0.815 0.593 0 0.926-0.222 0.926-0.629v-0.037c0-0.371-0.222-0.555-1.333-0.852-1.333-0.333-2.148-0.704-2.148-2.037v-0.037c0-1.222 0.963-2 2.297-1.999zM1.185 2.074h1.519l1 3.852 1.148-3.852h1.111l1.111 3.852 1-3.852h1.555l-1.889 6.629h-1.259l-1.074-3.852-1.111 3.852h-1.222zM1.519 13h6v1h-6z"></path>
</svg>
