<!-- Generated by IcoMoon.io -->
<svg version="1.1" xmlns="http://www.w3.org/2000/svg" width="16" height="16" viewBox="0 0 16 16">
<title>wechat</title>
<path fill="#7bb32e" d="M15.694 8.499c-0.406-0.92-1.172-1.651-2.061-2.101-1.569-0.795-3.521-0.79-5.086 0.020-1.087 0.558-1.995 1.558-2.253 2.775-0.212 0.896-0.022 1.861 0.453 2.641 0.707 1.175 1.986 1.925 3.314 2.165 0.962 0.195 1.957 0.079 2.892-0.19 0.561 0.217 1.061 0.569 1.605 0.831-0.141-0.471-0.291-0.937-0.451-1.401 0.611-0.433 1.164-0.974 1.496-1.653 0.496-0.943 0.526-2.114 0.090-3.087zM9.078 2.188c-1.663-0.936-3.735-1.077-5.524-0.43-1.176 0.423-2.24 1.21-2.897 2.28-0.597 0.967-0.82 2.172-0.533 3.278 0.289 1.227 1.141 2.255 2.175 2.942-0.2 0.567-0.39 1.133-0.57 1.703 0.65-0.34 1.3-0.695 1.951-1.041 0.78 0.25 1.61 0.373 2.44 0.345-0.22-0.629-0.27-1.31-0.17-1.967 0.15-0.914 0.65-1.75 1.329-2.369 1.151-1.077 2.781-1.531 4.331-1.421-0.291-1.423-1.291-2.626-2.549-3.32zM10.233 8.847c-0.139 0.435-0.771 0.565-1.077 0.235-0.337-0.306-0.206-0.945 0.237-1.082 0.489-0.207 1.055 0.358 0.84 0.847zM13.43 8.909c-0.171 0.391-0.761 0.482-1.051 0.18-0.139-0.127-0.18-0.319-0.229-0.487 0.069-0.305 0.28-0.622 0.62-0.637 0.47-0.065 0.891 0.515 0.65 0.944zM8.66 4.606c0.005 0.641-0.85 1.041-1.33 0.606-0.498-0.357-0.357-1.225 0.228-1.404 0.523-0.21 1.142 0.229 1.101 0.79zM4.621 4.769c-0.115 0.557-0.861 0.825-1.297 0.452-0.506-0.357-0.364-1.241 0.23-1.421 0.582-0.224 1.243 0.367 1.067 0.969z"></path>
</svg>
