<!-- Generated by IcoMoon.io -->
<svg version="1.1" xmlns="http://www.w3.org/2000/svg" width="16" height="16" viewBox="0 0 16 16">
<title>whatsapp</title>
<path fill="#25d366" d="M11.665 9.588c-0.201-0.1-1.178-0.578-1.36-0.644-0.182-0.067-0.315-0.1-0.449 0.1-0.131 0.197-0.514 0.643-0.629 0.775-0.117 0.13-0.233 0.14-0.431 0.050-0.2-0.1-0.842-0.31-1.602-0.99-0.592-0.53-0.989-1.18-1.107-1.38-0.116-0.2-0.013-0.31 0.087-0.41 0.091-0.090 0.201-0.23 0.301-0.349 0.097-0.121 0.129-0.201 0.198-0.331 0.067-0.14 0.033-0.25-0.017-0.349s-0.448-1.080-0.615-1.471c-0.16-0.389-0.325-0.34-0.448-0.34-0.115-0.010-0.247-0.010-0.381-0.010s-0.349 0.049-0.531 0.239c-0.182 0.2-0.697 0.68-0.697 1.65s0.713 1.91 0.813 2.050c0.099 0.13 1.403 2.13 3.4 2.99 0.476 0.2 0.847 0.32 1.136 0.419 0.476 0.151 0.91 0.13 1.253 0.081 0.383-0.061 1.178-0.481 1.344-0.951 0.17-0.47 0.17-0.86 0.12-0.95s-0.18-0.14-0.38-0.23zM8.041 14.5h-0.011c-1.18 0-2.349-0.32-3.37-0.92l-0.24-0.143-2.5 0.65 0.67-2.43-0.159-0.25c-0.66-1.051-1.011-2.261-1.011-3.507 0-3.63 2.97-6.59 6.628-6.59 1.769 0 3.43 0.69 4.681 1.94 1.25 1.239 1.939 2.9 1.939 4.66-0.003 3.629-2.973 6.59-6.623 6.59zM13.68 2.299c-1.52-1.469-3.52-2.299-5.65-2.299-4.388 0-7.961 3.556-7.963 7.929 0 1.397 0.366 2.76 1.063 3.963l-1.131 4.108 4.223-1.101c1.164 0.629 2.473 0.963 3.807 0.965h0.004c4.39 0 7.964-3.557 7.966-7.931 0-2.117-0.827-4.11-2.33-5.607z"></path>
</svg>
