<!-- Generated by IcoMoon.io -->
<svg version="1.1" xmlns="http://www.w3.org/2000/svg" width="16" height="16" viewBox="0 0 16 16">
<title>wheniwork</title>
<path fill="#51a33d" d="M8 16c-4.439 0-8-3.612-8-8 0-4.439 3.561-8 8-8s8 3.561 8 8c0 4.388-3.561 8-8 8zM8 1.343c-3.665 0-6.658 2.993-6.658 6.657s2.993 6.659 6.658 6.659c3.665 0 6.658-2.993 6.658-6.659s-2.993-6.657-6.658-6.657zM11.923 8.775h-5.781c-0.256 0-0.463-0.206-0.465-0.461v-0.675c0-0.258 0.207-0.465 0.465-0.465h5.832c0.258 0 0.465 0.207 0.465 0.465v0.671c-0.051 0.258-0.258 0.465-0.515 0.465zM10.426 6.194h-5.832c-0.255 0.001-0.465-0.205-0.465-0.461v-0.673c0-0.207 0.207-0.414 0.465-0.414h5.832c0.207 0 0.413 0.207 0.413 0.413v0.671c0.001 0.257-0.207 0.465-0.413 0.465zM4.594 9.806h5.832c0.259 0 0.464 0.207 0.464 0.465v0.671c0.001 0.255-0.206 0.463-0.461 0.465h-5.835c-0.259-0.051-0.465-0.258-0.465-0.515v-0.671c-0.001-0.207 0.206-0.414 0.465-0.414z"></path>
</svg>
