<!-- Generated by IcoMoon.io -->
<svg version="1.1" xmlns="http://www.w3.org/2000/svg" width="16" height="16" viewBox="0 0 16 16">
<title>whitesource</title>
<path fill="#161d4e" d="M8 0c-4.418 0-8 3.581-8 8s3.582 8 8 8c4.419 0 8-3.582 8-8s-3.581-8-8-8zM6.947 3.277h2.111v3.512h0.438v-2.911c1.981 0.955 1.703 3.52 1.724 3.424h0.479v0.676h-7.397v-0.676h0.479c0 0-0.458-2.373 1.725-3.424v2.911h0.441zM4.301 8.612h2.12v0.364c0.003 0.871 0.708 1.576 1.578 1.579h0c0.871-0.003 1.577-0.708 1.579-1.579v-0.364h2.12v1.377h-0.861l-0.277 0.619 0.581 0.512-1.064 1.131-0.607-0.613-0.659 0.283v0.801h-1.624v-0.801l-0.658-0.283-0.608 0.613-1.063-1.131 0.581-0.512-0.277-0.619h-0.861z"></path>
</svg>
