<!-- Generated by IcoMoon.io -->
<svg version="1.1" xmlns="http://www.w3.org/2000/svg" width="16" height="16" viewBox="0 0 16 16">
<title>wii</title>
<path fill="#8b8b8b" d="M11.936 4.174c-0.486-0.009-0.887 0.377-0.896 0.862v0.012c0.008 0.488 0.408 0.877 0.896 0.87 0.522 0 0.936-0.386 0.936-0.87 0.001-0.488-0.413-0.874-0.936-0.874zM15.076 4.174c-0.498 0-0.907 0.387-0.907 0.874 0 0.474 0.409 0.87 0.907 0.87 0.511 0 0.923-0.386 0.923-0.87 0-0.488-0.412-0.874-0.924-0.874zM5.183 4.536c-0.499 0-0.835 0.249-1.009 0.81-0.161 0.571-1.196 4.548-1.196 4.548l-1.357-5.296h-1.62c0 0 1.556 5.643 1.768 6.304 0.161 0.51 0.56 0.924 1.133 0.924 0.673 0 0.986-0.488 1.123-0.924 0.15-0.451 1.159-4.174 1.159-4.174s1.010 3.726 1.146 4.174c0.15 0.435 0.46 0.924 1.121 0.924 0.586 0 0.971-0.414 1.147-0.924 0.21-0.66 1.771-6.304 1.771-6.304h-1.633l-1.347 5.296c0 0-1.033-3.977-1.208-4.548-0.161-0.563-0.513-0.81-0.997-0.81zM11.188 6.778v4.997h1.548v-4.997zM14.317 6.778v4.997h1.545v-4.997z"></path>
</svg>
