<!-- Generated by IcoMoon.io -->
<svg version="1.1" xmlns="http://www.w3.org/2000/svg" width="16" height="16" viewBox="0 0 16 16">
<title>wiiu</title>
<path fill="#8b8b8b" d="M7.422 5.621c-0.31 0-0.557 0.239-0.557 0.543 0.005 0.303 0.254 0.545 0.557 0.541 0.325 0 0.582-0.239 0.582-0.54 0-0.303-0.257-0.544-0.582-0.544zM9.375 5.621c-0.31 0-0.565 0.239-0.565 0.543 0 0.295 0.255 0.541 0.565 0.541 0.318 0 0.574-0.239 0.574-0.54 0-0.303-0.257-0.544-0.574-0.544zM11.812 5.629c-0.353 0-0.66 0.223-0.66 0.572v2.21c0 0.539 0.373 0.859 0.918 0.859h3.098c0.459 0 0.832-0.318 0.832-0.775v-2.265c0-0.275-0.205-0.573-0.459-0.573h-0.717v1.866c0 1.415-2.467 1.403-2.467 0.027v-1.92zM12.931 5.629v1.635c0 1.091 1.289 0.935 1.289 0.171v-1.805h-1.289zM3.222 5.847c-0.31 0-0.517 0.155-0.625 0.504-0.101 0.355-0.744 2.828-0.744 2.828l-0.845-3.293h-1.008c0 0 0.967 3.509 1.1 3.921 0.1 0.317 0.347 0.573 0.705 0.573 0.418 0 0.611-0.303 0.697-0.573 0.093-0.281 0.72-2.597 0.72-2.597s0.628 2.317 0.713 2.597c0.093 0.271 0.287 0.573 0.698 0.573 0.365 0 0.604-0.257 0.713-0.573 0.131-0.411 1.1-3.921 1.1-3.921h-1.014l-0.839 3.293c0 0-0.642-2.473-0.75-2.828-0.1-0.351-0.319-0.504-0.62-0.504zM6.959 7.24v3.108h0.961v-3.108zM8.903 7.24v3.108h0.961v-3.108z"></path>
</svg>
