<!-- Generated by IcoMoon.io -->
<svg version="1.1" xmlns="http://www.w3.org/2000/svg" width="16" height="16" viewBox="0 0 16 16">
<title>wikipedia</title>
<path d="M8.060 8.746c-0.624 1.288-1.478 3.032-1.902 3.819-0.411 0.716-0.751 0.621-1.021 0.019-0.937-2.214-2.862-6.096-3.767-8.273-0.167-0.401-0.294-0.658-0.413-0.759-0.121-0.1-0.369-0.16-0.748-0.181-0.14-0.016-0.209-0.050-0.209-0.106v-0.303l0.035-0.030c0.616-0.003 3.601 0 3.601 0l0.034 0.030v0.289c0 0.079-0.050 0.117-0.15 0.117l-0.376 0.021c-0.323 0.019-0.485 0.109-0.485 0.291 0 0.090 0.035 0.22 0.111 0.401 0.721 1.764 3.212 7.014 3.212 7.014l0.091 0.031 1.607-3.207-0.321-0.711-1.105-2.176c0 0-0.212-0.436-0.285-0.581-0.485-0.962-0.475-1.012-0.965-1.078-0.138-0.015-0.209-0.033-0.209-0.099v-0.312l0.040-0.030h2.861l0.075 0.025v0.301c0 0.070-0.051 0.1-0.151 0.1l-0.205 0.031c-0.528 0.041-0.441 0.254-0.091 0.948l1.055 2.168 1.172-2.336c0.195-0.427 0.155-0.534 0.074-0.631-0.047-0.056-0.203-0.147-0.541-0.16l-0.134-0.014c-0.035 0-0.065-0.010-0.097-0.034-0.030-0.021-0.045-0.051-0.045-0.086v-0.285l0.041-0.030c0.831-0.005 2.695 0 2.695 0l0.039 0.030v0.291c0 0.081-0.039 0.119-0.129 0.119-0.431 0.020-0.521 0.063-0.682 0.293-0.080 0.124-0.25 0.393-0.431 0.693l-1.534 2.849-0.043 0.090 1.861 3.808 0.113 0.032 2.931-6.959c0.103-0.281 0.086-0.481-0.043-0.597-0.131-0.115-0.231-0.182-0.571-0.197l-0.28-0.011c-0.041 0-0.070-0.009-0.101-0.030-0.029-0.019-0.048-0.050-0.048-0.079v-0.291l0.039-0.030h3.307l0.027 0.030v0.291c0 0.079-0.049 0.12-0.139 0.12-0.432 0.020-0.751 0.12-0.962 0.281-0.209 0.17-0.371 0.411-0.491 0.711 0 0-2.695 6.172-3.617 8.226-0.35 0.671-0.702 0.611-1.002-0.021-0.381-0.781-1.182-2.524-1.764-3.807z"></path>
</svg>
