<!-- Generated by IcoMoon.io -->
<svg version="1.1" xmlns="http://www.w3.org/2000/svg" width="16" height="16" viewBox="0 0 16 16">
<title>wireguard</title>
<path fill="#88171a" d="M15.987 7.763c0 0 0.369-7.763-8.163-7.763-7.545 0-7.781 7.447-7.781 7.447s-1.109 8.553 7.955 8.553c8.695 0 7.989-8.237 7.989-8.237zM5.437 5.051c1.6-0.98 3.646-0.381 4.412 1.092 0.145 0.279 0.164 0.709 0.072 1.002-0.318 1.011-1.067 1.577-2.097 1.819 0.303-0.26 0.545-0.555 0.622-0.961 0.019-0.086 0.029-0.185 0.029-0.286 0-0.313-0.102-0.602-0.275-0.836l0.003 0.004c-0.262-0.357-0.681-0.587-1.153-0.587-0.176 0-0.344 0.032-0.5 0.090l0.010-0.003c-0.633 0.24-0.98 0.819-0.918 1.529 0.058 0.66 0.559 1.088 1.497 1.251-0.14 0.074-0.248 0.129-0.353 0.187-0.437 0.243-0.803 0.562-1.090 0.945l-0.006 0.009c-0.095 0.128-0.16 0.139-0.305 0.050-1.885-1.153-2.006-4.045 0.053-5.304zM4.027 12.172c-0.303 0.077-0.597 0.191-0.906 0.292 0.151-1.021 1.347-1.962 2.359-1.855-0.282 0.384-0.462 0.859-0.493 1.374l-0 0.007c-0.336 0.062-0.653 0.103-0.96 0.181zM10.469 2.2c0.299 0.011 0.599 0.007 0.898 0.013 0.083 0.006 0.159 0.017 0.233 0.033l-0.010-0.002c-0.071 0.108-0.146 0.203-0.228 0.291l0.001-0.001c-0.107 0.1-0.227 0.197-0.382 0.046-0.037-0.037-0.125-0.028-0.189-0.029-0.298-0.003-0.596-0.013-0.893-0.002-0.279 0.009-0.544 0.037-0.803 0.084l0.034-0.005c-0.048 0.009-0.119 0.167-0.097 0.225 0.052 0.138 0.127 0.29 0.239 0.378 0.413 0.327 0.851 0.619 1.267 0.942 0.403 0.315 0.778 0.66 1.007 1.133 0.297 0.619 0.307 1.267 0.178 1.918-0.215 1.087-0.765 1.987-1.655 2.641-0.359 0.263-0.803 0.413-1.214 0.602-0.362 0.167-0.733 0.31-1.096 0.475-0.653 0.297-1.020 1.007-0.913 1.743 0.099 0.677 0.693 1.241 1.373 1.358 0.815 0.14 1.657-0.391 1.857-1.22 0.224-0.931-0.282-1.764-1.23-2.016l-0.171-0.044c0.253-0.113 0.472-0.194 0.675-0.305q0.529-0.291 1.039-0.617c0.1-0.064 0.154-0.064 0.24 0.009 0.651 0.564 1.040 1.265 1.149 2.125 0.18 1.423-0.493 2.731-1.764 3.401-1.965 1.037-4.371-0.143-4.805-2.323-0.372-1.867 0.945-3.56 2.531-3.887 0.682-0.141 1.305-0.425 1.79-0.95 0.313-0.339 0.465-0.629 0.517-0.761 0.092-0.228 0.145-0.492 0.145-0.768 0-0.001 0-0.003 0-0.004v0c-0.011-0.242-0.068-0.468-0.163-0.673l0.005 0.011c-0.165-0.377-0.8-0.977-0.957-1.104l-1.493-1.169c-0.053-0.043-0.112-0.040-0.24-0.031-0.153 0.011-0.543 0.032-0.711-0.012 0.136-0.103 0.507-0.253 0.667-0.373-0.484-0.327-1.036-0.209-1.543-0.307 0.117-0.219 0.697-0.554 1.027-0.592-0.023-0.212-0.054-0.398-0.096-0.581l0.006 0.033c-0.020-0.074-0.103-0.147-0.175-0.189-0.175-0.103-0.361-0.187-0.562-0.289 0.171-0.112 0.379-0.181 0.602-0.187l0.002-0c0.026-0.001 0.056-0.002 0.087-0.002 0.184 0 0.363 0.022 0.534 0.064l-0.015-0.003c0.36 0.082 0.647 0.028 0.933-0.216-0.225-0.091-0.451-0.173-0.669-0.271-0.253-0.116-0.458-0.225-0.658-0.345l0.030 0.017c0.567 0.079 1.114 0.291 1.693 0.213l0.015-0.079-1.345-0.313c0.802-0.073 1.549-0.085 2.256 0.259 0.199 0.097 0.407 0.177 0.598 0.288 0.093 0.053 0.155 0.16 0.232 0.243 0.060 0.065 0.109 0.153 0.184 0.193 0.283 0.15 0.593 0.156 0.911 0.149l0.007-0.107c0.319 0.1 0.678 0.468 0.678 0.737-0.517 0-1.033-0.002-1.55 0.003-0.055 0-0.11 0.041-0.165 0.063 0.052 0.031 0.103 0.085 0.157 0.087zM9.802 1.435c-0.023 0.014-0.038 0.039-0.038 0.067 0 0.024 0.010 0.045 0.027 0.059l0 0c0.021 0.036 0.059 0.060 0.103 0.060 0.022 0 0.043-0.006 0.061-0.017l-0.001 0c0.050-0.025 0.099-0.052 0.159-0.083-0.048-0.041-0.087-0.076-0.127-0.109-0.071-0.058-0.129-0.021-0.185 0.022z"></path>
</svg>
