<!-- Generated by IcoMoon.io -->
<svg version="1.1" xmlns="http://www.w3.org/2000/svg" width="16" height="16" viewBox="0 0 16 16">
<title>wire</title>
<path d="M16 9.65c0.006 2.723-2.197 4.934-4.92 4.94h-0.011c-1.091-0.010-2.148-0.387-3-1.070-2.179 1.696-5.321 1.305-7.016-0.875-0.667-0.857-1.037-1.908-1.053-2.995v-7.77h0.94v7.77c-0.001 2.209 1.789 4.001 3.997 4.003 0.862 0.001 1.701-0.277 2.393-0.793-0.775-0.89-1.204-2.029-1.21-3.209v-6.36c0-1.038 0.842-1.88 1.88-1.88s1.88 0.842 1.88 1.88v6.36c0.004 1.177-0.415 2.316-1.18 3.209 1.783 1.305 4.286 0.914 5.589-0.869 0.497-0.679 0.766-1.499 0.771-2.341v-7.77h0.94zM8.94 3.29c0-0.519-0.421-0.94-0.94-0.94s-0.94 0.421-0.94 0.94v6.36c0.001 0.94 0.334 1.851 0.94 2.57 0.605-0.719 0.939-1.63 0.94-2.57z"></path>
</svg>
