<!-- Generated by IcoMoon.io -->
<svg version="1.1" xmlns="http://www.w3.org/2000/svg" width="16" height="16" viewBox="0 0 16 16">
<title>wish</title>
<path fill="#2fb7ec" d="M14.309 5.769c-0.418 0-0.807 0.341-0.865 0.757l-0.425 3.098c-0.047 0.337-0.209 0.63-0.485 0.878s-0.588 0.372-0.933 0.372c-0.336 0-0.609-0.121-0.816-0.365-0.209-0.243-0.289-0.539-0.241-0.886l0.257-1.88c0.008-0.375-0.274-0.669-0.662-0.669h-1.017c-0.388 0-0.751 0.293-0.847 0.669l-0.265 1.88c-0.048 0.347-0.21 0.643-0.486 0.886s-0.581 0.365-0.917 0.365-0.61-0.124-0.823-0.372-0.295-0.541-0.249-0.878l0.569-4.111c0.061-0.4-0.177-0.819-0.539-0.988 0 0-4.287-1.787-4.566-1.902-0.283-0.116-0.604 0.144-0.713 0.577l-0.262 1.034c-0.11 0.433 0.138 0.925 0.549 1.094l2.873 1.189-0.431 3.106c-0.145 1.042 0.1 1.933 0.733 2.672s1.469 1.109 2.507 1.109c0.958 0 1.832-0.322 2.623-0.967 0.631 0.645 1.422 0.967 2.37 0.967 1.037 0 1.975-0.369 2.813-1.109s1.33-1.631 1.474-2.672c0 0 0.45-3.278 0.459-3.335 0.039-0.286-0.271-0.519-0.688-0.519h-1z"></path>
</svg>
