<!-- Generated by IcoMoon.io -->
<svg version="1.1" xmlns="http://www.w3.org/2000/svg" width="16" height="16" viewBox="0 0 16 16">
<title>wix</title>
<path fill="#faad4d" d="M15.326 1.559h-1.036l-0.725-0.002c-0.574 0-1.103 0.437-1.507 0.784-0.401 0.331-0.74 0.741-1.061 1.151-0.136-0.355-0.281-0.655-0.447-0.941l0.017 0.031c-0.209-0.411-0.609-0.801-1.070-0.891-0.231-0.050-0.49-0.030-0.72-0.030h-1.54c-0.235 0-0.491-0.030-0.721 0.020-0.455 0.090-0.861 0.48-1.066 0.891-0.16 0.28-0.31 0.59-0.428 0.91-0.323-0.41-0.661-0.82-1.055-1.16-0.405-0.351-0.931-0.791-1.507-0.791h-1.755c-0.25 0-0.809-0.071-0.676 0.34 0.030 0.1 0.143 0.19 0.207 0.27 0.073 0.090 0.145 0.19 0.209 0.29 0.1 0.16 0.198 0.32 0.292 0.491 0.226 0.4 0.417 0.82 0.642 1.221 0.493 0.891 1.023 1.751 1.661 2.542 0.473 0.58 1.043 1.171 1.748 1.461l-1.589 3.002c-0.46 0.851-0.921 1.711-1.404 2.552l-0.070 0.12c-0.063 0.121-0.154 0.291-0.153 0.421 0 0.271 0.4 0.28 0.6 0.28 0.211 0 0.421-0.009 0.631-0.009 0.36-0.011 0.721-0.011 1.091-0.021 0.211 0 0.431 0.010 0.651-0.019 0.564-0.060 1.049-0.351 1.367-0.776l0.004-0.005c0.1-0.151 1.081-1.761 1.481-2.412 0.15-0.25 0.62-0.981 0.62-0.981s0.471 0.731 0.621 0.981c0.391 0.651 1.371 2.252 1.481 2.403 0.32 0.44 0.82 0.72 1.371 0.769 0.209 0.020 0.43 0.011 0.639 0.011l1.092 0.010h0.629c0.191 0 0.601-0.010 0.601-0.29 0-0.141-0.090-0.309-0.159-0.429l-0.070-0.12c-0.491-0.851-0.941-1.702-1.401-2.552-0.53-0.991-1.060-1.991-1.601-2.972 0.71-0.29 1.27-0.88 1.751-1.461 0.64-0.791 1.159-1.661 1.661-2.542 0.22-0.41 0.41-0.831 0.639-1.231 0.091-0.17 0.191-0.33 0.291-0.491 0.061-0.1 0.13-0.2 0.21-0.29 0.060-0.087 0.171-0.176 0.211-0.27 0.129-0.411-0.406-0.257-0.656-0.265zM6.858 3.513c0.042-0.005 0.073 0.106 0.095 0.33l0.003 0.011c0 0.010-0.101 0-0.191-0.010l-0.11-0.020c-0.050-0.010-0.1-0.030-0.15-0.050-0.134-0.045-0.214-0.109-0.274-0.155-0.036-0.026-0.066-0.058-0.089-0.095l-0.001-0.001c0.32 0.005 0.558 0.003 0.716-0.010zM6.979 5.125v-0.009h0.003zM6.99 5.091c-0.071 0.078-0.178 0.108-0.28 0.128-0.1 0.021-0.216 0.036-0.31-0.015-0.109-0.057-0.153-0.189-0.183-0.3-0.040-0.14-0.075-0.292-0.060-0.44h0.009c0-0.082 0.030-0.169 0.060-0.242 0.029-0.064 0.070-0.117 0.121-0.159l0.001-0.001c0.142-0.107 0.357-0.107 0.485 0.020 0.058 0.058 0.104 0.127 0.136 0.204l0.002 0.004c0.074 0.172 0.13 0.37 0.118 0.561-0.006 0.093-0.042 0.176-0.099 0.24l0-0zM8.384 5.365c-0.014 0.020-0.033 0.030-0.050 0.040-0.089 0.063-0.199 0.101-0.318 0.101-0.008 0-0.017-0-0.025-0.001l0.001 0c-0.007 0-0.016 0.001-0.024 0.001-0.119 0-0.229-0.038-0.319-0.102l0.002 0.001c-0.020-0.009-0.036-0.023-0.048-0.040l-0-0c-0.006 0-0.011-0.010-0.011-0.020 0-0.006 0.003-0.011 0.007-0.016v0.026c0.009-0.010 0.026-0.010 0.036-0.010 0.014 0.010 0.027 0.020 0.044 0.030 0.083 0.057 0.186 0.090 0.296 0.090 0.006 0 0.012-0 0.019-0l-0.001 0c0.005 0 0.011 0 0.016 0 0.112 0 0.215-0.034 0.302-0.091l-0.002 0.001c0.016-0.010 0.030-0.030 0.046-0.040s0.030-0.010 0.040 0 0.005 0.020-0.010 0.030zM9.764 4.905c-0.030 0.11-0.075 0.25-0.185 0.3-0.094 0.050-0.211 0.033-0.311 0.013s-0.207-0.051-0.28-0.127c-0.056-0.064-0.092-0.148-0.097-0.239l-0-0.001c-0.013-0.192 0.045-0.389 0.119-0.563 0.033-0.081 0.079-0.15 0.137-0.208l-0 0c0.127-0.125 0.343-0.125 0.485-0.020 0.052 0.043 0.093 0.096 0.121 0.157l0.001 0.003v0.005c0.037 0.075 0.061 0.157 0.070 0.24 0.014 0.15-0.022 0.3-0.060 0.44zM9.747 3.625c-0.059 0.050-0.14 0.11-0.272 0.15-0.042 0.016-0.092 0.031-0.145 0.041l-0.007 0.001c-0.009 0.003-0.056 0.010-0.109 0.020l-0.001 0.017c-0.087 0.010-0.189 0.020-0.187 0 0.021-0.22 0.052-0.33 0.096-0.33 0.157 0.020 0.395 0.020 0.715 0.010-0.024 0.036-0.054 0.066-0.089 0.089l-0.001 0.001z"></path>
</svg>
