<!-- Generated by IcoMoon.io -->
<svg version="1.1" xmlns="http://www.w3.org/2000/svg" width="16" height="16" viewBox="0 0 16 16">
<title>wolfram</title>
<path fill="#d10" d="M13.403 8.001l2.205-2.472-3.236-0.706 0.33-3.296-3.033 1.331-1.669-2.857-1.67 2.858-3.032-1.331 0.329 3.296-3.236 0.703 2.203 2.471-2.203 2.475 3.236 0.702-0.333 3.297 3.035-1.329 1.671 2.858 1.669-2.858 3.033 1.329-0.33-3.292 3.236-0.707zM14.473 9.862l-1.907-0.655-1.266-1.647 1.684 0.628zM14.779 5.798l-1.735 1.945-2.044-0.761 1.229-1.741zM11.921 4.915l-1.022 1.453 0.059-2.108 1.192-1.61zM9.718 3.316l2.061-0.903-1.179 1.585-1.962 0.699zM10.509 4.497l-0.064 2.435-2.227 0.747v-2.366zM8 0.872l1.313 2.247-1.313 1.68-1.314-1.681zM6.282 3.316l1.079 1.381-1.965-0.699-1.175-1.585zM7.779 5.313v2.366l-2.223-0.747-0.068-2.435zM5.043 4.26l0.057 2.108-1.021-1.453-0.227-2.265zM1.22 5.795l2.549-0.553 1.226 1.741-2.043 0.757zM3.016 8.185l1.684-0.625-1.267 1.647-1.907 0.651zM1.621 10.291l1.953-0.667 2.030 0.597-1.748 0.558zM3.807 13.765l0.261-2.597 2.074-0.655 0.055 2.207zM6.268 9.96l-2.332-0.687 1.484-1.928 2.223 0.751zM7.779 14.754l-1.141-1.956-0.044-1.847 1.185 1.731zM6.625 10.221l1.375-1.866 1.375 1.866-1.375 2.003zM9.361 12.798l-1.143 1.956v-2.071l1.188-1.731zM8.352 8.097l2.227-0.751 1.481 1.928-2.333 0.687zM9.802 12.72l0.051-2.207 2.077 0.655 0.257 2.601zM12.145 10.779l-1.75-0.558 2.033-0.597 1.952 0.669z"></path>
</svg>
