<!-- Generated by IcoMoon.io -->
<svg version="1.1" xmlns="http://www.w3.org/2000/svg" width="16" height="16" viewBox="0 0 16 16">
<title>wolframmathematica</title>
<path fill="#d10" d="M10.493 7.133c-0.353-1.020 0.093-2.667 0.093-2.667s-1.52 0.873-2.633 0.867-2.533-0.867-2.533-0.867 0.373 1.64 0.047 2.693c-0.32 1.053-1.647 2.227-1.647 2.227s1.72 0.153 2.567 0.733 1.613 2.307 1.613 2.307 0.52-1.567 1.547-2.273c1.027-0.713 2.64-0.767 2.64-0.767s-1.333-1.227-1.693-2.253zM9.16 9.593c-0.727 0.54-1.167 1.46-1.167 1.46s-0.507-0.953-1.2-1.48c-0.7-0.527-1.713-0.647-1.713-0.647 0.472-0.412 0.827-0.947 1.014-1.556l0.006-0.024c0.307-1.027 0.12-1.82 0.12-1.82s0.613 0.467 1.747 0.467 1.86-0.467 1.86-0.467-0.253 1.053 0.047 1.8c0.293 0.76 1.047 1.607 1.047 1.607s-1.040 0.113-1.76 0.66zM9.153 6.4c0 0-0.633 0.253-1.18 0.247-0.547 0-1.133-0.247-1.133-0.247 0.033 0.387 0 0.767-0.113 1.133-0.18 0.573-0.607 1.093-0.607 1.093 0.806 0.165 1.475 0.657 1.873 1.327l0.007 0.013c0 0 0.3-0.567 0.787-0.887 0.333-0.207 0.7-0.367 1.087-0.467 0 0-0.493-0.52-0.68-1.047-0.187-0.52-0.040-1.167-0.040-1.167zM13.4 8l2.207-2.467-3.233-0.713 0.333-3.293-3.040 1.333-1.667-2.86-1.667 2.86-3.033-1.333 0.327 3.3-3.233 0.7 2.2 2.473-2.193 2.467 3.233 0.713-0.333 3.293 3.033-1.333 1.667 2.86 1.667-2.86 3.040 1.333-0.333-3.293 3.233-0.707zM9.887 10.633c-0.553 0.407-1.887 3.24-1.887 3.24s-1-2.573-2-3.24c-0.987-0.667-3.587-0.813-3.587-0.813s1.993-1.58 2.38-2.98c0.393-1.4-0.247-3.58-0.247-3.58s1.933 1.4 3.387 1.4c1.447 0 3.507-1.4 3.507-1.4s-0.547 3-0.353 3.64c0.2 0.64 2.487 2.92 2.487 2.92s-3.133 0.413-3.687 0.813z"></path>
</svg>
