<!-- Generated by IcoMoon.io -->
<svg version="1.1" xmlns="http://www.w3.org/2000/svg" width="16" height="16" viewBox="0 0 16 16">
<title>wolframlanguage</title>
<path fill="#d10" d="M9.557 8.288c-0.368 0.099-0.41 0.12-0.776 0.225-0.393-0.225-0.738-0.351-1.063-0.309 0.038-0.204 0.101-0.35 0.163-0.533 0.691-0.101 1.203 0.267 1.676 0.617zM13.095 13.089c-0.375 0.376-0.792 0.711-1.242 0.997l-0.029 0.017h-0.004l-2.468-3.076 2.047 0.224c0 0 0.981 0.101 1.205 0 0.205-0.078 1.309-1.633 1.309-1.633s-3.173-2.006-4.256-3.111c0.125-1.863-0.142-4.339-0.142-4.319-0.795 0.797-0.9 0.922-1.696 1.659-0.347-1.125-0.513-1.513-0.859-2.639-1.045 0.859-1.842 2.309-2.413 4.011-0.119 0.131-0.239 0.273-0.354 0.42l-0.013 0.018c-0.075 0.105-0.153 0.209-0.229 0.317-0.154 0.217-0.3 0.45-0.442 0.688-0.1 0.171-0.199 0.347-0.292 0.525-0.042 0.075-0.083 0.154-0.125 0.233-0.609 1.192-1.117 2.526-1.559 3.736-0.459-0.922-0.727-2.007-0.727-3.156v-0c0-1.909 0.759-3.743 2.109-5.093s3.179-2.106 5.088-2.106c0.002 0 0.005 0 0.007 0 1.986 0 3.785 0.804 5.088 2.105l-0-0c1.3 1.305 2.104 3.105 2.104 5.093v0c-0 1.987-0.804 3.786-2.104 5.090l0-0zM8 4.461c0.555-0.534 0.634-0.613 1.167-1.126 0.042 1.021 0.021 1.555-0.042 2.802-0.309-0.305-0.921-0.696-0.921-0.696s-0.121-0.713-0.205-0.98zM10.556 14.77c-4.411 1.595-7.599-1.343-8.278-2.368 0.004-0.009 0.004-0.018 0.004-0.026 0.613-2.593 1.372-5.69 2.589-6.607 0.637-1.104 0.821-2.743 1.962-3.601 0.288 0.859 0.738 2.639 1.047 3.497 1.35 1.351 3.391 3.031 4.764 3.727 0.141 0.080 0.326 0.654 0.326 0.654l-0.55 0.692-5.89-0.591c-0.133-0.013-0.263-0.019-0.396-0.019-0.379 0-0.767 0.049-1.222 0.12 0.288-0.714 0.9-1.291 0.9-1.291s-0.57-0.346-1.003-0.403c0.125-0.288 0.454-0.659 0.533-0.759-0.162 0.058-1.35 0.592-1.471 1.042 0.571 0.143 0.979 0.325 0.979 0.325s-0.633 0.638-0.754 1.741c0 0 1.88-0.287 3.293-0.102 0.042 0.020 0.063 0.020 0.083 0.020l0.735 0.021 2.357 3.924c-0.001 0.002-0.004 0.004-0.007 0.004-0 0-0 0-0-0h0zM13.657 2.343c-1.449-1.447-3.448-2.342-5.657-2.343h-0c-2.121 0-4.155 0.847-5.656 2.343-1.496 1.501-2.343 3.535-2.343 5.657s0.847 4.157 2.342 5.652c1.446 1.451 3.447 2.349 5.657 2.349s4.211-0.898 5.657-2.349l0-0c1.501-1.495 2.341-3.531 2.341-5.652s-0.841-4.156-2.341-5.657z"></path>
</svg>
