<!-- Generated by IcoMoon.io -->
<svg version="1.1" xmlns="http://www.w3.org/2000/svg" width="16" height="16" viewBox="0 0 16 16">
<title>wordpress</title>
<path fill="#21759b" d="M14.313 4.55c0.56 1.025 0.879 2.2 0.879 3.45 0 2.653-1.437 4.971-3.575 6.217l2.197-6.351c0.41-1.027 0.547-1.847 0.547-2.576 0-0.27-0.017-0.52-0.047-0.74zM8.992 4.619c0.431-0.020 0.821-0.070 0.821-0.070 0.388-0.050 0.343-0.62-0.045-0.599 0 0-1.17 0.090-1.92 0.090-0.709 0-1.9-0.1-1.9-0.1-0.39-0.020-0.441 0.57-0.050 0.59 0 0 0.36 0.041 0.75 0.060l1.12 3.070-1.58 4.72-2.619-7.78c0.433-0.020 0.823-0.067 0.823-0.067 0.39-0.050 0.344-0.62-0.043-0.597 0 0-1.164 0.092-1.916 0.092-0.133 0-0.292-0.005-0.46-0.010 1.301-1.918 3.517-3.208 6.027-3.208 1.873 0 3.577 0.715 4.857 1.889-0.031-0.002-0.061-0.006-0.094-0.006-0.707 0-1.208 0.615-1.208 1.276 0 0.593 0.342 1.095 0.707 1.687 0.274 0.48 0.593 1.095 0.593 1.985 0 0.61-0.236 1.329-0.547 2.319l-0.717 2.39-2.6-7.74zM8 15.189c-0.706 0-1.387-0.102-2.032-0.291l2.158-6.271 2.21 6.058c0.016 0.035 0.033 0.067 0.052 0.099-0.747 0.262-1.55 0.406-2.388 0.406zM0.807 8c0-1.043 0.224-2.033 0.623-2.927l3.429 9.399c-2.397-1.166-4.052-3.625-4.053-6.473zM8 0c-4.41 0-8 3.59-8 8s3.59 8 8 8 8-3.59 8-8-3.59-8-8-8z"></path>
</svg>
