<!-- Generated by IcoMoon.io -->
<svg version="1.1" xmlns="http://www.w3.org/2000/svg" width="16" height="16" viewBox="0 0 16 16">
<title>workplace</title>
<path d="M8.483 0c-1.074 0-2.117 0.211-3.098 0.629-0.984 0.425-1.823 1.003-2.528 1.715l-0.001 0.001c-1.44 1.445-2.33 3.438-2.33 5.64 0 0.006 0 0.011 0 0.017v-0.001c-0 0.005-0 0.010-0 0.015 0 2.202 0.89 4.195 2.331 5.641l-0-0c0.706 0.712 1.545 1.291 2.477 1.696l0.051 0.020c0.981 0.417 2.028 0.629 3.101 0.629 0.578 0 1.145-0.063 1.71-0.187v-1.689c-0.512 0.149-1.101 0.235-1.71 0.235h-0c-0.004 0-0.008 0-0.013 0-1.745 0-3.323-0.713-4.46-1.863l-0.001-0.001c-1.146-1.146-1.854-2.729-1.854-4.478 0-0.006 0-0.013 0-0.019v0.001c-0-0.006-0-0.013-0-0.021 0-1.747 0.708-3.33 1.852-4.475l-0 0c1.137-1.151 2.714-1.863 4.458-1.863 0.005 0 0.009 0 0.014 0h-0.001c2.959 0 5.358 2.412 5.358 5.388 0 1.098-0.327 2.121-0.888 2.973l-1.393-3.444c-0.204-0.503-0.447-1.263-1.373-1.263-0.925 0-1.167 0.76-1.369 1.263l-1.281 3.181-1.719-4.363h-1.807l2.142 5.3c0.217 0.538 0.453 1.265 1.385 1.265 0.93 0 1.165-0.727 1.381-1.264l1.269-3.151 1.276 3.151c0.258 0.649 0.531 1.263 1.38 1.263 0.602 0 0.983-0.389 1.192-0.639 0.897-1.168 1.437-2.65 1.437-4.258 0-0.004 0-0.009-0-0.013v0.001c-0.001-3.882-3.13-7.029-6.991-7.029z"></path>
</svg>
