<!-- Generated by IcoMoon.io -->
<svg version="1.1" xmlns="http://www.w3.org/2000/svg" width="16" height="16" viewBox="0 0 16 16">
<title>wpengine</title>
<path fill="#40bac8" d="M5.4 16h5.2v-3.9l-1.3-1.201h-2.6l-1.3 1.201zM12.1 5.4l-1.201 1.3v2.6l1.201 1.3h3.9v-5.2zM10.6 0h-5.2v3.9l1.3 1.201h2.6l1.3-1.201zM16 16v-3.9l-1.201-1.201h-3.9v5.101zM1.2 0l-1.2 1.2v3.9h5.1v-5.1zM10.9 0v3.9l1.2 1.2h3.9v-5.1zM8 8.7c-0.4 0-0.7-0.3-0.7-0.7s0.3-0.7 0.7-0.7 0.7 0.3 0.7 0.7-0.3 0.7-0.7 0.7zM5.1 12.1l-1.2-1.2h-3.9v5.1h3.9l1.201-1.201zM5.1 5.4h-5.1v5.2h3.9l1.201-1.3z"></path>
</svg>
