<!-- Generated by IcoMoon.io -->
<svg version="1.1" xmlns="http://www.w3.org/2000/svg" width="16" height="16" viewBox="0 0 16 16">
<title>write-dot-as</title>
<path fill="#5bc4ee" d="M8.543 3.426l1.453 5.006c0.071 0.254 0.147 0.529 0.226 0.824s0.153 0.567 0.218 0.815h0.017c0.036-0.248 0.097-0.515 0.182-0.803 0.086-0.286 0.164-0.547 0.235-0.784l0.7-2.295c0.053-0.165 0.1-0.315 0.142-0.447s0.084-0.255 0.128-0.367c0.045-0.111 0.087-0.218 0.129-0.319s0.088-0.201 0.142-0.301v-0.019l-1.046 0.070v-1.381h3.446v1.161c-0.243 0-0.455 0.079-0.637 0.239s-0.341 0.349-0.474 0.567c-0.134 0.219-0.243 0.438-0.329 0.656s-0.149 0.387-0.191 0.505l-2.064 5.998h-1.923l-1.249-3.871c-0.035-0.095-0.080-0.23-0.133-0.404s-0.107-0.363-0.165-0.567c-0.055-0.205-0.115-0.415-0.177-0.633s-0.119-0.425-0.173-0.621h-0.017c-0.035 0.254-0.093 0.539-0.173 0.855s-0.162 0.625-0.248 0.925c-0.085 0.301-0.165 0.573-0.239 0.815s-0.129 0.413-0.164 0.514l-1.001 2.986h-1.8l-2.197-6.29c-0.083-0.231-0.148-0.417-0.195-0.558s-0.087-0.265-0.119-0.369c-0.033-0.103-0.058-0.195-0.075-0.279s-0.039-0.177-0.063-0.283l-0.709 0.035v-1.382h4.351v1.161c-0.255 0.018-0.433 0.094-0.537 0.23s-0.154 0.311-0.154 0.523c-0.006 0.101 0.001 0.207 0.021 0.319 0.021 0.113 0.049 0.228 0.085 0.346l0.611 2.215c0.071 0.266 0.14 0.545 0.208 0.837s0.123 0.589 0.165 0.891h0.017c0.029-0.13 0.059-0.263 0.089-0.399 0.029-0.136 0.061-0.283 0.097-0.439s0.077-0.328 0.124-0.514c0.048-0.185 0.103-0.391 0.169-0.615l1.329-4.555c-0.001 0 1.967 0 1.967 0zM16.002 11.085c0 0.822-0.667 1.489-1.489 1.489s-1.487-0.667-1.487-1.489 0.665-1.489 1.487-1.489 1.489 0.667 1.489 1.489z"></path>
</svg>
