<!-- Generated by IcoMoon.io -->
<svg version="1.1" xmlns="http://www.w3.org/2000/svg" width="16" height="16" viewBox="0 0 16 16">
<title>x-dot-org</title>
<path fill="#f28834" d="M13.293 1.267l-6.061 7.916 3.065 4.261c-0.51 0.097-1.096 0.152-1.695 0.152-0.004 0-0.008 0-0.012 0h0.001c-1.591 0-3.055-0.385-4.211-1.028l4.371-5.751-4.021-5.541-3.243-0.003 5.047 7.047-2.888 3.773c-1.128-0.844-1.819-1.977-1.819-3.221 0-1.42 0.899-2.695 2.32-3.561l-0.437-0.666c-2.229 0.946-3.709 2.606-3.709 4.495 0 1.621 1.090 3.073 2.808 4.050l-1.177 1.538h1.107l0.866-1.139c1.261 0.553 2.772 0.876 4.395 0.876 0.008 0 0.017 0 0.026 0 0.982 0 1.935-0.122 2.846-0.351l-0.080 0.017 0.433 0.602h3.243l-1.153-1.615c1.647-0.975 2.685-2.397 2.685-3.978 0-1.96-1.593-3.675-3.965-4.6l-0.145 0.207c2.066 0.809 3.463 2.354 3.463 4.125 0 1.468-0.96 2.78-2.465 3.647l-3.435-4.813 4.921-6.439zM8 3.837c-0.391 0-0.808 0.031-1.183 0.067 0.669 0.873 1.224 1.611 1.863 2.451-0.359-0.771-1.096-1.512-0.841-1.893 0.252-0.377 0.717-0.313 0.752-0.313 0.745 0 1.463 0.085 2.133 0.24l0.157-0.216c-0.895-0.232-1.866-0.336-2.881-0.335z"></path>
</svg>
