<!-- Generated by IcoMoon.io -->
<svg version="1.1" xmlns="http://www.w3.org/2000/svg" width="16" height="16" viewBox="0 0 16 16">
<title>x-pack</title>
<path fill="#005571" d="M9.133 13.033l3.92-3.927 2.233 2.24c0.431 0.431 0.697 1.026 0.697 1.683s-0.267 1.253-0.697 1.683l-0.553 0.553c-0.431 0.431-1.026 0.697-1.683 0.697s-1.253-0.267-1.683-0.697l-0-0zM15.28 1.267l-0.553-0.553c-0.431-0.431-1.026-0.698-1.683-0.698s-1.253 0.267-1.683 0.698l-0 0-3.36 3.367-3.367-3.367c-0.431-0.431-1.026-0.698-1.683-0.698s-1.253 0.267-1.683 0.698l-0.553 0.553c-0.431 0.431-0.698 1.026-0.698 1.683s0.267 1.253 0.698 1.683l3.367 3.367-3.367 3.367c-0.431 0.431-0.698 1.026-0.698 1.683s0.267 1.253 0.698 1.683l0.553 0.553c0.431 0.431 1.026 0.697 1.683 0.697s1.253-0.267 1.683-0.697l10.653-10.653c0.429-0.43 0.694-1.024 0.694-1.68 0-0.659-0.268-1.256-0.701-1.687l-0-0z"></path>
</svg>
