<!-- Generated by IcoMoon.io -->
<svg version="1.1" xmlns="http://www.w3.org/2000/svg" width="16" height="16" viewBox="0 0 16 16">
<title>xamarin</title>
<path fill="#4393d4" d="M4.758 0.948c-0.594 0-1.051 0.183-1.37 0.733-0.319 0.547-2.926 5.073-3.2 5.484-0.275 0.411-0.275 0.916 0.182 1.738s2.743 4.846 3.018 5.349 0.685 0.8 1.37 0.8h6.487c0.687 0 1.098-0.299 1.371-0.8 0.275-0.503 2.56-4.525 3.017-5.349 0.454-0.822 0.454-1.327 0.181-1.738-0.275-0.411-2.88-4.935-3.201-5.485-0.319-0.547-0.776-0.733-1.37-0.733zM4.458 4.331h1.531l2.019 3.538 2.017-3.538h1.533l-2.057 3.668 2.057 3.668h-1.509l-2.040-3.538-2.040 3.538h-1.51l2.055-3.668z"></path>
</svg>
