<!-- Generated by IcoMoon.io -->
<svg version="1.1" xmlns="http://www.w3.org/2000/svg" width="16" height="16" viewBox="0 0 16 16">
<title>xbox</title>
<path fill="#107c10" d="M2.735 14.022c1.406 1.232 3.25 1.978 5.265 1.978 2.017 0 3.859-0.746 5.268-1.978 1.251-1.275-2.877-5.806-5.268-7.611-2.388 1.805-6.519 6.337-5.265 7.611zM10.175 4.418c1.667 1.974 4.989 6.875 4.051 8.608 1.109-1.373 1.775-3.119 1.775-5.023 0-2.227-0.91-4.241-2.38-5.691 0 0-0.018-0.015-0.055-0.028-0.042-0.015-0.101-0.030-0.187-0.030-0.395 0-1.323 0.289-3.203 2.164zM2.436 2.284c-0.038 0.013-0.055 0.027-0.057 0.028-1.469 1.449-2.379 3.464-2.379 5.691 0 1.903 0.665 3.649 1.774 5.022-0.934-1.737 2.386-6.634 4.053-8.607-1.88-1.875-2.811-2.163-3.204-2.163-0.087 0-0.149 0.014-0.187 0.031zM8 2.367c0 0-1.963-1.149-3.497-1.203-0.602-0.022-0.969 0.197-1.014 0.226 1.43-0.959 2.95-1.39 4.5-1.39h0.011c1.556 0 3.070 0.431 4.511 1.39-0.045-0.031-0.41-0.248-1.013-0.226-1.533 0.055-3.497 1.199-3.497 1.199z"></path>
</svg>
