<!-- Generated by IcoMoon.io -->
<svg version="1.1" xmlns="http://www.w3.org/2000/svg" width="16" height="16" viewBox="0 0 16 16">
<title>xcode</title>
<path fill="#1575f9" d="M13.333 3.2c0.267-0.133 0.4-0.267 0.6-0.267 0.333 0 0.533 0.2 0.6 0.333 0.133 0.2 0.6 0.333 0.8 0.333 0.133 0 0.333-0.467 0.467-0.867s0.133-0.867 0.067-0.933-0.6-0.2-0.733-0.2c-0.067 0.067-0.2 0.133-0.467 0.133s-0.533-0.2-0.733-0.4c-0.333-0.333-0.733-0.467-1.133-0.6s-0.867-0.133-1.267-0.133c-0.6-0.067-1.267-0.067-1.867 0.133-0.267 0.067-0.467 0.133-0.733 0.267-0.067 0.067-0.267 0.133-0.333 0.133-0.067 0.067-0.067 0.133 0 0.133s0.333-0.067 0.333-0.067-0.333 0.133-0.333 0.267c0 0.067 0.067 0.067 0.067 0.067s0.2-0.067 0.333-0.067c0.267 0 0.667-0.133 1-0.133 0.4 0 0.8 0.133 1.2 0.533 0.6 0.733 0.533 1.667 0.533 1.867-0.133 1.4-3.267 9.933-3.4 10.533s-0.133 0.933 0.6 1.133 1 0 1.133-0.267c0.067-0.467 2.067-11 3.267-11.933zM10.733 2.533l-10.733 1.667 1.733 11.133 5.733-0.933c-0.067-0.467 1.467-4.467 1.733-5.2l-2.933 0.467 0.4-1.2 2.067-0.333 0.533 0.667c0 0 0.133-0.333 0.133-0.467l-2.867-3.533c-0.133-0.2-0.133-0.467 0.067-0.6l0.133-0.133c0.2-0.133 0.467-0.133 0.6 0.067l2.533 2.933c0.533-1.6 1-3 1-3.467 0.067-0.133 0.067-0.6-0.133-1.067zM2.733 9.133l1.8-0.333-0.467 1.2-1.2 0.2zM6.6 5.733l0.2 0.067c0.267 0.067 0.333 0.333 0.267 0.6l-2 5.333-1.2 1.6 0.133-2 2-5.333c0.067-0.267 0.333-0.333 0.6-0.267zM13.8 3.867c-0.267 0.267-0.6 1.133-1.267 3.667h0.067l0.2 1.067-0.533 0.067c-0.067 0.333-0.133 0.667-0.267 1.067 1.133 0.6 0.533 2.067 0.467 2.067s-0.067 0-0.067-0.067 0.067-0.267-0.133-0.333c-0.133-0.067-0.4-0.133-0.6-0.267-0.2 0.8-0.4 1.733-0.6 2.733l4.2-0.667-1.4-9.4z"></path>
</svg>
