<!-- Generated by IcoMoon.io -->
<svg version="1.1" xmlns="http://www.w3.org/2000/svg" width="16" height="16" viewBox="0 0 16 16">
<title>xdadevelopers</title>
<path fill="#f59812" d="M9.698 4.335c-0.051 0.018-0.087 0.066-0.087 0.122 0 0.002 0 0.003 0 0.005v-0 1.597h-2.411c-0.522 0-0.947 0.139-1.258 0.427-0.312 0.291-0.467 0.711-0.467 1.235v2.277c-0.007 0.059-0.016 0.123-0.016 0.19 0 0.321 0.095 0.622 0.278 0.885 0.185 0.267 0.439 0.449 0.743 0.53 0.169 0.047 0.404 0.064 0.728 0.064h1.186c0.573 0 1.019-0.132 1.328-0.411s0.458-0.695 0.459-1.219v-5.575c-0.001-0.069-0.057-0.126-0.127-0.127h-0.317c-0.006-0.001-0.014-0.002-0.022-0.002-0.006 0-0.012 0-0.018 0.001l0.001-0zM0.133 6.057c-0.005 0-0.010 0.001-0.014 0.001l0.001-0c-0.054 0.016-0.093 0.065-0.093 0.124 0 0.031 0.011 0.060 0.030 0.082l-0-0 2.033 2.61-2.064 2.585c-0.016 0.021-0.026 0.048-0.026 0.077 0 0.071 0.058 0.129 0.128 0.129h0.427c0.001 0 0.002 0 0.003 0 0.040 0 0.075-0.018 0.099-0.046l0-0 1.795-2.277 1.787 2.277c0.024 0.029 0.059 0.047 0.099 0.047 0.001 0 0.002-0 0.004-0h0.419c0.071-0 0.128-0.058 0.128-0.129 0-0.029-0.010-0.056-0.026-0.078l0 0-2.039-2.593 2-2.602c0.016-0.021 0.025-0.048 0.025-0.077 0-0.071-0.057-0.128-0.128-0.129h-0.427c-0.001-0-0.003-0-0.004-0-0.040 0-0.075 0.018-0.099 0.047l-0 0-1.74 2.285-1.763-2.285c-0.024-0.029-0.059-0.047-0.099-0.047-0.001 0-0.002 0-0.004 0h-0.427c-0.007-0.001-0.015-0.002-0.023-0.002-0.001 0-0.003 0-0.004 0h0zM11.457 6.057c-0.005 0-0.009 0.001-0.013 0.001l0.001-0c-0.051 0.018-0.087 0.066-0.087 0.122 0 0.002 0 0.004 0 0.005l-0-0v0.324c0.001 0.069 0.057 0.125 0.126 0.127h2.933c0.361 0 0.609 0.083 0.767 0.238 0.159 0.153 0.247 0.393 0.247 0.743v0.221h-2.563c-0.457 0-0.84 0.14-1.115 0.419s-0.411 0.657-0.411 1.115v0.798c0 0.379 0.113 0.713 0.34 0.973 0.002 0.003 0.005 0.005 0.007 0.008 0.288 0.341 0.707 0.514 1.21 0.514h1.605c0.471 0 0.854-0.14 1.115-0.427 0.257-0.284 0.38-0.673 0.38-1.147v-2.411c0-0.523-0.141-0.94-0.443-1.218s-0.745-0.403-1.305-0.403h-2.768c-0.006-0.001-0.013-0.002-0.020-0.002-0.002 0-0.005 0-0.007 0l0-0zM7.189 6.643h2.421v3.377c0 0.33-0.095 0.564-0.269 0.736-0.171 0.169-0.437 0.289-0.814 0.332h-0.104c-0.002-0-0.005-0-0.008-0s-0.006 0-0.008 0l0-0c-0.028 0.005-0.061 0.008-0.094 0.008h-1.115c-0.455 0-0.753-0.102-0.909-0.254-0.155-0.153-0.254-0.439-0.254-0.893v-2.206c0-0.433 0.156-0.735 0.475-0.949v0.008c0.145-0.095 0.371-0.159 0.679-0.159zM12.845 8.406v0.001h2.578v1.763c0 0.33-0.080 0.552-0.221 0.697s-0.359 0.229-0.681 0.229h-1.645c-0.053-0.001-0.105-0.007-0.155-0.017l0.005 0.001c-0.287-0.050-0.488-0.159-0.617-0.309s-0.198-0.35-0.198-0.625v-0.784c0-0.287 0.072-0.498 0.198-0.649 0.125-0.149 0.313-0.247 0.585-0.291h0.008c0.075-0.011 0.125-0.017 0.143-0.017z"></path>
</svg>
