<!-- Generated by IcoMoon.io -->
<svg version="1.1" xmlns="http://www.w3.org/2000/svg" width="16" height="16" viewBox="0 0 16 16">
<title>xfce</title>
<path fill="#2284f2" d="M0.007 3.837c-0.085 0.047 0.679 0.547 2.107 1.137s3.402 2.087 3.247 2.329c-0.463 0.656-0.737 1.441-0.548 2.785 0.034 0.237-0.698 0.647-0.645 1.004 0.045 0.272 0.819-0.269 0.903-0.162 0.052 0.192-0.414 1.162-0.225 1.231 0.137 0.041 1.349-1.153 1.419-1.133 1.997 0.605 4.595 0.148 4.645 0.129-0.005-0.011 1.869 0.884 2.033 0.777 0.411-0.447-0.779-1.077-0.581-1.328 0.087-0.132 1.449 0.495 1.516 0.323 0.097-0.295-0.632-0.917-0.742-1.101-0.095-0.17-0.116-0.444 0.129-0.616s2.75-1.133 2.645-1.879c-0.181-1.353-3.177-1.441-3.226-1.555-0.023-0.053 0.133-1.935-0.741-1.587-0.539 0.201-0.1 1.399-0.065 1.555 0.032 0.143-0.239 0.127-0.291 0.065-0.113-0.14-0.491-1.389-0.935-1.167-0.623 0.345-0.037 1.423-0.161 1.458-0.231 0.13-0.217 0.447-0.403 0.704-0.305 0.44-2.591-0.206-3.329-0.251-0.541-0.032-1.057 0.413-1.107 0.357-0.658-0.662-2.020-1.815-3.513-2.198-0.836-0.228-2.081-0.888-2.131-0.879zM15.251 5.048c-0.045-0.012-0.255 1.062-0.156 1.11 0.087 0.065 0.237-1.051 0.158-1.108zM15.989 5.19c-0.113-0.002-0.717 0.966-0.578 1.069 0.086 0.065 0.625-1.029 0.587-1.065-0.003-0.002-0.006-0.003-0.009-0.003h-0zM13.065 6.369c0 0 0 0 0 0 0.143 0 0.258 0.132 0.259 0.295v0c0 0.163-0.116 0.296-0.259 0.296v0c-0.143 0-0.259-0.133-0.259-0.296v0c0-0.163 0.116-0.295 0.259-0.295 0 0 0 0 0 0v0zM12.485 6.549c0.11 0.476 0.281 0.627 0.796 0.612-0.655 0.603-1.053-0.43-0.796-0.612zM13.901 7.793c0.027 0 0.047 0.007 0.061 0.020 0.258 0.094-1.109 0.589-1.119 0.519-0.014-0.050 0.798-0.549 1.057-0.539zM14.040 8.11c0.003-0 0.006-0.001 0.009-0.001 0.010 0 0.020 0.002 0.029 0.007l-0-0c0.243 0.243-0.771 0.782-0.76 0.763-0.082-0.049 0.511-0.753 0.723-0.769z"></path>
</svg>
