<!-- Generated by IcoMoon.io -->
<svg version="1.1" xmlns="http://www.w3.org/2000/svg" width="16" height="16" viewBox="0 0 16 16">
<title>xiaomi</title>
<path fill="#fa6709" d="M13.307 13.333c-0.118 0-0.213-0.096-0.213-0.213v0-10.24c0-0.118 0.096-0.213 0.213-0.213v0h2.473c0.002-0 0.004-0 0.007-0 0.118 0 0.213 0.096 0.213 0.213 0 0 0 0 0 0v0 10.24c0 0 0 0 0 0 0 0.118-0.096 0.213-0.213 0.213-0.002 0-0.005-0-0.007-0l0 0zM9.16 13.333c0 0-0.2-0.060-0.2-0.213v-6.287c0-0.014 0.001-0.030 0.001-0.047 0-0.803-0.651-1.453-1.453-1.453-0.005 0-0.010 0-0.015 0h-4.626c-0.267 0-0.2 0.2-0.2 0.2v7.587c0 0.18-0.2 0.213-0.2 0.213h-2.247c-0.002 0-0.004 0-0.007 0-0.118 0-0.213-0.096-0.213-0.213 0-0 0-0 0-0v0-10.24c0-0 0-0 0-0 0-0.118 0.096-0.213 0.213-0.213 0.002 0 0.005 0 0.007 0l-0-0h8.573c1.565 0.011 2.83 1.281 2.833 2.846v0l0.007 7.607c0 0.118-0.096 0.213-0.213 0.213v0zM4.56 13.333c-0.11 0-0.2-0.090-0.2-0.2v-6c0-0.11 0.090-0.2 0.2-0.2v0h2.513c0.108 0.004 0.193 0.092 0.193 0.2 0 0 0 0 0 0v0 6c0 0.11-0.090 0.2-0.2 0.2v0z"></path>
</svg>
