<!-- Generated by IcoMoon.io -->
<svg version="1.1" xmlns="http://www.w3.org/2000/svg" width="16" height="16" viewBox="0 0 16 16">
<title>xing</title>
<path fill="#006567" d="M12.125 0c-0.345 0-0.494 0.217-0.618 0.44 0 0-4.97 8.816-5.135 9.105 0.010 0.016 3.279 6.015 3.279 6.015 0.113 0.205 0.291 0.44 0.645 0.44h2.303c0.141 0 0.25-0.052 0.309-0.147 0.059-0.101 0.059-0.231-0.006-0.357l-3.253-5.944c-0.003-0.004-0.003-0.011 0-0.015l5.11-9.033c0.063-0.127 0.065-0.258 0.004-0.357-0.059-0.095-0.167-0.147-0.306-0.147zM2.432 3.16c-0.141 0-0.257 0.049-0.315 0.144-0.060 0.099-0.052 0.226 0.013 0.354l1.56 2.7c0.003 0.007 0.003 0.011 0 0.014l-2.45 4.329c-0.066 0.125-0.062 0.254 0 0.353 0.057 0.095 0.159 0.156 0.3 0.156h2.307c0.345 0 0.511-0.232 0.63-0.445l2.489-4.406-1.585-2.77c-0.115-0.21-0.289-0.439-0.641-0.439h-2.308z"></path>
</svg>
