<!-- Generated by IcoMoon.io -->
<svg version="1.1" xmlns="http://www.w3.org/2000/svg" width="16" height="16" viewBox="0 0 16 16">
<title>xmpp</title>
<path fill="#002b5c" d="M15.997 2.119c-0.225 0.087-0.56 0.217-0.968 0.373-0.772 0.295-1.164 0.445-1.462 0.547-0.307 0.104-0.643 0.205-1.317 0.407-0.455 0.136-0.836 0.247-1.106 0.325-0.015 0.437 0 1.089-0.146 1.817-0.27 1.351-0.719 2.314-1.008 2.883-0.748 1.472-1.618 2.409-1.94 2.738-0.028-0.029-0.056-0.059-0.084-0.089-0.353-0.381-1.201-1.351-1.907-2.841-0.527-1.111-0.742-2.022-0.803-2.292-0.178-0.795-0.213-1.477-0.213-2.059 0-0.037-0.018-0.065-0.051-0.075-0.361-0.111-0.883-0.259-1.443-0.427-0.635-0.189-1.097-0.372-1.704-0.6-0.247-0.093-0.705-0.273-1.109-0.429-0.375-0.146-0.679-0.277-0.715-0.277-0.003 0-0.007 0-0.011 0.006-0.005 0.007-0.009 0.021-0.009 0.038 0.005 0.297 0.040 0.681 0.128 1.183 0.307 1.751 1.344 3.531 2.18 4.622 0 0 1.859 2.517 4.564 4.072 0.039 0.022 0.089 0.052 0.151 0.088-0.005 0.004-0.010 0.007-0.014 0.011-0.859 0.658-1.601 0.989-1.789 1.070-0.441 0.191-0.827 0.311-1.109 0.386v0.203c0.551-0.068 1.013-0.161 1.36-0.243 0.343-0.081 1.326-0.33 2.533-0.894 0.001-0.001 0.003-0.001 0.004-0.002 0.068 0.033 0.138 0.068 0.21 0.102 0.763 0.363 1.785 0.813 3.037 1.024 0.307 0.051 0.568 0.083 0.753 0.097 0.028 0.002 0.053-0.017 0.057-0.045 0.007-0.039 0.010-0.077 0.002-0.109-0.004-0.017-0.016-0.030-0.031-0.037-0.253-0.105-0.601-0.2-0.991-0.359-0.467-0.191-1.121-0.533-1.824-1.064-0.032-0.024-0.095-0.073-0.183-0.143 2.32-1.328 3.995-3.294 3.995-3.294 0.867-1.018 2.221-2.811 2.715-4.897 0.175-0.737 0.269-1.371 0.25-1.814z"></path>
</svg>
