<!-- Generated by IcoMoon.io -->
<svg version="1.1" xmlns="http://www.w3.org/2000/svg" width="16" height="16" viewBox="0 0 16 16">
<title>xrp</title>
<path fill="#25a768" d="M3.68 1.97c-0.001 0-0.001 0-0.002 0-1.296 0-2.347 1.051-2.347 2.347 0 0.001 0 0.002 0 0.003v-0 1.705c0 0.001 0 0.001 0 0.002 0 0.751-0.587 1.366-1.327 1.411l-0.004 0 0.020 0.375-0.020 0.374c0.744 0.045 1.331 0.659 1.331 1.411 0 0.001 0 0.002 0 0.003v-0 1.965c0 0.001 0 0.003 0 0.004 0 1.356 1.098 2.456 2.453 2.46h0v-0.749c-0.941-0.001-1.704-0.764-1.705-1.705v-1.975c0-0 0-0.001 0-0.001 0-0.74-0.372-1.393-0.939-1.782l-0.007-0.005c0.573-0.396 0.945-1.048 0.947-1.788v-1.705c0.004-0.883 0.718-1.597 1.6-1.601h0.292v-0.749zM12.039 1.97v0.749h0.291c0.879 0.002 1.591 0.714 1.591 1.593 0 0.003 0 0.005-0 0.008v-0 1.705c0.002 0.74 0.373 1.392 0.939 1.783l0.007 0.005c-0.575 0.394-0.947 1.047-0.947 1.787 0 0 0 0.001 0 0.001v-0 1.975c-0.001 0.941-0.763 1.704-1.705 1.705h-0v0.749c1.356-0.004 2.453-1.104 2.453-2.46 0-0.001 0-0.003 0-0.004v0-1.966c0-0.001 0-0.001 0-0.002 0-0.751 0.586-1.366 1.327-1.411l0.004-0-0.020-0.375 0.020-0.374c-0.744-0.045-1.331-0.659-1.331-1.411 0-0.001 0-0.002 0-0.003v0-1.707c0-0.001 0-0.003 0-0.004 0-1.293-1.047-2.342-2.339-2.345h-0zM4.169 4.985l2.319 2.173c0.4 0.363 0.933 0.585 1.518 0.585s1.118-0.222 1.52-0.586l-0.002 0.002 2.319-2.173h-1.113l-1.767 1.643c-0.252 0.232-0.591 0.375-0.962 0.375s-0.71-0.142-0.963-0.376l0.001 0.001-1.757-1.642zM7.906 8.241c-0.55 0.025-1.045 0.245-1.42 0.592l0.002-0.001-2.329 2.183h1.112l1.778-1.663c0.252-0.232 0.59-0.374 0.962-0.374s0.709 0.142 0.963 0.375l-0.001-0.001 1.767 1.663h1.113l-2.329-2.183c-0.398-0.367-0.932-0.593-1.518-0.593-0.035 0-0.069 0.001-0.103 0.002l0.005-0z"></path>
</svg>
