<!-- Generated by IcoMoon.io -->
<svg version="1.1" xmlns="http://www.w3.org/2000/svg" width="16" height="16" viewBox="0 0 16 16">
<title>yamahacorporation</title>
<path fill="#4b1e78" d="M8 0c-4.418 0-8 3.582-8 8s3.582 8 8 8c4.418 0 8-3.582 8-8v0c0-4.418-3.582-8-8-8v0zM7.725 0.918c0.085-0.004 0.185-0.006 0.285-0.006 3.917 0 7.092 3.172 7.099 7.087v0.001c0 0.003 0 0.007 0 0.011 0 3.92-3.178 7.099-7.099 7.099-0.004 0-0.008 0-0.011-0h0.001c-3.913-0.009-7.082-3.184-7.082-7.099 0-3.818 3.014-6.932 6.793-7.092l0.014-0zM8 1.267c-0.054 0.001-0.099 0.037-0.114 0.086l-0 0.001-0.589 1.684c-0.001 0.010-0.002 0.021-0.002 0.032s0.001 0.023 0.002 0.034l-0-0.001c0 0 0 0 0 0.001 0 0.069 0.035 0.13 0.088 0.166l0.001 0c0.161 0.113 0.266 0.298 0.266 0.507 0 0.187-0.084 0.355-0.215 0.469l-0.001 0.001c-0.335 0.288-0.547 0.713-0.547 1.188 0 0.002 0 0.004 0 0.006v-0 0.602l-2.978-1.709-0.365 0.635 3.325 1.918v0.461l-0.401 0.231-3.319-1.92-0.367 0.636 2.952 1.706-0.521 0.3c-0.39 0.23-0.667 0.615-0.75 1.068l-0.001 0.010c-0.056 0.289-0.307 0.505-0.609 0.505-0.096 0-0.188-0.022-0.269-0.061l0.004 0.002c-0.027-0.015-0.059-0.023-0.092-0.023s-0.066 0.009-0.093 0.024l0.001-0.001c-0.020 0.012-0.038 0.026-0.053 0.042l-0 0-1.161 1.358c-0.018 0.021-0.029 0.049-0.029 0.080 0 0.069 0.056 0.125 0.125 0.125 0.007 0 0.014-0.001 0.021-0.002l-0.001 0 1.755-0.329c0.023-0.006 0.043-0.014 0.061-0.024l-0.001 0.001c0.057-0.032 0.096-0.090 0.101-0.158l0-0.001c0.032-0.314 0.295-0.556 0.614-0.556 0.074 0 0.145 0.013 0.211 0.037l-0.004-0.001c0.154 0.056 0.332 0.088 0.518 0.088 0.289 0 0.56-0.078 0.792-0.215l-0.007 0.004 0.52-0.301v3.403h0.732v-3.837l0.399-0.229 0.399 0.229v3.837h0.733v-3.415l0.52 0.3c0.225 0.133 0.496 0.211 0.784 0.211 0.186 0 0.364-0.032 0.529-0.092l-0.011 0.003c0.062-0.023 0.134-0.036 0.208-0.036 0.32 0 0.583 0.243 0.614 0.555l0 0.003c0.003 0.068 0.042 0.127 0.098 0.158l0.001 0.001c0.017 0.010 0.037 0.018 0.058 0.023l0.002 0 1.756 0.328c0.008 0.002 0.018 0.003 0.028 0.003 0.068 0 0.123-0.055 0.123-0.123 0-0.032-0.013-0.062-0.033-0.084l0 0 0.003 0.013-1.163-1.358c-0.015-0.016-0.031-0.030-0.049-0.041l-0.001-0.001c-0.027-0.015-0.059-0.023-0.093-0.023s-0.066 0.009-0.094 0.024l0.001-0.001c-0.078 0.037-0.169 0.059-0.266 0.059-0.114 0-0.221-0.031-0.313-0.084l0.003 0.002c-0.15-0.092-0.257-0.242-0.289-0.418l-0.001-0.004c-0.089-0.461-0.369-0.843-0.753-1.069l-0.007-0.004-0.521-0.3 2.957-1.705-0.366-0.637-3.32 1.915-0.401-0.231v-0.461l3.323-1.918-0.365-0.635-2.959 1.709v-0.603c0-0.004 0-0.010 0-0.015 0-0.469-0.207-0.89-0.534-1.176l-0.002-0.002c-0.133-0.113-0.217-0.281-0.217-0.468 0-0.21 0.106-0.396 0.267-0.507l0.002-0.001c0.052-0.038 0.085-0.098 0.085-0.167v-0c0.002-0.010 0.003-0.021 0.003-0.032s-0.001-0.023-0.003-0.033l0 0.001-0.616-1.685c-0.016-0.051-0.062-0.087-0.117-0.087-0.001 0-0.002 0-0.003 0h0zM8.014 4.941c0.215 0.007 0.387 0.183 0.387 0.398 0 0 0 0 0 0v-0 1.127l-0.398 0.231-0.399-0.232v-1.126c0-0 0-0 0-0 0-0.22 0.178-0.399 0.399-0.399 0.004 0 0.008 0 0.012 0l-0.001-0zM8.003 7.487l0.458 0.261v0.521l-0.458 0.261-0.459-0.26v-0.521zM9.535 8.422l0.973 0.565c0.121 0.070 0.201 0.199 0.201 0.346 0 0.073-0.020 0.141-0.054 0.2l0.001-0.002v0.003c-0.071 0.12-0.2 0.199-0.347 0.199-0.074 0-0.143-0.020-0.202-0.054l0.002 0.001-0.977-0.563v-0.464zM6.471 8.425l0.401 0.231v0.461l-0.977 0.563c-0.057 0.034-0.126 0.053-0.199 0.053-0.22 0-0.399-0.179-0.399-0.399 0-0.147 0.079-0.275 0.198-0.344l0.002-0.001z"></path>
</svg>
