<!-- Generated by IcoMoon.io -->
<svg version="1.1" xmlns="http://www.w3.org/2000/svg" width="16" height="16" viewBox="0 0 16 16">
<title>yamahamotorcorporation</title>
<path fill="#e60012" d="M8 0c-4.418 0-8 3.582-8 8v0c0 4.418 3.582 8 8 8v0c4.418 0 8-3.582 8-8v0c0-4.418-3.582-8-8-8v0zM8 0.38c4.21 0 7.62 3.41 7.62 7.62 0 4.207-3.41 7.62-7.62 7.62-4.207 0-7.62-3.411-7.62-7.62 0-4.207 3.413-7.62 7.62-7.62zM8 0.536c-0.067 0-0.122 0.040-0.145 0.098l-0.328 1.034c-3.297 0.253-5.877 2.991-5.877 6.331 0 0 0 0.001 0 0.001v-0c0 0.987 0.225 1.923 0.627 2.757l-0.733 0.804c-0.019 0.026-0.031 0.059-0.031 0.095 0 0.029 0.008 0.057 0.022 0.080l-0-0.001c0.029 0.047 0.081 0.078 0.14 0.078 0.007 0 0.013-0 0.020-0.001l-0.001 0 1.061-0.235c1.158 1.684 3.074 2.773 5.245 2.773 0.001 0 0.001 0 0.002 0h-0c2.18 0 4.107-1.101 5.249-2.773l1.061 0.235c0.004 0 0.010 0.001 0.015 0.001 0.060 0 0.111-0.033 0.138-0.082l0-0.001c0.014-0.023 0.022-0.050 0.022-0.079 0-0.036-0.012-0.069-0.033-0.096l0 0-0.733-0.799c0.398-0.802 0.631-1.746 0.631-2.745 0-0.004 0-0.009-0-0.013v0.001c0-0 0-0.001 0-0.001 0-3.34-2.579-6.078-5.855-6.33l-0.022-0.001-0.329-1.037c-0.025-0.057-0.080-0.095-0.145-0.095-0 0-0 0-0 0h0zM7.998 0.703c0.016 0 0.032 0.013 0.037 0.029l0.68 2.236c-0.195 0.147-0.319 0.378-0.32 0.638v0c0 0.259 0.127 0.489 0.32 0.635h-0.003c0.291 0.217 0.479 0.564 0.479 0.953v0.747l2.884-1.665 0.317 0.55-3.201 1.847v0.643l0.556 0.32 3.201-1.849 0.317 0.55-2.884 1.667 0.648 0.373c0.339 0.196 0.545 0.532 0.588 0.892v-0.003c0.049 0.396 0.384 0.7 0.79 0.7 0.113 0 0.221-0.024 0.319-0.066l-0.005 0.002 1.595 1.707c0.013 0.013 0.013 0.031 0.005 0.047-0.011 0.017-0.027 0.022-0.045 0.019l-2.275-0.529c-0.049-0.397-0.384-0.701-0.79-0.701-0.112 0-0.219 0.023-0.315 0.065l0.005-0.002 0.002-0.003c-0.333 0.143-0.727 0.133-1.067-0.063l-0.645-0.373v3.329h-0.635v-3.697l-0.556-0.32-0.555 0.32v3.697h-0.635v-3.329l-0.648 0.37c-0.339 0.196-0.733 0.207-1.067 0.064l0.003 0.003c-0.092-0.040-0.199-0.063-0.311-0.063-0.406 0-0.741 0.304-0.789 0.697l-0 0.004-2.275 0.529c-0.003 0.001-0.006 0.001-0.010 0.001-0.014 0-0.026-0.008-0.032-0.020l-0-0c-0.011-0.013-0.008-0.031 0.005-0.045l1.598-1.707c0.222 0.095 0.487 0.090 0.711-0.043 0.225-0.129 0.363-0.352 0.392-0.593v0.003c0.042-0.36 0.249-0.696 0.587-0.891l0.647-0.373-2.885-1.664 0.318-0.551 3.201 1.849 0.555-0.323v-0.643l-3.201-1.847 0.317-0.551 2.884 1.664v-0.745c0-0.389 0.188-0.735 0.479-0.953h-0.003c0.193-0.143 0.317-0.373 0.317-0.635s-0.127-0.492-0.32-0.638l0.68-2.235c0.005-0.019 0.021-0.029 0.034-0.030zM8.001 4.637c-0.307 0-0.555 0.249-0.555 0.555v0 1.113l0.555 0.321 0.555-0.32v-1.114c0-0.306-0.248-0.555-0.555-0.555h-0zM8.001 7.36l-0.555 0.32v0.643l0.555 0.317 0.555-0.32v-0.64zM6.254 8.371l-0.963 0.555c-0.168 0.098-0.279 0.277-0.279 0.482 0 0.103 0.028 0.199 0.076 0.281l-0.001-0.003c0.096 0.165 0.273 0.275 0.475 0.275 0.002 0 0.005-0 0.007-0h-0c0 0 0.001 0 0.001 0 0.102 0 0.197-0.027 0.279-0.075l-0.003 0.001 0.963-0.556v-0.64zM9.749 8.371l-0.555 0.32v0.643l0.963 0.556c0.078 0.045 0.172 0.071 0.273 0.071 0.307 0 0.556-0.249 0.556-0.556 0-0.203-0.109-0.38-0.271-0.477l-0.003-0.001z"></path>
</svg>
