<!-- Generated by IcoMoon.io -->
<svg version="1.1" xmlns="http://www.w3.org/2000/svg" width="16" height="16" viewBox="0 0 16 16">
<title>yammer</title>
<path fill="#0072c6" d="M13.901 4.326c0.325-0.259 0.407-0.725 0.179-1.081-0.201-0.313-0.579-0.441-0.919-0.344l-0.093 0.050c-0.542 0.298-4.204 2.859-3.792 3.149 0.411 0.287 2.909-0.839 4.615-1.776zM13.891 12.029c-1.716-0.937-4.214-2.061-4.625-1.776-0.411 0.289 3.24 2.851 3.782 3.149l0.091 0.050c0.341 0.1 0.711-0.029 0.912-0.343 0.231-0.356 0.141-0.822-0.181-1.080zM15.375 7.335c-0.041-0.010-0.070-0.010-0.111-0.010-0.621 0-5.056 0.481-4.835 0.933 0.221 0.441 2.949 0.662 4.896 0.662 0.402-0.071 0.702-0.442 0.673-0.863-0.031-0.371-0.291-0.672-0.643-0.742zM3.617 11.177c-0.501 1.434-0.973 2.107-2.056 2.107-0.101 0-0.472-0.019-0.492-0.031-0.351-0.019-0.672 0.211-0.763 0.563-0.11 0.392 0.121 0.802 0.522 0.923 0.281 0.049 0.582 0.061 0.843 0.061 1.987 0 2.649-1.145 3.301-2.819l3.913-9.692c0.141-0.441-0.11-0.903-0.542-1.043-0.431-0.14-0.883 0.091-1.043 0.501l-2.729 7.223h-0.041l-2.868-7.273c-0.181-0.401-0.662-0.602-1.093-0.441-0.442 0.161-0.673 0.652-0.524 1.093l3.618 8.829z"></path>
</svg>
