<!-- Generated by IcoMoon.io -->
<svg version="1.1" xmlns="http://www.w3.org/2000/svg" width="16" height="16" viewBox="0 0 16 16">
<title>yandex</title>
<path fill="#f00" d="M1.268 10.899v-1.9l-1.268-3.401h0.638l0.933 2.625 1.075-3.175h0.585l-1.379 3.973v1.877zM5.027 10.899h-0.489c-0.022-0.083-0.043-0.2-0.050-0.298h-0.038c-0.164 0.209-0.373 0.35-0.701 0.35-0.532 0-0.896-0.401-0.896-1.136 0-0.8 0.407-1.304 1.453-1.304h0.082v-0.222c0-0.49-0.164-0.699-0.49-0.699-0.297 0-0.549 0.156-0.741 0.327l-0.111-0.511c0.171-0.142 0.511-0.298 0.891-0.298 0.66 0 1.022 0.283 1.022 1.187v1.757c0 0.356 0.037 0.668 0.067 0.845zM4.39 8.949h-0.067c-0.72 0-0.875 0.319-0.875 0.8 0 0.43 0.14 0.711 0.437 0.711 0.2 0 0.401-0.133 0.505-0.297zM6.258 10.899h-0.579v-3.747h0.579v0.327h0.037c0.103-0.14 0.385-0.371 0.734-0.371 0.488 0 0.747 0.275 0.747 0.845v2.945h-0.585v-2.893c0-0.282-0.125-0.38-0.349-0.38-0.243 0-0.45 0.186-0.585 0.373v2.9zM8.348 9.171c0-1.387 0.52-2.063 1.267-2.063 0.179 0 0.363 0.060 0.475 0.141v-1.651h0.579v5.3h-0.43l-0.046-0.297h-0.037c-0.163 0.208-0.371 0.347-0.675 0.347-0.733 0-1.133-0.622-1.133-1.778zM10.091 7.761c-0.117-0.117-0.244-0.177-0.437-0.177-0.467 0-0.69 0.705-0.69 1.468 0 0.875 0.164 1.409 0.587 1.409 0.291 0 0.444-0.142 0.541-0.29zM12.494 10.951c-0.77 0-1.246-0.616-1.246-1.765 0-1.203 0.334-2.077 1.127-2.077 0.623 0 1.029 0.467 1.029 1.736v0.319h-1.554c0 0.845 0.237 1.29 0.697 1.29 0.326 0 0.565-0.148 0.712-0.252l0.133 0.445c-0.236 0.185-0.527 0.304-0.897 0.304zM11.856 8.689h0.957c0-0.638-0.103-1.105-0.437-1.105-0.355 0-0.48 0.438-0.52 1.105zM15.919 7.161l-0.697 1.75 0.777 1.989h-0.599l-0.58-1.543-0.563 1.542h-0.57l0.777-1.936-0.705-1.801h0.601l0.485 1.357 0.51-1.357z"></path>
</svg>
