<!-- Generated by IcoMoon.io -->
<svg version="1.1" xmlns="http://www.w3.org/2000/svg" width="16" height="16" viewBox="0 0 16 16">
<title>yarn</title>
<path fill="#2c8ebb" d="M8 0c-4.417 0-8 3.583-8 8s3.583 8 8 8 8-3.583 8-8-3.583-8-8-8zM8.512 2.737c0.122 0 0.242 0.035 0.35 0.105 0.083 0.055 0.191 0.123 0.503 0.769 0.207-0.059 0.312-0.028 0.367-0.013 0.136 0.037 0.244 0.127 0.309 0.25 0.318 0.611 0.361 1.702 0.223 2.403-0.161 0.821-0.503 1.353-0.754 1.717 0.216 0.219 0.519 0.599 0.745 1.217 0.185 0.516 0.207 0.985 0.182 1.343 0.158-0.074 0.29-0.148 0.416-0.228l-0.015 0.009c0.395-0.244 0.991-0.611 1.702-0.621 0.476-0.006 0.846 0.297 0.902 0.735 0.005 0.033 0.007 0.070 0.007 0.109 0 0.388-0.27 0.713-0.632 0.798l-0.006 0.001c-0.433 0.105-0.633 0.185-1.214 0.562-0.821 0.531-1.693 0.828-2.008 0.927-0.131 0.108-0.289 0.188-0.462 0.227l-0.008 0.001c-0.491 0.121-2.177 0.21-2.311 0.21h-0.031c-0.522 0-0.809-0.161-0.967-0.327-0.439 0.219-1.007 0.127-1.415-0.089-0.238-0.121-0.398-0.363-0.398-0.643 0-0.044 0.004-0.088 0.012-0.13l-0.001 0.004c-0.037-0.039-0.071-0.081-0.1-0.127l-0.002-0.003c-0.108-0.167-0.352-0.624-0.303-1.297 0.037-0.482 0.371-0.911 0.587-1.14-0.001-0.033-0.002-0.072-0.002-0.111 0-0.502 0.101-0.981 0.283-1.417l-0.009 0.024c0.204-0.485 0.59-0.899 0.88-1.158-0.213-0.358-0.429-0.911-0.219-1.473 0.151-0.401 0.275-0.624 0.547-0.72h-0.003c0.133-0.049 0.259-0.102 0.324-0.173 0.385-0.42 0.923-0.694 1.525-0.735l0.007-0c0.025-0.062 0.053-0.123 0.083-0.189 0.207-0.439 0.426-0.686 0.683-0.779 0.065-0.025 0.14-0.039 0.219-0.039 0.001 0 0.002 0 0.002 0h-0zM8.516 3.203c-0.338 0.011-0.667 1.013-0.667 1.013s-0.847-0.136-1.511 0.581c-0.133 0.145-0.312 0.223-0.497 0.293-0.053 0.019-0.117 0.015-0.278 0.448-0.247 0.661 0.417 1.396 0.417 1.396s-0.791 0.559-1.084 1.254c-0.324 0.763-0.225 1.507-0.225 1.507s-0.562 0.488-0.599 0.991c-0.034 0.442 0.093 0.8 0.229 1.010 0.151 0.229 0.34 0.117 0.34 0.117s-0.374 0.435-0.025 0.621c0.318 0.167 0.855 0.263 1.14-0.025 0.207-0.207 0.247-0.667 0.324-0.855 0.019-0.043 0.080 0.074 0.139 0.133 0.065 0.062 0.176 0.13 0.176 0.13s-0.503 0.216-0.297 0.711c0.068 0.164 0.312 0.269 0.711 0.265 0.148-0.003 1.776-0.093 2.209-0.197 0.25-0.059 0.337-0.189 0.337-0.189s1.044-0.287 1.999-0.905c0.611-0.399 0.862-0.507 1.356-0.624 0.408-0.099 0.38-0.732-0.161-0.723-0.559 0.006-1.050 0.293-1.464 0.55-0.775 0.479-1.161 0.448-1.161 0.448l-0.012-0.021c-0.053-0.087 0.247-0.862-0.089-1.785-0.365-1.010-0.942-1.254-0.896-1.331 0.198-0.333 0.692-0.865 0.889-1.853 0.117-0.599 0.087-1.585-0.179-2.101-0.049-0.096-0.488 0.161-0.488 0.161s-0.411-0.914-0.525-0.989c-0.028-0.019-0.063-0.031-0.101-0.031-0.002 0-0.003 0-0.005 0h0z"></path>
</svg>
