<!-- Generated by IcoMoon.io -->
<svg version="1.1" xmlns="http://www.w3.org/2000/svg" width="16" height="16" viewBox="0 0 16 16">
<title>yelp</title>
<path fill="#d32323" d="M14.074 12.151c-0.094 0.646-1.413 2.322-2.019 2.565-0.207 0.083-0.407 0.063-0.567-0.060-0.103-0.080-0.209-0.243-1.631-2.551l-0.422-0.688c-0.163-0.247-0.133-0.571 0.069-0.819 0.198-0.239 0.488-0.329 0.741-0.233 0.013 0.008 1.064 0.354 1.064 0.354 2.392 0.786 2.47 0.816 2.571 0.892 0.151 0.124 0.221 0.317 0.19 0.542zM9.28 8.639c-0.169-0.257-0.167-0.561 0.008-0.77l0.665-0.906c1.459-1.989 1.541-2.094 1.639-2.163 0.171-0.114 0.38-0.119 0.581-0.021 0.579 0.281 1.749 2.019 1.819 2.686v0.023c0.019 0.227-0.070 0.412-0.231 0.523-0.109 0.070-0.209 0.111-2.929 0.771-0.43 0.109-0.669 0.169-0.81 0.219l0.019-0.020c-0.269 0.080-0.569-0.049-0.739-0.319zM7.611 7.609c-0.13 0.041-0.526 0.163-1.013-0.625 0 0-3.287-5.173-3.365-5.332-0.047-0.18 0.010-0.383 0.17-0.547 0.489-0.507 3.145-1.25 3.84-1.081 0.227 0.059 0.383 0.201 0.437 0.403 0.040 0.223 0.363 5.024 0.41 6.099 0.044 0.92-0.35 1.043-0.48 1.083zM8.045 12.871c-0.007 2.516-0.013 2.6-0.054 2.719-0.070 0.187-0.231 0.313-0.454 0.353-0.64 0.109-2.645-0.631-3.063-1.127-0.080-0.109-0.13-0.219-0.14-0.329-0.011-0.080 0-0.16 0.030-0.231 0.050-0.13 0.12-0.23 1.92-2.34l0.529-0.629c0.181-0.23 0.5-0.3 0.799-0.181 0.291 0.11 0.471 0.36 0.451 0.63v1.12zM2.589 11.261c-0.197-0.007-0.373-0.125-0.477-0.32-0.074-0.143-0.126-0.38-0.159-0.668-0.091-0.867 0.019-2.176 0.279-2.591 0.122-0.19 0.3-0.291 0.497-0.284 0.13 0 0.246 0.041 2.819 1.1l0.753 0.299c0.269 0.1 0.436 0.38 0.42 0.701-0.020 0.31-0.199 0.549-0.463 0.62l-1.070 0.34c-2.393 0.77-2.473 0.79-2.599 0.78zM12.574 15.998h-0.003l-0.003 0.002z"></path>
</svg>
