<!-- Generated by IcoMoon.io -->
<svg version="1.1" xmlns="http://www.w3.org/2000/svg" width="16" height="16" viewBox="0 0 16 16">
<title>youtube</title>
<path fill="#f00" d="M15.663 4.137c-0.193-0.677-0.715-1.199-1.378-1.389l-0.014-0.003c-1.247-0.334-6.264-0.334-6.264-0.334s-5.005-0.007-6.264 0.334c-0.677 0.193-1.199 0.715-1.389 1.378l-0.003 0.014c-0.221 1.14-0.348 2.452-0.348 3.793 0 0.027 0 0.054 0 0.082l-0-0.004c-0 0.019-0 0.041-0 0.063 0 1.341 0.127 2.652 0.369 3.922l-0.021-0.13c0.193 0.677 0.715 1.199 1.378 1.389l0.014 0.003c1.245 0.335 6.264 0.335 6.264 0.335s5.004 0 6.264-0.335c0.677-0.193 1.199-0.715 1.389-1.378l0.003-0.014c0.212-1.117 0.334-2.401 0.334-3.714 0-0.050-0-0.099-0.001-0.149l0 0.008c0-0.046 0.001-0.101 0.001-0.155 0-1.313-0.121-2.598-0.354-3.844l0.020 0.129zM6.406 10.401v-4.795l4.176 2.401z"></path>
</svg>
