<!-- Generated by IcoMoon.io -->
<svg version="1.1" xmlns="http://www.w3.org/2000/svg" width="16" height="16" viewBox="0 0 16 16">
<title>zalando</title>
<path fill="#ff6900" d="M3.187 16c-0.587 0-0.907-0.133-1.080-0.24-0.24-0.14-0.68-0.5-1.080-1.553-0.651-1.787-1.028-3.851-1.028-6.002 0-0.072 0-0.144 0.001-0.215l-0 0.011c0.013-2.44 0.393-4.507 1.027-6.2 0.4-1.067 0.84-1.427 1.080-1.567 0.173-0.093 0.493-0.233 1.080-0.233 0.22 0 0.48 0.020 0.787 0.067 2.186 0.414 4.132 1.179 5.877 2.243l-0.077-0.043h0.007c1.86 1.078 3.439 2.413 4.751 3.979l0.022 0.028c0.707 0.88 0.793 1.447 0.793 1.727s-0.087 0.847-0.793 1.727c-1.334 1.591-2.913 2.924-4.689 3.955l-0.084 0.045h-0.007c-1.668 1.022-3.614 1.787-5.692 2.183l-0.108 0.017c-0.307 0.053-0.567 0.073-0.787 0.073z"></path>
</svg>
