<!-- Generated by IcoMoon.io -->
<svg version="1.1" xmlns="http://www.w3.org/2000/svg" width="16" height="16" viewBox="0 0 16 16">
<title>zendframework</title>
<path fill="#68b604" d="M0.621 4.161v1.69h3.768l-4.389 5.987h6.813v-1.689h-3.453l4.369-5.987zM9.646 4.269c-2.119 0-2.119 2.119-2.119 2.119h6.354c2.119 0 2.119-2.119 2.119-2.119zM9.642 6.981c-2.115 0-2.115 2.115-2.115 2.115l3.175 0.003c2.119 0 2.118-2.118 2.118-2.118zM9.642 9.68c-2.115 0-2.115 2.122-2.115 2.122l1.056-0.004c2.119 0 2.119-2.118 2.119-2.118z"></path>
</svg>
