<!-- Generated by IcoMoon.io -->
<svg version="1.1" xmlns="http://www.w3.org/2000/svg" width="16" height="16" viewBox="0 0 16 16">
<title>zeromq</title>
<path fill="#df0000" d="M14.725 3.666l1.263-1.263-2.391-2.391-1.263 1.263c-1.249-0.807-2.737-1.275-4.334-1.275-4.418 0-8 3.582-8 8 0 1.597 0.468 3.085 1.275 4.334l-1.263 1.263 2.391 2.391 1.263-1.263c1.249 0.807 2.737 1.275 4.334 1.275 4.418 0 8-3.582 8-8 0-1.597-0.468-3.085-1.275-4.334zM3.046 8c0-2.736 2.218-4.954 4.954-4.954 0.75 0 1.461 0.167 2.097 0.465l-6.587 6.587c-0.298-0.637-0.465-1.348-0.465-2.098zM8 12.954c-0.75 0-1.461-0.167-2.097-0.465l6.587-6.587c0.298 0.637 0.465 1.348 0.465 2.097-0.001 2.737-2.219 4.955-4.955 4.955z"></path>
</svg>
