<!-- Generated by IcoMoon.io -->
<svg version="1.1" xmlns="http://www.w3.org/2000/svg" width="16" height="16" viewBox="0 0 16 16">
<title>zerply</title>
<path fill="#9dbc7a" d="M13.853 12.497c-0.498 0.476-1.041 0.678-1.695 0.678-0.88 0-2.215-0.407-3.231-1.107-1.086-0.746-2.51-1.491-3.708-1.514 0.882-1.199 2.26-2.419 3.548-3.865 0.475-0.52 3.322-3.8 3.82-4.391 0.36-0.43 0.542-0.949 0.542-1.47 0-0.2-0.022-0.39-0.067-0.57-1.357 0.27-2.374 0.401-4.001 0.401-1.785 0.010-3.071-0.209-3.82-0.659-0.52 0.679-1.040 1.582-1.040 2.080 0 0.632 0.612 1.152 2.126 1.152 0.497 0 1.31-0.023 2.44-0.113-2.328 3-4.633 5.44-6.011 6.98-0.475 0.521-0.747 1.22-0.747 1.921 0 0.27 0.050 0.54 0.12 0.79 0.43-0.069 0.861-0.119 1.31-0.119 0.93 0 1.86 0.199 2.721 0.559 1.711 0.759 3.311 2.75 5.121 2.75 1.469 0 2.71-1.161 2.71-2.691 0-0.269-0.041-0.55-0.13-0.819z"></path>
</svg>
