<!-- Generated by IcoMoon.io -->
<svg version="1.1" xmlns="http://www.w3.org/2000/svg" width="16" height="16" viewBox="0 0 16 16">
<title>zhihu</title>
<path fill="#0084ff" d="M3.814 0c-2.313 0-3.814 1.5-3.814 3.813v8.374c0 2.314 1.501 3.813 3.814 3.813h8.373c2.313 0 3.813-1.5 3.813-3.813v-8.374c0-2.314-1.5-3.813-3.813-3.813zM5.123 2.719c-0.181 0.487-0.333 0.956-0.453 1.407h3.058c0.363-0.004 0.297 0.779 0.297 0.781h-1.769c0 0.037 0 0.081 0 0.124 0 0.847-0.027 1.687-0.081 2.521l0.006-0.114h1.808c0.259 0.015 0.262 0.834 0.262 0.844h-2.129c-0.040 0.514-0.136 0.991-0.284 1.445l0.012-0.043 0.505-0.403c0.301 0.304 1.008 1.141 1.271 1.451 0.315 0.454 0.042 1.387 0.042 1.387l-1.863-2.255c-0.435 1.679-1.23 2.405-1.23 2.405-0.349 0.312-1.053 0.547-1.76 0.344 1.479-1.153 2.293-2.611 2.445-4.331h-2.265c0-0.010 0.131-0.829 0.537-0.844h1.807c0.016-0.213 0.057-2.169 0.057-2.531h-0.997c-0.091 0.271-0.105 0.298-0.179 0.502-0.396 0.73-1.069 0.748-1.271 0.77 0.604-1.214 0.944-2.4 1.061-2.709 0.283-0.749 1.114-0.75 1.114-0.75zM8.719 4h4.251v7.553h-1.715l-1.456 0.915-0.267-0.915h-0.813zM9.594 4.813v5.907h0.415l0.175 0.625 0.97-0.625h0.971v-5.907z"></path>
</svg>
