<!-- Generated by IcoMoon.io -->
<svg version="1.1" xmlns="http://www.w3.org/2000/svg" width="16" height="16" viewBox="0 0 16 16">
<title>zillow</title>
<path fill="#0074e4" d="M11.587 12.037c-4.953 0.297-10.34 2.090-10.908 2.34l0.659-1.859c1.681-0.777 5.85-2.313 10.991-2.679-0.1 0.38-0.641 1.781-0.75 2.19zM13.353 7.031c0 0-0.242 0.51-0.473 1.209-1.969 0.12-5.090 0.769-6.61 1.32 0.791-0.72 5.791-5.74 5.791-5.74 1.929 1.319 3.939 2.949 3.939 2.949l-2.647 0.263zM1.653 7.251c1.098-0.5 4.177-1.431 7.123-2.121 0 0-5.665 5.23-7.239 6.85l1.3-3.52c-1.011 0.15-1.456 0.21-2.837 0.5l1.653-1.701zM8.72 1.63c0.489 0.239 2.3 1.47 2.946 1.925-2.064 0.049-6.090 0.939-7.768 1.5 1.377-1.045 3.935-3.020 4.822-3.432z"></path>
</svg>
