<!-- Generated by IcoMoon.io -->
<svg version="1.1" xmlns="http://www.w3.org/2000/svg" width="16" height="16" viewBox="0 0 16 16">
<title>zingat</title>
<path fill="#009cfb" d="M8.181 0.004c-0.062-0.002-0.134-0.004-0.207-0.004-0.486 0-0.959 0.061-1.41 0.175l0.040-0.008c-1.311 0.314-2.42 1.039-3.211 2.028l-0.009 0.012c-0.68 0.83-1.128 1.873-1.232 3.016l-0.002 0.022c-0.014 0.127-0.022 0.275-0.022 0.425 0 0.362 0.047 0.714 0.134 1.049l-0.006-0.029c0.196 0.704 0.435 1.313 0.728 1.889l-0.026-0.057c0.561 1.131 1.114 2.077 1.724 2.983l-0.059-0.092c1.159 1.753 2.268 3.249 3.448 4.684l-0.076-0.095 0.045-0.049c0.304-0.383 0.615-0.76 0.909-1.15 0.526-0.699 1.041-1.407 1.56-2.112 0.091-0.113 0.146-0.258 0.146-0.416 0-0.031-0.002-0.061-0.006-0.091l0 0.003c-0.048-0.315-0.317-0.553-0.642-0.553-0.055 0-0.108 0.007-0.159 0.020l0.004-0.001c-0.205 0.051-0.333 0.191-0.45 0.351-0.365 0.502-0.73 1.003-1.098 1.504-0.098 0.133-0.201 0.262-0.325 0.369-0.97-1.229-1.933-2.611-2.813-4.050l-0.107-0.187c-0.509-0.853-0.98-1.726-1.338-2.653-0.077-0.18-0.153-0.404-0.214-0.633l-0.009-0.038c-0.070-0.293-0.064-0.595-0.045-0.896 0.014-0.397 0.093-0.772 0.227-1.119l-0.008 0.023c0.163-0.403 0.338-0.797 0.6-1.141 0.459-0.615 1.052-1.105 1.739-1.431l0.028-0.012c0.525-0.24 1.064-0.413 1.647-0.413 0.055-0.001 0.12-0.001 0.185-0.001 0.251 0 0.501 0.008 0.749 0.023l-0.034-0.002c0.23 0.016 0.444 0.055 0.649 0.117l-0.021-0.005c0.991 0.299 1.828 0.837 2.464 1.663 0.246 0.328 0.455 0.704 0.606 1.108l0.010 0.031c0.065 0.16 0.128 0.357 0.178 0.559l0.006 0.031c0.027 0.13 0.048 0.285 0.057 0.442l0 0.009c0.029 0.329 0.042 0.66-0.031 0.985-0.053 0.216-0.12 0.427-0.203 0.634-0.089 0.239-0.187 0.473-0.291 0.706v-1.094c0-0.007 0.001-0.016 0.001-0.024 0-0.133-0.046-0.255-0.124-0.35l0.001 0.001c-0.079-0.087-0.165-0.164-0.258-0.233l-0.005-0.003c-1.080-0.82-2.159-1.64-3.239-2.459-0.106-0.081-0.241-0.129-0.387-0.129-0.148 0-0.285 0.050-0.393 0.134l0.001-0.001c-0.141 0.107-0.281 0.217-0.422 0.325l-0.849 0.648v-0.611c-0.001-0.059-0.009-0.117-0.023-0.174-0.004-0.358-0.296-0.647-0.655-0.647-0.362 0-0.655 0.293-0.655 0.655 0 0.059 0.008 0.116 0.022 0.17l-0.001-0.005v1.547c0 0.002 0 0.005 0 0.008 0 0.039-0.020 0.073-0.049 0.093l-0 0c-0.129 0.093-0.253 0.189-0.375 0.285l-0.017 0.013c-0.149 0.121-0.243 0.303-0.243 0.508 0 0.155 0.054 0.298 0.145 0.41l-0.001-0.001c0.226 0.281 0.637 0.327 0.919 0.101l2.554-1.95c0.012-0.011 0.028-0.018 0.046-0.018 0.020 0 0.038 0.008 0.050 0.022l0 0 1.512 1.156c0.347 0.265 0.693 0.533 1.043 0.793 0.055 0.035 0.091 0.096 0.091 0.165 0 0.006-0 0.013-0.001 0.019l0-0.001v3.22c0 0.013 0.002 0.026 0.003 0.039 0.001 0.029 0.003 0.058 0.007 0.086l-0-0.004c0 0 0 0 0 0.001s0 0 0 0.001v-0c0 0.005 0 0.009 0.001 0.013 0.003 0.020 0.007 0.037 0.011 0.053l-0.001-0.005c0.006 0.026 0.013 0.047 0.020 0.067l-0.001-0.005c0.009 0.025 0.017 0.045 0.026 0.064l-0.002-0.004c0.106 0.226 0.332 0.379 0.594 0.379 0.273 0 0.507-0.167 0.605-0.405l0.002-0.004 0.020-0.029c0.209-0.36 0.423-0.717 0.625-1.085 0.398-0.723 0.755-1.464 1.012-2.25 0.134-0.364 0.223-0.786 0.249-1.224l0.001-0.012c0.002-0.049 0.003-0.107 0.003-0.165 0-0.55-0.083-1.081-0.238-1.58l0.010 0.038c-0.349-1.179-1.037-2.168-1.95-2.883l-0.012-0.009c-1.024-0.809-2.197-1.225-3.501-1.271zM7.452 6.807c-0.369 0.010-0.664 0.311-0.664 0.681 0 0.006 0 0.012 0 0.018l-0-0.001v1.077c0.008 0.371 0.311 0.668 0.683 0.668 0.004 0 0.007-0 0.011-0h1.073c0.375-0 0.679-0.305 0.679-0.68 0-0.001 0-0.001 0-0.002v0-1.079c-0.001-0.375-0.304-0.678-0.678-0.681h-0.54v-0.001zM7.5 7.445h1.027c0.049 0 0.067 0.020 0.067 0.069v0.519l0.002 0.004c0 0.165-0.006 0.331 0 0.493 0 0.056-0.017 0.077-0.075 0.077h-1.019c-0.053 0-0.071-0.018-0.071-0.071v-1.017c0-0.051 0.015-0.073 0.070-0.073z"></path>
</svg>
