<!-- Generated by IcoMoon.io -->
<svg version="1.1" xmlns="http://www.w3.org/2000/svg" width="16" height="16" viewBox="0 0 16 16">
<title>zoom</title>
<path fill="#2d8cff" d="M3.058 9.087l-0.18-0.008h-1.618l2.157-2.157-0.009-0.18c-0.007-0.29-0.24-0.523-0.529-0.53l-0.001-0-0.18-0.009h-2.695l0.009 0.18c0.023 0.292 0.235 0.513 0.529 0.53l0.18 0.009h1.619l-2.158 2.157 0.009 0.179c0.010 0.289 0.241 0.52 0.53 0.531l0.18 0.009h2.696l-0.009-0.18c-0.024-0.295-0.233-0.511-0.53-0.531zM5.216 6.203h-0.003c-0.992 0.001-1.795 0.805-1.795 1.797s0.804 1.797 1.797 1.797 1.797-0.804 1.797-1.797c0-0.992-0.804-1.796-1.795-1.797h-0zM5.977 8.763c-0.197 0.207-0.474 0.335-0.782 0.335-0.596 0-1.079-0.483-1.079-1.079 0-0.307 0.128-0.584 0.334-0.781l0-0c0.193-0.184 0.455-0.298 0.744-0.298 0.596 0 1.079 0.483 1.079 1.079 0 0.288-0.113 0.55-0.298 0.744l0-0zM14.558 6.204c-0.428 0-0.812 0.188-1.075 0.484l-0.001 0.002c-0.264-0.299-0.649-0.487-1.077-0.487-0 0-0.001 0-0.001 0h0c-0.001 0-0.001 0-0.002 0-0.3 0-0.578 0.092-0.808 0.25l0.005-0.003c-0.14-0.155-0.453-0.247-0.632-0.247v3.595l0.18-0.009c0.3-0.020 0.518-0.233 0.53-0.531l0.009-0.18v-1.258l0.009-0.18c0.007-0.135 0.027-0.255 0.088-0.36 0.127-0.216 0.358-0.359 0.622-0.359 0.133 0 0.257 0.036 0.363 0.098l-0.003-0.002c0.109 0.064 0.197 0.152 0.259 0.258l0.002 0.003c0.062 0.107 0.080 0.226 0.088 0.36l0.009 0.181v1.258l0.009 0.179c0.018 0.293 0.233 0.512 0.53 0.531l0.18 0.009v-1.977l0.008-0.18c0.007-0.133 0.027-0.256 0.089-0.362 0.199-0.343 0.639-0.46 0.982-0.26 0.109 0.064 0.197 0.153 0.259 0.259l0.002 0.003c0.061 0.107 0.080 0.229 0.087 0.36l0.009 0.18v1.258l0.009 0.179c0.019 0.295 0.233 0.513 0.531 0.531l0.18 0.009v-2.157c-0.001-0.793-0.645-1.436-1.438-1.436-0 0-0.001 0-0.001 0h0zM7.718 6.729c-0.345 0.328-0.559 0.791-0.559 1.303 0 0.993 0.805 1.797 1.797 1.797 0.512 0 0.974-0.214 1.301-0.558l0.001-0.001c0.307-0.322 0.495-0.758 0.495-1.239 0-0.993-0.805-1.797-1.797-1.797-0.48 0-0.916 0.188-1.239 0.495l0.001-0.001zM9.751 8.763c-0.196 0.201-0.47 0.326-0.773 0.326-0.596 0-1.079-0.483-1.079-1.079 0-0.303 0.125-0.577 0.326-0.772l0-0c0.194-0.189 0.46-0.306 0.753-0.306 0.596 0 1.079 0.483 1.079 1.079 0 0.293-0.117 0.559-0.306 0.753l0-0z"></path>
</svg>
